%TF.GenerationSoftware,KiCad,Pcbnew,9.0.7*%
%TF.CreationDate,2026-04-06T15:31:33+08:00*%
%TF.ProjectId,Timer2,54696d65-7232-42e6-9b69-6361645f7063,rev?*%
%TF.SameCoordinates,Original*%
%TF.FileFunction,Copper,L1,Top*%
%TF.FilePolarity,Positive*%
%FSLAX46Y46*%
G04 Gerber Fmt 4.6, Leading zero omitted, Abs format (unit mm)*
G04 Created by KiCad (PCBNEW 9.0.7) date 2026-04-06 15:31:33*
%MOMM*%
%LPD*%
G01*
G04 APERTURE LIST*
G04 Aperture macros list*
%AMRoundRect*
0 Rectangle with rounded corners*
0 $1 Rounding radius*
0 $2 $3 $4 $5 $6 $7 $8 $9 X,Y pos of 4 corners*
0 Add a 4 corners polygon primitive as box body*
4,1,4,$2,$3,$4,$5,$6,$7,$8,$9,$2,$3,0*
0 Add four circle primitives for the rounded corners*
1,1,$1+$1,$2,$3*
1,1,$1+$1,$4,$5*
1,1,$1+$1,$6,$7*
1,1,$1+$1,$8,$9*
0 Add four rect primitives between the rounded corners*
20,1,$1+$1,$2,$3,$4,$5,0*
20,1,$1+$1,$4,$5,$6,$7,0*
20,1,$1+$1,$6,$7,$8,$9,0*
20,1,$1+$1,$8,$9,$2,$3,0*%
G04 Aperture macros list end*
%TA.AperFunction,ComponentPad*%
%ADD10R,1.700000X1.700000*%
%TD*%
%TA.AperFunction,ComponentPad*%
%ADD11C,1.700000*%
%TD*%
%TA.AperFunction,ComponentPad*%
%ADD12RoundRect,0.250000X-0.550000X-0.550000X0.550000X-0.550000X0.550000X0.550000X-0.550000X0.550000X0*%
%TD*%
%TA.AperFunction,ComponentPad*%
%ADD13C,1.600000*%
%TD*%
%TA.AperFunction,ComponentPad*%
%ADD14C,5.500000*%
%TD*%
%TA.AperFunction,SMDPad,CuDef*%
%ADD15RoundRect,0.375000X-0.625000X-0.375000X0.625000X-0.375000X0.625000X0.375000X-0.625000X0.375000X0*%
%TD*%
%TA.AperFunction,SMDPad,CuDef*%
%ADD16RoundRect,0.500000X-0.500000X-1.400000X0.500000X-1.400000X0.500000X1.400000X-0.500000X1.400000X0*%
%TD*%
%TA.AperFunction,ComponentPad*%
%ADD17RoundRect,0.250000X1.050000X-1.050000X1.050000X1.050000X-1.050000X1.050000X-1.050000X-1.050000X0*%
%TD*%
%TA.AperFunction,ComponentPad*%
%ADD18C,2.600000*%
%TD*%
%TA.AperFunction,SMDPad,CuDef*%
%ADD19RoundRect,0.200000X-0.200000X-0.275000X0.200000X-0.275000X0.200000X0.275000X-0.200000X0.275000X0*%
%TD*%
%TA.AperFunction,ComponentPad*%
%ADD20R,1.600000X1.600000*%
%TD*%
%TA.AperFunction,ComponentPad*%
%ADD21O,1.600000X1.600000*%
%TD*%
%TA.AperFunction,SMDPad,CuDef*%
%ADD22RoundRect,0.250000X-0.250000X-0.475000X0.250000X-0.475000X0.250000X0.475000X-0.250000X0.475000X0*%
%TD*%
%TA.AperFunction,ComponentPad*%
%ADD23R,2.000000X2.000000*%
%TD*%
%TA.AperFunction,ComponentPad*%
%ADD24C,2.000000*%
%TD*%
%TA.AperFunction,SMDPad,CuDef*%
%ADD25RoundRect,0.150000X-0.587500X-0.150000X0.587500X-0.150000X0.587500X0.150000X-0.587500X0.150000X0*%
%TD*%
%TA.AperFunction,ViaPad*%
%ADD26C,0.600000*%
%TD*%
%TA.AperFunction,Conductor*%
%ADD27C,0.200000*%
%TD*%
G04 APERTURE END LIST*
D10*
%TO.P,J5,1,Pin_1*%
%TO.N,D5*%
X177000000Y-92000000D03*
D11*
%TO.P,J5,2,Pin_2*%
%TO.N,GND*%
X177000000Y-94540000D03*
%TD*%
D10*
%TO.P,J4,1,Pin_1*%
%TO.N,D4*%
X177000000Y-100460000D03*
D11*
%TO.P,J4,2,Pin_2*%
%TO.N,GND*%
X177000000Y-103000000D03*
%TD*%
D12*
%TO.P,U1,1*%
%TO.N,Net-(R1-Pad2)*%
X161650000Y-97200000D03*
D13*
%TO.P,U1,2*%
%TO.N,Sensor(black)*%
X161650000Y-99740000D03*
%TO.P,U1,3*%
%TO.N,GND*%
X169270000Y-99740000D03*
%TO.P,U1,4*%
%TO.N,Sensor_Input*%
X169270000Y-97200000D03*
%TD*%
D14*
%TO.P,H4,1,1*%
%TO.N,GND*%
X138000000Y-105000000D03*
%TD*%
D10*
%TO.P,J3,1,Pin_1*%
%TO.N,5V*%
X184000000Y-91920000D03*
D11*
%TO.P,J3,2,Pin_2*%
%TO.N,GND*%
X184000000Y-94460000D03*
%TO.P,J3,3,Pin_3*%
%TO.N,DIN*%
X184000000Y-97000000D03*
%TO.P,J3,4,Pin_4*%
%TO.N,~{CS}*%
X184000000Y-99540000D03*
%TO.P,J3,5,Pin_5*%
%TO.N,CLK*%
X184000000Y-102080000D03*
%TD*%
D15*
%TO.P,U4,1,GND*%
%TO.N,GND*%
X163000000Y-61000000D03*
%TO.P,U4,2,VO*%
%TO.N,5V*%
X163000000Y-63300000D03*
D16*
X169300000Y-63300000D03*
D15*
%TO.P,U4,3,VI*%
%TO.N,VCC*%
X163000000Y-65600000D03*
%TD*%
D17*
%TO.P,J2,1,Pin_1*%
%TO.N,GND*%
X181367500Y-84500000D03*
D18*
%TO.P,J2,2,Pin_2*%
%TO.N,VCC*%
X181367500Y-79500000D03*
%TD*%
D19*
%TO.P,R1,1*%
%TO.N,VCC*%
X172000000Y-87000000D03*
%TO.P,R1,2*%
%TO.N,Net-(R1-Pad2)*%
X173650000Y-87000000D03*
%TD*%
D20*
%TO.P,A1,1,D1/TX*%
%TO.N,unconnected-(A1-D1{slash}TX-Pad1)*%
X142790000Y-62370000D03*
D21*
%TO.P,A1,2,D0/RX*%
%TO.N,unconnected-(A1-D0{slash}RX-Pad2)*%
X142790000Y-64910000D03*
%TO.P,A1,3,~{RESET}*%
%TO.N,unconnected-(A1-~{RESET}-Pad3)*%
X142790000Y-67450000D03*
%TO.P,A1,4,GND*%
%TO.N,unconnected-(A1-GND-Pad4)*%
X142790000Y-69990000D03*
%TO.P,A1,5,D2*%
%TO.N,Sensor_Input*%
X142790000Y-72530000D03*
%TO.P,A1,6,D3*%
%TO.N,D3*%
X142790000Y-75070000D03*
%TO.P,A1,7,D4*%
%TO.N,D4*%
X142790000Y-77610000D03*
%TO.P,A1,8,D5*%
%TO.N,D5*%
X142790000Y-80150000D03*
%TO.P,A1,9,D6*%
%TO.N,unconnected-(A1-D6-Pad9)*%
X142790000Y-82690000D03*
%TO.P,A1,10,D7*%
%TO.N,unconnected-(A1-D7-Pad10)*%
X142790000Y-85230000D03*
%TO.P,A1,11,D8*%
%TO.N,unconnected-(A1-D8-Pad11)*%
X142790000Y-87770000D03*
%TO.P,A1,12,D9*%
%TO.N,unconnected-(A1-D9-Pad12)*%
X142790000Y-90310000D03*
%TO.P,A1,13,D10*%
%TO.N,~{CS}*%
X142790000Y-92850000D03*
%TO.P,A1,14,D11*%
%TO.N,DIN*%
X142790000Y-95390000D03*
%TO.P,A1,15,D12*%
%TO.N,unconnected-(A1-D12-Pad15)*%
X142790000Y-97930000D03*
%TO.P,A1,16,D13*%
%TO.N,CLK*%
X158030000Y-97930000D03*
%TO.P,A1,17,3V3*%
%TO.N,unconnected-(A1-3V3-Pad17)*%
X158030000Y-95390000D03*
%TO.P,A1,18,AREF*%
%TO.N,unconnected-(A1-AREF-Pad18)*%
X158030000Y-92850000D03*
%TO.P,A1,19,A0*%
%TO.N,unconnected-(A1-A0-Pad19)*%
X158030000Y-90310000D03*
%TO.P,A1,20,A1*%
%TO.N,unconnected-(A1-A1-Pad20)*%
X158030000Y-87770000D03*
%TO.P,A1,21,A2*%
%TO.N,unconnected-(A1-A2-Pad21)*%
X158030000Y-85230000D03*
%TO.P,A1,22,A3*%
%TO.N,unconnected-(A1-A3-Pad22)*%
X158030000Y-82690000D03*
%TO.P,A1,23,A4*%
%TO.N,unconnected-(A1-A4-Pad23)*%
X158030000Y-80150000D03*
%TO.P,A1,24,A5*%
%TO.N,unconnected-(A1-A5-Pad24)*%
X158030000Y-77610000D03*
%TO.P,A1,25,A6*%
%TO.N,unconnected-(A1-A6-Pad25)*%
X158030000Y-75070000D03*
%TO.P,A1,26,A7*%
%TO.N,unconnected-(A1-A7-Pad26)*%
X158030000Y-72530000D03*
%TO.P,A1,27,+5V*%
%TO.N,+5V*%
X158030000Y-69990000D03*
%TO.P,A1,28,~{RESET}*%
%TO.N,unconnected-(A1-~{RESET}-Pad28)*%
X158030000Y-67450000D03*
%TO.P,A1,29,GND*%
%TO.N,GND*%
X158030000Y-64910000D03*
%TO.P,A1,30,VIN*%
%TO.N,VCC*%
X158030000Y-62370000D03*
%TD*%
D22*
%TO.P,C3,1*%
%TO.N,VCC*%
X162050000Y-91000000D03*
%TO.P,C3,2*%
%TO.N,GND*%
X163950000Y-91000000D03*
%TD*%
D14*
%TO.P,H2,1,1*%
%TO.N,GND*%
X190000000Y-55000000D03*
%TD*%
D23*
%TO.P,BZ1,1,+*%
%TO.N,+5V*%
X163200000Y-77000000D03*
D24*
%TO.P,BZ1,2,-*%
%TO.N,Net-(BZ1--)*%
X170800000Y-77000000D03*
%TD*%
D14*
%TO.P,H1,1,1*%
%TO.N,GND*%
X138000000Y-55000000D03*
%TD*%
D17*
%TO.P,J1,1,Pin_1*%
%TO.N,GND*%
X181632500Y-72500000D03*
D18*
%TO.P,J1,2,Pin_2*%
%TO.N,VCC*%
X181632500Y-67500000D03*
%TO.P,J1,3,Pin_3*%
%TO.N,Sensor(black)*%
X181632500Y-62500000D03*
%TD*%
D14*
%TO.P,H3,1,1*%
%TO.N,GND*%
X190000000Y-105000000D03*
%TD*%
D25*
%TO.P,Q1,1,B*%
%TO.N,D3*%
X167000000Y-88000000D03*
%TO.P,Q1,2,E*%
%TO.N,GND*%
X167000000Y-89900000D03*
%TO.P,Q1,3,C*%
%TO.N,Net-(BZ1--)*%
X168875000Y-88950000D03*
%TD*%
D22*
%TO.P,C4,1*%
%TO.N,GND*%
X162000000Y-86000000D03*
%TO.P,C4,2*%
%TO.N,5V*%
X163900000Y-86000000D03*
%TD*%
D26*
%TO.N,5V*%
X183331000Y-65685600D03*
%TO.N,D5*%
X145570000Y-80130200D03*
X177224000Y-89138800D03*
%TO.N,D4*%
X176845000Y-80344800D03*
%TO.N,Sensor_Input*%
X169153000Y-75552700D03*
%TO.N,Net-(BZ1--)*%
X171276000Y-89496400D03*
%TO.N,VCC*%
X170656000Y-94090700D03*
X170829000Y-86441300D03*
%TO.N,Net-(R1-Pad2)*%
X162044000Y-80210000D03*
%TD*%
D27*
%TO.N,CLK*%
X159132000Y-98894000D02*
X161908000Y-101670000D01*
X159132000Y-97930000D02*
X159132000Y-98894000D01*
X158030000Y-97930000D02*
X159132000Y-97930000D01*
X161908000Y-101670000D02*
X183590000Y-101670000D01*
X183590000Y-101670000D02*
X184000000Y-102080000D01*
%TO.N,GND*%
X165900000Y-91000000D02*
X167000000Y-89900000D01*
X181632500Y-72500000D02*
X181632000Y-72500000D01*
X156894000Y-61912200D02*
X156894000Y-62900900D01*
X166171000Y-72500000D02*
X181632000Y-72500000D01*
X183920000Y-94540000D02*
X184000000Y-94460000D01*
X175521000Y-93061300D02*
X170435000Y-93061300D01*
X169000000Y-55000000D02*
X163000000Y-61000000D01*
X158030000Y-63808300D02*
X158030000Y-64359100D01*
X167274000Y-89900000D02*
X167000000Y-89900000D01*
X138000000Y-105000000D02*
X175000000Y-105000000D01*
X162000000Y-86213000D02*
X165687000Y-89900000D01*
X157802000Y-63808300D02*
X158030000Y-63808300D01*
X163950000Y-91000000D02*
X165900000Y-91000000D01*
X175000000Y-105000000D02*
X177000000Y-103000000D01*
X177000000Y-94540000D02*
X175521000Y-93061300D01*
X162000000Y-86000000D02*
X162000000Y-86213000D01*
X165687000Y-89900000D02*
X167000000Y-89900000D01*
X170435000Y-93061300D02*
X167274000Y-89900000D01*
X157806000Y-61000000D02*
X156894000Y-61912200D01*
X157000000Y-55000000D02*
X163000000Y-61000000D01*
X158030000Y-64910000D02*
X158030000Y-64359100D01*
X177000000Y-94540000D02*
X183920000Y-94540000D01*
X158030000Y-64359100D02*
X166171000Y-72500000D01*
X156894000Y-62900900D02*
X157802000Y-63808300D01*
X190000000Y-55000000D02*
X169000000Y-55000000D01*
X163000000Y-61000000D02*
X157806000Y-61000000D01*
X190000000Y-105000000D02*
X179000000Y-105000000D01*
X138000000Y-55000000D02*
X157000000Y-55000000D01*
X179000000Y-105000000D02*
X177000000Y-103000000D01*
%TO.N,5V*%
X163000000Y-63300000D02*
X169300000Y-63300000D01*
X171686000Y-65685600D02*
X183331000Y-65685600D01*
X168934000Y-86000000D02*
X163900000Y-86000000D01*
X173700000Y-90766800D02*
X168934000Y-86000000D01*
X181695000Y-90766800D02*
X173700000Y-90766800D01*
X182848000Y-91920000D02*
X181695000Y-90766800D01*
X184000000Y-91920000D02*
X182848000Y-91920000D01*
X169300000Y-63300000D02*
X171686000Y-65685600D01*
%TO.N,D5*%
X164945000Y-81420000D02*
X146860000Y-81420000D01*
X146860000Y-81420000D02*
X145570000Y-80130200D01*
X177224000Y-89138800D02*
X172664000Y-89138800D01*
X172664000Y-89138800D02*
X164945000Y-81420000D01*
%TO.N,D3*%
X141659000Y-78066800D02*
X142331000Y-78738400D01*
X143327000Y-78738400D02*
X148458000Y-83868800D01*
X142652000Y-76171700D02*
X141659000Y-77164800D01*
X142790000Y-76171700D02*
X142652000Y-76171700D01*
X162803000Y-85228700D02*
X162803000Y-86427600D01*
X161443000Y-83868800D02*
X162803000Y-85228700D01*
X162803000Y-86427600D02*
X164375000Y-88000000D01*
X164375000Y-88000000D02*
X167000000Y-88000000D01*
X141659000Y-77164800D02*
X141659000Y-78066800D01*
X142790000Y-75070000D02*
X142790000Y-76171700D01*
X142331000Y-78738400D02*
X143327000Y-78738400D01*
X148458000Y-83868800D02*
X161443000Y-83868800D01*
%TO.N,~{CS}*%
X159206000Y-96660000D02*
X142475000Y-96660000D01*
X184000000Y-99540000D02*
X182994000Y-98534000D01*
X141684000Y-94829300D02*
X142562000Y-93951700D01*
X142562000Y-93951700D02*
X142790000Y-93951700D01*
X182994000Y-98534000D02*
X161080000Y-98534000D01*
X141684000Y-95869100D02*
X141684000Y-94829300D01*
X161080000Y-98534000D02*
X159206000Y-96660000D01*
X142790000Y-93951700D02*
X142790000Y-92850000D01*
X142475000Y-96660000D02*
X141684000Y-95869100D01*
%TO.N,D4*%
X176845000Y-80344800D02*
X175377000Y-78877000D01*
X175377000Y-78877000D02*
X145159000Y-78877000D01*
X145159000Y-78877000D02*
X143892000Y-77610000D01*
X143892000Y-77610000D02*
X142790000Y-77610000D01*
%TO.N,Sensor_Input*%
X143892000Y-72530000D02*
X142790000Y-72530000D01*
X167400000Y-73800000D02*
X145162000Y-73800000D01*
X169153000Y-75552700D02*
X167400000Y-73800000D01*
X145162000Y-73800000D02*
X143892000Y-72530000D01*
%TO.N,DIN*%
X145062000Y-94220000D02*
X169612000Y-94220000D01*
X142790000Y-95390000D02*
X143892000Y-95390000D01*
X169612000Y-94220000D02*
X172392000Y-97000000D01*
X143892000Y-95390000D02*
X145062000Y-94220000D01*
X172392000Y-97000000D02*
X184000000Y-97000000D01*
%TO.N,Net-(BZ1--)*%
X169421000Y-89496400D02*
X168875000Y-88950000D01*
X171276000Y-89496400D02*
X169421000Y-89496400D01*
%TO.N,VCC*%
X181368000Y-80543200D02*
X174098000Y-87812500D01*
X181632500Y-67500000D02*
X181632000Y-67500000D01*
X162362000Y-65600000D02*
X163000000Y-65600000D01*
X169385000Y-92820100D02*
X163870000Y-92820100D01*
X171387000Y-87000000D02*
X170829000Y-86441300D01*
X159132000Y-62370000D02*
X162362000Y-65600000D01*
X172812000Y-87812500D02*
X172000000Y-87000000D01*
X181368000Y-79500000D02*
X181368000Y-80543200D01*
X174098000Y-87812500D02*
X172812000Y-87812500D01*
X181367500Y-79500000D02*
X181368000Y-79500000D01*
X170656000Y-94090700D02*
X169385000Y-92820100D01*
X158030000Y-62370000D02*
X159132000Y-62370000D01*
X164900000Y-67500000D02*
X163000000Y-65600000D01*
X172000000Y-87000000D02*
X171387000Y-87000000D01*
X181632000Y-67500000D02*
X164900000Y-67500000D01*
X163870000Y-92820100D02*
X162050000Y-91000000D01*
%TO.N,Net-(R1-Pad2)*%
X166860000Y-80210000D02*
X162044000Y-80210000D01*
X173650000Y-87000000D02*
X166860000Y-80210000D01*
%TD*%
M02*
