%TF.GenerationSoftware,KiCad,Pcbnew,7.0.11-rc3*%
%TF.CreationDate,2025-03-16T23:32:14+08:00*%
%TF.ProjectId,stencil,7374656e-6369-46c2-9e6b-696361645f70,rev?*%
%TF.SameCoordinates,Original*%
%TF.FileFunction,Paste,Top*%
%TF.FilePolarity,Positive*%
%FSLAX46Y46*%
G04 Gerber Fmt 4.6, Leading zero omitted, Abs format (unit mm)*
G04 Created by KiCad (PCBNEW 7.0.11-rc3) date 2025-03-16 23:32:14*
%MOMM*%
%LPD*%
G01*
G04 APERTURE LIST*
G04 Aperture macros list*
%AMRoundRect*
0 Rectangle with rounded corners*
0 $1 Rounding radius*
0 $2 $3 $4 $5 $6 $7 $8 $9 X,Y pos of 4 corners*
0 Add a 4 corners polygon primitive as box body*
4,1,4,$2,$3,$4,$5,$6,$7,$8,$9,$2,$3,0*
0 Add four circle primitives for the rounded corners*
1,1,$1+$1,$2,$3*
1,1,$1+$1,$4,$5*
1,1,$1+$1,$6,$7*
1,1,$1+$1,$8,$9*
0 Add four rect primitives between the rounded corners*
20,1,$1+$1,$2,$3,$4,$5,0*
20,1,$1+$1,$4,$5,$6,$7,0*
20,1,$1+$1,$6,$7,$8,$9,0*
20,1,$1+$1,$8,$9,$2,$3,0*%
G04 Aperture macros list end*
%ADD10RoundRect,0.100000X-0.637500X-0.100000X0.637500X-0.100000X0.637500X0.100000X-0.637500X0.100000X0*%
%ADD11RoundRect,0.075000X-0.662500X-0.075000X0.662500X-0.075000X0.662500X0.075000X-0.662500X0.075000X0*%
%ADD12RoundRect,0.075000X-0.075000X-0.662500X0.075000X-0.662500X0.075000X0.662500X-0.075000X0.662500X0*%
%ADD13R,3.200000X3.200000*%
%ADD14R,1.500000X0.300000*%
%ADD15R,0.300000X1.500000*%
G04 APERTURE END LIST*
D10*
%TO.C,U2*%
X93762500Y-60000000D03*
X93762500Y-60650000D03*
X93762500Y-61300000D03*
X93762500Y-61950000D03*
X93762500Y-62600000D03*
X93762500Y-63250000D03*
X93762500Y-63900000D03*
X93762500Y-64550000D03*
X99487500Y-64550000D03*
X99487500Y-63900000D03*
X99487500Y-63250000D03*
X99487500Y-62600000D03*
X99487500Y-61950000D03*
X99487500Y-61300000D03*
X99487500Y-60650000D03*
X99487500Y-60000000D03*
%TD*%
D11*
%TO.C,U1*%
X110000000Y-59525000D03*
X110000000Y-60025000D03*
X110000000Y-60525000D03*
X110000000Y-61025000D03*
X110000000Y-61525000D03*
X110000000Y-62025000D03*
X110000000Y-62525000D03*
X110000000Y-63025000D03*
X110000000Y-63525000D03*
X110000000Y-64025000D03*
X110000000Y-64525000D03*
X110000000Y-65025000D03*
D12*
X111412500Y-66437500D03*
X111912500Y-66437500D03*
X112412500Y-66437500D03*
X112912500Y-66437500D03*
X113412500Y-66437500D03*
X113912500Y-66437500D03*
X114412500Y-66437500D03*
X114912500Y-66437500D03*
X115412500Y-66437500D03*
X115912500Y-66437500D03*
X116412500Y-66437500D03*
X116912500Y-66437500D03*
D11*
X118325000Y-65025000D03*
X118325000Y-64525000D03*
X118325000Y-64025000D03*
X118325000Y-63525000D03*
X118325000Y-63025000D03*
X118325000Y-62525000D03*
X118325000Y-62025000D03*
X118325000Y-61525000D03*
X118325000Y-61025000D03*
X118325000Y-60525000D03*
X118325000Y-60025000D03*
X118325000Y-59525000D03*
D12*
X116912500Y-58112500D03*
X116412500Y-58112500D03*
X115912500Y-58112500D03*
X115412500Y-58112500D03*
X114912500Y-58112500D03*
X114412500Y-58112500D03*
X113912500Y-58112500D03*
X113412500Y-58112500D03*
X112912500Y-58112500D03*
X112412500Y-58112500D03*
X111912500Y-58112500D03*
X111412500Y-58112500D03*
%TD*%
D13*
%TO.C,U3*%
X75162500Y-60275000D03*
X75162500Y-64275000D03*
X79162500Y-60275000D03*
X79162500Y-64275000D03*
D14*
X71462500Y-58525000D03*
X71462500Y-59025000D03*
X71462500Y-59525000D03*
X71462500Y-60025000D03*
X71462500Y-60525000D03*
X71462500Y-61025000D03*
X71462500Y-61525000D03*
X71462500Y-62025000D03*
X71462500Y-62525000D03*
X71462500Y-63025000D03*
X71462500Y-63525000D03*
X71462500Y-64025000D03*
X71462500Y-64525000D03*
X71462500Y-65025000D03*
X71462500Y-65525000D03*
X71462500Y-66025000D03*
D15*
X73412500Y-67975000D03*
X73912500Y-67975000D03*
X74412500Y-67975000D03*
X74912500Y-67975000D03*
X75412500Y-67975000D03*
X75912500Y-67975000D03*
X76412500Y-67975000D03*
X76912500Y-67975000D03*
X77412500Y-67975000D03*
X77912500Y-67975000D03*
X78412500Y-67975000D03*
X78912500Y-67975000D03*
X79412500Y-67975000D03*
X79912500Y-67975000D03*
X80412500Y-67975000D03*
X80912500Y-67975000D03*
D14*
X82862500Y-66025000D03*
X82862500Y-65525000D03*
X82862500Y-65025000D03*
X82862500Y-64525000D03*
X82862500Y-64025000D03*
X82862500Y-63525000D03*
X82862500Y-63025000D03*
X82862500Y-62525000D03*
X82862500Y-62025000D03*
X82862500Y-61525000D03*
X82862500Y-61025000D03*
X82862500Y-60525000D03*
X82862500Y-60025000D03*
X82862500Y-59525000D03*
X82862500Y-59025000D03*
X82862500Y-58525000D03*
D15*
X80912500Y-56575000D03*
X80412500Y-56575000D03*
X79912500Y-56575000D03*
X79412500Y-56575000D03*
X78912500Y-56575000D03*
X78412500Y-56575000D03*
X77912500Y-56575000D03*
X77412500Y-56575000D03*
X76912500Y-56575000D03*
X76412500Y-56575000D03*
X75912500Y-56575000D03*
X75412500Y-56575000D03*
X74912500Y-56575000D03*
X74412500Y-56575000D03*
X73912500Y-56575000D03*
X73412500Y-56575000D03*
%TD*%
M02*
