%TF.GenerationSoftware,KiCad,Pcbnew,7.0.11-rc3*%
%TF.CreationDate,2025-03-16T23:21:53+08:00*%
%TF.ProjectId,BSPD,42535044-2e6b-4696-9361-645f70636258,rev?*%
%TF.SameCoordinates,PX731bc60PY731bc60*%
%TF.FileFunction,Legend,Bot*%
%TF.FilePolarity,Positive*%
%FSLAX46Y46*%
G04 Gerber Fmt 4.6, Leading zero omitted, Abs format (unit mm)*
G04 Created by KiCad (PCBNEW 7.0.11-rc3) date 2025-03-16 23:21:53*
%MOMM*%
%LPD*%
G01*
G04 APERTURE LIST*
%ADD10C,0.150000*%
%ADD11C,0.120000*%
G04 APERTURE END LIST*
D10*
X28059580Y-33757142D02*
X28107200Y-33709523D01*
X28107200Y-33709523D02*
X28154819Y-33566666D01*
X28154819Y-33566666D02*
X28154819Y-33471428D01*
X28154819Y-33471428D02*
X28107200Y-33328571D01*
X28107200Y-33328571D02*
X28011961Y-33233333D01*
X28011961Y-33233333D02*
X27916723Y-33185714D01*
X27916723Y-33185714D02*
X27726247Y-33138095D01*
X27726247Y-33138095D02*
X27583390Y-33138095D01*
X27583390Y-33138095D02*
X27392914Y-33185714D01*
X27392914Y-33185714D02*
X27297676Y-33233333D01*
X27297676Y-33233333D02*
X27202438Y-33328571D01*
X27202438Y-33328571D02*
X27154819Y-33471428D01*
X27154819Y-33471428D02*
X27154819Y-33566666D01*
X27154819Y-33566666D02*
X27202438Y-33709523D01*
X27202438Y-33709523D02*
X27250057Y-33757142D01*
X28154819Y-34709523D02*
X28154819Y-34138095D01*
X28154819Y-34423809D02*
X27154819Y-34423809D01*
X27154819Y-34423809D02*
X27297676Y-34328571D01*
X27297676Y-34328571D02*
X27392914Y-34233333D01*
X27392914Y-34233333D02*
X27440533Y-34138095D01*
X27488152Y-35566666D02*
X28154819Y-35566666D01*
X27107200Y-35328571D02*
X27821485Y-35090476D01*
X27821485Y-35090476D02*
X27821485Y-35709523D01*
X35654819Y-32661905D02*
X36464342Y-32661905D01*
X36464342Y-32661905D02*
X36559580Y-32709524D01*
X36559580Y-32709524D02*
X36607200Y-32757143D01*
X36607200Y-32757143D02*
X36654819Y-32852381D01*
X36654819Y-32852381D02*
X36654819Y-33042857D01*
X36654819Y-33042857D02*
X36607200Y-33138095D01*
X36607200Y-33138095D02*
X36559580Y-33185714D01*
X36559580Y-33185714D02*
X36464342Y-33233333D01*
X36464342Y-33233333D02*
X35654819Y-33233333D01*
X36654819Y-34233333D02*
X36654819Y-33661905D01*
X36654819Y-33947619D02*
X35654819Y-33947619D01*
X35654819Y-33947619D02*
X35797676Y-33852381D01*
X35797676Y-33852381D02*
X35892914Y-33757143D01*
X35892914Y-33757143D02*
X35940533Y-33661905D01*
X35654819Y-34852381D02*
X35654819Y-34947619D01*
X35654819Y-34947619D02*
X35702438Y-35042857D01*
X35702438Y-35042857D02*
X35750057Y-35090476D01*
X35750057Y-35090476D02*
X35845295Y-35138095D01*
X35845295Y-35138095D02*
X36035771Y-35185714D01*
X36035771Y-35185714D02*
X36273866Y-35185714D01*
X36273866Y-35185714D02*
X36464342Y-35138095D01*
X36464342Y-35138095D02*
X36559580Y-35090476D01*
X36559580Y-35090476D02*
X36607200Y-35042857D01*
X36607200Y-35042857D02*
X36654819Y-34947619D01*
X36654819Y-34947619D02*
X36654819Y-34852381D01*
X36654819Y-34852381D02*
X36607200Y-34757143D01*
X36607200Y-34757143D02*
X36559580Y-34709524D01*
X36559580Y-34709524D02*
X36464342Y-34661905D01*
X36464342Y-34661905D02*
X36273866Y-34614286D01*
X36273866Y-34614286D02*
X36035771Y-34614286D01*
X36035771Y-34614286D02*
X35845295Y-34661905D01*
X35845295Y-34661905D02*
X35750057Y-34709524D01*
X35750057Y-34709524D02*
X35702438Y-34757143D01*
X35702438Y-34757143D02*
X35654819Y-34852381D01*
X14479166Y-14684819D02*
X14812499Y-14208628D01*
X15050594Y-14684819D02*
X15050594Y-13684819D01*
X15050594Y-13684819D02*
X14669642Y-13684819D01*
X14669642Y-13684819D02*
X14574404Y-13732438D01*
X14574404Y-13732438D02*
X14526785Y-13780057D01*
X14526785Y-13780057D02*
X14479166Y-13875295D01*
X14479166Y-13875295D02*
X14479166Y-14018152D01*
X14479166Y-14018152D02*
X14526785Y-14113390D01*
X14526785Y-14113390D02*
X14574404Y-14161009D01*
X14574404Y-14161009D02*
X14669642Y-14208628D01*
X14669642Y-14208628D02*
X15050594Y-14208628D01*
X14145832Y-13684819D02*
X13526785Y-13684819D01*
X13526785Y-13684819D02*
X13860118Y-14065771D01*
X13860118Y-14065771D02*
X13717261Y-14065771D01*
X13717261Y-14065771D02*
X13622023Y-14113390D01*
X13622023Y-14113390D02*
X13574404Y-14161009D01*
X13574404Y-14161009D02*
X13526785Y-14256247D01*
X13526785Y-14256247D02*
X13526785Y-14494342D01*
X13526785Y-14494342D02*
X13574404Y-14589580D01*
X13574404Y-14589580D02*
X13622023Y-14637200D01*
X13622023Y-14637200D02*
X13717261Y-14684819D01*
X13717261Y-14684819D02*
X14002975Y-14684819D01*
X14002975Y-14684819D02*
X14098213Y-14637200D01*
X14098213Y-14637200D02*
X14145832Y-14589580D01*
X38364285Y-17754819D02*
X38364285Y-16754819D01*
X38364285Y-16754819D02*
X38126190Y-16754819D01*
X38126190Y-16754819D02*
X37983333Y-16802438D01*
X37983333Y-16802438D02*
X37888095Y-16897676D01*
X37888095Y-16897676D02*
X37840476Y-16992914D01*
X37840476Y-16992914D02*
X37792857Y-17183390D01*
X37792857Y-17183390D02*
X37792857Y-17326247D01*
X37792857Y-17326247D02*
X37840476Y-17516723D01*
X37840476Y-17516723D02*
X37888095Y-17611961D01*
X37888095Y-17611961D02*
X37983333Y-17707200D01*
X37983333Y-17707200D02*
X38126190Y-17754819D01*
X38126190Y-17754819D02*
X38364285Y-17754819D01*
X36840476Y-17754819D02*
X37411904Y-17754819D01*
X37126190Y-17754819D02*
X37126190Y-16754819D01*
X37126190Y-16754819D02*
X37221428Y-16897676D01*
X37221428Y-16897676D02*
X37316666Y-16992914D01*
X37316666Y-16992914D02*
X37411904Y-17040533D01*
X36269047Y-17183390D02*
X36364285Y-17135771D01*
X36364285Y-17135771D02*
X36411904Y-17088152D01*
X36411904Y-17088152D02*
X36459523Y-16992914D01*
X36459523Y-16992914D02*
X36459523Y-16945295D01*
X36459523Y-16945295D02*
X36411904Y-16850057D01*
X36411904Y-16850057D02*
X36364285Y-16802438D01*
X36364285Y-16802438D02*
X36269047Y-16754819D01*
X36269047Y-16754819D02*
X36078571Y-16754819D01*
X36078571Y-16754819D02*
X35983333Y-16802438D01*
X35983333Y-16802438D02*
X35935714Y-16850057D01*
X35935714Y-16850057D02*
X35888095Y-16945295D01*
X35888095Y-16945295D02*
X35888095Y-16992914D01*
X35888095Y-16992914D02*
X35935714Y-17088152D01*
X35935714Y-17088152D02*
X35983333Y-17135771D01*
X35983333Y-17135771D02*
X36078571Y-17183390D01*
X36078571Y-17183390D02*
X36269047Y-17183390D01*
X36269047Y-17183390D02*
X36364285Y-17231009D01*
X36364285Y-17231009D02*
X36411904Y-17278628D01*
X36411904Y-17278628D02*
X36459523Y-17373866D01*
X36459523Y-17373866D02*
X36459523Y-17564342D01*
X36459523Y-17564342D02*
X36411904Y-17659580D01*
X36411904Y-17659580D02*
X36364285Y-17707200D01*
X36364285Y-17707200D02*
X36269047Y-17754819D01*
X36269047Y-17754819D02*
X36078571Y-17754819D01*
X36078571Y-17754819D02*
X35983333Y-17707200D01*
X35983333Y-17707200D02*
X35935714Y-17659580D01*
X35935714Y-17659580D02*
X35888095Y-17564342D01*
X35888095Y-17564342D02*
X35888095Y-17373866D01*
X35888095Y-17373866D02*
X35935714Y-17278628D01*
X35935714Y-17278628D02*
X35983333Y-17231009D01*
X35983333Y-17231009D02*
X36078571Y-17183390D01*
X11942857Y-9159580D02*
X11990476Y-9207200D01*
X11990476Y-9207200D02*
X12133333Y-9254819D01*
X12133333Y-9254819D02*
X12228571Y-9254819D01*
X12228571Y-9254819D02*
X12371428Y-9207200D01*
X12371428Y-9207200D02*
X12466666Y-9111961D01*
X12466666Y-9111961D02*
X12514285Y-9016723D01*
X12514285Y-9016723D02*
X12561904Y-8826247D01*
X12561904Y-8826247D02*
X12561904Y-8683390D01*
X12561904Y-8683390D02*
X12514285Y-8492914D01*
X12514285Y-8492914D02*
X12466666Y-8397676D01*
X12466666Y-8397676D02*
X12371428Y-8302438D01*
X12371428Y-8302438D02*
X12228571Y-8254819D01*
X12228571Y-8254819D02*
X12133333Y-8254819D01*
X12133333Y-8254819D02*
X11990476Y-8302438D01*
X11990476Y-8302438D02*
X11942857Y-8350057D01*
X10990476Y-9254819D02*
X11561904Y-9254819D01*
X11276190Y-9254819D02*
X11276190Y-8254819D01*
X11276190Y-8254819D02*
X11371428Y-8397676D01*
X11371428Y-8397676D02*
X11466666Y-8492914D01*
X11466666Y-8492914D02*
X11561904Y-8540533D01*
X10514285Y-9254819D02*
X10323809Y-9254819D01*
X10323809Y-9254819D02*
X10228571Y-9207200D01*
X10228571Y-9207200D02*
X10180952Y-9159580D01*
X10180952Y-9159580D02*
X10085714Y-9016723D01*
X10085714Y-9016723D02*
X10038095Y-8826247D01*
X10038095Y-8826247D02*
X10038095Y-8445295D01*
X10038095Y-8445295D02*
X10085714Y-8350057D01*
X10085714Y-8350057D02*
X10133333Y-8302438D01*
X10133333Y-8302438D02*
X10228571Y-8254819D01*
X10228571Y-8254819D02*
X10419047Y-8254819D01*
X10419047Y-8254819D02*
X10514285Y-8302438D01*
X10514285Y-8302438D02*
X10561904Y-8350057D01*
X10561904Y-8350057D02*
X10609523Y-8445295D01*
X10609523Y-8445295D02*
X10609523Y-8683390D01*
X10609523Y-8683390D02*
X10561904Y-8778628D01*
X10561904Y-8778628D02*
X10514285Y-8826247D01*
X10514285Y-8826247D02*
X10419047Y-8873866D01*
X10419047Y-8873866D02*
X10228571Y-8873866D01*
X10228571Y-8873866D02*
X10133333Y-8826247D01*
X10133333Y-8826247D02*
X10085714Y-8778628D01*
X10085714Y-8778628D02*
X10038095Y-8683390D01*
X31538094Y-17754819D02*
X31538094Y-16754819D01*
X31538094Y-16754819D02*
X31299999Y-16754819D01*
X31299999Y-16754819D02*
X31157142Y-16802438D01*
X31157142Y-16802438D02*
X31061904Y-16897676D01*
X31061904Y-16897676D02*
X31014285Y-16992914D01*
X31014285Y-16992914D02*
X30966666Y-17183390D01*
X30966666Y-17183390D02*
X30966666Y-17326247D01*
X30966666Y-17326247D02*
X31014285Y-17516723D01*
X31014285Y-17516723D02*
X31061904Y-17611961D01*
X31061904Y-17611961D02*
X31157142Y-17707200D01*
X31157142Y-17707200D02*
X31299999Y-17754819D01*
X31299999Y-17754819D02*
X31538094Y-17754819D01*
X30061904Y-16754819D02*
X30538094Y-16754819D01*
X30538094Y-16754819D02*
X30585713Y-17231009D01*
X30585713Y-17231009D02*
X30538094Y-17183390D01*
X30538094Y-17183390D02*
X30442856Y-17135771D01*
X30442856Y-17135771D02*
X30204761Y-17135771D01*
X30204761Y-17135771D02*
X30109523Y-17183390D01*
X30109523Y-17183390D02*
X30061904Y-17231009D01*
X30061904Y-17231009D02*
X30014285Y-17326247D01*
X30014285Y-17326247D02*
X30014285Y-17564342D01*
X30014285Y-17564342D02*
X30061904Y-17659580D01*
X30061904Y-17659580D02*
X30109523Y-17707200D01*
X30109523Y-17707200D02*
X30204761Y-17754819D01*
X30204761Y-17754819D02*
X30442856Y-17754819D01*
X30442856Y-17754819D02*
X30538094Y-17707200D01*
X30538094Y-17707200D02*
X30585713Y-17659580D01*
X14366666Y-24354819D02*
X14699999Y-23878628D01*
X14938094Y-24354819D02*
X14938094Y-23354819D01*
X14938094Y-23354819D02*
X14557142Y-23354819D01*
X14557142Y-23354819D02*
X14461904Y-23402438D01*
X14461904Y-23402438D02*
X14414285Y-23450057D01*
X14414285Y-23450057D02*
X14366666Y-23545295D01*
X14366666Y-23545295D02*
X14366666Y-23688152D01*
X14366666Y-23688152D02*
X14414285Y-23783390D01*
X14414285Y-23783390D02*
X14461904Y-23831009D01*
X14461904Y-23831009D02*
X14557142Y-23878628D01*
X14557142Y-23878628D02*
X14938094Y-23878628D01*
X13509523Y-23354819D02*
X13699999Y-23354819D01*
X13699999Y-23354819D02*
X13795237Y-23402438D01*
X13795237Y-23402438D02*
X13842856Y-23450057D01*
X13842856Y-23450057D02*
X13938094Y-23592914D01*
X13938094Y-23592914D02*
X13985713Y-23783390D01*
X13985713Y-23783390D02*
X13985713Y-24164342D01*
X13985713Y-24164342D02*
X13938094Y-24259580D01*
X13938094Y-24259580D02*
X13890475Y-24307200D01*
X13890475Y-24307200D02*
X13795237Y-24354819D01*
X13795237Y-24354819D02*
X13604761Y-24354819D01*
X13604761Y-24354819D02*
X13509523Y-24307200D01*
X13509523Y-24307200D02*
X13461904Y-24259580D01*
X13461904Y-24259580D02*
X13414285Y-24164342D01*
X13414285Y-24164342D02*
X13414285Y-23926247D01*
X13414285Y-23926247D02*
X13461904Y-23831009D01*
X13461904Y-23831009D02*
X13509523Y-23783390D01*
X13509523Y-23783390D02*
X13604761Y-23735771D01*
X13604761Y-23735771D02*
X13795237Y-23735771D01*
X13795237Y-23735771D02*
X13890475Y-23783390D01*
X13890475Y-23783390D02*
X13938094Y-23831009D01*
X13938094Y-23831009D02*
X13985713Y-23926247D01*
X14554166Y-9184819D02*
X14887499Y-8708628D01*
X15125594Y-9184819D02*
X15125594Y-8184819D01*
X15125594Y-8184819D02*
X14744642Y-8184819D01*
X14744642Y-8184819D02*
X14649404Y-8232438D01*
X14649404Y-8232438D02*
X14601785Y-8280057D01*
X14601785Y-8280057D02*
X14554166Y-8375295D01*
X14554166Y-8375295D02*
X14554166Y-8518152D01*
X14554166Y-8518152D02*
X14601785Y-8613390D01*
X14601785Y-8613390D02*
X14649404Y-8661009D01*
X14649404Y-8661009D02*
X14744642Y-8708628D01*
X14744642Y-8708628D02*
X15125594Y-8708628D01*
X13601785Y-9184819D02*
X14173213Y-9184819D01*
X13887499Y-9184819D02*
X13887499Y-8184819D01*
X13887499Y-8184819D02*
X13982737Y-8327676D01*
X13982737Y-8327676D02*
X14077975Y-8422914D01*
X14077975Y-8422914D02*
X14173213Y-8470533D01*
X14466666Y-21184819D02*
X14799999Y-20708628D01*
X15038094Y-21184819D02*
X15038094Y-20184819D01*
X15038094Y-20184819D02*
X14657142Y-20184819D01*
X14657142Y-20184819D02*
X14561904Y-20232438D01*
X14561904Y-20232438D02*
X14514285Y-20280057D01*
X14514285Y-20280057D02*
X14466666Y-20375295D01*
X14466666Y-20375295D02*
X14466666Y-20518152D01*
X14466666Y-20518152D02*
X14514285Y-20613390D01*
X14514285Y-20613390D02*
X14561904Y-20661009D01*
X14561904Y-20661009D02*
X14657142Y-20708628D01*
X14657142Y-20708628D02*
X15038094Y-20708628D01*
X13609523Y-20518152D02*
X13609523Y-21184819D01*
X13847618Y-20137200D02*
X14085713Y-20851485D01*
X14085713Y-20851485D02*
X13466666Y-20851485D01*
X25839580Y-23883333D02*
X25887200Y-23835714D01*
X25887200Y-23835714D02*
X25934819Y-23692857D01*
X25934819Y-23692857D02*
X25934819Y-23597619D01*
X25934819Y-23597619D02*
X25887200Y-23454762D01*
X25887200Y-23454762D02*
X25791961Y-23359524D01*
X25791961Y-23359524D02*
X25696723Y-23311905D01*
X25696723Y-23311905D02*
X25506247Y-23264286D01*
X25506247Y-23264286D02*
X25363390Y-23264286D01*
X25363390Y-23264286D02*
X25172914Y-23311905D01*
X25172914Y-23311905D02*
X25077676Y-23359524D01*
X25077676Y-23359524D02*
X24982438Y-23454762D01*
X24982438Y-23454762D02*
X24934819Y-23597619D01*
X24934819Y-23597619D02*
X24934819Y-23692857D01*
X24934819Y-23692857D02*
X24982438Y-23835714D01*
X24982438Y-23835714D02*
X25030057Y-23883333D01*
X25030057Y-24264286D02*
X24982438Y-24311905D01*
X24982438Y-24311905D02*
X24934819Y-24407143D01*
X24934819Y-24407143D02*
X24934819Y-24645238D01*
X24934819Y-24645238D02*
X24982438Y-24740476D01*
X24982438Y-24740476D02*
X25030057Y-24788095D01*
X25030057Y-24788095D02*
X25125295Y-24835714D01*
X25125295Y-24835714D02*
X25220533Y-24835714D01*
X25220533Y-24835714D02*
X25363390Y-24788095D01*
X25363390Y-24788095D02*
X25934819Y-24216667D01*
X25934819Y-24216667D02*
X25934819Y-24835714D01*
X7692857Y-33754819D02*
X8026190Y-33278628D01*
X8264285Y-33754819D02*
X8264285Y-32754819D01*
X8264285Y-32754819D02*
X7883333Y-32754819D01*
X7883333Y-32754819D02*
X7788095Y-32802438D01*
X7788095Y-32802438D02*
X7740476Y-32850057D01*
X7740476Y-32850057D02*
X7692857Y-32945295D01*
X7692857Y-32945295D02*
X7692857Y-33088152D01*
X7692857Y-33088152D02*
X7740476Y-33183390D01*
X7740476Y-33183390D02*
X7788095Y-33231009D01*
X7788095Y-33231009D02*
X7883333Y-33278628D01*
X7883333Y-33278628D02*
X8264285Y-33278628D01*
X7359523Y-32754819D02*
X6740476Y-32754819D01*
X6740476Y-32754819D02*
X7073809Y-33135771D01*
X7073809Y-33135771D02*
X6930952Y-33135771D01*
X6930952Y-33135771D02*
X6835714Y-33183390D01*
X6835714Y-33183390D02*
X6788095Y-33231009D01*
X6788095Y-33231009D02*
X6740476Y-33326247D01*
X6740476Y-33326247D02*
X6740476Y-33564342D01*
X6740476Y-33564342D02*
X6788095Y-33659580D01*
X6788095Y-33659580D02*
X6835714Y-33707200D01*
X6835714Y-33707200D02*
X6930952Y-33754819D01*
X6930952Y-33754819D02*
X7216666Y-33754819D01*
X7216666Y-33754819D02*
X7311904Y-33707200D01*
X7311904Y-33707200D02*
X7359523Y-33659580D01*
X6407142Y-32754819D02*
X5740476Y-32754819D01*
X5740476Y-32754819D02*
X6169047Y-33754819D01*
X32924404Y-22204819D02*
X32924404Y-23014342D01*
X32924404Y-23014342D02*
X32876785Y-23109580D01*
X32876785Y-23109580D02*
X32829166Y-23157200D01*
X32829166Y-23157200D02*
X32733928Y-23204819D01*
X32733928Y-23204819D02*
X32543452Y-23204819D01*
X32543452Y-23204819D02*
X32448214Y-23157200D01*
X32448214Y-23157200D02*
X32400595Y-23109580D01*
X32400595Y-23109580D02*
X32352976Y-23014342D01*
X32352976Y-23014342D02*
X32352976Y-22204819D01*
X31733928Y-22633390D02*
X31829166Y-22585771D01*
X31829166Y-22585771D02*
X31876785Y-22538152D01*
X31876785Y-22538152D02*
X31924404Y-22442914D01*
X31924404Y-22442914D02*
X31924404Y-22395295D01*
X31924404Y-22395295D02*
X31876785Y-22300057D01*
X31876785Y-22300057D02*
X31829166Y-22252438D01*
X31829166Y-22252438D02*
X31733928Y-22204819D01*
X31733928Y-22204819D02*
X31543452Y-22204819D01*
X31543452Y-22204819D02*
X31448214Y-22252438D01*
X31448214Y-22252438D02*
X31400595Y-22300057D01*
X31400595Y-22300057D02*
X31352976Y-22395295D01*
X31352976Y-22395295D02*
X31352976Y-22442914D01*
X31352976Y-22442914D02*
X31400595Y-22538152D01*
X31400595Y-22538152D02*
X31448214Y-22585771D01*
X31448214Y-22585771D02*
X31543452Y-22633390D01*
X31543452Y-22633390D02*
X31733928Y-22633390D01*
X31733928Y-22633390D02*
X31829166Y-22681009D01*
X31829166Y-22681009D02*
X31876785Y-22728628D01*
X31876785Y-22728628D02*
X31924404Y-22823866D01*
X31924404Y-22823866D02*
X31924404Y-23014342D01*
X31924404Y-23014342D02*
X31876785Y-23109580D01*
X31876785Y-23109580D02*
X31829166Y-23157200D01*
X31829166Y-23157200D02*
X31733928Y-23204819D01*
X31733928Y-23204819D02*
X31543452Y-23204819D01*
X31543452Y-23204819D02*
X31448214Y-23157200D01*
X31448214Y-23157200D02*
X31400595Y-23109580D01*
X31400595Y-23109580D02*
X31352976Y-23014342D01*
X31352976Y-23014342D02*
X31352976Y-22823866D01*
X31352976Y-22823866D02*
X31400595Y-22728628D01*
X31400595Y-22728628D02*
X31448214Y-22681009D01*
X31448214Y-22681009D02*
X31543452Y-22633390D01*
X7559580Y-20357142D02*
X7607200Y-20309523D01*
X7607200Y-20309523D02*
X7654819Y-20166666D01*
X7654819Y-20166666D02*
X7654819Y-20071428D01*
X7654819Y-20071428D02*
X7607200Y-19928571D01*
X7607200Y-19928571D02*
X7511961Y-19833333D01*
X7511961Y-19833333D02*
X7416723Y-19785714D01*
X7416723Y-19785714D02*
X7226247Y-19738095D01*
X7226247Y-19738095D02*
X7083390Y-19738095D01*
X7083390Y-19738095D02*
X6892914Y-19785714D01*
X6892914Y-19785714D02*
X6797676Y-19833333D01*
X6797676Y-19833333D02*
X6702438Y-19928571D01*
X6702438Y-19928571D02*
X6654819Y-20071428D01*
X6654819Y-20071428D02*
X6654819Y-20166666D01*
X6654819Y-20166666D02*
X6702438Y-20309523D01*
X6702438Y-20309523D02*
X6750057Y-20357142D01*
X7654819Y-21309523D02*
X7654819Y-20738095D01*
X7654819Y-21023809D02*
X6654819Y-21023809D01*
X6654819Y-21023809D02*
X6797676Y-20928571D01*
X6797676Y-20928571D02*
X6892914Y-20833333D01*
X6892914Y-20833333D02*
X6940533Y-20738095D01*
X6654819Y-22166666D02*
X6654819Y-21976190D01*
X6654819Y-21976190D02*
X6702438Y-21880952D01*
X6702438Y-21880952D02*
X6750057Y-21833333D01*
X6750057Y-21833333D02*
X6892914Y-21738095D01*
X6892914Y-21738095D02*
X7083390Y-21690476D01*
X7083390Y-21690476D02*
X7464342Y-21690476D01*
X7464342Y-21690476D02*
X7559580Y-21738095D01*
X7559580Y-21738095D02*
X7607200Y-21785714D01*
X7607200Y-21785714D02*
X7654819Y-21880952D01*
X7654819Y-21880952D02*
X7654819Y-22071428D01*
X7654819Y-22071428D02*
X7607200Y-22166666D01*
X7607200Y-22166666D02*
X7559580Y-22214285D01*
X7559580Y-22214285D02*
X7464342Y-22261904D01*
X7464342Y-22261904D02*
X7226247Y-22261904D01*
X7226247Y-22261904D02*
X7131009Y-22214285D01*
X7131009Y-22214285D02*
X7083390Y-22166666D01*
X7083390Y-22166666D02*
X7035771Y-22071428D01*
X7035771Y-22071428D02*
X7035771Y-21880952D01*
X7035771Y-21880952D02*
X7083390Y-21785714D01*
X7083390Y-21785714D02*
X7131009Y-21738095D01*
X7131009Y-21738095D02*
X7226247Y-21690476D01*
X12666666Y-14824819D02*
X12999999Y-14348628D01*
X13238094Y-14824819D02*
X13238094Y-13824819D01*
X13238094Y-13824819D02*
X12857142Y-13824819D01*
X12857142Y-13824819D02*
X12761904Y-13872438D01*
X12761904Y-13872438D02*
X12714285Y-13920057D01*
X12714285Y-13920057D02*
X12666666Y-14015295D01*
X12666666Y-14015295D02*
X12666666Y-14158152D01*
X12666666Y-14158152D02*
X12714285Y-14253390D01*
X12714285Y-14253390D02*
X12761904Y-14301009D01*
X12761904Y-14301009D02*
X12857142Y-14348628D01*
X12857142Y-14348628D02*
X13238094Y-14348628D01*
X12333332Y-13824819D02*
X11666666Y-13824819D01*
X11666666Y-13824819D02*
X12095237Y-14824819D01*
X27941666Y-12684819D02*
X28274999Y-12208628D01*
X28513094Y-12684819D02*
X28513094Y-11684819D01*
X28513094Y-11684819D02*
X28132142Y-11684819D01*
X28132142Y-11684819D02*
X28036904Y-11732438D01*
X28036904Y-11732438D02*
X27989285Y-11780057D01*
X27989285Y-11780057D02*
X27941666Y-11875295D01*
X27941666Y-11875295D02*
X27941666Y-12018152D01*
X27941666Y-12018152D02*
X27989285Y-12113390D01*
X27989285Y-12113390D02*
X28036904Y-12161009D01*
X28036904Y-12161009D02*
X28132142Y-12208628D01*
X28132142Y-12208628D02*
X28513094Y-12208628D01*
X27370237Y-12113390D02*
X27465475Y-12065771D01*
X27465475Y-12065771D02*
X27513094Y-12018152D01*
X27513094Y-12018152D02*
X27560713Y-11922914D01*
X27560713Y-11922914D02*
X27560713Y-11875295D01*
X27560713Y-11875295D02*
X27513094Y-11780057D01*
X27513094Y-11780057D02*
X27465475Y-11732438D01*
X27465475Y-11732438D02*
X27370237Y-11684819D01*
X27370237Y-11684819D02*
X27179761Y-11684819D01*
X27179761Y-11684819D02*
X27084523Y-11732438D01*
X27084523Y-11732438D02*
X27036904Y-11780057D01*
X27036904Y-11780057D02*
X26989285Y-11875295D01*
X26989285Y-11875295D02*
X26989285Y-11922914D01*
X26989285Y-11922914D02*
X27036904Y-12018152D01*
X27036904Y-12018152D02*
X27084523Y-12065771D01*
X27084523Y-12065771D02*
X27179761Y-12113390D01*
X27179761Y-12113390D02*
X27370237Y-12113390D01*
X27370237Y-12113390D02*
X27465475Y-12161009D01*
X27465475Y-12161009D02*
X27513094Y-12208628D01*
X27513094Y-12208628D02*
X27560713Y-12303866D01*
X27560713Y-12303866D02*
X27560713Y-12494342D01*
X27560713Y-12494342D02*
X27513094Y-12589580D01*
X27513094Y-12589580D02*
X27465475Y-12637200D01*
X27465475Y-12637200D02*
X27370237Y-12684819D01*
X27370237Y-12684819D02*
X27179761Y-12684819D01*
X27179761Y-12684819D02*
X27084523Y-12637200D01*
X27084523Y-12637200D02*
X27036904Y-12589580D01*
X27036904Y-12589580D02*
X26989285Y-12494342D01*
X26989285Y-12494342D02*
X26989285Y-12303866D01*
X26989285Y-12303866D02*
X27036904Y-12208628D01*
X27036904Y-12208628D02*
X27084523Y-12161009D01*
X27084523Y-12161009D02*
X27179761Y-12113390D01*
X13966666Y-26979580D02*
X14014285Y-27027200D01*
X14014285Y-27027200D02*
X14157142Y-27074819D01*
X14157142Y-27074819D02*
X14252380Y-27074819D01*
X14252380Y-27074819D02*
X14395237Y-27027200D01*
X14395237Y-27027200D02*
X14490475Y-26931961D01*
X14490475Y-26931961D02*
X14538094Y-26836723D01*
X14538094Y-26836723D02*
X14585713Y-26646247D01*
X14585713Y-26646247D02*
X14585713Y-26503390D01*
X14585713Y-26503390D02*
X14538094Y-26312914D01*
X14538094Y-26312914D02*
X14490475Y-26217676D01*
X14490475Y-26217676D02*
X14395237Y-26122438D01*
X14395237Y-26122438D02*
X14252380Y-26074819D01*
X14252380Y-26074819D02*
X14157142Y-26074819D01*
X14157142Y-26074819D02*
X14014285Y-26122438D01*
X14014285Y-26122438D02*
X13966666Y-26170057D01*
X13014285Y-27074819D02*
X13585713Y-27074819D01*
X13299999Y-27074819D02*
X13299999Y-26074819D01*
X13299999Y-26074819D02*
X13395237Y-26217676D01*
X13395237Y-26217676D02*
X13490475Y-26312914D01*
X13490475Y-26312914D02*
X13585713Y-26360533D01*
X40659580Y-21657142D02*
X40707200Y-21609523D01*
X40707200Y-21609523D02*
X40754819Y-21466666D01*
X40754819Y-21466666D02*
X40754819Y-21371428D01*
X40754819Y-21371428D02*
X40707200Y-21228571D01*
X40707200Y-21228571D02*
X40611961Y-21133333D01*
X40611961Y-21133333D02*
X40516723Y-21085714D01*
X40516723Y-21085714D02*
X40326247Y-21038095D01*
X40326247Y-21038095D02*
X40183390Y-21038095D01*
X40183390Y-21038095D02*
X39992914Y-21085714D01*
X39992914Y-21085714D02*
X39897676Y-21133333D01*
X39897676Y-21133333D02*
X39802438Y-21228571D01*
X39802438Y-21228571D02*
X39754819Y-21371428D01*
X39754819Y-21371428D02*
X39754819Y-21466666D01*
X39754819Y-21466666D02*
X39802438Y-21609523D01*
X39802438Y-21609523D02*
X39850057Y-21657142D01*
X40754819Y-22609523D02*
X40754819Y-22038095D01*
X40754819Y-22323809D02*
X39754819Y-22323809D01*
X39754819Y-22323809D02*
X39897676Y-22228571D01*
X39897676Y-22228571D02*
X39992914Y-22133333D01*
X39992914Y-22133333D02*
X40040533Y-22038095D01*
X39754819Y-23514285D02*
X39754819Y-23038095D01*
X39754819Y-23038095D02*
X40231009Y-22990476D01*
X40231009Y-22990476D02*
X40183390Y-23038095D01*
X40183390Y-23038095D02*
X40135771Y-23133333D01*
X40135771Y-23133333D02*
X40135771Y-23371428D01*
X40135771Y-23371428D02*
X40183390Y-23466666D01*
X40183390Y-23466666D02*
X40231009Y-23514285D01*
X40231009Y-23514285D02*
X40326247Y-23561904D01*
X40326247Y-23561904D02*
X40564342Y-23561904D01*
X40564342Y-23561904D02*
X40659580Y-23514285D01*
X40659580Y-23514285D02*
X40707200Y-23466666D01*
X40707200Y-23466666D02*
X40754819Y-23371428D01*
X40754819Y-23371428D02*
X40754819Y-23133333D01*
X40754819Y-23133333D02*
X40707200Y-23038095D01*
X40707200Y-23038095D02*
X40659580Y-22990476D01*
X25754819Y-21411905D02*
X24754819Y-21411905D01*
X24754819Y-21411905D02*
X24754819Y-21650000D01*
X24754819Y-21650000D02*
X24802438Y-21792857D01*
X24802438Y-21792857D02*
X24897676Y-21888095D01*
X24897676Y-21888095D02*
X24992914Y-21935714D01*
X24992914Y-21935714D02*
X25183390Y-21983333D01*
X25183390Y-21983333D02*
X25326247Y-21983333D01*
X25326247Y-21983333D02*
X25516723Y-21935714D01*
X25516723Y-21935714D02*
X25611961Y-21888095D01*
X25611961Y-21888095D02*
X25707200Y-21792857D01*
X25707200Y-21792857D02*
X25754819Y-21650000D01*
X25754819Y-21650000D02*
X25754819Y-21411905D01*
X24754819Y-22840476D02*
X24754819Y-22650000D01*
X24754819Y-22650000D02*
X24802438Y-22554762D01*
X24802438Y-22554762D02*
X24850057Y-22507143D01*
X24850057Y-22507143D02*
X24992914Y-22411905D01*
X24992914Y-22411905D02*
X25183390Y-22364286D01*
X25183390Y-22364286D02*
X25564342Y-22364286D01*
X25564342Y-22364286D02*
X25659580Y-22411905D01*
X25659580Y-22411905D02*
X25707200Y-22459524D01*
X25707200Y-22459524D02*
X25754819Y-22554762D01*
X25754819Y-22554762D02*
X25754819Y-22745238D01*
X25754819Y-22745238D02*
X25707200Y-22840476D01*
X25707200Y-22840476D02*
X25659580Y-22888095D01*
X25659580Y-22888095D02*
X25564342Y-22935714D01*
X25564342Y-22935714D02*
X25326247Y-22935714D01*
X25326247Y-22935714D02*
X25231009Y-22888095D01*
X25231009Y-22888095D02*
X25183390Y-22840476D01*
X25183390Y-22840476D02*
X25135771Y-22745238D01*
X25135771Y-22745238D02*
X25135771Y-22554762D01*
X25135771Y-22554762D02*
X25183390Y-22459524D01*
X25183390Y-22459524D02*
X25231009Y-22411905D01*
X25231009Y-22411905D02*
X25326247Y-22364286D01*
X18942857Y-27324819D02*
X19276190Y-26848628D01*
X19514285Y-27324819D02*
X19514285Y-26324819D01*
X19514285Y-26324819D02*
X19133333Y-26324819D01*
X19133333Y-26324819D02*
X19038095Y-26372438D01*
X19038095Y-26372438D02*
X18990476Y-26420057D01*
X18990476Y-26420057D02*
X18942857Y-26515295D01*
X18942857Y-26515295D02*
X18942857Y-26658152D01*
X18942857Y-26658152D02*
X18990476Y-26753390D01*
X18990476Y-26753390D02*
X19038095Y-26801009D01*
X19038095Y-26801009D02*
X19133333Y-26848628D01*
X19133333Y-26848628D02*
X19514285Y-26848628D01*
X17990476Y-27324819D02*
X18561904Y-27324819D01*
X18276190Y-27324819D02*
X18276190Y-26324819D01*
X18276190Y-26324819D02*
X18371428Y-26467676D01*
X18371428Y-26467676D02*
X18466666Y-26562914D01*
X18466666Y-26562914D02*
X18561904Y-26610533D01*
X17609523Y-26420057D02*
X17561904Y-26372438D01*
X17561904Y-26372438D02*
X17466666Y-26324819D01*
X17466666Y-26324819D02*
X17228571Y-26324819D01*
X17228571Y-26324819D02*
X17133333Y-26372438D01*
X17133333Y-26372438D02*
X17085714Y-26420057D01*
X17085714Y-26420057D02*
X17038095Y-26515295D01*
X17038095Y-26515295D02*
X17038095Y-26610533D01*
X17038095Y-26610533D02*
X17085714Y-26753390D01*
X17085714Y-26753390D02*
X17657142Y-27324819D01*
X17657142Y-27324819D02*
X17038095Y-27324819D01*
X42966666Y-8754819D02*
X43299999Y-8278628D01*
X43538094Y-8754819D02*
X43538094Y-7754819D01*
X43538094Y-7754819D02*
X43157142Y-7754819D01*
X43157142Y-7754819D02*
X43061904Y-7802438D01*
X43061904Y-7802438D02*
X43014285Y-7850057D01*
X43014285Y-7850057D02*
X42966666Y-7945295D01*
X42966666Y-7945295D02*
X42966666Y-8088152D01*
X42966666Y-8088152D02*
X43014285Y-8183390D01*
X43014285Y-8183390D02*
X43061904Y-8231009D01*
X43061904Y-8231009D02*
X43157142Y-8278628D01*
X43157142Y-8278628D02*
X43538094Y-8278628D01*
X42061904Y-7754819D02*
X42538094Y-7754819D01*
X42538094Y-7754819D02*
X42585713Y-8231009D01*
X42585713Y-8231009D02*
X42538094Y-8183390D01*
X42538094Y-8183390D02*
X42442856Y-8135771D01*
X42442856Y-8135771D02*
X42204761Y-8135771D01*
X42204761Y-8135771D02*
X42109523Y-8183390D01*
X42109523Y-8183390D02*
X42061904Y-8231009D01*
X42061904Y-8231009D02*
X42014285Y-8326247D01*
X42014285Y-8326247D02*
X42014285Y-8564342D01*
X42014285Y-8564342D02*
X42061904Y-8659580D01*
X42061904Y-8659580D02*
X42109523Y-8707200D01*
X42109523Y-8707200D02*
X42204761Y-8754819D01*
X42204761Y-8754819D02*
X42442856Y-8754819D01*
X42442856Y-8754819D02*
X42538094Y-8707200D01*
X42538094Y-8707200D02*
X42585713Y-8659580D01*
X38766666Y-34959580D02*
X38814285Y-35007200D01*
X38814285Y-35007200D02*
X38957142Y-35054819D01*
X38957142Y-35054819D02*
X39052380Y-35054819D01*
X39052380Y-35054819D02*
X39195237Y-35007200D01*
X39195237Y-35007200D02*
X39290475Y-34911961D01*
X39290475Y-34911961D02*
X39338094Y-34816723D01*
X39338094Y-34816723D02*
X39385713Y-34626247D01*
X39385713Y-34626247D02*
X39385713Y-34483390D01*
X39385713Y-34483390D02*
X39338094Y-34292914D01*
X39338094Y-34292914D02*
X39290475Y-34197676D01*
X39290475Y-34197676D02*
X39195237Y-34102438D01*
X39195237Y-34102438D02*
X39052380Y-34054819D01*
X39052380Y-34054819D02*
X38957142Y-34054819D01*
X38957142Y-34054819D02*
X38814285Y-34102438D01*
X38814285Y-34102438D02*
X38766666Y-34150057D01*
X37861904Y-34054819D02*
X38338094Y-34054819D01*
X38338094Y-34054819D02*
X38385713Y-34531009D01*
X38385713Y-34531009D02*
X38338094Y-34483390D01*
X38338094Y-34483390D02*
X38242856Y-34435771D01*
X38242856Y-34435771D02*
X38004761Y-34435771D01*
X38004761Y-34435771D02*
X37909523Y-34483390D01*
X37909523Y-34483390D02*
X37861904Y-34531009D01*
X37861904Y-34531009D02*
X37814285Y-34626247D01*
X37814285Y-34626247D02*
X37814285Y-34864342D01*
X37814285Y-34864342D02*
X37861904Y-34959580D01*
X37861904Y-34959580D02*
X37909523Y-35007200D01*
X37909523Y-35007200D02*
X38004761Y-35054819D01*
X38004761Y-35054819D02*
X38242856Y-35054819D01*
X38242856Y-35054819D02*
X38338094Y-35007200D01*
X38338094Y-35007200D02*
X38385713Y-34959580D01*
X24555357Y-19084819D02*
X24888690Y-18608628D01*
X25126785Y-19084819D02*
X25126785Y-18084819D01*
X25126785Y-18084819D02*
X24745833Y-18084819D01*
X24745833Y-18084819D02*
X24650595Y-18132438D01*
X24650595Y-18132438D02*
X24602976Y-18180057D01*
X24602976Y-18180057D02*
X24555357Y-18275295D01*
X24555357Y-18275295D02*
X24555357Y-18418152D01*
X24555357Y-18418152D02*
X24602976Y-18513390D01*
X24602976Y-18513390D02*
X24650595Y-18561009D01*
X24650595Y-18561009D02*
X24745833Y-18608628D01*
X24745833Y-18608628D02*
X25126785Y-18608628D01*
X23602976Y-19084819D02*
X24174404Y-19084819D01*
X23888690Y-19084819D02*
X23888690Y-18084819D01*
X23888690Y-18084819D02*
X23983928Y-18227676D01*
X23983928Y-18227676D02*
X24079166Y-18322914D01*
X24079166Y-18322914D02*
X24174404Y-18370533D01*
X22983928Y-18084819D02*
X22888690Y-18084819D01*
X22888690Y-18084819D02*
X22793452Y-18132438D01*
X22793452Y-18132438D02*
X22745833Y-18180057D01*
X22745833Y-18180057D02*
X22698214Y-18275295D01*
X22698214Y-18275295D02*
X22650595Y-18465771D01*
X22650595Y-18465771D02*
X22650595Y-18703866D01*
X22650595Y-18703866D02*
X22698214Y-18894342D01*
X22698214Y-18894342D02*
X22745833Y-18989580D01*
X22745833Y-18989580D02*
X22793452Y-19037200D01*
X22793452Y-19037200D02*
X22888690Y-19084819D01*
X22888690Y-19084819D02*
X22983928Y-19084819D01*
X22983928Y-19084819D02*
X23079166Y-19037200D01*
X23079166Y-19037200D02*
X23126785Y-18989580D01*
X23126785Y-18989580D02*
X23174404Y-18894342D01*
X23174404Y-18894342D02*
X23222023Y-18703866D01*
X23222023Y-18703866D02*
X23222023Y-18465771D01*
X23222023Y-18465771D02*
X23174404Y-18275295D01*
X23174404Y-18275295D02*
X23126785Y-18180057D01*
X23126785Y-18180057D02*
X23079166Y-18132438D01*
X23079166Y-18132438D02*
X22983928Y-18084819D01*
X32699404Y-28654819D02*
X32699404Y-29464342D01*
X32699404Y-29464342D02*
X32651785Y-29559580D01*
X32651785Y-29559580D02*
X32604166Y-29607200D01*
X32604166Y-29607200D02*
X32508928Y-29654819D01*
X32508928Y-29654819D02*
X32318452Y-29654819D01*
X32318452Y-29654819D02*
X32223214Y-29607200D01*
X32223214Y-29607200D02*
X32175595Y-29559580D01*
X32175595Y-29559580D02*
X32127976Y-29464342D01*
X32127976Y-29464342D02*
X32127976Y-28654819D01*
X31604166Y-29654819D02*
X31413690Y-29654819D01*
X31413690Y-29654819D02*
X31318452Y-29607200D01*
X31318452Y-29607200D02*
X31270833Y-29559580D01*
X31270833Y-29559580D02*
X31175595Y-29416723D01*
X31175595Y-29416723D02*
X31127976Y-29226247D01*
X31127976Y-29226247D02*
X31127976Y-28845295D01*
X31127976Y-28845295D02*
X31175595Y-28750057D01*
X31175595Y-28750057D02*
X31223214Y-28702438D01*
X31223214Y-28702438D02*
X31318452Y-28654819D01*
X31318452Y-28654819D02*
X31508928Y-28654819D01*
X31508928Y-28654819D02*
X31604166Y-28702438D01*
X31604166Y-28702438D02*
X31651785Y-28750057D01*
X31651785Y-28750057D02*
X31699404Y-28845295D01*
X31699404Y-28845295D02*
X31699404Y-29083390D01*
X31699404Y-29083390D02*
X31651785Y-29178628D01*
X31651785Y-29178628D02*
X31604166Y-29226247D01*
X31604166Y-29226247D02*
X31508928Y-29273866D01*
X31508928Y-29273866D02*
X31318452Y-29273866D01*
X31318452Y-29273866D02*
X31223214Y-29226247D01*
X31223214Y-29226247D02*
X31175595Y-29178628D01*
X31175595Y-29178628D02*
X31127976Y-29083390D01*
X46754819Y-10157142D02*
X46278628Y-9823809D01*
X46754819Y-9585714D02*
X45754819Y-9585714D01*
X45754819Y-9585714D02*
X45754819Y-9966666D01*
X45754819Y-9966666D02*
X45802438Y-10061904D01*
X45802438Y-10061904D02*
X45850057Y-10109523D01*
X45850057Y-10109523D02*
X45945295Y-10157142D01*
X45945295Y-10157142D02*
X46088152Y-10157142D01*
X46088152Y-10157142D02*
X46183390Y-10109523D01*
X46183390Y-10109523D02*
X46231009Y-10061904D01*
X46231009Y-10061904D02*
X46278628Y-9966666D01*
X46278628Y-9966666D02*
X46278628Y-9585714D01*
X45754819Y-10490476D02*
X45754819Y-11109523D01*
X45754819Y-11109523D02*
X46135771Y-10776190D01*
X46135771Y-10776190D02*
X46135771Y-10919047D01*
X46135771Y-10919047D02*
X46183390Y-11014285D01*
X46183390Y-11014285D02*
X46231009Y-11061904D01*
X46231009Y-11061904D02*
X46326247Y-11109523D01*
X46326247Y-11109523D02*
X46564342Y-11109523D01*
X46564342Y-11109523D02*
X46659580Y-11061904D01*
X46659580Y-11061904D02*
X46707200Y-11014285D01*
X46707200Y-11014285D02*
X46754819Y-10919047D01*
X46754819Y-10919047D02*
X46754819Y-10633333D01*
X46754819Y-10633333D02*
X46707200Y-10538095D01*
X46707200Y-10538095D02*
X46659580Y-10490476D01*
X46754819Y-11585714D02*
X46754819Y-11776190D01*
X46754819Y-11776190D02*
X46707200Y-11871428D01*
X46707200Y-11871428D02*
X46659580Y-11919047D01*
X46659580Y-11919047D02*
X46516723Y-12014285D01*
X46516723Y-12014285D02*
X46326247Y-12061904D01*
X46326247Y-12061904D02*
X45945295Y-12061904D01*
X45945295Y-12061904D02*
X45850057Y-12014285D01*
X45850057Y-12014285D02*
X45802438Y-11966666D01*
X45802438Y-11966666D02*
X45754819Y-11871428D01*
X45754819Y-11871428D02*
X45754819Y-11680952D01*
X45754819Y-11680952D02*
X45802438Y-11585714D01*
X45802438Y-11585714D02*
X45850057Y-11538095D01*
X45850057Y-11538095D02*
X45945295Y-11490476D01*
X45945295Y-11490476D02*
X46183390Y-11490476D01*
X46183390Y-11490476D02*
X46278628Y-11538095D01*
X46278628Y-11538095D02*
X46326247Y-11585714D01*
X46326247Y-11585714D02*
X46373866Y-11680952D01*
X46373866Y-11680952D02*
X46373866Y-11871428D01*
X46373866Y-11871428D02*
X46326247Y-11966666D01*
X46326247Y-11966666D02*
X46278628Y-12014285D01*
X46278628Y-12014285D02*
X46183390Y-12061904D01*
X24138094Y-31454819D02*
X24138094Y-32264342D01*
X24138094Y-32264342D02*
X24090475Y-32359580D01*
X24090475Y-32359580D02*
X24042856Y-32407200D01*
X24042856Y-32407200D02*
X23947618Y-32454819D01*
X23947618Y-32454819D02*
X23757142Y-32454819D01*
X23757142Y-32454819D02*
X23661904Y-32407200D01*
X23661904Y-32407200D02*
X23614285Y-32359580D01*
X23614285Y-32359580D02*
X23566666Y-32264342D01*
X23566666Y-32264342D02*
X23566666Y-31454819D01*
X22566666Y-32454819D02*
X23138094Y-32454819D01*
X22852380Y-32454819D02*
X22852380Y-31454819D01*
X22852380Y-31454819D02*
X22947618Y-31597676D01*
X22947618Y-31597676D02*
X23042856Y-31692914D01*
X23042856Y-31692914D02*
X23138094Y-31740533D01*
X22233332Y-31454819D02*
X21614285Y-31454819D01*
X21614285Y-31454819D02*
X21947618Y-31835771D01*
X21947618Y-31835771D02*
X21804761Y-31835771D01*
X21804761Y-31835771D02*
X21709523Y-31883390D01*
X21709523Y-31883390D02*
X21661904Y-31931009D01*
X21661904Y-31931009D02*
X21614285Y-32026247D01*
X21614285Y-32026247D02*
X21614285Y-32264342D01*
X21614285Y-32264342D02*
X21661904Y-32359580D01*
X21661904Y-32359580D02*
X21709523Y-32407200D01*
X21709523Y-32407200D02*
X21804761Y-32454819D01*
X21804761Y-32454819D02*
X22090475Y-32454819D01*
X22090475Y-32454819D02*
X22185713Y-32407200D01*
X22185713Y-32407200D02*
X22233332Y-32359580D01*
X40059580Y-27657142D02*
X40107200Y-27609523D01*
X40107200Y-27609523D02*
X40154819Y-27466666D01*
X40154819Y-27466666D02*
X40154819Y-27371428D01*
X40154819Y-27371428D02*
X40107200Y-27228571D01*
X40107200Y-27228571D02*
X40011961Y-27133333D01*
X40011961Y-27133333D02*
X39916723Y-27085714D01*
X39916723Y-27085714D02*
X39726247Y-27038095D01*
X39726247Y-27038095D02*
X39583390Y-27038095D01*
X39583390Y-27038095D02*
X39392914Y-27085714D01*
X39392914Y-27085714D02*
X39297676Y-27133333D01*
X39297676Y-27133333D02*
X39202438Y-27228571D01*
X39202438Y-27228571D02*
X39154819Y-27371428D01*
X39154819Y-27371428D02*
X39154819Y-27466666D01*
X39154819Y-27466666D02*
X39202438Y-27609523D01*
X39202438Y-27609523D02*
X39250057Y-27657142D01*
X40154819Y-28609523D02*
X40154819Y-28038095D01*
X40154819Y-28323809D02*
X39154819Y-28323809D01*
X39154819Y-28323809D02*
X39297676Y-28228571D01*
X39297676Y-28228571D02*
X39392914Y-28133333D01*
X39392914Y-28133333D02*
X39440533Y-28038095D01*
X39154819Y-28942857D02*
X39154819Y-29561904D01*
X39154819Y-29561904D02*
X39535771Y-29228571D01*
X39535771Y-29228571D02*
X39535771Y-29371428D01*
X39535771Y-29371428D02*
X39583390Y-29466666D01*
X39583390Y-29466666D02*
X39631009Y-29514285D01*
X39631009Y-29514285D02*
X39726247Y-29561904D01*
X39726247Y-29561904D02*
X39964342Y-29561904D01*
X39964342Y-29561904D02*
X40059580Y-29514285D01*
X40059580Y-29514285D02*
X40107200Y-29466666D01*
X40107200Y-29466666D02*
X40154819Y-29371428D01*
X40154819Y-29371428D02*
X40154819Y-29085714D01*
X40154819Y-29085714D02*
X40107200Y-28990476D01*
X40107200Y-28990476D02*
X40059580Y-28942857D01*
X25754819Y-28211905D02*
X24754819Y-28211905D01*
X24754819Y-28211905D02*
X24754819Y-28450000D01*
X24754819Y-28450000D02*
X24802438Y-28592857D01*
X24802438Y-28592857D02*
X24897676Y-28688095D01*
X24897676Y-28688095D02*
X24992914Y-28735714D01*
X24992914Y-28735714D02*
X25183390Y-28783333D01*
X25183390Y-28783333D02*
X25326247Y-28783333D01*
X25326247Y-28783333D02*
X25516723Y-28735714D01*
X25516723Y-28735714D02*
X25611961Y-28688095D01*
X25611961Y-28688095D02*
X25707200Y-28592857D01*
X25707200Y-28592857D02*
X25754819Y-28450000D01*
X25754819Y-28450000D02*
X25754819Y-28211905D01*
X24754819Y-29116667D02*
X24754819Y-29783333D01*
X24754819Y-29783333D02*
X25754819Y-29354762D01*
D11*
%TO.C,C14*%
X28565000Y-34561252D02*
X28565000Y-34038748D01*
X30035000Y-34561252D02*
X30035000Y-34038748D01*
%TO.C,U10*%
X35310000Y-34162500D02*
X35310000Y-33362500D01*
X35310000Y-34162500D02*
X35310000Y-34962500D01*
X32190000Y-34162500D02*
X32190000Y-32362500D01*
X32190000Y-34162500D02*
X32190000Y-34962500D01*
%TO.C,J2*%
X36565000Y-39600000D02*
X36565000Y-44800000D01*
X13645000Y-39600000D02*
X36565000Y-39600000D01*
X13645000Y-39600000D02*
X13645000Y-42200000D01*
X12375000Y-39600000D02*
X11045000Y-39600000D01*
X11045000Y-39600000D02*
X11045000Y-40930000D01*
X13645000Y-42200000D02*
X11045000Y-42200000D01*
X11045000Y-42200000D02*
X11045000Y-44800000D01*
X11045000Y-44800000D02*
X36565000Y-44800000D01*
%TO.C,R3*%
X14057776Y-12277500D02*
X14567224Y-12277500D01*
X14057776Y-13322500D02*
X14567224Y-13322500D01*
%TO.C,D18*%
X34790000Y-14300000D02*
X38800000Y-14300000D01*
X34790000Y-16300000D02*
X34790000Y-14300000D01*
X34790000Y-16300000D02*
X38800000Y-16300000D01*
%TO.C,C19*%
X13038748Y-9565000D02*
X13561252Y-9565000D01*
X13038748Y-11035000D02*
X13561252Y-11035000D01*
%TO.C,D5*%
X28440000Y-14300000D02*
X32450000Y-14300000D01*
X28440000Y-16300000D02*
X28440000Y-14300000D01*
X28440000Y-16300000D02*
X32450000Y-16300000D01*
%TO.C,R6*%
X13957776Y-24777500D02*
X14467224Y-24777500D01*
X13957776Y-25822500D02*
X14467224Y-25822500D01*
%TO.C,R1*%
X14132776Y-6777500D02*
X14642224Y-6777500D01*
X14132776Y-7822500D02*
X14642224Y-7822500D01*
%TO.C,R4*%
X14045276Y-18777500D02*
X14554724Y-18777500D01*
X14045276Y-19822500D02*
X14554724Y-19822500D01*
%TO.C,C2*%
X23065000Y-24023752D02*
X23065000Y-23501248D01*
X24535000Y-24023752D02*
X24535000Y-23501248D01*
%TO.C,G\u002A\u002A\u002A*%
G36*
X21032334Y-6608563D02*
G01*
X21032317Y-6624518D01*
X21032122Y-6663568D01*
X21031733Y-6698651D01*
X21031178Y-6728443D01*
X21030487Y-6751622D01*
X21029687Y-6766865D01*
X21028806Y-6772847D01*
X21028299Y-6773275D01*
X21018955Y-6775908D01*
X21003792Y-6776574D01*
X20986883Y-6775509D01*
X20972298Y-6772946D01*
X20964109Y-6769120D01*
X20962244Y-6763113D01*
X20960809Y-6749406D01*
X20959833Y-6727468D01*
X20959300Y-6696712D01*
X20959192Y-6656552D01*
X20959492Y-6606401D01*
X20960896Y-6450937D01*
X20996615Y-6449372D01*
X21032334Y-6447808D01*
X21032334Y-6608563D01*
G37*
G36*
X23761511Y-6449372D02*
G01*
X23797230Y-6450937D01*
X23797230Y-6575291D01*
X23797189Y-6612865D01*
X23796981Y-6643937D01*
X23796486Y-6667332D01*
X23795583Y-6684550D01*
X23794151Y-6697088D01*
X23792072Y-6706444D01*
X23789224Y-6714116D01*
X23785488Y-6721602D01*
X23785077Y-6722362D01*
X23767243Y-6745269D01*
X23742277Y-6761115D01*
X23709413Y-6770390D01*
X23707632Y-6770664D01*
X23691442Y-6772267D01*
X23668498Y-6773572D01*
X23640723Y-6774565D01*
X23610045Y-6775236D01*
X23578388Y-6775573D01*
X23547678Y-6775564D01*
X23519842Y-6775197D01*
X23496804Y-6774461D01*
X23480490Y-6773344D01*
X23472826Y-6771834D01*
X23470529Y-6769340D01*
X23467586Y-6757466D01*
X23467535Y-6736196D01*
X23469146Y-6704937D01*
X23588209Y-6702035D01*
X23605879Y-6701593D01*
X23638519Y-6700713D01*
X23666657Y-6699870D01*
X23688774Y-6699115D01*
X23703350Y-6698497D01*
X23708864Y-6698067D01*
X23709241Y-6697626D01*
X23712779Y-6690786D01*
X23718125Y-6678649D01*
X23719294Y-6675463D01*
X23721856Y-6664208D01*
X23723703Y-6647794D01*
X23724919Y-6624866D01*
X23725588Y-6594071D01*
X23725792Y-6554053D01*
X23725792Y-6447808D01*
X23761511Y-6449372D01*
G37*
G36*
X27260625Y-6569928D02*
G01*
X27260615Y-6583228D01*
X27260392Y-6621984D01*
X27259823Y-6651949D01*
X27258827Y-6674504D01*
X27257325Y-6691031D01*
X27255238Y-6702912D01*
X27252486Y-6711528D01*
X27244083Y-6728179D01*
X27226726Y-6748591D01*
X27203003Y-6762539D01*
X27171181Y-6771295D01*
X27168178Y-6771767D01*
X27150142Y-6773313D01*
X27124988Y-6774191D01*
X27094929Y-6774452D01*
X27062175Y-6774147D01*
X27028941Y-6773326D01*
X26997438Y-6772040D01*
X26969878Y-6770339D01*
X26948473Y-6768275D01*
X26935436Y-6765897D01*
X26928927Y-6763529D01*
X26905460Y-6749100D01*
X26886430Y-6728451D01*
X26874909Y-6704689D01*
X26874803Y-6704293D01*
X26872920Y-6691451D01*
X26871341Y-6669644D01*
X26870130Y-6640408D01*
X26869352Y-6605278D01*
X26869072Y-6565789D01*
X26869042Y-6447808D01*
X26904761Y-6449372D01*
X26940480Y-6450937D01*
X26943125Y-6566509D01*
X26943582Y-6589459D01*
X26944304Y-6625822D01*
X26945727Y-6653454D01*
X26948916Y-6673545D01*
X26954938Y-6687282D01*
X26964858Y-6695856D01*
X26979742Y-6700455D01*
X27000656Y-6702268D01*
X27028664Y-6702483D01*
X27064834Y-6702291D01*
X27084878Y-6702370D01*
X27116636Y-6702497D01*
X27140793Y-6701592D01*
X27158412Y-6698467D01*
X27170561Y-6691933D01*
X27178305Y-6680800D01*
X27182709Y-6663880D01*
X27184840Y-6639985D01*
X27185762Y-6607924D01*
X27186542Y-6566509D01*
X27189188Y-6450937D01*
X27224907Y-6449372D01*
X27260625Y-6447808D01*
X27260625Y-6569928D01*
G37*
G36*
X24339393Y-6568435D02*
G01*
X24339264Y-6597467D01*
X24338682Y-6635888D01*
X24337467Y-6665989D01*
X24335423Y-6689156D01*
X24332351Y-6706777D01*
X24328055Y-6720237D01*
X24322339Y-6730924D01*
X24315006Y-6740225D01*
X24306792Y-6747951D01*
X24281042Y-6762530D01*
X24247226Y-6771447D01*
X24237098Y-6772491D01*
X24216408Y-6773552D01*
X24189312Y-6774238D01*
X24158163Y-6774495D01*
X24125313Y-6774269D01*
X24105075Y-6773882D01*
X24065385Y-6772257D01*
X24034250Y-6769213D01*
X24010273Y-6764258D01*
X23992057Y-6756902D01*
X23978203Y-6746654D01*
X23967315Y-6733024D01*
X23957994Y-6715520D01*
X23957402Y-6714203D01*
X23954376Y-6706106D01*
X23952088Y-6696380D01*
X23950437Y-6683532D01*
X23949320Y-6666070D01*
X23948635Y-6642502D01*
X23948282Y-6611337D01*
X23948158Y-6571081D01*
X23948042Y-6447808D01*
X23983761Y-6449372D01*
X24019480Y-6450937D01*
X24022125Y-6566509D01*
X24022582Y-6589459D01*
X24023304Y-6625822D01*
X24024727Y-6653454D01*
X24027916Y-6673545D01*
X24033938Y-6687282D01*
X24043858Y-6695856D01*
X24058742Y-6700455D01*
X24079656Y-6702268D01*
X24107664Y-6702483D01*
X24143834Y-6702291D01*
X24163878Y-6702370D01*
X24195636Y-6702497D01*
X24219793Y-6701592D01*
X24237412Y-6698467D01*
X24249561Y-6691933D01*
X24257305Y-6680800D01*
X24261709Y-6663880D01*
X24263840Y-6639985D01*
X24264762Y-6607924D01*
X24265542Y-6566509D01*
X24268188Y-6450937D01*
X24303907Y-6449372D01*
X24339625Y-6447808D01*
X24339393Y-6568435D01*
G37*
G36*
X28035952Y-6448316D02*
G01*
X28078214Y-6448643D01*
X28111784Y-6449512D01*
X28137990Y-6451128D01*
X28158159Y-6453695D01*
X28173618Y-6457418D01*
X28185695Y-6462502D01*
X28195717Y-6469152D01*
X28205012Y-6477572D01*
X28214916Y-6489082D01*
X28222918Y-6503294D01*
X28228457Y-6521033D01*
X28231910Y-6544053D01*
X28233652Y-6574106D01*
X28234060Y-6612947D01*
X28234032Y-6618228D01*
X28232571Y-6661432D01*
X28228463Y-6695537D01*
X28221041Y-6721728D01*
X28209636Y-6741187D01*
X28193581Y-6755099D01*
X28172207Y-6764647D01*
X28144847Y-6771015D01*
X28135664Y-6772095D01*
X28116418Y-6773338D01*
X28091081Y-6774315D01*
X28061505Y-6775021D01*
X28029543Y-6775448D01*
X27997046Y-6775591D01*
X27965866Y-6775443D01*
X27937856Y-6775000D01*
X27914869Y-6774255D01*
X27898755Y-6773201D01*
X27891368Y-6771834D01*
X27889071Y-6769340D01*
X27886128Y-6757466D01*
X27886076Y-6736196D01*
X27887688Y-6704937D01*
X28013842Y-6702291D01*
X28047849Y-6701641D01*
X28083981Y-6700781D01*
X28111539Y-6699226D01*
X28131653Y-6696230D01*
X28145453Y-6691044D01*
X28154068Y-6682922D01*
X28158629Y-6671117D01*
X28160266Y-6654883D01*
X28160108Y-6633471D01*
X28159285Y-6606136D01*
X28158364Y-6578093D01*
X28157040Y-6557420D01*
X28155075Y-6543632D01*
X28152195Y-6534842D01*
X28148125Y-6529163D01*
X28146806Y-6527960D01*
X28142169Y-6525177D01*
X28134932Y-6523003D01*
X28123766Y-6521317D01*
X28107338Y-6520002D01*
X28084320Y-6518937D01*
X28053380Y-6518004D01*
X28013188Y-6517083D01*
X27887688Y-6514437D01*
X27886113Y-6481364D01*
X27884537Y-6448291D01*
X28015144Y-6448291D01*
X28035952Y-6448316D01*
G37*
G36*
X26328474Y-6448396D02*
G01*
X26373203Y-6449060D01*
X26408046Y-6450330D01*
X26432777Y-6452195D01*
X26447167Y-6454645D01*
X26454039Y-6457053D01*
X26477999Y-6471165D01*
X26497139Y-6491249D01*
X26508582Y-6514499D01*
X26509014Y-6516402D01*
X26510540Y-6529305D01*
X26511847Y-6549715D01*
X26512917Y-6575824D01*
X26513735Y-6605823D01*
X26514283Y-6637904D01*
X26514545Y-6670259D01*
X26514504Y-6701079D01*
X26514143Y-6728556D01*
X26513445Y-6750882D01*
X26512394Y-6766248D01*
X26510973Y-6772847D01*
X26510500Y-6773241D01*
X26501468Y-6775680D01*
X26486533Y-6776401D01*
X26469741Y-6775580D01*
X26455137Y-6773395D01*
X26446767Y-6770025D01*
X26445896Y-6768839D01*
X26442868Y-6757325D01*
X26441034Y-6735590D01*
X26440417Y-6703879D01*
X26440417Y-6644083D01*
X26308692Y-6644083D01*
X26295781Y-6644086D01*
X26256783Y-6644077D01*
X26226836Y-6643812D01*
X26204750Y-6643000D01*
X26189331Y-6641348D01*
X26179389Y-6638567D01*
X26173731Y-6634364D01*
X26171165Y-6628448D01*
X26170499Y-6620528D01*
X26170542Y-6610313D01*
X26170542Y-6610310D01*
X26172408Y-6596419D01*
X26176892Y-6586933D01*
X26179606Y-6585527D01*
X26189527Y-6583650D01*
X26206937Y-6582254D01*
X26232610Y-6581301D01*
X26267317Y-6580756D01*
X26311830Y-6580583D01*
X26440417Y-6580583D01*
X26440417Y-6562648D01*
X26437512Y-6546503D01*
X26430311Y-6532221D01*
X26429401Y-6531106D01*
X26425877Y-6527382D01*
X26421361Y-6524532D01*
X26414481Y-6522400D01*
X26403868Y-6520831D01*
X26388153Y-6519670D01*
X26365966Y-6518762D01*
X26335937Y-6517951D01*
X26296697Y-6517083D01*
X26173188Y-6514437D01*
X26171613Y-6481364D01*
X26170037Y-6448291D01*
X26297999Y-6448291D01*
X26328474Y-6448396D01*
G37*
G36*
X21394519Y-6449947D02*
G01*
X21426074Y-6451870D01*
X21450689Y-6455355D01*
X21469544Y-6460732D01*
X21483820Y-6468328D01*
X21494697Y-6478474D01*
X21503356Y-6491496D01*
X21510977Y-6507725D01*
X21512186Y-6511404D01*
X21515055Y-6527734D01*
X21517240Y-6551288D01*
X21518706Y-6579619D01*
X21519416Y-6610280D01*
X21519334Y-6640823D01*
X21518422Y-6668802D01*
X21516644Y-6691768D01*
X21513964Y-6707275D01*
X21504210Y-6728667D01*
X21484567Y-6748954D01*
X21456083Y-6763663D01*
X21418625Y-6772883D01*
X21417194Y-6773051D01*
X21405595Y-6773701D01*
X21385679Y-6774326D01*
X21359243Y-6774886D01*
X21328086Y-6775342D01*
X21294007Y-6775654D01*
X21284849Y-6775705D01*
X21245654Y-6775669D01*
X21216031Y-6775123D01*
X21195147Y-6774026D01*
X21182170Y-6772340D01*
X21176267Y-6770024D01*
X21175205Y-6768744D01*
X21171263Y-6757806D01*
X21169718Y-6742259D01*
X21170452Y-6725857D01*
X21173347Y-6712354D01*
X21178287Y-6705503D01*
X21180264Y-6705100D01*
X21191772Y-6704202D01*
X21211516Y-6703429D01*
X21237841Y-6702825D01*
X21269095Y-6702432D01*
X21303623Y-6702291D01*
X21324845Y-6702318D01*
X21362621Y-6702278D01*
X21391549Y-6701491D01*
X21412806Y-6699205D01*
X21427568Y-6694670D01*
X21437009Y-6687136D01*
X21442305Y-6675852D01*
X21444633Y-6660068D01*
X21445167Y-6639033D01*
X21445084Y-6611997D01*
X21445188Y-6591147D01*
X21445069Y-6568537D01*
X21443597Y-6551265D01*
X21439623Y-6538583D01*
X21431993Y-6529746D01*
X21419557Y-6524006D01*
X21401163Y-6520616D01*
X21375659Y-6518830D01*
X21341895Y-6517901D01*
X21298717Y-6517083D01*
X21172563Y-6514437D01*
X21172563Y-6482687D01*
X21172563Y-6450937D01*
X21301876Y-6449518D01*
X21305864Y-6449475D01*
X21354842Y-6449258D01*
X21394519Y-6449947D01*
G37*
G36*
X22014954Y-6674039D02*
G01*
X22030397Y-6703519D01*
X22043528Y-6729191D01*
X22053615Y-6749709D01*
X22059929Y-6763725D01*
X22061738Y-6769890D01*
X22056945Y-6773689D01*
X22044650Y-6775504D01*
X22023433Y-6775295D01*
X21987803Y-6773729D01*
X21969121Y-6740693D01*
X21950438Y-6707657D01*
X21843358Y-6707620D01*
X21736278Y-6707583D01*
X21720587Y-6738667D01*
X21716213Y-6747142D01*
X21706438Y-6762966D01*
X21696350Y-6771761D01*
X21682873Y-6775535D01*
X21662932Y-6776293D01*
X21660251Y-6776288D01*
X21648626Y-6776147D01*
X21639877Y-6775127D01*
X21634244Y-6772290D01*
X21631967Y-6766701D01*
X21633286Y-6757423D01*
X21638441Y-6743519D01*
X21647671Y-6724052D01*
X21661217Y-6698087D01*
X21679318Y-6664686D01*
X21687710Y-6649375D01*
X21769065Y-6649375D01*
X21842554Y-6649375D01*
X21851670Y-6649344D01*
X21876973Y-6648909D01*
X21897388Y-6648039D01*
X21911016Y-6646837D01*
X21915959Y-6645406D01*
X21914936Y-6641985D01*
X21909698Y-6630693D01*
X21901069Y-6614086D01*
X21890240Y-6594260D01*
X21878403Y-6573311D01*
X21866749Y-6553335D01*
X21856469Y-6536427D01*
X21848754Y-6524683D01*
X21844796Y-6520199D01*
X21843904Y-6520630D01*
X21838285Y-6527552D01*
X21829126Y-6541626D01*
X21817475Y-6561181D01*
X21804380Y-6584552D01*
X21769065Y-6649375D01*
X21687710Y-6649375D01*
X21702214Y-6622912D01*
X21709956Y-6608843D01*
X21729829Y-6573162D01*
X21748434Y-6540359D01*
X21765017Y-6511721D01*
X21778829Y-6488535D01*
X21789119Y-6472089D01*
X21795134Y-6463670D01*
X21796073Y-6462646D01*
X21804361Y-6454842D01*
X21813181Y-6450525D01*
X21825880Y-6448680D01*
X21845805Y-6448291D01*
X21861979Y-6448556D01*
X21876590Y-6450144D01*
X21886208Y-6453887D01*
X21894008Y-6460597D01*
X21895854Y-6462854D01*
X21903488Y-6474278D01*
X21914656Y-6492675D01*
X21928628Y-6516698D01*
X21944672Y-6545000D01*
X21962057Y-6576233D01*
X21980053Y-6609048D01*
X21997929Y-6642100D01*
X21999691Y-6645406D01*
X22014954Y-6674039D01*
G37*
G36*
X28962617Y-3866336D02*
G01*
X28956897Y-3877258D01*
X28946709Y-3895435D01*
X28932664Y-3919852D01*
X28915372Y-3949493D01*
X28895443Y-3983341D01*
X28873487Y-4020381D01*
X28850114Y-4059597D01*
X28825935Y-4099973D01*
X28801560Y-4140493D01*
X28777598Y-4180141D01*
X28754660Y-4217902D01*
X28733356Y-4252758D01*
X28714296Y-4283695D01*
X28698090Y-4309697D01*
X28685348Y-4329747D01*
X28676681Y-4342829D01*
X28672699Y-4347929D01*
X28671240Y-4348621D01*
X28658641Y-4352863D01*
X28637067Y-4358745D01*
X28607685Y-4366019D01*
X28571666Y-4374436D01*
X28530178Y-4383748D01*
X28484391Y-4393707D01*
X28435473Y-4404065D01*
X28384593Y-4414573D01*
X28332921Y-4424983D01*
X28281626Y-4435048D01*
X28231876Y-4444518D01*
X28184840Y-4453146D01*
X28141688Y-4460683D01*
X28109443Y-4466023D01*
X28038846Y-4477003D01*
X27965502Y-4487546D01*
X27891286Y-4497426D01*
X27818077Y-4506418D01*
X27747750Y-4514296D01*
X27682183Y-4520835D01*
X27623252Y-4525810D01*
X27572834Y-4528995D01*
X27555697Y-4529784D01*
X27525191Y-4530948D01*
X27499026Y-4531641D01*
X27478760Y-4531837D01*
X27465949Y-4531514D01*
X27462150Y-4530649D01*
X27462337Y-4530539D01*
X27468927Y-4527453D01*
X27484399Y-4520426D01*
X27508075Y-4509759D01*
X27539277Y-4495755D01*
X27577328Y-4478719D01*
X27621551Y-4458953D01*
X27671266Y-4436759D01*
X27725796Y-4412441D01*
X27784464Y-4386302D01*
X27846591Y-4358645D01*
X27911500Y-4329773D01*
X27933322Y-4320070D01*
X28008544Y-4286617D01*
X28087041Y-4251700D01*
X28167373Y-4215961D01*
X28248102Y-4180038D01*
X28327790Y-4144573D01*
X28404998Y-4110204D01*
X28478289Y-4077573D01*
X28546224Y-4047320D01*
X28607364Y-4020085D01*
X28660271Y-3996508D01*
X28669768Y-3992276D01*
X28722369Y-3968876D01*
X28771907Y-3946906D01*
X28817556Y-3926727D01*
X28858491Y-3908702D01*
X28893890Y-3893191D01*
X28922926Y-3880556D01*
X28944775Y-3871158D01*
X28958613Y-3865360D01*
X28963615Y-3863522D01*
X28962617Y-3866336D01*
G37*
G36*
X27709094Y-6449372D02*
G01*
X27744813Y-6450937D01*
X27746216Y-6609325D01*
X27746228Y-6610695D01*
X27746544Y-6657897D01*
X27746552Y-6695482D01*
X27746224Y-6724387D01*
X27745527Y-6745549D01*
X27744432Y-6759908D01*
X27742908Y-6768400D01*
X27740924Y-6771963D01*
X27739317Y-6772763D01*
X27727447Y-6775244D01*
X27710811Y-6776200D01*
X27694035Y-6775538D01*
X27681746Y-6773163D01*
X27678230Y-6770317D01*
X27675794Y-6763708D01*
X27674311Y-6751655D01*
X27673575Y-6732446D01*
X27673375Y-6704371D01*
X27673375Y-6638791D01*
X27624102Y-6638791D01*
X27608404Y-6638767D01*
X27592665Y-6639250D01*
X27580266Y-6641334D01*
X27569545Y-6646126D01*
X27558836Y-6654732D01*
X27546475Y-6668256D01*
X27530797Y-6687805D01*
X27510136Y-6714484D01*
X27507184Y-6718279D01*
X27490743Y-6738763D01*
X27476204Y-6755858D01*
X27465049Y-6767872D01*
X27458760Y-6773113D01*
X27457769Y-6773471D01*
X27443963Y-6776119D01*
X27426767Y-6776735D01*
X27409658Y-6775545D01*
X27396116Y-6772772D01*
X27389618Y-6768641D01*
X27391093Y-6763974D01*
X27398027Y-6752257D01*
X27409404Y-6735421D01*
X27423968Y-6715118D01*
X27440464Y-6693000D01*
X27457634Y-6670719D01*
X27474224Y-6649927D01*
X27488977Y-6632275D01*
X27500636Y-6619417D01*
X27507947Y-6613004D01*
X27509231Y-6611543D01*
X27508621Y-6606265D01*
X27503720Y-6596755D01*
X27493907Y-6582036D01*
X27478561Y-6561136D01*
X27457063Y-6533078D01*
X27439719Y-6510333D01*
X27423659Y-6488462D01*
X27411248Y-6470660D01*
X27403464Y-6458332D01*
X27401286Y-6452885D01*
X27401305Y-6452855D01*
X27407759Y-6450555D01*
X27421757Y-6448916D01*
X27440301Y-6448291D01*
X27476477Y-6448291D01*
X27520054Y-6506683D01*
X27523906Y-6511818D01*
X27540607Y-6533479D01*
X27555653Y-6552095D01*
X27567525Y-6565825D01*
X27574701Y-6572828D01*
X27582489Y-6576345D01*
X27601251Y-6579543D01*
X27629574Y-6580583D01*
X27673375Y-6580583D01*
X27673375Y-6514195D01*
X27673375Y-6447808D01*
X27709094Y-6449372D01*
G37*
G36*
X23312313Y-6676925D02*
G01*
X23327507Y-6706174D01*
X23340386Y-6731571D01*
X23350230Y-6751774D01*
X23356317Y-6765443D01*
X23357928Y-6771234D01*
X23352928Y-6773660D01*
X23339155Y-6775324D01*
X23319244Y-6775283D01*
X23284023Y-6773729D01*
X23265460Y-6740797D01*
X23246896Y-6707866D01*
X23140215Y-6707724D01*
X23033534Y-6707583D01*
X23015418Y-6740656D01*
X23009202Y-6751896D01*
X23001271Y-6764536D01*
X22994143Y-6771254D01*
X22985153Y-6774165D01*
X22971637Y-6775381D01*
X22957540Y-6775941D01*
X22936494Y-6774515D01*
X22925229Y-6769722D01*
X22923883Y-6761601D01*
X22927341Y-6753841D01*
X22935654Y-6737361D01*
X22947623Y-6714754D01*
X22962457Y-6687422D01*
X22979363Y-6656769D01*
X22983491Y-6649375D01*
X23065189Y-6649375D01*
X23138845Y-6649375D01*
X23148091Y-6649350D01*
X23173422Y-6649015D01*
X23193866Y-6648347D01*
X23207526Y-6647424D01*
X23212500Y-6646325D01*
X23211668Y-6643724D01*
X23206755Y-6633205D01*
X23198456Y-6616929D01*
X23187948Y-6597060D01*
X23176410Y-6575765D01*
X23165021Y-6555208D01*
X23154960Y-6537554D01*
X23147404Y-6524970D01*
X23143533Y-6519620D01*
X23142802Y-6519243D01*
X23139848Y-6519431D01*
X23135889Y-6523005D01*
X23130145Y-6531164D01*
X23121837Y-6545107D01*
X23110185Y-6566031D01*
X23094409Y-6595135D01*
X23065189Y-6649375D01*
X22983491Y-6649375D01*
X22997550Y-6624195D01*
X23016225Y-6591104D01*
X23034595Y-6558896D01*
X23051870Y-6528975D01*
X23067257Y-6502743D01*
X23079963Y-6481601D01*
X23089197Y-6466952D01*
X23094165Y-6460197D01*
X23099025Y-6456215D01*
X23108889Y-6451276D01*
X23122612Y-6448903D01*
X23143534Y-6448291D01*
X23145551Y-6448293D01*
X23164564Y-6448760D01*
X23176541Y-6450749D01*
X23184744Y-6455262D01*
X23192438Y-6463299D01*
X23193981Y-6465284D01*
X23201730Y-6477044D01*
X23212933Y-6495685D01*
X23226870Y-6519868D01*
X23242818Y-6548248D01*
X23260058Y-6579486D01*
X23277868Y-6612240D01*
X23295527Y-6645166D01*
X23296140Y-6646325D01*
X23312313Y-6676925D01*
G37*
G36*
X28743390Y-6448844D02*
G01*
X28753465Y-6451526D01*
X28760834Y-6457234D01*
X28765938Y-6467045D01*
X28769219Y-6482038D01*
X28771120Y-6503293D01*
X28772082Y-6531887D01*
X28772546Y-6568900D01*
X28772956Y-6615410D01*
X28772971Y-6616861D01*
X28773339Y-6662699D01*
X28773389Y-6698981D01*
X28773085Y-6726701D01*
X28772394Y-6746855D01*
X28771283Y-6760437D01*
X28769717Y-6768443D01*
X28767664Y-6771866D01*
X28762218Y-6774013D01*
X28747813Y-6775985D01*
X28730789Y-6775891D01*
X28715502Y-6773860D01*
X28706309Y-6770025D01*
X28705186Y-6768119D01*
X28703204Y-6759034D01*
X28701728Y-6742459D01*
X28700720Y-6717620D01*
X28700143Y-6683746D01*
X28699959Y-6640066D01*
X28699761Y-6597784D01*
X28699125Y-6562838D01*
X28698055Y-6538102D01*
X28696556Y-6523699D01*
X28694634Y-6519749D01*
X28694189Y-6520125D01*
X28688454Y-6526679D01*
X28677348Y-6540329D01*
X28661730Y-6559987D01*
X28642460Y-6584563D01*
X28620398Y-6612969D01*
X28596404Y-6644115D01*
X28573111Y-6674423D01*
X28548854Y-6705563D01*
X28529190Y-6729787D01*
X28513094Y-6747923D01*
X28499540Y-6760799D01*
X28487503Y-6769243D01*
X28475958Y-6774082D01*
X28463881Y-6776145D01*
X28450246Y-6776259D01*
X28434028Y-6775252D01*
X28431524Y-6775074D01*
X28417909Y-6773985D01*
X28407077Y-6772121D01*
X28398710Y-6768391D01*
X28392491Y-6761706D01*
X28388101Y-6750976D01*
X28385222Y-6735112D01*
X28383536Y-6713024D01*
X28382726Y-6683622D01*
X28382473Y-6645816D01*
X28382459Y-6598517D01*
X28382459Y-6448291D01*
X28416759Y-6448291D01*
X28451059Y-6448291D01*
X28452478Y-6572651D01*
X28452577Y-6580696D01*
X28453327Y-6620501D01*
X28454401Y-6652934D01*
X28455755Y-6677192D01*
X28457347Y-6692474D01*
X28459135Y-6697976D01*
X28461873Y-6695988D01*
X28470447Y-6686745D01*
X28483752Y-6670999D01*
X28500855Y-6649886D01*
X28520823Y-6624543D01*
X28542724Y-6596105D01*
X28556498Y-6578054D01*
X28578954Y-6548741D01*
X28599654Y-6521857D01*
X28617437Y-6498901D01*
X28631144Y-6481376D01*
X28639613Y-6470781D01*
X28658152Y-6448291D01*
X28704502Y-6448291D01*
X28713352Y-6448237D01*
X28730166Y-6448107D01*
X28743390Y-6448844D01*
G37*
G36*
X22550620Y-6539490D02*
G01*
X22550932Y-6575313D01*
X22551042Y-6614353D01*
X22551020Y-6635814D01*
X22550780Y-6678624D01*
X22550249Y-6712104D01*
X22549389Y-6737132D01*
X22548163Y-6754581D01*
X22546534Y-6765329D01*
X22544466Y-6770250D01*
X22542068Y-6771908D01*
X22529036Y-6774997D01*
X22508748Y-6775277D01*
X22479605Y-6773729D01*
X22478090Y-6722135D01*
X22476576Y-6670541D01*
X22403442Y-6670541D01*
X22330309Y-6670541D01*
X22292434Y-6720275D01*
X22277755Y-6738994D01*
X22263632Y-6755892D01*
X22252607Y-6767897D01*
X22246263Y-6773191D01*
X22241117Y-6774372D01*
X22226910Y-6775812D01*
X22209131Y-6776375D01*
X22196905Y-6776021D01*
X22183170Y-6773592D01*
X22177279Y-6768520D01*
X22177636Y-6764718D01*
X22183535Y-6752884D01*
X22195403Y-6735160D01*
X22212493Y-6712727D01*
X22226741Y-6694585D01*
X22238696Y-6678796D01*
X22246441Y-6667892D01*
X22248746Y-6663540D01*
X22247708Y-6662985D01*
X22239584Y-6659098D01*
X22226647Y-6653138D01*
X22225189Y-6652455D01*
X22207474Y-6639499D01*
X22195344Y-6619905D01*
X22188378Y-6592665D01*
X22186586Y-6563802D01*
X22260000Y-6563802D01*
X22260328Y-6574518D01*
X22263431Y-6590758D01*
X22270584Y-6601750D01*
X22274353Y-6605034D01*
X22279829Y-6607907D01*
X22287988Y-6609911D01*
X22300412Y-6611202D01*
X22318679Y-6611933D01*
X22344369Y-6612259D01*
X22379063Y-6612333D01*
X22476959Y-6612333D01*
X22476959Y-6564708D01*
X22476959Y-6517083D01*
X22377237Y-6517083D01*
X22373793Y-6517083D01*
X22336522Y-6517214D01*
X22308433Y-6517941D01*
X22288226Y-6519782D01*
X22274603Y-6523255D01*
X22266268Y-6528876D01*
X22261921Y-6537162D01*
X22260264Y-6548632D01*
X22260000Y-6563802D01*
X22186586Y-6563802D01*
X22186150Y-6556770D01*
X22186301Y-6546081D01*
X22189525Y-6513393D01*
X22197389Y-6488842D01*
X22210483Y-6471094D01*
X22229395Y-6458812D01*
X22230898Y-6458141D01*
X22238486Y-6455213D01*
X22247178Y-6452940D01*
X22258328Y-6451240D01*
X22273289Y-6450029D01*
X22293417Y-6449223D01*
X22320066Y-6448740D01*
X22354589Y-6448496D01*
X22398341Y-6448407D01*
X22438629Y-6448424D01*
X22473597Y-6448601D01*
X22500189Y-6449005D01*
X22519557Y-6449700D01*
X22532852Y-6450749D01*
X22541228Y-6452217D01*
X22545837Y-6454167D01*
X22547830Y-6456661D01*
X22547945Y-6457056D01*
X22548770Y-6465665D01*
X22549510Y-6483230D01*
X22550136Y-6508317D01*
X22550272Y-6517083D01*
X22550620Y-6539490D01*
G37*
G36*
X20727871Y-6448106D02*
G01*
X20741271Y-6448291D01*
X20749861Y-6448240D01*
X20766523Y-6448114D01*
X20779632Y-6448853D01*
X20789622Y-6451538D01*
X20796933Y-6457245D01*
X20802000Y-6467056D01*
X20805262Y-6482048D01*
X20807155Y-6503300D01*
X20808117Y-6531892D01*
X20808586Y-6568903D01*
X20808997Y-6615410D01*
X20809012Y-6616861D01*
X20809381Y-6662699D01*
X20809430Y-6698981D01*
X20809126Y-6726701D01*
X20808435Y-6746855D01*
X20807324Y-6760437D01*
X20805759Y-6768443D01*
X20803706Y-6771866D01*
X20802180Y-6772638D01*
X20790304Y-6775192D01*
X20773616Y-6776199D01*
X20756759Y-6775556D01*
X20744371Y-6773163D01*
X20743447Y-6772709D01*
X20740995Y-6769835D01*
X20739138Y-6763797D01*
X20737797Y-6753359D01*
X20736892Y-6737283D01*
X20736344Y-6714333D01*
X20736073Y-6683274D01*
X20736000Y-6642869D01*
X20735991Y-6625594D01*
X20735864Y-6589449D01*
X20735529Y-6562309D01*
X20734914Y-6543048D01*
X20733945Y-6530540D01*
X20732550Y-6523658D01*
X20730656Y-6521277D01*
X20728189Y-6522270D01*
X20727903Y-6522528D01*
X20722063Y-6529203D01*
X20710830Y-6543030D01*
X20695104Y-6562864D01*
X20675788Y-6587560D01*
X20653782Y-6615975D01*
X20629989Y-6646962D01*
X20610595Y-6672292D01*
X20586029Y-6704004D01*
X20566140Y-6728693D01*
X20549881Y-6747196D01*
X20536208Y-6760351D01*
X20524077Y-6768997D01*
X20512442Y-6773972D01*
X20500259Y-6776114D01*
X20486483Y-6776261D01*
X20470069Y-6775252D01*
X20467565Y-6775074D01*
X20453950Y-6773985D01*
X20443119Y-6772121D01*
X20434752Y-6768391D01*
X20428533Y-6761706D01*
X20424142Y-6750976D01*
X20421263Y-6735112D01*
X20419578Y-6713024D01*
X20418767Y-6683622D01*
X20418514Y-6645816D01*
X20418500Y-6598517D01*
X20418500Y-6448291D01*
X20452896Y-6448291D01*
X20487292Y-6448291D01*
X20487292Y-6572333D01*
X20487340Y-6590504D01*
X20487727Y-6625356D01*
X20488459Y-6655021D01*
X20489485Y-6678152D01*
X20490752Y-6693399D01*
X20492207Y-6699413D01*
X20492216Y-6699418D01*
X20496627Y-6696144D01*
X20506496Y-6685464D01*
X20520942Y-6668442D01*
X20539086Y-6646136D01*
X20560049Y-6619610D01*
X20582951Y-6589923D01*
X20583042Y-6589803D01*
X20612044Y-6551692D01*
X20635396Y-6521070D01*
X20654007Y-6497123D01*
X20668785Y-6479038D01*
X20680640Y-6466002D01*
X20690480Y-6457203D01*
X20699214Y-6451826D01*
X20707752Y-6449060D01*
X20717001Y-6448091D01*
X20727871Y-6448106D01*
G37*
G36*
X25488443Y-6526937D02*
G01*
X25488315Y-6560794D01*
X25488080Y-6596662D01*
X25487755Y-6632968D01*
X25487355Y-6668137D01*
X25486898Y-6700596D01*
X25486398Y-6728769D01*
X25485873Y-6751082D01*
X25485338Y-6765960D01*
X25484810Y-6771830D01*
X25483439Y-6773121D01*
X25473679Y-6775799D01*
X25458588Y-6776530D01*
X25441975Y-6775490D01*
X25427651Y-6772855D01*
X25419428Y-6768801D01*
X25416446Y-6760890D01*
X25414478Y-6743023D01*
X25414312Y-6717207D01*
X25415482Y-6673187D01*
X25343431Y-6671716D01*
X25271380Y-6670245D01*
X25233427Y-6720739D01*
X25219330Y-6738742D01*
X25204097Y-6756428D01*
X25191772Y-6768786D01*
X25183917Y-6774134D01*
X25171921Y-6775985D01*
X25154359Y-6776156D01*
X25137447Y-6774232D01*
X25124484Y-6770636D01*
X25118772Y-6765791D01*
X25120527Y-6760262D01*
X25127821Y-6747892D01*
X25139523Y-6731115D01*
X25154316Y-6711927D01*
X25191330Y-6666000D01*
X25171955Y-6656364D01*
X25169648Y-6655198D01*
X25153308Y-6645022D01*
X25142064Y-6632845D01*
X25134938Y-6616537D01*
X25130955Y-6593969D01*
X25129279Y-6565419D01*
X25202167Y-6565419D01*
X25202220Y-6571921D01*
X25203431Y-6587810D01*
X25207001Y-6597441D01*
X25213928Y-6604095D01*
X25217884Y-6606289D01*
X25226290Y-6608783D01*
X25239149Y-6610515D01*
X25257993Y-6611604D01*
X25284353Y-6612171D01*
X25319761Y-6612333D01*
X25347068Y-6612219D01*
X25373795Y-6611851D01*
X25394998Y-6611274D01*
X25408990Y-6610537D01*
X25414086Y-6609687D01*
X25414128Y-6608762D01*
X25414282Y-6599820D01*
X25414447Y-6583804D01*
X25414594Y-6563385D01*
X25414850Y-6519729D01*
X25315141Y-6518284D01*
X25308194Y-6518183D01*
X25272551Y-6517756D01*
X25245948Y-6518036D01*
X25227064Y-6519573D01*
X25214577Y-6522919D01*
X25207165Y-6528626D01*
X25203508Y-6537243D01*
X25202282Y-6549324D01*
X25202167Y-6565419D01*
X25129279Y-6565419D01*
X25129138Y-6563014D01*
X25128967Y-6556113D01*
X25129539Y-6524812D01*
X25133195Y-6501539D01*
X25140729Y-6484325D01*
X25152935Y-6471201D01*
X25170607Y-6460197D01*
X25176374Y-6457352D01*
X25183540Y-6454456D01*
X25191831Y-6452254D01*
X25202598Y-6450649D01*
X25217193Y-6449548D01*
X25236967Y-6448857D01*
X25263271Y-6448480D01*
X25297455Y-6448323D01*
X25340872Y-6448291D01*
X25376938Y-6448353D01*
X25414712Y-6448636D01*
X25443549Y-6449187D01*
X25464377Y-6450048D01*
X25478122Y-6451261D01*
X25485710Y-6452866D01*
X25488068Y-6454906D01*
X25488315Y-6471560D01*
X25488449Y-6496668D01*
X25488444Y-6519729D01*
X25488443Y-6526937D01*
G37*
G36*
X20141507Y-6449529D02*
G01*
X20169287Y-6451010D01*
X20190917Y-6453518D01*
X20207632Y-6457220D01*
X20220663Y-6462278D01*
X20231243Y-6468857D01*
X20240605Y-6477123D01*
X20243445Y-6480056D01*
X20253628Y-6493047D01*
X20261034Y-6508167D01*
X20265992Y-6527097D01*
X20268835Y-6551515D01*
X20269894Y-6583098D01*
X20269499Y-6623527D01*
X20268969Y-6644646D01*
X20267934Y-6671374D01*
X20266471Y-6690637D01*
X20264338Y-6704362D01*
X20261296Y-6714476D01*
X20257105Y-6722905D01*
X20256422Y-6724050D01*
X20239536Y-6745006D01*
X20217192Y-6759468D01*
X20187129Y-6768923D01*
X20176727Y-6770605D01*
X20154467Y-6772686D01*
X20126103Y-6774225D01*
X20093717Y-6775217D01*
X20059394Y-6775660D01*
X20025218Y-6775547D01*
X19993273Y-6774876D01*
X19965644Y-6773640D01*
X19944414Y-6771837D01*
X19931667Y-6769461D01*
X19919304Y-6763793D01*
X19909121Y-6754565D01*
X19902052Y-6740763D01*
X19897607Y-6720901D01*
X19895298Y-6693491D01*
X19894634Y-6657047D01*
X19894783Y-6636768D01*
X19895826Y-6608372D01*
X19897882Y-6590088D01*
X19900975Y-6581641D01*
X19901634Y-6581166D01*
X19910923Y-6578883D01*
X19928326Y-6577118D01*
X19951767Y-6575871D01*
X19979170Y-6575141D01*
X20008459Y-6574930D01*
X20037557Y-6575236D01*
X20064389Y-6576061D01*
X20086878Y-6577403D01*
X20102949Y-6579263D01*
X20110525Y-6581641D01*
X20110527Y-6581642D01*
X20115011Y-6591130D01*
X20116875Y-6605021D01*
X20116775Y-6615664D01*
X20115518Y-6625497D01*
X20111537Y-6632054D01*
X20103259Y-6635997D01*
X20089115Y-6637992D01*
X20067530Y-6638702D01*
X20036934Y-6638791D01*
X19963417Y-6638791D01*
X19963417Y-6662171D01*
X19963404Y-6666004D01*
X19963459Y-6678559D01*
X19964693Y-6687831D01*
X19968449Y-6694316D01*
X19976071Y-6698509D01*
X19988902Y-6700908D01*
X20008284Y-6702007D01*
X20035562Y-6702303D01*
X20072078Y-6702291D01*
X20174316Y-6702291D01*
X20185679Y-6687845D01*
X20188925Y-6683431D01*
X20192568Y-6676414D01*
X20194781Y-6667276D01*
X20195812Y-6653902D01*
X20195910Y-6634181D01*
X20195324Y-6605998D01*
X20194410Y-6578149D01*
X20193087Y-6557452D01*
X20191122Y-6543648D01*
X20188239Y-6534849D01*
X20184166Y-6529163D01*
X20181130Y-6526724D01*
X20175775Y-6524326D01*
X20167392Y-6522440D01*
X20154724Y-6520962D01*
X20136509Y-6519790D01*
X20111490Y-6518821D01*
X20078406Y-6517953D01*
X20035999Y-6517083D01*
X19897271Y-6514437D01*
X19897271Y-6482687D01*
X19897271Y-6450937D01*
X20032209Y-6449300D01*
X20062569Y-6448991D01*
X20106345Y-6448911D01*
X20141507Y-6449529D01*
G37*
G36*
X26038355Y-6618786D02*
G01*
X26037518Y-6649102D01*
X26035846Y-6676323D01*
X26033368Y-6697960D01*
X26030111Y-6711528D01*
X26021682Y-6728222D01*
X26004337Y-6748603D01*
X25980624Y-6762542D01*
X25948806Y-6771318D01*
X25941226Y-6772322D01*
X25921026Y-6773621D01*
X25894236Y-6774303D01*
X25863002Y-6774416D01*
X25829471Y-6774008D01*
X25795789Y-6773127D01*
X25764102Y-6771821D01*
X25736557Y-6770136D01*
X25715300Y-6768123D01*
X25702478Y-6765827D01*
X25695943Y-6763468D01*
X25672501Y-6749092D01*
X25653476Y-6728460D01*
X25641950Y-6704689D01*
X25639777Y-6692792D01*
X25637800Y-6670705D01*
X25636624Y-6643057D01*
X25636242Y-6612535D01*
X25636646Y-6581826D01*
X25636722Y-6580012D01*
X25712756Y-6580012D01*
X25712813Y-6609072D01*
X25712910Y-6637263D01*
X25713396Y-6657939D01*
X25714553Y-6671881D01*
X25716662Y-6681047D01*
X25720005Y-6687395D01*
X25724863Y-6692884D01*
X25728383Y-6696176D01*
X25733763Y-6699732D01*
X25741180Y-6702228D01*
X25752343Y-6703889D01*
X25768962Y-6704940D01*
X25792746Y-6705605D01*
X25825404Y-6706109D01*
X25847113Y-6706333D01*
X25874449Y-6706418D01*
X25896822Y-6706253D01*
X25912360Y-6705858D01*
X25919188Y-6705249D01*
X25925822Y-6703235D01*
X25938125Y-6700235D01*
X25942790Y-6698867D01*
X25951531Y-6693007D01*
X25957647Y-6682255D01*
X25961531Y-6665201D01*
X25963573Y-6640437D01*
X25964167Y-6606552D01*
X25964123Y-6587560D01*
X25963721Y-6566359D01*
X25962590Y-6552161D01*
X25960367Y-6542815D01*
X25956685Y-6536169D01*
X25951179Y-6530071D01*
X25948876Y-6527803D01*
X25944132Y-6523865D01*
X25938336Y-6521033D01*
X25929902Y-6519125D01*
X25917239Y-6517958D01*
X25898759Y-6517350D01*
X25872874Y-6517119D01*
X25837994Y-6517083D01*
X25802521Y-6517036D01*
X25771286Y-6517415D01*
X25748272Y-6519136D01*
X25732229Y-6523117D01*
X25721905Y-6530276D01*
X25716052Y-6541532D01*
X25713419Y-6557805D01*
X25712756Y-6580012D01*
X25636722Y-6580012D01*
X25637828Y-6553614D01*
X25639781Y-6530587D01*
X25642496Y-6515430D01*
X25643496Y-6512343D01*
X25657178Y-6487539D01*
X25678069Y-6467343D01*
X25703222Y-6454703D01*
X25704397Y-6454381D01*
X25719124Y-6452121D01*
X25742069Y-6450368D01*
X25771142Y-6449123D01*
X25804257Y-6448385D01*
X25839326Y-6448155D01*
X25874261Y-6448434D01*
X25906975Y-6449222D01*
X25935381Y-6450520D01*
X25957391Y-6452327D01*
X25970917Y-6454645D01*
X25977789Y-6457053D01*
X26001749Y-6471165D01*
X26020889Y-6491249D01*
X26032332Y-6514499D01*
X26032797Y-6516301D01*
X26035579Y-6534131D01*
X26037414Y-6558814D01*
X26038330Y-6587861D01*
X26038345Y-6606552D01*
X26038355Y-6618786D01*
G37*
G36*
X24557009Y-6448291D02*
G01*
X24575271Y-6448530D01*
X24593705Y-6449873D01*
X24605716Y-6452748D01*
X24613720Y-6457552D01*
X24616095Y-6460553D01*
X24623132Y-6472721D01*
X24633105Y-6492314D01*
X24645284Y-6517826D01*
X24658938Y-6547751D01*
X24673340Y-6580583D01*
X24687540Y-6613508D01*
X24701238Y-6644918D01*
X24711812Y-6668546D01*
X24719797Y-6685467D01*
X24725727Y-6696755D01*
X24730138Y-6703487D01*
X24733565Y-6706738D01*
X24736544Y-6707583D01*
X24738899Y-6704589D01*
X24744927Y-6693293D01*
X24753678Y-6675081D01*
X24764397Y-6651536D01*
X24776328Y-6624239D01*
X24792615Y-6586383D01*
X24809235Y-6548158D01*
X24822621Y-6517991D01*
X24833221Y-6494936D01*
X24841485Y-6478047D01*
X24847863Y-6466376D01*
X24852804Y-6458978D01*
X24856758Y-6454906D01*
X24866872Y-6451405D01*
X24886193Y-6449099D01*
X24913043Y-6448291D01*
X24922446Y-6448234D01*
X24939089Y-6448140D01*
X24952180Y-6448968D01*
X24962143Y-6451792D01*
X24969402Y-6457684D01*
X24974382Y-6467717D01*
X24977505Y-6482965D01*
X24979196Y-6504500D01*
X24979879Y-6533396D01*
X24979978Y-6570726D01*
X24979917Y-6617563D01*
X24979912Y-6625793D01*
X24979735Y-6664268D01*
X24979335Y-6698995D01*
X24978745Y-6728606D01*
X24977996Y-6751735D01*
X24977123Y-6767014D01*
X24976159Y-6773078D01*
X24972167Y-6774455D01*
X24959900Y-6775511D01*
X24943086Y-6775282D01*
X24913771Y-6773729D01*
X24912348Y-6649539D01*
X24912032Y-6627789D01*
X24911272Y-6594450D01*
X24910274Y-6565567D01*
X24909107Y-6542670D01*
X24907841Y-6527293D01*
X24906544Y-6520968D01*
X24904667Y-6522353D01*
X24898783Y-6531700D01*
X24889720Y-6548594D01*
X24878123Y-6571770D01*
X24864636Y-6599969D01*
X24849903Y-6631929D01*
X24840589Y-6652275D01*
X24825730Y-6683877D01*
X24812110Y-6711836D01*
X24800486Y-6734642D01*
X24791615Y-6750784D01*
X24786257Y-6758753D01*
X24785290Y-6759691D01*
X24767639Y-6769860D01*
X24744872Y-6774455D01*
X24720549Y-6773578D01*
X24698230Y-6767326D01*
X24681476Y-6755802D01*
X24679622Y-6753144D01*
X24673079Y-6741380D01*
X24663334Y-6722233D01*
X24651130Y-6697215D01*
X24637211Y-6667839D01*
X24622323Y-6635616D01*
X24614367Y-6618256D01*
X24600286Y-6587898D01*
X24587808Y-6561461D01*
X24577620Y-6540377D01*
X24570409Y-6526077D01*
X24566862Y-6519993D01*
X24566500Y-6519843D01*
X24564904Y-6525302D01*
X24563618Y-6540597D01*
X24562667Y-6565110D01*
X24562078Y-6598224D01*
X24561875Y-6639320D01*
X24561832Y-6662214D01*
X24561462Y-6701083D01*
X24560684Y-6730527D01*
X24559460Y-6751318D01*
X24557753Y-6764226D01*
X24555525Y-6770025D01*
X24549473Y-6773325D01*
X24535147Y-6775933D01*
X24518153Y-6776019D01*
X24502824Y-6773660D01*
X24493494Y-6768931D01*
X24493367Y-6768767D01*
X24491440Y-6762507D01*
X24490013Y-6749291D01*
X24489064Y-6728396D01*
X24488573Y-6699097D01*
X24488517Y-6660671D01*
X24488877Y-6612394D01*
X24489039Y-6595643D01*
X24489428Y-6552945D01*
X24490035Y-6519365D01*
X24491313Y-6493814D01*
X24493713Y-6475203D01*
X24497688Y-6462442D01*
X24503690Y-6454444D01*
X24512171Y-6450119D01*
X24523583Y-6448377D01*
X24538378Y-6448131D01*
X24557009Y-6448291D01*
G37*
G36*
X29704898Y-4028755D02*
G01*
X29700151Y-4037259D01*
X29690856Y-4053214D01*
X29677677Y-4075499D01*
X29661281Y-4102991D01*
X29642332Y-4134568D01*
X29621497Y-4169107D01*
X29577502Y-4241857D01*
X29516960Y-4341962D01*
X29455606Y-4443403D01*
X29393692Y-4545765D01*
X29331468Y-4648631D01*
X29269186Y-4751586D01*
X29207099Y-4854215D01*
X29145457Y-4956101D01*
X29084512Y-5056830D01*
X29024516Y-5155984D01*
X28965720Y-5253150D01*
X28908376Y-5347910D01*
X28852736Y-5439849D01*
X28799050Y-5528553D01*
X28747572Y-5613604D01*
X28698551Y-5694587D01*
X28652240Y-5771087D01*
X28608891Y-5842688D01*
X28568754Y-5908975D01*
X28532082Y-5969530D01*
X28499126Y-6023940D01*
X28470138Y-6071788D01*
X28445369Y-6112659D01*
X28425071Y-6146136D01*
X28409495Y-6171805D01*
X28398894Y-6189249D01*
X28393517Y-6198053D01*
X28376514Y-6225627D01*
X28337780Y-6174240D01*
X28312842Y-6141930D01*
X28245199Y-6060497D01*
X28169381Y-5976969D01*
X28086609Y-5892525D01*
X27998105Y-5808342D01*
X27905090Y-5725599D01*
X27808787Y-5645474D01*
X27710417Y-5569147D01*
X27684159Y-5549678D01*
X27516699Y-5433132D01*
X27343141Y-5325093D01*
X27163881Y-5225734D01*
X26979312Y-5135226D01*
X26789828Y-5053741D01*
X26595823Y-4981449D01*
X26397692Y-4918522D01*
X26195828Y-4865131D01*
X25990625Y-4821447D01*
X25887986Y-4803490D01*
X25705428Y-4777429D01*
X25515500Y-4757394D01*
X25319055Y-4743398D01*
X25116945Y-4735458D01*
X24910022Y-4733588D01*
X24699136Y-4737803D01*
X24485141Y-4748118D01*
X24268889Y-4764549D01*
X24051230Y-4787111D01*
X23979390Y-4795915D01*
X23875339Y-4809863D01*
X23771920Y-4825070D01*
X23671619Y-4841148D01*
X23576924Y-4857710D01*
X23490322Y-4874370D01*
X23472446Y-4877997D01*
X23449855Y-4882540D01*
X23435262Y-4885314D01*
X23427179Y-4886515D01*
X23424114Y-4886336D01*
X23424577Y-4884972D01*
X23427078Y-4882618D01*
X23431333Y-4880140D01*
X23445314Y-4874363D01*
X23467251Y-4866457D01*
X23495801Y-4856840D01*
X23529623Y-4845927D01*
X23567375Y-4834137D01*
X23607715Y-4821886D01*
X23649302Y-4809591D01*
X23690794Y-4797669D01*
X23730849Y-4786538D01*
X23768125Y-4776614D01*
X23800072Y-4768445D01*
X23992025Y-4723589D01*
X24192250Y-4683772D01*
X24399786Y-4649143D01*
X24613672Y-4619849D01*
X24832946Y-4596039D01*
X25056646Y-4577862D01*
X25104437Y-4574744D01*
X25192996Y-4569695D01*
X25280763Y-4565720D01*
X25370007Y-4562749D01*
X25462999Y-4560712D01*
X25562009Y-4559541D01*
X25669307Y-4559166D01*
X25741353Y-4559353D01*
X25887492Y-4561023D01*
X26027875Y-4564538D01*
X26165167Y-4570037D01*
X26302035Y-4577658D01*
X26441144Y-4587540D01*
X26585160Y-4599821D01*
X26736750Y-4614641D01*
X26800667Y-4621148D01*
X26862657Y-4627174D01*
X26918316Y-4632167D01*
X26969522Y-4636220D01*
X27018156Y-4639431D01*
X27066096Y-4641893D01*
X27115222Y-4643702D01*
X27167413Y-4644953D01*
X27224548Y-4645743D01*
X27288506Y-4646165D01*
X27361167Y-4646316D01*
X27391073Y-4646319D01*
X27461005Y-4646151D01*
X27522599Y-4645678D01*
X27577469Y-4644830D01*
X27627230Y-4643536D01*
X27673494Y-4641727D01*
X27717876Y-4639332D01*
X27761989Y-4636280D01*
X27807447Y-4632503D01*
X27855865Y-4627928D01*
X27908855Y-4622487D01*
X28048179Y-4605777D01*
X28254951Y-4573466D01*
X28457472Y-4532713D01*
X28655214Y-4483664D01*
X28847651Y-4426467D01*
X29034258Y-4361269D01*
X29214508Y-4288219D01*
X29387875Y-4207463D01*
X29421737Y-4190468D01*
X29476712Y-4162142D01*
X29525250Y-4135997D01*
X29569506Y-4110826D01*
X29611632Y-4085425D01*
X29653782Y-4058587D01*
X29673461Y-4045964D01*
X29690041Y-4035738D01*
X29701254Y-4029297D01*
X29705375Y-4027675D01*
X29704898Y-4028755D01*
G37*
G36*
X23576016Y-4225098D02*
G01*
X23569122Y-4229098D01*
X23561250Y-4231975D01*
X23524517Y-4246971D01*
X23482214Y-4266253D01*
X23436922Y-4288523D01*
X23391219Y-4312479D01*
X23347686Y-4336823D01*
X23308902Y-4360253D01*
X23262797Y-4390855D01*
X23196153Y-4441147D01*
X23139729Y-4492107D01*
X23093570Y-4543652D01*
X23057720Y-4595699D01*
X23032227Y-4648165D01*
X23017135Y-4700967D01*
X23012490Y-4754023D01*
X23018337Y-4807248D01*
X23034722Y-4860560D01*
X23040645Y-4874284D01*
X23067460Y-4922388D01*
X23102338Y-4966826D01*
X23145474Y-5007678D01*
X23197062Y-5045021D01*
X23257297Y-5078937D01*
X23326375Y-5109503D01*
X23404491Y-5136799D01*
X23491840Y-5160904D01*
X23588616Y-5181898D01*
X23695014Y-5199858D01*
X23811230Y-5214866D01*
X23937459Y-5226999D01*
X23946662Y-5227672D01*
X23977858Y-5229287D01*
X24017710Y-5230647D01*
X24064821Y-5231750D01*
X24117794Y-5232598D01*
X24175231Y-5233190D01*
X24235735Y-5233526D01*
X24297906Y-5233606D01*
X24360349Y-5233431D01*
X24421664Y-5232999D01*
X24480455Y-5232312D01*
X24535323Y-5231369D01*
X24584872Y-5230170D01*
X24627702Y-5228715D01*
X24662417Y-5227004D01*
X24812547Y-5216924D01*
X25006065Y-5201173D01*
X25195978Y-5182618D01*
X25380032Y-5161482D01*
X25555974Y-5137990D01*
X25581723Y-5134395D01*
X25608479Y-5130912D01*
X25629955Y-5128402D01*
X25644421Y-5127062D01*
X25650151Y-5127094D01*
X25650321Y-5127372D01*
X25646627Y-5132106D01*
X25634675Y-5140835D01*
X25615564Y-5152954D01*
X25590397Y-5167855D01*
X25560274Y-5184935D01*
X25526296Y-5203587D01*
X25489563Y-5223207D01*
X25451176Y-5243189D01*
X25412237Y-5262927D01*
X25373846Y-5281816D01*
X25337105Y-5299251D01*
X25298083Y-5317089D01*
X25123099Y-5390599D01*
X24941497Y-5456716D01*
X24754346Y-5515129D01*
X24562716Y-5565524D01*
X24367675Y-5607587D01*
X24170292Y-5641006D01*
X24142265Y-5645029D01*
X24045344Y-5657638D01*
X23951043Y-5667697D01*
X23857186Y-5675336D01*
X23761598Y-5680685D01*
X23662102Y-5683871D01*
X23556524Y-5685026D01*
X23442688Y-5684278D01*
X23417787Y-5683916D01*
X23369332Y-5683125D01*
X23323716Y-5682272D01*
X23282230Y-5681387D01*
X23246165Y-5680500D01*
X23216810Y-5679642D01*
X23195457Y-5678844D01*
X23183396Y-5678136D01*
X23172823Y-5677145D01*
X23097931Y-5669974D01*
X23031814Y-5663331D01*
X22972895Y-5657044D01*
X22919598Y-5650939D01*
X22870346Y-5644843D01*
X22823563Y-5638582D01*
X22740463Y-5627448D01*
X22658535Y-5617530D01*
X22582215Y-5609613D01*
X22509059Y-5603520D01*
X22436620Y-5599078D01*
X22362452Y-5596111D01*
X22284109Y-5594444D01*
X22199146Y-5593902D01*
X22198961Y-5593902D01*
X22120609Y-5594235D01*
X22050288Y-5595385D01*
X21985476Y-5597482D01*
X21923648Y-5600657D01*
X21862280Y-5605037D01*
X21798850Y-5610754D01*
X21730834Y-5617936D01*
X21668430Y-5625397D01*
X21465196Y-5656320D01*
X21262868Y-5697145D01*
X21062548Y-5747577D01*
X20865337Y-5807317D01*
X20672336Y-5876070D01*
X20484646Y-5953539D01*
X20422655Y-5981801D01*
X20350623Y-6016449D01*
X20277777Y-6053225D01*
X20206272Y-6090988D01*
X20138263Y-6128597D01*
X20075905Y-6164912D01*
X20021353Y-6198791D01*
X20003419Y-6210263D01*
X19986146Y-6221037D01*
X19973945Y-6228323D01*
X19968709Y-6230967D01*
X19968392Y-6230511D01*
X19972543Y-6224811D01*
X19983565Y-6213189D01*
X20000627Y-6196403D01*
X20022899Y-6175209D01*
X20049548Y-6150361D01*
X20079744Y-6122618D01*
X20112656Y-6092734D01*
X20147452Y-6061467D01*
X20183301Y-6029571D01*
X20219372Y-5997804D01*
X20254834Y-5966921D01*
X20288855Y-5937679D01*
X20320605Y-5910834D01*
X20478101Y-5782113D01*
X20696872Y-5613125D01*
X20920589Y-5451262D01*
X21148685Y-5296830D01*
X21380593Y-5150137D01*
X21615747Y-5011490D01*
X21853580Y-4881197D01*
X22093525Y-4759564D01*
X22335016Y-4646900D01*
X22577486Y-4543511D01*
X22820368Y-4449704D01*
X23063097Y-4365788D01*
X23305105Y-4292070D01*
X23324588Y-4286561D01*
X23374636Y-4272605D01*
X23421316Y-4259858D01*
X23463658Y-4248571D01*
X23500691Y-4238992D01*
X23531444Y-4231368D01*
X23554946Y-4225948D01*
X23570225Y-4222980D01*
X23576312Y-4222714D01*
X23576016Y-4225098D01*
G37*
%TO.C,R37*%
X7545276Y-34027500D02*
X8054724Y-34027500D01*
X7545276Y-35072500D02*
X8054724Y-35072500D01*
%TO.C,U8*%
X32162500Y-18790000D02*
X31362500Y-18790000D01*
X32162500Y-18790000D02*
X32962500Y-18790000D01*
X32162500Y-21910000D02*
X30362500Y-21910000D01*
X32162500Y-21910000D02*
X32962500Y-21910000D01*
%TO.C,C16*%
X10061252Y-21735000D02*
X9538748Y-21735000D01*
X10061252Y-20265000D02*
X9538748Y-20265000D01*
%TO.C,R7*%
X12754724Y-16322500D02*
X12245276Y-16322500D01*
X12754724Y-15277500D02*
X12245276Y-15277500D01*
%TO.C,R8*%
X27520276Y-10277500D02*
X28029724Y-10277500D01*
X27520276Y-11322500D02*
X28029724Y-11322500D01*
%TO.C,C1*%
X14061252Y-29035000D02*
X13538748Y-29035000D01*
X14061252Y-27565000D02*
X13538748Y-27565000D01*
%TO.C,C15*%
X36938748Y-21565000D02*
X37461252Y-21565000D01*
X36938748Y-23035000D02*
X37461252Y-23035000D01*
%TO.C,D6*%
X28300000Y-19790000D02*
X28300000Y-23800000D01*
X26300000Y-19790000D02*
X28300000Y-19790000D01*
X26300000Y-19790000D02*
X26300000Y-23800000D01*
%TO.C,G\u002A\u002A\u002A*%
G36*
X37719413Y-3630859D02*
G01*
X37884654Y-3632351D01*
X37886073Y-4827206D01*
X37886147Y-4890908D01*
X37886286Y-5027442D01*
X37886387Y-5153278D01*
X37886448Y-5268800D01*
X37886466Y-5374389D01*
X37886441Y-5470429D01*
X37886369Y-5557301D01*
X37886250Y-5635389D01*
X37886081Y-5705076D01*
X37885861Y-5766743D01*
X37885588Y-5820773D01*
X37885260Y-5867550D01*
X37884876Y-5907455D01*
X37884433Y-5940872D01*
X37883930Y-5968182D01*
X37883365Y-5989769D01*
X37882736Y-6006015D01*
X37882042Y-6017302D01*
X37881280Y-6024014D01*
X37880449Y-6026533D01*
X37877157Y-6027422D01*
X37863594Y-6028729D01*
X37841596Y-6029746D01*
X37812943Y-6030479D01*
X37779419Y-6030935D01*
X37742804Y-6031119D01*
X37704880Y-6031039D01*
X37667430Y-6030701D01*
X37632234Y-6030111D01*
X37601074Y-6029274D01*
X37575733Y-6028199D01*
X37557991Y-6026891D01*
X37549630Y-6025356D01*
X37548664Y-6024749D01*
X37547495Y-6023507D01*
X37546421Y-6021339D01*
X37545439Y-6017795D01*
X37544545Y-6012427D01*
X37543734Y-6004786D01*
X37543003Y-5994423D01*
X37542346Y-5980890D01*
X37541761Y-5963737D01*
X37541244Y-5942517D01*
X37540789Y-5916779D01*
X37540393Y-5886076D01*
X37540052Y-5849958D01*
X37539762Y-5807977D01*
X37539518Y-5759684D01*
X37539317Y-5704629D01*
X37539155Y-5642365D01*
X37539027Y-5572443D01*
X37538929Y-5494413D01*
X37538857Y-5407828D01*
X37538808Y-5312237D01*
X37538777Y-5207193D01*
X37538760Y-5092246D01*
X37538752Y-4966948D01*
X37538751Y-4830849D01*
X37538756Y-4720396D01*
X37538781Y-4590232D01*
X37538827Y-4470570D01*
X37538897Y-4360990D01*
X37538995Y-4261075D01*
X37539123Y-4170407D01*
X37539283Y-4088568D01*
X37539479Y-4015140D01*
X37539712Y-3949705D01*
X37539987Y-3891844D01*
X37540304Y-3841140D01*
X37540668Y-3797175D01*
X37541081Y-3759531D01*
X37541545Y-3727790D01*
X37542063Y-3701533D01*
X37542638Y-3680343D01*
X37543273Y-3663802D01*
X37543970Y-3651492D01*
X37544732Y-3642995D01*
X37545561Y-3637892D01*
X37546461Y-3635766D01*
X37552847Y-3633784D01*
X37567415Y-3632259D01*
X37590733Y-3631222D01*
X37623423Y-3630654D01*
X37666109Y-3630540D01*
X37719413Y-3630859D01*
G37*
G36*
X37274297Y-5387179D02*
G01*
X37274090Y-5398903D01*
X37271901Y-5433312D01*
X37267699Y-5470249D01*
X37261952Y-5506957D01*
X37255130Y-5540684D01*
X37247699Y-5568675D01*
X37240129Y-5588176D01*
X37237563Y-5594268D01*
X37235031Y-5606532D01*
X37234355Y-5612153D01*
X37230038Y-5624888D01*
X37225811Y-5633472D01*
X37218157Y-5649415D01*
X37209165Y-5668401D01*
X37204942Y-5677085D01*
X37184805Y-5713457D01*
X37160446Y-5751440D01*
X37133643Y-5788663D01*
X37106172Y-5822759D01*
X37079812Y-5851357D01*
X37056340Y-5872088D01*
X37050588Y-5876437D01*
X37036807Y-5887270D01*
X37027733Y-5894982D01*
X37007825Y-5910968D01*
X36978144Y-5930241D01*
X36941543Y-5950840D01*
X36899973Y-5971672D01*
X36855381Y-5991643D01*
X36826169Y-6002360D01*
X36777984Y-6015368D01*
X36723206Y-6025635D01*
X36709823Y-6027077D01*
X36683189Y-6028368D01*
X36650759Y-6028750D01*
X36615372Y-6028298D01*
X36579867Y-6027089D01*
X36547084Y-6025198D01*
X36519862Y-6022702D01*
X36501040Y-6019677D01*
X36484264Y-6015290D01*
X36459397Y-6008072D01*
X36435071Y-6000392D01*
X36433491Y-5999871D01*
X36414719Y-5994220D01*
X36400675Y-5990948D01*
X36394294Y-5990751D01*
X36392301Y-5996993D01*
X36391364Y-6009510D01*
X36391363Y-6009763D01*
X36388516Y-6022580D01*
X36378709Y-6028430D01*
X36378340Y-6028508D01*
X36368583Y-6029244D01*
X36349305Y-6029800D01*
X36322086Y-6030162D01*
X36288504Y-6030316D01*
X36250138Y-6030248D01*
X36208569Y-6029943D01*
X36051085Y-6028366D01*
X36049772Y-5394133D01*
X36394458Y-5394133D01*
X36395318Y-5421979D01*
X36397855Y-5445460D01*
X36402073Y-5461198D01*
X36409488Y-5476717D01*
X36423940Y-5505019D01*
X36436735Y-5526498D01*
X36449481Y-5543712D01*
X36463787Y-5559216D01*
X36483594Y-5576471D01*
X36522756Y-5601473D01*
X36566121Y-5619778D01*
X36566161Y-5619791D01*
X36583518Y-5623080D01*
X36607961Y-5624924D01*
X36635837Y-5625356D01*
X36663494Y-5624410D01*
X36687280Y-5622119D01*
X36703542Y-5618516D01*
X36738175Y-5602953D01*
X36782132Y-5573570D01*
X36818017Y-5536356D01*
X36845852Y-5491294D01*
X36848796Y-5485209D01*
X36857070Y-5467030D01*
X36862247Y-5451985D01*
X36865059Y-5436479D01*
X36866236Y-5416915D01*
X36866509Y-5389699D01*
X36866516Y-5378662D01*
X36866127Y-5354846D01*
X36864565Y-5337399D01*
X36861094Y-5322751D01*
X36854979Y-5307331D01*
X36845486Y-5287570D01*
X36838122Y-5273691D01*
X36807783Y-5231244D01*
X36769824Y-5196997D01*
X36724538Y-5171177D01*
X36672219Y-5154010D01*
X36654540Y-5150875D01*
X36609727Y-5150400D01*
X36565140Y-5159616D01*
X36522399Y-5177548D01*
X36483123Y-5203217D01*
X36448933Y-5235645D01*
X36421449Y-5273857D01*
X36402290Y-5316873D01*
X36401883Y-5318188D01*
X36397745Y-5338859D01*
X36395268Y-5365300D01*
X36394458Y-5394133D01*
X36049772Y-5394133D01*
X36049656Y-5337882D01*
X36048228Y-4647399D01*
X36218390Y-4648888D01*
X36388551Y-4650376D01*
X36390154Y-4714973D01*
X36391059Y-4738682D01*
X36392599Y-4761069D01*
X36394492Y-4777098D01*
X36396511Y-4784324D01*
X36400123Y-4785409D01*
X36412220Y-4784197D01*
X36428655Y-4779725D01*
X36461660Y-4769979D01*
X36515883Y-4758753D01*
X36574023Y-4751380D01*
X36632580Y-4748140D01*
X36688049Y-4749312D01*
X36736929Y-4755173D01*
X36747085Y-4757254D01*
X36772117Y-4763227D01*
X36800808Y-4770835D01*
X36829500Y-4779052D01*
X36854534Y-4786850D01*
X36872254Y-4793199D01*
X36929575Y-4820292D01*
X36999280Y-4863602D01*
X37063058Y-4915265D01*
X37119937Y-4974245D01*
X37168942Y-5039502D01*
X37209099Y-5110000D01*
X37239435Y-5184699D01*
X37256702Y-5245847D01*
X37269890Y-5318408D01*
X37273751Y-5378662D01*
X37274297Y-5387179D01*
G37*
G36*
X39430185Y-5381198D02*
G01*
X39425985Y-5454672D01*
X39424616Y-5465084D01*
X39418571Y-5506706D01*
X39412180Y-5541077D01*
X39404520Y-5571451D01*
X39394671Y-5601085D01*
X39381710Y-5633234D01*
X39364716Y-5671155D01*
X39364593Y-5671423D01*
X39350975Y-5697660D01*
X39332771Y-5728374D01*
X39312552Y-5759430D01*
X39292885Y-5786699D01*
X39277784Y-5804941D01*
X39255979Y-5828727D01*
X39232006Y-5852903D01*
X39208204Y-5875208D01*
X39186909Y-5893380D01*
X39170460Y-5905156D01*
X39168092Y-5906596D01*
X39157338Y-5914410D01*
X39152967Y-5919902D01*
X39152831Y-5920874D01*
X39147452Y-5924313D01*
X39141607Y-5926402D01*
X39128714Y-5933162D01*
X39112299Y-5942976D01*
X39091913Y-5954989D01*
X39038396Y-5980809D01*
X38979714Y-6002499D01*
X38919980Y-6018656D01*
X38863308Y-6027877D01*
X38850736Y-6028719D01*
X38824915Y-6029269D01*
X38793793Y-6029002D01*
X38760129Y-6028033D01*
X38726679Y-6026473D01*
X38696203Y-6024434D01*
X38671458Y-6022031D01*
X38655203Y-6019375D01*
X38643890Y-6016452D01*
X38619444Y-6009608D01*
X38593951Y-6001961D01*
X38571389Y-5994722D01*
X38555736Y-5989102D01*
X38550458Y-5988131D01*
X38546525Y-5992985D01*
X38544488Y-6006813D01*
X38542714Y-6028366D01*
X38385230Y-6029943D01*
X38381260Y-6029982D01*
X38339921Y-6030264D01*
X38301933Y-6030310D01*
X38268873Y-6030135D01*
X38242323Y-6029753D01*
X38223862Y-6029178D01*
X38215068Y-6028425D01*
X38202391Y-6025328D01*
X38203711Y-5389797D01*
X38545527Y-5389797D01*
X38546092Y-5402326D01*
X38553496Y-5440966D01*
X38568298Y-5480962D01*
X38588992Y-5518775D01*
X38614071Y-5550865D01*
X38631625Y-5568396D01*
X38655438Y-5588174D01*
X38680224Y-5602956D01*
X38710066Y-5615492D01*
X38730649Y-5621398D01*
X38756754Y-5624869D01*
X38790111Y-5625619D01*
X38810194Y-5625031D01*
X38844945Y-5621255D01*
X38874838Y-5612909D01*
X38903911Y-5598651D01*
X38936206Y-5577142D01*
X38937801Y-5575952D01*
X38955642Y-5559217D01*
X38974695Y-5536467D01*
X38992560Y-5511082D01*
X39006839Y-5486440D01*
X39015135Y-5465921D01*
X39017532Y-5452681D01*
X39019758Y-5431163D01*
X39021338Y-5405765D01*
X39022180Y-5379503D01*
X39022195Y-5355392D01*
X39021289Y-5336446D01*
X39019374Y-5325680D01*
X39010118Y-5305284D01*
X38984303Y-5258580D01*
X38955577Y-5221461D01*
X38922715Y-5192771D01*
X38884488Y-5171352D01*
X38839671Y-5156043D01*
X38812033Y-5150657D01*
X38767614Y-5149977D01*
X38722307Y-5159427D01*
X38674607Y-5179217D01*
X38648993Y-5195148D01*
X38615771Y-5225348D01*
X38587303Y-5262376D01*
X38565100Y-5303769D01*
X38550672Y-5347063D01*
X38545527Y-5389797D01*
X38203711Y-5389797D01*
X38203819Y-5337852D01*
X38205248Y-4650376D01*
X38373981Y-4650376D01*
X38542714Y-4650376D01*
X38544294Y-4719276D01*
X38544716Y-4738203D01*
X38545703Y-4762767D01*
X38548068Y-4778270D01*
X38553034Y-4786087D01*
X38561825Y-4787593D01*
X38575663Y-4784166D01*
X38595772Y-4777181D01*
X38627453Y-4767230D01*
X38675536Y-4756686D01*
X38727918Y-4750702D01*
X38787775Y-4748809D01*
X38790745Y-4748810D01*
X38818020Y-4749031D01*
X38841174Y-4749873D01*
X38862715Y-4751679D01*
X38885151Y-4754789D01*
X38910990Y-4759544D01*
X38942740Y-4766285D01*
X38982910Y-4775355D01*
X38991300Y-4778159D01*
X38998710Y-4783222D01*
X39001030Y-4785439D01*
X39010691Y-4788175D01*
X39019908Y-4789812D01*
X39039169Y-4796996D01*
X39064124Y-4808898D01*
X39092782Y-4824425D01*
X39123154Y-4842484D01*
X39153253Y-4861982D01*
X39181089Y-4881826D01*
X39184243Y-4884248D01*
X39204176Y-4901008D01*
X39226332Y-4921604D01*
X39249205Y-4944404D01*
X39271292Y-4967776D01*
X39291090Y-4990089D01*
X39307093Y-5009711D01*
X39317798Y-5025010D01*
X39321700Y-5034355D01*
X39321836Y-5035779D01*
X39326780Y-5042213D01*
X39328875Y-5044247D01*
X39335743Y-5054438D01*
X39345473Y-5071087D01*
X39356680Y-5091895D01*
X39384705Y-5153646D01*
X39409166Y-5228701D01*
X39424453Y-5305213D01*
X39428238Y-5355392D01*
X39430185Y-5381198D01*
G37*
G36*
X35633875Y-4549169D02*
G01*
X35645146Y-4558863D01*
X35661714Y-4574198D01*
X35682195Y-4593890D01*
X35705203Y-4616652D01*
X35775363Y-4686980D01*
X35627783Y-4834638D01*
X35625517Y-4836906D01*
X35592235Y-4870348D01*
X35561664Y-4901308D01*
X35534681Y-4928880D01*
X35512165Y-4952156D01*
X35494994Y-4970228D01*
X35484047Y-4982188D01*
X35480203Y-4987129D01*
X35481913Y-4991517D01*
X35488718Y-5003017D01*
X35498940Y-5018024D01*
X35504625Y-5026217D01*
X35530131Y-5070155D01*
X35553004Y-5121050D01*
X35571817Y-5175398D01*
X35585143Y-5229694D01*
X35586899Y-5241666D01*
X35588803Y-5266185D01*
X35589703Y-5295714D01*
X35589684Y-5328223D01*
X35588830Y-5361678D01*
X35587226Y-5394048D01*
X35584958Y-5423301D01*
X35582110Y-5447406D01*
X35578768Y-5464330D01*
X35575015Y-5472042D01*
X35572007Y-5476841D01*
X35570195Y-5488380D01*
X35569302Y-5495055D01*
X35563971Y-5513101D01*
X35554554Y-5537690D01*
X35541884Y-5566721D01*
X35526789Y-5598096D01*
X35514049Y-5623406D01*
X35644703Y-5754154D01*
X35775357Y-5884903D01*
X35705201Y-5955228D01*
X35685266Y-5974978D01*
X35664323Y-5995176D01*
X35647087Y-6011195D01*
X35634945Y-6021750D01*
X35629287Y-6025553D01*
X35628121Y-6024959D01*
X35620052Y-6018275D01*
X35605489Y-6004945D01*
X35585453Y-5985941D01*
X35560964Y-5962237D01*
X35533040Y-5934808D01*
X35502701Y-5904628D01*
X35490786Y-5892736D01*
X35461174Y-5863485D01*
X35434307Y-5837365D01*
X35411215Y-5815351D01*
X35392930Y-5798419D01*
X35380482Y-5787544D01*
X35374903Y-5783702D01*
X35367251Y-5786394D01*
X35353174Y-5793767D01*
X35335923Y-5804178D01*
X35321437Y-5813120D01*
X35255222Y-5846722D01*
X35184905Y-5871637D01*
X35112259Y-5887563D01*
X35039056Y-5894200D01*
X34967070Y-5891247D01*
X34898073Y-5878404D01*
X34885484Y-5874848D01*
X34860017Y-5866795D01*
X34833750Y-5857605D01*
X34808990Y-5848175D01*
X34788046Y-5839401D01*
X34773225Y-5832180D01*
X34766836Y-5827409D01*
X34766478Y-5826733D01*
X34759535Y-5823073D01*
X34753149Y-5820651D01*
X34739993Y-5813542D01*
X34723336Y-5803388D01*
X34707864Y-5794030D01*
X34693675Y-5786564D01*
X34685592Y-5783702D01*
X34684323Y-5784287D01*
X34675977Y-5790952D01*
X34661159Y-5804275D01*
X34640901Y-5823279D01*
X34616234Y-5846990D01*
X34588188Y-5874431D01*
X34557794Y-5904628D01*
X34545782Y-5916621D01*
X34516261Y-5945848D01*
X34489550Y-5971945D01*
X34466670Y-5993938D01*
X34448641Y-6010853D01*
X34436480Y-6021716D01*
X34431209Y-6025553D01*
X34426790Y-6022739D01*
X34415492Y-6013074D01*
X34398904Y-5997762D01*
X34378413Y-5978090D01*
X34355411Y-5955345D01*
X34285371Y-5885137D01*
X34416041Y-5754033D01*
X34546711Y-5622930D01*
X34526251Y-5580984D01*
X34523573Y-5575498D01*
X34513646Y-5555206D01*
X34505560Y-5538752D01*
X34500858Y-5529272D01*
X34498396Y-5523244D01*
X34495925Y-5510917D01*
X34495221Y-5505246D01*
X34490797Y-5492561D01*
X34487433Y-5484635D01*
X34481343Y-5461156D01*
X34476459Y-5429973D01*
X34472886Y-5393439D01*
X34470729Y-5353905D01*
X34470091Y-5313724D01*
X34471079Y-5275248D01*
X34473796Y-5240829D01*
X34478347Y-5212821D01*
X34490557Y-5167211D01*
X34507271Y-5119090D01*
X34526250Y-5076090D01*
X34546278Y-5041275D01*
X34548300Y-5038252D01*
X34558258Y-5022748D01*
X34568779Y-5005692D01*
X34581742Y-4984170D01*
X34437593Y-4839630D01*
X34405256Y-4806996D01*
X34374804Y-4775846D01*
X34347891Y-4747889D01*
X34325408Y-4724070D01*
X34308245Y-4705332D01*
X34297294Y-4692621D01*
X34293445Y-4686879D01*
X34295556Y-4682802D01*
X34304335Y-4671739D01*
X34318451Y-4655805D01*
X34336291Y-4636648D01*
X34356240Y-4615916D01*
X34376683Y-4595258D01*
X34396007Y-4576322D01*
X34412597Y-4560755D01*
X34424839Y-4550206D01*
X34431118Y-4546324D01*
X34431338Y-4546384D01*
X34437372Y-4551150D01*
X34450311Y-4562923D01*
X34469252Y-4580831D01*
X34493288Y-4604001D01*
X34521513Y-4631562D01*
X34553023Y-4662641D01*
X34586912Y-4696367D01*
X34737033Y-4846411D01*
X34784235Y-4822917D01*
X34795194Y-4817581D01*
X34815674Y-4808264D01*
X34831704Y-4801826D01*
X34840519Y-4799424D01*
X34845010Y-4798869D01*
X34852694Y-4794421D01*
X34852870Y-4794168D01*
X34860619Y-4789935D01*
X34874117Y-4786614D01*
X34878152Y-4785977D01*
X34895165Y-4783150D01*
X34918066Y-4779222D01*
X34943069Y-4774842D01*
X34949150Y-4773808D01*
X34978124Y-4769791D01*
X35006969Y-4766995D01*
X35030248Y-4765975D01*
X35031843Y-4765984D01*
X35065971Y-4767880D01*
X35105257Y-4772573D01*
X35145598Y-4779375D01*
X35182894Y-4787602D01*
X35213042Y-4796566D01*
X35224953Y-4801275D01*
X35244043Y-4809328D01*
X35266407Y-4819047D01*
X35288633Y-4828932D01*
X35307306Y-4837480D01*
X35319015Y-4843189D01*
X35319218Y-4843199D01*
X35325067Y-4838980D01*
X35337825Y-4827736D01*
X35356595Y-4810321D01*
X35380477Y-4787588D01*
X35408575Y-4760391D01*
X35439989Y-4729585D01*
X35473823Y-4696022D01*
X35477923Y-4691934D01*
X35511584Y-4658533D01*
X35542753Y-4627879D01*
X35570521Y-4600843D01*
X35593983Y-4578299D01*
X35612233Y-4561116D01*
X35624365Y-4550167D01*
X35629471Y-4546324D01*
X35633875Y-4549169D01*
G37*
G36*
X33264258Y-5090407D02*
G01*
X33264266Y-5111344D01*
X33264361Y-5180149D01*
X33264549Y-5245478D01*
X33264824Y-5306468D01*
X33265176Y-5362254D01*
X33265599Y-5411973D01*
X33266083Y-5454762D01*
X33266621Y-5489756D01*
X33267205Y-5516092D01*
X33267826Y-5532907D01*
X33268476Y-5539336D01*
X33278300Y-5549229D01*
X33295850Y-5561602D01*
X33316296Y-5572831D01*
X33335523Y-5580398D01*
X33342896Y-5582101D01*
X33365837Y-5585107D01*
X33394466Y-5586854D01*
X33425411Y-5587331D01*
X33455300Y-5586525D01*
X33480762Y-5584423D01*
X33498425Y-5581012D01*
X33502601Y-5579642D01*
X33558599Y-5555665D01*
X33606795Y-5523861D01*
X33646877Y-5484479D01*
X33678530Y-5437767D01*
X33681479Y-5432357D01*
X33686960Y-5422117D01*
X33691640Y-5412440D01*
X33695582Y-5402419D01*
X33698851Y-5391144D01*
X33701509Y-5377706D01*
X33703620Y-5361198D01*
X33705247Y-5340710D01*
X33706454Y-5315333D01*
X33707304Y-5284160D01*
X33707861Y-5246281D01*
X33708187Y-5200788D01*
X33708347Y-5146772D01*
X33708404Y-5083324D01*
X33708421Y-5009537D01*
X33708427Y-4989766D01*
X33708477Y-4920057D01*
X33708587Y-4860581D01*
X33708776Y-4810530D01*
X33709065Y-4769097D01*
X33709475Y-4735474D01*
X33710024Y-4708855D01*
X33710734Y-4688430D01*
X33711625Y-4673394D01*
X33712717Y-4662938D01*
X33714029Y-4656255D01*
X33715584Y-4652537D01*
X33717399Y-4650978D01*
X33718407Y-4650742D01*
X33728850Y-4649893D01*
X33748658Y-4649132D01*
X33776343Y-4648490D01*
X33810414Y-4647995D01*
X33849382Y-4647677D01*
X33891757Y-4647564D01*
X34057218Y-4647564D01*
X34057218Y-5016560D01*
X34057219Y-5051967D01*
X34057206Y-5121235D01*
X34057135Y-5180662D01*
X34056956Y-5231212D01*
X34056622Y-5273849D01*
X34056083Y-5309538D01*
X34055291Y-5339243D01*
X34054198Y-5363927D01*
X34052755Y-5384557D01*
X34050914Y-5402095D01*
X34048625Y-5417507D01*
X34045841Y-5431756D01*
X34042513Y-5445806D01*
X34038592Y-5460623D01*
X34034029Y-5477170D01*
X34019638Y-5519771D01*
X33994830Y-5574345D01*
X33963768Y-5628878D01*
X33928310Y-5680163D01*
X33890316Y-5724996D01*
X33874431Y-5740969D01*
X33825263Y-5783730D01*
X33771173Y-5822434D01*
X33715278Y-5854986D01*
X33660695Y-5879293D01*
X33650711Y-5883095D01*
X33635385Y-5889193D01*
X33629519Y-5891376D01*
X33609512Y-5897557D01*
X33583085Y-5904660D01*
X33553463Y-5911841D01*
X33523873Y-5918260D01*
X33521802Y-5918656D01*
X33498419Y-5921447D01*
X33467344Y-5923145D01*
X33431713Y-5923778D01*
X33394662Y-5923375D01*
X33359328Y-5921966D01*
X33328847Y-5919579D01*
X33306355Y-5916244D01*
X33290502Y-5913339D01*
X33275622Y-5911892D01*
X33268179Y-5912880D01*
X33267559Y-5917684D01*
X33266926Y-5932947D01*
X33266378Y-5957776D01*
X33265922Y-5991275D01*
X33265562Y-6032548D01*
X33265304Y-6080699D01*
X33265156Y-6134829D01*
X33265123Y-6194044D01*
X33265210Y-6257447D01*
X33265425Y-6324141D01*
X33265681Y-6388181D01*
X33265974Y-6458875D01*
X33266293Y-6519800D01*
X33266701Y-6571779D01*
X33267259Y-6615634D01*
X33268031Y-6652187D01*
X33269077Y-6682262D01*
X33270460Y-6706680D01*
X33272242Y-6726265D01*
X33274485Y-6741838D01*
X33277250Y-6754223D01*
X33280601Y-6764242D01*
X33284598Y-6772717D01*
X33289305Y-6780471D01*
X33294783Y-6788326D01*
X33301093Y-6797106D01*
X33307464Y-6805309D01*
X33321818Y-6820210D01*
X33334840Y-6829840D01*
X33335643Y-6830252D01*
X33347634Y-6836810D01*
X33354163Y-6841119D01*
X33354696Y-6841580D01*
X33363928Y-6846048D01*
X33379796Y-6851556D01*
X33398471Y-6856887D01*
X33416124Y-6860823D01*
X33432894Y-6861495D01*
X33460889Y-6855591D01*
X33490335Y-6842539D01*
X33518135Y-6823473D01*
X33530571Y-6812148D01*
X33556104Y-6784444D01*
X33582527Y-6750881D01*
X33607587Y-6714412D01*
X33629034Y-6677989D01*
X33632929Y-6670867D01*
X33643861Y-6652661D01*
X33653141Y-6639632D01*
X33659088Y-6634227D01*
X33666808Y-6635667D01*
X33677818Y-6642664D01*
X33678551Y-6643317D01*
X33689086Y-6652413D01*
X33704826Y-6665726D01*
X33722653Y-6680618D01*
X33724727Y-6682341D01*
X33742474Y-6697117D01*
X33757790Y-6709935D01*
X33767559Y-6718186D01*
X33775901Y-6725332D01*
X33790558Y-6737897D01*
X33807138Y-6752116D01*
X33820173Y-6763223D01*
X33842631Y-6782141D01*
X33862809Y-6798915D01*
X33879517Y-6812811D01*
X33894816Y-6826853D01*
X33903151Y-6838030D01*
X33905542Y-6848744D01*
X33903009Y-6861392D01*
X33896570Y-6878376D01*
X33870178Y-6934451D01*
X33829105Y-6998737D01*
X33779519Y-7055923D01*
X33746466Y-7085923D01*
X33688775Y-7127383D01*
X33626336Y-7160456D01*
X33561038Y-7184201D01*
X33494774Y-7197676D01*
X33483432Y-7198531D01*
X33460234Y-7198992D01*
X33431415Y-7198658D01*
X33399786Y-7197652D01*
X33368160Y-7196094D01*
X33339347Y-7194106D01*
X33316159Y-7191810D01*
X33301409Y-7189326D01*
X33254627Y-7176178D01*
X33212042Y-7162062D01*
X33176158Y-7147281D01*
X33144633Y-7130858D01*
X33115124Y-7111819D01*
X33107953Y-7106527D01*
X33087711Y-7089753D01*
X33066039Y-7069722D01*
X33044593Y-7048204D01*
X33025030Y-7026966D01*
X33009005Y-7007780D01*
X32998176Y-6992414D01*
X32994198Y-6982638D01*
X32994123Y-6981585D01*
X32989715Y-6975147D01*
X32988961Y-6974702D01*
X32982764Y-6966427D01*
X32974347Y-6950265D01*
X32964735Y-6928636D01*
X32954951Y-6903961D01*
X32946020Y-6878662D01*
X32938965Y-6855159D01*
X32937961Y-6851338D01*
X32935836Y-6842849D01*
X32933893Y-6834112D01*
X32932125Y-6824627D01*
X32930525Y-6813893D01*
X32929084Y-6801412D01*
X32927797Y-6786682D01*
X32926655Y-6769205D01*
X32925652Y-6748479D01*
X32924779Y-6724004D01*
X32924031Y-6695282D01*
X32923399Y-6661811D01*
X32922876Y-6623091D01*
X32922455Y-6578623D01*
X32922128Y-6527907D01*
X32921889Y-6470442D01*
X32921731Y-6405729D01*
X32921645Y-6333267D01*
X32921624Y-6252556D01*
X32921662Y-6163097D01*
X32921750Y-6064389D01*
X32921883Y-5955932D01*
X32922051Y-5837227D01*
X32922249Y-5707772D01*
X32923892Y-4650376D01*
X33094032Y-4648888D01*
X33264171Y-4647399D01*
X33264258Y-5090407D01*
G37*
G36*
X42280400Y-4740367D02*
G01*
X42278247Y-4764737D01*
X42267118Y-4859273D01*
X42251873Y-4946045D01*
X42231850Y-5027457D01*
X42206385Y-5105918D01*
X42174819Y-5183833D01*
X42136488Y-5263609D01*
X42097311Y-5333819D01*
X42033700Y-5429423D01*
X41961452Y-5519694D01*
X41881920Y-5602984D01*
X41796457Y-5677647D01*
X41731013Y-5726997D01*
X41665632Y-5770571D01*
X41598199Y-5809376D01*
X41525652Y-5845173D01*
X41444929Y-5879721D01*
X41406650Y-5893782D01*
X41343070Y-5912886D01*
X41273221Y-5929715D01*
X41200014Y-5943733D01*
X41126359Y-5954406D01*
X41055167Y-5961196D01*
X40989349Y-5963570D01*
X40966154Y-5962923D01*
X40930908Y-5960617D01*
X40890318Y-5956952D01*
X40847148Y-5952256D01*
X40804158Y-5946855D01*
X40764114Y-5941078D01*
X40729776Y-5935253D01*
X40703908Y-5929707D01*
X40688556Y-5925756D01*
X40645769Y-5914425D01*
X40610584Y-5904597D01*
X40584124Y-5896592D01*
X40567515Y-5890733D01*
X40566719Y-5890406D01*
X40553098Y-5885205D01*
X40536581Y-5879318D01*
X40536528Y-5879300D01*
X40524415Y-5875051D01*
X40513399Y-5870860D01*
X40501231Y-5865742D01*
X40485664Y-5858712D01*
X40464450Y-5848786D01*
X40435341Y-5834979D01*
X40383729Y-5809367D01*
X40314351Y-5770623D01*
X40250029Y-5728839D01*
X40187084Y-5681746D01*
X40170184Y-5668469D01*
X40152938Y-5655325D01*
X40140587Y-5646388D01*
X40135057Y-5643091D01*
X40134474Y-5645809D01*
X40133702Y-5658361D01*
X40133016Y-5679937D01*
X40132442Y-5709233D01*
X40132001Y-5744942D01*
X40131720Y-5785761D01*
X40131621Y-5830385D01*
X40131541Y-5876688D01*
X40131214Y-5923262D01*
X40130609Y-5960014D01*
X40129700Y-5987725D01*
X40128459Y-6007178D01*
X40126858Y-6019151D01*
X40124871Y-6024429D01*
X40124466Y-6024756D01*
X40118368Y-6026607D01*
X40105604Y-6028106D01*
X40085411Y-6029277D01*
X40057026Y-6030146D01*
X40019685Y-6030736D01*
X39972624Y-6031071D01*
X39915079Y-6031178D01*
X39905236Y-6031175D01*
X39849403Y-6031034D01*
X39803932Y-6030660D01*
X39768060Y-6030027D01*
X39741023Y-6029113D01*
X39722058Y-6027891D01*
X39710401Y-6026338D01*
X39705288Y-6024429D01*
X39704895Y-6023091D01*
X39703985Y-6012243D01*
X39703138Y-5991281D01*
X39702356Y-5961008D01*
X39701639Y-5922228D01*
X39700987Y-5875745D01*
X39700401Y-5822363D01*
X39699882Y-5762885D01*
X39699429Y-5698114D01*
X39699044Y-5628856D01*
X39698728Y-5555914D01*
X39698480Y-5480091D01*
X39698301Y-5402192D01*
X39698192Y-5323019D01*
X39698153Y-5243378D01*
X39698185Y-5164071D01*
X39698288Y-5085903D01*
X39698464Y-5009678D01*
X39698711Y-4936198D01*
X39699032Y-4866269D01*
X39699426Y-4800693D01*
X39699894Y-4740275D01*
X39700437Y-4685818D01*
X39701055Y-4638126D01*
X39701669Y-4602568D01*
X39822229Y-4602568D01*
X39823659Y-5253598D01*
X39825088Y-5904628D01*
X39912598Y-5906171D01*
X39929989Y-5906400D01*
X39958278Y-5906407D01*
X39981391Y-5905946D01*
X39997304Y-5905069D01*
X40003996Y-5903828D01*
X40004213Y-5902768D01*
X40004758Y-5892548D01*
X40005277Y-5872155D01*
X40005765Y-5842365D01*
X40006216Y-5803952D01*
X40006625Y-5757691D01*
X40006986Y-5704357D01*
X40007294Y-5644725D01*
X40007543Y-5579571D01*
X40007728Y-5509669D01*
X40007843Y-5435794D01*
X40007883Y-5358721D01*
X40007883Y-5336498D01*
X40007903Y-5248390D01*
X40007959Y-5170724D01*
X40008060Y-5102848D01*
X40008219Y-5044107D01*
X40008446Y-4993850D01*
X40008750Y-4951421D01*
X40009144Y-4916168D01*
X40009638Y-4887439D01*
X40010242Y-4864578D01*
X40010966Y-4846934D01*
X40011823Y-4833852D01*
X40012822Y-4824680D01*
X40013974Y-4818764D01*
X40015289Y-4815451D01*
X40016779Y-4814087D01*
X40022465Y-4813501D01*
X40038514Y-4812893D01*
X40063587Y-4812361D01*
X40096492Y-4811905D01*
X40136035Y-4811524D01*
X40181026Y-4811218D01*
X40230270Y-4810988D01*
X40282576Y-4810833D01*
X40336750Y-4810753D01*
X40391602Y-4810749D01*
X40445937Y-4810820D01*
X40498564Y-4810967D01*
X40548290Y-4811188D01*
X40593922Y-4811485D01*
X40634268Y-4811857D01*
X40668136Y-4812304D01*
X40694332Y-4812827D01*
X40711665Y-4813424D01*
X40718942Y-4814097D01*
X40720679Y-4815034D01*
X40729092Y-4824007D01*
X40737231Y-4838001D01*
X40746306Y-4854560D01*
X40762904Y-4878837D01*
X40782379Y-4903117D01*
X40801616Y-4923279D01*
X40810910Y-4931029D01*
X40829251Y-4943983D01*
X40850201Y-4956971D01*
X40870839Y-4968319D01*
X40888249Y-4976356D01*
X40899511Y-4979406D01*
X40906911Y-4980450D01*
X40917581Y-4985819D01*
X40920102Y-4987396D01*
X40933176Y-4990455D01*
X40953677Y-4992182D01*
X40978922Y-4992633D01*
X41006229Y-4991859D01*
X41032918Y-4989914D01*
X41056308Y-4986851D01*
X41073715Y-4982724D01*
X41115920Y-4964061D01*
X41159412Y-4935240D01*
X41197539Y-4899626D01*
X41228831Y-4858865D01*
X41251817Y-4814604D01*
X41265027Y-4768490D01*
X41265458Y-4765942D01*
X41268843Y-4746422D01*
X41271854Y-4729738D01*
X41272687Y-4711676D01*
X41269542Y-4684563D01*
X41262751Y-4653429D01*
X41253032Y-4621487D01*
X41241101Y-4591951D01*
X41234196Y-4578245D01*
X41203612Y-4533220D01*
X41164243Y-4495054D01*
X41116356Y-4463973D01*
X41060221Y-4440203D01*
X41048828Y-4437595D01*
X41025532Y-4435101D01*
X40997440Y-4434092D01*
X40968298Y-4434572D01*
X40941854Y-4436545D01*
X40921855Y-4440018D01*
X40882058Y-4453800D01*
X40833311Y-4480605D01*
X40790336Y-4516951D01*
X40752811Y-4563075D01*
X40725826Y-4602568D01*
X40274028Y-4602568D01*
X39822229Y-4602568D01*
X39701669Y-4602568D01*
X39701748Y-4598003D01*
X39702518Y-4566253D01*
X39703364Y-4543680D01*
X39704288Y-4531087D01*
X39709712Y-4492953D01*
X39721142Y-4426398D01*
X39734512Y-4362584D01*
X39749316Y-4303638D01*
X39765045Y-4251687D01*
X39781192Y-4208857D01*
X39782010Y-4206954D01*
X39788824Y-4190686D01*
X39793911Y-4177923D01*
X39801333Y-4159914D01*
X39816822Y-4127115D01*
X39836456Y-4089180D01*
X39858957Y-4048297D01*
X39883051Y-4006655D01*
X39907462Y-3966440D01*
X39930913Y-3929841D01*
X39952130Y-3899046D01*
X39969835Y-3876243D01*
X39973422Y-3872004D01*
X39986244Y-3856350D01*
X39999446Y-3839702D01*
X40010605Y-3826273D01*
X40031995Y-3802802D01*
X40058328Y-3775603D01*
X40087499Y-3746746D01*
X40117404Y-3718302D01*
X40145937Y-3692342D01*
X40170992Y-3670939D01*
X40175044Y-3667646D01*
X40203411Y-3645136D01*
X40230822Y-3624243D01*
X40255730Y-3606070D01*
X40276587Y-3591723D01*
X40291844Y-3582304D01*
X40299956Y-3578919D01*
X40301646Y-3578692D01*
X40305978Y-3573295D01*
X40306252Y-3571640D01*
X40312141Y-3567670D01*
X40312510Y-3567653D01*
X40321434Y-3564232D01*
X40333751Y-3556671D01*
X40337320Y-3554204D01*
X40359270Y-3540856D01*
X40387928Y-3525532D01*
X40421440Y-3509025D01*
X40457949Y-3492131D01*
X40495602Y-3475645D01*
X40532542Y-3460360D01*
X40566915Y-3447073D01*
X40596867Y-3436578D01*
X40620541Y-3429669D01*
X40636083Y-3427141D01*
X40643988Y-3426136D01*
X40651413Y-3422194D01*
X40652207Y-3421337D01*
X40661166Y-3417261D01*
X40675649Y-3413816D01*
X40690693Y-3411043D01*
X40712893Y-3406541D01*
X40736249Y-3401492D01*
X40757069Y-3397070D01*
X40791133Y-3391021D01*
X40826711Y-3386366D01*
X40866236Y-3382860D01*
X40912138Y-3380258D01*
X40966851Y-3378316D01*
X41014458Y-3377504D01*
X41057718Y-3377823D01*
X41094133Y-3379232D01*
X41121523Y-3381686D01*
X41131871Y-3383082D01*
X41190204Y-3391600D01*
X41240774Y-3400401D01*
X41286572Y-3410180D01*
X41330589Y-3421634D01*
X41375816Y-3435459D01*
X41425243Y-3452349D01*
X41442664Y-3458543D01*
X41461765Y-3465454D01*
X41477196Y-3471377D01*
X41491718Y-3477489D01*
X41508090Y-3484967D01*
X41529070Y-3494988D01*
X41557418Y-3508729D01*
X41612631Y-3537193D01*
X41714232Y-3599088D01*
X41809309Y-3670095D01*
X41897665Y-3750042D01*
X41979099Y-3838758D01*
X42053413Y-3936072D01*
X42056865Y-3941067D01*
X42073601Y-3966147D01*
X42090822Y-3993146D01*
X42107414Y-4020180D01*
X42122260Y-4045366D01*
X42134246Y-4066821D01*
X42142255Y-4082662D01*
X42145172Y-4091004D01*
X42147213Y-4096921D01*
X42153440Y-4110055D01*
X42162394Y-4127056D01*
X42163880Y-4129806D01*
X42177967Y-4159333D01*
X42193429Y-4197108D01*
X42209315Y-4240681D01*
X42224673Y-4287599D01*
X42226522Y-4293607D01*
X42239265Y-4337319D01*
X42249615Y-4378118D01*
X42258109Y-4418836D01*
X42265280Y-4462305D01*
X42271663Y-4511357D01*
X42277793Y-4568822D01*
X42278839Y-4579577D01*
X42282078Y-4617136D01*
X42283797Y-4648243D01*
X42284052Y-4676649D01*
X42282901Y-4706106D01*
X42282494Y-4711676D01*
X42280400Y-4740367D01*
G37*
%TO.C,R12*%
X18554724Y-28822500D02*
X18045276Y-28822500D01*
X18554724Y-27777500D02*
X18045276Y-27777500D01*
%TO.C,R5*%
X42277500Y-11054724D02*
X42277500Y-10545276D01*
X43322500Y-11054724D02*
X43322500Y-10545276D01*
%TO.C,C5*%
X38038748Y-35565000D02*
X38561252Y-35565000D01*
X38038748Y-37035000D02*
X38561252Y-37035000D01*
%TO.C,R10*%
X23657776Y-16677500D02*
X24167224Y-16677500D01*
X23657776Y-17722500D02*
X24167224Y-17722500D01*
%TO.C,U9*%
X31937500Y-25240000D02*
X31137500Y-25240000D01*
X31937500Y-25240000D02*
X32737500Y-25240000D01*
X31937500Y-28360000D02*
X30137500Y-28360000D01*
X31937500Y-28360000D02*
X32737500Y-28360000D01*
%TO.C,R39*%
X45322500Y-10545276D02*
X45322500Y-11054724D01*
X44277500Y-10545276D02*
X44277500Y-11054724D01*
%TO.C,U13*%
X21290000Y-29162500D02*
X21290000Y-29962500D01*
X21290000Y-29162500D02*
X21290000Y-28362500D01*
X24410000Y-29162500D02*
X24410000Y-30962500D01*
X24410000Y-29162500D02*
X24410000Y-28362500D01*
%TO.C,C13*%
X36538748Y-27565000D02*
X37061252Y-27565000D01*
X36538748Y-29035000D02*
X37061252Y-29035000D01*
%TO.C,D7*%
X28300000Y-26590000D02*
X28300000Y-30600000D01*
X26300000Y-26590000D02*
X28300000Y-26590000D01*
X26300000Y-26590000D02*
X26300000Y-30600000D01*
%TD*%
M02*
