%TF.GenerationSoftware,KiCad,Pcbnew,7.0.11-rc3*%
%TF.CreationDate,2025-03-16T23:21:57+08:00*%
%TF.ProjectId,BSPD,42535044-2e6b-4696-9361-645f70636258,rev?*%
%TF.SameCoordinates,PX731bc60PY731bc60*%
%TF.FileFunction,Plated,1,2,PTH,Drill*%
%TF.FilePolarity,Positive*%
%FSLAX46Y46*%
G04 Gerber Fmt 4.6, Leading zero omitted, Abs format (unit mm)*
G04 Created by KiCad (PCBNEW 7.0.11-rc3) date 2025-03-16 23:21:57*
%MOMM*%
%LPD*%
G01*
G04 APERTURE LIST*
%TA.AperFunction,ViaDrill*%
%ADD10C,0.300000*%
%TD*%
%TA.AperFunction,ComponentDrill*%
%ADD11C,0.800000*%
%TD*%
%TA.AperFunction,ComponentDrill*%
%ADD12C,1.000000*%
%TD*%
%TA.AperFunction,ComponentDrill*%
%ADD13C,3.200000*%
%TD*%
G04 APERTURE END LIST*
D10*
X9800000Y-34800000D03*
X12212500Y-10300000D03*
X12600000Y-29900000D03*
X13387500Y-14500000D03*
X14400000Y-6000000D03*
X16800000Y-11300000D03*
X16800000Y-23300000D03*
X17800000Y-24300000D03*
X17800000Y-30800000D03*
X17937500Y-9162500D03*
X18100000Y-25900000D03*
X18300000Y-21162500D03*
X18500000Y-11400000D03*
X19200000Y-6700000D03*
X20800000Y-19700000D03*
X21400000Y-18100000D03*
X22900000Y-37200000D03*
X23800000Y-26300000D03*
X24300000Y-10800000D03*
X25200000Y-30300000D03*
X26412500Y-17700000D03*
X26862500Y-13012500D03*
X27300000Y-17200000D03*
X27300000Y-25300000D03*
X28600000Y-37600000D03*
X29100000Y-26900000D03*
X29300000Y-24300000D03*
X30300000Y-10800000D03*
X31300000Y-33300000D03*
X32800000Y-36800000D03*
X33800000Y-15300000D03*
X34600000Y-22300000D03*
X34800000Y-26300000D03*
X35800000Y-7300000D03*
X37300000Y-34300000D03*
D11*
%TO.C,RV1*%
X760000Y-11800000D03*
%TO.C,RV2*%
X760000Y-17800000D03*
%TO.C,RV3*%
X760000Y-23800000D03*
%TO.C,RV4*%
X760000Y-29800000D03*
%TO.C,RV1*%
X3300000Y-11800000D03*
%TO.C,RV2*%
X3300000Y-17800000D03*
%TO.C,RV3*%
X3300000Y-23800000D03*
%TO.C,RV4*%
X3300000Y-29800000D03*
%TO.C,RV1*%
X5840000Y-11800000D03*
%TO.C,RV2*%
X5840000Y-17800000D03*
%TO.C,RV3*%
X5840000Y-23800000D03*
%TO.C,RV4*%
X5840000Y-29800000D03*
%TO.C,RV5*%
X41760000Y-19300000D03*
%TO.C,RV6*%
X41760000Y-25300000D03*
%TO.C,RV7*%
X41760000Y-31300000D03*
%TO.C,RV5*%
X44300000Y-19300000D03*
%TO.C,RV6*%
X44300000Y-25300000D03*
%TO.C,RV7*%
X44300000Y-31300000D03*
%TO.C,RV5*%
X46840000Y-19300000D03*
%TO.C,RV6*%
X46840000Y-25300000D03*
%TO.C,RV7*%
X46840000Y-31300000D03*
D12*
%TO.C,TP16*%
X-950000Y-34550000D03*
%TO.C,TP1*%
X10000000Y-12200000D03*
%TO.C,TP2*%
X10000000Y-17900000D03*
%TO.C,TP3*%
X10100000Y-24000000D03*
%TO.C,TP4*%
X10100000Y-29900000D03*
%TO.C,J2*%
X12375000Y-40930000D03*
X12375000Y-43470000D03*
X14915000Y-40930000D03*
X14915000Y-43470000D03*
X17455000Y-40930000D03*
X17455000Y-43470000D03*
X19995000Y-40930000D03*
X19995000Y-43470000D03*
X22535000Y-40930000D03*
X22535000Y-43470000D03*
X25075000Y-40930000D03*
X25075000Y-43470000D03*
X27615000Y-40930000D03*
X27615000Y-43470000D03*
X30155000Y-40930000D03*
X30155000Y-43470000D03*
X32695000Y-40930000D03*
X32695000Y-43470000D03*
X35235000Y-40930000D03*
X35235000Y-43470000D03*
%TO.C,TP5*%
X37300000Y-19300000D03*
%TO.C,TP6*%
X37300000Y-25300000D03*
%TO.C,TP7*%
X37300000Y-31300000D03*
%TO.C,TP10*%
X39550000Y-40300000D03*
%TO.C,TP11*%
X39550000Y-43800000D03*
%TO.C,TP9*%
X42800000Y-40300000D03*
%TO.C,TP12*%
X42800000Y-43800000D03*
%TO.C,TP13*%
X43300000Y-14050000D03*
%TO.C,TP14*%
X47300000Y-14050000D03*
D13*
%TO.C,H4*%
X-200000Y-5300000D03*
%TO.C,H3*%
X-200000Y-43300000D03*
%TO.C,H1*%
X47800000Y-5300000D03*
%TO.C,H2*%
X47800000Y-43300000D03*
M02*
