%TF.GenerationSoftware,KiCad,Pcbnew,7.0.11-rc3*%
%TF.CreationDate,2025-03-16T23:21:53+08:00*%
%TF.ProjectId,BSPD,42535044-2e6b-4696-9361-645f70636258,rev?*%
%TF.SameCoordinates,PX731bc60PY731bc60*%
%TF.FileFunction,Paste,Bot*%
%TF.FilePolarity,Positive*%
%FSLAX46Y46*%
G04 Gerber Fmt 4.6, Leading zero omitted, Abs format (unit mm)*
G04 Created by KiCad (PCBNEW 7.0.11-rc3) date 2025-03-16 23:21:53*
%MOMM*%
%LPD*%
G01*
G04 APERTURE LIST*
G04 Aperture macros list*
%AMRoundRect*
0 Rectangle with rounded corners*
0 $1 Rounding radius*
0 $2 $3 $4 $5 $6 $7 $8 $9 X,Y pos of 4 corners*
0 Add a 4 corners polygon primitive as box body*
4,1,4,$2,$3,$4,$5,$6,$7,$8,$9,$2,$3,0*
0 Add four circle primitives for the rounded corners*
1,1,$1+$1,$2,$3*
1,1,$1+$1,$4,$5*
1,1,$1+$1,$6,$7*
1,1,$1+$1,$8,$9*
0 Add four rect primitives between the rounded corners*
20,1,$1+$1,$2,$3,$4,$5,0*
20,1,$1+$1,$4,$5,$6,$7,0*
20,1,$1+$1,$6,$7,$8,$9,0*
20,1,$1+$1,$8,$9,$2,$3,0*%
G04 Aperture macros list end*
%ADD10RoundRect,0.250000X0.475000X-0.337500X0.475000X0.337500X-0.475000X0.337500X-0.475000X-0.337500X0*%
%ADD11RoundRect,0.150000X-0.150000X0.512500X-0.150000X-0.512500X0.150000X-0.512500X0.150000X0.512500X0*%
%ADD12RoundRect,0.237500X-0.250000X-0.237500X0.250000X-0.237500X0.250000X0.237500X-0.250000X0.237500X0*%
%ADD13RoundRect,0.225000X-0.225000X-0.375000X0.225000X-0.375000X0.225000X0.375000X-0.225000X0.375000X0*%
%ADD14RoundRect,0.250000X-0.337500X-0.475000X0.337500X-0.475000X0.337500X0.475000X-0.337500X0.475000X0*%
%ADD15RoundRect,0.150000X-0.512500X-0.150000X0.512500X-0.150000X0.512500X0.150000X-0.512500X0.150000X0*%
%ADD16RoundRect,0.250000X0.337500X0.475000X-0.337500X0.475000X-0.337500X-0.475000X0.337500X-0.475000X0*%
%ADD17RoundRect,0.237500X0.250000X0.237500X-0.250000X0.237500X-0.250000X-0.237500X0.250000X-0.237500X0*%
%ADD18RoundRect,0.225000X-0.375000X0.225000X-0.375000X-0.225000X0.375000X-0.225000X0.375000X0.225000X0*%
%ADD19RoundRect,0.237500X0.237500X-0.250000X0.237500X0.250000X-0.237500X0.250000X-0.237500X-0.250000X0*%
%ADD20RoundRect,0.237500X-0.237500X0.250000X-0.237500X-0.250000X0.237500X-0.250000X0.237500X0.250000X0*%
%ADD21RoundRect,0.150000X0.150000X-0.512500X0.150000X0.512500X-0.150000X0.512500X-0.150000X-0.512500X0*%
G04 APERTURE END LIST*
D10*
%TO.C,C14*%
X29300000Y-35337500D03*
X29300000Y-33262500D03*
%TD*%
D11*
%TO.C,U10*%
X32800000Y-33025000D03*
X33750000Y-33025000D03*
X34700000Y-33025000D03*
X34700000Y-35300000D03*
X32800000Y-35300000D03*
%TD*%
D12*
%TO.C,R3*%
X13400000Y-12800000D03*
X15225000Y-12800000D03*
%TD*%
D13*
%TO.C,D18*%
X35500000Y-15300000D03*
X38800000Y-15300000D03*
%TD*%
D14*
%TO.C,C19*%
X12262500Y-10300000D03*
X14337500Y-10300000D03*
%TD*%
D13*
%TO.C,D5*%
X29150000Y-15300000D03*
X32450000Y-15300000D03*
%TD*%
D12*
%TO.C,R6*%
X13300000Y-25300000D03*
X15125000Y-25300000D03*
%TD*%
%TO.C,R1*%
X13475000Y-7300000D03*
X15300000Y-7300000D03*
%TD*%
%TO.C,R4*%
X13387500Y-19300000D03*
X15212500Y-19300000D03*
%TD*%
D10*
%TO.C,C2*%
X23800000Y-24800000D03*
X23800000Y-22725000D03*
%TD*%
D12*
%TO.C,R37*%
X6887500Y-34550000D03*
X8712500Y-34550000D03*
%TD*%
D15*
%TO.C,U8*%
X31025000Y-21300000D03*
X31025000Y-20350000D03*
X31025000Y-19400000D03*
X33300000Y-19400000D03*
X33300000Y-21300000D03*
%TD*%
D16*
%TO.C,C16*%
X10837500Y-21000000D03*
X8762500Y-21000000D03*
%TD*%
D17*
%TO.C,R7*%
X13412500Y-15800000D03*
X11587500Y-15800000D03*
%TD*%
D12*
%TO.C,R8*%
X26862500Y-10800000D03*
X28687500Y-10800000D03*
%TD*%
D16*
%TO.C,C1*%
X14837500Y-28300000D03*
X12762500Y-28300000D03*
%TD*%
D14*
%TO.C,C15*%
X36162500Y-22300000D03*
X38237500Y-22300000D03*
%TD*%
D18*
%TO.C,D6*%
X27300000Y-20500000D03*
X27300000Y-23800000D03*
%TD*%
D17*
%TO.C,R12*%
X19212500Y-28300000D03*
X17387500Y-28300000D03*
%TD*%
D19*
%TO.C,R5*%
X42800000Y-11712500D03*
X42800000Y-9887500D03*
%TD*%
D14*
%TO.C,C5*%
X37262500Y-36300000D03*
X39337500Y-36300000D03*
%TD*%
D12*
%TO.C,R10*%
X23000000Y-17200000D03*
X24825000Y-17200000D03*
%TD*%
D15*
%TO.C,U9*%
X30800000Y-27750000D03*
X30800000Y-26800000D03*
X30800000Y-25850000D03*
X33075000Y-25850000D03*
X33075000Y-27750000D03*
%TD*%
D20*
%TO.C,R39*%
X44800000Y-9887500D03*
X44800000Y-11712500D03*
%TD*%
D21*
%TO.C,U13*%
X23800000Y-30300000D03*
X22850000Y-30300000D03*
X21900000Y-30300000D03*
X21900000Y-28025000D03*
X23800000Y-28025000D03*
%TD*%
D14*
%TO.C,C13*%
X35762500Y-28300000D03*
X37837500Y-28300000D03*
%TD*%
D18*
%TO.C,D7*%
X27300000Y-27300000D03*
X27300000Y-30600000D03*
%TD*%
M02*
