%TF.GenerationSoftware,KiCad,Pcbnew,7.0.11-rc3*%
%TF.CreationDate,2025-03-16T23:28:45+08:00*%
%TF.ProjectId,mainhoop-light,6d61696e-686f-46f7-902d-6c696768742e,rev?*%
%TF.SameCoordinates,Original*%
%TF.FileFunction,Paste,Bot*%
%TF.FilePolarity,Positive*%
%FSLAX46Y46*%
G04 Gerber Fmt 4.6, Leading zero omitted, Abs format (unit mm)*
G04 Created by KiCad (PCBNEW 7.0.11-rc3) date 2025-03-16 23:28:45*
%MOMM*%
%LPD*%
G01*
G04 APERTURE LIST*
%ADD10R,2.000000X1.100000*%
G04 APERTURE END LIST*
D10*
%TO.C,D22*%
X110100000Y-48900000D03*
X110100000Y-47200000D03*
X110100000Y-45500000D03*
X114900000Y-45500000D03*
X114900000Y-47200000D03*
X114900000Y-48900000D03*
%TD*%
%TO.C,D20*%
X101100000Y-48900000D03*
X101100000Y-47200000D03*
X101100000Y-45500000D03*
X105900000Y-45500000D03*
X105900000Y-47200000D03*
X105900000Y-48900000D03*
%TD*%
%TO.C,D7*%
X74100000Y-41900000D03*
X74100000Y-40200000D03*
X74100000Y-38500000D03*
X78900000Y-38500000D03*
X78900000Y-40200000D03*
X78900000Y-41900000D03*
%TD*%
%TO.C,D24*%
X119100000Y-48900000D03*
X119100000Y-47200000D03*
X119100000Y-45500000D03*
X123900000Y-45500000D03*
X123900000Y-47200000D03*
X123900000Y-48900000D03*
%TD*%
%TO.C,D12*%
X119100000Y-41900000D03*
X119100000Y-40200000D03*
X119100000Y-38500000D03*
X123900000Y-38500000D03*
X123900000Y-40200000D03*
X123900000Y-41900000D03*
%TD*%
%TO.C,D18*%
X92100000Y-48900000D03*
X92100000Y-47200000D03*
X92100000Y-45500000D03*
X96900000Y-45500000D03*
X96900000Y-47200000D03*
X96900000Y-48900000D03*
%TD*%
%TO.C,D10*%
X101100000Y-41900000D03*
X101100000Y-40200000D03*
X101100000Y-38500000D03*
X105900000Y-38500000D03*
X105900000Y-40200000D03*
X105900000Y-41900000D03*
%TD*%
%TO.C,D14*%
X74100000Y-48900000D03*
X74100000Y-47200000D03*
X74100000Y-45500000D03*
X78900000Y-45500000D03*
X78900000Y-47200000D03*
X78900000Y-48900000D03*
%TD*%
%TO.C,D11*%
X110100000Y-41900000D03*
X110100000Y-40200000D03*
X110100000Y-38500000D03*
X114900000Y-38500000D03*
X114900000Y-40200000D03*
X114900000Y-41900000D03*
%TD*%
%TO.C,D9*%
X92100000Y-41900000D03*
X92100000Y-40200000D03*
X92100000Y-38500000D03*
X96900000Y-38500000D03*
X96900000Y-40200000D03*
X96900000Y-41900000D03*
%TD*%
%TO.C,D16*%
X83100000Y-48900000D03*
X83100000Y-47200000D03*
X83100000Y-45500000D03*
X87900000Y-45500000D03*
X87900000Y-47200000D03*
X87900000Y-48900000D03*
%TD*%
%TO.C,D8*%
X83100000Y-41900000D03*
X83100000Y-40200000D03*
X83100000Y-38500000D03*
X87900000Y-38500000D03*
X87900000Y-40200000D03*
X87900000Y-41900000D03*
%TD*%
M02*
