%TF.GenerationSoftware,KiCad,Pcbnew,7.0.11-rc3*%
%TF.CreationDate,2025-03-16T23:28:48+08:00*%
%TF.ProjectId,mainhoop-light,6d61696e-686f-46f7-902d-6c696768742e,rev?*%
%TF.SameCoordinates,Original*%
%TF.FileFunction,Plated,1,2,PTH,Drill*%
%TF.FilePolarity,Positive*%
%FSLAX46Y46*%
G04 Gerber Fmt 4.6, Leading zero omitted, Abs format (unit mm)*
G04 Created by KiCad (PCBNEW 7.0.11-rc3) date 2025-03-16 23:28:48*
%MOMM*%
%LPD*%
G01*
G04 APERTURE LIST*
%TA.AperFunction,ViaDrill*%
%ADD10C,0.300000*%
%TD*%
%TA.AperFunction,ComponentDrill*%
%ADD11C,0.870000*%
%TD*%
%TA.AperFunction,ComponentDrill*%
%ADD12C,1.300000*%
%TD*%
%TA.AperFunction,ComponentDrill*%
%ADD13C,6.400000*%
%TD*%
G04 APERTURE END LIST*
D10*
X65580000Y-37740000D03*
X65580000Y-40280000D03*
X65580000Y-42820000D03*
X65580000Y-45360000D03*
X65580000Y-47900000D03*
X65580000Y-50440000D03*
X65580000Y-52980000D03*
X65580000Y-60600000D03*
X65580000Y-63140000D03*
X65580000Y-65680000D03*
X65580000Y-68220000D03*
X65580000Y-70760000D03*
X65580000Y-73300000D03*
X65580000Y-75840000D03*
X65580000Y-78380000D03*
X65580000Y-80920000D03*
X65580000Y-83460000D03*
X65580000Y-86000000D03*
X65580000Y-88540000D03*
X68120000Y-37740000D03*
X68120000Y-40280000D03*
X68120000Y-42820000D03*
X68120000Y-45360000D03*
X68120000Y-47900000D03*
X68120000Y-50440000D03*
X68120000Y-52980000D03*
X68120000Y-60600000D03*
X68120000Y-63140000D03*
X68120000Y-65680000D03*
X68120000Y-68220000D03*
X68120000Y-70760000D03*
X68120000Y-73300000D03*
X68120000Y-75840000D03*
X68120000Y-78380000D03*
X68120000Y-86000000D03*
X68120000Y-88540000D03*
X69300000Y-79525000D03*
X70660000Y-60600000D03*
X70660000Y-63140000D03*
X70660000Y-65680000D03*
X70660000Y-68220000D03*
X70660000Y-70760000D03*
X70660000Y-73300000D03*
X70660000Y-75840000D03*
X70660000Y-78380000D03*
X70660000Y-88540000D03*
X73200000Y-32660000D03*
X73200000Y-35200000D03*
X73200000Y-50440000D03*
X73200000Y-63140000D03*
X73200000Y-65680000D03*
X73200000Y-68220000D03*
X73200000Y-70760000D03*
X73200000Y-73300000D03*
X73200000Y-75840000D03*
X73200000Y-83460000D03*
X73200000Y-88540000D03*
X73300000Y-78700000D03*
X75740000Y-35200000D03*
X75740000Y-37740000D03*
X75740000Y-40280000D03*
X75740000Y-42820000D03*
X75740000Y-45360000D03*
X75740000Y-47900000D03*
X75740000Y-50440000D03*
X75740000Y-52980000D03*
X75740000Y-63140000D03*
X75740000Y-65680000D03*
X75740000Y-68220000D03*
X75740000Y-70760000D03*
X75740000Y-73300000D03*
X75740000Y-75840000D03*
X75740000Y-80920000D03*
X75740000Y-88540000D03*
X78280000Y-35200000D03*
X78280000Y-50440000D03*
X78280000Y-52980000D03*
X78280000Y-63140000D03*
X78280000Y-65680000D03*
X78280000Y-68220000D03*
X78280000Y-75840000D03*
X78280000Y-80920000D03*
X78280000Y-88540000D03*
X80820000Y-42820000D03*
X80820000Y-50440000D03*
X80820000Y-52980000D03*
X80820000Y-60600000D03*
X80820000Y-63140000D03*
X80820000Y-65680000D03*
X83360000Y-35200000D03*
X83360000Y-50440000D03*
X83360000Y-52980000D03*
X83360000Y-60600000D03*
X83360000Y-63140000D03*
X83360000Y-73300000D03*
X85900000Y-32660000D03*
X85900000Y-35200000D03*
X85900000Y-37740000D03*
X85900000Y-40280000D03*
X85900000Y-42820000D03*
X85900000Y-45360000D03*
X85900000Y-47900000D03*
X85900000Y-50440000D03*
X85900000Y-52980000D03*
X85900000Y-63140000D03*
X85900000Y-68220000D03*
X85900000Y-70760000D03*
X85900000Y-73300000D03*
X85900000Y-80920000D03*
X86550000Y-84587500D03*
X88440000Y-35200000D03*
X88440000Y-50440000D03*
X88440000Y-52980000D03*
X88440000Y-70760000D03*
X88440000Y-88540000D03*
X88500000Y-61000000D03*
X88500000Y-68000000D03*
X89200000Y-84800000D03*
X89400000Y-81400000D03*
X90980000Y-50440000D03*
X90980000Y-52980000D03*
X90980000Y-63140000D03*
X90980000Y-68220000D03*
X90980000Y-88540000D03*
X93500000Y-64600000D03*
X93500000Y-82200000D03*
X93520000Y-50440000D03*
X93520000Y-52980000D03*
X93520000Y-63140000D03*
X93520000Y-68220000D03*
X93520000Y-88540000D03*
X96060000Y-50440000D03*
X96060000Y-52980000D03*
X96060000Y-60600000D03*
X96060000Y-63140000D03*
X96060000Y-65680000D03*
X96060000Y-68220000D03*
X96060000Y-80920000D03*
X96060000Y-83460000D03*
X96060000Y-88540000D03*
X96900000Y-77100000D03*
X97400000Y-76400000D03*
X98400000Y-84300000D03*
X98600000Y-42820000D03*
X98600000Y-50440000D03*
X98600000Y-52980000D03*
X98600000Y-60600000D03*
X98600000Y-63140000D03*
X98600000Y-65680000D03*
X98600000Y-68220000D03*
X98600000Y-88540000D03*
X99900000Y-82300000D03*
X101140000Y-50440000D03*
X101140000Y-52980000D03*
X101140000Y-60600000D03*
X101140000Y-63140000D03*
X101140000Y-65680000D03*
X101140000Y-68220000D03*
X101140000Y-88540000D03*
X102200000Y-85800000D03*
X103680000Y-37740000D03*
X103680000Y-40280000D03*
X103680000Y-42820000D03*
X103680000Y-45360000D03*
X103680000Y-47900000D03*
X103680000Y-50440000D03*
X103680000Y-52980000D03*
X103680000Y-63140000D03*
X103680000Y-65680000D03*
X103680000Y-68220000D03*
X103680000Y-83460000D03*
X103680000Y-88540000D03*
X106220000Y-50440000D03*
X106220000Y-52980000D03*
X106220000Y-63140000D03*
X106220000Y-65680000D03*
X106220000Y-68220000D03*
X106220000Y-70760000D03*
X106220000Y-73300000D03*
X106220000Y-80920000D03*
X106220000Y-88540000D03*
X106700000Y-84000000D03*
X108760000Y-35200000D03*
X108760000Y-50440000D03*
X108760000Y-52980000D03*
X108760000Y-63140000D03*
X108760000Y-65680000D03*
X108760000Y-68220000D03*
X108760000Y-70760000D03*
X108760000Y-73300000D03*
X108760000Y-80920000D03*
X108760000Y-88540000D03*
X111300000Y-32660000D03*
X111300000Y-35200000D03*
X111300000Y-50440000D03*
X111300000Y-52980000D03*
X111300000Y-60600000D03*
X111300000Y-63140000D03*
X111300000Y-65680000D03*
X111300000Y-68220000D03*
X111300000Y-70760000D03*
X111300000Y-73300000D03*
X111300000Y-83460000D03*
X111300000Y-88540000D03*
X113840000Y-35200000D03*
X113840000Y-50440000D03*
X113840000Y-52980000D03*
X113840000Y-60600000D03*
X113840000Y-63140000D03*
X113840000Y-65680000D03*
X113840000Y-73300000D03*
X113840000Y-88540000D03*
X114025000Y-83000000D03*
X116380000Y-35200000D03*
X116380000Y-50440000D03*
X116380000Y-52980000D03*
X116380000Y-63140000D03*
X116380000Y-65680000D03*
X116380000Y-68220000D03*
X116380000Y-70760000D03*
X116380000Y-73300000D03*
X116380000Y-75840000D03*
X116380000Y-86000000D03*
X116380000Y-88540000D03*
X117000000Y-81825000D03*
X118920000Y-35200000D03*
X118920000Y-50440000D03*
X118920000Y-52980000D03*
X118920000Y-58060000D03*
X118920000Y-63140000D03*
X118920000Y-65680000D03*
X118920000Y-68220000D03*
X118920000Y-70760000D03*
X118920000Y-73300000D03*
X118920000Y-75840000D03*
X118920000Y-88540000D03*
X119500000Y-61000000D03*
X120000000Y-80200000D03*
X121460000Y-35200000D03*
X121460000Y-37740000D03*
X121460000Y-40280000D03*
X121460000Y-42820000D03*
X121460000Y-45360000D03*
X121460000Y-47900000D03*
X121460000Y-50440000D03*
X121460000Y-52980000D03*
X121460000Y-58060000D03*
X121460000Y-63140000D03*
X121460000Y-65680000D03*
X121460000Y-70760000D03*
X121460000Y-73300000D03*
X121460000Y-75840000D03*
X121460000Y-78380000D03*
X121460000Y-80920000D03*
X121460000Y-83460000D03*
X121460000Y-86000000D03*
X121460000Y-88540000D03*
X123900000Y-39400000D03*
X123900000Y-41100000D03*
X123900000Y-42900000D03*
X123900000Y-44400000D03*
X123900000Y-46400000D03*
X123900000Y-48100000D03*
X124000000Y-32660000D03*
X124000000Y-35200000D03*
X124000000Y-68220000D03*
X124000000Y-70760000D03*
X124000000Y-73300000D03*
X124000000Y-75840000D03*
X124000000Y-78380000D03*
X124000000Y-80920000D03*
X124000000Y-83460000D03*
X124000000Y-86000000D03*
X124000000Y-88540000D03*
X126540000Y-35200000D03*
X126540000Y-37740000D03*
X126540000Y-40280000D03*
X126540000Y-42820000D03*
X126540000Y-45360000D03*
X126540000Y-47900000D03*
X126540000Y-50440000D03*
X126540000Y-52980000D03*
X126540000Y-58060000D03*
X126540000Y-63140000D03*
X126540000Y-65680000D03*
X126540000Y-68220000D03*
X126540000Y-70760000D03*
X126540000Y-73300000D03*
X126540000Y-75840000D03*
X126540000Y-78380000D03*
X126540000Y-80920000D03*
X126540000Y-83460000D03*
X126540000Y-86000000D03*
X126540000Y-88540000D03*
X129080000Y-37740000D03*
X129080000Y-40280000D03*
X129080000Y-42820000D03*
X129080000Y-45360000D03*
X129080000Y-47900000D03*
X129080000Y-50440000D03*
X129080000Y-52980000D03*
X129080000Y-58060000D03*
X129080000Y-60600000D03*
X129080000Y-63140000D03*
X129080000Y-65680000D03*
X129080000Y-68220000D03*
X129080000Y-70760000D03*
X129080000Y-73300000D03*
X129080000Y-75840000D03*
X129080000Y-78380000D03*
X129080000Y-80920000D03*
X129080000Y-83460000D03*
X129080000Y-86000000D03*
X129080000Y-88540000D03*
X131620000Y-37740000D03*
X131620000Y-40280000D03*
X131620000Y-42820000D03*
X131620000Y-45360000D03*
X131620000Y-47900000D03*
X131620000Y-50440000D03*
X131620000Y-60600000D03*
X131620000Y-63140000D03*
X131620000Y-65680000D03*
X131620000Y-68220000D03*
X131620000Y-70760000D03*
X131620000Y-73300000D03*
X131620000Y-75840000D03*
X131620000Y-78380000D03*
X131620000Y-80920000D03*
X131620000Y-83460000D03*
X131620000Y-86000000D03*
X131620000Y-88540000D03*
X132600000Y-51800000D03*
X132600000Y-52500000D03*
X132600000Y-58300000D03*
X132600000Y-59000000D03*
X133300000Y-51800000D03*
X133300000Y-52500000D03*
X133300000Y-58300000D03*
X133300000Y-59000000D03*
X134160000Y-40280000D03*
X134160000Y-42820000D03*
X134160000Y-45360000D03*
X134160000Y-47900000D03*
X134160000Y-50440000D03*
X134160000Y-60600000D03*
X134160000Y-63140000D03*
X134160000Y-65680000D03*
X134160000Y-68220000D03*
X134160000Y-70760000D03*
X134160000Y-73300000D03*
X134160000Y-75840000D03*
X134160000Y-78380000D03*
X134160000Y-80920000D03*
X134160000Y-83460000D03*
X134160000Y-86000000D03*
D11*
%TO.C,J1*%
X77500000Y-70000000D03*
X77500000Y-71500000D03*
X77500000Y-73000000D03*
X77500000Y-74500000D03*
D12*
%TO.C,TP4*%
X84000000Y-69160000D03*
%TO.C,TP2*%
X84000000Y-75160000D03*
%TO.C,TP3*%
X114000000Y-69160000D03*
%TO.C,TP1*%
X114000000Y-75160000D03*
D13*
%TO.C,H1*%
X80000000Y-29160000D03*
%TO.C,H2*%
X118000000Y-29160000D03*
M02*
