%TF.GenerationSoftware,KiCad,Pcbnew,7.0.11-rc3*%
%TF.CreationDate,2025-03-16T23:28:45+08:00*%
%TF.ProjectId,mainhoop-light,6d61696e-686f-46f7-902d-6c696768742e,rev?*%
%TF.SameCoordinates,Original*%
%TF.FileFunction,Copper,L2,Bot*%
%TF.FilePolarity,Positive*%
%FSLAX46Y46*%
G04 Gerber Fmt 4.6, Leading zero omitted, Abs format (unit mm)*
G04 Created by KiCad (PCBNEW 7.0.11-rc3) date 2025-03-16 23:28:45*
%MOMM*%
%LPD*%
G01*
G04 APERTURE LIST*
G04 Aperture macros list*
%AMRoundRect*
0 Rectangle with rounded corners*
0 $1 Rounding radius*
0 $2 $3 $4 $5 $6 $7 $8 $9 X,Y pos of 4 corners*
0 Add a 4 corners polygon primitive as box body*
4,1,4,$2,$3,$4,$5,$6,$7,$8,$9,$2,$3,0*
0 Add four circle primitives for the rounded corners*
1,1,$1+$1,$2,$3*
1,1,$1+$1,$4,$5*
1,1,$1+$1,$6,$7*
1,1,$1+$1,$8,$9*
0 Add four rect primitives between the rounded corners*
20,1,$1+$1,$2,$3,$4,$5,0*
20,1,$1+$1,$4,$5,$6,$7,0*
20,1,$1+$1,$6,$7,$8,$9,0*
20,1,$1+$1,$8,$9,$2,$3,0*%
G04 Aperture macros list end*
%TA.AperFunction,ComponentPad*%
%ADD10C,2.600000*%
%TD*%
%TA.AperFunction,ComponentPad*%
%ADD11RoundRect,0.250000X-0.685000X0.335000X-0.685000X-0.335000X0.685000X-0.335000X0.685000X0.335000X0*%
%TD*%
%TA.AperFunction,ComponentPad*%
%ADD12O,1.870000X1.170000*%
%TD*%
%TA.AperFunction,ComponentPad*%
%ADD13C,6.800000*%
%TD*%
%TA.AperFunction,SMDPad,CuDef*%
%ADD14R,2.000000X1.100000*%
%TD*%
%TA.AperFunction,ViaPad*%
%ADD15C,0.600000*%
%TD*%
%TA.AperFunction,Conductor*%
%ADD16C,0.500000*%
%TD*%
%TA.AperFunction,Conductor*%
%ADD17C,0.300000*%
%TD*%
G04 APERTURE END LIST*
D10*
%TO.P,TP4,1,1*%
%TO.N,VDC*%
X84000000Y-69160000D03*
%TD*%
%TO.P,TP3,1,1*%
%TO.N,VDC*%
X114000000Y-69160000D03*
%TD*%
%TO.P,TP2,1,1*%
%TO.N,Net-(IC1-OUT_1)*%
X84000000Y-75160000D03*
%TD*%
%TO.P,TP1,1,1*%
%TO.N,Net-(IC1-OUT_1)*%
X114000000Y-75160000D03*
%TD*%
D11*
%TO.P,J1,1,Pin_1*%
%TO.N,VDC*%
X77500000Y-70000000D03*
D12*
%TO.P,J1,2,Pin_2*%
%TO.N,TSSI*%
X77500000Y-71500000D03*
%TO.P,J1,3,Pin_3*%
%TO.N,TSAL*%
X77500000Y-73000000D03*
%TO.P,J1,4,Pin_4*%
%TO.N,GND*%
X77500000Y-74500000D03*
%TD*%
D13*
%TO.P,H2,1,1*%
%TO.N,GND*%
X118000000Y-29160000D03*
%TD*%
%TO.P,H1,1,1*%
%TO.N,GND*%
X80000000Y-29160000D03*
%TD*%
D14*
%TO.P,D22,1,RK*%
%TO.N,Net-(D20-RA)*%
X110100000Y-48900000D03*
%TO.P,D22,2,GK*%
%TO.N,Net-(D20-GA)*%
X110100000Y-47200000D03*
%TO.P,D22,3,BK*%
%TO.N,Net-(D20-BA)*%
X110100000Y-45500000D03*
%TO.P,D22,4,BA*%
%TO.N,Net-(D22-BA)*%
X114900000Y-45500000D03*
%TO.P,D22,5,GA*%
%TO.N,Net-(D22-GA)*%
X114900000Y-47200000D03*
%TO.P,D22,6,RA*%
%TO.N,Net-(D22-RA)*%
X114900000Y-48900000D03*
%TD*%
%TO.P,D20,1,RK*%
%TO.N,Net-(D18-RA)*%
X101100000Y-48900000D03*
%TO.P,D20,2,GK*%
%TO.N,Net-(D18-GA)*%
X101100000Y-47200000D03*
%TO.P,D20,3,BK*%
%TO.N,Net-(D18-BA)*%
X101100000Y-45500000D03*
%TO.P,D20,4,BA*%
%TO.N,Net-(D20-BA)*%
X105900000Y-45500000D03*
%TO.P,D20,5,GA*%
%TO.N,Net-(D20-GA)*%
X105900000Y-47200000D03*
%TO.P,D20,6,RA*%
%TO.N,Net-(D20-RA)*%
X105900000Y-48900000D03*
%TD*%
%TO.P,D7,1,RK*%
%TO.N,Net-(D7-BK)*%
X74100000Y-41900000D03*
%TO.P,D7,2,GK*%
X74100000Y-40200000D03*
%TO.P,D7,3,BK*%
X74100000Y-38500000D03*
%TO.P,D7,4,BA*%
%TO.N,Net-(D7-BA)*%
X78900000Y-38500000D03*
%TO.P,D7,5,GA*%
%TO.N,Net-(D7-GA)*%
X78900000Y-40200000D03*
%TO.P,D7,6,RA*%
%TO.N,Net-(D7-RA)*%
X78900000Y-41900000D03*
%TD*%
%TO.P,D24,1,RK*%
%TO.N,Net-(D22-RA)*%
X119100000Y-48900000D03*
%TO.P,D24,2,GK*%
%TO.N,Net-(D22-GA)*%
X119100000Y-47200000D03*
%TO.P,D24,3,BK*%
%TO.N,Net-(D22-BA)*%
X119100000Y-45500000D03*
%TO.P,D24,4,BA*%
%TO.N,VDC*%
X123900000Y-45500000D03*
%TO.P,D24,5,GA*%
X123900000Y-47200000D03*
%TO.P,D24,6,RA*%
X123900000Y-48900000D03*
%TD*%
%TO.P,D12,1,RK*%
%TO.N,Net-(D11-RA)*%
X119100000Y-41900000D03*
%TO.P,D12,2,GK*%
%TO.N,Net-(D11-GA)*%
X119100000Y-40200000D03*
%TO.P,D12,3,BK*%
%TO.N,Net-(D11-BA)*%
X119100000Y-38500000D03*
%TO.P,D12,4,BA*%
%TO.N,VDC*%
X123900000Y-38500000D03*
%TO.P,D12,5,GA*%
X123900000Y-40200000D03*
%TO.P,D12,6,RA*%
X123900000Y-41900000D03*
%TD*%
%TO.P,D18,1,RK*%
%TO.N,Net-(D16-RA)*%
X92100000Y-48900000D03*
%TO.P,D18,2,GK*%
%TO.N,Net-(D16-GA)*%
X92100000Y-47200000D03*
%TO.P,D18,3,BK*%
%TO.N,Net-(D16-BA)*%
X92100000Y-45500000D03*
%TO.P,D18,4,BA*%
%TO.N,Net-(D18-BA)*%
X96900000Y-45500000D03*
%TO.P,D18,5,GA*%
%TO.N,Net-(D18-GA)*%
X96900000Y-47200000D03*
%TO.P,D18,6,RA*%
%TO.N,Net-(D18-RA)*%
X96900000Y-48900000D03*
%TD*%
%TO.P,D10,1,RK*%
%TO.N,Net-(D10-RK)*%
X101100000Y-41900000D03*
%TO.P,D10,2,GK*%
%TO.N,Net-(D10-GK)*%
X101100000Y-40200000D03*
%TO.P,D10,3,BK*%
%TO.N,Net-(D10-BK)*%
X101100000Y-38500000D03*
%TO.P,D10,4,BA*%
%TO.N,Net-(D10-BA)*%
X105900000Y-38500000D03*
%TO.P,D10,5,GA*%
%TO.N,Net-(D10-GA)*%
X105900000Y-40200000D03*
%TO.P,D10,6,RA*%
%TO.N,Net-(D10-RA)*%
X105900000Y-41900000D03*
%TD*%
%TO.P,D14,1,RK*%
%TO.N,Net-(D14-BK)*%
X74100000Y-48900000D03*
%TO.P,D14,2,GK*%
X74100000Y-47200000D03*
%TO.P,D14,3,BK*%
X74100000Y-45500000D03*
%TO.P,D14,4,BA*%
%TO.N,Net-(D14-BA)*%
X78900000Y-45500000D03*
%TO.P,D14,5,GA*%
%TO.N,Net-(D14-GA)*%
X78900000Y-47200000D03*
%TO.P,D14,6,RA*%
%TO.N,Net-(D14-RA)*%
X78900000Y-48900000D03*
%TD*%
%TO.P,D11,1,RK*%
%TO.N,Net-(D10-RA)*%
X110100000Y-41900000D03*
%TO.P,D11,2,GK*%
%TO.N,Net-(D10-GA)*%
X110100000Y-40200000D03*
%TO.P,D11,3,BK*%
%TO.N,Net-(D10-BA)*%
X110100000Y-38500000D03*
%TO.P,D11,4,BA*%
%TO.N,Net-(D11-BA)*%
X114900000Y-38500000D03*
%TO.P,D11,5,GA*%
%TO.N,Net-(D11-GA)*%
X114900000Y-40200000D03*
%TO.P,D11,6,RA*%
%TO.N,Net-(D11-RA)*%
X114900000Y-41900000D03*
%TD*%
%TO.P,D9,1,RK*%
%TO.N,Net-(D8-RA)*%
X92100000Y-41900000D03*
%TO.P,D9,2,GK*%
%TO.N,Net-(D8-GA)*%
X92100000Y-40200000D03*
%TO.P,D9,3,BK*%
%TO.N,Net-(D8-BA)*%
X92100000Y-38500000D03*
%TO.P,D9,4,BA*%
%TO.N,Net-(D10-BK)*%
X96900000Y-38500000D03*
%TO.P,D9,5,GA*%
%TO.N,Net-(D10-GK)*%
X96900000Y-40200000D03*
%TO.P,D9,6,RA*%
%TO.N,Net-(D10-RK)*%
X96900000Y-41900000D03*
%TD*%
%TO.P,D16,1,RK*%
%TO.N,Net-(D14-RA)*%
X83100000Y-48900000D03*
%TO.P,D16,2,GK*%
%TO.N,Net-(D14-GA)*%
X83100000Y-47200000D03*
%TO.P,D16,3,BK*%
%TO.N,Net-(D14-BA)*%
X83100000Y-45500000D03*
%TO.P,D16,4,BA*%
%TO.N,Net-(D16-BA)*%
X87900000Y-45500000D03*
%TO.P,D16,5,GA*%
%TO.N,Net-(D16-GA)*%
X87900000Y-47200000D03*
%TO.P,D16,6,RA*%
%TO.N,Net-(D16-RA)*%
X87900000Y-48900000D03*
%TD*%
%TO.P,D8,1,RK*%
%TO.N,Net-(D7-RA)*%
X83100000Y-41900000D03*
%TO.P,D8,2,GK*%
%TO.N,Net-(D7-GA)*%
X83100000Y-40200000D03*
%TO.P,D8,3,BK*%
%TO.N,Net-(D7-BA)*%
X83100000Y-38500000D03*
%TO.P,D8,4,BA*%
%TO.N,Net-(D8-BA)*%
X87900000Y-38500000D03*
%TO.P,D8,5,GA*%
%TO.N,Net-(D8-GA)*%
X87900000Y-40200000D03*
%TO.P,D8,6,RA*%
%TO.N,Net-(D8-RA)*%
X87900000Y-41900000D03*
%TD*%
D15*
%TO.N,GND*%
X103680000Y-88540000D03*
X85900000Y-32660000D03*
X116380000Y-68220000D03*
X83360000Y-35200000D03*
X116380000Y-52980000D03*
X131620000Y-60600000D03*
X129080000Y-73300000D03*
X129080000Y-70760000D03*
X124000000Y-88540000D03*
X75740000Y-50440000D03*
X121460000Y-75840000D03*
X83360000Y-60600000D03*
X131620000Y-45360000D03*
X75740000Y-37740000D03*
X108760000Y-73300000D03*
X131620000Y-65680000D03*
X134160000Y-86000000D03*
X126540000Y-68220000D03*
X126540000Y-37740000D03*
X85900000Y-80920000D03*
X116380000Y-63140000D03*
X103680000Y-47900000D03*
X75740000Y-88540000D03*
X116380000Y-70760000D03*
X68120000Y-63140000D03*
X111300000Y-52980000D03*
X65580000Y-88540000D03*
X90980000Y-63140000D03*
X68120000Y-88540000D03*
X131620000Y-83460000D03*
X121460000Y-37740000D03*
X108760000Y-63140000D03*
X98600000Y-60600000D03*
X88440000Y-70760000D03*
X111300000Y-50440000D03*
X129080000Y-40280000D03*
X70660000Y-78380000D03*
X134160000Y-75840000D03*
X75740000Y-42820000D03*
X73200000Y-63140000D03*
X80820000Y-65680000D03*
X101140000Y-63140000D03*
X75740000Y-80920000D03*
X126540000Y-42820000D03*
X68120000Y-65680000D03*
X134160000Y-63140000D03*
X108760000Y-80920000D03*
X118920000Y-52980000D03*
X134160000Y-60600000D03*
X129080000Y-52980000D03*
X131620000Y-68220000D03*
X83360000Y-50440000D03*
X101140000Y-65680000D03*
X75740000Y-65680000D03*
X129080000Y-88540000D03*
X68120000Y-37740000D03*
X126540000Y-47900000D03*
X68120000Y-73300000D03*
X126540000Y-78380000D03*
X129080000Y-37740000D03*
X108760000Y-35200000D03*
X93520000Y-52980000D03*
X118920000Y-73300000D03*
X133300000Y-51800000D03*
X131620000Y-75840000D03*
X131620000Y-37740000D03*
X106220000Y-68220000D03*
X121460000Y-73300000D03*
X85900000Y-73300000D03*
X113840000Y-35200000D03*
X108760000Y-52980000D03*
X70660000Y-60600000D03*
X126540000Y-86000000D03*
X78280000Y-80920000D03*
X126540000Y-65680000D03*
X75740000Y-47900000D03*
X98600000Y-52980000D03*
X103680000Y-68220000D03*
X121460000Y-70760000D03*
X80820000Y-42820000D03*
X75740000Y-68220000D03*
X73200000Y-68220000D03*
X101140000Y-50440000D03*
X111300000Y-32660000D03*
X78280000Y-75840000D03*
X68120000Y-70760000D03*
X133300000Y-58300000D03*
X68120000Y-45360000D03*
X129080000Y-65680000D03*
X131620000Y-70760000D03*
X101140000Y-88540000D03*
X101140000Y-52980000D03*
X70660000Y-88540000D03*
X68120000Y-68220000D03*
X96060000Y-88540000D03*
X83360000Y-52980000D03*
X124000000Y-78380000D03*
X103680000Y-65680000D03*
X131620000Y-80920000D03*
X129080000Y-42820000D03*
X65580000Y-47900000D03*
X85900000Y-42820000D03*
X129080000Y-60600000D03*
X121460000Y-63140000D03*
X113840000Y-63140000D03*
X93520000Y-68220000D03*
X118920000Y-63140000D03*
X126540000Y-80920000D03*
X103680000Y-40280000D03*
X96060000Y-50440000D03*
X103680000Y-37740000D03*
X126540000Y-50440000D03*
X78280000Y-65680000D03*
X68120000Y-40280000D03*
X118920000Y-88540000D03*
X103680000Y-50440000D03*
X132600000Y-59000000D03*
X85900000Y-68220000D03*
X129080000Y-75840000D03*
X68120000Y-42820000D03*
X134160000Y-80920000D03*
X134160000Y-73300000D03*
X129080000Y-78380000D03*
X96060000Y-60600000D03*
X65580000Y-50440000D03*
X131620000Y-63140000D03*
X121460000Y-50440000D03*
X111300000Y-83460000D03*
X129080000Y-68220000D03*
X124000000Y-35200000D03*
X65580000Y-68220000D03*
X116380000Y-88540000D03*
X133300000Y-59000000D03*
X121460000Y-65680000D03*
X124000000Y-80920000D03*
X88440000Y-35200000D03*
X70660000Y-73300000D03*
X134160000Y-68220000D03*
X106220000Y-52980000D03*
X68120000Y-78380000D03*
X121460000Y-47900000D03*
X65580000Y-73300000D03*
X106220000Y-73300000D03*
X99900000Y-82300000D03*
X65580000Y-83460000D03*
X113840000Y-50440000D03*
X73200000Y-50440000D03*
X65580000Y-60600000D03*
X65580000Y-52980000D03*
X131620000Y-73300000D03*
X65580000Y-37740000D03*
X75740000Y-73300000D03*
X78280000Y-35200000D03*
X73200000Y-65680000D03*
X75740000Y-40280000D03*
X124000000Y-86000000D03*
X111300000Y-88540000D03*
X85900000Y-45360000D03*
X88440000Y-88540000D03*
X65580000Y-42820000D03*
X73200000Y-83460000D03*
X96060000Y-63140000D03*
X96060000Y-83460000D03*
X106220000Y-63140000D03*
X129080000Y-50440000D03*
X132600000Y-52500000D03*
X129080000Y-47900000D03*
X131620000Y-78380000D03*
X75740000Y-35200000D03*
X75740000Y-70760000D03*
X68120000Y-86000000D03*
X83360000Y-63140000D03*
X85900000Y-37740000D03*
X101140000Y-68220000D03*
X80820000Y-50440000D03*
X103680000Y-42820000D03*
X73200000Y-32660000D03*
X80820000Y-60600000D03*
X126540000Y-45360000D03*
X70660000Y-63140000D03*
X73200000Y-73300000D03*
X131620000Y-40280000D03*
X134160000Y-47900000D03*
X116380000Y-75840000D03*
X65580000Y-86000000D03*
X121460000Y-40280000D03*
X111300000Y-73300000D03*
X108760000Y-50440000D03*
X126540000Y-75840000D03*
X126540000Y-52980000D03*
X121460000Y-52980000D03*
X131620000Y-50440000D03*
X134160000Y-83460000D03*
X113840000Y-60600000D03*
X78280000Y-88540000D03*
X98600000Y-63140000D03*
X134160000Y-65680000D03*
X103680000Y-63140000D03*
X121460000Y-58060000D03*
X88440000Y-52980000D03*
X65580000Y-80920000D03*
X134160000Y-78380000D03*
X73200000Y-70760000D03*
X103680000Y-45360000D03*
X126540000Y-40280000D03*
X65580000Y-45360000D03*
X96060000Y-52980000D03*
X68120000Y-75840000D03*
X116380000Y-35200000D03*
X126540000Y-58060000D03*
X78280000Y-50440000D03*
X70660000Y-65680000D03*
X124000000Y-73300000D03*
X73200000Y-88540000D03*
X108760000Y-65680000D03*
X93520000Y-63140000D03*
X106220000Y-65680000D03*
X134160000Y-42820000D03*
X93520000Y-50440000D03*
X85900000Y-47900000D03*
X116380000Y-73300000D03*
X126540000Y-88540000D03*
X90980000Y-68220000D03*
X113840000Y-88540000D03*
X85900000Y-50440000D03*
X132600000Y-58300000D03*
X126540000Y-70760000D03*
X98600000Y-65680000D03*
X106220000Y-50440000D03*
X68120000Y-47900000D03*
X118920000Y-65680000D03*
X129080000Y-63140000D03*
X116380000Y-50440000D03*
X85900000Y-63140000D03*
X106220000Y-88540000D03*
X75740000Y-45360000D03*
X118920000Y-58060000D03*
X121460000Y-80920000D03*
X111300000Y-35200000D03*
X121460000Y-88540000D03*
X103680000Y-52980000D03*
X126540000Y-73300000D03*
X124000000Y-75840000D03*
X86550000Y-84587500D03*
X118920000Y-68220000D03*
X129080000Y-80920000D03*
X88440000Y-50440000D03*
X83360000Y-73300000D03*
X113840000Y-52980000D03*
X65580000Y-70760000D03*
X111300000Y-60600000D03*
X121460000Y-45360000D03*
X89400000Y-81400000D03*
X68120000Y-60600000D03*
X90980000Y-88540000D03*
X126540000Y-63140000D03*
X111300000Y-68220000D03*
X75740000Y-52980000D03*
X124000000Y-83460000D03*
X111300000Y-63140000D03*
X134160000Y-40280000D03*
X78280000Y-52980000D03*
X70660000Y-68220000D03*
X98600000Y-88540000D03*
X96060000Y-68220000D03*
X129080000Y-83460000D03*
X106220000Y-80920000D03*
X80820000Y-63140000D03*
X121460000Y-78380000D03*
X96060000Y-80920000D03*
X133300000Y-52500000D03*
X129080000Y-86000000D03*
X98600000Y-50440000D03*
X93500000Y-64600000D03*
X90980000Y-50440000D03*
X98600000Y-68220000D03*
X101140000Y-60600000D03*
X108760000Y-88540000D03*
X121460000Y-35200000D03*
X121460000Y-86000000D03*
X85900000Y-35200000D03*
X111300000Y-65680000D03*
X96900000Y-77100000D03*
X116380000Y-86000000D03*
X134160000Y-70760000D03*
X70660000Y-75840000D03*
X124000000Y-70760000D03*
X65580000Y-65680000D03*
X113840000Y-65680000D03*
X73200000Y-75840000D03*
X113840000Y-73300000D03*
X90980000Y-52980000D03*
X65580000Y-78380000D03*
X70660000Y-70760000D03*
X96060000Y-65680000D03*
X85900000Y-52980000D03*
X121460000Y-83460000D03*
X124000000Y-68220000D03*
X78280000Y-68220000D03*
X75740000Y-63140000D03*
X118920000Y-35200000D03*
X85900000Y-40280000D03*
X98600000Y-42820000D03*
X126540000Y-83460000D03*
X126540000Y-35200000D03*
X131620000Y-86000000D03*
X108760000Y-68220000D03*
X65580000Y-63140000D03*
X85900000Y-70760000D03*
X131620000Y-42820000D03*
X103680000Y-83460000D03*
X124000000Y-32660000D03*
X93520000Y-88540000D03*
X80820000Y-52980000D03*
X134160000Y-45360000D03*
X132600000Y-51800000D03*
X65580000Y-40280000D03*
X108760000Y-70760000D03*
X118920000Y-50440000D03*
X129080000Y-58060000D03*
X78280000Y-63140000D03*
X106220000Y-70760000D03*
X68120000Y-50440000D03*
X111300000Y-70760000D03*
X131620000Y-88540000D03*
X131620000Y-47900000D03*
X118920000Y-75840000D03*
X73200000Y-35200000D03*
X75740000Y-75840000D03*
X121460000Y-42820000D03*
X118920000Y-70760000D03*
X65580000Y-75840000D03*
X129080000Y-45360000D03*
X68120000Y-52980000D03*
X116380000Y-65680000D03*
X134160000Y-50440000D03*
%TO.N,VDC*%
X123900000Y-48100000D03*
X123900000Y-42900000D03*
X123900000Y-39400000D03*
X123900000Y-44400000D03*
X123900000Y-41100000D03*
X123900000Y-46400000D03*
%TO.N,+12V*%
X93500000Y-82200000D03*
X88500000Y-68000000D03*
X98400000Y-84300000D03*
X117000000Y-81825000D03*
X102200000Y-85800000D03*
%TO.N,Net-(D7-BK)*%
X88500000Y-61000000D03*
%TO.N,Net-(D14-BK)*%
X119500000Y-61000000D03*
%TO.N,TSAL_EN*%
X97400000Y-76400000D03*
X120000000Y-80200000D03*
%TO.N,Net-(Q4-G)*%
X69300000Y-79525000D03*
X89200000Y-84800000D03*
%TO.N,TSAL*%
X114025000Y-83000000D03*
%TO.N,Net-(Q9-G)*%
X73300000Y-78700000D03*
X106700000Y-84000000D03*
%TD*%
D16*
%TO.N,GND*%
X132600000Y-59000000D02*
X132600000Y-51800000D01*
X133300000Y-51800000D02*
X133300000Y-59000000D01*
%TO.N,VDC*%
X77500000Y-70000000D02*
X83160000Y-70000000D01*
X84000000Y-69160000D02*
X114000000Y-69160000D01*
X123900000Y-42900000D02*
X123900000Y-44400000D01*
X123900000Y-44400000D02*
X123900000Y-48100000D01*
X123900000Y-66600000D02*
X123900000Y-49500000D01*
X83160000Y-70000000D02*
X84000000Y-69160000D01*
X123900000Y-49500000D02*
X123900000Y-48900000D01*
X121340000Y-69160000D02*
X123900000Y-66600000D01*
X123900000Y-38500000D02*
X123900000Y-42900000D01*
X114000000Y-69160000D02*
X121340000Y-69160000D01*
X123900000Y-48100000D02*
X123900000Y-49500000D01*
D17*
%TO.N,+12V*%
X98400000Y-84300000D02*
X96300000Y-82200000D01*
X96300000Y-82200000D02*
X93500000Y-82200000D01*
X99900000Y-85800000D02*
X98400000Y-84300000D01*
X113025000Y-85800000D02*
X102200000Y-85800000D01*
X117000000Y-81825000D02*
X113025000Y-85800000D01*
X102200000Y-85800000D02*
X99900000Y-85800000D01*
D16*
%TO.N,Net-(D7-BK)*%
X84000000Y-58500000D02*
X86500000Y-61000000D01*
X86500000Y-61000000D02*
X88500000Y-61000000D01*
X82500000Y-57000000D02*
X84000000Y-58500000D01*
X69500000Y-55500000D02*
X71000000Y-57000000D01*
X69500000Y-40000000D02*
X69500000Y-55500000D01*
X71000000Y-38500000D02*
X69500000Y-40000000D01*
X74100000Y-38500000D02*
X74100000Y-41900000D01*
X71000000Y-57000000D02*
X71500000Y-57000000D01*
X71500000Y-57000000D02*
X82500000Y-57000000D01*
X74100000Y-38500000D02*
X71000000Y-38500000D01*
%TO.N,Net-(D7-BA)*%
X78900000Y-38500000D02*
X83100000Y-38500000D01*
%TO.N,Net-(D7-GA)*%
X83100000Y-40200000D02*
X78900000Y-40200000D01*
%TO.N,Net-(D7-RA)*%
X78900000Y-41900000D02*
X83100000Y-41900000D01*
%TO.N,Net-(D8-BA)*%
X87900000Y-38500000D02*
X92100000Y-38500000D01*
%TO.N,Net-(D8-GA)*%
X92100000Y-40200000D02*
X87900000Y-40200000D01*
%TO.N,Net-(D8-RA)*%
X87900000Y-41900000D02*
X92100000Y-41900000D01*
%TO.N,Net-(D10-BK)*%
X96900000Y-38500000D02*
X101100000Y-38500000D01*
%TO.N,Net-(D10-GK)*%
X101100000Y-40200000D02*
X96900000Y-40200000D01*
%TO.N,Net-(D10-RK)*%
X96900000Y-41900000D02*
X101100000Y-41900000D01*
%TO.N,Net-(D10-BA)*%
X105900000Y-38500000D02*
X110100000Y-38500000D01*
%TO.N,Net-(D10-GA)*%
X105900000Y-40200000D02*
X110100000Y-40200000D01*
%TO.N,Net-(D10-RA)*%
X105900000Y-41900000D02*
X110100000Y-41900000D01*
%TO.N,Net-(D11-BA)*%
X114900000Y-38500000D02*
X119100000Y-38500000D01*
%TO.N,Net-(D11-GA)*%
X119100000Y-40200000D02*
X114900000Y-40200000D01*
%TO.N,Net-(D11-RA)*%
X114900000Y-41900000D02*
X119100000Y-41900000D01*
%TO.N,Net-(D14-BA)*%
X83100000Y-45500000D02*
X78900000Y-45500000D01*
%TO.N,Net-(D14-GA)*%
X83100000Y-47200000D02*
X78900000Y-47200000D01*
%TO.N,Net-(D14-RA)*%
X78900000Y-48900000D02*
X83100000Y-48900000D01*
%TO.N,Net-(D16-BA)*%
X87900000Y-45500000D02*
X92100000Y-45500000D01*
%TO.N,Net-(D16-GA)*%
X92100000Y-47200000D02*
X87900000Y-47200000D01*
%TO.N,Net-(D16-RA)*%
X87900000Y-48900000D02*
X92100000Y-48900000D01*
%TO.N,Net-(D18-BA)*%
X101100000Y-45500000D02*
X96900000Y-45500000D01*
%TO.N,Net-(D18-GA)*%
X96900000Y-47200000D02*
X101100000Y-47200000D01*
%TO.N,Net-(D18-RA)*%
X101100000Y-48900000D02*
X96900000Y-48900000D01*
%TO.N,Net-(D20-BA)*%
X110100000Y-45500000D02*
X105900000Y-45500000D01*
%TO.N,Net-(D20-GA)*%
X105900000Y-47200000D02*
X110100000Y-47200000D01*
%TO.N,Net-(D20-RA)*%
X110100000Y-48900000D02*
X105900000Y-48900000D01*
%TO.N,Net-(D22-BA)*%
X119100000Y-45500000D02*
X114900000Y-45500000D01*
%TO.N,Net-(D22-GA)*%
X114900000Y-47200000D02*
X119100000Y-47200000D01*
%TO.N,Net-(D22-RA)*%
X119100000Y-48900000D02*
X114900000Y-48900000D01*
%TO.N,Net-(D14-BK)*%
X74100000Y-45500000D02*
X74100000Y-48900000D01*
X118000000Y-61000000D02*
X119500000Y-61000000D01*
X71500000Y-46000000D02*
X71500000Y-52000000D01*
X74100000Y-45500000D02*
X72000000Y-45500000D01*
X72000000Y-45500000D02*
X71500000Y-46000000D01*
X74000000Y-54500000D02*
X111500000Y-54500000D01*
X71500000Y-52000000D02*
X74000000Y-54500000D01*
X111500000Y-54500000D02*
X115500000Y-58500000D01*
X115500000Y-58500000D02*
X118000000Y-61000000D01*
D17*
%TO.N,TSAL_EN*%
X97810000Y-76810000D02*
X116610000Y-76810000D01*
X97400000Y-76400000D02*
X97810000Y-76810000D01*
X116610000Y-76810000D02*
X120000000Y-80200000D01*
D16*
%TO.N,Net-(IC1-OUT_1)*%
X84000000Y-75160000D02*
X114000000Y-75160000D01*
D17*
%TO.N,Net-(Q4-G)*%
X89200000Y-84800000D02*
X86900000Y-87100000D01*
X75300000Y-87100000D02*
X69300000Y-81100000D01*
X86900000Y-87100000D02*
X75300000Y-87100000D01*
X69300000Y-81100000D02*
X69300000Y-79525000D01*
%TO.N,TSAL*%
X78035000Y-73000000D02*
X83235000Y-78200000D01*
X77500000Y-73000000D02*
X78035000Y-73000000D01*
X83235000Y-78200000D02*
X109225000Y-78200000D01*
X109225000Y-78200000D02*
X114025000Y-83000000D01*
%TO.N,Net-(Q9-G)*%
X106700000Y-83300000D02*
X102100000Y-78700000D01*
X102100000Y-78700000D02*
X73300000Y-78700000D01*
X106700000Y-84000000D02*
X106700000Y-83300000D01*
%TD*%
%TA.AperFunction,Conductor*%
%TO.N,GND*%
G36*
X80253690Y-22665633D02*
G01*
X80740655Y-22703019D01*
X80750061Y-22704105D01*
X81232766Y-22778664D01*
X81242071Y-22780469D01*
X81717626Y-22891752D01*
X81726773Y-22894266D01*
X82192420Y-23041629D01*
X82201333Y-23044830D01*
X82654340Y-23227409D01*
X82662986Y-23231284D01*
X83100697Y-23448009D01*
X83109016Y-23452533D01*
X83528831Y-23702115D01*
X83536804Y-23707279D01*
X83936272Y-23988258D01*
X83943818Y-23994009D01*
X84320614Y-24304750D01*
X84327706Y-24311070D01*
X84679609Y-24649743D01*
X84686196Y-24656588D01*
X85011134Y-25021196D01*
X85017177Y-25028524D01*
X85313252Y-25416938D01*
X85318717Y-25424708D01*
X85584184Y-25834636D01*
X85589039Y-25842801D01*
X85822363Y-26271878D01*
X85826577Y-26280391D01*
X86026356Y-26726036D01*
X86029907Y-26734846D01*
X86194993Y-27194493D01*
X86197859Y-27203549D01*
X86327271Y-27674474D01*
X86329436Y-27683723D01*
X86422424Y-28163190D01*
X86423874Y-28172578D01*
X86479884Y-28657748D01*
X86480611Y-28667219D01*
X86499409Y-29157625D01*
X86499500Y-29162375D01*
X86499500Y-29403251D01*
X86535852Y-29888333D01*
X86608358Y-30369370D01*
X86716606Y-30843638D01*
X86859998Y-31308498D01*
X87037707Y-31761291D01*
X87037713Y-31761304D01*
X87037718Y-31761317D01*
X87085782Y-31861123D01*
X87248785Y-32199605D01*
X87248787Y-32199608D01*
X87424221Y-32503467D01*
X87492018Y-32620895D01*
X87671884Y-32884710D01*
X87766057Y-33022836D01*
X88040206Y-33366608D01*
X88069357Y-33403162D01*
X88400236Y-33759764D01*
X88655555Y-33996666D01*
X88756838Y-34090643D01*
X89080623Y-34348853D01*
X89137171Y-34393948D01*
X89539105Y-34667982D01*
X89719209Y-34771965D01*
X89960391Y-34911212D01*
X89960394Y-34911214D01*
X90026229Y-34942918D01*
X90398683Y-35122282D01*
X90398704Y-35122290D01*
X90398708Y-35122292D01*
X90851501Y-35300001D01*
X90851513Y-35300004D01*
X90851519Y-35300007D01*
X91078857Y-35370132D01*
X91316361Y-35443393D01*
X91316366Y-35443394D01*
X91316369Y-35443395D01*
X91790636Y-35551643D01*
X92254755Y-35621598D01*
X92271666Y-35624147D01*
X92756748Y-35660499D01*
X92756764Y-35660499D01*
X92756768Y-35660500D01*
X92756770Y-35660500D01*
X105243230Y-35660500D01*
X105243232Y-35660500D01*
X105243235Y-35660499D01*
X105243251Y-35660499D01*
X105655451Y-35629608D01*
X105728334Y-35624147D01*
X106209364Y-35551643D01*
X106683631Y-35443395D01*
X106683636Y-35443393D01*
X106683638Y-35443393D01*
X106859128Y-35389261D01*
X107148481Y-35300007D01*
X107148490Y-35300003D01*
X107148498Y-35300001D01*
X107495749Y-35163714D01*
X107601317Y-35122282D01*
X108039605Y-34911214D01*
X108460895Y-34667982D01*
X108862829Y-34393948D01*
X109243162Y-34090643D01*
X109599764Y-33759764D01*
X109930643Y-33403162D01*
X110233948Y-33022829D01*
X110507982Y-32620895D01*
X110751214Y-32199605D01*
X110962282Y-31761317D01*
X111003714Y-31655749D01*
X111140001Y-31308498D01*
X111140003Y-31308490D01*
X111140007Y-31308481D01*
X111283395Y-30843631D01*
X111391643Y-30369364D01*
X111464147Y-29888334D01*
X111469608Y-29815451D01*
X111500499Y-29403251D01*
X111500500Y-29403230D01*
X111500500Y-29162375D01*
X111500591Y-29157626D01*
X111510768Y-28892119D01*
X111519389Y-28667197D01*
X111520113Y-28657771D01*
X111576128Y-28172555D01*
X111577571Y-28163213D01*
X111670567Y-27683702D01*
X111672722Y-27674496D01*
X111802146Y-27203528D01*
X111804999Y-27194513D01*
X111970097Y-26734833D01*
X111973637Y-26726049D01*
X112173430Y-26280373D01*
X112177627Y-26271895D01*
X112410972Y-25842780D01*
X112415802Y-25834656D01*
X112681292Y-25424693D01*
X112686736Y-25416952D01*
X112982836Y-25028506D01*
X112988850Y-25021213D01*
X113313810Y-24656579D01*
X113320382Y-24649750D01*
X113672311Y-24311053D01*
X113679366Y-24304766D01*
X114056193Y-23993999D01*
X114063717Y-23988264D01*
X114463195Y-23707279D01*
X114471159Y-23702120D01*
X114890998Y-23452524D01*
X114899291Y-23448014D01*
X115337022Y-23231280D01*
X115345649Y-23227413D01*
X115798674Y-23044827D01*
X115807571Y-23041631D01*
X116273233Y-22894264D01*
X116282367Y-22891754D01*
X116757933Y-22780467D01*
X116767228Y-22778664D01*
X117249941Y-22704104D01*
X117259341Y-22703020D01*
X117746310Y-22665633D01*
X117755802Y-22665269D01*
X118244198Y-22665269D01*
X118253690Y-22665633D01*
X118740655Y-22703019D01*
X118750061Y-22704105D01*
X119232766Y-22778664D01*
X119242071Y-22780469D01*
X119717626Y-22891752D01*
X119726773Y-22894266D01*
X120192420Y-23041629D01*
X120201333Y-23044830D01*
X120654340Y-23227409D01*
X120662986Y-23231284D01*
X121100697Y-23448009D01*
X121109016Y-23452533D01*
X121528831Y-23702115D01*
X121536804Y-23707279D01*
X121936272Y-23988258D01*
X121943818Y-23994009D01*
X122320614Y-24304750D01*
X122327706Y-24311070D01*
X122679609Y-24649743D01*
X122686196Y-24656588D01*
X123011134Y-25021196D01*
X123017177Y-25028524D01*
X123313252Y-25416938D01*
X123318717Y-25424708D01*
X123584184Y-25834636D01*
X123589039Y-25842801D01*
X123822363Y-26271878D01*
X123826577Y-26280391D01*
X124026356Y-26726036D01*
X124029907Y-26734846D01*
X124194993Y-27194493D01*
X124197859Y-27203549D01*
X124327271Y-27674474D01*
X124329436Y-27683723D01*
X124422424Y-28163190D01*
X124423874Y-28172578D01*
X124479884Y-28657748D01*
X124480611Y-28667219D01*
X124499409Y-29157625D01*
X124499500Y-29162375D01*
X124499500Y-29401155D01*
X124535539Y-29882061D01*
X124607420Y-30358950D01*
X124714734Y-30829124D01*
X124714738Y-30829139D01*
X124856892Y-31289990D01*
X125033070Y-31738882D01*
X125033076Y-31738895D01*
X125033081Y-31738908D01*
X125051653Y-31777473D01*
X125242330Y-32173420D01*
X125242332Y-32173423D01*
X125432884Y-32503467D01*
X125483467Y-32591080D01*
X125503795Y-32620895D01*
X125755146Y-32989559D01*
X125781684Y-33022836D01*
X126055833Y-33366608D01*
X126383861Y-33720139D01*
X126737392Y-34048167D01*
X126858832Y-34145012D01*
X127063909Y-34308556D01*
X127114448Y-34348859D01*
X127512920Y-34620533D01*
X127645493Y-34697074D01*
X127930576Y-34861667D01*
X127930579Y-34861669D01*
X128033457Y-34911212D01*
X128365092Y-35070919D01*
X128365113Y-35070927D01*
X128365117Y-35070929D01*
X128814009Y-35247107D01*
X128814021Y-35247110D01*
X128814027Y-35247113D01*
X129274873Y-35389265D01*
X129745054Y-35496581D01*
X130129059Y-35554460D01*
X130221938Y-35568460D01*
X130702844Y-35604499D01*
X130702860Y-35604499D01*
X130702864Y-35604500D01*
X130878108Y-35604500D01*
X130941294Y-35604500D01*
X130946702Y-35604618D01*
X130958869Y-35605149D01*
X131335650Y-35621599D01*
X131346387Y-35622539D01*
X131729687Y-35673001D01*
X131740325Y-35674876D01*
X132117773Y-35758555D01*
X132128213Y-35761353D01*
X132496910Y-35877602D01*
X132507071Y-35881300D01*
X132864244Y-36029247D01*
X132874036Y-36033813D01*
X133216965Y-36212330D01*
X133226305Y-36217723D01*
X133489401Y-36385334D01*
X133552356Y-36425441D01*
X133561217Y-36431645D01*
X133867926Y-36666991D01*
X133876202Y-36673935D01*
X134161245Y-36935128D01*
X134168871Y-36942754D01*
X134430062Y-37227795D01*
X134437008Y-37236073D01*
X134672354Y-37542782D01*
X134678558Y-37551643D01*
X134699016Y-37583755D01*
X134870073Y-37852260D01*
X134886268Y-37877680D01*
X134891673Y-37887042D01*
X134958197Y-38014833D01*
X135070183Y-38229957D01*
X135074755Y-38239761D01*
X135222698Y-38596926D01*
X135226398Y-38607092D01*
X135342645Y-38975782D01*
X135345445Y-38986230D01*
X135429121Y-39363666D01*
X135430999Y-39374320D01*
X135481458Y-39757592D01*
X135482401Y-39768368D01*
X135499382Y-40157297D01*
X135499500Y-40162706D01*
X135499500Y-54622689D01*
X135479815Y-54689728D01*
X135427011Y-54735483D01*
X135376329Y-54746686D01*
X124525329Y-54819216D01*
X124458159Y-54799980D01*
X124412052Y-54747483D01*
X124400500Y-54695219D01*
X124400500Y-49824500D01*
X124420185Y-49757461D01*
X124472989Y-49711706D01*
X124524500Y-49700500D01*
X124924676Y-49700500D01*
X124924677Y-49700499D01*
X124997740Y-49685966D01*
X125080601Y-49630601D01*
X125135966Y-49547740D01*
X125150500Y-49474674D01*
X125150500Y-48325326D01*
X125150500Y-48325323D01*
X125150499Y-48325321D01*
X125135967Y-48252264D01*
X125135966Y-48252260D01*
X125080601Y-48169399D01*
X125056209Y-48153101D01*
X125011405Y-48099491D01*
X125002698Y-48030166D01*
X125032852Y-47967138D01*
X125056210Y-47946898D01*
X125080601Y-47930601D01*
X125135966Y-47847740D01*
X125150500Y-47774674D01*
X125150500Y-46625326D01*
X125150500Y-46625323D01*
X125150499Y-46625321D01*
X125135967Y-46552264D01*
X125135966Y-46552260D01*
X125080601Y-46469399D01*
X125056209Y-46453101D01*
X125011405Y-46399491D01*
X125002698Y-46330166D01*
X125032852Y-46267138D01*
X125056210Y-46246898D01*
X125080601Y-46230601D01*
X125135966Y-46147740D01*
X125150500Y-46074674D01*
X125150500Y-44925326D01*
X125150500Y-44925323D01*
X125150499Y-44925321D01*
X125135967Y-44852264D01*
X125135966Y-44852260D01*
X125080601Y-44769399D01*
X124997740Y-44714034D01*
X124997739Y-44714033D01*
X124997735Y-44714032D01*
X124924677Y-44699500D01*
X124924674Y-44699500D01*
X124556186Y-44699500D01*
X124489147Y-44679815D01*
X124443392Y-44627011D01*
X124433448Y-44557853D01*
X124436296Y-44543964D01*
X124455250Y-44400000D01*
X124455250Y-44399999D01*
X124436330Y-44256293D01*
X124436330Y-44256291D01*
X124409937Y-44192572D01*
X124400500Y-44145124D01*
X124400500Y-43154875D01*
X124409939Y-43107422D01*
X124436330Y-43043709D01*
X124455250Y-42900000D01*
X124447441Y-42840685D01*
X124458206Y-42771650D01*
X124504586Y-42719394D01*
X124570380Y-42700500D01*
X124924676Y-42700500D01*
X124924677Y-42700499D01*
X124997740Y-42685966D01*
X125080601Y-42630601D01*
X125135966Y-42547740D01*
X125150500Y-42474674D01*
X125150500Y-41325326D01*
X125150500Y-41325323D01*
X125150499Y-41325321D01*
X125135967Y-41252264D01*
X125135966Y-41252260D01*
X125080601Y-41169399D01*
X125056209Y-41153101D01*
X125011405Y-41099491D01*
X125002698Y-41030166D01*
X125032852Y-40967138D01*
X125056210Y-40946898D01*
X125080601Y-40930601D01*
X125135966Y-40847740D01*
X125150500Y-40774674D01*
X125150500Y-39625326D01*
X125150500Y-39625323D01*
X125150499Y-39625321D01*
X125135967Y-39552264D01*
X125135966Y-39552260D01*
X125080601Y-39469399D01*
X125056209Y-39453101D01*
X125011405Y-39399491D01*
X125002698Y-39330166D01*
X125032852Y-39267138D01*
X125056210Y-39246898D01*
X125080601Y-39230601D01*
X125135966Y-39147740D01*
X125150500Y-39074674D01*
X125150500Y-37925326D01*
X125150500Y-37925323D01*
X125150499Y-37925321D01*
X125135967Y-37852264D01*
X125135966Y-37852260D01*
X125122377Y-37831922D01*
X125080601Y-37769399D01*
X124997740Y-37714034D01*
X124997739Y-37714033D01*
X124997735Y-37714032D01*
X124924677Y-37699500D01*
X124924674Y-37699500D01*
X122875326Y-37699500D01*
X122875323Y-37699500D01*
X122802264Y-37714032D01*
X122802260Y-37714033D01*
X122719399Y-37769399D01*
X122664033Y-37852260D01*
X122664032Y-37852264D01*
X122649500Y-37925321D01*
X122649500Y-39074678D01*
X122664032Y-39147735D01*
X122664033Y-39147739D01*
X122664034Y-39147740D01*
X122719399Y-39230601D01*
X122743790Y-39246898D01*
X122788594Y-39300511D01*
X122797301Y-39369836D01*
X122767146Y-39432863D01*
X122743791Y-39453100D01*
X122719399Y-39469399D01*
X122664033Y-39552260D01*
X122664032Y-39552264D01*
X122649500Y-39625321D01*
X122649500Y-40774678D01*
X122664032Y-40847735D01*
X122664033Y-40847739D01*
X122664034Y-40847740D01*
X122719399Y-40930601D01*
X122743790Y-40946898D01*
X122788594Y-41000511D01*
X122797301Y-41069836D01*
X122767146Y-41132863D01*
X122743791Y-41153100D01*
X122719399Y-41169399D01*
X122664033Y-41252260D01*
X122664032Y-41252264D01*
X122649500Y-41325321D01*
X122649500Y-42474678D01*
X122664032Y-42547735D01*
X122664033Y-42547739D01*
X122664034Y-42547740D01*
X122719399Y-42630601D01*
X122802260Y-42685966D01*
X122802264Y-42685967D01*
X122875321Y-42700499D01*
X122875324Y-42700500D01*
X122875326Y-42700500D01*
X123229620Y-42700500D01*
X123296659Y-42720185D01*
X123342414Y-42772989D01*
X123352559Y-42840686D01*
X123344750Y-42899999D01*
X123344750Y-42900000D01*
X123363670Y-43043708D01*
X123363670Y-43043709D01*
X123390061Y-43107422D01*
X123399500Y-43154875D01*
X123399500Y-44145124D01*
X123390062Y-44192575D01*
X123363669Y-44256293D01*
X123344750Y-44399999D01*
X123344750Y-44400000D01*
X123364731Y-44551766D01*
X123363387Y-44551942D01*
X123361924Y-44613263D01*
X123322758Y-44671124D01*
X123258528Y-44698624D01*
X123243814Y-44699500D01*
X122875323Y-44699500D01*
X122802264Y-44714032D01*
X122802260Y-44714033D01*
X122719399Y-44769399D01*
X122664033Y-44852260D01*
X122664032Y-44852264D01*
X122649500Y-44925321D01*
X122649500Y-46074678D01*
X122664032Y-46147735D01*
X122664033Y-46147739D01*
X122664034Y-46147740D01*
X122719399Y-46230601D01*
X122743790Y-46246898D01*
X122788594Y-46300511D01*
X122797301Y-46369836D01*
X122767146Y-46432863D01*
X122743791Y-46453100D01*
X122719399Y-46469399D01*
X122664033Y-46552260D01*
X122664032Y-46552264D01*
X122649500Y-46625321D01*
X122649500Y-47774678D01*
X122664032Y-47847735D01*
X122664033Y-47847739D01*
X122664034Y-47847740D01*
X122719399Y-47930601D01*
X122743790Y-47946898D01*
X122788594Y-48000511D01*
X122797301Y-48069836D01*
X122767146Y-48132863D01*
X122743791Y-48153100D01*
X122719399Y-48169399D01*
X122664033Y-48252260D01*
X122664032Y-48252264D01*
X122649500Y-48325321D01*
X122649500Y-49474678D01*
X122664032Y-49547735D01*
X122664033Y-49547739D01*
X122664034Y-49547740D01*
X122719399Y-49630601D01*
X122802260Y-49685966D01*
X122802264Y-49685967D01*
X122875321Y-49700499D01*
X122875324Y-49700500D01*
X122875326Y-49700500D01*
X123275500Y-49700500D01*
X123342539Y-49720185D01*
X123388294Y-49772989D01*
X123399500Y-49824500D01*
X123399500Y-54703568D01*
X123379815Y-54770607D01*
X123327011Y-54816362D01*
X123276329Y-54827565D01*
X112658544Y-54898536D01*
X112591374Y-54879300D01*
X112570034Y-54862220D01*
X111901385Y-54193571D01*
X111884750Y-54172928D01*
X111882145Y-54168874D01*
X111882143Y-54168872D01*
X111844614Y-54136353D01*
X111838147Y-54130333D01*
X111828593Y-54120779D01*
X111817785Y-54112688D01*
X111810904Y-54107144D01*
X111773373Y-54074623D01*
X111773372Y-54074622D01*
X111773367Y-54074619D01*
X111768983Y-54072617D01*
X111746194Y-54059096D01*
X111742331Y-54056204D01*
X111742329Y-54056203D01*
X111695790Y-54038845D01*
X111687622Y-54035461D01*
X111642457Y-54014835D01*
X111642455Y-54014834D01*
X111637682Y-54014148D01*
X111612000Y-54007593D01*
X111607486Y-54005909D01*
X111557946Y-54002365D01*
X111549159Y-54001420D01*
X111535799Y-53999500D01*
X111535797Y-53999500D01*
X111522308Y-53999500D01*
X111513461Y-53999184D01*
X111463929Y-53995641D01*
X111463925Y-53995641D01*
X111459215Y-53996666D01*
X111432857Y-53999500D01*
X74258676Y-53999500D01*
X74191637Y-53979815D01*
X74170995Y-53963181D01*
X72036819Y-51829005D01*
X72003334Y-51767682D01*
X72000500Y-51741324D01*
X72000500Y-46258676D01*
X72020185Y-46191637D01*
X72036819Y-46170995D01*
X72170995Y-46036819D01*
X72232318Y-46003334D01*
X72258676Y-46000500D01*
X72732981Y-46000500D01*
X72800020Y-46020185D01*
X72845775Y-46072989D01*
X72854598Y-46100308D01*
X72864032Y-46147736D01*
X72864033Y-46147739D01*
X72864034Y-46147740D01*
X72919399Y-46230601D01*
X72943790Y-46246898D01*
X72988594Y-46300511D01*
X72997301Y-46369836D01*
X72967146Y-46432863D01*
X72943791Y-46453100D01*
X72919399Y-46469399D01*
X72864033Y-46552260D01*
X72864032Y-46552264D01*
X72849500Y-46625321D01*
X72849500Y-47774678D01*
X72864032Y-47847735D01*
X72864033Y-47847739D01*
X72864034Y-47847740D01*
X72919399Y-47930601D01*
X72943790Y-47946898D01*
X72988594Y-48000511D01*
X72997301Y-48069836D01*
X72967146Y-48132863D01*
X72943791Y-48153100D01*
X72919399Y-48169399D01*
X72864033Y-48252260D01*
X72864032Y-48252264D01*
X72849500Y-48325321D01*
X72849500Y-49474678D01*
X72864032Y-49547735D01*
X72864033Y-49547739D01*
X72864034Y-49547740D01*
X72919399Y-49630601D01*
X73002260Y-49685966D01*
X73002264Y-49685967D01*
X73075321Y-49700499D01*
X73075324Y-49700500D01*
X73075326Y-49700500D01*
X75124676Y-49700500D01*
X75124677Y-49700499D01*
X75197740Y-49685966D01*
X75280601Y-49630601D01*
X75335966Y-49547740D01*
X75350499Y-49474678D01*
X77649500Y-49474678D01*
X77664032Y-49547735D01*
X77664033Y-49547739D01*
X77664034Y-49547740D01*
X77719399Y-49630601D01*
X77802260Y-49685966D01*
X77802264Y-49685967D01*
X77875321Y-49700499D01*
X77875324Y-49700500D01*
X77875326Y-49700500D01*
X79924676Y-49700500D01*
X79924677Y-49700499D01*
X79997740Y-49685966D01*
X80080601Y-49630601D01*
X80135966Y-49547740D01*
X80135967Y-49547735D01*
X80145402Y-49500308D01*
X80177788Y-49438397D01*
X80238504Y-49403823D01*
X80267019Y-49400500D01*
X81732981Y-49400500D01*
X81800020Y-49420185D01*
X81845775Y-49472989D01*
X81854598Y-49500308D01*
X81864032Y-49547736D01*
X81864033Y-49547739D01*
X81864034Y-49547740D01*
X81919399Y-49630601D01*
X82002260Y-49685966D01*
X82002264Y-49685967D01*
X82075321Y-49700499D01*
X82075324Y-49700500D01*
X82075326Y-49700500D01*
X84124676Y-49700500D01*
X84124677Y-49700499D01*
X84197740Y-49685966D01*
X84280601Y-49630601D01*
X84335966Y-49547740D01*
X84350499Y-49474678D01*
X86649500Y-49474678D01*
X86664032Y-49547735D01*
X86664033Y-49547739D01*
X86664034Y-49547740D01*
X86719399Y-49630601D01*
X86802260Y-49685966D01*
X86802264Y-49685967D01*
X86875321Y-49700499D01*
X86875324Y-49700500D01*
X86875326Y-49700500D01*
X88924676Y-49700500D01*
X88924677Y-49700499D01*
X88997740Y-49685966D01*
X89080601Y-49630601D01*
X89135966Y-49547740D01*
X89135967Y-49547735D01*
X89145402Y-49500308D01*
X89177788Y-49438397D01*
X89238504Y-49403823D01*
X89267019Y-49400500D01*
X90732981Y-49400500D01*
X90800020Y-49420185D01*
X90845775Y-49472989D01*
X90854598Y-49500308D01*
X90864032Y-49547736D01*
X90864033Y-49547739D01*
X90864034Y-49547740D01*
X90919399Y-49630601D01*
X91002260Y-49685966D01*
X91002264Y-49685967D01*
X91075321Y-49700499D01*
X91075324Y-49700500D01*
X91075326Y-49700500D01*
X93124676Y-49700500D01*
X93124677Y-49700499D01*
X93197740Y-49685966D01*
X93280601Y-49630601D01*
X93335966Y-49547740D01*
X93350499Y-49474678D01*
X95649500Y-49474678D01*
X95664032Y-49547735D01*
X95664033Y-49547739D01*
X95664034Y-49547740D01*
X95719399Y-49630601D01*
X95802260Y-49685966D01*
X95802264Y-49685967D01*
X95875321Y-49700499D01*
X95875324Y-49700500D01*
X95875326Y-49700500D01*
X97924676Y-49700500D01*
X97924677Y-49700499D01*
X97997740Y-49685966D01*
X98080601Y-49630601D01*
X98135966Y-49547740D01*
X98135967Y-49547735D01*
X98145402Y-49500308D01*
X98177788Y-49438397D01*
X98238504Y-49403823D01*
X98267019Y-49400500D01*
X99732981Y-49400500D01*
X99800020Y-49420185D01*
X99845775Y-49472989D01*
X99854598Y-49500308D01*
X99864032Y-49547736D01*
X99864033Y-49547739D01*
X99864034Y-49547740D01*
X99919399Y-49630601D01*
X100002260Y-49685966D01*
X100002264Y-49685967D01*
X100075321Y-49700499D01*
X100075324Y-49700500D01*
X100075326Y-49700500D01*
X102124676Y-49700500D01*
X102124677Y-49700499D01*
X102197740Y-49685966D01*
X102280601Y-49630601D01*
X102335966Y-49547740D01*
X102350499Y-49474678D01*
X104649500Y-49474678D01*
X104664032Y-49547735D01*
X104664033Y-49547739D01*
X104664034Y-49547740D01*
X104719399Y-49630601D01*
X104802260Y-49685966D01*
X104802264Y-49685967D01*
X104875321Y-49700499D01*
X104875324Y-49700500D01*
X104875326Y-49700500D01*
X106924676Y-49700500D01*
X106924677Y-49700499D01*
X106997740Y-49685966D01*
X107080601Y-49630601D01*
X107135966Y-49547740D01*
X107135967Y-49547735D01*
X107145402Y-49500308D01*
X107177788Y-49438397D01*
X107238504Y-49403823D01*
X107267019Y-49400500D01*
X108732981Y-49400500D01*
X108800020Y-49420185D01*
X108845775Y-49472989D01*
X108854598Y-49500308D01*
X108864032Y-49547736D01*
X108864033Y-49547739D01*
X108864034Y-49547740D01*
X108919399Y-49630601D01*
X109002260Y-49685966D01*
X109002264Y-49685967D01*
X109075321Y-49700499D01*
X109075324Y-49700500D01*
X109075326Y-49700500D01*
X111124676Y-49700500D01*
X111124677Y-49700499D01*
X111197740Y-49685966D01*
X111280601Y-49630601D01*
X111335966Y-49547740D01*
X111350499Y-49474678D01*
X113649500Y-49474678D01*
X113664032Y-49547735D01*
X113664033Y-49547739D01*
X113664034Y-49547740D01*
X113719399Y-49630601D01*
X113802260Y-49685966D01*
X113802264Y-49685967D01*
X113875321Y-49700499D01*
X113875324Y-49700500D01*
X113875326Y-49700500D01*
X115924676Y-49700500D01*
X115924677Y-49700499D01*
X115997740Y-49685966D01*
X116080601Y-49630601D01*
X116135966Y-49547740D01*
X116135967Y-49547735D01*
X116145402Y-49500308D01*
X116177788Y-49438397D01*
X116238504Y-49403823D01*
X116267019Y-49400500D01*
X117732981Y-49400500D01*
X117800020Y-49420185D01*
X117845775Y-49472989D01*
X117854598Y-49500308D01*
X117864032Y-49547736D01*
X117864033Y-49547739D01*
X117864034Y-49547740D01*
X117919399Y-49630601D01*
X118002260Y-49685966D01*
X118002264Y-49685967D01*
X118075321Y-49700499D01*
X118075324Y-49700500D01*
X118075326Y-49700500D01*
X120124676Y-49700500D01*
X120124677Y-49700499D01*
X120197740Y-49685966D01*
X120280601Y-49630601D01*
X120335966Y-49547740D01*
X120350500Y-49474674D01*
X120350500Y-48325326D01*
X120350500Y-48325323D01*
X120350499Y-48325321D01*
X120335967Y-48252264D01*
X120335966Y-48252260D01*
X120280601Y-48169399D01*
X120256209Y-48153101D01*
X120211405Y-48099491D01*
X120202698Y-48030166D01*
X120232852Y-47967138D01*
X120256210Y-47946898D01*
X120280601Y-47930601D01*
X120335966Y-47847740D01*
X120350500Y-47774674D01*
X120350500Y-46625326D01*
X120350500Y-46625323D01*
X120350499Y-46625321D01*
X120335967Y-46552264D01*
X120335966Y-46552260D01*
X120280601Y-46469399D01*
X120256209Y-46453101D01*
X120211405Y-46399491D01*
X120202698Y-46330166D01*
X120232852Y-46267138D01*
X120256210Y-46246898D01*
X120280601Y-46230601D01*
X120335966Y-46147740D01*
X120350500Y-46074674D01*
X120350500Y-44925326D01*
X120350500Y-44925323D01*
X120350499Y-44925321D01*
X120335967Y-44852264D01*
X120335966Y-44852260D01*
X120280601Y-44769399D01*
X120197740Y-44714034D01*
X120197739Y-44714033D01*
X120197735Y-44714032D01*
X120124677Y-44699500D01*
X120124674Y-44699500D01*
X118075326Y-44699500D01*
X118075323Y-44699500D01*
X118002264Y-44714032D01*
X118002260Y-44714033D01*
X117919399Y-44769399D01*
X117864033Y-44852260D01*
X117864032Y-44852263D01*
X117854598Y-44899692D01*
X117822212Y-44961603D01*
X117761496Y-44996177D01*
X117732981Y-44999500D01*
X116267019Y-44999500D01*
X116199980Y-44979815D01*
X116154225Y-44927011D01*
X116145402Y-44899692D01*
X116135967Y-44852263D01*
X116135966Y-44852260D01*
X116080601Y-44769399D01*
X115997740Y-44714034D01*
X115997739Y-44714033D01*
X115997735Y-44714032D01*
X115924677Y-44699500D01*
X115924674Y-44699500D01*
X113875326Y-44699500D01*
X113875323Y-44699500D01*
X113802264Y-44714032D01*
X113802260Y-44714033D01*
X113719399Y-44769399D01*
X113664033Y-44852260D01*
X113664032Y-44852264D01*
X113649500Y-44925321D01*
X113649500Y-46074678D01*
X113664032Y-46147735D01*
X113664033Y-46147739D01*
X113664034Y-46147740D01*
X113719399Y-46230601D01*
X113743790Y-46246898D01*
X113788594Y-46300511D01*
X113797301Y-46369836D01*
X113767146Y-46432863D01*
X113743791Y-46453100D01*
X113719399Y-46469399D01*
X113664033Y-46552260D01*
X113664032Y-46552264D01*
X113649500Y-46625321D01*
X113649500Y-47774678D01*
X113664032Y-47847735D01*
X113664033Y-47847739D01*
X113664034Y-47847740D01*
X113719399Y-47930601D01*
X113743790Y-47946898D01*
X113788594Y-48000511D01*
X113797301Y-48069836D01*
X113767146Y-48132863D01*
X113743791Y-48153100D01*
X113719399Y-48169399D01*
X113664033Y-48252260D01*
X113664032Y-48252264D01*
X113649500Y-48325321D01*
X113649500Y-49474678D01*
X111350499Y-49474678D01*
X111350500Y-49474674D01*
X111350500Y-48325326D01*
X111350500Y-48325323D01*
X111350499Y-48325321D01*
X111335967Y-48252264D01*
X111335966Y-48252260D01*
X111280601Y-48169399D01*
X111256209Y-48153101D01*
X111211405Y-48099491D01*
X111202698Y-48030166D01*
X111232852Y-47967138D01*
X111256210Y-47946898D01*
X111280601Y-47930601D01*
X111335966Y-47847740D01*
X111350500Y-47774674D01*
X111350500Y-46625326D01*
X111350500Y-46625323D01*
X111350499Y-46625321D01*
X111335967Y-46552264D01*
X111335966Y-46552260D01*
X111280601Y-46469399D01*
X111256209Y-46453101D01*
X111211405Y-46399491D01*
X111202698Y-46330166D01*
X111232852Y-46267138D01*
X111256210Y-46246898D01*
X111280601Y-46230601D01*
X111335966Y-46147740D01*
X111350500Y-46074674D01*
X111350500Y-44925326D01*
X111350500Y-44925323D01*
X111350499Y-44925321D01*
X111335967Y-44852264D01*
X111335966Y-44852260D01*
X111280601Y-44769399D01*
X111197740Y-44714034D01*
X111197739Y-44714033D01*
X111197735Y-44714032D01*
X111124677Y-44699500D01*
X111124674Y-44699500D01*
X109075326Y-44699500D01*
X109075323Y-44699500D01*
X109002264Y-44714032D01*
X109002260Y-44714033D01*
X108919399Y-44769399D01*
X108864033Y-44852260D01*
X108864032Y-44852263D01*
X108854598Y-44899692D01*
X108822212Y-44961603D01*
X108761496Y-44996177D01*
X108732981Y-44999500D01*
X107267019Y-44999500D01*
X107199980Y-44979815D01*
X107154225Y-44927011D01*
X107145402Y-44899692D01*
X107135967Y-44852263D01*
X107135966Y-44852260D01*
X107080601Y-44769399D01*
X106997740Y-44714034D01*
X106997739Y-44714033D01*
X106997735Y-44714032D01*
X106924677Y-44699500D01*
X106924674Y-44699500D01*
X104875326Y-44699500D01*
X104875323Y-44699500D01*
X104802264Y-44714032D01*
X104802260Y-44714033D01*
X104719399Y-44769399D01*
X104664033Y-44852260D01*
X104664032Y-44852264D01*
X104649500Y-44925321D01*
X104649500Y-46074678D01*
X104664032Y-46147735D01*
X104664033Y-46147739D01*
X104664034Y-46147740D01*
X104719399Y-46230601D01*
X104743790Y-46246898D01*
X104788594Y-46300511D01*
X104797301Y-46369836D01*
X104767146Y-46432863D01*
X104743791Y-46453100D01*
X104719399Y-46469399D01*
X104664033Y-46552260D01*
X104664032Y-46552264D01*
X104649500Y-46625321D01*
X104649500Y-47774678D01*
X104664032Y-47847735D01*
X104664033Y-47847739D01*
X104664034Y-47847740D01*
X104719399Y-47930601D01*
X104743790Y-47946898D01*
X104788594Y-48000511D01*
X104797301Y-48069836D01*
X104767146Y-48132863D01*
X104743791Y-48153100D01*
X104719399Y-48169399D01*
X104664033Y-48252260D01*
X104664032Y-48252264D01*
X104649500Y-48325321D01*
X104649500Y-49474678D01*
X102350499Y-49474678D01*
X102350500Y-49474674D01*
X102350500Y-48325326D01*
X102350500Y-48325323D01*
X102350499Y-48325321D01*
X102335967Y-48252264D01*
X102335966Y-48252260D01*
X102280601Y-48169399D01*
X102256209Y-48153101D01*
X102211405Y-48099491D01*
X102202698Y-48030166D01*
X102232852Y-47967138D01*
X102256210Y-47946898D01*
X102280601Y-47930601D01*
X102335966Y-47847740D01*
X102350500Y-47774674D01*
X102350500Y-46625326D01*
X102350500Y-46625323D01*
X102350499Y-46625321D01*
X102335967Y-46552264D01*
X102335966Y-46552260D01*
X102280601Y-46469399D01*
X102256209Y-46453101D01*
X102211405Y-46399491D01*
X102202698Y-46330166D01*
X102232852Y-46267138D01*
X102256210Y-46246898D01*
X102280601Y-46230601D01*
X102335966Y-46147740D01*
X102350500Y-46074674D01*
X102350500Y-44925326D01*
X102350500Y-44925323D01*
X102350499Y-44925321D01*
X102335967Y-44852264D01*
X102335966Y-44852260D01*
X102280601Y-44769399D01*
X102197740Y-44714034D01*
X102197739Y-44714033D01*
X102197735Y-44714032D01*
X102124677Y-44699500D01*
X102124674Y-44699500D01*
X100075326Y-44699500D01*
X100075323Y-44699500D01*
X100002264Y-44714032D01*
X100002260Y-44714033D01*
X99919399Y-44769399D01*
X99864033Y-44852260D01*
X99864032Y-44852263D01*
X99854598Y-44899692D01*
X99822212Y-44961603D01*
X99761496Y-44996177D01*
X99732981Y-44999500D01*
X98267019Y-44999500D01*
X98199980Y-44979815D01*
X98154225Y-44927011D01*
X98145402Y-44899692D01*
X98135967Y-44852263D01*
X98135966Y-44852260D01*
X98080601Y-44769399D01*
X97997740Y-44714034D01*
X97997739Y-44714033D01*
X97997735Y-44714032D01*
X97924677Y-44699500D01*
X97924674Y-44699500D01*
X95875326Y-44699500D01*
X95875323Y-44699500D01*
X95802264Y-44714032D01*
X95802260Y-44714033D01*
X95719399Y-44769399D01*
X95664033Y-44852260D01*
X95664032Y-44852264D01*
X95649500Y-44925321D01*
X95649500Y-46074678D01*
X95664032Y-46147735D01*
X95664033Y-46147739D01*
X95664034Y-46147740D01*
X95719399Y-46230601D01*
X95743790Y-46246898D01*
X95788594Y-46300511D01*
X95797301Y-46369836D01*
X95767146Y-46432863D01*
X95743791Y-46453100D01*
X95719399Y-46469399D01*
X95664033Y-46552260D01*
X95664032Y-46552264D01*
X95649500Y-46625321D01*
X95649500Y-47774678D01*
X95664032Y-47847735D01*
X95664033Y-47847739D01*
X95664034Y-47847740D01*
X95719399Y-47930601D01*
X95743790Y-47946898D01*
X95788594Y-48000511D01*
X95797301Y-48069836D01*
X95767146Y-48132863D01*
X95743791Y-48153100D01*
X95719399Y-48169399D01*
X95664033Y-48252260D01*
X95664032Y-48252264D01*
X95649500Y-48325321D01*
X95649500Y-49474678D01*
X93350499Y-49474678D01*
X93350500Y-49474674D01*
X93350500Y-48325326D01*
X93350500Y-48325323D01*
X93350499Y-48325321D01*
X93335967Y-48252264D01*
X93335966Y-48252260D01*
X93280601Y-48169399D01*
X93256209Y-48153101D01*
X93211405Y-48099491D01*
X93202698Y-48030166D01*
X93232852Y-47967138D01*
X93256210Y-47946898D01*
X93280601Y-47930601D01*
X93335966Y-47847740D01*
X93350500Y-47774674D01*
X93350500Y-46625326D01*
X93350500Y-46625323D01*
X93350499Y-46625321D01*
X93335967Y-46552264D01*
X93335966Y-46552260D01*
X93280601Y-46469399D01*
X93256209Y-46453101D01*
X93211405Y-46399491D01*
X93202698Y-46330166D01*
X93232852Y-46267138D01*
X93256210Y-46246898D01*
X93280601Y-46230601D01*
X93335966Y-46147740D01*
X93350500Y-46074674D01*
X93350500Y-44925326D01*
X93350500Y-44925323D01*
X93350499Y-44925321D01*
X93335967Y-44852264D01*
X93335966Y-44852260D01*
X93280601Y-44769399D01*
X93197740Y-44714034D01*
X93197739Y-44714033D01*
X93197735Y-44714032D01*
X93124677Y-44699500D01*
X93124674Y-44699500D01*
X91075326Y-44699500D01*
X91075323Y-44699500D01*
X91002264Y-44714032D01*
X91002260Y-44714033D01*
X90919399Y-44769399D01*
X90864033Y-44852260D01*
X90864032Y-44852263D01*
X90854598Y-44899692D01*
X90822212Y-44961603D01*
X90761496Y-44996177D01*
X90732981Y-44999500D01*
X89267019Y-44999500D01*
X89199980Y-44979815D01*
X89154225Y-44927011D01*
X89145402Y-44899692D01*
X89135967Y-44852263D01*
X89135966Y-44852260D01*
X89080601Y-44769399D01*
X88997740Y-44714034D01*
X88997739Y-44714033D01*
X88997735Y-44714032D01*
X88924677Y-44699500D01*
X88924674Y-44699500D01*
X86875326Y-44699500D01*
X86875323Y-44699500D01*
X86802264Y-44714032D01*
X86802260Y-44714033D01*
X86719399Y-44769399D01*
X86664033Y-44852260D01*
X86664032Y-44852264D01*
X86649500Y-44925321D01*
X86649500Y-46074678D01*
X86664032Y-46147735D01*
X86664033Y-46147739D01*
X86664034Y-46147740D01*
X86719399Y-46230601D01*
X86743790Y-46246898D01*
X86788594Y-46300511D01*
X86797301Y-46369836D01*
X86767146Y-46432863D01*
X86743791Y-46453100D01*
X86719399Y-46469399D01*
X86664033Y-46552260D01*
X86664032Y-46552264D01*
X86649500Y-46625321D01*
X86649500Y-47774678D01*
X86664032Y-47847735D01*
X86664033Y-47847739D01*
X86664034Y-47847740D01*
X86719399Y-47930601D01*
X86743790Y-47946898D01*
X86788594Y-48000511D01*
X86797301Y-48069836D01*
X86767146Y-48132863D01*
X86743791Y-48153100D01*
X86719399Y-48169399D01*
X86664033Y-48252260D01*
X86664032Y-48252264D01*
X86649500Y-48325321D01*
X86649500Y-49474678D01*
X84350499Y-49474678D01*
X84350500Y-49474674D01*
X84350500Y-48325326D01*
X84350500Y-48325323D01*
X84350499Y-48325321D01*
X84335967Y-48252264D01*
X84335966Y-48252260D01*
X84280601Y-48169399D01*
X84256209Y-48153101D01*
X84211405Y-48099491D01*
X84202698Y-48030166D01*
X84232852Y-47967138D01*
X84256210Y-47946898D01*
X84280601Y-47930601D01*
X84335966Y-47847740D01*
X84350500Y-47774674D01*
X84350500Y-46625326D01*
X84350500Y-46625323D01*
X84350499Y-46625321D01*
X84335967Y-46552264D01*
X84335966Y-46552260D01*
X84280601Y-46469399D01*
X84256209Y-46453101D01*
X84211405Y-46399491D01*
X84202698Y-46330166D01*
X84232852Y-46267138D01*
X84256210Y-46246898D01*
X84280601Y-46230601D01*
X84335966Y-46147740D01*
X84350500Y-46074674D01*
X84350500Y-44925326D01*
X84350500Y-44925323D01*
X84350499Y-44925321D01*
X84335967Y-44852264D01*
X84335966Y-44852260D01*
X84280601Y-44769399D01*
X84197740Y-44714034D01*
X84197739Y-44714033D01*
X84197735Y-44714032D01*
X84124677Y-44699500D01*
X84124674Y-44699500D01*
X82075326Y-44699500D01*
X82075323Y-44699500D01*
X82002264Y-44714032D01*
X82002260Y-44714033D01*
X81919399Y-44769399D01*
X81864033Y-44852260D01*
X81864032Y-44852263D01*
X81854598Y-44899692D01*
X81822212Y-44961603D01*
X81761496Y-44996177D01*
X81732981Y-44999500D01*
X80267019Y-44999500D01*
X80199980Y-44979815D01*
X80154225Y-44927011D01*
X80145402Y-44899692D01*
X80135967Y-44852263D01*
X80135966Y-44852260D01*
X80080601Y-44769399D01*
X79997740Y-44714034D01*
X79997739Y-44714033D01*
X79997735Y-44714032D01*
X79924677Y-44699500D01*
X79924674Y-44699500D01*
X77875326Y-44699500D01*
X77875323Y-44699500D01*
X77802264Y-44714032D01*
X77802260Y-44714033D01*
X77719399Y-44769399D01*
X77664033Y-44852260D01*
X77664032Y-44852264D01*
X77649500Y-44925321D01*
X77649500Y-46074678D01*
X77664032Y-46147735D01*
X77664033Y-46147739D01*
X77664034Y-46147740D01*
X77719399Y-46230601D01*
X77743790Y-46246898D01*
X77788594Y-46300511D01*
X77797301Y-46369836D01*
X77767146Y-46432863D01*
X77743791Y-46453100D01*
X77719399Y-46469399D01*
X77664033Y-46552260D01*
X77664032Y-46552264D01*
X77649500Y-46625321D01*
X77649500Y-47774678D01*
X77664032Y-47847735D01*
X77664033Y-47847739D01*
X77664034Y-47847740D01*
X77719399Y-47930601D01*
X77743790Y-47946898D01*
X77788594Y-48000511D01*
X77797301Y-48069836D01*
X77767146Y-48132863D01*
X77743791Y-48153100D01*
X77719399Y-48169399D01*
X77664033Y-48252260D01*
X77664032Y-48252264D01*
X77649500Y-48325321D01*
X77649500Y-49474678D01*
X75350499Y-49474678D01*
X75350500Y-49474674D01*
X75350500Y-48325326D01*
X75350500Y-48325323D01*
X75350499Y-48325321D01*
X75335967Y-48252264D01*
X75335966Y-48252260D01*
X75280601Y-48169399D01*
X75256209Y-48153101D01*
X75211405Y-48099491D01*
X75202698Y-48030166D01*
X75232852Y-47967138D01*
X75256210Y-47946898D01*
X75280601Y-47930601D01*
X75335966Y-47847740D01*
X75350500Y-47774674D01*
X75350500Y-46625326D01*
X75350500Y-46625323D01*
X75350499Y-46625321D01*
X75335967Y-46552264D01*
X75335966Y-46552260D01*
X75280601Y-46469399D01*
X75256209Y-46453101D01*
X75211405Y-46399491D01*
X75202698Y-46330166D01*
X75232852Y-46267138D01*
X75256210Y-46246898D01*
X75280601Y-46230601D01*
X75335966Y-46147740D01*
X75350500Y-46074674D01*
X75350500Y-44925326D01*
X75350500Y-44925323D01*
X75350499Y-44925321D01*
X75335967Y-44852264D01*
X75335966Y-44852260D01*
X75280601Y-44769399D01*
X75197740Y-44714034D01*
X75197739Y-44714033D01*
X75197735Y-44714032D01*
X75124677Y-44699500D01*
X75124674Y-44699500D01*
X73075326Y-44699500D01*
X73075323Y-44699500D01*
X73002264Y-44714032D01*
X73002260Y-44714033D01*
X72919399Y-44769399D01*
X72864033Y-44852260D01*
X72864032Y-44852263D01*
X72854598Y-44899692D01*
X72822212Y-44961603D01*
X72761496Y-44996177D01*
X72732981Y-44999500D01*
X72067143Y-44999500D01*
X72040785Y-44996666D01*
X72036074Y-44995641D01*
X72036070Y-44995641D01*
X71986539Y-44999184D01*
X71977692Y-44999500D01*
X71964200Y-44999500D01*
X71958063Y-45000382D01*
X71950840Y-45001420D01*
X71942054Y-45002365D01*
X71892516Y-45005909D01*
X71892513Y-45005910D01*
X71887986Y-45007598D01*
X71862327Y-45014146D01*
X71857550Y-45014833D01*
X71857543Y-45014835D01*
X71812365Y-45035466D01*
X71804191Y-45038851D01*
X71757675Y-45056200D01*
X71757664Y-45056206D01*
X71753799Y-45059100D01*
X71731020Y-45072615D01*
X71726636Y-45074617D01*
X71726625Y-45074624D01*
X71689108Y-45107132D01*
X71682226Y-45112678D01*
X71671403Y-45120780D01*
X71661854Y-45130329D01*
X71655384Y-45136353D01*
X71617861Y-45168867D01*
X71617854Y-45168876D01*
X71615243Y-45172938D01*
X71598616Y-45193568D01*
X71193568Y-45598616D01*
X71172938Y-45615243D01*
X71168876Y-45617854D01*
X71168867Y-45617861D01*
X71136353Y-45655384D01*
X71130329Y-45661854D01*
X71120780Y-45671403D01*
X71112678Y-45682226D01*
X71107132Y-45689108D01*
X71074624Y-45726625D01*
X71074617Y-45726636D01*
X71072615Y-45731020D01*
X71059100Y-45753799D01*
X71056206Y-45757664D01*
X71056200Y-45757675D01*
X71038851Y-45804191D01*
X71035466Y-45812365D01*
X71014835Y-45857543D01*
X71014833Y-45857550D01*
X71014146Y-45862327D01*
X71007598Y-45887986D01*
X71005910Y-45892513D01*
X71005909Y-45892516D01*
X71002365Y-45942054D01*
X71001420Y-45950845D01*
X70999500Y-45964200D01*
X70999500Y-45977690D01*
X70999184Y-45986537D01*
X70995641Y-46036069D01*
X70995641Y-46036073D01*
X70996666Y-46040785D01*
X70999500Y-46067143D01*
X70999500Y-51932858D01*
X70996667Y-51959206D01*
X70995641Y-51963927D01*
X70995641Y-51963929D01*
X70995641Y-51963930D01*
X70999184Y-52013461D01*
X70999500Y-52022308D01*
X70999500Y-52035797D01*
X71001420Y-52049154D01*
X71002365Y-52057946D01*
X71005909Y-52107486D01*
X71007593Y-52112000D01*
X71014148Y-52137682D01*
X71014834Y-52142455D01*
X71035457Y-52187612D01*
X71038845Y-52195790D01*
X71056203Y-52242329D01*
X71059096Y-52246194D01*
X71072617Y-52268983D01*
X71074619Y-52273367D01*
X71074622Y-52273372D01*
X71074623Y-52273373D01*
X71107144Y-52310904D01*
X71112688Y-52317785D01*
X71120779Y-52328593D01*
X71130333Y-52338147D01*
X71136353Y-52344614D01*
X71168872Y-52382143D01*
X71168874Y-52382145D01*
X71172928Y-52384750D01*
X71193571Y-52401385D01*
X73598614Y-54806428D01*
X73615246Y-54827066D01*
X73617854Y-54831125D01*
X73617857Y-54831128D01*
X73655400Y-54863658D01*
X73661863Y-54869677D01*
X73671407Y-54879221D01*
X73671413Y-54879226D01*
X73671416Y-54879228D01*
X73682207Y-54887306D01*
X73689100Y-54892860D01*
X73726627Y-54925377D01*
X73726632Y-54925379D01*
X73734087Y-54930171D01*
X73732276Y-54932988D01*
X73772800Y-54968083D01*
X73792503Y-55035117D01*
X73772837Y-55102162D01*
X73720045Y-55147931D01*
X73669332Y-55159148D01*
X70125329Y-55182837D01*
X70058159Y-55163601D01*
X70012052Y-55111104D01*
X70000500Y-55058840D01*
X70000500Y-40258675D01*
X70020185Y-40191636D01*
X70036819Y-40170994D01*
X71170994Y-39036819D01*
X71232317Y-39003334D01*
X71258675Y-39000500D01*
X72732981Y-39000500D01*
X72800020Y-39020185D01*
X72845775Y-39072989D01*
X72854598Y-39100308D01*
X72864032Y-39147736D01*
X72864033Y-39147739D01*
X72864034Y-39147740D01*
X72919399Y-39230601D01*
X72943790Y-39246898D01*
X72988594Y-39300511D01*
X72997301Y-39369836D01*
X72967146Y-39432863D01*
X72943791Y-39453100D01*
X72919399Y-39469399D01*
X72864033Y-39552260D01*
X72864032Y-39552264D01*
X72849500Y-39625321D01*
X72849500Y-40774678D01*
X72864032Y-40847735D01*
X72864033Y-40847739D01*
X72864034Y-40847740D01*
X72919399Y-40930601D01*
X72943790Y-40946898D01*
X72988594Y-41000511D01*
X72997301Y-41069836D01*
X72967146Y-41132863D01*
X72943791Y-41153100D01*
X72919399Y-41169399D01*
X72864033Y-41252260D01*
X72864032Y-41252264D01*
X72849500Y-41325321D01*
X72849500Y-42474678D01*
X72864032Y-42547735D01*
X72864033Y-42547739D01*
X72864034Y-42547740D01*
X72919399Y-42630601D01*
X73002260Y-42685966D01*
X73002264Y-42685967D01*
X73075321Y-42700499D01*
X73075324Y-42700500D01*
X73075326Y-42700500D01*
X75124676Y-42700500D01*
X75124677Y-42700499D01*
X75197740Y-42685966D01*
X75280601Y-42630601D01*
X75335966Y-42547740D01*
X75350499Y-42474678D01*
X77649500Y-42474678D01*
X77664032Y-42547735D01*
X77664033Y-42547739D01*
X77664034Y-42547740D01*
X77719399Y-42630601D01*
X77802260Y-42685966D01*
X77802264Y-42685967D01*
X77875321Y-42700499D01*
X77875324Y-42700500D01*
X77875326Y-42700500D01*
X79924676Y-42700500D01*
X79924677Y-42700499D01*
X79997740Y-42685966D01*
X80080601Y-42630601D01*
X80135966Y-42547740D01*
X80135967Y-42547735D01*
X80145402Y-42500308D01*
X80177788Y-42438397D01*
X80238504Y-42403823D01*
X80267019Y-42400500D01*
X81732981Y-42400500D01*
X81800020Y-42420185D01*
X81845775Y-42472989D01*
X81854598Y-42500308D01*
X81864032Y-42547736D01*
X81864033Y-42547739D01*
X81864034Y-42547740D01*
X81919399Y-42630601D01*
X82002260Y-42685966D01*
X82002264Y-42685967D01*
X82075321Y-42700499D01*
X82075324Y-42700500D01*
X82075326Y-42700500D01*
X84124676Y-42700500D01*
X84124677Y-42700499D01*
X84197740Y-42685966D01*
X84280601Y-42630601D01*
X84335966Y-42547740D01*
X84350499Y-42474678D01*
X86649500Y-42474678D01*
X86664032Y-42547735D01*
X86664033Y-42547739D01*
X86664034Y-42547740D01*
X86719399Y-42630601D01*
X86802260Y-42685966D01*
X86802264Y-42685967D01*
X86875321Y-42700499D01*
X86875324Y-42700500D01*
X86875326Y-42700500D01*
X88924676Y-42700500D01*
X88924677Y-42700499D01*
X88997740Y-42685966D01*
X89080601Y-42630601D01*
X89135966Y-42547740D01*
X89135967Y-42547735D01*
X89145402Y-42500308D01*
X89177788Y-42438397D01*
X89238504Y-42403823D01*
X89267019Y-42400500D01*
X90732981Y-42400500D01*
X90800020Y-42420185D01*
X90845775Y-42472989D01*
X90854598Y-42500308D01*
X90864032Y-42547736D01*
X90864033Y-42547739D01*
X90864034Y-42547740D01*
X90919399Y-42630601D01*
X91002260Y-42685966D01*
X91002264Y-42685967D01*
X91075321Y-42700499D01*
X91075324Y-42700500D01*
X91075326Y-42700500D01*
X93124676Y-42700500D01*
X93124677Y-42700499D01*
X93197740Y-42685966D01*
X93280601Y-42630601D01*
X93335966Y-42547740D01*
X93350499Y-42474678D01*
X95649500Y-42474678D01*
X95664032Y-42547735D01*
X95664033Y-42547739D01*
X95664034Y-42547740D01*
X95719399Y-42630601D01*
X95802260Y-42685966D01*
X95802264Y-42685967D01*
X95875321Y-42700499D01*
X95875324Y-42700500D01*
X95875326Y-42700500D01*
X97924676Y-42700500D01*
X97924677Y-42700499D01*
X97997740Y-42685966D01*
X98080601Y-42630601D01*
X98135966Y-42547740D01*
X98135967Y-42547735D01*
X98145402Y-42500308D01*
X98177788Y-42438397D01*
X98238504Y-42403823D01*
X98267019Y-42400500D01*
X99732981Y-42400500D01*
X99800020Y-42420185D01*
X99845775Y-42472989D01*
X99854598Y-42500308D01*
X99864032Y-42547736D01*
X99864033Y-42547739D01*
X99864034Y-42547740D01*
X99919399Y-42630601D01*
X100002260Y-42685966D01*
X100002264Y-42685967D01*
X100075321Y-42700499D01*
X100075324Y-42700500D01*
X100075326Y-42700500D01*
X102124676Y-42700500D01*
X102124677Y-42700499D01*
X102197740Y-42685966D01*
X102280601Y-42630601D01*
X102335966Y-42547740D01*
X102350499Y-42474678D01*
X104649500Y-42474678D01*
X104664032Y-42547735D01*
X104664033Y-42547739D01*
X104664034Y-42547740D01*
X104719399Y-42630601D01*
X104802260Y-42685966D01*
X104802264Y-42685967D01*
X104875321Y-42700499D01*
X104875324Y-42700500D01*
X104875326Y-42700500D01*
X106924676Y-42700500D01*
X106924677Y-42700499D01*
X106997740Y-42685966D01*
X107080601Y-42630601D01*
X107135966Y-42547740D01*
X107135967Y-42547735D01*
X107145402Y-42500308D01*
X107177788Y-42438397D01*
X107238504Y-42403823D01*
X107267019Y-42400500D01*
X108732981Y-42400500D01*
X108800020Y-42420185D01*
X108845775Y-42472989D01*
X108854598Y-42500308D01*
X108864032Y-42547736D01*
X108864033Y-42547739D01*
X108864034Y-42547740D01*
X108919399Y-42630601D01*
X109002260Y-42685966D01*
X109002264Y-42685967D01*
X109075321Y-42700499D01*
X109075324Y-42700500D01*
X109075326Y-42700500D01*
X111124676Y-42700500D01*
X111124677Y-42700499D01*
X111197740Y-42685966D01*
X111280601Y-42630601D01*
X111335966Y-42547740D01*
X111350499Y-42474678D01*
X113649500Y-42474678D01*
X113664032Y-42547735D01*
X113664033Y-42547739D01*
X113664034Y-42547740D01*
X113719399Y-42630601D01*
X113802260Y-42685966D01*
X113802264Y-42685967D01*
X113875321Y-42700499D01*
X113875324Y-42700500D01*
X113875326Y-42700500D01*
X115924676Y-42700500D01*
X115924677Y-42700499D01*
X115997740Y-42685966D01*
X116080601Y-42630601D01*
X116135966Y-42547740D01*
X116135967Y-42547735D01*
X116145402Y-42500308D01*
X116177788Y-42438397D01*
X116238504Y-42403823D01*
X116267019Y-42400500D01*
X117732981Y-42400500D01*
X117800020Y-42420185D01*
X117845775Y-42472989D01*
X117854598Y-42500308D01*
X117864032Y-42547736D01*
X117864033Y-42547739D01*
X117864034Y-42547740D01*
X117919399Y-42630601D01*
X118002260Y-42685966D01*
X118002264Y-42685967D01*
X118075321Y-42700499D01*
X118075324Y-42700500D01*
X118075326Y-42700500D01*
X120124676Y-42700500D01*
X120124677Y-42700499D01*
X120197740Y-42685966D01*
X120280601Y-42630601D01*
X120335966Y-42547740D01*
X120350500Y-42474674D01*
X120350500Y-41325326D01*
X120350500Y-41325323D01*
X120350499Y-41325321D01*
X120335967Y-41252264D01*
X120335966Y-41252260D01*
X120280601Y-41169399D01*
X120256209Y-41153101D01*
X120211405Y-41099491D01*
X120202698Y-41030166D01*
X120232852Y-40967138D01*
X120256210Y-40946898D01*
X120280601Y-40930601D01*
X120335966Y-40847740D01*
X120350500Y-40774674D01*
X120350500Y-39625326D01*
X120350500Y-39625323D01*
X120350499Y-39625321D01*
X120335967Y-39552264D01*
X120335966Y-39552260D01*
X120280601Y-39469399D01*
X120256209Y-39453101D01*
X120211405Y-39399491D01*
X120202698Y-39330166D01*
X120232852Y-39267138D01*
X120256210Y-39246898D01*
X120280601Y-39230601D01*
X120335966Y-39147740D01*
X120350500Y-39074674D01*
X120350500Y-37925326D01*
X120350500Y-37925323D01*
X120350499Y-37925321D01*
X120335967Y-37852264D01*
X120335966Y-37852260D01*
X120322377Y-37831922D01*
X120280601Y-37769399D01*
X120197740Y-37714034D01*
X120197739Y-37714033D01*
X120197735Y-37714032D01*
X120124677Y-37699500D01*
X120124674Y-37699500D01*
X118075326Y-37699500D01*
X118075323Y-37699500D01*
X118002264Y-37714032D01*
X118002260Y-37714033D01*
X117919399Y-37769399D01*
X117864033Y-37852260D01*
X117864032Y-37852263D01*
X117854598Y-37899692D01*
X117822212Y-37961603D01*
X117761496Y-37996177D01*
X117732981Y-37999500D01*
X116267019Y-37999500D01*
X116199980Y-37979815D01*
X116154225Y-37927011D01*
X116145402Y-37899692D01*
X116135967Y-37852263D01*
X116135966Y-37852260D01*
X116122377Y-37831922D01*
X116080601Y-37769399D01*
X115997740Y-37714034D01*
X115997739Y-37714033D01*
X115997735Y-37714032D01*
X115924677Y-37699500D01*
X115924674Y-37699500D01*
X113875326Y-37699500D01*
X113875323Y-37699500D01*
X113802264Y-37714032D01*
X113802260Y-37714033D01*
X113719399Y-37769399D01*
X113664033Y-37852260D01*
X113664032Y-37852264D01*
X113649500Y-37925321D01*
X113649500Y-39074678D01*
X113664032Y-39147735D01*
X113664033Y-39147739D01*
X113664034Y-39147740D01*
X113719399Y-39230601D01*
X113743790Y-39246898D01*
X113788594Y-39300511D01*
X113797301Y-39369836D01*
X113767146Y-39432863D01*
X113743791Y-39453100D01*
X113719399Y-39469399D01*
X113664033Y-39552260D01*
X113664032Y-39552264D01*
X113649500Y-39625321D01*
X113649500Y-40774678D01*
X113664032Y-40847735D01*
X113664033Y-40847739D01*
X113664034Y-40847740D01*
X113719399Y-40930601D01*
X113743790Y-40946898D01*
X113788594Y-41000511D01*
X113797301Y-41069836D01*
X113767146Y-41132863D01*
X113743791Y-41153100D01*
X113719399Y-41169399D01*
X113664033Y-41252260D01*
X113664032Y-41252264D01*
X113649500Y-41325321D01*
X113649500Y-42474678D01*
X111350499Y-42474678D01*
X111350500Y-42474674D01*
X111350500Y-41325326D01*
X111350500Y-41325323D01*
X111350499Y-41325321D01*
X111335967Y-41252264D01*
X111335966Y-41252260D01*
X111280601Y-41169399D01*
X111256209Y-41153101D01*
X111211405Y-41099491D01*
X111202698Y-41030166D01*
X111232852Y-40967138D01*
X111256210Y-40946898D01*
X111280601Y-40930601D01*
X111335966Y-40847740D01*
X111350500Y-40774674D01*
X111350500Y-39625326D01*
X111350500Y-39625323D01*
X111350499Y-39625321D01*
X111335967Y-39552264D01*
X111335966Y-39552260D01*
X111280601Y-39469399D01*
X111256209Y-39453101D01*
X111211405Y-39399491D01*
X111202698Y-39330166D01*
X111232852Y-39267138D01*
X111256210Y-39246898D01*
X111280601Y-39230601D01*
X111335966Y-39147740D01*
X111350500Y-39074674D01*
X111350500Y-37925326D01*
X111350500Y-37925323D01*
X111350499Y-37925321D01*
X111335967Y-37852264D01*
X111335966Y-37852260D01*
X111322377Y-37831922D01*
X111280601Y-37769399D01*
X111197740Y-37714034D01*
X111197739Y-37714033D01*
X111197735Y-37714032D01*
X111124677Y-37699500D01*
X111124674Y-37699500D01*
X109075326Y-37699500D01*
X109075323Y-37699500D01*
X109002264Y-37714032D01*
X109002260Y-37714033D01*
X108919399Y-37769399D01*
X108864033Y-37852260D01*
X108864032Y-37852263D01*
X108854598Y-37899692D01*
X108822212Y-37961603D01*
X108761496Y-37996177D01*
X108732981Y-37999500D01*
X107267019Y-37999500D01*
X107199980Y-37979815D01*
X107154225Y-37927011D01*
X107145402Y-37899692D01*
X107135967Y-37852263D01*
X107135966Y-37852260D01*
X107122377Y-37831922D01*
X107080601Y-37769399D01*
X106997740Y-37714034D01*
X106997739Y-37714033D01*
X106997735Y-37714032D01*
X106924677Y-37699500D01*
X106924674Y-37699500D01*
X104875326Y-37699500D01*
X104875323Y-37699500D01*
X104802264Y-37714032D01*
X104802260Y-37714033D01*
X104719399Y-37769399D01*
X104664033Y-37852260D01*
X104664032Y-37852264D01*
X104649500Y-37925321D01*
X104649500Y-39074678D01*
X104664032Y-39147735D01*
X104664033Y-39147739D01*
X104664034Y-39147740D01*
X104719399Y-39230601D01*
X104743790Y-39246898D01*
X104788594Y-39300511D01*
X104797301Y-39369836D01*
X104767146Y-39432863D01*
X104743791Y-39453100D01*
X104719399Y-39469399D01*
X104664033Y-39552260D01*
X104664032Y-39552264D01*
X104649500Y-39625321D01*
X104649500Y-40774678D01*
X104664032Y-40847735D01*
X104664033Y-40847739D01*
X104664034Y-40847740D01*
X104719399Y-40930601D01*
X104743790Y-40946898D01*
X104788594Y-41000511D01*
X104797301Y-41069836D01*
X104767146Y-41132863D01*
X104743791Y-41153100D01*
X104719399Y-41169399D01*
X104664033Y-41252260D01*
X104664032Y-41252264D01*
X104649500Y-41325321D01*
X104649500Y-42474678D01*
X102350499Y-42474678D01*
X102350500Y-42474674D01*
X102350500Y-41325326D01*
X102350500Y-41325323D01*
X102350499Y-41325321D01*
X102335967Y-41252264D01*
X102335966Y-41252260D01*
X102280601Y-41169399D01*
X102256209Y-41153101D01*
X102211405Y-41099491D01*
X102202698Y-41030166D01*
X102232852Y-40967138D01*
X102256210Y-40946898D01*
X102280601Y-40930601D01*
X102335966Y-40847740D01*
X102350500Y-40774674D01*
X102350500Y-39625326D01*
X102350500Y-39625323D01*
X102350499Y-39625321D01*
X102335967Y-39552264D01*
X102335966Y-39552260D01*
X102280601Y-39469399D01*
X102256209Y-39453101D01*
X102211405Y-39399491D01*
X102202698Y-39330166D01*
X102232852Y-39267138D01*
X102256210Y-39246898D01*
X102280601Y-39230601D01*
X102335966Y-39147740D01*
X102350500Y-39074674D01*
X102350500Y-37925326D01*
X102350500Y-37925323D01*
X102350499Y-37925321D01*
X102335967Y-37852264D01*
X102335966Y-37852260D01*
X102322377Y-37831922D01*
X102280601Y-37769399D01*
X102197740Y-37714034D01*
X102197739Y-37714033D01*
X102197735Y-37714032D01*
X102124677Y-37699500D01*
X102124674Y-37699500D01*
X100075326Y-37699500D01*
X100075323Y-37699500D01*
X100002264Y-37714032D01*
X100002260Y-37714033D01*
X99919399Y-37769399D01*
X99864033Y-37852260D01*
X99864032Y-37852263D01*
X99854598Y-37899692D01*
X99822212Y-37961603D01*
X99761496Y-37996177D01*
X99732981Y-37999500D01*
X98267019Y-37999500D01*
X98199980Y-37979815D01*
X98154225Y-37927011D01*
X98145402Y-37899692D01*
X98135967Y-37852263D01*
X98135966Y-37852260D01*
X98122377Y-37831922D01*
X98080601Y-37769399D01*
X97997740Y-37714034D01*
X97997739Y-37714033D01*
X97997735Y-37714032D01*
X97924677Y-37699500D01*
X97924674Y-37699500D01*
X95875326Y-37699500D01*
X95875323Y-37699500D01*
X95802264Y-37714032D01*
X95802260Y-37714033D01*
X95719399Y-37769399D01*
X95664033Y-37852260D01*
X95664032Y-37852264D01*
X95649500Y-37925321D01*
X95649500Y-39074678D01*
X95664032Y-39147735D01*
X95664033Y-39147739D01*
X95664034Y-39147740D01*
X95719399Y-39230601D01*
X95743790Y-39246898D01*
X95788594Y-39300511D01*
X95797301Y-39369836D01*
X95767146Y-39432863D01*
X95743791Y-39453100D01*
X95719399Y-39469399D01*
X95664033Y-39552260D01*
X95664032Y-39552264D01*
X95649500Y-39625321D01*
X95649500Y-40774678D01*
X95664032Y-40847735D01*
X95664033Y-40847739D01*
X95664034Y-40847740D01*
X95719399Y-40930601D01*
X95743790Y-40946898D01*
X95788594Y-41000511D01*
X95797301Y-41069836D01*
X95767146Y-41132863D01*
X95743791Y-41153100D01*
X95719399Y-41169399D01*
X95664033Y-41252260D01*
X95664032Y-41252264D01*
X95649500Y-41325321D01*
X95649500Y-42474678D01*
X93350499Y-42474678D01*
X93350500Y-42474674D01*
X93350500Y-41325326D01*
X93350500Y-41325323D01*
X93350499Y-41325321D01*
X93335967Y-41252264D01*
X93335966Y-41252260D01*
X93280601Y-41169399D01*
X93256209Y-41153101D01*
X93211405Y-41099491D01*
X93202698Y-41030166D01*
X93232852Y-40967138D01*
X93256210Y-40946898D01*
X93280601Y-40930601D01*
X93335966Y-40847740D01*
X93350500Y-40774674D01*
X93350500Y-39625326D01*
X93350500Y-39625323D01*
X93350499Y-39625321D01*
X93335967Y-39552264D01*
X93335966Y-39552260D01*
X93280601Y-39469399D01*
X93256209Y-39453101D01*
X93211405Y-39399491D01*
X93202698Y-39330166D01*
X93232852Y-39267138D01*
X93256210Y-39246898D01*
X93280601Y-39230601D01*
X93335966Y-39147740D01*
X93350500Y-39074674D01*
X93350500Y-37925326D01*
X93350500Y-37925323D01*
X93350499Y-37925321D01*
X93335967Y-37852264D01*
X93335966Y-37852260D01*
X93322377Y-37831922D01*
X93280601Y-37769399D01*
X93197740Y-37714034D01*
X93197739Y-37714033D01*
X93197735Y-37714032D01*
X93124677Y-37699500D01*
X93124674Y-37699500D01*
X91075326Y-37699500D01*
X91075323Y-37699500D01*
X91002264Y-37714032D01*
X91002260Y-37714033D01*
X90919399Y-37769399D01*
X90864033Y-37852260D01*
X90864032Y-37852263D01*
X90854598Y-37899692D01*
X90822212Y-37961603D01*
X90761496Y-37996177D01*
X90732981Y-37999500D01*
X89267019Y-37999500D01*
X89199980Y-37979815D01*
X89154225Y-37927011D01*
X89145402Y-37899692D01*
X89135967Y-37852263D01*
X89135966Y-37852260D01*
X89122377Y-37831922D01*
X89080601Y-37769399D01*
X88997740Y-37714034D01*
X88997739Y-37714033D01*
X88997735Y-37714032D01*
X88924677Y-37699500D01*
X88924674Y-37699500D01*
X86875326Y-37699500D01*
X86875323Y-37699500D01*
X86802264Y-37714032D01*
X86802260Y-37714033D01*
X86719399Y-37769399D01*
X86664033Y-37852260D01*
X86664032Y-37852264D01*
X86649500Y-37925321D01*
X86649500Y-39074678D01*
X86664032Y-39147735D01*
X86664033Y-39147739D01*
X86664034Y-39147740D01*
X86719399Y-39230601D01*
X86743790Y-39246898D01*
X86788594Y-39300511D01*
X86797301Y-39369836D01*
X86767146Y-39432863D01*
X86743791Y-39453100D01*
X86719399Y-39469399D01*
X86664033Y-39552260D01*
X86664032Y-39552264D01*
X86649500Y-39625321D01*
X86649500Y-40774678D01*
X86664032Y-40847735D01*
X86664033Y-40847739D01*
X86664034Y-40847740D01*
X86719399Y-40930601D01*
X86743790Y-40946898D01*
X86788594Y-41000511D01*
X86797301Y-41069836D01*
X86767146Y-41132863D01*
X86743791Y-41153100D01*
X86719399Y-41169399D01*
X86664033Y-41252260D01*
X86664032Y-41252264D01*
X86649500Y-41325321D01*
X86649500Y-42474678D01*
X84350499Y-42474678D01*
X84350500Y-42474674D01*
X84350500Y-41325326D01*
X84350500Y-41325323D01*
X84350499Y-41325321D01*
X84335967Y-41252264D01*
X84335966Y-41252260D01*
X84280601Y-41169399D01*
X84256209Y-41153101D01*
X84211405Y-41099491D01*
X84202698Y-41030166D01*
X84232852Y-40967138D01*
X84256210Y-40946898D01*
X84280601Y-40930601D01*
X84335966Y-40847740D01*
X84350500Y-40774674D01*
X84350500Y-39625326D01*
X84350500Y-39625323D01*
X84350499Y-39625321D01*
X84335967Y-39552264D01*
X84335966Y-39552260D01*
X84280601Y-39469399D01*
X84256209Y-39453101D01*
X84211405Y-39399491D01*
X84202698Y-39330166D01*
X84232852Y-39267138D01*
X84256210Y-39246898D01*
X84280601Y-39230601D01*
X84335966Y-39147740D01*
X84350500Y-39074674D01*
X84350500Y-37925326D01*
X84350500Y-37925323D01*
X84350499Y-37925321D01*
X84335967Y-37852264D01*
X84335966Y-37852260D01*
X84322377Y-37831922D01*
X84280601Y-37769399D01*
X84197740Y-37714034D01*
X84197739Y-37714033D01*
X84197735Y-37714032D01*
X84124677Y-37699500D01*
X84124674Y-37699500D01*
X82075326Y-37699500D01*
X82075323Y-37699500D01*
X82002264Y-37714032D01*
X82002260Y-37714033D01*
X81919399Y-37769399D01*
X81864033Y-37852260D01*
X81864032Y-37852263D01*
X81854598Y-37899692D01*
X81822212Y-37961603D01*
X81761496Y-37996177D01*
X81732981Y-37999500D01*
X80267019Y-37999500D01*
X80199980Y-37979815D01*
X80154225Y-37927011D01*
X80145402Y-37899692D01*
X80135967Y-37852263D01*
X80135966Y-37852260D01*
X80122377Y-37831922D01*
X80080601Y-37769399D01*
X79997740Y-37714034D01*
X79997739Y-37714033D01*
X79997735Y-37714032D01*
X79924677Y-37699500D01*
X79924674Y-37699500D01*
X77875326Y-37699500D01*
X77875323Y-37699500D01*
X77802264Y-37714032D01*
X77802260Y-37714033D01*
X77719399Y-37769399D01*
X77664033Y-37852260D01*
X77664032Y-37852264D01*
X77649500Y-37925321D01*
X77649500Y-39074678D01*
X77664032Y-39147735D01*
X77664033Y-39147739D01*
X77664034Y-39147740D01*
X77719399Y-39230601D01*
X77743790Y-39246898D01*
X77788594Y-39300511D01*
X77797301Y-39369836D01*
X77767146Y-39432863D01*
X77743791Y-39453100D01*
X77719399Y-39469399D01*
X77664033Y-39552260D01*
X77664032Y-39552264D01*
X77649500Y-39625321D01*
X77649500Y-40774678D01*
X77664032Y-40847735D01*
X77664033Y-40847739D01*
X77664034Y-40847740D01*
X77719399Y-40930601D01*
X77743790Y-40946898D01*
X77788594Y-41000511D01*
X77797301Y-41069836D01*
X77767146Y-41132863D01*
X77743791Y-41153100D01*
X77719399Y-41169399D01*
X77664033Y-41252260D01*
X77664032Y-41252264D01*
X77649500Y-41325321D01*
X77649500Y-42474678D01*
X75350499Y-42474678D01*
X75350500Y-42474674D01*
X75350500Y-41325326D01*
X75350500Y-41325323D01*
X75350499Y-41325321D01*
X75335967Y-41252264D01*
X75335966Y-41252260D01*
X75280601Y-41169399D01*
X75256209Y-41153101D01*
X75211405Y-41099491D01*
X75202698Y-41030166D01*
X75232852Y-40967138D01*
X75256210Y-40946898D01*
X75280601Y-40930601D01*
X75335966Y-40847740D01*
X75350500Y-40774674D01*
X75350500Y-39625326D01*
X75350500Y-39625323D01*
X75350499Y-39625321D01*
X75335967Y-39552264D01*
X75335966Y-39552260D01*
X75280601Y-39469399D01*
X75256209Y-39453101D01*
X75211405Y-39399491D01*
X75202698Y-39330166D01*
X75232852Y-39267138D01*
X75256210Y-39246898D01*
X75280601Y-39230601D01*
X75335966Y-39147740D01*
X75350500Y-39074674D01*
X75350500Y-37925326D01*
X75350500Y-37925323D01*
X75350499Y-37925321D01*
X75335967Y-37852264D01*
X75335966Y-37852260D01*
X75322377Y-37831922D01*
X75280601Y-37769399D01*
X75197740Y-37714034D01*
X75197739Y-37714033D01*
X75197735Y-37714032D01*
X75124677Y-37699500D01*
X75124674Y-37699500D01*
X73075326Y-37699500D01*
X73075323Y-37699500D01*
X73002264Y-37714032D01*
X73002260Y-37714033D01*
X72919399Y-37769399D01*
X72864033Y-37852260D01*
X72864032Y-37852263D01*
X72854598Y-37899692D01*
X72822212Y-37961603D01*
X72761496Y-37996177D01*
X72732981Y-37999500D01*
X71067143Y-37999500D01*
X71040785Y-37996666D01*
X71036074Y-37995641D01*
X71036070Y-37995641D01*
X70986539Y-37999184D01*
X70977692Y-37999500D01*
X70964200Y-37999500D01*
X70958063Y-38000382D01*
X70950840Y-38001420D01*
X70942054Y-38002365D01*
X70892516Y-38005909D01*
X70892513Y-38005910D01*
X70887986Y-38007598D01*
X70862327Y-38014146D01*
X70857550Y-38014833D01*
X70857543Y-38014835D01*
X70812365Y-38035466D01*
X70804191Y-38038851D01*
X70757675Y-38056200D01*
X70757668Y-38056204D01*
X70753800Y-38059100D01*
X70731019Y-38072616D01*
X70726627Y-38074623D01*
X70690733Y-38105724D01*
X70689098Y-38107141D01*
X70682219Y-38112684D01*
X70671409Y-38120777D01*
X70661860Y-38130325D01*
X70655395Y-38136343D01*
X70617859Y-38168870D01*
X70617856Y-38168873D01*
X70615245Y-38172936D01*
X70598615Y-38193570D01*
X69193568Y-39598616D01*
X69172938Y-39615243D01*
X69168876Y-39617854D01*
X69168867Y-39617861D01*
X69136353Y-39655384D01*
X69130329Y-39661854D01*
X69120780Y-39671403D01*
X69112678Y-39682226D01*
X69107132Y-39689108D01*
X69074624Y-39726625D01*
X69074617Y-39726636D01*
X69072615Y-39731020D01*
X69059100Y-39753799D01*
X69056206Y-39757664D01*
X69056200Y-39757675D01*
X69038851Y-39804191D01*
X69035466Y-39812365D01*
X69014835Y-39857543D01*
X69014833Y-39857550D01*
X69014146Y-39862327D01*
X69007598Y-39887986D01*
X69005910Y-39892513D01*
X69005909Y-39892516D01*
X69002365Y-39942054D01*
X69001420Y-39950845D01*
X68999500Y-39964200D01*
X68999500Y-39977690D01*
X68999184Y-39986537D01*
X68995641Y-40036069D01*
X68995641Y-40036073D01*
X68996666Y-40040785D01*
X68999500Y-40067143D01*
X68999500Y-55067189D01*
X68979815Y-55134228D01*
X68927011Y-55179983D01*
X68876329Y-55191186D01*
X62625329Y-55232969D01*
X62558159Y-55213733D01*
X62512052Y-55161236D01*
X62500500Y-55108972D01*
X62500500Y-40162706D01*
X62500618Y-40157297D01*
X62505705Y-40040785D01*
X62517386Y-39773226D01*
X62518326Y-39762495D01*
X62568152Y-39384025D01*
X62570025Y-39373405D01*
X62652649Y-39000709D01*
X62655440Y-38990295D01*
X62770230Y-38626227D01*
X62773917Y-38616095D01*
X62920003Y-38263412D01*
X62924561Y-38253638D01*
X63100822Y-37915045D01*
X63106217Y-37905700D01*
X63311325Y-37583744D01*
X63317515Y-37574905D01*
X63549896Y-37272060D01*
X63556834Y-37263791D01*
X63814726Y-36982352D01*
X63822352Y-36974726D01*
X64103791Y-36716834D01*
X64112060Y-36709896D01*
X64414905Y-36477515D01*
X64423744Y-36471325D01*
X64745700Y-36266217D01*
X64755045Y-36260822D01*
X65093638Y-36084561D01*
X65103412Y-36080003D01*
X65456095Y-35933917D01*
X65466227Y-35930230D01*
X65830295Y-35815440D01*
X65840709Y-35812649D01*
X66213405Y-35730025D01*
X66224025Y-35728152D01*
X66602495Y-35678326D01*
X66613226Y-35677386D01*
X66997297Y-35660617D01*
X67002706Y-35660500D01*
X67243230Y-35660500D01*
X67243232Y-35660500D01*
X67243235Y-35660499D01*
X67243251Y-35660499D01*
X67655451Y-35629608D01*
X67728334Y-35624147D01*
X68209364Y-35551643D01*
X68683631Y-35443395D01*
X68683636Y-35443393D01*
X68683638Y-35443393D01*
X68859128Y-35389261D01*
X69148481Y-35300007D01*
X69148490Y-35300003D01*
X69148498Y-35300001D01*
X69495749Y-35163714D01*
X69601317Y-35122282D01*
X70039605Y-34911214D01*
X70460895Y-34667982D01*
X70862829Y-34393948D01*
X71243162Y-34090643D01*
X71599764Y-33759764D01*
X71930643Y-33403162D01*
X72233948Y-33022829D01*
X72507982Y-32620895D01*
X72751214Y-32199605D01*
X72962282Y-31761317D01*
X73003714Y-31655749D01*
X73140001Y-31308498D01*
X73140003Y-31308490D01*
X73140007Y-31308481D01*
X73283395Y-30843631D01*
X73391643Y-30369364D01*
X73464147Y-29888334D01*
X73469608Y-29815451D01*
X73500499Y-29403251D01*
X73500500Y-29403230D01*
X73500500Y-29162375D01*
X73500591Y-29157626D01*
X73510768Y-28892119D01*
X73519389Y-28667197D01*
X73520113Y-28657771D01*
X73576128Y-28172555D01*
X73577571Y-28163213D01*
X73670567Y-27683702D01*
X73672722Y-27674496D01*
X73802146Y-27203528D01*
X73804999Y-27194513D01*
X73970097Y-26734833D01*
X73973637Y-26726049D01*
X74173430Y-26280373D01*
X74177627Y-26271895D01*
X74410972Y-25842780D01*
X74415802Y-25834656D01*
X74681292Y-25424693D01*
X74686736Y-25416952D01*
X74982836Y-25028506D01*
X74988850Y-25021213D01*
X75313810Y-24656579D01*
X75320382Y-24649750D01*
X75672311Y-24311053D01*
X75679366Y-24304766D01*
X76056193Y-23993999D01*
X76063717Y-23988264D01*
X76463195Y-23707279D01*
X76471159Y-23702120D01*
X76890998Y-23452524D01*
X76899291Y-23448014D01*
X77337022Y-23231280D01*
X77345649Y-23227413D01*
X77798674Y-23044827D01*
X77807571Y-23041631D01*
X78273233Y-22894264D01*
X78282367Y-22891754D01*
X78757933Y-22780467D01*
X78767228Y-22778664D01*
X79249941Y-22704104D01*
X79259341Y-22703020D01*
X79746310Y-22665633D01*
X79755802Y-22665269D01*
X80244198Y-22665269D01*
X80253690Y-22665633D01*
G37*
%TD.AperFunction*%
%TD*%
%TA.AperFunction,Conductor*%
%TO.N,GND*%
G36*
X135441855Y-57689888D02*
G01*
X135487955Y-57742391D01*
X135499500Y-57794640D01*
X135499500Y-86157293D01*
X135499382Y-86162702D01*
X135482614Y-86546750D01*
X135481671Y-86557526D01*
X135431849Y-86935957D01*
X135429971Y-86946610D01*
X135347354Y-87319272D01*
X135344554Y-87329721D01*
X135229775Y-87693755D01*
X135226075Y-87703921D01*
X135080002Y-88056572D01*
X135075430Y-88066376D01*
X134899183Y-88404942D01*
X134893775Y-88414310D01*
X134688681Y-88736244D01*
X134682476Y-88745105D01*
X134450110Y-89047930D01*
X134443156Y-89056217D01*
X134185284Y-89337635D01*
X134177635Y-89345284D01*
X133896217Y-89603156D01*
X133887930Y-89610110D01*
X133585105Y-89842476D01*
X133576244Y-89848681D01*
X133254310Y-90053775D01*
X133244942Y-90059183D01*
X132906376Y-90235430D01*
X132896572Y-90240002D01*
X132543921Y-90386075D01*
X132533755Y-90389775D01*
X132169721Y-90504554D01*
X132159272Y-90507354D01*
X131786610Y-90589971D01*
X131775957Y-90591849D01*
X131397526Y-90641671D01*
X131386750Y-90642614D01*
X131002703Y-90659382D01*
X130997294Y-90659500D01*
X67002706Y-90659500D01*
X66997297Y-90659382D01*
X66613249Y-90642614D01*
X66602473Y-90641671D01*
X66224042Y-90591849D01*
X66213389Y-90589971D01*
X65840727Y-90507354D01*
X65830278Y-90504554D01*
X65466244Y-90389775D01*
X65456078Y-90386075D01*
X65103427Y-90240002D01*
X65093623Y-90235430D01*
X64755057Y-90059183D01*
X64745689Y-90053775D01*
X64423755Y-89848681D01*
X64414894Y-89842476D01*
X64112069Y-89610110D01*
X64103782Y-89603156D01*
X63822364Y-89345284D01*
X63814715Y-89337635D01*
X63556843Y-89056217D01*
X63549889Y-89047930D01*
X63317523Y-88745105D01*
X63311318Y-88736244D01*
X63106224Y-88414310D01*
X63100816Y-88404942D01*
X62924569Y-88066376D01*
X62919997Y-88056572D01*
X62773924Y-87703921D01*
X62770224Y-87693755D01*
X62655442Y-87329710D01*
X62652648Y-87319284D01*
X62570025Y-86946597D01*
X62568152Y-86935971D01*
X62518326Y-86557506D01*
X62517386Y-86546771D01*
X62500618Y-86162702D01*
X62500500Y-86157293D01*
X62500500Y-79525000D01*
X68744750Y-79525000D01*
X68756819Y-79616675D01*
X68763670Y-79668708D01*
X68763671Y-79668712D01*
X68819138Y-79802623D01*
X68819139Y-79802625D01*
X68873875Y-79873957D01*
X68899070Y-79939125D01*
X68899500Y-79949444D01*
X68899500Y-81163429D01*
X68899501Y-81163439D01*
X68906346Y-81184507D01*
X68910887Y-81203418D01*
X68914354Y-81225304D01*
X68914355Y-81225307D01*
X68924412Y-81245045D01*
X68931857Y-81263018D01*
X68938704Y-81284090D01*
X68951726Y-81302014D01*
X68961890Y-81318600D01*
X68971949Y-81338340D01*
X68971950Y-81338342D01*
X68991390Y-81357782D01*
X68991419Y-81357813D01*
X73671950Y-86038342D01*
X74971950Y-87338342D01*
X75061658Y-87428050D01*
X75081395Y-87438106D01*
X75097981Y-87448269D01*
X75115910Y-87461296D01*
X75115912Y-87461296D01*
X75115913Y-87461297D01*
X75136974Y-87468140D01*
X75154953Y-87475586D01*
X75174696Y-87485646D01*
X75196585Y-87489112D01*
X75215501Y-87493653D01*
X75236567Y-87500499D01*
X75263346Y-87500499D01*
X75263370Y-87500500D01*
X75268481Y-87500500D01*
X86963431Y-87500500D01*
X86963433Y-87500500D01*
X86984501Y-87493654D01*
X87003417Y-87489112D01*
X87025304Y-87485646D01*
X87045044Y-87475586D01*
X87063011Y-87468144D01*
X87084090Y-87461296D01*
X87102026Y-87448263D01*
X87118588Y-87438114D01*
X87138342Y-87428050D01*
X87153834Y-87412557D01*
X87153841Y-87412552D01*
X87276641Y-87289752D01*
X89183069Y-85383321D01*
X89244390Y-85349838D01*
X89254543Y-85348068D01*
X89343709Y-85336330D01*
X89477625Y-85280861D01*
X89592621Y-85192621D01*
X89680861Y-85077625D01*
X89736330Y-84943709D01*
X89755250Y-84800000D01*
X89736330Y-84656291D01*
X89686641Y-84536329D01*
X89680862Y-84522377D01*
X89680861Y-84522376D01*
X89680861Y-84522375D01*
X89592621Y-84407379D01*
X89477625Y-84319139D01*
X89477624Y-84319138D01*
X89477622Y-84319137D01*
X89343712Y-84263671D01*
X89343710Y-84263670D01*
X89343709Y-84263670D01*
X89271854Y-84254210D01*
X89200001Y-84244750D01*
X89199999Y-84244750D01*
X89056291Y-84263670D01*
X89056287Y-84263671D01*
X88922377Y-84319137D01*
X88807379Y-84407379D01*
X88719137Y-84522377D01*
X88663671Y-84656287D01*
X88663670Y-84656291D01*
X88651933Y-84745437D01*
X88623666Y-84809333D01*
X88616675Y-84816931D01*
X86770426Y-86663181D01*
X86709103Y-86696666D01*
X86682745Y-86699500D01*
X75517254Y-86699500D01*
X75450215Y-86679815D01*
X75429573Y-86663181D01*
X70966393Y-82200000D01*
X92944750Y-82200000D01*
X92963670Y-82343708D01*
X92963671Y-82343712D01*
X93019137Y-82477622D01*
X93019138Y-82477624D01*
X93019139Y-82477625D01*
X93107379Y-82592621D01*
X93222375Y-82680861D01*
X93356291Y-82736330D01*
X93483280Y-82753048D01*
X93499999Y-82755250D01*
X93500000Y-82755250D01*
X93500001Y-82755250D01*
X93514977Y-82753278D01*
X93643709Y-82736330D01*
X93777625Y-82680861D01*
X93824280Y-82645060D01*
X93848960Y-82626124D01*
X93914129Y-82600930D01*
X93924446Y-82600500D01*
X96082745Y-82600500D01*
X96149784Y-82620185D01*
X96170426Y-82636819D01*
X97816675Y-84283067D01*
X97850160Y-84344390D01*
X97851933Y-84354562D01*
X97863670Y-84443707D01*
X97863671Y-84443712D01*
X97919137Y-84577622D01*
X97919138Y-84577624D01*
X97919139Y-84577625D01*
X98007379Y-84692621D01*
X98122375Y-84780861D01*
X98122376Y-84780861D01*
X98122377Y-84780862D01*
X98167013Y-84799350D01*
X98256291Y-84836330D01*
X98345435Y-84848065D01*
X98409330Y-84876331D01*
X98416930Y-84883323D01*
X99571950Y-86038342D01*
X99661658Y-86128050D01*
X99681395Y-86138106D01*
X99697981Y-86148269D01*
X99715910Y-86161296D01*
X99715912Y-86161296D01*
X99715913Y-86161297D01*
X99736974Y-86168140D01*
X99754953Y-86175586D01*
X99774696Y-86185646D01*
X99796585Y-86189112D01*
X99815501Y-86193653D01*
X99836567Y-86200499D01*
X99863346Y-86200499D01*
X99863370Y-86200500D01*
X99868481Y-86200500D01*
X101775554Y-86200500D01*
X101842593Y-86220185D01*
X101851040Y-86226124D01*
X101900582Y-86264139D01*
X101922375Y-86280861D01*
X102056291Y-86336330D01*
X102183280Y-86353048D01*
X102199999Y-86355250D01*
X102200000Y-86355250D01*
X102200001Y-86355250D01*
X102214977Y-86353278D01*
X102343709Y-86336330D01*
X102477625Y-86280861D01*
X102524280Y-86245060D01*
X102548960Y-86226124D01*
X102614129Y-86200930D01*
X102624446Y-86200500D01*
X113088431Y-86200500D01*
X113088433Y-86200500D01*
X113109501Y-86193654D01*
X113128417Y-86189112D01*
X113150304Y-86185646D01*
X113170044Y-86175586D01*
X113188011Y-86168144D01*
X113209090Y-86161296D01*
X113227026Y-86148263D01*
X113243588Y-86138114D01*
X113263342Y-86128050D01*
X113278834Y-86112557D01*
X113278841Y-86112552D01*
X114198773Y-85192620D01*
X116983070Y-82408321D01*
X117044391Y-82374838D01*
X117054545Y-82373068D01*
X117143709Y-82361330D01*
X117277625Y-82305861D01*
X117392621Y-82217621D01*
X117480861Y-82102625D01*
X117536330Y-81968709D01*
X117555250Y-81825000D01*
X117553560Y-81812167D01*
X117548066Y-81770436D01*
X117536330Y-81681291D01*
X117480861Y-81547375D01*
X117392621Y-81432379D01*
X117277625Y-81344139D01*
X117277624Y-81344138D01*
X117277622Y-81344137D01*
X117143712Y-81288671D01*
X117143710Y-81288670D01*
X117143709Y-81288670D01*
X117071854Y-81279210D01*
X117000001Y-81269750D01*
X116999999Y-81269750D01*
X116856291Y-81288670D01*
X116856287Y-81288671D01*
X116722377Y-81344137D01*
X116607379Y-81432379D01*
X116519137Y-81547377D01*
X116463670Y-81681289D01*
X116451933Y-81770436D01*
X116423666Y-81834332D01*
X116416675Y-81841930D01*
X112895426Y-85363181D01*
X112834103Y-85396666D01*
X112807745Y-85399500D01*
X102624446Y-85399500D01*
X102557407Y-85379815D01*
X102548960Y-85373876D01*
X102477625Y-85319139D01*
X102477623Y-85319138D01*
X102343712Y-85263671D01*
X102343710Y-85263670D01*
X102343709Y-85263670D01*
X102271854Y-85254210D01*
X102200001Y-85244750D01*
X102199999Y-85244750D01*
X102056291Y-85263670D01*
X102056287Y-85263671D01*
X101922376Y-85319138D01*
X101922374Y-85319139D01*
X101851040Y-85373876D01*
X101785871Y-85399070D01*
X101775554Y-85399500D01*
X100117254Y-85399500D01*
X100050215Y-85379815D01*
X100029573Y-85363181D01*
X98983323Y-84316930D01*
X98949838Y-84255607D01*
X98948067Y-84245448D01*
X98936330Y-84156291D01*
X98880861Y-84022375D01*
X98792621Y-83907379D01*
X98677625Y-83819139D01*
X98677624Y-83819138D01*
X98677622Y-83819137D01*
X98543712Y-83763671D01*
X98543710Y-83763670D01*
X98543709Y-83763670D01*
X98490363Y-83756646D01*
X98454562Y-83751933D01*
X98390665Y-83723666D01*
X98383067Y-83716675D01*
X96557813Y-81891419D01*
X96557782Y-81891390D01*
X96538342Y-81871950D01*
X96538340Y-81871949D01*
X96518600Y-81861890D01*
X96502014Y-81851726D01*
X96484090Y-81838704D01*
X96484091Y-81838704D01*
X96463018Y-81831857D01*
X96445045Y-81824412D01*
X96425307Y-81814355D01*
X96425304Y-81814354D01*
X96403418Y-81810887D01*
X96384507Y-81806346D01*
X96363439Y-81799501D01*
X96363434Y-81799500D01*
X96363433Y-81799500D01*
X96363429Y-81799500D01*
X93924446Y-81799500D01*
X93857407Y-81779815D01*
X93848960Y-81773876D01*
X93777625Y-81719139D01*
X93777623Y-81719138D01*
X93643712Y-81663671D01*
X93643710Y-81663670D01*
X93643709Y-81663670D01*
X93571854Y-81654210D01*
X93500001Y-81644750D01*
X93499999Y-81644750D01*
X93356291Y-81663670D01*
X93356287Y-81663671D01*
X93222377Y-81719137D01*
X93107379Y-81807379D01*
X93019137Y-81922377D01*
X92963671Y-82056287D01*
X92963670Y-82056291D01*
X92944750Y-82199999D01*
X92944750Y-82200000D01*
X70966393Y-82200000D01*
X69736819Y-80970426D01*
X69703334Y-80909103D01*
X69700500Y-80882745D01*
X69700500Y-79949444D01*
X69720185Y-79882405D01*
X69726125Y-79873957D01*
X69780861Y-79802625D01*
X69836330Y-79668709D01*
X69855250Y-79525000D01*
X69836330Y-79381291D01*
X69780861Y-79247375D01*
X69692621Y-79132379D01*
X69577625Y-79044139D01*
X69577624Y-79044138D01*
X69577622Y-79044137D01*
X69443712Y-78988671D01*
X69443710Y-78988670D01*
X69443709Y-78988670D01*
X69371854Y-78979210D01*
X69300001Y-78969750D01*
X69299999Y-78969750D01*
X69156291Y-78988670D01*
X69156287Y-78988671D01*
X69022377Y-79044137D01*
X68907379Y-79132379D01*
X68819137Y-79247377D01*
X68763671Y-79381287D01*
X68763670Y-79381291D01*
X68744750Y-79525000D01*
X62500500Y-79525000D01*
X62500500Y-58271106D01*
X62520185Y-58204067D01*
X62572989Y-58158312D01*
X62623686Y-58147109D01*
X82755275Y-58015262D01*
X82822438Y-58034506D01*
X82843761Y-58051574D01*
X82996254Y-58204067D01*
X83617653Y-58825466D01*
X83617682Y-58825497D01*
X86098614Y-61306428D01*
X86115246Y-61327066D01*
X86117854Y-61331125D01*
X86117857Y-61331128D01*
X86155400Y-61363658D01*
X86161863Y-61369677D01*
X86171407Y-61379221D01*
X86171413Y-61379226D01*
X86171416Y-61379228D01*
X86182207Y-61387306D01*
X86189100Y-61392860D01*
X86226627Y-61425377D01*
X86231010Y-61427379D01*
X86253807Y-61440905D01*
X86257669Y-61443796D01*
X86304212Y-61461155D01*
X86312360Y-61464530D01*
X86339673Y-61477004D01*
X86357540Y-61485164D01*
X86357541Y-61485164D01*
X86357543Y-61485165D01*
X86362312Y-61485850D01*
X86388002Y-61492407D01*
X86392517Y-61494091D01*
X86442049Y-61497633D01*
X86450843Y-61498579D01*
X86464201Y-61500500D01*
X86477692Y-61500500D01*
X86486538Y-61500815D01*
X86536073Y-61504359D01*
X86540785Y-61503334D01*
X86567143Y-61500500D01*
X88245124Y-61500500D01*
X88292572Y-61509937D01*
X88356291Y-61536330D01*
X88452097Y-61548943D01*
X88499999Y-61555250D01*
X88500000Y-61555250D01*
X88500001Y-61555250D01*
X88514977Y-61553278D01*
X88643709Y-61536330D01*
X88777625Y-61480861D01*
X88892621Y-61392621D01*
X88980861Y-61277625D01*
X89036330Y-61143709D01*
X89055250Y-61000000D01*
X89036330Y-60856291D01*
X88980861Y-60722375D01*
X88892621Y-60607379D01*
X88777625Y-60519139D01*
X88777624Y-60519138D01*
X88777622Y-60519137D01*
X88643712Y-60463671D01*
X88643710Y-60463670D01*
X88643709Y-60463670D01*
X88571854Y-60454210D01*
X88500001Y-60444750D01*
X88499999Y-60444750D01*
X88356293Y-60463669D01*
X88339912Y-60470453D01*
X88292572Y-60490062D01*
X88245124Y-60499500D01*
X86758676Y-60499500D01*
X86691637Y-60479815D01*
X86670995Y-60463181D01*
X84423261Y-58215446D01*
X84389776Y-58154123D01*
X84394760Y-58084431D01*
X84436632Y-58028498D01*
X84502096Y-58004081D01*
X84510087Y-58003769D01*
X114050315Y-57810303D01*
X114117479Y-57829547D01*
X114138805Y-57846618D01*
X115117653Y-58825466D01*
X115117682Y-58825497D01*
X117598614Y-61306428D01*
X117615246Y-61327066D01*
X117617854Y-61331125D01*
X117617857Y-61331128D01*
X117655400Y-61363658D01*
X117661863Y-61369677D01*
X117671407Y-61379221D01*
X117671413Y-61379226D01*
X117671416Y-61379228D01*
X117682207Y-61387306D01*
X117689100Y-61392860D01*
X117726627Y-61425377D01*
X117731010Y-61427379D01*
X117753807Y-61440905D01*
X117757669Y-61443796D01*
X117804212Y-61461155D01*
X117812360Y-61464530D01*
X117839673Y-61477004D01*
X117857540Y-61485164D01*
X117857541Y-61485164D01*
X117857543Y-61485165D01*
X117862312Y-61485850D01*
X117888002Y-61492407D01*
X117892517Y-61494091D01*
X117942049Y-61497633D01*
X117950843Y-61498579D01*
X117964201Y-61500500D01*
X117977692Y-61500500D01*
X117986538Y-61500815D01*
X118036073Y-61504359D01*
X118040785Y-61503334D01*
X118067143Y-61500500D01*
X119245124Y-61500500D01*
X119292572Y-61509937D01*
X119356291Y-61536330D01*
X119452097Y-61548943D01*
X119499999Y-61555250D01*
X119500000Y-61555250D01*
X119500001Y-61555250D01*
X119514977Y-61553278D01*
X119643709Y-61536330D01*
X119777625Y-61480861D01*
X119892621Y-61392621D01*
X119980861Y-61277625D01*
X120036330Y-61143709D01*
X120055250Y-61000000D01*
X120036330Y-60856291D01*
X119980861Y-60722375D01*
X119892621Y-60607379D01*
X119777625Y-60519139D01*
X119777624Y-60519138D01*
X119777622Y-60519137D01*
X119643712Y-60463671D01*
X119643710Y-60463670D01*
X119643709Y-60463670D01*
X119571854Y-60454210D01*
X119500001Y-60444750D01*
X119499999Y-60444750D01*
X119356293Y-60463669D01*
X119339912Y-60470453D01*
X119292572Y-60490062D01*
X119245124Y-60499500D01*
X118258676Y-60499500D01*
X118191637Y-60479815D01*
X118170995Y-60463181D01*
X115825497Y-58117682D01*
X115825466Y-58117653D01*
X115718300Y-58010487D01*
X115684815Y-57949164D01*
X115689799Y-57879472D01*
X115731671Y-57823539D01*
X115797135Y-57799122D01*
X115805134Y-57798810D01*
X123274692Y-57749890D01*
X123341855Y-57769134D01*
X123387955Y-57821637D01*
X123399500Y-57873886D01*
X123399500Y-66341324D01*
X123379815Y-66408363D01*
X123363181Y-66429005D01*
X121169005Y-68623181D01*
X121107682Y-68656666D01*
X121081324Y-68659500D01*
X115553788Y-68659500D01*
X115486749Y-68639815D01*
X115440994Y-68587011D01*
X115439227Y-68582952D01*
X115385778Y-68453913D01*
X115385777Y-68453911D01*
X115385776Y-68453910D01*
X115258261Y-68245825D01*
X115258261Y-68245823D01*
X115222453Y-68203897D01*
X115099759Y-68060241D01*
X114977063Y-67955449D01*
X114914176Y-67901738D01*
X114914173Y-67901737D01*
X114706089Y-67774222D01*
X114480618Y-67680830D01*
X114480621Y-67680830D01*
X114374992Y-67655470D01*
X114243302Y-67623854D01*
X114243300Y-67623853D01*
X114243297Y-67623853D01*
X114000000Y-67604706D01*
X113756702Y-67623853D01*
X113519380Y-67680830D01*
X113293910Y-67774222D01*
X113085826Y-67901737D01*
X113085823Y-67901738D01*
X112900241Y-68060241D01*
X112741738Y-68245823D01*
X112741737Y-68245826D01*
X112614222Y-68453911D01*
X112614221Y-68453913D01*
X112560773Y-68582952D01*
X112516933Y-68637356D01*
X112450639Y-68659421D01*
X112446212Y-68659500D01*
X88910110Y-68659500D01*
X88843071Y-68639815D01*
X88797316Y-68587011D01*
X88787372Y-68517853D01*
X88816397Y-68454297D01*
X88834623Y-68437125D01*
X88846476Y-68428028D01*
X88892621Y-68392621D01*
X88980861Y-68277625D01*
X89036330Y-68143709D01*
X89055250Y-68000000D01*
X89036330Y-67856291D01*
X88980861Y-67722375D01*
X88892621Y-67607379D01*
X88777625Y-67519139D01*
X88777624Y-67519138D01*
X88777622Y-67519137D01*
X88643712Y-67463671D01*
X88643710Y-67463670D01*
X88643709Y-67463670D01*
X88571854Y-67454210D01*
X88500001Y-67444750D01*
X88499999Y-67444750D01*
X88356291Y-67463670D01*
X88356287Y-67463671D01*
X88222377Y-67519137D01*
X88107379Y-67607379D01*
X88019137Y-67722377D01*
X87963671Y-67856287D01*
X87963670Y-67856291D01*
X87944750Y-67999999D01*
X87944750Y-68000000D01*
X87963670Y-68143708D01*
X87963671Y-68143712D01*
X88019137Y-68277622D01*
X88019138Y-68277624D01*
X88019139Y-68277625D01*
X88107379Y-68392621D01*
X88143057Y-68419998D01*
X88165377Y-68437125D01*
X88206579Y-68493553D01*
X88210734Y-68563299D01*
X88176521Y-68624219D01*
X88114804Y-68656971D01*
X88089890Y-68659500D01*
X85553788Y-68659500D01*
X85486749Y-68639815D01*
X85440994Y-68587011D01*
X85439227Y-68582952D01*
X85385778Y-68453913D01*
X85385777Y-68453911D01*
X85385776Y-68453910D01*
X85258261Y-68245825D01*
X85258261Y-68245823D01*
X85222453Y-68203897D01*
X85099759Y-68060241D01*
X84977063Y-67955449D01*
X84914176Y-67901738D01*
X84914173Y-67901737D01*
X84706089Y-67774222D01*
X84480618Y-67680830D01*
X84480621Y-67680830D01*
X84374992Y-67655470D01*
X84243302Y-67623854D01*
X84243300Y-67623853D01*
X84243297Y-67623853D01*
X84000000Y-67604706D01*
X83756702Y-67623853D01*
X83519380Y-67680830D01*
X83293910Y-67774222D01*
X83085826Y-67901737D01*
X83085823Y-67901738D01*
X82900241Y-68060241D01*
X82741738Y-68245823D01*
X82741737Y-68245826D01*
X82614222Y-68453910D01*
X82520830Y-68679380D01*
X82463853Y-68916702D01*
X82444706Y-69160000D01*
X82460900Y-69365772D01*
X82446536Y-69434149D01*
X82397484Y-69483905D01*
X82337282Y-69499500D01*
X78743548Y-69499500D01*
X78676509Y-69479815D01*
X78633515Y-69430198D01*
X78633047Y-69430454D01*
X78631870Y-69428299D01*
X78630754Y-69427011D01*
X78629455Y-69423877D01*
X78628793Y-69422664D01*
X78542547Y-69307455D01*
X78542544Y-69307452D01*
X78427335Y-69221206D01*
X78427328Y-69221202D01*
X78292482Y-69170908D01*
X78292483Y-69170908D01*
X78232883Y-69164501D01*
X78232881Y-69164500D01*
X78232873Y-69164500D01*
X78232864Y-69164500D01*
X76767129Y-69164500D01*
X76767123Y-69164501D01*
X76707516Y-69170908D01*
X76572671Y-69221202D01*
X76572664Y-69221206D01*
X76457455Y-69307452D01*
X76457452Y-69307455D01*
X76371206Y-69422664D01*
X76371202Y-69422671D01*
X76324716Y-69547309D01*
X76320909Y-69557517D01*
X76314500Y-69617127D01*
X76314500Y-69617134D01*
X76314500Y-69617135D01*
X76314500Y-70382870D01*
X76314501Y-70382876D01*
X76320908Y-70442483D01*
X76371202Y-70577328D01*
X76371206Y-70577335D01*
X76417496Y-70639169D01*
X76457454Y-70692546D01*
X76524063Y-70742409D01*
X76565933Y-70798342D01*
X76570917Y-70868034D01*
X76537432Y-70929357D01*
X76535028Y-70931697D01*
X76509457Y-70955919D01*
X76407471Y-71106339D01*
X76407471Y-71106340D01*
X76340208Y-71275156D01*
X76340207Y-71275161D01*
X76340207Y-71275162D01*
X76325638Y-71364032D01*
X76310806Y-71454502D01*
X76320644Y-71635967D01*
X76369261Y-71811071D01*
X76369264Y-71811077D01*
X76454386Y-71971635D01*
X76572038Y-72110145D01*
X76572039Y-72110146D01*
X76623613Y-72149352D01*
X76665070Y-72205592D01*
X76669540Y-72275318D01*
X76635604Y-72336393D01*
X76633847Y-72338090D01*
X76509458Y-72455917D01*
X76407471Y-72606339D01*
X76407471Y-72606340D01*
X76340208Y-72775156D01*
X76340207Y-72775161D01*
X76340207Y-72775162D01*
X76325638Y-72864032D01*
X76310806Y-72954502D01*
X76320644Y-73135967D01*
X76369261Y-73311071D01*
X76369264Y-73311077D01*
X76454386Y-73471635D01*
X76454388Y-73471637D01*
X76572039Y-73610146D01*
X76716715Y-73720126D01*
X76881650Y-73796433D01*
X77059134Y-73835500D01*
X77059137Y-73835500D01*
X77895296Y-73835500D01*
X77895302Y-73835500D01*
X78030667Y-73820778D01*
X78151295Y-73780134D01*
X78221110Y-73777382D01*
X78278569Y-73809962D01*
X82556426Y-78087819D01*
X82589911Y-78149142D01*
X82584927Y-78218834D01*
X82543055Y-78274767D01*
X82477591Y-78299184D01*
X82468745Y-78299500D01*
X73724446Y-78299500D01*
X73657407Y-78279815D01*
X73648960Y-78273876D01*
X73577625Y-78219139D01*
X73577623Y-78219138D01*
X73443712Y-78163671D01*
X73443710Y-78163670D01*
X73443709Y-78163670D01*
X73333360Y-78149142D01*
X73300001Y-78144750D01*
X73299999Y-78144750D01*
X73156291Y-78163670D01*
X73156287Y-78163671D01*
X73022377Y-78219137D01*
X72907379Y-78307379D01*
X72819137Y-78422377D01*
X72763671Y-78556287D01*
X72763670Y-78556291D01*
X72744750Y-78699999D01*
X72744750Y-78700000D01*
X72763670Y-78843708D01*
X72763671Y-78843712D01*
X72819137Y-78977622D01*
X72819138Y-78977624D01*
X72819139Y-78977625D01*
X72907379Y-79092621D01*
X73022375Y-79180861D01*
X73156291Y-79236330D01*
X73283280Y-79253048D01*
X73299999Y-79255250D01*
X73300000Y-79255250D01*
X73300001Y-79255250D01*
X73314977Y-79253278D01*
X73443709Y-79236330D01*
X73577625Y-79180861D01*
X73624280Y-79145060D01*
X73648960Y-79126124D01*
X73714129Y-79100930D01*
X73724446Y-79100500D01*
X101882745Y-79100500D01*
X101949784Y-79120185D01*
X101970426Y-79136819D01*
X106263181Y-83429573D01*
X106296666Y-83490896D01*
X106299500Y-83517254D01*
X106299500Y-83575553D01*
X106279815Y-83642592D01*
X106273876Y-83651039D01*
X106219139Y-83722374D01*
X106219138Y-83722376D01*
X106163671Y-83856287D01*
X106163670Y-83856291D01*
X106144750Y-83999999D01*
X106144750Y-84000000D01*
X106163670Y-84143708D01*
X106163671Y-84143712D01*
X106219137Y-84277622D01*
X106219138Y-84277624D01*
X106219139Y-84277625D01*
X106307379Y-84392621D01*
X106422375Y-84480861D01*
X106556291Y-84536330D01*
X106683280Y-84553048D01*
X106699999Y-84555250D01*
X106700000Y-84555250D01*
X106700001Y-84555250D01*
X106714977Y-84553278D01*
X106843709Y-84536330D01*
X106977625Y-84480861D01*
X107092621Y-84392621D01*
X107180861Y-84277625D01*
X107236330Y-84143709D01*
X107255250Y-84000000D01*
X107236330Y-83856291D01*
X107180861Y-83722375D01*
X107172530Y-83711518D01*
X107126124Y-83651039D01*
X107100930Y-83585869D01*
X107100500Y-83575553D01*
X107100500Y-83264080D01*
X107100499Y-83264065D01*
X107100499Y-83236568D01*
X107100499Y-83236567D01*
X107093653Y-83215501D01*
X107089111Y-83196580D01*
X107085646Y-83174696D01*
X107075586Y-83154952D01*
X107068140Y-83136974D01*
X107061297Y-83115913D01*
X107061296Y-83115912D01*
X107061296Y-83115910D01*
X107048269Y-83097981D01*
X107038104Y-83081392D01*
X107028050Y-83061658D01*
X106938342Y-82971950D01*
X102778574Y-78812181D01*
X102745089Y-78750858D01*
X102750073Y-78681166D01*
X102791945Y-78625233D01*
X102857409Y-78600816D01*
X102866255Y-78600500D01*
X109007745Y-78600500D01*
X109074784Y-78620185D01*
X109095426Y-78636819D01*
X113441675Y-82983067D01*
X113475160Y-83044390D01*
X113476933Y-83054562D01*
X113481611Y-83090092D01*
X113487783Y-83136974D01*
X113488670Y-83143707D01*
X113488671Y-83143712D01*
X113544137Y-83277622D01*
X113544138Y-83277624D01*
X113544139Y-83277625D01*
X113632379Y-83392621D01*
X113747375Y-83480861D01*
X113881291Y-83536330D01*
X114008280Y-83553048D01*
X114024999Y-83555250D01*
X114025000Y-83555250D01*
X114025001Y-83555250D01*
X114039977Y-83553278D01*
X114168709Y-83536330D01*
X114302625Y-83480861D01*
X114417621Y-83392621D01*
X114505861Y-83277625D01*
X114561330Y-83143709D01*
X114580250Y-83000000D01*
X114561330Y-82856291D01*
X114511641Y-82736329D01*
X114505862Y-82722377D01*
X114505861Y-82722376D01*
X114505861Y-82722375D01*
X114417621Y-82607379D01*
X114302625Y-82519139D01*
X114302624Y-82519138D01*
X114302622Y-82519137D01*
X114168712Y-82463671D01*
X114168710Y-82463670D01*
X114168709Y-82463670D01*
X114115363Y-82456646D01*
X114079562Y-82451933D01*
X114015665Y-82423666D01*
X114008067Y-82416675D01*
X109482813Y-77891419D01*
X109482782Y-77891390D01*
X109463342Y-77871950D01*
X109463340Y-77871949D01*
X109443600Y-77861890D01*
X109427014Y-77851726D01*
X109409090Y-77838704D01*
X109409091Y-77838704D01*
X109388018Y-77831857D01*
X109370045Y-77824412D01*
X109350307Y-77814355D01*
X109350304Y-77814354D01*
X109328418Y-77810887D01*
X109309507Y-77806346D01*
X109288439Y-77799501D01*
X109288434Y-77799500D01*
X109288433Y-77799500D01*
X109288429Y-77799500D01*
X83452255Y-77799500D01*
X83385216Y-77779815D01*
X83364574Y-77763181D01*
X80761393Y-75160000D01*
X82444706Y-75160000D01*
X82463853Y-75403297D01*
X82520830Y-75640619D01*
X82614222Y-75866089D01*
X82741737Y-76074173D01*
X82741738Y-76074176D01*
X82741741Y-76074179D01*
X82900241Y-76259759D01*
X82990692Y-76337011D01*
X83085823Y-76418261D01*
X83085825Y-76418261D01*
X83095767Y-76424354D01*
X83293910Y-76545777D01*
X83519381Y-76639169D01*
X83519378Y-76639169D01*
X83519384Y-76639170D01*
X83519388Y-76639172D01*
X83756698Y-76696146D01*
X84000000Y-76715294D01*
X84243302Y-76696146D01*
X84480612Y-76639172D01*
X84706089Y-76545777D01*
X84914179Y-76418259D01*
X85099759Y-76259759D01*
X85258259Y-76074179D01*
X85385777Y-75866089D01*
X85439227Y-75737047D01*
X85483067Y-75682644D01*
X85549361Y-75660579D01*
X85553788Y-75660500D01*
X97123396Y-75660500D01*
X97190435Y-75680185D01*
X97236190Y-75732989D01*
X97246134Y-75802147D01*
X97217109Y-75865703D01*
X97170848Y-75899061D01*
X97122377Y-75919137D01*
X97007379Y-76007379D01*
X96919137Y-76122377D01*
X96863671Y-76256287D01*
X96863670Y-76256291D01*
X96846440Y-76387167D01*
X96844750Y-76400000D01*
X96858098Y-76501390D01*
X96863670Y-76543708D01*
X96863671Y-76543712D01*
X96919137Y-76677622D01*
X96919138Y-76677624D01*
X96919139Y-76677625D01*
X97007379Y-76792621D01*
X97122375Y-76880861D01*
X97256291Y-76936330D01*
X97345435Y-76948065D01*
X97409330Y-76976331D01*
X97416918Y-76983311D01*
X97549091Y-77115484D01*
X97553421Y-77119814D01*
X97553432Y-77119824D01*
X97571658Y-77138050D01*
X97591389Y-77148103D01*
X97607976Y-77158266D01*
X97625911Y-77171297D01*
X97646985Y-77178144D01*
X97664953Y-77185586D01*
X97684696Y-77195646D01*
X97706582Y-77199112D01*
X97725489Y-77203651D01*
X97746567Y-77210500D01*
X97778481Y-77210500D01*
X116392745Y-77210500D01*
X116459784Y-77230185D01*
X116480426Y-77246819D01*
X119416675Y-80183068D01*
X119450160Y-80244391D01*
X119451933Y-80254563D01*
X119463670Y-80343707D01*
X119463671Y-80343712D01*
X119519137Y-80477622D01*
X119519138Y-80477624D01*
X119519139Y-80477625D01*
X119607379Y-80592621D01*
X119722375Y-80680861D01*
X119856291Y-80736330D01*
X119983280Y-80753048D01*
X119999999Y-80755250D01*
X120000000Y-80755250D01*
X120000001Y-80755250D01*
X120014977Y-80753278D01*
X120143709Y-80736330D01*
X120277625Y-80680861D01*
X120392621Y-80592621D01*
X120480861Y-80477625D01*
X120536330Y-80343709D01*
X120555250Y-80200000D01*
X120536330Y-80056291D01*
X120480861Y-79922375D01*
X120392621Y-79807379D01*
X120277625Y-79719139D01*
X120277624Y-79719138D01*
X120277622Y-79719137D01*
X120143712Y-79663671D01*
X120143710Y-79663670D01*
X120143709Y-79663670D01*
X120095009Y-79657258D01*
X120054563Y-79651933D01*
X119990666Y-79623666D01*
X119983068Y-79616675D01*
X116867813Y-76501419D01*
X116867782Y-76501390D01*
X116848342Y-76481950D01*
X116848340Y-76481949D01*
X116828600Y-76471890D01*
X116812014Y-76461726D01*
X116794090Y-76448704D01*
X116794091Y-76448704D01*
X116773018Y-76441857D01*
X116755045Y-76434412D01*
X116735307Y-76424355D01*
X116735304Y-76424354D01*
X116713418Y-76420887D01*
X116694507Y-76416346D01*
X116673439Y-76409501D01*
X116673434Y-76409500D01*
X116673433Y-76409500D01*
X116673429Y-76409500D01*
X115240844Y-76409500D01*
X115173805Y-76389815D01*
X115128050Y-76337011D01*
X115118106Y-76267853D01*
X115146553Y-76204970D01*
X115258259Y-76074179D01*
X115385777Y-75866089D01*
X115479172Y-75640612D01*
X115536146Y-75403302D01*
X115555294Y-75160000D01*
X115536146Y-74916698D01*
X115479172Y-74679388D01*
X115470934Y-74659500D01*
X115385777Y-74453910D01*
X115258262Y-74245826D01*
X115258261Y-74245823D01*
X115222453Y-74203897D01*
X115099759Y-74060241D01*
X114977063Y-73955449D01*
X114914176Y-73901738D01*
X114914173Y-73901737D01*
X114706089Y-73774222D01*
X114480618Y-73680830D01*
X114480621Y-73680830D01*
X114374992Y-73655470D01*
X114243302Y-73623854D01*
X114243300Y-73623853D01*
X114243297Y-73623853D01*
X114000000Y-73604706D01*
X113756702Y-73623853D01*
X113519380Y-73680830D01*
X113293910Y-73774222D01*
X113085826Y-73901737D01*
X113085823Y-73901738D01*
X112900241Y-74060241D01*
X112741738Y-74245823D01*
X112741737Y-74245826D01*
X112614222Y-74453911D01*
X112614221Y-74453913D01*
X112560773Y-74582952D01*
X112516933Y-74637356D01*
X112450639Y-74659421D01*
X112446212Y-74659500D01*
X85553788Y-74659500D01*
X85486749Y-74639815D01*
X85440994Y-74587011D01*
X85439227Y-74582952D01*
X85385778Y-74453913D01*
X85385777Y-74453911D01*
X85258262Y-74245826D01*
X85258261Y-74245823D01*
X85222453Y-74203897D01*
X85099759Y-74060241D01*
X84977063Y-73955449D01*
X84914176Y-73901738D01*
X84914173Y-73901737D01*
X84706089Y-73774222D01*
X84480618Y-73680830D01*
X84480621Y-73680830D01*
X84374992Y-73655470D01*
X84243302Y-73623854D01*
X84243300Y-73623853D01*
X84243297Y-73623853D01*
X84000000Y-73604706D01*
X83756702Y-73623853D01*
X83519380Y-73680830D01*
X83293910Y-73774222D01*
X83085826Y-73901737D01*
X83085823Y-73901738D01*
X82900241Y-74060241D01*
X82741738Y-74245823D01*
X82741737Y-74245826D01*
X82614222Y-74453910D01*
X82520830Y-74679380D01*
X82463853Y-74916702D01*
X82444706Y-75160000D01*
X80761393Y-75160000D01*
X78725185Y-73123792D01*
X78691700Y-73062469D01*
X78689049Y-73042833D01*
X78679356Y-72864034D01*
X78630737Y-72688926D01*
X78586953Y-72606340D01*
X78545613Y-72528364D01*
X78427961Y-72389854D01*
X78376386Y-72350648D01*
X78334929Y-72294407D01*
X78330459Y-72224680D01*
X78364395Y-72163606D01*
X78366153Y-72161908D01*
X78379409Y-72149351D01*
X78490542Y-72044081D01*
X78592527Y-71893663D01*
X78659793Y-71724838D01*
X78689194Y-71545500D01*
X78679356Y-71364034D01*
X78630737Y-71188926D01*
X78586953Y-71106340D01*
X78545613Y-71028364D01*
X78455425Y-70922187D01*
X78427027Y-70858348D01*
X78437651Y-70789291D01*
X78475621Y-70742645D01*
X78542546Y-70692546D01*
X78628796Y-70577331D01*
X78628797Y-70577326D01*
X78633047Y-70569546D01*
X78635188Y-70570715D01*
X78669243Y-70525229D01*
X78734709Y-70500815D01*
X78743548Y-70500500D01*
X83092857Y-70500500D01*
X83119215Y-70503334D01*
X83123927Y-70504359D01*
X83173461Y-70500815D01*
X83182308Y-70500500D01*
X83185054Y-70500500D01*
X83249844Y-70518773D01*
X83293910Y-70545777D01*
X83519381Y-70639169D01*
X83519378Y-70639169D01*
X83519384Y-70639170D01*
X83519388Y-70639172D01*
X83756698Y-70696146D01*
X84000000Y-70715294D01*
X84243302Y-70696146D01*
X84480612Y-70639172D01*
X84706089Y-70545777D01*
X84914179Y-70418259D01*
X85099759Y-70259759D01*
X85258259Y-70074179D01*
X85385777Y-69866089D01*
X85439227Y-69737047D01*
X85483067Y-69682644D01*
X85549361Y-69660579D01*
X85553788Y-69660500D01*
X112446212Y-69660500D01*
X112513251Y-69680185D01*
X112559006Y-69732989D01*
X112560773Y-69737048D01*
X112614221Y-69866086D01*
X112614222Y-69866088D01*
X112741737Y-70074173D01*
X112741738Y-70074176D01*
X112741741Y-70074179D01*
X112900241Y-70259759D01*
X113043897Y-70382453D01*
X113085823Y-70418261D01*
X113085826Y-70418262D01*
X113293910Y-70545777D01*
X113519381Y-70639169D01*
X113519378Y-70639169D01*
X113519384Y-70639170D01*
X113519388Y-70639172D01*
X113756698Y-70696146D01*
X114000000Y-70715294D01*
X114243302Y-70696146D01*
X114480612Y-70639172D01*
X114706089Y-70545777D01*
X114914179Y-70418259D01*
X115099759Y-70259759D01*
X115258259Y-70074179D01*
X115385777Y-69866089D01*
X115439227Y-69737047D01*
X115483067Y-69682644D01*
X115549361Y-69660579D01*
X115553788Y-69660500D01*
X121272857Y-69660500D01*
X121299215Y-69663334D01*
X121303927Y-69664359D01*
X121353461Y-69660815D01*
X121362308Y-69660500D01*
X121375799Y-69660500D01*
X121389156Y-69658579D01*
X121397951Y-69657633D01*
X121447483Y-69654091D01*
X121451992Y-69652408D01*
X121477685Y-69645850D01*
X121482457Y-69645165D01*
X121527637Y-69624530D01*
X121535801Y-69621149D01*
X121582331Y-69603796D01*
X121586189Y-69600907D01*
X121608995Y-69587375D01*
X121613373Y-69585377D01*
X121650899Y-69552859D01*
X121657778Y-69547316D01*
X121668593Y-69539221D01*
X121678155Y-69529658D01*
X121684605Y-69523653D01*
X121722143Y-69491128D01*
X121724751Y-69487068D01*
X121741381Y-69466431D01*
X124206431Y-67001381D01*
X124227068Y-66984751D01*
X124231128Y-66982143D01*
X124263653Y-66944605D01*
X124269658Y-66938155D01*
X124279221Y-66928593D01*
X124287316Y-66917778D01*
X124292859Y-66910899D01*
X124325377Y-66873373D01*
X124327375Y-66868995D01*
X124340907Y-66846189D01*
X124343796Y-66842331D01*
X124361149Y-66795801D01*
X124364534Y-66787630D01*
X124385165Y-66742457D01*
X124385850Y-66737685D01*
X124392409Y-66711992D01*
X124394091Y-66707483D01*
X124397633Y-66657951D01*
X124398580Y-66649148D01*
X124400500Y-66635799D01*
X124400500Y-66622308D01*
X124400816Y-66613461D01*
X124404359Y-66563927D01*
X124403332Y-66559206D01*
X124400500Y-66532858D01*
X124400500Y-57865707D01*
X124420185Y-57798668D01*
X124472989Y-57752913D01*
X124523686Y-57741710D01*
X135374692Y-57670644D01*
X135441855Y-57689888D01*
G37*
%TD.AperFunction*%
%TD*%
M02*
