%TF.GenerationSoftware,KiCad,Pcbnew,7.0.11-rc3*%
%TF.CreationDate,2025-03-16T23:28:45+08:00*%
%TF.ProjectId,mainhoop-light,6d61696e-686f-46f7-902d-6c696768742e,rev?*%
%TF.SameCoordinates,Original*%
%TF.FileFunction,Soldermask,Top*%
%TF.FilePolarity,Negative*%
%FSLAX46Y46*%
G04 Gerber Fmt 4.6, Leading zero omitted, Abs format (unit mm)*
G04 Created by KiCad (PCBNEW 7.0.11-rc3) date 2025-03-16 23:28:45*
%MOMM*%
%LPD*%
G01*
G04 APERTURE LIST*
G04 Aperture macros list*
%AMRoundRect*
0 Rectangle with rounded corners*
0 $1 Rounding radius*
0 $2 $3 $4 $5 $6 $7 $8 $9 X,Y pos of 4 corners*
0 Add a 4 corners polygon primitive as box body*
4,1,4,$2,$3,$4,$5,$6,$7,$8,$9,$2,$3,0*
0 Add four circle primitives for the rounded corners*
1,1,$1+$1,$2,$3*
1,1,$1+$1,$4,$5*
1,1,$1+$1,$6,$7*
1,1,$1+$1,$8,$9*
0 Add four rect primitives between the rounded corners*
20,1,$1+$1,$2,$3,$4,$5,0*
20,1,$1+$1,$4,$5,$6,$7,0*
20,1,$1+$1,$6,$7,$8,$9,0*
20,1,$1+$1,$8,$9,$2,$3,0*%
G04 Aperture macros list end*
%ADD10RoundRect,0.150000X-0.512500X-0.150000X0.512500X-0.150000X0.512500X0.150000X-0.512500X0.150000X0*%
%ADD11RoundRect,0.200000X0.200000X0.275000X-0.200000X0.275000X-0.200000X-0.275000X0.200000X-0.275000X0*%
%ADD12R,2.000000X1.100000*%
%ADD13C,2.600000*%
%ADD14RoundRect,0.200000X0.275000X-0.200000X0.275000X0.200000X-0.275000X0.200000X-0.275000X-0.200000X0*%
%ADD15RoundRect,0.200000X-0.200000X-0.275000X0.200000X-0.275000X0.200000X0.275000X-0.200000X0.275000X0*%
%ADD16RoundRect,0.150000X-0.587500X-0.150000X0.587500X-0.150000X0.587500X0.150000X-0.587500X0.150000X0*%
%ADD17RoundRect,0.150000X0.512500X0.150000X-0.512500X0.150000X-0.512500X-0.150000X0.512500X-0.150000X0*%
%ADD18RoundRect,0.200000X-0.275000X0.200000X-0.275000X-0.200000X0.275000X-0.200000X0.275000X0.200000X0*%
%ADD19RoundRect,0.250000X-0.300000X-0.300000X0.300000X-0.300000X0.300000X0.300000X-0.300000X0.300000X0*%
%ADD20RoundRect,0.250000X0.475000X-0.250000X0.475000X0.250000X-0.475000X0.250000X-0.475000X-0.250000X0*%
%ADD21RoundRect,0.150000X-0.825000X-0.150000X0.825000X-0.150000X0.825000X0.150000X-0.825000X0.150000X0*%
%ADD22RoundRect,0.225000X0.250000X-0.225000X0.250000X0.225000X-0.250000X0.225000X-0.250000X-0.225000X0*%
%ADD23RoundRect,0.225000X-0.250000X0.225000X-0.250000X-0.225000X0.250000X-0.225000X0.250000X0.225000X0*%
%ADD24RoundRect,0.250000X-0.685000X0.335000X-0.685000X-0.335000X0.685000X-0.335000X0.685000X0.335000X0*%
%ADD25O,1.870000X1.170000*%
%ADD26C,6.800000*%
%ADD27C,11.000000*%
%ADD28RoundRect,0.225000X-0.225000X-0.250000X0.225000X-0.250000X0.225000X0.250000X-0.225000X0.250000X0*%
G04 APERTURE END LIST*
D10*
%TO.C,IC4*%
X105450000Y-60100000D03*
X105450000Y-61050000D03*
X105450000Y-62000000D03*
X107725000Y-62000000D03*
X107725000Y-61050000D03*
X107725000Y-60100000D03*
%TD*%
D11*
%TO.C,R20*%
X81000000Y-81200000D03*
X79350000Y-81200000D03*
%TD*%
D12*
%TO.C,D23*%
X119100000Y-45500000D03*
X119100000Y-47200000D03*
X119100000Y-48900000D03*
X123900000Y-48900000D03*
X123900000Y-47200000D03*
X123900000Y-45500000D03*
%TD*%
D13*
%TO.C,TP4*%
X84000000Y-69160000D03*
%TD*%
D14*
%TO.C,R19*%
X93500000Y-67150000D03*
X93500000Y-65500000D03*
%TD*%
%TO.C,R18*%
X116100000Y-81825000D03*
X116100000Y-80175000D03*
%TD*%
D15*
%TO.C,R4*%
X112375000Y-80500000D03*
X114025000Y-80500000D03*
%TD*%
D16*
%TO.C,Q4*%
X90525000Y-84875000D03*
X90525000Y-86775000D03*
X92400000Y-85825000D03*
%TD*%
%TO.C,Q2*%
X88500000Y-65325000D03*
X88500000Y-67225000D03*
X90375000Y-66275000D03*
%TD*%
D11*
%TO.C,R13*%
X68625000Y-81125000D03*
X66975000Y-81125000D03*
%TD*%
D17*
%TO.C,U1*%
X102137500Y-74850000D03*
X102137500Y-73900000D03*
X102137500Y-72950000D03*
X99862500Y-72950000D03*
X99862500Y-74850000D03*
%TD*%
D11*
%TO.C,R12*%
X71725000Y-79525000D03*
X70075000Y-79525000D03*
%TD*%
D12*
%TO.C,D2*%
X83100000Y-38500000D03*
X83100000Y-40200000D03*
X83100000Y-41900000D03*
X87900000Y-41900000D03*
X87900000Y-40200000D03*
X87900000Y-38500000D03*
%TD*%
D13*
%TO.C,TP3*%
X114000000Y-69160000D03*
%TD*%
D18*
%TO.C,R7*%
X125587500Y-60225000D03*
X125587500Y-61875000D03*
%TD*%
D12*
%TO.C,D21*%
X110100000Y-45500000D03*
X110100000Y-47200000D03*
X110100000Y-48900000D03*
X114900000Y-48900000D03*
X114900000Y-47200000D03*
X114900000Y-45500000D03*
%TD*%
%TO.C,D6*%
X119100000Y-38500000D03*
X119100000Y-40200000D03*
X119100000Y-41900000D03*
X123900000Y-41900000D03*
X123900000Y-40200000D03*
X123900000Y-38500000D03*
%TD*%
D10*
%TO.C,IC1*%
X87462500Y-74250000D03*
X87462500Y-75200000D03*
X87462500Y-76150000D03*
X89737500Y-76150000D03*
X89737500Y-75200000D03*
X89737500Y-74250000D03*
%TD*%
%TO.C,IC6*%
X120950000Y-60050000D03*
X120950000Y-61000000D03*
X120950000Y-61950000D03*
X123225000Y-61950000D03*
X123225000Y-61000000D03*
X123225000Y-60050000D03*
%TD*%
D12*
%TO.C,D5*%
X110100000Y-38500000D03*
X110100000Y-40200000D03*
X110100000Y-41900000D03*
X114900000Y-41900000D03*
X114900000Y-40200000D03*
X114900000Y-38500000D03*
%TD*%
D11*
%TO.C,R5*%
X96050000Y-77100000D03*
X94400000Y-77100000D03*
%TD*%
D16*
%TO.C,Q1*%
X94525000Y-84875000D03*
X94525000Y-86775000D03*
X96400000Y-85825000D03*
%TD*%
%TO.C,Q9*%
X109950000Y-83900000D03*
X109950000Y-85800000D03*
X111825000Y-84850000D03*
%TD*%
D12*
%TO.C,D15*%
X83100000Y-45500000D03*
X83100000Y-47200000D03*
X83100000Y-48900000D03*
X87900000Y-48900000D03*
X87900000Y-47200000D03*
X87900000Y-45500000D03*
%TD*%
D16*
%TO.C,Q11*%
X118125000Y-83850000D03*
X118125000Y-85750000D03*
X120000000Y-84800000D03*
%TD*%
%TO.C,Q10*%
X118125000Y-80050000D03*
X118125000Y-81950000D03*
X120000000Y-81000000D03*
%TD*%
D18*
%TO.C,R8*%
X109992500Y-60225000D03*
X109992500Y-61875000D03*
%TD*%
%TO.C,R10*%
X78637500Y-60125000D03*
X78637500Y-61775000D03*
%TD*%
D14*
%TO.C,R17*%
X107800000Y-85625000D03*
X107800000Y-83975000D03*
%TD*%
D12*
%TO.C,D13*%
X74100000Y-45500000D03*
X74100000Y-47200000D03*
X74100000Y-48900000D03*
X78900000Y-48900000D03*
X78900000Y-47200000D03*
X78900000Y-45500000D03*
%TD*%
D15*
%TO.C,R11*%
X66975000Y-79525000D03*
X68625000Y-79525000D03*
%TD*%
D12*
%TO.C,D3*%
X92100000Y-38500000D03*
X92100000Y-40200000D03*
X92100000Y-41900000D03*
X96900000Y-41900000D03*
X96900000Y-40200000D03*
X96900000Y-38500000D03*
%TD*%
D13*
%TO.C,TP2*%
X84000000Y-75160000D03*
%TD*%
D14*
%TO.C,R6*%
X94200000Y-81500000D03*
X94200000Y-79850000D03*
%TD*%
D11*
%TO.C,R2*%
X101825000Y-71200000D03*
X100175000Y-71200000D03*
%TD*%
D16*
%TO.C,Q8*%
X114025000Y-83850000D03*
X114025000Y-85750000D03*
X115900000Y-84800000D03*
%TD*%
D11*
%TO.C,R21*%
X84300000Y-81200000D03*
X82650000Y-81200000D03*
%TD*%
D16*
%TO.C,Q6*%
X101033979Y-80390412D03*
X101033979Y-82290412D03*
X102908979Y-81340412D03*
%TD*%
D15*
%TO.C,R15*%
X70075000Y-81125000D03*
X71725000Y-81125000D03*
%TD*%
D13*
%TO.C,TP1*%
X114000000Y-75160000D03*
%TD*%
D19*
%TO.C,D25*%
X79675000Y-79000000D03*
X82475000Y-79000000D03*
%TD*%
D20*
%TO.C,C2*%
X97700000Y-74850000D03*
X97700000Y-72950000D03*
%TD*%
D21*
%TO.C,U2*%
X79325000Y-83115000D03*
X79325000Y-84385000D03*
X79325000Y-85655000D03*
X79325000Y-86925000D03*
X84275000Y-86925000D03*
X84275000Y-85655000D03*
X84275000Y-84385000D03*
X84275000Y-83115000D03*
%TD*%
D12*
%TO.C,D1*%
X74100000Y-38500000D03*
X74100000Y-40200000D03*
X74100000Y-41900000D03*
X78900000Y-41900000D03*
X78900000Y-40200000D03*
X78900000Y-38500000D03*
%TD*%
D10*
%TO.C,IC3*%
X74000000Y-60000000D03*
X74000000Y-60950000D03*
X74000000Y-61900000D03*
X76275000Y-61900000D03*
X76275000Y-60950000D03*
X76275000Y-60000000D03*
%TD*%
D12*
%TO.C,D4*%
X101100000Y-38500000D03*
X101100000Y-40200000D03*
X101100000Y-41900000D03*
X105900000Y-41900000D03*
X105900000Y-40200000D03*
X105900000Y-38500000D03*
%TD*%
D20*
%TO.C,C5*%
X76750000Y-84287500D03*
X76750000Y-82387500D03*
%TD*%
D15*
%TO.C,R3*%
X96975000Y-71200000D03*
X98625000Y-71200000D03*
%TD*%
D14*
%TO.C,R14*%
X91600000Y-76125000D03*
X91600000Y-74475000D03*
%TD*%
D22*
%TO.C,C4*%
X86550000Y-87075000D03*
X86550000Y-85525000D03*
%TD*%
D14*
%TO.C,R16*%
X73300000Y-81225000D03*
X73300000Y-79575000D03*
%TD*%
D18*
%TO.C,R9*%
X94775000Y-60225000D03*
X94775000Y-61875000D03*
%TD*%
D23*
%TO.C,C1*%
X104200000Y-72825000D03*
X104200000Y-74375000D03*
%TD*%
D12*
%TO.C,D17*%
X92100000Y-45500000D03*
X92100000Y-47200000D03*
X92100000Y-48900000D03*
X96900000Y-48900000D03*
X96900000Y-47200000D03*
X96900000Y-45500000D03*
%TD*%
D24*
%TO.C,J1*%
X77500000Y-70000000D03*
D25*
X77500000Y-71500000D03*
X77500000Y-73000000D03*
X77500000Y-74500000D03*
%TD*%
D26*
%TO.C,H2*%
X118000000Y-29160000D03*
D27*
X118000000Y-29160000D03*
%TD*%
D12*
%TO.C,D19*%
X101100000Y-45500000D03*
X101100000Y-47200000D03*
X101100000Y-48900000D03*
X105900000Y-48900000D03*
X105900000Y-47200000D03*
X105900000Y-45500000D03*
%TD*%
D16*
%TO.C,Q5*%
X101083979Y-83935412D03*
X101083979Y-85835412D03*
X102958979Y-84885412D03*
%TD*%
%TO.C,Q3*%
X90400000Y-79500000D03*
X90400000Y-81400000D03*
X92275000Y-80450000D03*
%TD*%
D28*
%TO.C,C3*%
X86450000Y-83087500D03*
X88000000Y-83087500D03*
%TD*%
D26*
%TO.C,H1*%
X80000000Y-29160000D03*
D27*
X80000000Y-29160000D03*
%TD*%
D10*
%TO.C,IC5*%
X90000000Y-60100000D03*
X90000000Y-61050000D03*
X90000000Y-62000000D03*
X92275000Y-62000000D03*
X92275000Y-61050000D03*
X92275000Y-60100000D03*
%TD*%
D18*
%TO.C,R1*%
X98500000Y-85075000D03*
X98500000Y-86725000D03*
%TD*%
M02*
