M48
; DRILL file {KiCad 9.0.7} date 2026-04-06T15:31:30+0800
; FORMAT={-:-/ absolute / metric / decimal}
; #@! TF.CreationDate,2026-04-06T15:31:30+08:00
; #@! TF.GenerationSoftware,Kicad,Pcbnew,9.0.7
; #@! TF.FileFunction,Plated,1,2,PTH
FMAT,2
METRIC
; #@! TA.AperFunction,Plated,PTH,ViaDrill
T1C0.300
; #@! TA.AperFunction,Plated,PTH,ComponentDrill
T2C0.800
; #@! TA.AperFunction,Plated,PTH,ComponentDrill
T3C1.000
; #@! TA.AperFunction,Plated,PTH,ComponentDrill
T4C1.300
; #@! TA.AperFunction,Plated,PTH,ComponentDrill
T5C3.200
%
G90
G05
T1
X145.57Y-80.13
X162.044Y-80.21
X169.153Y-75.553
X170.656Y-94.091
X170.829Y-86.441
X171.276Y-89.496
X176.845Y-80.345
X177.224Y-89.139
X183.331Y-65.686
T2
X161.65Y-97.2
X161.65Y-99.74
X169.27Y-97.2
X169.27Y-99.74
T3
X142.79Y-62.37
X142.79Y-64.91
X142.79Y-67.45
X142.79Y-69.99
X142.79Y-72.53
X142.79Y-75.07
X142.79Y-77.61
X142.79Y-80.15
X142.79Y-82.69
X142.79Y-85.23
X142.79Y-87.77
X142.79Y-90.31
X142.79Y-92.85
X142.79Y-95.39
X142.79Y-97.93
X158.03Y-62.37
X158.03Y-64.91
X158.03Y-67.45
X158.03Y-69.99
X158.03Y-72.53
X158.03Y-75.07
X158.03Y-77.61
X158.03Y-80.15
X158.03Y-82.69
X158.03Y-85.23
X158.03Y-87.77
X158.03Y-90.31
X158.03Y-92.85
X158.03Y-95.39
X158.03Y-97.93
X163.2Y-77.0
X170.8Y-77.0
X177.0Y-92.0
X177.0Y-94.54
X177.0Y-100.46
X177.0Y-103.0
X184.0Y-91.92
X184.0Y-94.46
X184.0Y-97.0
X184.0Y-99.54
X184.0Y-102.08
T4
X181.367Y-79.5
X181.367Y-84.5
X181.632Y-62.5
X181.632Y-67.5
X181.632Y-72.5
T5
X138.0Y-55.0
X138.0Y-105.0
X190.0Y-55.0
X190.0Y-105.0
M30
