%TF.GenerationSoftware,KiCad,Pcbnew,7.0.11-rc3*%
%TF.CreationDate,2025-03-16T23:25:56+08:00*%
%TF.ProjectId,cooling_DAQ,636f6f6c-696e-4675-9f44-41512e6b6963,rev?*%
%TF.SameCoordinates,Original*%
%TF.FileFunction,Plated,1,2,PTH,Mixed*%
%TF.FilePolarity,Positive*%
%FSLAX46Y46*%
G04 Gerber Fmt 4.6, Leading zero omitted, Abs format (unit mm)*
G04 Created by KiCad (PCBNEW 7.0.11-rc3) date 2025-03-16 23:25:56*
%MOMM*%
%LPD*%
G01*
G04 APERTURE LIST*
%TA.AperFunction,ViaDrill*%
%ADD10C,0.400000*%
%TD*%
G04 aperture for slot hole*
%TA.AperFunction,ComponentDrill*%
%ADD11C,0.600000*%
%TD*%
%TA.AperFunction,ComponentDrill*%
%ADD12C,1.000000*%
%TD*%
%TA.AperFunction,ComponentDrill*%
%ADD13C,3.200000*%
%TD*%
G04 APERTURE END LIST*
D10*
X135330000Y-101410000D03*
X135330000Y-124270000D03*
X135330000Y-126810000D03*
X135330000Y-129350000D03*
X135330000Y-131890000D03*
X135330000Y-134430000D03*
X135330000Y-136970000D03*
X136250000Y-114250000D03*
X137870000Y-106490000D03*
X137870000Y-126810000D03*
X137870000Y-129350000D03*
X137870000Y-131890000D03*
X137870000Y-134430000D03*
X137870000Y-136970000D03*
X138500000Y-121000000D03*
X138750000Y-103750000D03*
X140275500Y-112750000D03*
X140410000Y-96330000D03*
X140410000Y-139510000D03*
X140410000Y-142050000D03*
X140637299Y-116112701D03*
X140750451Y-111775049D03*
X141250000Y-120750000D03*
X141800000Y-116000000D03*
X142250000Y-111000000D03*
X142950000Y-103950000D03*
X142950000Y-106490000D03*
X142950000Y-131890000D03*
X143168363Y-117195576D03*
X143250000Y-99250000D03*
X143875985Y-116150583D03*
X143962829Y-124911513D03*
X144000000Y-117750000D03*
X144075500Y-118750000D03*
X144075500Y-119749503D03*
X145250000Y-114500000D03*
X145490000Y-96330000D03*
X145490000Y-139510000D03*
X145490000Y-142050000D03*
X146500000Y-130250000D03*
X146750000Y-125500000D03*
X146800000Y-118000000D03*
X146800000Y-119200000D03*
X148030000Y-96330000D03*
X148030000Y-98870000D03*
X148030000Y-131890000D03*
X148030000Y-139510000D03*
X148030000Y-142050000D03*
X148600000Y-137400000D03*
X150500000Y-111250000D03*
X150570000Y-96330000D03*
X150570000Y-106490000D03*
X150570000Y-119190000D03*
X151200000Y-122275000D03*
X153110000Y-98870000D03*
X153110000Y-139510000D03*
X153110000Y-142050000D03*
X153200000Y-102400000D03*
X153800000Y-133600000D03*
X155000000Y-124600000D03*
X155400000Y-132000000D03*
X155600000Y-128400000D03*
X155650000Y-111570000D03*
X155650000Y-136970000D03*
X156200000Y-133600000D03*
X156800000Y-102200000D03*
X158190000Y-106490000D03*
X158190000Y-134430000D03*
X158190000Y-136970000D03*
X160730000Y-101410000D03*
X160730000Y-134430000D03*
X160730000Y-136970000D03*
D11*
%TO.C,J7*%
X142680000Y-137170000D02*
X142680000Y-136070000D01*
X142680000Y-141100000D02*
X142680000Y-140500000D01*
X151320000Y-137170000D02*
X151320000Y-136070000D01*
X151320000Y-141100000D02*
X151320000Y-140500000D01*
D12*
%TO.C,J1*%
X157250000Y-108510000D03*
X157250000Y-111050000D03*
X157250000Y-113590000D03*
X157250000Y-116130000D03*
X157250000Y-118670000D03*
X157250000Y-121210000D03*
X157250000Y-123750000D03*
X157250000Y-126290000D03*
X157250000Y-128830000D03*
X157250000Y-131370000D03*
X159790000Y-108510000D03*
X159790000Y-111050000D03*
X159790000Y-113590000D03*
X159790000Y-116130000D03*
X159790000Y-118670000D03*
X159790000Y-121210000D03*
X159790000Y-123750000D03*
X159790000Y-126290000D03*
X159790000Y-128830000D03*
X159790000Y-131370000D03*
D13*
%TO.C,H2*%
X135500000Y-97500000D03*
%TO.C,H3*%
X135500000Y-140500000D03*
%TO.C,H1*%
X158500000Y-97500000D03*
%TO.C,H4*%
X158500000Y-140500000D03*
M02*
