%TF.GenerationSoftware,KiCad,Pcbnew,7.0.11-rc3*%
%TF.CreationDate,2025-03-16T23:25:47+08:00*%
%TF.ProjectId,cooling_DAQ,636f6f6c-696e-4675-9f44-41512e6b6963,rev?*%
%TF.SameCoordinates,Original*%
%TF.FileFunction,Soldermask,Bot*%
%TF.FilePolarity,Negative*%
%FSLAX46Y46*%
G04 Gerber Fmt 4.6, Leading zero omitted, Abs format (unit mm)*
G04 Created by KiCad (PCBNEW 7.0.11-rc3) date 2025-03-16 23:25:47*
%MOMM*%
%LPD*%
G01*
G04 APERTURE LIST*
G04 Aperture macros list*
%AMRoundRect*
0 Rectangle with rounded corners*
0 $1 Rounding radius*
0 $2 $3 $4 $5 $6 $7 $8 $9 X,Y pos of 4 corners*
0 Add a 4 corners polygon primitive as box body*
4,1,4,$2,$3,$4,$5,$6,$7,$8,$9,$2,$3,0*
0 Add four circle primitives for the rounded corners*
1,1,$1+$1,$2,$3*
1,1,$1+$1,$4,$5*
1,1,$1+$1,$6,$7*
1,1,$1+$1,$8,$9*
0 Add four rect primitives between the rounded corners*
20,1,$1+$1,$2,$3,$4,$5,0*
20,1,$1+$1,$4,$5,$6,$7,0*
20,1,$1+$1,$6,$7,$8,$9,0*
20,1,$1+$1,$8,$9,$2,$3,0*%
G04 Aperture macros list end*
%ADD10C,5.500000*%
%ADD11C,0.650000*%
%ADD12O,1.000000X2.100000*%
%ADD13O,1.000000X1.600000*%
%ADD14RoundRect,0.200000X-0.275000X0.200000X-0.275000X-0.200000X0.275000X-0.200000X0.275000X0.200000X0*%
%ADD15RoundRect,0.200000X0.200000X0.275000X-0.200000X0.275000X-0.200000X-0.275000X0.200000X-0.275000X0*%
%ADD16RoundRect,0.225000X0.250000X-0.225000X0.250000X0.225000X-0.250000X0.225000X-0.250000X-0.225000X0*%
%ADD17RoundRect,0.200000X-0.200000X-0.275000X0.200000X-0.275000X0.200000X0.275000X-0.200000X0.275000X0*%
%ADD18R,1.700000X1.700000*%
%ADD19O,1.700000X1.700000*%
%ADD20RoundRect,0.150000X0.512500X0.150000X-0.512500X0.150000X-0.512500X-0.150000X0.512500X-0.150000X0*%
%ADD21RoundRect,0.250000X0.262500X0.450000X-0.262500X0.450000X-0.262500X-0.450000X0.262500X-0.450000X0*%
%ADD22RoundRect,0.150000X-0.587500X-0.150000X0.587500X-0.150000X0.587500X0.150000X-0.587500X0.150000X0*%
%ADD23RoundRect,0.200000X0.275000X-0.200000X0.275000X0.200000X-0.275000X0.200000X-0.275000X-0.200000X0*%
%ADD24RoundRect,0.250000X-0.450000X0.262500X-0.450000X-0.262500X0.450000X-0.262500X0.450000X0.262500X0*%
%ADD25RoundRect,0.150000X-0.825000X-0.150000X0.825000X-0.150000X0.825000X0.150000X-0.825000X0.150000X0*%
G04 APERTURE END LIST*
D10*
%TO.C,H4*%
X158500000Y-140500000D03*
%TD*%
%TO.C,H3*%
X135500000Y-140500000D03*
%TD*%
%TO.C,H2*%
X135500000Y-97500000D03*
%TD*%
%TO.C,H1*%
X158500000Y-97500000D03*
%TD*%
D11*
%TO.C,J7*%
X144110000Y-137150000D03*
X149890000Y-137150000D03*
D12*
X142680000Y-136620000D03*
D13*
X142680000Y-140800000D03*
D12*
X151320000Y-136620000D03*
D13*
X151320000Y-140800000D03*
%TD*%
D14*
%TO.C,R9*%
X145000000Y-102925000D03*
X145000000Y-104575000D03*
%TD*%
D15*
%TO.C,R7*%
X148825000Y-104500000D03*
X147175000Y-104500000D03*
%TD*%
D16*
%TO.C,C15*%
X154200000Y-130575000D03*
X154200000Y-129025000D03*
%TD*%
D17*
%TO.C,R6*%
X151425000Y-104500000D03*
X153075000Y-104500000D03*
%TD*%
D18*
%TO.C,J1*%
X159790000Y-108510000D03*
D19*
X157250000Y-108510000D03*
X159790000Y-111050000D03*
X157250000Y-111050000D03*
X159790000Y-113590000D03*
X157250000Y-113590000D03*
X159790000Y-116130000D03*
X157250000Y-116130000D03*
X159790000Y-118670000D03*
X157250000Y-118670000D03*
X159790000Y-121210000D03*
X157250000Y-121210000D03*
X159790000Y-123750000D03*
X157250000Y-123750000D03*
X159790000Y-126290000D03*
X157250000Y-126290000D03*
X159790000Y-128830000D03*
X157250000Y-128830000D03*
X159790000Y-131370000D03*
X157250000Y-131370000D03*
%TD*%
D17*
%TO.C,R14*%
X152750000Y-112750000D03*
X154400000Y-112750000D03*
%TD*%
D20*
%TO.C,U2*%
X157637500Y-101300000D03*
X157637500Y-102250000D03*
X157637500Y-103200000D03*
X155362500Y-103200000D03*
X155362500Y-101300000D03*
%TD*%
D21*
%TO.C,C14*%
X142912500Y-102000000D03*
X141087500Y-102000000D03*
%TD*%
D17*
%TO.C,R4*%
X151925000Y-124500000D03*
X153575000Y-124500000D03*
%TD*%
%TO.C,C12*%
X149675000Y-98500000D03*
X151325000Y-98500000D03*
%TD*%
D15*
%TO.C,C17*%
X150325000Y-126250000D03*
X148675000Y-126250000D03*
%TD*%
D22*
%TO.C,Q2*%
X152062500Y-110700000D03*
X152062500Y-108800000D03*
X153937500Y-109750000D03*
%TD*%
D20*
%TO.C,U3*%
X149387500Y-100550000D03*
X149387500Y-101500000D03*
X149387500Y-102450000D03*
X147112500Y-102450000D03*
X147112500Y-100550000D03*
%TD*%
D23*
%TO.C,R2*%
X152750000Y-122075000D03*
X152750000Y-120425000D03*
%TD*%
D24*
%TO.C,C13*%
X151600000Y-100587500D03*
X151600000Y-102412500D03*
%TD*%
D15*
%TO.C,R1*%
X153325000Y-106750000D03*
X151675000Y-106750000D03*
%TD*%
D14*
%TO.C,C16*%
X142800000Y-129200000D03*
X142800000Y-130850000D03*
%TD*%
D25*
%TO.C,U4*%
X145025000Y-131905000D03*
X145025000Y-130635000D03*
X145025000Y-129365000D03*
X145025000Y-128095000D03*
X149975000Y-128095000D03*
X149975000Y-129365000D03*
X149975000Y-130635000D03*
X149975000Y-131905000D03*
%TD*%
D23*
%TO.C,R13*%
X152500000Y-129325000D03*
X152500000Y-127675000D03*
%TD*%
D15*
%TO.C,R8*%
X157075000Y-105250000D03*
X155425000Y-105250000D03*
%TD*%
D14*
%TO.C,R3*%
X149750000Y-120425000D03*
X149750000Y-122075000D03*
%TD*%
D23*
%TO.C,C11*%
X160000000Y-105075000D03*
X160000000Y-103425000D03*
%TD*%
%TO.C,R5*%
X145000000Y-100825000D03*
X145000000Y-99175000D03*
%TD*%
%TO.C,R12*%
X152500000Y-132825000D03*
X152500000Y-131175000D03*
%TD*%
M02*
