%TF.GenerationSoftware,KiCad,Pcbnew,7.0.11-rc3*%
%TF.CreationDate,2025-03-16T23:25:47+08:00*%
%TF.ProjectId,cooling_DAQ,636f6f6c-696e-4675-9f44-41512e6b6963,rev?*%
%TF.SameCoordinates,Original*%
%TF.FileFunction,Soldermask,Top*%
%TF.FilePolarity,Negative*%
%FSLAX46Y46*%
G04 Gerber Fmt 4.6, Leading zero omitted, Abs format (unit mm)*
G04 Created by KiCad (PCBNEW 7.0.11-rc3) date 2025-03-16 23:25:47*
%MOMM*%
%LPD*%
G01*
G04 APERTURE LIST*
G04 Aperture macros list*
%AMRoundRect*
0 Rectangle with rounded corners*
0 $1 Rounding radius*
0 $2 $3 $4 $5 $6 $7 $8 $9 X,Y pos of 4 corners*
0 Add a 4 corners polygon primitive as box body*
4,1,4,$2,$3,$4,$5,$6,$7,$8,$9,$2,$3,0*
0 Add four circle primitives for the rounded corners*
1,1,$1+$1,$2,$3*
1,1,$1+$1,$4,$5*
1,1,$1+$1,$6,$7*
1,1,$1+$1,$8,$9*
0 Add four rect primitives between the rounded corners*
20,1,$1+$1,$2,$3,$4,$5,0*
20,1,$1+$1,$4,$5,$6,$7,0*
20,1,$1+$1,$6,$7,$8,$9,0*
20,1,$1+$1,$8,$9,$2,$3,0*%
G04 Aperture macros list end*
%ADD10C,5.500000*%
%ADD11RoundRect,0.200000X-0.275000X0.200000X-0.275000X-0.200000X0.275000X-0.200000X0.275000X0.200000X0*%
%ADD12RoundRect,0.225000X0.225000X0.250000X-0.225000X0.250000X-0.225000X-0.250000X0.225000X-0.250000X0*%
%ADD13RoundRect,0.200000X0.275000X-0.200000X0.275000X0.200000X-0.275000X0.200000X-0.275000X-0.200000X0*%
%ADD14RoundRect,0.075000X-0.075000X0.662500X-0.075000X-0.662500X0.075000X-0.662500X0.075000X0.662500X0*%
%ADD15RoundRect,0.075000X-0.662500X0.075000X-0.662500X-0.075000X0.662500X-0.075000X0.662500X0.075000X0*%
%ADD16RoundRect,0.200000X-0.200000X-0.275000X0.200000X-0.275000X0.200000X0.275000X-0.200000X0.275000X0*%
%ADD17RoundRect,0.225000X0.250000X-0.225000X0.250000X0.225000X-0.250000X0.225000X-0.250000X-0.225000X0*%
%ADD18R,2.180000X1.600000*%
%ADD19C,0.650000*%
%ADD20R,0.600000X1.450000*%
%ADD21R,0.300000X1.450000*%
%ADD22O,1.000000X2.100000*%
%ADD23O,1.000000X1.600000*%
%ADD24R,1.400000X1.200000*%
%ADD25RoundRect,0.150000X-0.587500X-0.150000X0.587500X-0.150000X0.587500X0.150000X-0.587500X0.150000X0*%
%ADD26RoundRect,0.225000X-0.250000X0.225000X-0.250000X-0.225000X0.250000X-0.225000X0.250000X0.225000X0*%
%ADD27RoundRect,0.200000X0.200000X0.275000X-0.200000X0.275000X-0.200000X-0.275000X0.200000X-0.275000X0*%
%ADD28RoundRect,0.225000X-0.225000X-0.250000X0.225000X-0.250000X0.225000X0.250000X-0.225000X0.250000X0*%
%ADD29R,1.700000X1.700000*%
%ADD30O,1.700000X1.700000*%
G04 APERTURE END LIST*
D10*
%TO.C,H4*%
X158500000Y-140500000D03*
%TD*%
D11*
%TO.C,R11*%
X154000000Y-135675000D03*
X154000000Y-137325000D03*
%TD*%
D10*
%TO.C,H3*%
X135500000Y-140500000D03*
%TD*%
D12*
%TO.C,C1*%
X140911000Y-105976000D03*
X139361000Y-105976000D03*
%TD*%
D10*
%TO.C,H2*%
X135500000Y-97500000D03*
%TD*%
D13*
%TO.C,C7*%
X148600000Y-114325000D03*
X148600000Y-112675000D03*
%TD*%
D14*
%TO.C,U1*%
X144000000Y-114587500D03*
X143500000Y-114587500D03*
X143000000Y-114587500D03*
X142500000Y-114587500D03*
X142000000Y-114587500D03*
X141500000Y-114587500D03*
X141000000Y-114587500D03*
X140500000Y-114587500D03*
X140000000Y-114587500D03*
X139500000Y-114587500D03*
X139000000Y-114587500D03*
X138500000Y-114587500D03*
D15*
X137087500Y-116000000D03*
X137087500Y-116500000D03*
X137087500Y-117000000D03*
X137087500Y-117500000D03*
X137087500Y-118000000D03*
X137087500Y-118500000D03*
X137087500Y-119000000D03*
X137087500Y-119500000D03*
X137087500Y-120000000D03*
X137087500Y-120500000D03*
X137087500Y-121000000D03*
X137087500Y-121500000D03*
D14*
X138500000Y-122912500D03*
X139000000Y-122912500D03*
X139500000Y-122912500D03*
X140000000Y-122912500D03*
X140500000Y-122912500D03*
X141000000Y-122912500D03*
X141500000Y-122912500D03*
X142000000Y-122912500D03*
X142500000Y-122912500D03*
X143000000Y-122912500D03*
X143500000Y-122912500D03*
X144000000Y-122912500D03*
D15*
X145412500Y-121500000D03*
X145412500Y-121000000D03*
X145412500Y-120500000D03*
X145412500Y-120000000D03*
X145412500Y-119500000D03*
X145412500Y-119000000D03*
X145412500Y-118500000D03*
X145412500Y-118000000D03*
X145412500Y-117500000D03*
X145412500Y-117000000D03*
X145412500Y-116500000D03*
X145412500Y-116000000D03*
%TD*%
D11*
%TO.C,C8*%
X134800000Y-121575000D03*
X134800000Y-123225000D03*
%TD*%
D16*
%TO.C,R16*%
X152675000Y-118250000D03*
X154325000Y-118250000D03*
%TD*%
D17*
%TO.C,C2*%
X137000000Y-109525000D03*
X137000000Y-107975000D03*
%TD*%
D16*
%TO.C,C10*%
X145675000Y-124250000D03*
X147325000Y-124250000D03*
%TD*%
D10*
%TO.C,H1*%
X158500000Y-97500000D03*
%TD*%
D18*
%TO.C,SW1*%
X152340000Y-96000000D03*
X143160000Y-96000000D03*
%TD*%
D19*
%TO.C,J7*%
X144110000Y-137150000D03*
X149890000Y-137150000D03*
D20*
X143750000Y-135705000D03*
X144550000Y-135705000D03*
D21*
X145750000Y-135705000D03*
X146750000Y-135705000D03*
X147250000Y-135705000D03*
X148250000Y-135705000D03*
D20*
X149450000Y-135705000D03*
X150250000Y-135705000D03*
X150250000Y-135705000D03*
X149450000Y-135705000D03*
D21*
X148750000Y-135705000D03*
X147750000Y-135705000D03*
X146250000Y-135705000D03*
X145250000Y-135705000D03*
D20*
X144550000Y-135705000D03*
X143750000Y-135705000D03*
D22*
X142680000Y-136620000D03*
D23*
X142680000Y-140800000D03*
D22*
X151320000Y-136620000D03*
D23*
X151320000Y-140800000D03*
%TD*%
D24*
%TO.C,Y1*%
X141350000Y-107908000D03*
X139150000Y-107908000D03*
X139150000Y-109508000D03*
X141350000Y-109508000D03*
%TD*%
D25*
%TO.C,Q1*%
X152312500Y-114300000D03*
X152312500Y-116200000D03*
X154187500Y-115250000D03*
%TD*%
D26*
%TO.C,C4*%
X149400000Y-106475000D03*
X149400000Y-108025000D03*
%TD*%
D27*
%TO.C,C9*%
X139027000Y-112250000D03*
X137377000Y-112250000D03*
%TD*%
D11*
%TO.C,R10*%
X140500000Y-134425000D03*
X140500000Y-136075000D03*
%TD*%
D24*
%TO.C,Y2*%
X144900000Y-108550000D03*
X147100000Y-108550000D03*
X147100000Y-106950000D03*
X144900000Y-106950000D03*
%TD*%
D13*
%TO.C,C5*%
X147000000Y-114325000D03*
X147000000Y-112675000D03*
%TD*%
D11*
%TO.C,C6*%
X147854000Y-116250000D03*
X147854000Y-117900000D03*
%TD*%
D28*
%TO.C,C3*%
X145386000Y-110550000D03*
X146936000Y-110550000D03*
%TD*%
D29*
%TO.C,J1*%
X159790000Y-108510000D03*
D30*
X157250000Y-108510000D03*
X159790000Y-111050000D03*
X157250000Y-111050000D03*
X159790000Y-113590000D03*
X157250000Y-113590000D03*
X159790000Y-116130000D03*
X157250000Y-116130000D03*
X159790000Y-118670000D03*
X157250000Y-118670000D03*
X159790000Y-121210000D03*
X157250000Y-121210000D03*
X159790000Y-123750000D03*
X157250000Y-123750000D03*
X159790000Y-126290000D03*
X157250000Y-126290000D03*
X159790000Y-128830000D03*
X157250000Y-128830000D03*
X159790000Y-131370000D03*
X157250000Y-131370000D03*
%TD*%
M02*
