%TF.GenerationSoftware,KiCad,Pcbnew,7.0.11-rc3*%
%TF.CreationDate,2025-03-16T23:27:26+08:00*%
%TF.ProjectId,fuse_box,66757365-5f62-46f7-982e-6b696361645f,rev?*%
%TF.SameCoordinates,Original*%
%TF.FileFunction,Copper,L2,Bot*%
%TF.FilePolarity,Positive*%
%FSLAX46Y46*%
G04 Gerber Fmt 4.6, Leading zero omitted, Abs format (unit mm)*
G04 Created by KiCad (PCBNEW 7.0.11-rc3) date 2025-03-16 23:27:26*
%MOMM*%
%LPD*%
G01*
G04 APERTURE LIST*
G04 Aperture macros list*
%AMRoundRect*
0 Rectangle with rounded corners*
0 $1 Rounding radius*
0 $2 $3 $4 $5 $6 $7 $8 $9 X,Y pos of 4 corners*
0 Add a 4 corners polygon primitive as box body*
4,1,4,$2,$3,$4,$5,$6,$7,$8,$9,$2,$3,0*
0 Add four circle primitives for the rounded corners*
1,1,$1+$1,$2,$3*
1,1,$1+$1,$4,$5*
1,1,$1+$1,$6,$7*
1,1,$1+$1,$8,$9*
0 Add four rect primitives between the rounded corners*
20,1,$1+$1,$2,$3,$4,$5,0*
20,1,$1+$1,$4,$5,$6,$7,0*
20,1,$1+$1,$6,$7,$8,$9,0*
20,1,$1+$1,$8,$9,$2,$3,0*%
G04 Aperture macros list end*
%TA.AperFunction,ComponentPad*%
%ADD10C,5.700000*%
%TD*%
%TA.AperFunction,ComponentPad*%
%ADD11C,3.500000*%
%TD*%
%TA.AperFunction,ComponentPad*%
%ADD12RoundRect,1.500000X1.500000X1.500000X-1.500000X1.500000X-1.500000X-1.500000X1.500000X-1.500000X0*%
%TD*%
%TA.AperFunction,ComponentPad*%
%ADD13C,6.000000*%
%TD*%
%TA.AperFunction,ComponentPad*%
%ADD14C,1.500000*%
%TD*%
%TA.AperFunction,ComponentPad*%
%ADD15O,1.700000X1.700000*%
%TD*%
%TA.AperFunction,ViaPad*%
%ADD16C,0.600000*%
%TD*%
%TA.AperFunction,Conductor*%
%ADD17C,0.200000*%
%TD*%
%TA.AperFunction,Conductor*%
%ADD18C,0.400000*%
%TD*%
G04 APERTURE END LIST*
D10*
%TO.P,H3,1,1*%
%TO.N,GND*%
X131300000Y-40100000D03*
%TD*%
D11*
%TO.P,F6,1*%
%TO.N,+15V*%
X93630000Y-61800000D03*
%TO.P,F6,2*%
%TO.N,P6*%
X93630000Y-71000000D03*
%TD*%
D12*
%TO.P,J1,1,Pin_1*%
%TO.N,VDC*%
X88400000Y-48400000D03*
D13*
%TO.P,J1,2,Pin_2*%
%TO.N,GND*%
X81200000Y-48400000D03*
%TD*%
D11*
%TO.P,F9,1*%
%TO.N,+15V*%
X70980000Y-61800000D03*
%TO.P,F9,2*%
%TO.N,P9*%
X70980000Y-71000000D03*
%TD*%
%TO.P,F5,1*%
%TO.N,+15V*%
X101180000Y-61800000D03*
%TO.P,F5,2*%
%TO.N,P5*%
X101180000Y-71000000D03*
%TD*%
%TO.P,F8,1*%
%TO.N,+15V*%
X78530000Y-61800000D03*
%TO.P,F8,2*%
%TO.N,P8*%
X78530000Y-71000000D03*
%TD*%
D10*
%TO.P,H1,1,1*%
%TO.N,GND*%
X131300000Y-83100000D03*
%TD*%
%TO.P,H2,1,1*%
%TO.N,GND*%
X68300000Y-83100000D03*
%TD*%
D14*
%TO.P,TP1,1,1*%
%TO.N,+15V*%
X123800000Y-53600000D03*
%TD*%
D11*
%TO.P,F1,1*%
%TO.N,+15V*%
X131380000Y-61800000D03*
%TO.P,F1,2*%
%TO.N,P1*%
X131380000Y-71000000D03*
%TD*%
%TO.P,F4,1*%
%TO.N,+15V*%
X108730000Y-61800000D03*
%TO.P,F4,2*%
%TO.N,P4*%
X108730000Y-71000000D03*
%TD*%
%TO.P,F7,1*%
%TO.N,+15V*%
X86080000Y-61800000D03*
%TO.P,F7,2*%
%TO.N,P7*%
X86080000Y-71000000D03*
%TD*%
%TO.P,F2,1*%
%TO.N,+15V*%
X123830000Y-61800000D03*
%TO.P,F2,2*%
%TO.N,P2*%
X123830000Y-71000000D03*
%TD*%
%TO.P,F3,1*%
%TO.N,+15V*%
X116280000Y-61800000D03*
%TO.P,F3,2*%
%TO.N,P3*%
X116280000Y-71000000D03*
%TD*%
D10*
%TO.P,H4,1,1*%
%TO.N,GND*%
X68300000Y-40100000D03*
%TD*%
D15*
%TO.P,J3,1,Pin_1*%
%TO.N,P2*%
X104875000Y-84100000D03*
%TO.P,J3,2,Pin_2*%
%TO.N,P1*%
X104875000Y-81560000D03*
%TO.P,J3,3,Pin_3*%
%TO.N,P4*%
X102335000Y-84100000D03*
%TO.P,J3,4,Pin_4*%
%TO.N,P3*%
X102335000Y-81560000D03*
%TO.P,J3,5,Pin_5*%
%TO.N,P6*%
X99795000Y-84100000D03*
%TO.P,J3,6,Pin_6*%
%TO.N,P5*%
X99795000Y-81560000D03*
%TO.P,J3,7,Pin_7*%
%TO.N,P8*%
X97255000Y-84100000D03*
%TO.P,J3,8,Pin_8*%
%TO.N,P7*%
X97255000Y-81560000D03*
%TO.P,J3,9,Pin_9*%
%TO.N,GND*%
X94715000Y-84100000D03*
%TO.P,J3,10,Pin_10*%
%TO.N,P9*%
X94715000Y-81560000D03*
%TD*%
D16*
%TO.N,VDC*%
X100800000Y-49600000D03*
X101600000Y-50800000D03*
X100050000Y-49600000D03*
X100050000Y-50350000D03*
X100800000Y-51100000D03*
X100800000Y-50350000D03*
X102400000Y-50800000D03*
X100050000Y-51100000D03*
%TO.N,+15V*%
X97800000Y-47750000D03*
X108400000Y-52000000D03*
%TO.N,GND*%
X101600000Y-44000000D03*
X104400000Y-55000000D03*
X102400000Y-44000000D03*
X101600000Y-44800000D03*
X103200000Y-45600000D03*
X102400000Y-44800000D03*
X103600000Y-53400000D03*
X103200000Y-44000000D03*
X104400000Y-53400000D03*
X103200000Y-46400000D03*
X103600000Y-50800000D03*
X103200000Y-44800000D03*
X104400000Y-54200000D03*
%TD*%
D17*
%TO.N,+15V*%
X102150000Y-47750000D02*
X97800000Y-47750000D01*
X106400000Y-52000000D02*
X102150000Y-47750000D01*
X108400000Y-52000000D02*
X106400000Y-52000000D01*
D18*
%TO.N,P1*%
X120805000Y-81575000D02*
X104875000Y-81575000D01*
X131380000Y-71000000D02*
X120805000Y-81575000D01*
%TO.N,P5*%
X101180000Y-80190000D02*
X99795000Y-81575000D01*
X101180000Y-71000000D02*
X101180000Y-80190000D01*
%TO.N,P3*%
X112910000Y-71000000D02*
X102335000Y-81575000D01*
X116280000Y-71000000D02*
X112910000Y-71000000D01*
%TO.N,P7*%
X97255000Y-81575000D02*
X86680000Y-71000000D01*
X86680000Y-71000000D02*
X86080000Y-71000000D01*
%TO.N,P9*%
X70980000Y-71000000D02*
X81555000Y-81575000D01*
X81555000Y-81575000D02*
X94715000Y-81575000D01*
%TD*%
%TA.AperFunction,Conductor*%
%TO.N,GND*%
G36*
X103207841Y-37120185D02*
G01*
X103237630Y-37147038D01*
X103572828Y-37566035D01*
X103599336Y-37630681D01*
X103600000Y-37643497D01*
X103600000Y-48404956D01*
X103580315Y-48471995D01*
X103527511Y-48517750D01*
X103458353Y-48527694D01*
X103394797Y-48498669D01*
X103388319Y-48492637D01*
X102432637Y-47536955D01*
X102416511Y-47517098D01*
X102411437Y-47509331D01*
X102388524Y-47491497D01*
X102378248Y-47482422D01*
X102377309Y-47481627D01*
X102377307Y-47481625D01*
X102361651Y-47470447D01*
X102357544Y-47467385D01*
X102351838Y-47462943D01*
X102319126Y-47437483D01*
X102319124Y-47437482D01*
X102312640Y-47433973D01*
X102306067Y-47430759D01*
X102259409Y-47416868D01*
X102254532Y-47415306D01*
X102208484Y-47399498D01*
X102201287Y-47398297D01*
X102193951Y-47397382D01*
X102145332Y-47399394D01*
X102140207Y-47399500D01*
X98286092Y-47399500D01*
X98219053Y-47379815D01*
X98199587Y-47361913D01*
X98198372Y-47363129D01*
X98192627Y-47357384D01*
X98192621Y-47357379D01*
X98077625Y-47269139D01*
X98077624Y-47269138D01*
X98077622Y-47269137D01*
X97943712Y-47213671D01*
X97943710Y-47213670D01*
X97943709Y-47213670D01*
X97871854Y-47204210D01*
X97800001Y-47194750D01*
X97799999Y-47194750D01*
X97656291Y-47213670D01*
X97656287Y-47213671D01*
X97522377Y-47269137D01*
X97407379Y-47357379D01*
X97319137Y-47472377D01*
X97263671Y-47606287D01*
X97263670Y-47606291D01*
X97244750Y-47749999D01*
X97244750Y-47750000D01*
X97263670Y-47893708D01*
X97263671Y-47893712D01*
X97319137Y-48027622D01*
X97319138Y-48027624D01*
X97319139Y-48027625D01*
X97407379Y-48142621D01*
X97522375Y-48230861D01*
X97656291Y-48286330D01*
X97783280Y-48303048D01*
X97799999Y-48305250D01*
X97800000Y-48305250D01*
X97800001Y-48305250D01*
X97814977Y-48303278D01*
X97943709Y-48286330D01*
X98077625Y-48230861D01*
X98192621Y-48142621D01*
X98192623Y-48142617D01*
X98192627Y-48142615D01*
X98198372Y-48136871D01*
X98200888Y-48139387D01*
X98244183Y-48107797D01*
X98286092Y-48100500D01*
X101953456Y-48100500D01*
X102020495Y-48120185D01*
X102041137Y-48136819D01*
X102638105Y-48733787D01*
X102671590Y-48795110D01*
X102666606Y-48864802D01*
X102624734Y-48920735D01*
X102559270Y-48945152D01*
X102490997Y-48930300D01*
X102481275Y-48923805D01*
X102481094Y-48924082D01*
X102476002Y-48920746D01*
X102475997Y-48920743D01*
X102475993Y-48920740D01*
X102387662Y-48874535D01*
X102387659Y-48874534D01*
X102320624Y-48854850D01*
X102320616Y-48854848D01*
X102248639Y-48844500D01*
X102248638Y-48844500D01*
X92957194Y-48844500D01*
X92890155Y-48824815D01*
X92869513Y-48808181D01*
X92591819Y-48530487D01*
X92558334Y-48469164D01*
X92555500Y-48442806D01*
X92555500Y-45651360D01*
X92555345Y-45648486D01*
X92554036Y-45624048D01*
X92551202Y-45597690D01*
X92521413Y-45502556D01*
X92487928Y-45441233D01*
X92444347Y-45383015D01*
X92444342Y-45383010D01*
X92444334Y-45383001D01*
X92016998Y-44955666D01*
X92016997Y-44955665D01*
X92016985Y-44955653D01*
X91996635Y-44937374D01*
X91996629Y-44937369D01*
X91996620Y-44937361D01*
X91975999Y-44920744D01*
X91975996Y-44920742D01*
X91975993Y-44920740D01*
X91887662Y-44874535D01*
X91887659Y-44874534D01*
X91820624Y-44854850D01*
X91820616Y-44854848D01*
X91748639Y-44844500D01*
X91748638Y-44844500D01*
X85851362Y-44844500D01*
X85851361Y-44844500D01*
X85824065Y-44845963D01*
X85824060Y-44845963D01*
X85824048Y-44845964D01*
X85824040Y-44845964D01*
X85824011Y-44845967D01*
X85797689Y-44848797D01*
X85797687Y-44848798D01*
X85702558Y-44878586D01*
X85702548Y-44878590D01*
X85641238Y-44912068D01*
X85641230Y-44912073D01*
X85583019Y-44955649D01*
X85583001Y-44955665D01*
X85155666Y-45383001D01*
X85155638Y-45383031D01*
X85137361Y-45403379D01*
X85120744Y-45424000D01*
X85120740Y-45424005D01*
X85120740Y-45424007D01*
X85111727Y-45441238D01*
X85074534Y-45512340D01*
X85054850Y-45579375D01*
X85054848Y-45579383D01*
X85044500Y-45651360D01*
X85044500Y-51048639D01*
X85045963Y-51075934D01*
X85045967Y-51075988D01*
X85048797Y-51102310D01*
X85048798Y-51102312D01*
X85078586Y-51197441D01*
X85078590Y-51197451D01*
X85112068Y-51258761D01*
X85112073Y-51258769D01*
X85155649Y-51316980D01*
X85155665Y-51316998D01*
X85446047Y-51607379D01*
X85583015Y-51744347D01*
X85603365Y-51762626D01*
X85603371Y-51762631D01*
X85603379Y-51762638D01*
X85624000Y-51779255D01*
X85624002Y-51779256D01*
X85624007Y-51779260D01*
X85712338Y-51825465D01*
X85779377Y-51845150D01*
X85779381Y-51845150D01*
X85779383Y-51845151D01*
X85791014Y-51846823D01*
X85851362Y-51855500D01*
X85851363Y-51855500D01*
X102248639Y-51855500D01*
X102250075Y-51855422D01*
X102275952Y-51854036D01*
X102302310Y-51851202D01*
X102397444Y-51821413D01*
X102458767Y-51787928D01*
X102516985Y-51744347D01*
X102944347Y-51316985D01*
X102962626Y-51296635D01*
X102979260Y-51275993D01*
X103025465Y-51187662D01*
X103045150Y-51120623D01*
X103055500Y-51048638D01*
X103055500Y-49651362D01*
X103054036Y-49624048D01*
X103051202Y-49597690D01*
X103021413Y-49502556D01*
X102987928Y-49441233D01*
X102962070Y-49406690D01*
X102937654Y-49341228D01*
X102952506Y-49272955D01*
X103001911Y-49223550D01*
X103070184Y-49208698D01*
X103135648Y-49233115D01*
X103149019Y-49244701D01*
X103563681Y-49659363D01*
X103597166Y-49720686D01*
X103600000Y-49747044D01*
X103600000Y-52833333D01*
X106920000Y-55600000D01*
X120300000Y-55600000D01*
X121300000Y-54600000D01*
X121300000Y-53600000D01*
X122794659Y-53600000D01*
X122813975Y-53796129D01*
X122871188Y-53984733D01*
X122964086Y-54158532D01*
X122964090Y-54158539D01*
X123089116Y-54310883D01*
X123241460Y-54435909D01*
X123241467Y-54435913D01*
X123415266Y-54528811D01*
X123415269Y-54528811D01*
X123415273Y-54528814D01*
X123603868Y-54586024D01*
X123800000Y-54605341D01*
X123996132Y-54586024D01*
X124184727Y-54528814D01*
X124358538Y-54435910D01*
X124510883Y-54310883D01*
X124635910Y-54158538D01*
X124728814Y-53984727D01*
X124786024Y-53796132D01*
X124805341Y-53600000D01*
X124786024Y-53403868D01*
X124728814Y-53215273D01*
X124728811Y-53215269D01*
X124728811Y-53215266D01*
X124635913Y-53041467D01*
X124635909Y-53041460D01*
X124510883Y-52889116D01*
X124358539Y-52764090D01*
X124358532Y-52764086D01*
X124184733Y-52671188D01*
X124184727Y-52671186D01*
X123996132Y-52613976D01*
X123996129Y-52613975D01*
X123800000Y-52594659D01*
X123603870Y-52613975D01*
X123415266Y-52671188D01*
X123241467Y-52764086D01*
X123241460Y-52764090D01*
X123089116Y-52889116D01*
X122964090Y-53041460D01*
X122964086Y-53041467D01*
X122871188Y-53215266D01*
X122813975Y-53403870D01*
X122794659Y-53600000D01*
X121300000Y-53600000D01*
X121300000Y-37651362D01*
X121319685Y-37584323D01*
X121336319Y-37563681D01*
X121763181Y-37136819D01*
X121824504Y-37103334D01*
X121850862Y-37100500D01*
X131234108Y-37100500D01*
X131296754Y-37100500D01*
X131303244Y-37100670D01*
X131607046Y-37116592D01*
X131619953Y-37117949D01*
X131739096Y-37136819D01*
X131917209Y-37165028D01*
X131929896Y-37167724D01*
X132220625Y-37245625D01*
X132232965Y-37249635D01*
X132513938Y-37357490D01*
X132525790Y-37362767D01*
X132793968Y-37499411D01*
X132805199Y-37505896D01*
X133057608Y-37669812D01*
X133068109Y-37677441D01*
X133302010Y-37866850D01*
X133311655Y-37875535D01*
X133524464Y-38088344D01*
X133533149Y-38097989D01*
X133722558Y-38331890D01*
X133730187Y-38342391D01*
X133894101Y-38594796D01*
X133900591Y-38606036D01*
X134037231Y-38874206D01*
X134042510Y-38886064D01*
X134150363Y-39167033D01*
X134154374Y-39179376D01*
X134232273Y-39470097D01*
X134234971Y-39482794D01*
X134282050Y-39780046D01*
X134283407Y-39792953D01*
X134299330Y-40096756D01*
X134299500Y-40103246D01*
X134299500Y-83096753D01*
X134299330Y-83103243D01*
X134283407Y-83407046D01*
X134282050Y-83419953D01*
X134234971Y-83717205D01*
X134232273Y-83729902D01*
X134154374Y-84020623D01*
X134150363Y-84032966D01*
X134042510Y-84313935D01*
X134037231Y-84325793D01*
X133900591Y-84593963D01*
X133894101Y-84605203D01*
X133730187Y-84857608D01*
X133722558Y-84868109D01*
X133533149Y-85102010D01*
X133524464Y-85111655D01*
X133311655Y-85324464D01*
X133302010Y-85333149D01*
X133068109Y-85522558D01*
X133057608Y-85530187D01*
X132805203Y-85694101D01*
X132793963Y-85700591D01*
X132525793Y-85837231D01*
X132513935Y-85842510D01*
X132232966Y-85950363D01*
X132220623Y-85954374D01*
X131929902Y-86032273D01*
X131917205Y-86034971D01*
X131619953Y-86082050D01*
X131607046Y-86083407D01*
X131303244Y-86099330D01*
X131296754Y-86099500D01*
X68303246Y-86099500D01*
X68296756Y-86099330D01*
X67992953Y-86083407D01*
X67980046Y-86082050D01*
X67682794Y-86034971D01*
X67670097Y-86032273D01*
X67379376Y-85954374D01*
X67367033Y-85950363D01*
X67086064Y-85842510D01*
X67074206Y-85837231D01*
X66806036Y-85700591D01*
X66794796Y-85694101D01*
X66542391Y-85530187D01*
X66531890Y-85522558D01*
X66297989Y-85333149D01*
X66288344Y-85324464D01*
X66075535Y-85111655D01*
X66066850Y-85102010D01*
X65877441Y-84868109D01*
X65869812Y-84857608D01*
X65861351Y-84844579D01*
X65705896Y-84605199D01*
X65699408Y-84593963D01*
X65562768Y-84325793D01*
X65557489Y-84313935D01*
X65553323Y-84303083D01*
X65475367Y-84100000D01*
X96149785Y-84100000D01*
X96168602Y-84303082D01*
X96224417Y-84499247D01*
X96224422Y-84499260D01*
X96315327Y-84681821D01*
X96438237Y-84844581D01*
X96588958Y-84981980D01*
X96588960Y-84981982D01*
X96688141Y-85043392D01*
X96762363Y-85089348D01*
X96952544Y-85163024D01*
X97153024Y-85200500D01*
X97153026Y-85200500D01*
X97356974Y-85200500D01*
X97356976Y-85200500D01*
X97557456Y-85163024D01*
X97747637Y-85089348D01*
X97921041Y-84981981D01*
X98071764Y-84844579D01*
X98194673Y-84681821D01*
X98285582Y-84499250D01*
X98341397Y-84303083D01*
X98360215Y-84100000D01*
X98689785Y-84100000D01*
X98708602Y-84303082D01*
X98764417Y-84499247D01*
X98764422Y-84499260D01*
X98855327Y-84681821D01*
X98978237Y-84844581D01*
X99128958Y-84981980D01*
X99128960Y-84981982D01*
X99228141Y-85043392D01*
X99302363Y-85089348D01*
X99492544Y-85163024D01*
X99693024Y-85200500D01*
X99693026Y-85200500D01*
X99896974Y-85200500D01*
X99896976Y-85200500D01*
X100097456Y-85163024D01*
X100287637Y-85089348D01*
X100461041Y-84981981D01*
X100611764Y-84844579D01*
X100734673Y-84681821D01*
X100825582Y-84499250D01*
X100881397Y-84303083D01*
X100900215Y-84100000D01*
X101229785Y-84100000D01*
X101248602Y-84303082D01*
X101304417Y-84499247D01*
X101304422Y-84499260D01*
X101395327Y-84681821D01*
X101518237Y-84844581D01*
X101668958Y-84981980D01*
X101668960Y-84981982D01*
X101768141Y-85043392D01*
X101842363Y-85089348D01*
X102032544Y-85163024D01*
X102233024Y-85200500D01*
X102233026Y-85200500D01*
X102436974Y-85200500D01*
X102436976Y-85200500D01*
X102637456Y-85163024D01*
X102827637Y-85089348D01*
X103001041Y-84981981D01*
X103151764Y-84844579D01*
X103274673Y-84681821D01*
X103365582Y-84499250D01*
X103421397Y-84303083D01*
X103440215Y-84100000D01*
X103769785Y-84100000D01*
X103788602Y-84303082D01*
X103844417Y-84499247D01*
X103844422Y-84499260D01*
X103935327Y-84681821D01*
X104058237Y-84844581D01*
X104208958Y-84981980D01*
X104208960Y-84981982D01*
X104308141Y-85043392D01*
X104382363Y-85089348D01*
X104572544Y-85163024D01*
X104773024Y-85200500D01*
X104773026Y-85200500D01*
X104976974Y-85200500D01*
X104976976Y-85200500D01*
X105177456Y-85163024D01*
X105367637Y-85089348D01*
X105541041Y-84981981D01*
X105691764Y-84844579D01*
X105814673Y-84681821D01*
X105905582Y-84499250D01*
X105961397Y-84303083D01*
X105980215Y-84100000D01*
X105961397Y-83896917D01*
X105905582Y-83700750D01*
X105881947Y-83653285D01*
X105861272Y-83611764D01*
X105814673Y-83518179D01*
X105691764Y-83355421D01*
X105691762Y-83355418D01*
X105541041Y-83218019D01*
X105541039Y-83218017D01*
X105367642Y-83110655D01*
X105367635Y-83110651D01*
X105272546Y-83073814D01*
X105177456Y-83036976D01*
X104976976Y-82999500D01*
X104773024Y-82999500D01*
X104572544Y-83036976D01*
X104572541Y-83036976D01*
X104572541Y-83036977D01*
X104382364Y-83110651D01*
X104382357Y-83110655D01*
X104208960Y-83218017D01*
X104208958Y-83218019D01*
X104058237Y-83355418D01*
X103935327Y-83518178D01*
X103844422Y-83700739D01*
X103844417Y-83700752D01*
X103788602Y-83896917D01*
X103769785Y-84099999D01*
X103769785Y-84100000D01*
X103440215Y-84100000D01*
X103421397Y-83896917D01*
X103365582Y-83700750D01*
X103341947Y-83653285D01*
X103321272Y-83611764D01*
X103274673Y-83518179D01*
X103151764Y-83355421D01*
X103151762Y-83355418D01*
X103001041Y-83218019D01*
X103001039Y-83218017D01*
X102827642Y-83110655D01*
X102827635Y-83110651D01*
X102732546Y-83073814D01*
X102637456Y-83036976D01*
X102436976Y-82999500D01*
X102233024Y-82999500D01*
X102032544Y-83036976D01*
X102032541Y-83036976D01*
X102032541Y-83036977D01*
X101842364Y-83110651D01*
X101842357Y-83110655D01*
X101668960Y-83218017D01*
X101668958Y-83218019D01*
X101518237Y-83355418D01*
X101395327Y-83518178D01*
X101304422Y-83700739D01*
X101304417Y-83700752D01*
X101248602Y-83896917D01*
X101229785Y-84099999D01*
X101229785Y-84100000D01*
X100900215Y-84100000D01*
X100881397Y-83896917D01*
X100825582Y-83700750D01*
X100801947Y-83653285D01*
X100781272Y-83611764D01*
X100734673Y-83518179D01*
X100611764Y-83355421D01*
X100611762Y-83355418D01*
X100461041Y-83218019D01*
X100461039Y-83218017D01*
X100287642Y-83110655D01*
X100287635Y-83110651D01*
X100192546Y-83073814D01*
X100097456Y-83036976D01*
X99896976Y-82999500D01*
X99693024Y-82999500D01*
X99492544Y-83036976D01*
X99492541Y-83036976D01*
X99492541Y-83036977D01*
X99302364Y-83110651D01*
X99302357Y-83110655D01*
X99128960Y-83218017D01*
X99128958Y-83218019D01*
X98978237Y-83355418D01*
X98855327Y-83518178D01*
X98764422Y-83700739D01*
X98764417Y-83700752D01*
X98708602Y-83896917D01*
X98689785Y-84099999D01*
X98689785Y-84100000D01*
X98360215Y-84100000D01*
X98341397Y-83896917D01*
X98285582Y-83700750D01*
X98261947Y-83653285D01*
X98241272Y-83611764D01*
X98194673Y-83518179D01*
X98071764Y-83355421D01*
X98071762Y-83355418D01*
X97921041Y-83218019D01*
X97921039Y-83218017D01*
X97747642Y-83110655D01*
X97747635Y-83110651D01*
X97652546Y-83073814D01*
X97557456Y-83036976D01*
X97356976Y-82999500D01*
X97153024Y-82999500D01*
X96952544Y-83036976D01*
X96952541Y-83036976D01*
X96952541Y-83036977D01*
X96762364Y-83110651D01*
X96762357Y-83110655D01*
X96588960Y-83218017D01*
X96588958Y-83218019D01*
X96438237Y-83355418D01*
X96315327Y-83518178D01*
X96224422Y-83700739D01*
X96224417Y-83700752D01*
X96168602Y-83896917D01*
X96149785Y-84099999D01*
X96149785Y-84100000D01*
X65475367Y-84100000D01*
X65449635Y-84032965D01*
X65445625Y-84020623D01*
X65367726Y-83729902D01*
X65365028Y-83717205D01*
X65317949Y-83419953D01*
X65316592Y-83407046D01*
X65300670Y-83103243D01*
X65300500Y-83096753D01*
X65300500Y-71000001D01*
X68974390Y-71000001D01*
X68994804Y-71285433D01*
X69055628Y-71565037D01*
X69055630Y-71565043D01*
X69055631Y-71565046D01*
X69060984Y-71579398D01*
X69155635Y-71833166D01*
X69292770Y-72084309D01*
X69292775Y-72084317D01*
X69464254Y-72313387D01*
X69464270Y-72313405D01*
X69666594Y-72515729D01*
X69666612Y-72515745D01*
X69895682Y-72687224D01*
X69895690Y-72687229D01*
X70146833Y-72824364D01*
X70146832Y-72824364D01*
X70146836Y-72824365D01*
X70146839Y-72824367D01*
X70414954Y-72924369D01*
X70414960Y-72924370D01*
X70414962Y-72924371D01*
X70694566Y-72985195D01*
X70694568Y-72985195D01*
X70694572Y-72985196D01*
X70948220Y-73003337D01*
X70979999Y-73005610D01*
X70980000Y-73005610D01*
X70980001Y-73005610D01*
X71008595Y-73003564D01*
X71265428Y-72985196D01*
X71489658Y-72936418D01*
X71545037Y-72924371D01*
X71545037Y-72924370D01*
X71545046Y-72924369D01*
X71813161Y-72824367D01*
X71960730Y-72743786D01*
X72028999Y-72728936D01*
X72094464Y-72753352D01*
X72107835Y-72764939D01*
X81213634Y-81870738D01*
X81222899Y-81881105D01*
X81245121Y-81908970D01*
X81292335Y-81941160D01*
X81296117Y-81943843D01*
X81342121Y-81977795D01*
X81349672Y-81981785D01*
X81357322Y-81985468D01*
X81357327Y-81985472D01*
X81411965Y-82002325D01*
X81416353Y-82003769D01*
X81459486Y-82018862D01*
X81470300Y-82022646D01*
X81478688Y-82024232D01*
X81487095Y-82025500D01*
X81487098Y-82025500D01*
X81544261Y-82025500D01*
X81548898Y-82025587D01*
X81606009Y-82027724D01*
X81606009Y-82027723D01*
X81606010Y-82027724D01*
X81606010Y-82027723D01*
X81615243Y-82026684D01*
X81615336Y-82027513D01*
X81630636Y-82025500D01*
X93640629Y-82025500D01*
X93707668Y-82045185D01*
X93751627Y-82094226D01*
X93775327Y-82141821D01*
X93775329Y-82141823D01*
X93898237Y-82304581D01*
X94048958Y-82441980D01*
X94048960Y-82441982D01*
X94148141Y-82503392D01*
X94222363Y-82549348D01*
X94412544Y-82623024D01*
X94613024Y-82660500D01*
X94613026Y-82660500D01*
X94816974Y-82660500D01*
X94816976Y-82660500D01*
X95017456Y-82623024D01*
X95207637Y-82549348D01*
X95381041Y-82441981D01*
X95531764Y-82304579D01*
X95654673Y-82141821D01*
X95745582Y-81959250D01*
X95801397Y-81763083D01*
X95820215Y-81560000D01*
X95801397Y-81356917D01*
X95745582Y-81160750D01*
X95727976Y-81125393D01*
X95693309Y-81055771D01*
X95654673Y-80978179D01*
X95601130Y-80907277D01*
X95576439Y-80841917D01*
X95591004Y-80773582D01*
X95640201Y-80723969D01*
X95708411Y-80708831D01*
X95773978Y-80732973D01*
X95787766Y-80744870D01*
X96168289Y-81125393D01*
X96201774Y-81186716D01*
X96199875Y-81247005D01*
X96175307Y-81333352D01*
X96168602Y-81356920D01*
X96149785Y-81559999D01*
X96149785Y-81560000D01*
X96168602Y-81763082D01*
X96224417Y-81959247D01*
X96224422Y-81959260D01*
X96315327Y-82141821D01*
X96438237Y-82304581D01*
X96588958Y-82441980D01*
X96588960Y-82441982D01*
X96688141Y-82503392D01*
X96762363Y-82549348D01*
X96952544Y-82623024D01*
X97153024Y-82660500D01*
X97153026Y-82660500D01*
X97356974Y-82660500D01*
X97356976Y-82660500D01*
X97557456Y-82623024D01*
X97747637Y-82549348D01*
X97921041Y-82441981D01*
X98071764Y-82304579D01*
X98194673Y-82141821D01*
X98285582Y-81959250D01*
X98341397Y-81763083D01*
X98360215Y-81560000D01*
X98689785Y-81560000D01*
X98708602Y-81763082D01*
X98764417Y-81959247D01*
X98764422Y-81959260D01*
X98855327Y-82141821D01*
X98978237Y-82304581D01*
X99128958Y-82441980D01*
X99128960Y-82441982D01*
X99228141Y-82503392D01*
X99302363Y-82549348D01*
X99492544Y-82623024D01*
X99693024Y-82660500D01*
X99693026Y-82660500D01*
X99896974Y-82660500D01*
X99896976Y-82660500D01*
X100097456Y-82623024D01*
X100287637Y-82549348D01*
X100461041Y-82441981D01*
X100611764Y-82304579D01*
X100734673Y-82141821D01*
X100825582Y-81959250D01*
X100881397Y-81763083D01*
X100900215Y-81560000D01*
X100881397Y-81356917D01*
X100850124Y-81247006D01*
X100850710Y-81177141D01*
X100881707Y-81125394D01*
X101262241Y-80744860D01*
X101323562Y-80711377D01*
X101393254Y-80716361D01*
X101449187Y-80758233D01*
X101473604Y-80823697D01*
X101458752Y-80891970D01*
X101448875Y-80907269D01*
X101395327Y-80978179D01*
X101304422Y-81160739D01*
X101304417Y-81160752D01*
X101248602Y-81356917D01*
X101229785Y-81559999D01*
X101229785Y-81560000D01*
X101248602Y-81763082D01*
X101304417Y-81959247D01*
X101304422Y-81959260D01*
X101395327Y-82141821D01*
X101518237Y-82304581D01*
X101668958Y-82441980D01*
X101668960Y-82441982D01*
X101768141Y-82503392D01*
X101842363Y-82549348D01*
X102032544Y-82623024D01*
X102233024Y-82660500D01*
X102233026Y-82660500D01*
X102436974Y-82660500D01*
X102436976Y-82660500D01*
X102637456Y-82623024D01*
X102827637Y-82549348D01*
X103001041Y-82441981D01*
X103151764Y-82304579D01*
X103274673Y-82141821D01*
X103365582Y-81959250D01*
X103421397Y-81763083D01*
X103440215Y-81560000D01*
X103421397Y-81356917D01*
X103390124Y-81247004D01*
X103390710Y-81177142D01*
X103421707Y-81125395D01*
X103802238Y-80744864D01*
X103863559Y-80711381D01*
X103933251Y-80716365D01*
X103989184Y-80758237D01*
X104013601Y-80823701D01*
X103998749Y-80891974D01*
X103988872Y-80907273D01*
X103935327Y-80978179D01*
X103844422Y-81160739D01*
X103844417Y-81160752D01*
X103788602Y-81356917D01*
X103769785Y-81559999D01*
X103769785Y-81560000D01*
X103788602Y-81763082D01*
X103844417Y-81959247D01*
X103844422Y-81959260D01*
X103935327Y-82141821D01*
X104058237Y-82304581D01*
X104208958Y-82441980D01*
X104208960Y-82441982D01*
X104308141Y-82503392D01*
X104382363Y-82549348D01*
X104572544Y-82623024D01*
X104773024Y-82660500D01*
X104773026Y-82660500D01*
X104976974Y-82660500D01*
X104976976Y-82660500D01*
X105177456Y-82623024D01*
X105367637Y-82549348D01*
X105541041Y-82441981D01*
X105691764Y-82304579D01*
X105814673Y-82141821D01*
X105838372Y-82094226D01*
X105885873Y-82042992D01*
X105949371Y-82025500D01*
X120772738Y-82025500D01*
X120786620Y-82026279D01*
X120790208Y-82026684D01*
X120822033Y-82030270D01*
X120822033Y-82030269D01*
X120822035Y-82030270D01*
X120878236Y-82019635D01*
X120882726Y-82018872D01*
X120939287Y-82010348D01*
X120939291Y-82010345D01*
X120947447Y-82007830D01*
X120955469Y-82005024D01*
X120955470Y-82005023D01*
X120955472Y-82005023D01*
X121006088Y-81978270D01*
X121010093Y-81976248D01*
X121061642Y-81951425D01*
X121061643Y-81951423D01*
X121061645Y-81951423D01*
X121068695Y-81946616D01*
X121075534Y-81941567D01*
X121075538Y-81941566D01*
X121115975Y-81901127D01*
X121119261Y-81897961D01*
X121161194Y-81859055D01*
X121161196Y-81859050D01*
X121166987Y-81851790D01*
X121167643Y-81852313D01*
X121177032Y-81840070D01*
X130252165Y-72764937D01*
X130313486Y-72731454D01*
X130383178Y-72736438D01*
X130399262Y-72743783D01*
X130546839Y-72824367D01*
X130814954Y-72924369D01*
X130814960Y-72924370D01*
X130814962Y-72924371D01*
X131094566Y-72985195D01*
X131094568Y-72985195D01*
X131094572Y-72985196D01*
X131348220Y-73003337D01*
X131379999Y-73005610D01*
X131380000Y-73005610D01*
X131380001Y-73005610D01*
X131408595Y-73003564D01*
X131665428Y-72985196D01*
X131889658Y-72936418D01*
X131945037Y-72924371D01*
X131945037Y-72924370D01*
X131945046Y-72924369D01*
X132213161Y-72824367D01*
X132464315Y-72687226D01*
X132693395Y-72515739D01*
X132895739Y-72313395D01*
X133067226Y-72084315D01*
X133204367Y-71833161D01*
X133304369Y-71565046D01*
X133365196Y-71285428D01*
X133385610Y-71000000D01*
X133365196Y-70714572D01*
X133346672Y-70629420D01*
X133304371Y-70434962D01*
X133304370Y-70434960D01*
X133304369Y-70434954D01*
X133204367Y-70166839D01*
X133067226Y-69915685D01*
X133067224Y-69915682D01*
X132895745Y-69686612D01*
X132895729Y-69686594D01*
X132693405Y-69484270D01*
X132693387Y-69484254D01*
X132464317Y-69312775D01*
X132464309Y-69312770D01*
X132213166Y-69175635D01*
X132213167Y-69175635D01*
X132105915Y-69135632D01*
X131945046Y-69075631D01*
X131945043Y-69075630D01*
X131945037Y-69075628D01*
X131665433Y-69014804D01*
X131380001Y-68994390D01*
X131379999Y-68994390D01*
X131094566Y-69014804D01*
X130814962Y-69075628D01*
X130546833Y-69175635D01*
X130295690Y-69312770D01*
X130295682Y-69312775D01*
X130066612Y-69484254D01*
X130066594Y-69484270D01*
X129864270Y-69686594D01*
X129864254Y-69686612D01*
X129692775Y-69915682D01*
X129692770Y-69915690D01*
X129555635Y-70166833D01*
X129455628Y-70434962D01*
X129394804Y-70714566D01*
X129374390Y-70999998D01*
X129374390Y-71000001D01*
X129394804Y-71285433D01*
X129455628Y-71565037D01*
X129455630Y-71565043D01*
X129455631Y-71565046D01*
X129460984Y-71579398D01*
X129555635Y-71833167D01*
X129636210Y-71980728D01*
X129651062Y-72049001D01*
X129626645Y-72114466D01*
X129615059Y-72127836D01*
X120654716Y-81088181D01*
X120593393Y-81121666D01*
X120567035Y-81124500D01*
X105964309Y-81124500D01*
X105897270Y-81104815D01*
X105853310Y-81055773D01*
X105814673Y-80978179D01*
X105691764Y-80815421D01*
X105691762Y-80815418D01*
X105541041Y-80678019D01*
X105541039Y-80678017D01*
X105367642Y-80570655D01*
X105367635Y-80570651D01*
X105216212Y-80511990D01*
X105177456Y-80496976D01*
X104976976Y-80459500D01*
X104773024Y-80459500D01*
X104572544Y-80496976D01*
X104572541Y-80496976D01*
X104572541Y-80496977D01*
X104382364Y-80570651D01*
X104382357Y-80570655D01*
X104225217Y-80667952D01*
X104157857Y-80686507D01*
X104091157Y-80665699D01*
X104046296Y-80612134D01*
X104037516Y-80542818D01*
X104067605Y-80479759D01*
X104072259Y-80474844D01*
X113060285Y-71486819D01*
X113121608Y-71453334D01*
X113147966Y-71450500D01*
X114230787Y-71450500D01*
X114297826Y-71470185D01*
X114343581Y-71522989D01*
X114351953Y-71548140D01*
X114355629Y-71565039D01*
X114355630Y-71565042D01*
X114355631Y-71565046D01*
X114455633Y-71833161D01*
X114455635Y-71833166D01*
X114592770Y-72084309D01*
X114592775Y-72084317D01*
X114764254Y-72313387D01*
X114764270Y-72313405D01*
X114966594Y-72515729D01*
X114966612Y-72515745D01*
X115195682Y-72687224D01*
X115195690Y-72687229D01*
X115446833Y-72824364D01*
X115446832Y-72824364D01*
X115446836Y-72824365D01*
X115446839Y-72824367D01*
X115714954Y-72924369D01*
X115714960Y-72924370D01*
X115714962Y-72924371D01*
X115994566Y-72985195D01*
X115994568Y-72985195D01*
X115994572Y-72985196D01*
X116248220Y-73003337D01*
X116279999Y-73005610D01*
X116280000Y-73005610D01*
X116280001Y-73005610D01*
X116308595Y-73003564D01*
X116565428Y-72985196D01*
X116789658Y-72936418D01*
X116845037Y-72924371D01*
X116845037Y-72924370D01*
X116845046Y-72924369D01*
X117113161Y-72824367D01*
X117364315Y-72687226D01*
X117593395Y-72515739D01*
X117795739Y-72313395D01*
X117967226Y-72084315D01*
X118104367Y-71833161D01*
X118204369Y-71565046D01*
X118265196Y-71285428D01*
X118285610Y-71000001D01*
X121824390Y-71000001D01*
X121844804Y-71285433D01*
X121905628Y-71565037D01*
X121905630Y-71565043D01*
X121905631Y-71565046D01*
X121910984Y-71579398D01*
X122005635Y-71833166D01*
X122142770Y-72084309D01*
X122142775Y-72084317D01*
X122314254Y-72313387D01*
X122314270Y-72313405D01*
X122516594Y-72515729D01*
X122516612Y-72515745D01*
X122745682Y-72687224D01*
X122745690Y-72687229D01*
X122996833Y-72824364D01*
X122996832Y-72824364D01*
X122996836Y-72824365D01*
X122996839Y-72824367D01*
X123264954Y-72924369D01*
X123264960Y-72924370D01*
X123264962Y-72924371D01*
X123544566Y-72985195D01*
X123544568Y-72985195D01*
X123544572Y-72985196D01*
X123798220Y-73003337D01*
X123829999Y-73005610D01*
X123830000Y-73005610D01*
X123830001Y-73005610D01*
X123858595Y-73003564D01*
X124115428Y-72985196D01*
X124339658Y-72936418D01*
X124395037Y-72924371D01*
X124395037Y-72924370D01*
X124395046Y-72924369D01*
X124663161Y-72824367D01*
X124914315Y-72687226D01*
X125143395Y-72515739D01*
X125345739Y-72313395D01*
X125517226Y-72084315D01*
X125654367Y-71833161D01*
X125754369Y-71565046D01*
X125815196Y-71285428D01*
X125835610Y-71000000D01*
X125815196Y-70714572D01*
X125796672Y-70629420D01*
X125754371Y-70434962D01*
X125754370Y-70434960D01*
X125754369Y-70434954D01*
X125654367Y-70166839D01*
X125517226Y-69915685D01*
X125517224Y-69915682D01*
X125345745Y-69686612D01*
X125345729Y-69686594D01*
X125143405Y-69484270D01*
X125143387Y-69484254D01*
X124914317Y-69312775D01*
X124914309Y-69312770D01*
X124663166Y-69175635D01*
X124663167Y-69175635D01*
X124555915Y-69135632D01*
X124395046Y-69075631D01*
X124395043Y-69075630D01*
X124395037Y-69075628D01*
X124115433Y-69014804D01*
X123830001Y-68994390D01*
X123829999Y-68994390D01*
X123544566Y-69014804D01*
X123264962Y-69075628D01*
X122996833Y-69175635D01*
X122745690Y-69312770D01*
X122745682Y-69312775D01*
X122516612Y-69484254D01*
X122516594Y-69484270D01*
X122314270Y-69686594D01*
X122314254Y-69686612D01*
X122142775Y-69915682D01*
X122142770Y-69915690D01*
X122005635Y-70166833D01*
X121905628Y-70434962D01*
X121844804Y-70714566D01*
X121824390Y-70999998D01*
X121824390Y-71000001D01*
X118285610Y-71000001D01*
X118285610Y-71000000D01*
X118265196Y-70714572D01*
X118246672Y-70629420D01*
X118204371Y-70434962D01*
X118204370Y-70434960D01*
X118204369Y-70434954D01*
X118104367Y-70166839D01*
X117967226Y-69915685D01*
X117967224Y-69915682D01*
X117795745Y-69686612D01*
X117795729Y-69686594D01*
X117593405Y-69484270D01*
X117593387Y-69484254D01*
X117364317Y-69312775D01*
X117364309Y-69312770D01*
X117113166Y-69175635D01*
X117113167Y-69175635D01*
X117005915Y-69135632D01*
X116845046Y-69075631D01*
X116845043Y-69075630D01*
X116845037Y-69075628D01*
X116565433Y-69014804D01*
X116280001Y-68994390D01*
X116279999Y-68994390D01*
X115994566Y-69014804D01*
X115714962Y-69075628D01*
X115446833Y-69175635D01*
X115195690Y-69312770D01*
X115195682Y-69312775D01*
X114966612Y-69484254D01*
X114966594Y-69484270D01*
X114764270Y-69686594D01*
X114764254Y-69686612D01*
X114592775Y-69915682D01*
X114592770Y-69915690D01*
X114455635Y-70166833D01*
X114355629Y-70434960D01*
X114351953Y-70451860D01*
X114318467Y-70513182D01*
X114257144Y-70546667D01*
X114230787Y-70549500D01*
X112942262Y-70549500D01*
X112928379Y-70548720D01*
X112923370Y-70548155D01*
X112892963Y-70544729D01*
X112836810Y-70555354D01*
X112832241Y-70556131D01*
X112775715Y-70564651D01*
X112767532Y-70567175D01*
X112759529Y-70569976D01*
X112708985Y-70596689D01*
X112704848Y-70598777D01*
X112653358Y-70623573D01*
X112646338Y-70628359D01*
X112639460Y-70633435D01*
X112599058Y-70673837D01*
X112595722Y-70677051D01*
X112553804Y-70715946D01*
X112548013Y-70723208D01*
X112547362Y-70722688D01*
X112537967Y-70734928D01*
X102794390Y-80478505D01*
X102733067Y-80511990D01*
X102663375Y-80507006D01*
X102661917Y-80506451D01*
X102637463Y-80496977D01*
X102538644Y-80478505D01*
X102436976Y-80459500D01*
X102233024Y-80459500D01*
X102032544Y-80496976D01*
X102032541Y-80496976D01*
X102032541Y-80496977D01*
X101842364Y-80570651D01*
X101842357Y-80570655D01*
X101687632Y-80666456D01*
X101620271Y-80685011D01*
X101553572Y-80664203D01*
X101508711Y-80610638D01*
X101499931Y-80541322D01*
X101519901Y-80491179D01*
X101527687Y-80479759D01*
X101546191Y-80452617D01*
X101548812Y-80448923D01*
X101582793Y-80402882D01*
X101582793Y-80402879D01*
X101582795Y-80402878D01*
X101586787Y-80395324D01*
X101590471Y-80387675D01*
X101607324Y-80333035D01*
X101608762Y-80328662D01*
X101627646Y-80274699D01*
X101627646Y-80274696D01*
X101629228Y-80266336D01*
X101630500Y-80257899D01*
X101630500Y-80200754D01*
X101630587Y-80196116D01*
X101632725Y-80138990D01*
X101631685Y-80129758D01*
X101632513Y-80129664D01*
X101630500Y-80114361D01*
X101630500Y-73049212D01*
X101650185Y-72982173D01*
X101702989Y-72936418D01*
X101728141Y-72928046D01*
X101745046Y-72924369D01*
X102013161Y-72824367D01*
X102264315Y-72687226D01*
X102493395Y-72515739D01*
X102695739Y-72313395D01*
X102867226Y-72084315D01*
X103004367Y-71833161D01*
X103104369Y-71565046D01*
X103165196Y-71285428D01*
X103185610Y-71000001D01*
X106724390Y-71000001D01*
X106744804Y-71285433D01*
X106805628Y-71565037D01*
X106805630Y-71565043D01*
X106805631Y-71565046D01*
X106810984Y-71579398D01*
X106905635Y-71833166D01*
X107042770Y-72084309D01*
X107042775Y-72084317D01*
X107214254Y-72313387D01*
X107214270Y-72313405D01*
X107416594Y-72515729D01*
X107416612Y-72515745D01*
X107645682Y-72687224D01*
X107645690Y-72687229D01*
X107896833Y-72824364D01*
X107896832Y-72824364D01*
X107896836Y-72824365D01*
X107896839Y-72824367D01*
X108164954Y-72924369D01*
X108164960Y-72924370D01*
X108164962Y-72924371D01*
X108444566Y-72985195D01*
X108444568Y-72985195D01*
X108444572Y-72985196D01*
X108698220Y-73003337D01*
X108729999Y-73005610D01*
X108730000Y-73005610D01*
X108730001Y-73005610D01*
X108758595Y-73003564D01*
X109015428Y-72985196D01*
X109239658Y-72936418D01*
X109295037Y-72924371D01*
X109295037Y-72924370D01*
X109295046Y-72924369D01*
X109563161Y-72824367D01*
X109814315Y-72687226D01*
X110043395Y-72515739D01*
X110245739Y-72313395D01*
X110417226Y-72084315D01*
X110554367Y-71833161D01*
X110654369Y-71565046D01*
X110715196Y-71285428D01*
X110735610Y-71000000D01*
X110715196Y-70714572D01*
X110696672Y-70629420D01*
X110654371Y-70434962D01*
X110654370Y-70434960D01*
X110654369Y-70434954D01*
X110554367Y-70166839D01*
X110417226Y-69915685D01*
X110417224Y-69915682D01*
X110245745Y-69686612D01*
X110245729Y-69686594D01*
X110043405Y-69484270D01*
X110043387Y-69484254D01*
X109814317Y-69312775D01*
X109814309Y-69312770D01*
X109563166Y-69175635D01*
X109563167Y-69175635D01*
X109455915Y-69135632D01*
X109295046Y-69075631D01*
X109295043Y-69075630D01*
X109295037Y-69075628D01*
X109015433Y-69014804D01*
X108730001Y-68994390D01*
X108729999Y-68994390D01*
X108444566Y-69014804D01*
X108164962Y-69075628D01*
X107896833Y-69175635D01*
X107645690Y-69312770D01*
X107645682Y-69312775D01*
X107416612Y-69484254D01*
X107416594Y-69484270D01*
X107214270Y-69686594D01*
X107214254Y-69686612D01*
X107042775Y-69915682D01*
X107042770Y-69915690D01*
X106905635Y-70166833D01*
X106805628Y-70434962D01*
X106744804Y-70714566D01*
X106724390Y-70999998D01*
X106724390Y-71000001D01*
X103185610Y-71000001D01*
X103185610Y-71000000D01*
X103165196Y-70714572D01*
X103146672Y-70629420D01*
X103104371Y-70434962D01*
X103104370Y-70434960D01*
X103104369Y-70434954D01*
X103004367Y-70166839D01*
X102867226Y-69915685D01*
X102867224Y-69915682D01*
X102695745Y-69686612D01*
X102695729Y-69686594D01*
X102493405Y-69484270D01*
X102493387Y-69484254D01*
X102264317Y-69312775D01*
X102264309Y-69312770D01*
X102013166Y-69175635D01*
X102013167Y-69175635D01*
X101905915Y-69135632D01*
X101745046Y-69075631D01*
X101745043Y-69075630D01*
X101745037Y-69075628D01*
X101465433Y-69014804D01*
X101180001Y-68994390D01*
X101179999Y-68994390D01*
X100894566Y-69014804D01*
X100614962Y-69075628D01*
X100346833Y-69175635D01*
X100095690Y-69312770D01*
X100095682Y-69312775D01*
X99866612Y-69484254D01*
X99866594Y-69484270D01*
X99664270Y-69686594D01*
X99664254Y-69686612D01*
X99492775Y-69915682D01*
X99492770Y-69915690D01*
X99355635Y-70166833D01*
X99255628Y-70434962D01*
X99194804Y-70714566D01*
X99174390Y-70999998D01*
X99174390Y-71000001D01*
X99194804Y-71285433D01*
X99255628Y-71565037D01*
X99255630Y-71565043D01*
X99255631Y-71565046D01*
X99260984Y-71579398D01*
X99355635Y-71833166D01*
X99492770Y-72084309D01*
X99492775Y-72084317D01*
X99664254Y-72313387D01*
X99664270Y-72313405D01*
X99866594Y-72515729D01*
X99866612Y-72515745D01*
X100095682Y-72687224D01*
X100095690Y-72687229D01*
X100346833Y-72824364D01*
X100346832Y-72824364D01*
X100346836Y-72824365D01*
X100346839Y-72824367D01*
X100614954Y-72924369D01*
X100631856Y-72928045D01*
X100693179Y-72961529D01*
X100726666Y-73022851D01*
X100729500Y-73049212D01*
X100729500Y-79952034D01*
X100709815Y-80019073D01*
X100693181Y-80039715D01*
X100254390Y-80478505D01*
X100193067Y-80511990D01*
X100123375Y-80507006D01*
X100121917Y-80506451D01*
X100097463Y-80496977D01*
X99998644Y-80478505D01*
X99896976Y-80459500D01*
X99693024Y-80459500D01*
X99492544Y-80496976D01*
X99492541Y-80496976D01*
X99492541Y-80496977D01*
X99302364Y-80570651D01*
X99302357Y-80570655D01*
X99128960Y-80678017D01*
X99128958Y-80678019D01*
X98978237Y-80815418D01*
X98855327Y-80978178D01*
X98764422Y-81160739D01*
X98764417Y-81160752D01*
X98708602Y-81356917D01*
X98689785Y-81559999D01*
X98689785Y-81560000D01*
X98360215Y-81560000D01*
X98341397Y-81356917D01*
X98285582Y-81160750D01*
X98267976Y-81125393D01*
X98233309Y-81055771D01*
X98194673Y-80978179D01*
X98071764Y-80815421D01*
X98071762Y-80815418D01*
X97921041Y-80678019D01*
X97921039Y-80678017D01*
X97747642Y-80570655D01*
X97747635Y-80570651D01*
X97596212Y-80511990D01*
X97557456Y-80496976D01*
X97356976Y-80459500D01*
X97153024Y-80459500D01*
X97051356Y-80478505D01*
X96952537Y-80496977D01*
X96928079Y-80506452D01*
X96858455Y-80512312D01*
X96796716Y-80479600D01*
X96795608Y-80478505D01*
X88027516Y-71710413D01*
X87994031Y-71649090D01*
X87999014Y-71579400D01*
X88004369Y-71565046D01*
X88065196Y-71285428D01*
X88085610Y-71000001D01*
X91624390Y-71000001D01*
X91644804Y-71285433D01*
X91705628Y-71565037D01*
X91705630Y-71565043D01*
X91705631Y-71565046D01*
X91710984Y-71579398D01*
X91805635Y-71833166D01*
X91942770Y-72084309D01*
X91942775Y-72084317D01*
X92114254Y-72313387D01*
X92114270Y-72313405D01*
X92316594Y-72515729D01*
X92316612Y-72515745D01*
X92545682Y-72687224D01*
X92545690Y-72687229D01*
X92796833Y-72824364D01*
X92796832Y-72824364D01*
X92796836Y-72824365D01*
X92796839Y-72824367D01*
X93064954Y-72924369D01*
X93064960Y-72924370D01*
X93064962Y-72924371D01*
X93344566Y-72985195D01*
X93344568Y-72985195D01*
X93344572Y-72985196D01*
X93598220Y-73003337D01*
X93629999Y-73005610D01*
X93630000Y-73005610D01*
X93630001Y-73005610D01*
X93658595Y-73003564D01*
X93915428Y-72985196D01*
X94139658Y-72936418D01*
X94195037Y-72924371D01*
X94195037Y-72924370D01*
X94195046Y-72924369D01*
X94463161Y-72824367D01*
X94714315Y-72687226D01*
X94943395Y-72515739D01*
X95145739Y-72313395D01*
X95317226Y-72084315D01*
X95454367Y-71833161D01*
X95554369Y-71565046D01*
X95615196Y-71285428D01*
X95635610Y-71000000D01*
X95615196Y-70714572D01*
X95596672Y-70629420D01*
X95554371Y-70434962D01*
X95554370Y-70434960D01*
X95554369Y-70434954D01*
X95454367Y-70166839D01*
X95317226Y-69915685D01*
X95317224Y-69915682D01*
X95145745Y-69686612D01*
X95145729Y-69686594D01*
X94943405Y-69484270D01*
X94943387Y-69484254D01*
X94714317Y-69312775D01*
X94714309Y-69312770D01*
X94463166Y-69175635D01*
X94463167Y-69175635D01*
X94355915Y-69135632D01*
X94195046Y-69075631D01*
X94195043Y-69075630D01*
X94195037Y-69075628D01*
X93915433Y-69014804D01*
X93630001Y-68994390D01*
X93629999Y-68994390D01*
X93344566Y-69014804D01*
X93064962Y-69075628D01*
X92796833Y-69175635D01*
X92545690Y-69312770D01*
X92545682Y-69312775D01*
X92316612Y-69484254D01*
X92316594Y-69484270D01*
X92114270Y-69686594D01*
X92114254Y-69686612D01*
X91942775Y-69915682D01*
X91942770Y-69915690D01*
X91805635Y-70166833D01*
X91705628Y-70434962D01*
X91644804Y-70714566D01*
X91624390Y-70999998D01*
X91624390Y-71000001D01*
X88085610Y-71000001D01*
X88085610Y-71000000D01*
X88065196Y-70714572D01*
X88046672Y-70629420D01*
X88004371Y-70434962D01*
X88004370Y-70434960D01*
X88004369Y-70434954D01*
X87904367Y-70166839D01*
X87767226Y-69915685D01*
X87767224Y-69915682D01*
X87595745Y-69686612D01*
X87595729Y-69686594D01*
X87393405Y-69484270D01*
X87393387Y-69484254D01*
X87164317Y-69312775D01*
X87164309Y-69312770D01*
X86913166Y-69175635D01*
X86913167Y-69175635D01*
X86805915Y-69135632D01*
X86645046Y-69075631D01*
X86645043Y-69075630D01*
X86645037Y-69075628D01*
X86365433Y-69014804D01*
X86080001Y-68994390D01*
X86079999Y-68994390D01*
X85794566Y-69014804D01*
X85514962Y-69075628D01*
X85246833Y-69175635D01*
X84995690Y-69312770D01*
X84995682Y-69312775D01*
X84766612Y-69484254D01*
X84766594Y-69484270D01*
X84564270Y-69686594D01*
X84564254Y-69686612D01*
X84392775Y-69915682D01*
X84392770Y-69915690D01*
X84255635Y-70166833D01*
X84155628Y-70434962D01*
X84094804Y-70714566D01*
X84074390Y-70999998D01*
X84074390Y-71000001D01*
X84094804Y-71285433D01*
X84155628Y-71565037D01*
X84155630Y-71565043D01*
X84155631Y-71565046D01*
X84160984Y-71579398D01*
X84255635Y-71833166D01*
X84392770Y-72084309D01*
X84392775Y-72084317D01*
X84564254Y-72313387D01*
X84564270Y-72313405D01*
X84766594Y-72515729D01*
X84766612Y-72515745D01*
X84995682Y-72687224D01*
X84995690Y-72687229D01*
X85246833Y-72824364D01*
X85246832Y-72824364D01*
X85246836Y-72824365D01*
X85246839Y-72824367D01*
X85514954Y-72924369D01*
X85514960Y-72924370D01*
X85514962Y-72924371D01*
X85794566Y-72985195D01*
X85794568Y-72985195D01*
X85794572Y-72985196D01*
X86048220Y-73003337D01*
X86079999Y-73005610D01*
X86080000Y-73005610D01*
X86080001Y-73005610D01*
X86108595Y-73003564D01*
X86365428Y-72985196D01*
X86589658Y-72936418D01*
X86645037Y-72924371D01*
X86645037Y-72924370D01*
X86645046Y-72924369D01*
X86913161Y-72824367D01*
X87164315Y-72687226D01*
X87393395Y-72515739D01*
X87393399Y-72515734D01*
X87394668Y-72514636D01*
X87395183Y-72514400D01*
X87396941Y-72513085D01*
X87397227Y-72513467D01*
X87458222Y-72485606D01*
X87527381Y-72495545D01*
X87563558Y-72520662D01*
X95517738Y-80474842D01*
X95551223Y-80536165D01*
X95546239Y-80605857D01*
X95504367Y-80661790D01*
X95438903Y-80686207D01*
X95370630Y-80671355D01*
X95364780Y-80667950D01*
X95207642Y-80570655D01*
X95207635Y-80570651D01*
X95056212Y-80511990D01*
X95017456Y-80496976D01*
X94816976Y-80459500D01*
X94613024Y-80459500D01*
X94412544Y-80496976D01*
X94412541Y-80496976D01*
X94412541Y-80496977D01*
X94222364Y-80570651D01*
X94222357Y-80570655D01*
X94048960Y-80678017D01*
X94048958Y-80678019D01*
X93898237Y-80815418D01*
X93775329Y-80978176D01*
X93775327Y-80978179D01*
X93736689Y-81055773D01*
X93689189Y-81107008D01*
X93625691Y-81124500D01*
X81792965Y-81124500D01*
X81725926Y-81104815D01*
X81705284Y-81088181D01*
X72744939Y-72127836D01*
X72711454Y-72066513D01*
X72716438Y-71996821D01*
X72723781Y-71980742D01*
X72804367Y-71833161D01*
X72904369Y-71565046D01*
X72965196Y-71285428D01*
X72985610Y-71000001D01*
X76524390Y-71000001D01*
X76544804Y-71285433D01*
X76605628Y-71565037D01*
X76605630Y-71565043D01*
X76605631Y-71565046D01*
X76610984Y-71579398D01*
X76705635Y-71833166D01*
X76842770Y-72084309D01*
X76842775Y-72084317D01*
X77014254Y-72313387D01*
X77014270Y-72313405D01*
X77216594Y-72515729D01*
X77216612Y-72515745D01*
X77445682Y-72687224D01*
X77445690Y-72687229D01*
X77696833Y-72824364D01*
X77696832Y-72824364D01*
X77696836Y-72824365D01*
X77696839Y-72824367D01*
X77964954Y-72924369D01*
X77964960Y-72924370D01*
X77964962Y-72924371D01*
X78244566Y-72985195D01*
X78244568Y-72985195D01*
X78244572Y-72985196D01*
X78498220Y-73003337D01*
X78529999Y-73005610D01*
X78530000Y-73005610D01*
X78530001Y-73005610D01*
X78558595Y-73003564D01*
X78815428Y-72985196D01*
X79039658Y-72936418D01*
X79095037Y-72924371D01*
X79095037Y-72924370D01*
X79095046Y-72924369D01*
X79363161Y-72824367D01*
X79614315Y-72687226D01*
X79843395Y-72515739D01*
X80045739Y-72313395D01*
X80217226Y-72084315D01*
X80354367Y-71833161D01*
X80454369Y-71565046D01*
X80515196Y-71285428D01*
X80535610Y-71000000D01*
X80515196Y-70714572D01*
X80496672Y-70629420D01*
X80454371Y-70434962D01*
X80454370Y-70434960D01*
X80454369Y-70434954D01*
X80354367Y-70166839D01*
X80217226Y-69915685D01*
X80217224Y-69915682D01*
X80045745Y-69686612D01*
X80045729Y-69686594D01*
X79843405Y-69484270D01*
X79843387Y-69484254D01*
X79614317Y-69312775D01*
X79614309Y-69312770D01*
X79363166Y-69175635D01*
X79363167Y-69175635D01*
X79255915Y-69135632D01*
X79095046Y-69075631D01*
X79095043Y-69075630D01*
X79095037Y-69075628D01*
X78815433Y-69014804D01*
X78530001Y-68994390D01*
X78529999Y-68994390D01*
X78244566Y-69014804D01*
X77964962Y-69075628D01*
X77696833Y-69175635D01*
X77445690Y-69312770D01*
X77445682Y-69312775D01*
X77216612Y-69484254D01*
X77216594Y-69484270D01*
X77014270Y-69686594D01*
X77014254Y-69686612D01*
X76842775Y-69915682D01*
X76842770Y-69915690D01*
X76705635Y-70166833D01*
X76605628Y-70434962D01*
X76544804Y-70714566D01*
X76524390Y-70999998D01*
X76524390Y-71000001D01*
X72985610Y-71000001D01*
X72985610Y-71000000D01*
X72965196Y-70714572D01*
X72946672Y-70629420D01*
X72904371Y-70434962D01*
X72904370Y-70434960D01*
X72904369Y-70434954D01*
X72804367Y-70166839D01*
X72667226Y-69915685D01*
X72667224Y-69915682D01*
X72495745Y-69686612D01*
X72495729Y-69686594D01*
X72293405Y-69484270D01*
X72293387Y-69484254D01*
X72064317Y-69312775D01*
X72064309Y-69312770D01*
X71813166Y-69175635D01*
X71813167Y-69175635D01*
X71705915Y-69135632D01*
X71545046Y-69075631D01*
X71545043Y-69075630D01*
X71545037Y-69075628D01*
X71265433Y-69014804D01*
X70980001Y-68994390D01*
X70979999Y-68994390D01*
X70694566Y-69014804D01*
X70414962Y-69075628D01*
X70146833Y-69175635D01*
X69895690Y-69312770D01*
X69895682Y-69312775D01*
X69666612Y-69484254D01*
X69666594Y-69484270D01*
X69464270Y-69686594D01*
X69464254Y-69686612D01*
X69292775Y-69915682D01*
X69292770Y-69915690D01*
X69155635Y-70166833D01*
X69055628Y-70434962D01*
X68994804Y-70714566D01*
X68974390Y-70999998D01*
X68974390Y-71000001D01*
X65300500Y-71000001D01*
X65300500Y-66520190D01*
X68329500Y-66520190D01*
X68369066Y-66757300D01*
X68447116Y-66984652D01*
X68447118Y-66984657D01*
X68561529Y-67196069D01*
X68561533Y-67196075D01*
X68709169Y-67385757D01*
X68709171Y-67385759D01*
X68709175Y-67385764D01*
X68886031Y-67548571D01*
X69087272Y-67680049D01*
X69307409Y-67776610D01*
X69540437Y-67835620D01*
X69720010Y-67850500D01*
X69720014Y-67850500D01*
X69839986Y-67850500D01*
X69839990Y-67850500D01*
X70019563Y-67835620D01*
X70252591Y-67776610D01*
X70472728Y-67680049D01*
X70673969Y-67548571D01*
X70850825Y-67385764D01*
X70998472Y-67196067D01*
X71112882Y-66984656D01*
X71190934Y-66757297D01*
X71230500Y-66520192D01*
X71230500Y-66520190D01*
X75879500Y-66520190D01*
X75919066Y-66757300D01*
X75997116Y-66984652D01*
X75997118Y-66984657D01*
X76111529Y-67196069D01*
X76111533Y-67196075D01*
X76259169Y-67385757D01*
X76259171Y-67385759D01*
X76259175Y-67385764D01*
X76436031Y-67548571D01*
X76637272Y-67680049D01*
X76857409Y-67776610D01*
X77090437Y-67835620D01*
X77270010Y-67850500D01*
X77270014Y-67850500D01*
X77389986Y-67850500D01*
X77389990Y-67850500D01*
X77569563Y-67835620D01*
X77802591Y-67776610D01*
X78022728Y-67680049D01*
X78223969Y-67548571D01*
X78400825Y-67385764D01*
X78548472Y-67196067D01*
X78662882Y-66984656D01*
X78740934Y-66757297D01*
X78780500Y-66520192D01*
X78780500Y-66520190D01*
X83429500Y-66520190D01*
X83469066Y-66757300D01*
X83547116Y-66984652D01*
X83547118Y-66984657D01*
X83661529Y-67196069D01*
X83661533Y-67196075D01*
X83809169Y-67385757D01*
X83809171Y-67385759D01*
X83809175Y-67385764D01*
X83986031Y-67548571D01*
X84187272Y-67680049D01*
X84407409Y-67776610D01*
X84640437Y-67835620D01*
X84820010Y-67850500D01*
X84820014Y-67850500D01*
X84939986Y-67850500D01*
X84939990Y-67850500D01*
X85119563Y-67835620D01*
X85352591Y-67776610D01*
X85572728Y-67680049D01*
X85773969Y-67548571D01*
X85950825Y-67385764D01*
X86098472Y-67196067D01*
X86212882Y-66984656D01*
X86290934Y-66757297D01*
X86330500Y-66520192D01*
X86330500Y-66520190D01*
X90979500Y-66520190D01*
X91019066Y-66757300D01*
X91097116Y-66984652D01*
X91097118Y-66984657D01*
X91211529Y-67196069D01*
X91211533Y-67196075D01*
X91359169Y-67385757D01*
X91359171Y-67385759D01*
X91359175Y-67385764D01*
X91536031Y-67548571D01*
X91737272Y-67680049D01*
X91957409Y-67776610D01*
X92190437Y-67835620D01*
X92370010Y-67850500D01*
X92370014Y-67850500D01*
X92489986Y-67850500D01*
X92489990Y-67850500D01*
X92669563Y-67835620D01*
X92902591Y-67776610D01*
X93122728Y-67680049D01*
X93323969Y-67548571D01*
X93500825Y-67385764D01*
X93648472Y-67196067D01*
X93762882Y-66984656D01*
X93840934Y-66757297D01*
X93880500Y-66520192D01*
X93880500Y-66520190D01*
X98529500Y-66520190D01*
X98569066Y-66757300D01*
X98647116Y-66984652D01*
X98647118Y-66984657D01*
X98761529Y-67196069D01*
X98761533Y-67196075D01*
X98909169Y-67385757D01*
X98909171Y-67385759D01*
X98909175Y-67385764D01*
X99086031Y-67548571D01*
X99287272Y-67680049D01*
X99507409Y-67776610D01*
X99740437Y-67835620D01*
X99920010Y-67850500D01*
X99920014Y-67850500D01*
X100039986Y-67850500D01*
X100039990Y-67850500D01*
X100219563Y-67835620D01*
X100452591Y-67776610D01*
X100672728Y-67680049D01*
X100873969Y-67548571D01*
X101050825Y-67385764D01*
X101198472Y-67196067D01*
X101312882Y-66984656D01*
X101390934Y-66757297D01*
X101430500Y-66520192D01*
X101430500Y-66520190D01*
X106079500Y-66520190D01*
X106119066Y-66757300D01*
X106197116Y-66984652D01*
X106197118Y-66984657D01*
X106311529Y-67196069D01*
X106311533Y-67196075D01*
X106459169Y-67385757D01*
X106459171Y-67385759D01*
X106459175Y-67385764D01*
X106636031Y-67548571D01*
X106837272Y-67680049D01*
X107057409Y-67776610D01*
X107290437Y-67835620D01*
X107470010Y-67850500D01*
X107470014Y-67850500D01*
X107589986Y-67850500D01*
X107589990Y-67850500D01*
X107769563Y-67835620D01*
X108002591Y-67776610D01*
X108222728Y-67680049D01*
X108423969Y-67548571D01*
X108600825Y-67385764D01*
X108748472Y-67196067D01*
X108862882Y-66984656D01*
X108940934Y-66757297D01*
X108980500Y-66520192D01*
X108980500Y-66520190D01*
X113629500Y-66520190D01*
X113669066Y-66757300D01*
X113747116Y-66984652D01*
X113747118Y-66984657D01*
X113861529Y-67196069D01*
X113861533Y-67196075D01*
X114009169Y-67385757D01*
X114009171Y-67385759D01*
X114009175Y-67385764D01*
X114186031Y-67548571D01*
X114387272Y-67680049D01*
X114607409Y-67776610D01*
X114840437Y-67835620D01*
X115020010Y-67850500D01*
X115020014Y-67850500D01*
X115139986Y-67850500D01*
X115139990Y-67850500D01*
X115319563Y-67835620D01*
X115552591Y-67776610D01*
X115772728Y-67680049D01*
X115973969Y-67548571D01*
X116150825Y-67385764D01*
X116298472Y-67196067D01*
X116412882Y-66984656D01*
X116490934Y-66757297D01*
X116530500Y-66520192D01*
X116530500Y-66520190D01*
X121179500Y-66520190D01*
X121219066Y-66757300D01*
X121297116Y-66984652D01*
X121297118Y-66984657D01*
X121411529Y-67196069D01*
X121411533Y-67196075D01*
X121559169Y-67385757D01*
X121559171Y-67385759D01*
X121559175Y-67385764D01*
X121736031Y-67548571D01*
X121937272Y-67680049D01*
X122157409Y-67776610D01*
X122390437Y-67835620D01*
X122570010Y-67850500D01*
X122570014Y-67850500D01*
X122689986Y-67850500D01*
X122689990Y-67850500D01*
X122869563Y-67835620D01*
X123102591Y-67776610D01*
X123322728Y-67680049D01*
X123523969Y-67548571D01*
X123700825Y-67385764D01*
X123848472Y-67196067D01*
X123962882Y-66984656D01*
X124040934Y-66757297D01*
X124080500Y-66520192D01*
X124080500Y-66520190D01*
X128729500Y-66520190D01*
X128769066Y-66757300D01*
X128847116Y-66984652D01*
X128847118Y-66984657D01*
X128961529Y-67196069D01*
X128961533Y-67196075D01*
X129109169Y-67385757D01*
X129109171Y-67385759D01*
X129109175Y-67385764D01*
X129286031Y-67548571D01*
X129487272Y-67680049D01*
X129707409Y-67776610D01*
X129940437Y-67835620D01*
X130120010Y-67850500D01*
X130120014Y-67850500D01*
X130239986Y-67850500D01*
X130239990Y-67850500D01*
X130419563Y-67835620D01*
X130652591Y-67776610D01*
X130872728Y-67680049D01*
X131073969Y-67548571D01*
X131250825Y-67385764D01*
X131398472Y-67196067D01*
X131512882Y-66984656D01*
X131590934Y-66757297D01*
X131630500Y-66520192D01*
X131630500Y-66279808D01*
X131590934Y-66042703D01*
X131512882Y-65815344D01*
X131398472Y-65603933D01*
X131398470Y-65603930D01*
X131398466Y-65603924D01*
X131250830Y-65414242D01*
X131250827Y-65414239D01*
X131250825Y-65414236D01*
X131073969Y-65251429D01*
X131073966Y-65251427D01*
X130872729Y-65119951D01*
X130744757Y-65063817D01*
X130652591Y-65023390D01*
X130652589Y-65023389D01*
X130419559Y-64964379D01*
X130240000Y-64949500D01*
X130239990Y-64949500D01*
X130120010Y-64949500D01*
X130119999Y-64949500D01*
X129940440Y-64964379D01*
X129707410Y-65023389D01*
X129487270Y-65119951D01*
X129286033Y-65251427D01*
X129286029Y-65251430D01*
X129109172Y-65414239D01*
X129109169Y-65414242D01*
X128961533Y-65603924D01*
X128961529Y-65603930D01*
X128847118Y-65815342D01*
X128847116Y-65815347D01*
X128769066Y-66042699D01*
X128729500Y-66279809D01*
X128729500Y-66520190D01*
X124080500Y-66520190D01*
X124080500Y-66279808D01*
X124040934Y-66042703D01*
X123962882Y-65815344D01*
X123848472Y-65603933D01*
X123848470Y-65603930D01*
X123848466Y-65603924D01*
X123700830Y-65414242D01*
X123700827Y-65414239D01*
X123700825Y-65414236D01*
X123523969Y-65251429D01*
X123523966Y-65251427D01*
X123322729Y-65119951D01*
X123194757Y-65063817D01*
X123102591Y-65023390D01*
X123102589Y-65023389D01*
X122869559Y-64964379D01*
X122690000Y-64949500D01*
X122689990Y-64949500D01*
X122570010Y-64949500D01*
X122569999Y-64949500D01*
X122390440Y-64964379D01*
X122157410Y-65023389D01*
X121937270Y-65119951D01*
X121736033Y-65251427D01*
X121736029Y-65251430D01*
X121559172Y-65414239D01*
X121559169Y-65414242D01*
X121411533Y-65603924D01*
X121411529Y-65603930D01*
X121297118Y-65815342D01*
X121297116Y-65815347D01*
X121219066Y-66042699D01*
X121179500Y-66279809D01*
X121179500Y-66520190D01*
X116530500Y-66520190D01*
X116530500Y-66279808D01*
X116490934Y-66042703D01*
X116412882Y-65815344D01*
X116298472Y-65603933D01*
X116298470Y-65603930D01*
X116298466Y-65603924D01*
X116150830Y-65414242D01*
X116150827Y-65414239D01*
X116150825Y-65414236D01*
X115973969Y-65251429D01*
X115973966Y-65251427D01*
X115772729Y-65119951D01*
X115644757Y-65063817D01*
X115552591Y-65023390D01*
X115552589Y-65023389D01*
X115319559Y-64964379D01*
X115140000Y-64949500D01*
X115139990Y-64949500D01*
X115020010Y-64949500D01*
X115019999Y-64949500D01*
X114840440Y-64964379D01*
X114607410Y-65023389D01*
X114387270Y-65119951D01*
X114186033Y-65251427D01*
X114186029Y-65251430D01*
X114009172Y-65414239D01*
X114009169Y-65414242D01*
X113861533Y-65603924D01*
X113861529Y-65603930D01*
X113747118Y-65815342D01*
X113747116Y-65815347D01*
X113669066Y-66042699D01*
X113629500Y-66279809D01*
X113629500Y-66520190D01*
X108980500Y-66520190D01*
X108980500Y-66279808D01*
X108940934Y-66042703D01*
X108862882Y-65815344D01*
X108748472Y-65603933D01*
X108748470Y-65603930D01*
X108748466Y-65603924D01*
X108600830Y-65414242D01*
X108600827Y-65414239D01*
X108600825Y-65414236D01*
X108423969Y-65251429D01*
X108423966Y-65251427D01*
X108222729Y-65119951D01*
X108094757Y-65063817D01*
X108002591Y-65023390D01*
X108002589Y-65023389D01*
X107769559Y-64964379D01*
X107590000Y-64949500D01*
X107589990Y-64949500D01*
X107470010Y-64949500D01*
X107469999Y-64949500D01*
X107290440Y-64964379D01*
X107057410Y-65023389D01*
X106837270Y-65119951D01*
X106636033Y-65251427D01*
X106636029Y-65251430D01*
X106459172Y-65414239D01*
X106459169Y-65414242D01*
X106311533Y-65603924D01*
X106311529Y-65603930D01*
X106197118Y-65815342D01*
X106197116Y-65815347D01*
X106119066Y-66042699D01*
X106079500Y-66279809D01*
X106079500Y-66520190D01*
X101430500Y-66520190D01*
X101430500Y-66279808D01*
X101390934Y-66042703D01*
X101312882Y-65815344D01*
X101198472Y-65603933D01*
X101198470Y-65603930D01*
X101198466Y-65603924D01*
X101050830Y-65414242D01*
X101050827Y-65414239D01*
X101050825Y-65414236D01*
X100873969Y-65251429D01*
X100873966Y-65251427D01*
X100672729Y-65119951D01*
X100544757Y-65063817D01*
X100452591Y-65023390D01*
X100452589Y-65023389D01*
X100219559Y-64964379D01*
X100040000Y-64949500D01*
X100039990Y-64949500D01*
X99920010Y-64949500D01*
X99919999Y-64949500D01*
X99740440Y-64964379D01*
X99507410Y-65023389D01*
X99287270Y-65119951D01*
X99086033Y-65251427D01*
X99086029Y-65251430D01*
X98909172Y-65414239D01*
X98909169Y-65414242D01*
X98761533Y-65603924D01*
X98761529Y-65603930D01*
X98647118Y-65815342D01*
X98647116Y-65815347D01*
X98569066Y-66042699D01*
X98529500Y-66279809D01*
X98529500Y-66520190D01*
X93880500Y-66520190D01*
X93880500Y-66279808D01*
X93840934Y-66042703D01*
X93762882Y-65815344D01*
X93648472Y-65603933D01*
X93648470Y-65603930D01*
X93648466Y-65603924D01*
X93500830Y-65414242D01*
X93500827Y-65414239D01*
X93500825Y-65414236D01*
X93323969Y-65251429D01*
X93323966Y-65251427D01*
X93122729Y-65119951D01*
X92994757Y-65063817D01*
X92902591Y-65023390D01*
X92902589Y-65023389D01*
X92669559Y-64964379D01*
X92490000Y-64949500D01*
X92489990Y-64949500D01*
X92370010Y-64949500D01*
X92369999Y-64949500D01*
X92190440Y-64964379D01*
X91957410Y-65023389D01*
X91737270Y-65119951D01*
X91536033Y-65251427D01*
X91536029Y-65251430D01*
X91359172Y-65414239D01*
X91359169Y-65414242D01*
X91211533Y-65603924D01*
X91211529Y-65603930D01*
X91097118Y-65815342D01*
X91097116Y-65815347D01*
X91019066Y-66042699D01*
X90979500Y-66279809D01*
X90979500Y-66520190D01*
X86330500Y-66520190D01*
X86330500Y-66279808D01*
X86290934Y-66042703D01*
X86212882Y-65815344D01*
X86098472Y-65603933D01*
X86098470Y-65603930D01*
X86098466Y-65603924D01*
X85950830Y-65414242D01*
X85950827Y-65414239D01*
X85950825Y-65414236D01*
X85773969Y-65251429D01*
X85773966Y-65251427D01*
X85572729Y-65119951D01*
X85444757Y-65063817D01*
X85352591Y-65023390D01*
X85352589Y-65023389D01*
X85119559Y-64964379D01*
X84940000Y-64949500D01*
X84939990Y-64949500D01*
X84820010Y-64949500D01*
X84819999Y-64949500D01*
X84640440Y-64964379D01*
X84407410Y-65023389D01*
X84187270Y-65119951D01*
X83986033Y-65251427D01*
X83986029Y-65251430D01*
X83809172Y-65414239D01*
X83809169Y-65414242D01*
X83661533Y-65603924D01*
X83661529Y-65603930D01*
X83547118Y-65815342D01*
X83547116Y-65815347D01*
X83469066Y-66042699D01*
X83429500Y-66279809D01*
X83429500Y-66520190D01*
X78780500Y-66520190D01*
X78780500Y-66279808D01*
X78740934Y-66042703D01*
X78662882Y-65815344D01*
X78548472Y-65603933D01*
X78548470Y-65603930D01*
X78548466Y-65603924D01*
X78400830Y-65414242D01*
X78400827Y-65414239D01*
X78400825Y-65414236D01*
X78223969Y-65251429D01*
X78223966Y-65251427D01*
X78022729Y-65119951D01*
X77894757Y-65063817D01*
X77802591Y-65023390D01*
X77802589Y-65023389D01*
X77569559Y-64964379D01*
X77390000Y-64949500D01*
X77389990Y-64949500D01*
X77270010Y-64949500D01*
X77269999Y-64949500D01*
X77090440Y-64964379D01*
X76857410Y-65023389D01*
X76637270Y-65119951D01*
X76436033Y-65251427D01*
X76436029Y-65251430D01*
X76259172Y-65414239D01*
X76259169Y-65414242D01*
X76111533Y-65603924D01*
X76111529Y-65603930D01*
X75997118Y-65815342D01*
X75997116Y-65815347D01*
X75919066Y-66042699D01*
X75879500Y-66279809D01*
X75879500Y-66520190D01*
X71230500Y-66520190D01*
X71230500Y-66279808D01*
X71190934Y-66042703D01*
X71112882Y-65815344D01*
X70998472Y-65603933D01*
X70998470Y-65603930D01*
X70998466Y-65603924D01*
X70850830Y-65414242D01*
X70850827Y-65414239D01*
X70850825Y-65414236D01*
X70673969Y-65251429D01*
X70673966Y-65251427D01*
X70472729Y-65119951D01*
X70344757Y-65063817D01*
X70252591Y-65023390D01*
X70252589Y-65023389D01*
X70019559Y-64964379D01*
X69840000Y-64949500D01*
X69839990Y-64949500D01*
X69720010Y-64949500D01*
X69719999Y-64949500D01*
X69540440Y-64964379D01*
X69307410Y-65023389D01*
X69087270Y-65119951D01*
X68886033Y-65251427D01*
X68886029Y-65251430D01*
X68709172Y-65414239D01*
X68709169Y-65414242D01*
X68561533Y-65603924D01*
X68561529Y-65603930D01*
X68447118Y-65815342D01*
X68447116Y-65815347D01*
X68369066Y-66042699D01*
X68329500Y-66279809D01*
X68329500Y-66520190D01*
X65300500Y-66520190D01*
X65300500Y-61800001D01*
X68974390Y-61800001D01*
X68994804Y-62085433D01*
X69055628Y-62365037D01*
X69155635Y-62633166D01*
X69292770Y-62884309D01*
X69292775Y-62884317D01*
X69464254Y-63113387D01*
X69464270Y-63113405D01*
X69666594Y-63315729D01*
X69666612Y-63315745D01*
X69895682Y-63487224D01*
X69895690Y-63487229D01*
X70146833Y-63624364D01*
X70146832Y-63624364D01*
X70146836Y-63624365D01*
X70146839Y-63624367D01*
X70414954Y-63724369D01*
X70414960Y-63724370D01*
X70414962Y-63724371D01*
X70694566Y-63785195D01*
X70694568Y-63785195D01*
X70694572Y-63785196D01*
X70948220Y-63803337D01*
X70979999Y-63805610D01*
X70980000Y-63805610D01*
X70980001Y-63805610D01*
X71008595Y-63803564D01*
X71265428Y-63785196D01*
X71545046Y-63724369D01*
X71813161Y-63624367D01*
X72064315Y-63487226D01*
X72293395Y-63315739D01*
X72495739Y-63113395D01*
X72667226Y-62884315D01*
X72804367Y-62633161D01*
X72904369Y-62365046D01*
X72965196Y-62085428D01*
X72985610Y-61800001D01*
X76524390Y-61800001D01*
X76544804Y-62085433D01*
X76605628Y-62365037D01*
X76705635Y-62633166D01*
X76842770Y-62884309D01*
X76842775Y-62884317D01*
X77014254Y-63113387D01*
X77014270Y-63113405D01*
X77216594Y-63315729D01*
X77216612Y-63315745D01*
X77445682Y-63487224D01*
X77445690Y-63487229D01*
X77696833Y-63624364D01*
X77696832Y-63624364D01*
X77696836Y-63624365D01*
X77696839Y-63624367D01*
X77964954Y-63724369D01*
X77964960Y-63724370D01*
X77964962Y-63724371D01*
X78244566Y-63785195D01*
X78244568Y-63785195D01*
X78244572Y-63785196D01*
X78498220Y-63803337D01*
X78529999Y-63805610D01*
X78530000Y-63805610D01*
X78530001Y-63805610D01*
X78558595Y-63803564D01*
X78815428Y-63785196D01*
X79095046Y-63724369D01*
X79363161Y-63624367D01*
X79614315Y-63487226D01*
X79843395Y-63315739D01*
X80045739Y-63113395D01*
X80217226Y-62884315D01*
X80354367Y-62633161D01*
X80454369Y-62365046D01*
X80515196Y-62085428D01*
X80535610Y-61800001D01*
X84074390Y-61800001D01*
X84094804Y-62085433D01*
X84155628Y-62365037D01*
X84255635Y-62633166D01*
X84392770Y-62884309D01*
X84392775Y-62884317D01*
X84564254Y-63113387D01*
X84564270Y-63113405D01*
X84766594Y-63315729D01*
X84766612Y-63315745D01*
X84995682Y-63487224D01*
X84995690Y-63487229D01*
X85246833Y-63624364D01*
X85246832Y-63624364D01*
X85246836Y-63624365D01*
X85246839Y-63624367D01*
X85514954Y-63724369D01*
X85514960Y-63724370D01*
X85514962Y-63724371D01*
X85794566Y-63785195D01*
X85794568Y-63785195D01*
X85794572Y-63785196D01*
X86048220Y-63803337D01*
X86079999Y-63805610D01*
X86080000Y-63805610D01*
X86080001Y-63805610D01*
X86108595Y-63803564D01*
X86365428Y-63785196D01*
X86645046Y-63724369D01*
X86913161Y-63624367D01*
X87164315Y-63487226D01*
X87393395Y-63315739D01*
X87595739Y-63113395D01*
X87767226Y-62884315D01*
X87904367Y-62633161D01*
X88004369Y-62365046D01*
X88065196Y-62085428D01*
X88085610Y-61800001D01*
X91624390Y-61800001D01*
X91644804Y-62085433D01*
X91705628Y-62365037D01*
X91805635Y-62633166D01*
X91942770Y-62884309D01*
X91942775Y-62884317D01*
X92114254Y-63113387D01*
X92114270Y-63113405D01*
X92316594Y-63315729D01*
X92316612Y-63315745D01*
X92545682Y-63487224D01*
X92545690Y-63487229D01*
X92796833Y-63624364D01*
X92796832Y-63624364D01*
X92796836Y-63624365D01*
X92796839Y-63624367D01*
X93064954Y-63724369D01*
X93064960Y-63724370D01*
X93064962Y-63724371D01*
X93344566Y-63785195D01*
X93344568Y-63785195D01*
X93344572Y-63785196D01*
X93598220Y-63803337D01*
X93629999Y-63805610D01*
X93630000Y-63805610D01*
X93630001Y-63805610D01*
X93658595Y-63803564D01*
X93915428Y-63785196D01*
X94195046Y-63724369D01*
X94463161Y-63624367D01*
X94714315Y-63487226D01*
X94943395Y-63315739D01*
X95145739Y-63113395D01*
X95317226Y-62884315D01*
X95454367Y-62633161D01*
X95554369Y-62365046D01*
X95615196Y-62085428D01*
X95635610Y-61800001D01*
X99174390Y-61800001D01*
X99194804Y-62085433D01*
X99255628Y-62365037D01*
X99355635Y-62633166D01*
X99492770Y-62884309D01*
X99492775Y-62884317D01*
X99664254Y-63113387D01*
X99664270Y-63113405D01*
X99866594Y-63315729D01*
X99866612Y-63315745D01*
X100095682Y-63487224D01*
X100095690Y-63487229D01*
X100346833Y-63624364D01*
X100346832Y-63624364D01*
X100346836Y-63624365D01*
X100346839Y-63624367D01*
X100614954Y-63724369D01*
X100614960Y-63724370D01*
X100614962Y-63724371D01*
X100894566Y-63785195D01*
X100894568Y-63785195D01*
X100894572Y-63785196D01*
X101148220Y-63803337D01*
X101179999Y-63805610D01*
X101180000Y-63805610D01*
X101180001Y-63805610D01*
X101208595Y-63803564D01*
X101465428Y-63785196D01*
X101745046Y-63724369D01*
X102013161Y-63624367D01*
X102264315Y-63487226D01*
X102493395Y-63315739D01*
X102695739Y-63113395D01*
X102867226Y-62884315D01*
X103004367Y-62633161D01*
X103104369Y-62365046D01*
X103165196Y-62085428D01*
X103185610Y-61800001D01*
X106724390Y-61800001D01*
X106744804Y-62085433D01*
X106805628Y-62365037D01*
X106905635Y-62633166D01*
X107042770Y-62884309D01*
X107042775Y-62884317D01*
X107214254Y-63113387D01*
X107214270Y-63113405D01*
X107416594Y-63315729D01*
X107416612Y-63315745D01*
X107645682Y-63487224D01*
X107645690Y-63487229D01*
X107896833Y-63624364D01*
X107896832Y-63624364D01*
X107896836Y-63624365D01*
X107896839Y-63624367D01*
X108164954Y-63724369D01*
X108164960Y-63724370D01*
X108164962Y-63724371D01*
X108444566Y-63785195D01*
X108444568Y-63785195D01*
X108444572Y-63785196D01*
X108698220Y-63803337D01*
X108729999Y-63805610D01*
X108730000Y-63805610D01*
X108730001Y-63805610D01*
X108758595Y-63803564D01*
X109015428Y-63785196D01*
X109295046Y-63724369D01*
X109563161Y-63624367D01*
X109814315Y-63487226D01*
X110043395Y-63315739D01*
X110245739Y-63113395D01*
X110417226Y-62884315D01*
X110554367Y-62633161D01*
X110654369Y-62365046D01*
X110715196Y-62085428D01*
X110735610Y-61800001D01*
X114274390Y-61800001D01*
X114294804Y-62085433D01*
X114355628Y-62365037D01*
X114455635Y-62633166D01*
X114592770Y-62884309D01*
X114592775Y-62884317D01*
X114764254Y-63113387D01*
X114764270Y-63113405D01*
X114966594Y-63315729D01*
X114966612Y-63315745D01*
X115195682Y-63487224D01*
X115195690Y-63487229D01*
X115446833Y-63624364D01*
X115446832Y-63624364D01*
X115446836Y-63624365D01*
X115446839Y-63624367D01*
X115714954Y-63724369D01*
X115714960Y-63724370D01*
X115714962Y-63724371D01*
X115994566Y-63785195D01*
X115994568Y-63785195D01*
X115994572Y-63785196D01*
X116248220Y-63803337D01*
X116279999Y-63805610D01*
X116280000Y-63805610D01*
X116280001Y-63805610D01*
X116308595Y-63803564D01*
X116565428Y-63785196D01*
X116845046Y-63724369D01*
X117113161Y-63624367D01*
X117364315Y-63487226D01*
X117593395Y-63315739D01*
X117795739Y-63113395D01*
X117967226Y-62884315D01*
X118104367Y-62633161D01*
X118204369Y-62365046D01*
X118265196Y-62085428D01*
X118285610Y-61800001D01*
X121824390Y-61800001D01*
X121844804Y-62085433D01*
X121905628Y-62365037D01*
X122005635Y-62633166D01*
X122142770Y-62884309D01*
X122142775Y-62884317D01*
X122314254Y-63113387D01*
X122314270Y-63113405D01*
X122516594Y-63315729D01*
X122516612Y-63315745D01*
X122745682Y-63487224D01*
X122745690Y-63487229D01*
X122996833Y-63624364D01*
X122996832Y-63624364D01*
X122996836Y-63624365D01*
X122996839Y-63624367D01*
X123264954Y-63724369D01*
X123264960Y-63724370D01*
X123264962Y-63724371D01*
X123544566Y-63785195D01*
X123544568Y-63785195D01*
X123544572Y-63785196D01*
X123798220Y-63803337D01*
X123829999Y-63805610D01*
X123830000Y-63805610D01*
X123830001Y-63805610D01*
X123858595Y-63803564D01*
X124115428Y-63785196D01*
X124395046Y-63724369D01*
X124663161Y-63624367D01*
X124914315Y-63487226D01*
X125143395Y-63315739D01*
X125345739Y-63113395D01*
X125517226Y-62884315D01*
X125654367Y-62633161D01*
X125754369Y-62365046D01*
X125815196Y-62085428D01*
X125835610Y-61800001D01*
X129374390Y-61800001D01*
X129394804Y-62085433D01*
X129455628Y-62365037D01*
X129555635Y-62633166D01*
X129692770Y-62884309D01*
X129692775Y-62884317D01*
X129864254Y-63113387D01*
X129864270Y-63113405D01*
X130066594Y-63315729D01*
X130066612Y-63315745D01*
X130295682Y-63487224D01*
X130295690Y-63487229D01*
X130546833Y-63624364D01*
X130546832Y-63624364D01*
X130546836Y-63624365D01*
X130546839Y-63624367D01*
X130814954Y-63724369D01*
X130814960Y-63724370D01*
X130814962Y-63724371D01*
X131094566Y-63785195D01*
X131094568Y-63785195D01*
X131094572Y-63785196D01*
X131348220Y-63803337D01*
X131379999Y-63805610D01*
X131380000Y-63805610D01*
X131380001Y-63805610D01*
X131408595Y-63803564D01*
X131665428Y-63785196D01*
X131945046Y-63724369D01*
X132213161Y-63624367D01*
X132464315Y-63487226D01*
X132693395Y-63315739D01*
X132895739Y-63113395D01*
X133067226Y-62884315D01*
X133204367Y-62633161D01*
X133304369Y-62365046D01*
X133365196Y-62085428D01*
X133385610Y-61800000D01*
X133365196Y-61514572D01*
X133304369Y-61234954D01*
X133204367Y-60966839D01*
X133067226Y-60715685D01*
X133067224Y-60715682D01*
X132895745Y-60486612D01*
X132895729Y-60486594D01*
X132693405Y-60284270D01*
X132693387Y-60284254D01*
X132464317Y-60112775D01*
X132464309Y-60112770D01*
X132213166Y-59975635D01*
X132213167Y-59975635D01*
X132105915Y-59935632D01*
X131945046Y-59875631D01*
X131945043Y-59875630D01*
X131945037Y-59875628D01*
X131665433Y-59814804D01*
X131380001Y-59794390D01*
X131379999Y-59794390D01*
X131094566Y-59814804D01*
X130814962Y-59875628D01*
X130546833Y-59975635D01*
X130295690Y-60112770D01*
X130295682Y-60112775D01*
X130066612Y-60284254D01*
X130066594Y-60284270D01*
X129864270Y-60486594D01*
X129864254Y-60486612D01*
X129692775Y-60715682D01*
X129692770Y-60715690D01*
X129555635Y-60966833D01*
X129455628Y-61234962D01*
X129394804Y-61514566D01*
X129374390Y-61799998D01*
X129374390Y-61800001D01*
X125835610Y-61800001D01*
X125835610Y-61800000D01*
X125815196Y-61514572D01*
X125754369Y-61234954D01*
X125654367Y-60966839D01*
X125517226Y-60715685D01*
X125517224Y-60715682D01*
X125345745Y-60486612D01*
X125345729Y-60486594D01*
X125143405Y-60284270D01*
X125143387Y-60284254D01*
X124914317Y-60112775D01*
X124914309Y-60112770D01*
X124663166Y-59975635D01*
X124663167Y-59975635D01*
X124555915Y-59935632D01*
X124395046Y-59875631D01*
X124395043Y-59875630D01*
X124395037Y-59875628D01*
X124115433Y-59814804D01*
X123830001Y-59794390D01*
X123829999Y-59794390D01*
X123544566Y-59814804D01*
X123264962Y-59875628D01*
X122996833Y-59975635D01*
X122745690Y-60112770D01*
X122745682Y-60112775D01*
X122516612Y-60284254D01*
X122516594Y-60284270D01*
X122314270Y-60486594D01*
X122314254Y-60486612D01*
X122142775Y-60715682D01*
X122142770Y-60715690D01*
X122005635Y-60966833D01*
X121905628Y-61234962D01*
X121844804Y-61514566D01*
X121824390Y-61799998D01*
X121824390Y-61800001D01*
X118285610Y-61800001D01*
X118285610Y-61800000D01*
X118265196Y-61514572D01*
X118204369Y-61234954D01*
X118104367Y-60966839D01*
X117967226Y-60715685D01*
X117967224Y-60715682D01*
X117795745Y-60486612D01*
X117795729Y-60486594D01*
X117593405Y-60284270D01*
X117593387Y-60284254D01*
X117364317Y-60112775D01*
X117364309Y-60112770D01*
X117113166Y-59975635D01*
X117113167Y-59975635D01*
X117005915Y-59935632D01*
X116845046Y-59875631D01*
X116845043Y-59875630D01*
X116845037Y-59875628D01*
X116565433Y-59814804D01*
X116280001Y-59794390D01*
X116279999Y-59794390D01*
X115994566Y-59814804D01*
X115714962Y-59875628D01*
X115446833Y-59975635D01*
X115195690Y-60112770D01*
X115195682Y-60112775D01*
X114966612Y-60284254D01*
X114966594Y-60284270D01*
X114764270Y-60486594D01*
X114764254Y-60486612D01*
X114592775Y-60715682D01*
X114592770Y-60715690D01*
X114455635Y-60966833D01*
X114355628Y-61234962D01*
X114294804Y-61514566D01*
X114274390Y-61799998D01*
X114274390Y-61800001D01*
X110735610Y-61800001D01*
X110735610Y-61800000D01*
X110715196Y-61514572D01*
X110654369Y-61234954D01*
X110554367Y-60966839D01*
X110417226Y-60715685D01*
X110417224Y-60715682D01*
X110245745Y-60486612D01*
X110245729Y-60486594D01*
X110043405Y-60284270D01*
X110043387Y-60284254D01*
X109814317Y-60112775D01*
X109814309Y-60112770D01*
X109563166Y-59975635D01*
X109563167Y-59975635D01*
X109455915Y-59935632D01*
X109295046Y-59875631D01*
X109295043Y-59875630D01*
X109295037Y-59875628D01*
X109015433Y-59814804D01*
X108730001Y-59794390D01*
X108729999Y-59794390D01*
X108444566Y-59814804D01*
X108164962Y-59875628D01*
X107896833Y-59975635D01*
X107645690Y-60112770D01*
X107645682Y-60112775D01*
X107416612Y-60284254D01*
X107416594Y-60284270D01*
X107214270Y-60486594D01*
X107214254Y-60486612D01*
X107042775Y-60715682D01*
X107042770Y-60715690D01*
X106905635Y-60966833D01*
X106805628Y-61234962D01*
X106744804Y-61514566D01*
X106724390Y-61799998D01*
X106724390Y-61800001D01*
X103185610Y-61800001D01*
X103185610Y-61800000D01*
X103165196Y-61514572D01*
X103104369Y-61234954D01*
X103004367Y-60966839D01*
X102867226Y-60715685D01*
X102867224Y-60715682D01*
X102695745Y-60486612D01*
X102695729Y-60486594D01*
X102493405Y-60284270D01*
X102493387Y-60284254D01*
X102264317Y-60112775D01*
X102264309Y-60112770D01*
X102013166Y-59975635D01*
X102013167Y-59975635D01*
X101905915Y-59935632D01*
X101745046Y-59875631D01*
X101745043Y-59875630D01*
X101745037Y-59875628D01*
X101465433Y-59814804D01*
X101180001Y-59794390D01*
X101179999Y-59794390D01*
X100894566Y-59814804D01*
X100614962Y-59875628D01*
X100346833Y-59975635D01*
X100095690Y-60112770D01*
X100095682Y-60112775D01*
X99866612Y-60284254D01*
X99866594Y-60284270D01*
X99664270Y-60486594D01*
X99664254Y-60486612D01*
X99492775Y-60715682D01*
X99492770Y-60715690D01*
X99355635Y-60966833D01*
X99255628Y-61234962D01*
X99194804Y-61514566D01*
X99174390Y-61799998D01*
X99174390Y-61800001D01*
X95635610Y-61800001D01*
X95635610Y-61800000D01*
X95615196Y-61514572D01*
X95554369Y-61234954D01*
X95454367Y-60966839D01*
X95317226Y-60715685D01*
X95317224Y-60715682D01*
X95145745Y-60486612D01*
X95145729Y-60486594D01*
X94943405Y-60284270D01*
X94943387Y-60284254D01*
X94714317Y-60112775D01*
X94714309Y-60112770D01*
X94463166Y-59975635D01*
X94463167Y-59975635D01*
X94355915Y-59935632D01*
X94195046Y-59875631D01*
X94195043Y-59875630D01*
X94195037Y-59875628D01*
X93915433Y-59814804D01*
X93630001Y-59794390D01*
X93629999Y-59794390D01*
X93344566Y-59814804D01*
X93064962Y-59875628D01*
X92796833Y-59975635D01*
X92545690Y-60112770D01*
X92545682Y-60112775D01*
X92316612Y-60284254D01*
X92316594Y-60284270D01*
X92114270Y-60486594D01*
X92114254Y-60486612D01*
X91942775Y-60715682D01*
X91942770Y-60715690D01*
X91805635Y-60966833D01*
X91705628Y-61234962D01*
X91644804Y-61514566D01*
X91624390Y-61799998D01*
X91624390Y-61800001D01*
X88085610Y-61800001D01*
X88085610Y-61800000D01*
X88065196Y-61514572D01*
X88004369Y-61234954D01*
X87904367Y-60966839D01*
X87767226Y-60715685D01*
X87767224Y-60715682D01*
X87595745Y-60486612D01*
X87595729Y-60486594D01*
X87393405Y-60284270D01*
X87393387Y-60284254D01*
X87164317Y-60112775D01*
X87164309Y-60112770D01*
X86913166Y-59975635D01*
X86913167Y-59975635D01*
X86805915Y-59935632D01*
X86645046Y-59875631D01*
X86645043Y-59875630D01*
X86645037Y-59875628D01*
X86365433Y-59814804D01*
X86080001Y-59794390D01*
X86079999Y-59794390D01*
X85794566Y-59814804D01*
X85514962Y-59875628D01*
X85246833Y-59975635D01*
X84995690Y-60112770D01*
X84995682Y-60112775D01*
X84766612Y-60284254D01*
X84766594Y-60284270D01*
X84564270Y-60486594D01*
X84564254Y-60486612D01*
X84392775Y-60715682D01*
X84392770Y-60715690D01*
X84255635Y-60966833D01*
X84155628Y-61234962D01*
X84094804Y-61514566D01*
X84074390Y-61799998D01*
X84074390Y-61800001D01*
X80535610Y-61800001D01*
X80535610Y-61800000D01*
X80515196Y-61514572D01*
X80454369Y-61234954D01*
X80354367Y-60966839D01*
X80217226Y-60715685D01*
X80217224Y-60715682D01*
X80045745Y-60486612D01*
X80045729Y-60486594D01*
X79843405Y-60284270D01*
X79843387Y-60284254D01*
X79614317Y-60112775D01*
X79614309Y-60112770D01*
X79363166Y-59975635D01*
X79363167Y-59975635D01*
X79255915Y-59935632D01*
X79095046Y-59875631D01*
X79095043Y-59875630D01*
X79095037Y-59875628D01*
X78815433Y-59814804D01*
X78530001Y-59794390D01*
X78529999Y-59794390D01*
X78244566Y-59814804D01*
X77964962Y-59875628D01*
X77696833Y-59975635D01*
X77445690Y-60112770D01*
X77445682Y-60112775D01*
X77216612Y-60284254D01*
X77216594Y-60284270D01*
X77014270Y-60486594D01*
X77014254Y-60486612D01*
X76842775Y-60715682D01*
X76842770Y-60715690D01*
X76705635Y-60966833D01*
X76605628Y-61234962D01*
X76544804Y-61514566D01*
X76524390Y-61799998D01*
X76524390Y-61800001D01*
X72985610Y-61800001D01*
X72985610Y-61800000D01*
X72965196Y-61514572D01*
X72904369Y-61234954D01*
X72804367Y-60966839D01*
X72667226Y-60715685D01*
X72667224Y-60715682D01*
X72495745Y-60486612D01*
X72495729Y-60486594D01*
X72293405Y-60284270D01*
X72293387Y-60284254D01*
X72064317Y-60112775D01*
X72064309Y-60112770D01*
X71813166Y-59975635D01*
X71813167Y-59975635D01*
X71705915Y-59935632D01*
X71545046Y-59875631D01*
X71545043Y-59875630D01*
X71545037Y-59875628D01*
X71265433Y-59814804D01*
X70980001Y-59794390D01*
X70979999Y-59794390D01*
X70694566Y-59814804D01*
X70414962Y-59875628D01*
X70146833Y-59975635D01*
X69895690Y-60112770D01*
X69895682Y-60112775D01*
X69666612Y-60284254D01*
X69666594Y-60284270D01*
X69464270Y-60486594D01*
X69464254Y-60486612D01*
X69292775Y-60715682D01*
X69292770Y-60715690D01*
X69155635Y-60966833D01*
X69055628Y-61234962D01*
X68994804Y-61514566D01*
X68974390Y-61799998D01*
X68974390Y-61800001D01*
X65300500Y-61800001D01*
X65300500Y-40103246D01*
X65300670Y-40096756D01*
X65316592Y-39792953D01*
X65317949Y-39780046D01*
X65365028Y-39482794D01*
X65367723Y-39470107D01*
X65445627Y-39179368D01*
X65449636Y-39167033D01*
X65557493Y-38886054D01*
X65562763Y-38874215D01*
X65699415Y-38606023D01*
X65705891Y-38594808D01*
X65869819Y-38342380D01*
X65877434Y-38331899D01*
X66066858Y-38097979D01*
X66075525Y-38088354D01*
X66288354Y-37875525D01*
X66297979Y-37866858D01*
X66531899Y-37677434D01*
X66542380Y-37669819D01*
X66794808Y-37505891D01*
X66806023Y-37499415D01*
X67074215Y-37362763D01*
X67086054Y-37357493D01*
X67367040Y-37249633D01*
X67379368Y-37245627D01*
X67670107Y-37167723D01*
X67682786Y-37165029D01*
X67980046Y-37117949D01*
X67992951Y-37116592D01*
X68296756Y-37100669D01*
X68303246Y-37100500D01*
X68365892Y-37100500D01*
X103140802Y-37100500D01*
X103207841Y-37120185D01*
G37*
%TD.AperFunction*%
%TD*%
%TA.AperFunction,Conductor*%
%TO.N,VDC*%
G36*
X91815677Y-45119685D02*
G01*
X91836319Y-45136319D01*
X92263681Y-45563681D01*
X92297166Y-45625004D01*
X92300000Y-45651362D01*
X92300000Y-48600000D01*
X92800000Y-49100000D01*
X102248638Y-49100000D01*
X102315677Y-49119685D01*
X102336319Y-49136319D01*
X102763681Y-49563681D01*
X102797166Y-49625004D01*
X102800000Y-49651362D01*
X102800000Y-51048638D01*
X102780315Y-51115677D01*
X102763681Y-51136319D01*
X102336319Y-51563681D01*
X102274996Y-51597166D01*
X102248638Y-51600000D01*
X85851362Y-51600000D01*
X85784323Y-51580315D01*
X85763681Y-51563681D01*
X85336319Y-51136319D01*
X85302834Y-51074996D01*
X85300000Y-51048638D01*
X85300000Y-45651362D01*
X85319685Y-45584323D01*
X85336319Y-45563681D01*
X85763681Y-45136319D01*
X85825004Y-45102834D01*
X85851362Y-45100000D01*
X91748638Y-45100000D01*
X91815677Y-45119685D01*
G37*
%TD.AperFunction*%
%TD*%
M02*
