%TF.GenerationSoftware,KiCad,Pcbnew,7.0.11-rc3*%
%TF.CreationDate,2025-03-16T23:27:26+08:00*%
%TF.ProjectId,fuse_box,66757365-5f62-46f7-982e-6b696361645f,rev?*%
%TF.SameCoordinates,Original*%
%TF.FileFunction,Copper,L1,Top*%
%TF.FilePolarity,Positive*%
%FSLAX46Y46*%
G04 Gerber Fmt 4.6, Leading zero omitted, Abs format (unit mm)*
G04 Created by KiCad (PCBNEW 7.0.11-rc3) date 2025-03-16 23:27:26*
%MOMM*%
%LPD*%
G01*
G04 APERTURE LIST*
G04 Aperture macros list*
%AMRoundRect*
0 Rectangle with rounded corners*
0 $1 Rounding radius*
0 $2 $3 $4 $5 $6 $7 $8 $9 X,Y pos of 4 corners*
0 Add a 4 corners polygon primitive as box body*
4,1,4,$2,$3,$4,$5,$6,$7,$8,$9,$2,$3,0*
0 Add four circle primitives for the rounded corners*
1,1,$1+$1,$2,$3*
1,1,$1+$1,$4,$5*
1,1,$1+$1,$6,$7*
1,1,$1+$1,$8,$9*
0 Add four rect primitives between the rounded corners*
20,1,$1+$1,$2,$3,$4,$5,0*
20,1,$1+$1,$4,$5,$6,$7,0*
20,1,$1+$1,$6,$7,$8,$9,0*
20,1,$1+$1,$8,$9,$2,$3,0*%
G04 Aperture macros list end*
%TA.AperFunction,ComponentPad*%
%ADD10C,5.700000*%
%TD*%
%TA.AperFunction,SMDPad,CuDef*%
%ADD11RoundRect,0.243750X-0.243750X-0.456250X0.243750X-0.456250X0.243750X0.456250X-0.243750X0.456250X0*%
%TD*%
%TA.AperFunction,ComponentPad*%
%ADD12C,3.500000*%
%TD*%
%TA.AperFunction,ComponentPad*%
%ADD13RoundRect,1.500000X1.500000X1.500000X-1.500000X1.500000X-1.500000X-1.500000X1.500000X-1.500000X0*%
%TD*%
%TA.AperFunction,ComponentPad*%
%ADD14C,6.000000*%
%TD*%
%TA.AperFunction,SMDPad,CuDef*%
%ADD15RoundRect,0.200000X-0.200000X-0.275000X0.200000X-0.275000X0.200000X0.275000X-0.200000X0.275000X0*%
%TD*%
%TA.AperFunction,SMDPad,CuDef*%
%ADD16RoundRect,0.250000X0.250000X0.475000X-0.250000X0.475000X-0.250000X-0.475000X0.250000X-0.475000X0*%
%TD*%
%TA.AperFunction,SMDPad,CuDef*%
%ADD17R,1.430000X5.500000*%
%TD*%
%TA.AperFunction,ComponentPad*%
%ADD18C,1.500000*%
%TD*%
%TA.AperFunction,SMDPad,CuDef*%
%ADD19RoundRect,0.250000X-0.250000X-0.475000X0.250000X-0.475000X0.250000X0.475000X-0.250000X0.475000X0*%
%TD*%
%TA.AperFunction,SMDPad,CuDef*%
%ADD20RoundRect,0.150000X-0.512500X-0.150000X0.512500X-0.150000X0.512500X0.150000X-0.512500X0.150000X0*%
%TD*%
%TA.AperFunction,SMDPad,CuDef*%
%ADD21RoundRect,0.225000X-0.250000X0.225000X-0.250000X-0.225000X0.250000X-0.225000X0.250000X0.225000X0*%
%TD*%
%TA.AperFunction,SMDPad,CuDef*%
%ADD22RoundRect,0.225000X-0.225000X-0.250000X0.225000X-0.250000X0.225000X0.250000X-0.225000X0.250000X0*%
%TD*%
%TA.AperFunction,SMDPad,CuDef*%
%ADD23RoundRect,0.250000X-0.475000X0.250000X-0.475000X-0.250000X0.475000X-0.250000X0.475000X0.250000X0*%
%TD*%
%TA.AperFunction,ComponentPad*%
%ADD24O,1.700000X1.700000*%
%TD*%
%TA.AperFunction,ViaPad*%
%ADD25C,0.600000*%
%TD*%
%TA.AperFunction,Conductor*%
%ADD26C,0.500000*%
%TD*%
%TA.AperFunction,Conductor*%
%ADD27C,0.200000*%
%TD*%
%TA.AperFunction,Conductor*%
%ADD28C,0.400000*%
%TD*%
%TA.AperFunction,Conductor*%
%ADD29C,1.000000*%
%TD*%
%TA.AperFunction,Conductor*%
%ADD30C,2.000000*%
%TD*%
G04 APERTURE END LIST*
D10*
%TO.P,H3,1,1*%
%TO.N,GND*%
X131300000Y-40100000D03*
%TD*%
D11*
%TO.P,D2,1,K*%
%TO.N,Net-(D2-K)*%
X123175000Y-77850000D03*
%TO.P,D2,2,A*%
%TO.N,P2*%
X125050000Y-77850000D03*
%TD*%
D12*
%TO.P,F6,1*%
%TO.N,+15V*%
X93630000Y-61800000D03*
%TO.P,F6,2*%
%TO.N,P6*%
X93630000Y-71000000D03*
%TD*%
D13*
%TO.P,J1,1,Pin_1*%
%TO.N,VDC*%
X88400000Y-48400000D03*
D14*
%TO.P,J1,2,Pin_2*%
%TO.N,GND*%
X81200000Y-48400000D03*
%TD*%
D15*
%TO.P,R9,1*%
%TO.N,+15V*%
X98675000Y-47750000D03*
%TO.P,R9,2*%
%TO.N,Net-(U1-FB)*%
X100325000Y-47750000D03*
%TD*%
%TO.P,R7,1*%
%TO.N,GND*%
X82225000Y-77850000D03*
%TO.P,R7,2*%
%TO.N,Net-(D7-K)*%
X83875000Y-77850000D03*
%TD*%
D12*
%TO.P,F9,1*%
%TO.N,+15V*%
X70980000Y-61800000D03*
%TO.P,F9,2*%
%TO.N,P9*%
X70980000Y-71000000D03*
%TD*%
D16*
%TO.P,C5,1*%
%TO.N,+15V*%
X107550000Y-54100000D03*
%TO.P,C5,2*%
%TO.N,GND*%
X105650000Y-54100000D03*
%TD*%
D15*
%TO.P,R1,1*%
%TO.N,GND*%
X127475000Y-78100000D03*
%TO.P,R1,2*%
%TO.N,Net-(D1-K)*%
X129125000Y-78100000D03*
%TD*%
D12*
%TO.P,F5,1*%
%TO.N,+15V*%
X101180000Y-61800000D03*
%TO.P,F5,2*%
%TO.N,P5*%
X101180000Y-71000000D03*
%TD*%
D15*
%TO.P,R11,1*%
%TO.N,GND*%
X67150000Y-77850000D03*
%TO.P,R11,2*%
%TO.N,Net-(D9-K)*%
X68800000Y-77850000D03*
%TD*%
D11*
%TO.P,D7,1,K*%
%TO.N,Net-(D7-K)*%
X85550000Y-77850000D03*
%TO.P,D7,2,A*%
%TO.N,P7*%
X87425000Y-77850000D03*
%TD*%
D12*
%TO.P,F8,1*%
%TO.N,+15V*%
X78530000Y-61800000D03*
%TO.P,F8,2*%
%TO.N,P8*%
X78530000Y-71000000D03*
%TD*%
D11*
%TO.P,D8,1,K*%
%TO.N,Net-(D8-K)*%
X78112500Y-77850000D03*
%TO.P,D8,2,A*%
%TO.N,P8*%
X79987500Y-77850000D03*
%TD*%
D10*
%TO.P,H1,1,1*%
%TO.N,GND*%
X131300000Y-83100000D03*
%TD*%
D15*
%TO.P,R10,1*%
%TO.N,Net-(U1-FB)*%
X100250000Y-46000000D03*
%TO.P,R10,2*%
%TO.N,GND*%
X101900000Y-46000000D03*
%TD*%
D17*
%TO.P,L1,1*%
%TO.N,Net-(U1-SW)*%
X106980000Y-47200000D03*
%TO.P,L1,2*%
%TO.N,+15V*%
X111020000Y-47200000D03*
%TD*%
D11*
%TO.P,D5,1,K*%
%TO.N,Net-(D5-K)*%
X100612500Y-77850000D03*
%TO.P,D5,2,A*%
%TO.N,P5*%
X102487500Y-77850000D03*
%TD*%
D10*
%TO.P,H2,1,1*%
%TO.N,GND*%
X68300000Y-83100000D03*
%TD*%
D18*
%TO.P,TP1,1,1*%
%TO.N,+15V*%
X123800000Y-53600000D03*
%TD*%
D19*
%TO.P,C1,1*%
%TO.N,VDC*%
X102050000Y-52000000D03*
%TO.P,C1,2*%
%TO.N,GND*%
X103950000Y-52000000D03*
%TD*%
D15*
%TO.P,R5,1*%
%TO.N,GND*%
X97225000Y-77850000D03*
%TO.P,R5,2*%
%TO.N,Net-(D5-K)*%
X98875000Y-77850000D03*
%TD*%
D12*
%TO.P,F1,1*%
%TO.N,+15V*%
X131380000Y-61800000D03*
%TO.P,F1,2*%
%TO.N,P1*%
X131380000Y-71000000D03*
%TD*%
D11*
%TO.P,D1,1,K*%
%TO.N,Net-(D1-K)*%
X130675000Y-78100000D03*
%TO.P,D1,2,A*%
%TO.N,P1*%
X132550000Y-78100000D03*
%TD*%
D12*
%TO.P,F4,1*%
%TO.N,+15V*%
X108730000Y-61800000D03*
%TO.P,F4,2*%
%TO.N,P4*%
X108730000Y-71000000D03*
%TD*%
D20*
%TO.P,U1,1,FB*%
%TO.N,Net-(U1-FB)*%
X102100000Y-48050000D03*
%TO.P,U1,2,EN*%
%TO.N,VDC*%
X102100000Y-49000000D03*
%TO.P,U1,3,IN*%
X102100000Y-49950000D03*
%TO.P,U1,4,GND*%
%TO.N,GND*%
X104375000Y-49950000D03*
%TO.P,U1,5,SW*%
%TO.N,Net-(U1-SW)*%
X104375000Y-49000000D03*
%TO.P,U1,6,BST*%
%TO.N,Net-(U1-BST)*%
X104375000Y-48050000D03*
%TD*%
D12*
%TO.P,F7,1*%
%TO.N,+15V*%
X86080000Y-61800000D03*
%TO.P,F7,2*%
%TO.N,P7*%
X86080000Y-71000000D03*
%TD*%
D15*
%TO.P,R8,1*%
%TO.N,GND*%
X74725000Y-77850000D03*
%TO.P,R8,2*%
%TO.N,Net-(D8-K)*%
X76375000Y-77850000D03*
%TD*%
D11*
%TO.P,D6,1,K*%
%TO.N,Net-(D6-K)*%
X93112500Y-77850000D03*
%TO.P,D6,2,A*%
%TO.N,P6*%
X94987500Y-77850000D03*
%TD*%
D15*
%TO.P,R3,1*%
%TO.N,GND*%
X112400000Y-77850000D03*
%TO.P,R3,2*%
%TO.N,Net-(D3-K)*%
X114050000Y-77850000D03*
%TD*%
D12*
%TO.P,F2,1*%
%TO.N,+15V*%
X123830000Y-61800000D03*
%TO.P,F2,2*%
%TO.N,P2*%
X123830000Y-71000000D03*
%TD*%
%TO.P,F3,1*%
%TO.N,+15V*%
X116280000Y-61800000D03*
%TO.P,F3,2*%
%TO.N,P3*%
X116280000Y-71000000D03*
%TD*%
D15*
%TO.P,R2,1*%
%TO.N,GND*%
X119900000Y-77850000D03*
%TO.P,R2,2*%
%TO.N,Net-(D2-K)*%
X121550000Y-77850000D03*
%TD*%
D16*
%TO.P,C4,1*%
%TO.N,+15V*%
X107550000Y-52000000D03*
%TO.P,C4,2*%
%TO.N,GND*%
X105650000Y-52000000D03*
%TD*%
D11*
%TO.P,D3,1,K*%
%TO.N,Net-(D3-K)*%
X115675000Y-77850000D03*
%TO.P,D3,2,A*%
%TO.N,P3*%
X117550000Y-77850000D03*
%TD*%
D15*
%TO.P,R6,1*%
%TO.N,GND*%
X89725000Y-77850000D03*
%TO.P,R6,2*%
%TO.N,Net-(D6-K)*%
X91375000Y-77850000D03*
%TD*%
D21*
%TO.P,C2,1*%
%TO.N,Net-(U1-SW)*%
X104600000Y-44825000D03*
%TO.P,C2,2*%
%TO.N,Net-(U1-BST)*%
X104600000Y-46375000D03*
%TD*%
D11*
%TO.P,D4,1,K*%
%TO.N,Net-(D4-K)*%
X108175000Y-77850000D03*
%TO.P,D4,2,A*%
%TO.N,P4*%
X110050000Y-77850000D03*
%TD*%
D22*
%TO.P,C3,1*%
%TO.N,+15V*%
X97225000Y-46000000D03*
%TO.P,C3,2*%
%TO.N,Net-(U1-FB)*%
X98775000Y-46000000D03*
%TD*%
D15*
%TO.P,R4,1*%
%TO.N,GND*%
X104975000Y-77850000D03*
%TO.P,R4,2*%
%TO.N,Net-(D4-K)*%
X106625000Y-77850000D03*
%TD*%
D11*
%TO.P,D9,1,K*%
%TO.N,Net-(D9-K)*%
X70362500Y-77850000D03*
%TO.P,D9,2,A*%
%TO.N,P9*%
X72237500Y-77850000D03*
%TD*%
D10*
%TO.P,H4,1,1*%
%TO.N,GND*%
X68300000Y-40100000D03*
%TD*%
D23*
%TO.P,C6,1*%
%TO.N,VDC*%
X100100000Y-50650000D03*
%TO.P,C6,2*%
%TO.N,GND*%
X100100000Y-52550000D03*
%TD*%
D24*
%TO.P,J3,1,Pin_1*%
%TO.N,P2*%
X104875000Y-84100000D03*
%TO.P,J3,2,Pin_2*%
%TO.N,P1*%
X104875000Y-81560000D03*
%TO.P,J3,3,Pin_3*%
%TO.N,P4*%
X102335000Y-84100000D03*
%TO.P,J3,4,Pin_4*%
%TO.N,P3*%
X102335000Y-81560000D03*
%TO.P,J3,5,Pin_5*%
%TO.N,P6*%
X99795000Y-84100000D03*
%TO.P,J3,6,Pin_6*%
%TO.N,P5*%
X99795000Y-81560000D03*
%TO.P,J3,7,Pin_7*%
%TO.N,P8*%
X97255000Y-84100000D03*
%TO.P,J3,8,Pin_8*%
%TO.N,P7*%
X97255000Y-81560000D03*
%TO.P,J3,9,Pin_9*%
%TO.N,GND*%
X94715000Y-84100000D03*
%TO.P,J3,10,Pin_10*%
%TO.N,P9*%
X94715000Y-81560000D03*
%TD*%
D25*
%TO.N,VDC*%
X100800000Y-49600000D03*
X101600000Y-50800000D03*
X100050000Y-49600000D03*
X100050000Y-50350000D03*
X100800000Y-51100000D03*
X100800000Y-50350000D03*
X102400000Y-50800000D03*
X100050000Y-51100000D03*
%TO.N,+15V*%
X97800000Y-47750000D03*
X108400000Y-52000000D03*
%TO.N,GND*%
X101600000Y-44000000D03*
X104400000Y-55000000D03*
X102400000Y-44000000D03*
X101600000Y-44800000D03*
X103200000Y-45600000D03*
X102400000Y-44800000D03*
X103600000Y-53400000D03*
X103200000Y-44000000D03*
X104400000Y-53400000D03*
X103200000Y-46400000D03*
X103600000Y-50800000D03*
X103200000Y-44800000D03*
X104400000Y-54200000D03*
%TD*%
D26*
%TO.N,VDC*%
X102100000Y-51950000D02*
X102050000Y-52000000D01*
%TO.N,Net-(D1-K)*%
X129125000Y-78100000D02*
X130675000Y-78100000D01*
%TO.N,Net-(D2-K)*%
X121550000Y-77850000D02*
X123175000Y-77850000D01*
%TO.N,Net-(U1-BST)*%
X104600000Y-47825000D02*
X104375000Y-48050000D01*
X104600000Y-46375000D02*
X104600000Y-47825000D01*
%TO.N,Net-(D3-K)*%
X114050000Y-77850000D02*
X115675000Y-77850000D01*
D27*
%TO.N,+15V*%
X97225000Y-47225000D02*
X97225000Y-46000000D01*
D28*
X123800000Y-61770000D02*
X123830000Y-61800000D01*
D27*
X98675000Y-47750000D02*
X97800000Y-47750000D01*
D29*
X107550000Y-52000000D02*
X107550000Y-54100000D01*
D27*
X97750000Y-47750000D02*
X97225000Y-47225000D01*
D28*
X123800000Y-53600000D02*
X123800000Y-61770000D01*
D30*
X70980000Y-61800000D02*
X123830000Y-61800000D01*
X123830000Y-61800000D02*
X131380000Y-61800000D01*
D27*
X107550000Y-52000000D02*
X108400000Y-52000000D01*
X97800000Y-47750000D02*
X97750000Y-47750000D01*
D26*
%TO.N,Net-(D4-K)*%
X108175000Y-77850000D02*
X106625000Y-77850000D01*
%TO.N,GND*%
X101900000Y-46000000D02*
X103212500Y-47312500D01*
X103212500Y-47312500D02*
X103212500Y-49449999D01*
X103212500Y-49449999D02*
X103712501Y-49950000D01*
X103712501Y-49950000D02*
X104375000Y-49950000D01*
%TO.N,Net-(D5-K)*%
X100612500Y-77850000D02*
X98875000Y-77850000D01*
%TO.N,P1*%
X132550000Y-72170000D02*
X131380000Y-71000000D01*
X132550000Y-78100000D02*
X132550000Y-72170000D01*
%TO.N,Net-(D6-K)*%
X93112500Y-77850000D02*
X91375000Y-77850000D01*
D28*
%TO.N,P4*%
X110050000Y-78900000D02*
X106100000Y-82850000D01*
D26*
X110050000Y-77850000D02*
X110050000Y-72320000D01*
D28*
X106100000Y-82850000D02*
X103600000Y-82850000D01*
X103600000Y-82850000D02*
X102335000Y-84115000D01*
X110050000Y-77850000D02*
X110050000Y-78900000D01*
D26*
X110050000Y-72320000D02*
X108730000Y-71000000D01*
%TO.N,Net-(D7-K)*%
X85550000Y-77850000D02*
X83875000Y-77850000D01*
%TO.N,P5*%
X102487500Y-77850000D02*
X102487500Y-72307500D01*
X102487500Y-72307500D02*
X101180000Y-71000000D01*
%TO.N,Net-(D8-K)*%
X78112500Y-77850000D02*
X76375000Y-77850000D01*
%TO.N,P2*%
X125050000Y-77850000D02*
X125050000Y-72220000D01*
D28*
X125050000Y-77850000D02*
X118785000Y-84115000D01*
D26*
X125050000Y-72220000D02*
X123830000Y-71000000D01*
D28*
X118785000Y-84115000D02*
X104875000Y-84115000D01*
%TO.N,P6*%
X94987500Y-77850000D02*
X95297767Y-77850000D01*
D26*
X94987500Y-72357500D02*
X93630000Y-71000000D01*
D28*
X95297767Y-77850000D02*
X98545000Y-81097233D01*
X98545000Y-81097233D02*
X98545000Y-82865000D01*
D26*
X94987500Y-77850000D02*
X94987500Y-72357500D01*
D28*
X98545000Y-82865000D02*
X99795000Y-84115000D01*
D26*
%TO.N,P3*%
X117550000Y-77850000D02*
X117550000Y-72270000D01*
X117550000Y-72270000D02*
X116280000Y-71000000D01*
%TO.N,P7*%
X87425000Y-77850000D02*
X87425000Y-72345000D01*
X87425000Y-72345000D02*
X86080000Y-71000000D01*
%TO.N,P8*%
X79987500Y-77850000D02*
X79987500Y-72457500D01*
D28*
X79987500Y-77850000D02*
X84962500Y-82825000D01*
X84962500Y-82825000D02*
X95965000Y-82825000D01*
X95965000Y-82825000D02*
X97255000Y-84115000D01*
D26*
X79987500Y-72457500D02*
X78530000Y-71000000D01*
%TO.N,Net-(D9-K)*%
X70362500Y-77850000D02*
X68800000Y-77850000D01*
%TO.N,P9*%
X72237500Y-77850000D02*
X72237500Y-72257500D01*
X72237500Y-72257500D02*
X70980000Y-71000000D01*
%TD*%
%TA.AperFunction,Conductor*%
%TO.N,Net-(U1-SW)*%
G36*
X107615677Y-44219685D02*
G01*
X107636319Y-44236319D01*
X107763681Y-44363681D01*
X107797166Y-44425004D01*
X107800000Y-44451362D01*
X107800000Y-49948638D01*
X107780315Y-50015677D01*
X107763681Y-50036319D01*
X107636319Y-50163681D01*
X107574996Y-50197166D01*
X107548638Y-50200000D01*
X106451362Y-50200000D01*
X106384323Y-50180315D01*
X106363681Y-50163681D01*
X106236319Y-50036319D01*
X106202834Y-49974996D01*
X106200000Y-49948638D01*
X106200000Y-49800000D01*
X105800000Y-49400000D01*
X105411970Y-49400000D01*
X105344931Y-49380315D01*
X105329428Y-49368176D01*
X105329255Y-49368371D01*
X105317357Y-49357761D01*
X105317358Y-49357761D01*
X105243360Y-49311693D01*
X105192676Y-49291130D01*
X105178619Y-49285427D01*
X105135056Y-49272134D01*
X105131888Y-49272100D01*
X105035368Y-49271078D01*
X105018670Y-49274216D01*
X105018659Y-49274214D01*
X104970028Y-49283359D01*
X104970017Y-49283361D01*
X104959045Y-49285423D01*
X104955540Y-49286029D01*
X104908548Y-49293472D01*
X104889150Y-49294999D01*
X103946361Y-49294999D01*
X103879322Y-49275314D01*
X103858680Y-49258680D01*
X103836319Y-49236319D01*
X103802834Y-49174996D01*
X103800000Y-49148638D01*
X103800000Y-48851361D01*
X103819685Y-48784322D01*
X103836314Y-48763685D01*
X103963183Y-48636816D01*
X104024504Y-48603333D01*
X104050854Y-48600499D01*
X104919018Y-48600499D01*
X104919023Y-48600499D01*
X104920510Y-48600382D01*
X104930233Y-48600000D01*
X105800000Y-48600000D01*
X106200000Y-48200000D01*
X106200000Y-45600000D01*
X106000000Y-45400000D01*
X104451362Y-45400000D01*
X104384323Y-45380315D01*
X104363681Y-45363681D01*
X104236319Y-45236319D01*
X104202834Y-45174996D01*
X104200000Y-45148638D01*
X104200000Y-44451362D01*
X104219685Y-44384323D01*
X104236319Y-44363681D01*
X104363681Y-44236319D01*
X104425004Y-44202834D01*
X104451362Y-44200000D01*
X107548638Y-44200000D01*
X107615677Y-44219685D01*
G37*
%TD.AperFunction*%
%TD*%
%TA.AperFunction,Conductor*%
%TO.N,+15V*%
G36*
X111800000Y-54748638D02*
G01*
X111780315Y-54815677D01*
X111763681Y-54836319D01*
X111636319Y-54963681D01*
X111574996Y-54997166D01*
X111548638Y-55000000D01*
X111199999Y-55000000D01*
X110600000Y-55599999D01*
X110600000Y-63348638D01*
X110580315Y-63415677D01*
X110563681Y-63436319D01*
X110436319Y-63563681D01*
X110374996Y-63597166D01*
X110348638Y-63600000D01*
X107251362Y-63600000D01*
X107184323Y-63580315D01*
X107163681Y-63563681D01*
X107036319Y-63436319D01*
X107002834Y-63374996D01*
X107000000Y-63348638D01*
X107000000Y-51451362D01*
X107019685Y-51384323D01*
X107036319Y-51363681D01*
X107163681Y-51236319D01*
X107225004Y-51202834D01*
X107251362Y-51200000D01*
X110000000Y-51200000D01*
X111800000Y-51200000D01*
X111800000Y-54748638D01*
G37*
%TD.AperFunction*%
%TD*%
%TA.AperFunction,Conductor*%
%TO.N,Net-(U1-FB)*%
G36*
X100515677Y-45269685D02*
G01*
X100536319Y-45286319D01*
X100713681Y-45463681D01*
X100747166Y-45525004D01*
X100750000Y-45551362D01*
X100750000Y-47000000D01*
X101000000Y-47250000D01*
X102390825Y-47250000D01*
X102457864Y-47269685D01*
X102478506Y-47286319D01*
X102675681Y-47483494D01*
X102709166Y-47544817D01*
X102712000Y-47571175D01*
X102712000Y-48236636D01*
X102692315Y-48303675D01*
X102675681Y-48324317D01*
X102586817Y-48413181D01*
X102525494Y-48446666D01*
X102499136Y-48449500D01*
X101555982Y-48449500D01*
X101462195Y-48464354D01*
X101418761Y-48486485D01*
X101362467Y-48500000D01*
X100301362Y-48500000D01*
X100234323Y-48480315D01*
X100213681Y-48463681D01*
X100036319Y-48286319D01*
X100002834Y-48224996D01*
X100000000Y-48198638D01*
X100000000Y-47000000D01*
X99750000Y-46750000D01*
X98551362Y-46750000D01*
X98484323Y-46730315D01*
X98463681Y-46713681D01*
X98286319Y-46536319D01*
X98252834Y-46474996D01*
X98250000Y-46448638D01*
X98250000Y-45551362D01*
X98269685Y-45484323D01*
X98286319Y-45463681D01*
X98463681Y-45286319D01*
X98525004Y-45252834D01*
X98551362Y-45250000D01*
X100448638Y-45250000D01*
X100515677Y-45269685D01*
G37*
%TD.AperFunction*%
%TD*%
%TA.AperFunction,Conductor*%
%TO.N,VDC*%
G36*
X102559125Y-48701141D02*
G01*
X102620790Y-48700033D01*
X102680238Y-48736745D01*
X102710401Y-48799768D01*
X102712000Y-48819619D01*
X102712000Y-49382857D01*
X102709167Y-49409205D01*
X102708141Y-49413926D01*
X102708141Y-49413928D01*
X102708141Y-49413929D01*
X102711684Y-49463460D01*
X102712000Y-49472307D01*
X102712000Y-49485796D01*
X102713920Y-49499153D01*
X102714865Y-49507945D01*
X102718409Y-49557485D01*
X102720093Y-49561999D01*
X102726648Y-49587681D01*
X102727334Y-49592454D01*
X102727335Y-49592457D01*
X102733293Y-49605502D01*
X102744500Y-49657016D01*
X102744500Y-49686409D01*
X102747644Y-49726354D01*
X102747647Y-49726380D01*
X102748474Y-49731603D01*
X102750000Y-49750994D01*
X102750000Y-50149001D01*
X102748474Y-50168396D01*
X102747645Y-50173630D01*
X102744500Y-50213590D01*
X102744500Y-52704138D01*
X102724815Y-52771177D01*
X102708181Y-52791819D01*
X102536319Y-52963681D01*
X102474996Y-52997166D01*
X102448638Y-53000000D01*
X101551362Y-53000000D01*
X101484323Y-52980315D01*
X101463681Y-52963681D01*
X101286319Y-52786319D01*
X101252834Y-52724996D01*
X101250000Y-52698638D01*
X101250000Y-51750000D01*
X101000000Y-51500000D01*
X99551362Y-51500000D01*
X99484323Y-51480315D01*
X99463681Y-51463681D01*
X99286319Y-51286319D01*
X99252834Y-51224996D01*
X99250000Y-51198638D01*
X99250000Y-49051362D01*
X99269685Y-48984323D01*
X99286319Y-48963681D01*
X99463681Y-48786319D01*
X99525004Y-48752834D01*
X99551362Y-48750000D01*
X100254240Y-48750000D01*
X100271885Y-48751261D01*
X100301362Y-48755500D01*
X100301363Y-48755500D01*
X101362464Y-48755500D01*
X101362467Y-48755500D01*
X101422112Y-48748441D01*
X101478406Y-48734926D01*
X101534757Y-48714137D01*
X101534764Y-48714133D01*
X101535597Y-48713826D01*
X101559129Y-48707686D01*
X101560986Y-48707392D01*
X101566466Y-48706525D01*
X101585852Y-48705000D01*
X102499137Y-48705000D01*
X102500573Y-48704922D01*
X102526450Y-48703536D01*
X102552808Y-48700702D01*
X102558775Y-48699460D01*
X102559125Y-48701141D01*
G37*
%TD.AperFunction*%
%TD*%
%TA.AperFunction,Conductor*%
%TO.N,GND*%
G36*
X103400000Y-44600000D02*
G01*
X103400000Y-49200000D01*
X103478464Y-49278464D01*
X103534450Y-49388342D01*
X103534452Y-49388344D01*
X103534454Y-49388347D01*
X103624152Y-49478045D01*
X103624154Y-49478046D01*
X103624158Y-49478050D01*
X103735557Y-49534811D01*
X103737198Y-49535647D01*
X103830975Y-49550499D01*
X103830981Y-49550500D01*
X104919018Y-49550499D01*
X105012804Y-49535646D01*
X105013899Y-49535088D01*
X105015372Y-49534811D01*
X105022085Y-49532630D01*
X105022366Y-49533496D01*
X105082562Y-49522183D01*
X105147306Y-49548451D01*
X105157885Y-49557885D01*
X105163681Y-49563681D01*
X105197166Y-49625004D01*
X105200000Y-49651362D01*
X105200000Y-50200000D01*
X105600000Y-50600000D01*
X106148638Y-50600000D01*
X106215677Y-50619685D01*
X106236319Y-50636319D01*
X106363681Y-50763681D01*
X106397166Y-50825004D01*
X106400000Y-50851362D01*
X106400000Y-54748637D01*
X106380315Y-54815676D01*
X106363681Y-54836318D01*
X106199999Y-54999999D01*
X106200000Y-55000000D01*
X105200000Y-55000000D01*
X105000000Y-54800000D01*
X105000000Y-54200000D01*
X104600000Y-53800000D01*
X103400000Y-53800000D01*
X103000000Y-53400000D01*
X103000000Y-50213600D01*
X103012999Y-50131524D01*
X103013000Y-50131519D01*
X103012999Y-49768482D01*
X103000000Y-49686402D01*
X103000000Y-49263600D01*
X103012999Y-49181524D01*
X103013000Y-49181519D01*
X103012999Y-48818482D01*
X103000000Y-48736402D01*
X103000000Y-48313600D01*
X103012999Y-48231524D01*
X103013000Y-48231519D01*
X103012999Y-47868482D01*
X103000000Y-47786402D01*
X103000000Y-47400000D01*
X102200000Y-46600000D01*
X101600000Y-46600000D01*
X101200000Y-46200000D01*
X101200000Y-44800000D01*
X101600000Y-44400000D01*
X103200000Y-44400000D01*
X103400000Y-44600000D01*
G37*
%TD.AperFunction*%
%TD*%
%TA.AperFunction,Conductor*%
%TO.N,+15V*%
G36*
X111615677Y-44219685D02*
G01*
X111636319Y-44236319D01*
X111763681Y-44363681D01*
X111797166Y-44425004D01*
X111800000Y-44451362D01*
X111800000Y-51200000D01*
X110000000Y-51200000D01*
X110200000Y-51000000D01*
X110200000Y-44451362D01*
X110219685Y-44384323D01*
X110236319Y-44363681D01*
X110363681Y-44236319D01*
X110425004Y-44202834D01*
X110451362Y-44200000D01*
X111548638Y-44200000D01*
X111615677Y-44219685D01*
G37*
%TD.AperFunction*%
%TD*%
%TA.AperFunction,Conductor*%
%TO.N,GND*%
G36*
X103207841Y-37120185D02*
G01*
X103237630Y-37147038D01*
X103572828Y-37566035D01*
X103599336Y-37630681D01*
X103600000Y-37643497D01*
X103600000Y-47544745D01*
X103580315Y-47611784D01*
X103563681Y-47632426D01*
X103534454Y-47661652D01*
X103534451Y-47661657D01*
X103476852Y-47774698D01*
X103462000Y-47868475D01*
X103462000Y-48231517D01*
X103471236Y-48289830D01*
X103476854Y-48325304D01*
X103534450Y-48438342D01*
X103534453Y-48438345D01*
X103540189Y-48446241D01*
X103538834Y-48447224D01*
X103566911Y-48498642D01*
X103561927Y-48568334D01*
X103539487Y-48603249D01*
X103540189Y-48603759D01*
X103534451Y-48611657D01*
X103476852Y-48724698D01*
X103462000Y-48818475D01*
X103462000Y-49181517D01*
X103472792Y-49249657D01*
X103476854Y-49275304D01*
X103478464Y-49278464D01*
X103400000Y-49200000D01*
X103400000Y-44600000D01*
X103200000Y-44400000D01*
X101600000Y-44400000D01*
X101200000Y-44800000D01*
X101200000Y-46200000D01*
X101600000Y-46600000D01*
X102200000Y-46600000D01*
X103000000Y-47400000D01*
X103000000Y-47786402D01*
X102998146Y-47774696D01*
X102981015Y-47741074D01*
X102967500Y-47684780D01*
X102967500Y-47571173D01*
X102966083Y-47544745D01*
X102966036Y-47543861D01*
X102963202Y-47517503D01*
X102933413Y-47422369D01*
X102932520Y-47420734D01*
X102899931Y-47361051D01*
X102899926Y-47361043D01*
X102856350Y-47302832D01*
X102856349Y-47302831D01*
X102856347Y-47302828D01*
X102856342Y-47302823D01*
X102856334Y-47302814D01*
X102659186Y-47105667D01*
X102659172Y-47105653D01*
X102638822Y-47087374D01*
X102638816Y-47087369D01*
X102638807Y-47087361D01*
X102618186Y-47070744D01*
X102618183Y-47070742D01*
X102618180Y-47070740D01*
X102529849Y-47024535D01*
X102515311Y-47020266D01*
X102462811Y-47004850D01*
X102462803Y-47004848D01*
X102390826Y-46994500D01*
X102390825Y-46994500D01*
X101157194Y-46994500D01*
X101090155Y-46974815D01*
X101069513Y-46958181D01*
X101041819Y-46930487D01*
X101008334Y-46869164D01*
X101005500Y-46842806D01*
X101005500Y-45551360D01*
X101005124Y-45544347D01*
X101004036Y-45524048D01*
X101001202Y-45497690D01*
X100971413Y-45402556D01*
X100937928Y-45341233D01*
X100928300Y-45328372D01*
X100894350Y-45283019D01*
X100894349Y-45283018D01*
X100894347Y-45283015D01*
X100894342Y-45283010D01*
X100894334Y-45283001D01*
X100716999Y-45105667D01*
X100716997Y-45105665D01*
X100716985Y-45105653D01*
X100696635Y-45087374D01*
X100696629Y-45087369D01*
X100696620Y-45087361D01*
X100675999Y-45070744D01*
X100675996Y-45070742D01*
X100675993Y-45070740D01*
X100587662Y-45024535D01*
X100587659Y-45024534D01*
X100520624Y-45004850D01*
X100520616Y-45004848D01*
X100448639Y-44994500D01*
X100448638Y-44994500D01*
X98551362Y-44994500D01*
X98551361Y-44994500D01*
X98524065Y-44995963D01*
X98524060Y-44995963D01*
X98524048Y-44995964D01*
X98524040Y-44995964D01*
X98524011Y-44995967D01*
X98497689Y-44998797D01*
X98497687Y-44998798D01*
X98402558Y-45028586D01*
X98402548Y-45028590D01*
X98341238Y-45062068D01*
X98341230Y-45062073D01*
X98283019Y-45105649D01*
X98283001Y-45105665D01*
X98105667Y-45283000D01*
X98105638Y-45283031D01*
X98087361Y-45303379D01*
X98070744Y-45324000D01*
X98070740Y-45324005D01*
X98070740Y-45324007D01*
X98024535Y-45412338D01*
X98024534Y-45412340D01*
X98021712Y-45417736D01*
X98020264Y-45416978D01*
X97981802Y-45465584D01*
X97915706Y-45488236D01*
X97847856Y-45471558D01*
X97810914Y-45438669D01*
X97789688Y-45410314D01*
X97680228Y-45328373D01*
X97680226Y-45328372D01*
X97552114Y-45280588D01*
X97552112Y-45280587D01*
X97552110Y-45280587D01*
X97495493Y-45274500D01*
X96954518Y-45274500D01*
X96954509Y-45274501D01*
X96897885Y-45280587D01*
X96769773Y-45328372D01*
X96660313Y-45410313D01*
X96578373Y-45519771D01*
X96569207Y-45544347D01*
X96531609Y-45645150D01*
X96530587Y-45647889D01*
X96524500Y-45704498D01*
X96524500Y-46295481D01*
X96524501Y-46295490D01*
X96530587Y-46352114D01*
X96566590Y-46448638D01*
X96578372Y-46480226D01*
X96660313Y-46589687D01*
X96769774Y-46671628D01*
X96793836Y-46680602D01*
X96849767Y-46722473D01*
X96874184Y-46787937D01*
X96874500Y-46796783D01*
X96874500Y-47175788D01*
X96871861Y-47201232D01*
X96869957Y-47210311D01*
X96869957Y-47210316D01*
X96873548Y-47239121D01*
X96874396Y-47252795D01*
X96874499Y-47254032D01*
X96874500Y-47254037D01*
X96874500Y-47254040D01*
X96875715Y-47261321D01*
X96877666Y-47273015D01*
X96878403Y-47278077D01*
X96884426Y-47326390D01*
X96886524Y-47333435D01*
X96888907Y-47340379D01*
X96888908Y-47340381D01*
X96900094Y-47361051D01*
X96912082Y-47383203D01*
X96914421Y-47387747D01*
X96935802Y-47431484D01*
X96935804Y-47431486D01*
X96935805Y-47431488D01*
X96940062Y-47437451D01*
X96944583Y-47443259D01*
X96980398Y-47476230D01*
X96984096Y-47479778D01*
X97213535Y-47709217D01*
X97247020Y-47770540D01*
X97248793Y-47780712D01*
X97263670Y-47893707D01*
X97263671Y-47893712D01*
X97319137Y-48027622D01*
X97319138Y-48027624D01*
X97319139Y-48027625D01*
X97407379Y-48142621D01*
X97522375Y-48230861D01*
X97522376Y-48230861D01*
X97522377Y-48230862D01*
X97539323Y-48237881D01*
X97656291Y-48286330D01*
X97783280Y-48303048D01*
X97799999Y-48305250D01*
X97800000Y-48305250D01*
X97800001Y-48305250D01*
X97814977Y-48303278D01*
X97943709Y-48286330D01*
X97979886Y-48271344D01*
X98049354Y-48263875D01*
X98111834Y-48295149D01*
X98127104Y-48312265D01*
X98152850Y-48347150D01*
X98262118Y-48427793D01*
X98304845Y-48442744D01*
X98390299Y-48472646D01*
X98420730Y-48475500D01*
X98420734Y-48475500D01*
X98929270Y-48475500D01*
X98959699Y-48472646D01*
X98959701Y-48472646D01*
X99035160Y-48446241D01*
X99087882Y-48427793D01*
X99197150Y-48347150D01*
X99277793Y-48237882D01*
X99311126Y-48142621D01*
X99322646Y-48109701D01*
X99322646Y-48109699D01*
X99325500Y-48079269D01*
X99325500Y-47420730D01*
X99322646Y-47390300D01*
X99322646Y-47390298D01*
X99283377Y-47278077D01*
X99277793Y-47262118D01*
X99277791Y-47262115D01*
X99277790Y-47262113D01*
X99234261Y-47203133D01*
X99210290Y-47137504D01*
X99225606Y-47069334D01*
X99275346Y-47020266D01*
X99334031Y-47005500D01*
X99592806Y-47005500D01*
X99659845Y-47025185D01*
X99680487Y-47041819D01*
X99708181Y-47069513D01*
X99741666Y-47130836D01*
X99744500Y-47157194D01*
X99744500Y-47191108D01*
X99726126Y-47253680D01*
X99726548Y-47253903D01*
X99725452Y-47255975D01*
X99724815Y-47258147D01*
X99722627Y-47261321D01*
X99722209Y-47262112D01*
X99677353Y-47390303D01*
X99674500Y-47420730D01*
X99674500Y-48079269D01*
X99677353Y-48109696D01*
X99677353Y-48109698D01*
X99677354Y-48109699D01*
X99722207Y-48237882D01*
X99741391Y-48263875D01*
X99748196Y-48273096D01*
X99766758Y-48309672D01*
X99774202Y-48333443D01*
X99775452Y-48403302D01*
X99738734Y-48462746D01*
X99675708Y-48492903D01*
X99655869Y-48494500D01*
X99551361Y-48494500D01*
X99524065Y-48495963D01*
X99524060Y-48495963D01*
X99524048Y-48495964D01*
X99524040Y-48495964D01*
X99524011Y-48495967D01*
X99497689Y-48498797D01*
X99497687Y-48498798D01*
X99402558Y-48528586D01*
X99402548Y-48528590D01*
X99341238Y-48562068D01*
X99341230Y-48562073D01*
X99283019Y-48605649D01*
X99283001Y-48605665D01*
X99105667Y-48783000D01*
X99105638Y-48783031D01*
X99087361Y-48803379D01*
X99070744Y-48824000D01*
X99024534Y-48912340D01*
X99004850Y-48979375D01*
X99004848Y-48979383D01*
X98994500Y-49051360D01*
X98994500Y-51198639D01*
X98995963Y-51225934D01*
X98995967Y-51225988D01*
X98998797Y-51252310D01*
X98998798Y-51252312D01*
X99028586Y-51347441D01*
X99028590Y-51347451D01*
X99062068Y-51408761D01*
X99062073Y-51408769D01*
X99105649Y-51466980D01*
X99105665Y-51466998D01*
X99234262Y-51595594D01*
X99283015Y-51644347D01*
X99303365Y-51662626D01*
X99303371Y-51662631D01*
X99303379Y-51662638D01*
X99324000Y-51679255D01*
X99324002Y-51679256D01*
X99324007Y-51679260D01*
X99412338Y-51725465D01*
X99479377Y-51745150D01*
X99479381Y-51745150D01*
X99479383Y-51745151D01*
X99491014Y-51746823D01*
X99551362Y-51755500D01*
X100842806Y-51755500D01*
X100909845Y-51775185D01*
X100930487Y-51791819D01*
X100958181Y-51819513D01*
X100991666Y-51880836D01*
X100994500Y-51907194D01*
X100994500Y-52698639D01*
X100995963Y-52725934D01*
X100995967Y-52725988D01*
X100998797Y-52752310D01*
X100998798Y-52752312D01*
X101028586Y-52847441D01*
X101028590Y-52847451D01*
X101062068Y-52908761D01*
X101062073Y-52908769D01*
X101105649Y-52966980D01*
X101105665Y-52966998D01*
X101283000Y-53144332D01*
X101283015Y-53144347D01*
X101303365Y-53162626D01*
X101303371Y-53162631D01*
X101303379Y-53162638D01*
X101324000Y-53179255D01*
X101324002Y-53179256D01*
X101324007Y-53179260D01*
X101412338Y-53225465D01*
X101479377Y-53245150D01*
X101479381Y-53245150D01*
X101479383Y-53245151D01*
X101491014Y-53246823D01*
X101551362Y-53255500D01*
X101551363Y-53255500D01*
X102448639Y-53255500D01*
X102450075Y-53255422D01*
X102475952Y-53254036D01*
X102502310Y-53251202D01*
X102597444Y-53221413D01*
X102658767Y-53187928D01*
X102716985Y-53144347D01*
X102888847Y-52972485D01*
X102907126Y-52952135D01*
X102923760Y-52931493D01*
X102969965Y-52843162D01*
X102989650Y-52776123D01*
X103000000Y-52704138D01*
X103000000Y-53400000D01*
X103400000Y-53800000D01*
X104600000Y-53800000D01*
X105000000Y-54200000D01*
X105000000Y-54800000D01*
X105200000Y-55000000D01*
X106200000Y-55000000D01*
X106699883Y-55416569D01*
X106738782Y-55474608D01*
X106744500Y-55511828D01*
X106744500Y-60425500D01*
X106724815Y-60492539D01*
X106672011Y-60538294D01*
X106620500Y-60549500D01*
X102804892Y-60549500D01*
X102737853Y-60529815D01*
X102705626Y-60499812D01*
X102695742Y-60486609D01*
X102695729Y-60486594D01*
X102493405Y-60284270D01*
X102493387Y-60284254D01*
X102264317Y-60112775D01*
X102264309Y-60112770D01*
X102013166Y-59975635D01*
X102013167Y-59975635D01*
X101905915Y-59935632D01*
X101745046Y-59875631D01*
X101745043Y-59875630D01*
X101745037Y-59875628D01*
X101465433Y-59814804D01*
X101180001Y-59794390D01*
X101179999Y-59794390D01*
X100894566Y-59814804D01*
X100614962Y-59875628D01*
X100346833Y-59975635D01*
X100095690Y-60112770D01*
X100095682Y-60112775D01*
X99866612Y-60284254D01*
X99866594Y-60284270D01*
X99664270Y-60486594D01*
X99664257Y-60486609D01*
X99654374Y-60499812D01*
X99598440Y-60541682D01*
X99555108Y-60549500D01*
X95254892Y-60549500D01*
X95187853Y-60529815D01*
X95155626Y-60499812D01*
X95145742Y-60486609D01*
X95145729Y-60486594D01*
X94943405Y-60284270D01*
X94943387Y-60284254D01*
X94714317Y-60112775D01*
X94714309Y-60112770D01*
X94463166Y-59975635D01*
X94463167Y-59975635D01*
X94355915Y-59935632D01*
X94195046Y-59875631D01*
X94195043Y-59875630D01*
X94195037Y-59875628D01*
X93915433Y-59814804D01*
X93630001Y-59794390D01*
X93629999Y-59794390D01*
X93344566Y-59814804D01*
X93064962Y-59875628D01*
X92796833Y-59975635D01*
X92545690Y-60112770D01*
X92545682Y-60112775D01*
X92316612Y-60284254D01*
X92316594Y-60284270D01*
X92114270Y-60486594D01*
X92114257Y-60486609D01*
X92104374Y-60499812D01*
X92048440Y-60541682D01*
X92005108Y-60549500D01*
X87704892Y-60549500D01*
X87637853Y-60529815D01*
X87605626Y-60499812D01*
X87595742Y-60486609D01*
X87595729Y-60486594D01*
X87393405Y-60284270D01*
X87393387Y-60284254D01*
X87164317Y-60112775D01*
X87164309Y-60112770D01*
X86913166Y-59975635D01*
X86913167Y-59975635D01*
X86805915Y-59935632D01*
X86645046Y-59875631D01*
X86645043Y-59875630D01*
X86645037Y-59875628D01*
X86365433Y-59814804D01*
X86080001Y-59794390D01*
X86079999Y-59794390D01*
X85794566Y-59814804D01*
X85514962Y-59875628D01*
X85246833Y-59975635D01*
X84995690Y-60112770D01*
X84995682Y-60112775D01*
X84766612Y-60284254D01*
X84766594Y-60284270D01*
X84564270Y-60486594D01*
X84564257Y-60486609D01*
X84554374Y-60499812D01*
X84498440Y-60541682D01*
X84455108Y-60549500D01*
X80154892Y-60549500D01*
X80087853Y-60529815D01*
X80055626Y-60499812D01*
X80045742Y-60486609D01*
X80045729Y-60486594D01*
X79843405Y-60284270D01*
X79843387Y-60284254D01*
X79614317Y-60112775D01*
X79614309Y-60112770D01*
X79363166Y-59975635D01*
X79363167Y-59975635D01*
X79255915Y-59935632D01*
X79095046Y-59875631D01*
X79095043Y-59875630D01*
X79095037Y-59875628D01*
X78815433Y-59814804D01*
X78530001Y-59794390D01*
X78529999Y-59794390D01*
X78244566Y-59814804D01*
X77964962Y-59875628D01*
X77696833Y-59975635D01*
X77445690Y-60112770D01*
X77445682Y-60112775D01*
X77216612Y-60284254D01*
X77216594Y-60284270D01*
X77014270Y-60486594D01*
X77014257Y-60486609D01*
X77004374Y-60499812D01*
X76948440Y-60541682D01*
X76905108Y-60549500D01*
X72604892Y-60549500D01*
X72537853Y-60529815D01*
X72505626Y-60499812D01*
X72495742Y-60486609D01*
X72495729Y-60486594D01*
X72293405Y-60284270D01*
X72293387Y-60284254D01*
X72064317Y-60112775D01*
X72064309Y-60112770D01*
X71813166Y-59975635D01*
X71813167Y-59975635D01*
X71705915Y-59935632D01*
X71545046Y-59875631D01*
X71545043Y-59875630D01*
X71545037Y-59875628D01*
X71265433Y-59814804D01*
X70980001Y-59794390D01*
X70979999Y-59794390D01*
X70694566Y-59814804D01*
X70414962Y-59875628D01*
X70146833Y-59975635D01*
X69895690Y-60112770D01*
X69895682Y-60112775D01*
X69666612Y-60284254D01*
X69666594Y-60284270D01*
X69464270Y-60486594D01*
X69464254Y-60486612D01*
X69292775Y-60715682D01*
X69292770Y-60715690D01*
X69155635Y-60966833D01*
X69055628Y-61234962D01*
X68994804Y-61514566D01*
X68974390Y-61799998D01*
X68974390Y-61800001D01*
X68994804Y-62085433D01*
X69055628Y-62365037D01*
X69155635Y-62633166D01*
X69292770Y-62884309D01*
X69292775Y-62884317D01*
X69464254Y-63113387D01*
X69464270Y-63113405D01*
X69666594Y-63315729D01*
X69666612Y-63315745D01*
X69895682Y-63487224D01*
X69895690Y-63487229D01*
X70146833Y-63624364D01*
X70146832Y-63624364D01*
X70146836Y-63624365D01*
X70146839Y-63624367D01*
X70414954Y-63724369D01*
X70414960Y-63724370D01*
X70414962Y-63724371D01*
X70694566Y-63785195D01*
X70694568Y-63785195D01*
X70694572Y-63785196D01*
X70948220Y-63803337D01*
X70979999Y-63805610D01*
X70980000Y-63805610D01*
X70980001Y-63805610D01*
X71008595Y-63803564D01*
X71265428Y-63785196D01*
X71292716Y-63779260D01*
X71545037Y-63724371D01*
X71545037Y-63724370D01*
X71545046Y-63724369D01*
X71813161Y-63624367D01*
X72064315Y-63487226D01*
X72293395Y-63315739D01*
X72495739Y-63113395D01*
X72505626Y-63100188D01*
X72561560Y-63058318D01*
X72604892Y-63050500D01*
X76905108Y-63050500D01*
X76972147Y-63070185D01*
X77004374Y-63100188D01*
X77014257Y-63113390D01*
X77014270Y-63113405D01*
X77216594Y-63315729D01*
X77216612Y-63315745D01*
X77445682Y-63487224D01*
X77445690Y-63487229D01*
X77696833Y-63624364D01*
X77696832Y-63624364D01*
X77696836Y-63624365D01*
X77696839Y-63624367D01*
X77964954Y-63724369D01*
X77964960Y-63724370D01*
X77964962Y-63724371D01*
X78244566Y-63785195D01*
X78244568Y-63785195D01*
X78244572Y-63785196D01*
X78498220Y-63803337D01*
X78529999Y-63805610D01*
X78530000Y-63805610D01*
X78530001Y-63805610D01*
X78558595Y-63803564D01*
X78815428Y-63785196D01*
X78842716Y-63779260D01*
X79095037Y-63724371D01*
X79095037Y-63724370D01*
X79095046Y-63724369D01*
X79363161Y-63624367D01*
X79614315Y-63487226D01*
X79843395Y-63315739D01*
X80045739Y-63113395D01*
X80055626Y-63100188D01*
X80111560Y-63058318D01*
X80154892Y-63050500D01*
X84455108Y-63050500D01*
X84522147Y-63070185D01*
X84554374Y-63100188D01*
X84564257Y-63113390D01*
X84564270Y-63113405D01*
X84766594Y-63315729D01*
X84766612Y-63315745D01*
X84995682Y-63487224D01*
X84995690Y-63487229D01*
X85246833Y-63624364D01*
X85246832Y-63624364D01*
X85246836Y-63624365D01*
X85246839Y-63624367D01*
X85514954Y-63724369D01*
X85514960Y-63724370D01*
X85514962Y-63724371D01*
X85794566Y-63785195D01*
X85794568Y-63785195D01*
X85794572Y-63785196D01*
X86048220Y-63803337D01*
X86079999Y-63805610D01*
X86080000Y-63805610D01*
X86080001Y-63805610D01*
X86108595Y-63803564D01*
X86365428Y-63785196D01*
X86392716Y-63779260D01*
X86645037Y-63724371D01*
X86645037Y-63724370D01*
X86645046Y-63724369D01*
X86913161Y-63624367D01*
X87164315Y-63487226D01*
X87393395Y-63315739D01*
X87595739Y-63113395D01*
X87605626Y-63100188D01*
X87661560Y-63058318D01*
X87704892Y-63050500D01*
X92005108Y-63050500D01*
X92072147Y-63070185D01*
X92104374Y-63100188D01*
X92114257Y-63113390D01*
X92114270Y-63113405D01*
X92316594Y-63315729D01*
X92316612Y-63315745D01*
X92545682Y-63487224D01*
X92545690Y-63487229D01*
X92796833Y-63624364D01*
X92796832Y-63624364D01*
X92796836Y-63624365D01*
X92796839Y-63624367D01*
X93064954Y-63724369D01*
X93064960Y-63724370D01*
X93064962Y-63724371D01*
X93344566Y-63785195D01*
X93344568Y-63785195D01*
X93344572Y-63785196D01*
X93598220Y-63803337D01*
X93629999Y-63805610D01*
X93630000Y-63805610D01*
X93630001Y-63805610D01*
X93658595Y-63803564D01*
X93915428Y-63785196D01*
X93942716Y-63779260D01*
X94195037Y-63724371D01*
X94195037Y-63724370D01*
X94195046Y-63724369D01*
X94463161Y-63624367D01*
X94714315Y-63487226D01*
X94943395Y-63315739D01*
X95145739Y-63113395D01*
X95155626Y-63100188D01*
X95211560Y-63058318D01*
X95254892Y-63050500D01*
X99555108Y-63050500D01*
X99622147Y-63070185D01*
X99654374Y-63100188D01*
X99664257Y-63113390D01*
X99664270Y-63113405D01*
X99866594Y-63315729D01*
X99866612Y-63315745D01*
X100095682Y-63487224D01*
X100095690Y-63487229D01*
X100346833Y-63624364D01*
X100346832Y-63624364D01*
X100346836Y-63624365D01*
X100346839Y-63624367D01*
X100614954Y-63724369D01*
X100614960Y-63724370D01*
X100614962Y-63724371D01*
X100894566Y-63785195D01*
X100894568Y-63785195D01*
X100894572Y-63785196D01*
X101148220Y-63803337D01*
X101179999Y-63805610D01*
X101180000Y-63805610D01*
X101180001Y-63805610D01*
X101208595Y-63803564D01*
X101465428Y-63785196D01*
X101492716Y-63779260D01*
X101745037Y-63724371D01*
X101745037Y-63724370D01*
X101745046Y-63724369D01*
X102013161Y-63624367D01*
X102264315Y-63487226D01*
X102493395Y-63315739D01*
X102695739Y-63113395D01*
X102705626Y-63100188D01*
X102761560Y-63058318D01*
X102804892Y-63050500D01*
X106620500Y-63050500D01*
X106687539Y-63070185D01*
X106733294Y-63122989D01*
X106744500Y-63174500D01*
X106744500Y-63348639D01*
X106745963Y-63375934D01*
X106745967Y-63375988D01*
X106748797Y-63402310D01*
X106748798Y-63402312D01*
X106778586Y-63497441D01*
X106778590Y-63497451D01*
X106812068Y-63558761D01*
X106812073Y-63558769D01*
X106855649Y-63616980D01*
X106855653Y-63616985D01*
X106983015Y-63744347D01*
X107003365Y-63762626D01*
X107003371Y-63762631D01*
X107003379Y-63762638D01*
X107024000Y-63779255D01*
X107024002Y-63779256D01*
X107024007Y-63779260D01*
X107112338Y-63825465D01*
X107179377Y-63845150D01*
X107179381Y-63845150D01*
X107179383Y-63845151D01*
X107191014Y-63846823D01*
X107251362Y-63855500D01*
X107251363Y-63855500D01*
X110348639Y-63855500D01*
X110350075Y-63855422D01*
X110375952Y-63854036D01*
X110402310Y-63851202D01*
X110497444Y-63821413D01*
X110558767Y-63787928D01*
X110616985Y-63744347D01*
X110744347Y-63616985D01*
X110762626Y-63596635D01*
X110779260Y-63575993D01*
X110825465Y-63487662D01*
X110845150Y-63420623D01*
X110855500Y-63348638D01*
X110855500Y-63174500D01*
X110875185Y-63107461D01*
X110927989Y-63061706D01*
X110979500Y-63050500D01*
X114655108Y-63050500D01*
X114722147Y-63070185D01*
X114754374Y-63100188D01*
X114764257Y-63113390D01*
X114764270Y-63113405D01*
X114966594Y-63315729D01*
X114966612Y-63315745D01*
X115195682Y-63487224D01*
X115195690Y-63487229D01*
X115446833Y-63624364D01*
X115446832Y-63624364D01*
X115446836Y-63624365D01*
X115446839Y-63624367D01*
X115714954Y-63724369D01*
X115714960Y-63724370D01*
X115714962Y-63724371D01*
X115994566Y-63785195D01*
X115994568Y-63785195D01*
X115994572Y-63785196D01*
X116248220Y-63803337D01*
X116279999Y-63805610D01*
X116280000Y-63805610D01*
X116280001Y-63805610D01*
X116308595Y-63803564D01*
X116565428Y-63785196D01*
X116592716Y-63779260D01*
X116845037Y-63724371D01*
X116845037Y-63724370D01*
X116845046Y-63724369D01*
X117113161Y-63624367D01*
X117364315Y-63487226D01*
X117593395Y-63315739D01*
X117795739Y-63113395D01*
X117805626Y-63100188D01*
X117861560Y-63058318D01*
X117904892Y-63050500D01*
X122205108Y-63050500D01*
X122272147Y-63070185D01*
X122304374Y-63100188D01*
X122314257Y-63113390D01*
X122314270Y-63113405D01*
X122516594Y-63315729D01*
X122516612Y-63315745D01*
X122745682Y-63487224D01*
X122745690Y-63487229D01*
X122996833Y-63624364D01*
X122996832Y-63624364D01*
X122996836Y-63624365D01*
X122996839Y-63624367D01*
X123264954Y-63724369D01*
X123264960Y-63724370D01*
X123264962Y-63724371D01*
X123544566Y-63785195D01*
X123544568Y-63785195D01*
X123544572Y-63785196D01*
X123798220Y-63803337D01*
X123829999Y-63805610D01*
X123830000Y-63805610D01*
X123830001Y-63805610D01*
X123858595Y-63803564D01*
X124115428Y-63785196D01*
X124142716Y-63779260D01*
X124395037Y-63724371D01*
X124395037Y-63724370D01*
X124395046Y-63724369D01*
X124663161Y-63624367D01*
X124914315Y-63487226D01*
X125143395Y-63315739D01*
X125345739Y-63113395D01*
X125355626Y-63100188D01*
X125411560Y-63058318D01*
X125454892Y-63050500D01*
X129755108Y-63050500D01*
X129822147Y-63070185D01*
X129854374Y-63100188D01*
X129864257Y-63113390D01*
X129864270Y-63113405D01*
X130066594Y-63315729D01*
X130066612Y-63315745D01*
X130295682Y-63487224D01*
X130295690Y-63487229D01*
X130546833Y-63624364D01*
X130546832Y-63624364D01*
X130546836Y-63624365D01*
X130546839Y-63624367D01*
X130814954Y-63724369D01*
X130814960Y-63724370D01*
X130814962Y-63724371D01*
X131094566Y-63785195D01*
X131094568Y-63785195D01*
X131094572Y-63785196D01*
X131348220Y-63803337D01*
X131379999Y-63805610D01*
X131380000Y-63805610D01*
X131380001Y-63805610D01*
X131408595Y-63803564D01*
X131665428Y-63785196D01*
X131692716Y-63779260D01*
X131945037Y-63724371D01*
X131945037Y-63724370D01*
X131945046Y-63724369D01*
X132213161Y-63624367D01*
X132464315Y-63487226D01*
X132693395Y-63315739D01*
X132895739Y-63113395D01*
X133067226Y-62884315D01*
X133204367Y-62633161D01*
X133304369Y-62365046D01*
X133365196Y-62085428D01*
X133385610Y-61800000D01*
X133365196Y-61514572D01*
X133304369Y-61234954D01*
X133204367Y-60966839D01*
X133067226Y-60715685D01*
X132942822Y-60549500D01*
X132895745Y-60486612D01*
X132895729Y-60486594D01*
X132693405Y-60284270D01*
X132693387Y-60284254D01*
X132464317Y-60112775D01*
X132464309Y-60112770D01*
X132213166Y-59975635D01*
X132213167Y-59975635D01*
X132105915Y-59935632D01*
X131945046Y-59875631D01*
X131945043Y-59875630D01*
X131945037Y-59875628D01*
X131665433Y-59814804D01*
X131380001Y-59794390D01*
X131379999Y-59794390D01*
X131094566Y-59814804D01*
X130814962Y-59875628D01*
X130546833Y-59975635D01*
X130295690Y-60112770D01*
X130295682Y-60112775D01*
X130066612Y-60284254D01*
X130066594Y-60284270D01*
X129864270Y-60486594D01*
X129864257Y-60486609D01*
X129854374Y-60499812D01*
X129798440Y-60541682D01*
X129755108Y-60549500D01*
X125454892Y-60549500D01*
X125387853Y-60529815D01*
X125355626Y-60499812D01*
X125345742Y-60486609D01*
X125345729Y-60486594D01*
X125143405Y-60284270D01*
X125143387Y-60284254D01*
X124914317Y-60112775D01*
X124914309Y-60112770D01*
X124663166Y-59975635D01*
X124663167Y-59975635D01*
X124555915Y-59935632D01*
X124395046Y-59875631D01*
X124395043Y-59875630D01*
X124395037Y-59875628D01*
X124348142Y-59865427D01*
X124286818Y-59831942D01*
X124253334Y-59770619D01*
X124250500Y-59744261D01*
X124250500Y-54567979D01*
X124270185Y-54500940D01*
X124316047Y-54458621D01*
X124358538Y-54435910D01*
X124510883Y-54310883D01*
X124635910Y-54158538D01*
X124728814Y-53984727D01*
X124786024Y-53796132D01*
X124805341Y-53600000D01*
X124786024Y-53403868D01*
X124728814Y-53215273D01*
X124728811Y-53215269D01*
X124728811Y-53215266D01*
X124635913Y-53041467D01*
X124635909Y-53041460D01*
X124510883Y-52889116D01*
X124358539Y-52764090D01*
X124358532Y-52764086D01*
X124184733Y-52671188D01*
X124184727Y-52671186D01*
X123996132Y-52613976D01*
X123996129Y-52613975D01*
X123800000Y-52594659D01*
X123603870Y-52613975D01*
X123415266Y-52671188D01*
X123241467Y-52764086D01*
X123241460Y-52764090D01*
X123089116Y-52889116D01*
X122964090Y-53041460D01*
X122964086Y-53041467D01*
X122871188Y-53215266D01*
X122813975Y-53403870D01*
X122794659Y-53600000D01*
X122813975Y-53796129D01*
X122871188Y-53984733D01*
X122964086Y-54158532D01*
X122964090Y-54158539D01*
X123089116Y-54310883D01*
X123241460Y-54435909D01*
X123241461Y-54435909D01*
X123241462Y-54435910D01*
X123283952Y-54458621D01*
X123333796Y-54507581D01*
X123349500Y-54567979D01*
X123349500Y-59758002D01*
X123329815Y-59825041D01*
X123277011Y-59870796D01*
X123268834Y-59874184D01*
X122996833Y-59975635D01*
X122745690Y-60112770D01*
X122745682Y-60112775D01*
X122516612Y-60284254D01*
X122516594Y-60284270D01*
X122314270Y-60486594D01*
X122314257Y-60486609D01*
X122304374Y-60499812D01*
X122248440Y-60541682D01*
X122205108Y-60549500D01*
X117904892Y-60549500D01*
X117837853Y-60529815D01*
X117805626Y-60499812D01*
X117795742Y-60486609D01*
X117795729Y-60486594D01*
X117593405Y-60284270D01*
X117593387Y-60284254D01*
X117364317Y-60112775D01*
X117364309Y-60112770D01*
X117113166Y-59975635D01*
X117113167Y-59975635D01*
X117005915Y-59935632D01*
X116845046Y-59875631D01*
X116845043Y-59875630D01*
X116845037Y-59875628D01*
X116565433Y-59814804D01*
X116280001Y-59794390D01*
X116279999Y-59794390D01*
X115994566Y-59814804D01*
X115714962Y-59875628D01*
X115446833Y-59975635D01*
X115195690Y-60112770D01*
X115195682Y-60112775D01*
X114966612Y-60284254D01*
X114966594Y-60284270D01*
X114764270Y-60486594D01*
X114764257Y-60486609D01*
X114754374Y-60499812D01*
X114698440Y-60541682D01*
X114655108Y-60549500D01*
X110979500Y-60549500D01*
X110912461Y-60529815D01*
X110866706Y-60477011D01*
X110855500Y-60425500D01*
X110855500Y-55757193D01*
X110875185Y-55690154D01*
X110891819Y-55669512D01*
X110925012Y-55636319D01*
X110986335Y-55602834D01*
X111012693Y-55600000D01*
X120300000Y-55600000D01*
X121300000Y-54600000D01*
X121300000Y-37651362D01*
X121319685Y-37584323D01*
X121336319Y-37563681D01*
X121763181Y-37136819D01*
X121824504Y-37103334D01*
X121850862Y-37100500D01*
X131234108Y-37100500D01*
X131296754Y-37100500D01*
X131303244Y-37100670D01*
X131607046Y-37116592D01*
X131619953Y-37117949D01*
X131739096Y-37136819D01*
X131917209Y-37165028D01*
X131929896Y-37167724D01*
X132220625Y-37245625D01*
X132232965Y-37249635D01*
X132513938Y-37357490D01*
X132525790Y-37362767D01*
X132793968Y-37499411D01*
X132805199Y-37505896D01*
X133057608Y-37669812D01*
X133068109Y-37677441D01*
X133302010Y-37866850D01*
X133311655Y-37875535D01*
X133524464Y-38088344D01*
X133533149Y-38097989D01*
X133722558Y-38331890D01*
X133730187Y-38342391D01*
X133894101Y-38594796D01*
X133900591Y-38606036D01*
X134037231Y-38874206D01*
X134042510Y-38886064D01*
X134150363Y-39167033D01*
X134154374Y-39179376D01*
X134232273Y-39470097D01*
X134234971Y-39482794D01*
X134282050Y-39780046D01*
X134283407Y-39792953D01*
X134299330Y-40096756D01*
X134299500Y-40103246D01*
X134299500Y-83096753D01*
X134299330Y-83103243D01*
X134283407Y-83407046D01*
X134282050Y-83419953D01*
X134234971Y-83717205D01*
X134232273Y-83729902D01*
X134154374Y-84020623D01*
X134150363Y-84032966D01*
X134042510Y-84313935D01*
X134037231Y-84325793D01*
X133900591Y-84593963D01*
X133894101Y-84605203D01*
X133730187Y-84857608D01*
X133722558Y-84868109D01*
X133533149Y-85102010D01*
X133524464Y-85111655D01*
X133311655Y-85324464D01*
X133302010Y-85333149D01*
X133068109Y-85522558D01*
X133057608Y-85530187D01*
X132805203Y-85694101D01*
X132793963Y-85700591D01*
X132525793Y-85837231D01*
X132513935Y-85842510D01*
X132232966Y-85950363D01*
X132220623Y-85954374D01*
X131929902Y-86032273D01*
X131917205Y-86034971D01*
X131619953Y-86082050D01*
X131607046Y-86083407D01*
X131303244Y-86099330D01*
X131296754Y-86099500D01*
X68303246Y-86099500D01*
X68296756Y-86099330D01*
X67992953Y-86083407D01*
X67980046Y-86082050D01*
X67682794Y-86034971D01*
X67670097Y-86032273D01*
X67379376Y-85954374D01*
X67367033Y-85950363D01*
X67086064Y-85842510D01*
X67074206Y-85837231D01*
X66806036Y-85700591D01*
X66794796Y-85694101D01*
X66542391Y-85530187D01*
X66531890Y-85522558D01*
X66297989Y-85333149D01*
X66288344Y-85324464D01*
X66075535Y-85111655D01*
X66066850Y-85102010D01*
X65877441Y-84868109D01*
X65869812Y-84857608D01*
X65861351Y-84844579D01*
X65705896Y-84605199D01*
X65699408Y-84593963D01*
X65684905Y-84565500D01*
X65562767Y-84325790D01*
X65557489Y-84313935D01*
X65553323Y-84303083D01*
X65449635Y-84032965D01*
X65445625Y-84020623D01*
X65367726Y-83729902D01*
X65365028Y-83717205D01*
X65317949Y-83419953D01*
X65316592Y-83407046D01*
X65300670Y-83103243D01*
X65300500Y-83096753D01*
X65300500Y-78179269D01*
X68149500Y-78179269D01*
X68152353Y-78209699D01*
X68152353Y-78209701D01*
X68197206Y-78337880D01*
X68197207Y-78337882D01*
X68277850Y-78447150D01*
X68387118Y-78527793D01*
X68429845Y-78542744D01*
X68515299Y-78572646D01*
X68545730Y-78575500D01*
X68545734Y-78575500D01*
X69054270Y-78575500D01*
X69084699Y-78572646D01*
X69084701Y-78572646D01*
X69162118Y-78545556D01*
X69212882Y-78527793D01*
X69322150Y-78447150D01*
X69356308Y-78400866D01*
X69411956Y-78358616D01*
X69456079Y-78350500D01*
X69521650Y-78350500D01*
X69588689Y-78370185D01*
X69634444Y-78422989D01*
X69637831Y-78431165D01*
X69648474Y-78459699D01*
X69680497Y-78545554D01*
X69765669Y-78659331D01*
X69840418Y-78715287D01*
X69879281Y-78744380D01*
X69879446Y-78744503D01*
X70012609Y-78794171D01*
X70071479Y-78800500D01*
X70653520Y-78800499D01*
X70712391Y-78794171D01*
X70845554Y-78744503D01*
X70959331Y-78659331D01*
X71044503Y-78545554D01*
X71094171Y-78412391D01*
X71096536Y-78390383D01*
X71100499Y-78353537D01*
X71100499Y-78353526D01*
X71100500Y-78353521D01*
X71100499Y-77346480D01*
X71095410Y-77299133D01*
X71094171Y-77287608D01*
X71075645Y-77237940D01*
X71044503Y-77154446D01*
X70959331Y-77040669D01*
X70862999Y-76968556D01*
X70845556Y-76955498D01*
X70845554Y-76955497D01*
X70712391Y-76905829D01*
X70712389Y-76905828D01*
X70712387Y-76905828D01*
X70653529Y-76899500D01*
X70071482Y-76899500D01*
X70071473Y-76899501D01*
X70012608Y-76905828D01*
X69879445Y-76955497D01*
X69765669Y-77040669D01*
X69680498Y-77154443D01*
X69679981Y-77155829D01*
X69637830Y-77268837D01*
X69595961Y-77324767D01*
X69530497Y-77349184D01*
X69521651Y-77349500D01*
X69456079Y-77349500D01*
X69389040Y-77329815D01*
X69356308Y-77299133D01*
X69350061Y-77290669D01*
X69322150Y-77252850D01*
X69212882Y-77172207D01*
X69212880Y-77172206D01*
X69084700Y-77127353D01*
X69054270Y-77124500D01*
X69054266Y-77124500D01*
X68545734Y-77124500D01*
X68545730Y-77124500D01*
X68515300Y-77127353D01*
X68515298Y-77127353D01*
X68387119Y-77172206D01*
X68387117Y-77172207D01*
X68277850Y-77252850D01*
X68197207Y-77362117D01*
X68197206Y-77362119D01*
X68152353Y-77490298D01*
X68152353Y-77490300D01*
X68149500Y-77520730D01*
X68149500Y-78179269D01*
X65300500Y-78179269D01*
X65300500Y-71000001D01*
X68974390Y-71000001D01*
X68994804Y-71285433D01*
X69055628Y-71565037D01*
X69155635Y-71833166D01*
X69292770Y-72084309D01*
X69292775Y-72084317D01*
X69464254Y-72313387D01*
X69464270Y-72313405D01*
X69666594Y-72515729D01*
X69666612Y-72515745D01*
X69895682Y-72687224D01*
X69895690Y-72687229D01*
X70146833Y-72824364D01*
X70146832Y-72824364D01*
X70146836Y-72824365D01*
X70146839Y-72824367D01*
X70414954Y-72924369D01*
X70414960Y-72924370D01*
X70414962Y-72924371D01*
X70694566Y-72985195D01*
X70694568Y-72985195D01*
X70694572Y-72985196D01*
X70948220Y-73003337D01*
X70979999Y-73005610D01*
X70980000Y-73005610D01*
X70980001Y-73005610D01*
X71008595Y-73003564D01*
X71265428Y-72985196D01*
X71283752Y-72981210D01*
X71396096Y-72956771D01*
X71545046Y-72924369D01*
X71569666Y-72915185D01*
X71639357Y-72910201D01*
X71700680Y-72943685D01*
X71734166Y-73005008D01*
X71737000Y-73031367D01*
X71737000Y-76906486D01*
X71717315Y-76973525D01*
X71687312Y-77005752D01*
X71640669Y-77040668D01*
X71640663Y-77040674D01*
X71555499Y-77154441D01*
X71555497Y-77154445D01*
X71555497Y-77154446D01*
X71518794Y-77252850D01*
X71505828Y-77287612D01*
X71499500Y-77346462D01*
X71499500Y-78353517D01*
X71499501Y-78353526D01*
X71505828Y-78412391D01*
X71548872Y-78527792D01*
X71555497Y-78545554D01*
X71640669Y-78659331D01*
X71715418Y-78715287D01*
X71754281Y-78744380D01*
X71754446Y-78744503D01*
X71887609Y-78794171D01*
X71946479Y-78800500D01*
X72528520Y-78800499D01*
X72587391Y-78794171D01*
X72720554Y-78744503D01*
X72834331Y-78659331D01*
X72919503Y-78545554D01*
X72969171Y-78412391D01*
X72971536Y-78390383D01*
X72975499Y-78353537D01*
X72975499Y-78353526D01*
X72975500Y-78353521D01*
X72975500Y-78179269D01*
X75724500Y-78179269D01*
X75727353Y-78209699D01*
X75727353Y-78209701D01*
X75772206Y-78337880D01*
X75772207Y-78337882D01*
X75852850Y-78447150D01*
X75962118Y-78527793D01*
X76004845Y-78542744D01*
X76090299Y-78572646D01*
X76120730Y-78575500D01*
X76120734Y-78575500D01*
X76629270Y-78575500D01*
X76659699Y-78572646D01*
X76659701Y-78572646D01*
X76737118Y-78545556D01*
X76787882Y-78527793D01*
X76897150Y-78447150D01*
X76931308Y-78400866D01*
X76986956Y-78358616D01*
X77031079Y-78350500D01*
X77271650Y-78350500D01*
X77338689Y-78370185D01*
X77384444Y-78422989D01*
X77387831Y-78431165D01*
X77398474Y-78459699D01*
X77430497Y-78545554D01*
X77515669Y-78659331D01*
X77590418Y-78715287D01*
X77629281Y-78744380D01*
X77629446Y-78744503D01*
X77762609Y-78794171D01*
X77821479Y-78800500D01*
X78403520Y-78800499D01*
X78462391Y-78794171D01*
X78595554Y-78744503D01*
X78709331Y-78659331D01*
X78794503Y-78545554D01*
X78844171Y-78412391D01*
X78846536Y-78390383D01*
X78850499Y-78353537D01*
X78850499Y-78353526D01*
X78850500Y-78353521D01*
X78850499Y-77346480D01*
X78845410Y-77299133D01*
X78844171Y-77287608D01*
X78825645Y-77237940D01*
X78794503Y-77154446D01*
X78709331Y-77040669D01*
X78612999Y-76968556D01*
X78595556Y-76955498D01*
X78595554Y-76955497D01*
X78462391Y-76905829D01*
X78462389Y-76905828D01*
X78462387Y-76905828D01*
X78403529Y-76899500D01*
X77821482Y-76899500D01*
X77821473Y-76899501D01*
X77762608Y-76905828D01*
X77629445Y-76955497D01*
X77515669Y-77040669D01*
X77430498Y-77154443D01*
X77429981Y-77155829D01*
X77387830Y-77268837D01*
X77345961Y-77324767D01*
X77280497Y-77349184D01*
X77271651Y-77349500D01*
X77031079Y-77349500D01*
X76964040Y-77329815D01*
X76931308Y-77299133D01*
X76925061Y-77290669D01*
X76897150Y-77252850D01*
X76787882Y-77172207D01*
X76787880Y-77172206D01*
X76659700Y-77127353D01*
X76629270Y-77124500D01*
X76629266Y-77124500D01*
X76120734Y-77124500D01*
X76120730Y-77124500D01*
X76090300Y-77127353D01*
X76090298Y-77127353D01*
X75962119Y-77172206D01*
X75962117Y-77172207D01*
X75852850Y-77252850D01*
X75772207Y-77362117D01*
X75772206Y-77362119D01*
X75727353Y-77490298D01*
X75727353Y-77490300D01*
X75724500Y-77520730D01*
X75724500Y-78179269D01*
X72975500Y-78179269D01*
X72975499Y-77346480D01*
X72970410Y-77299133D01*
X72969171Y-77287608D01*
X72954397Y-77248000D01*
X72919503Y-77154446D01*
X72919501Y-77154443D01*
X72834336Y-77040674D01*
X72834330Y-77040668D01*
X72787688Y-77005752D01*
X72745818Y-76949818D01*
X72738000Y-76906486D01*
X72738000Y-72324643D01*
X72740834Y-72298285D01*
X72741859Y-72293573D01*
X72738316Y-72244037D01*
X72738000Y-72235190D01*
X72738000Y-72221701D01*
X72736079Y-72208343D01*
X72735133Y-72199545D01*
X72731591Y-72150017D01*
X72729907Y-72145502D01*
X72723350Y-72119812D01*
X72722665Y-72115043D01*
X72715558Y-72099482D01*
X72705614Y-72030327D01*
X72719517Y-71988550D01*
X72804367Y-71833161D01*
X72904369Y-71565046D01*
X72965196Y-71285428D01*
X72985610Y-71000001D01*
X76524390Y-71000001D01*
X76544804Y-71285433D01*
X76605628Y-71565037D01*
X76705635Y-71833166D01*
X76842770Y-72084309D01*
X76842775Y-72084317D01*
X77014254Y-72313387D01*
X77014270Y-72313405D01*
X77216594Y-72515729D01*
X77216612Y-72515745D01*
X77445682Y-72687224D01*
X77445690Y-72687229D01*
X77696833Y-72824364D01*
X77696832Y-72824364D01*
X77696836Y-72824365D01*
X77696839Y-72824367D01*
X77964954Y-72924369D01*
X77964960Y-72924370D01*
X77964962Y-72924371D01*
X78244566Y-72985195D01*
X78244568Y-72985195D01*
X78244572Y-72985196D01*
X78498220Y-73003337D01*
X78529999Y-73005610D01*
X78530000Y-73005610D01*
X78530001Y-73005610D01*
X78558595Y-73003564D01*
X78815428Y-72985196D01*
X78833752Y-72981210D01*
X79095037Y-72924371D01*
X79095037Y-72924370D01*
X79095046Y-72924369D01*
X79319668Y-72840588D01*
X79389358Y-72835605D01*
X79450681Y-72869090D01*
X79484166Y-72930413D01*
X79487000Y-72956771D01*
X79487000Y-76906486D01*
X79467315Y-76973525D01*
X79437312Y-77005752D01*
X79390669Y-77040668D01*
X79390663Y-77040674D01*
X79305499Y-77154441D01*
X79305497Y-77154445D01*
X79305497Y-77154446D01*
X79268794Y-77252850D01*
X79255828Y-77287612D01*
X79249500Y-77346462D01*
X79249500Y-78353517D01*
X79249501Y-78353526D01*
X79255828Y-78412391D01*
X79298872Y-78527792D01*
X79305497Y-78545554D01*
X79390669Y-78659331D01*
X79465418Y-78715287D01*
X79504281Y-78744380D01*
X79504446Y-78744503D01*
X79637609Y-78794171D01*
X79696479Y-78800500D01*
X80249533Y-78800499D01*
X80316572Y-78820183D01*
X80337214Y-78836818D01*
X84621134Y-83120738D01*
X84630399Y-83131105D01*
X84652621Y-83158970D01*
X84699835Y-83191160D01*
X84703617Y-83193843D01*
X84749621Y-83227795D01*
X84757172Y-83231785D01*
X84764822Y-83235468D01*
X84764827Y-83235472D01*
X84815876Y-83251218D01*
X84819465Y-83252325D01*
X84823853Y-83253769D01*
X84877800Y-83272646D01*
X84886188Y-83274232D01*
X84894595Y-83275500D01*
X84894598Y-83275500D01*
X84951761Y-83275500D01*
X84956398Y-83275587D01*
X85013509Y-83277724D01*
X85013509Y-83277723D01*
X85013510Y-83277724D01*
X85013510Y-83277723D01*
X85022743Y-83276684D01*
X85022836Y-83277513D01*
X85038136Y-83275500D01*
X95727034Y-83275500D01*
X95794073Y-83295185D01*
X95814715Y-83311819D01*
X96168289Y-83665393D01*
X96201774Y-83726716D01*
X96199875Y-83787005D01*
X96175307Y-83873352D01*
X96168602Y-83896920D01*
X96149785Y-84099999D01*
X96149785Y-84100000D01*
X96168602Y-84303082D01*
X96224417Y-84499247D01*
X96224422Y-84499260D01*
X96315327Y-84681821D01*
X96438237Y-84844581D01*
X96588958Y-84981980D01*
X96588960Y-84981982D01*
X96688141Y-85043392D01*
X96762363Y-85089348D01*
X96952544Y-85163024D01*
X97153024Y-85200500D01*
X97153026Y-85200500D01*
X97356974Y-85200500D01*
X97356976Y-85200500D01*
X97557456Y-85163024D01*
X97747637Y-85089348D01*
X97921041Y-84981981D01*
X98071764Y-84844579D01*
X98194673Y-84681821D01*
X98285582Y-84499250D01*
X98341397Y-84303083D01*
X98360215Y-84100000D01*
X98341397Y-83896917D01*
X98285582Y-83700750D01*
X98267976Y-83665393D01*
X98233309Y-83595771D01*
X98194673Y-83518179D01*
X98141130Y-83447277D01*
X98116439Y-83381917D01*
X98131004Y-83313582D01*
X98180201Y-83263969D01*
X98248411Y-83248831D01*
X98313978Y-83272973D01*
X98327766Y-83284870D01*
X98708289Y-83665393D01*
X98741774Y-83726716D01*
X98739875Y-83787008D01*
X98708602Y-83896921D01*
X98689785Y-84099999D01*
X98689785Y-84100000D01*
X98708602Y-84303082D01*
X98764417Y-84499247D01*
X98764422Y-84499260D01*
X98855327Y-84681821D01*
X98978237Y-84844581D01*
X99128958Y-84981980D01*
X99128960Y-84981982D01*
X99228141Y-85043392D01*
X99302363Y-85089348D01*
X99492544Y-85163024D01*
X99693024Y-85200500D01*
X99693026Y-85200500D01*
X99896974Y-85200500D01*
X99896976Y-85200500D01*
X100097456Y-85163024D01*
X100287637Y-85089348D01*
X100461041Y-84981981D01*
X100611764Y-84844579D01*
X100734673Y-84681821D01*
X100825582Y-84499250D01*
X100881397Y-84303083D01*
X100900215Y-84100000D01*
X101229785Y-84100000D01*
X101248602Y-84303082D01*
X101304417Y-84499247D01*
X101304422Y-84499260D01*
X101395327Y-84681821D01*
X101518237Y-84844581D01*
X101668958Y-84981980D01*
X101668960Y-84981982D01*
X101768141Y-85043392D01*
X101842363Y-85089348D01*
X102032544Y-85163024D01*
X102233024Y-85200500D01*
X102233026Y-85200500D01*
X102436974Y-85200500D01*
X102436976Y-85200500D01*
X102637456Y-85163024D01*
X102827637Y-85089348D01*
X103001041Y-84981981D01*
X103151764Y-84844579D01*
X103274673Y-84681821D01*
X103365582Y-84499250D01*
X103421397Y-84303083D01*
X103440215Y-84100000D01*
X103421397Y-83896917D01*
X103390124Y-83787006D01*
X103390710Y-83717141D01*
X103421705Y-83665396D01*
X103750286Y-83336816D01*
X103811607Y-83303334D01*
X103837965Y-83300500D01*
X103850685Y-83300500D01*
X103917724Y-83320185D01*
X103963479Y-83372989D01*
X103973423Y-83442147D01*
X103949639Y-83499227D01*
X103935327Y-83518178D01*
X103844422Y-83700739D01*
X103844417Y-83700752D01*
X103788602Y-83896917D01*
X103769785Y-84099999D01*
X103769785Y-84100000D01*
X103788602Y-84303082D01*
X103844417Y-84499247D01*
X103844422Y-84499260D01*
X103935327Y-84681821D01*
X104058237Y-84844581D01*
X104208958Y-84981980D01*
X104208960Y-84981982D01*
X104308141Y-85043392D01*
X104382363Y-85089348D01*
X104572544Y-85163024D01*
X104773024Y-85200500D01*
X104773026Y-85200500D01*
X104976974Y-85200500D01*
X104976976Y-85200500D01*
X105177456Y-85163024D01*
X105367637Y-85089348D01*
X105541041Y-84981981D01*
X105691764Y-84844579D01*
X105814673Y-84681821D01*
X105838372Y-84634226D01*
X105885873Y-84582992D01*
X105949371Y-84565500D01*
X118752738Y-84565500D01*
X118766620Y-84566279D01*
X118779421Y-84567722D01*
X118802033Y-84570270D01*
X118802033Y-84570269D01*
X118802035Y-84570270D01*
X118858236Y-84559635D01*
X118862726Y-84558872D01*
X118919287Y-84550348D01*
X118919291Y-84550345D01*
X118927447Y-84547830D01*
X118935469Y-84545024D01*
X118935470Y-84545023D01*
X118935472Y-84545023D01*
X118986088Y-84518270D01*
X118990093Y-84516248D01*
X119041642Y-84491425D01*
X119041643Y-84491423D01*
X119041645Y-84491423D01*
X119048695Y-84486616D01*
X119055534Y-84481567D01*
X119055538Y-84481566D01*
X119095975Y-84441127D01*
X119099261Y-84437961D01*
X119141194Y-84399055D01*
X119141196Y-84399050D01*
X119146987Y-84391790D01*
X119147643Y-84392313D01*
X119157032Y-84380070D01*
X124700285Y-78836816D01*
X124761606Y-78803333D01*
X124787955Y-78800499D01*
X125341020Y-78800499D01*
X125399891Y-78794171D01*
X125533054Y-78744503D01*
X125646831Y-78659331D01*
X125732003Y-78545554D01*
X125775376Y-78429269D01*
X128474500Y-78429269D01*
X128477353Y-78459699D01*
X128477353Y-78459701D01*
X128517874Y-78575500D01*
X128522207Y-78587882D01*
X128602850Y-78697150D01*
X128712118Y-78777793D01*
X128732652Y-78784978D01*
X128840299Y-78822646D01*
X128870730Y-78825500D01*
X128870734Y-78825500D01*
X129379270Y-78825500D01*
X129409699Y-78822646D01*
X129409701Y-78822646D01*
X129487118Y-78795556D01*
X129537882Y-78777793D01*
X129647150Y-78697150D01*
X129681308Y-78650866D01*
X129736956Y-78608616D01*
X129781079Y-78600500D01*
X129834150Y-78600500D01*
X129901189Y-78620185D01*
X129946944Y-78672989D01*
X129950331Y-78681165D01*
X129974102Y-78744896D01*
X129992997Y-78795554D01*
X130078169Y-78909331D01*
X130191946Y-78994503D01*
X130325109Y-79044171D01*
X130383979Y-79050500D01*
X130966020Y-79050499D01*
X131024891Y-79044171D01*
X131158054Y-78994503D01*
X131271831Y-78909331D01*
X131357003Y-78795554D01*
X131406671Y-78662391D01*
X131409036Y-78640383D01*
X131412999Y-78603537D01*
X131412999Y-78603526D01*
X131413000Y-78603521D01*
X131412999Y-77596480D01*
X131406671Y-77537609D01*
X131400375Y-77520730D01*
X131388145Y-77487940D01*
X131357003Y-77404446D01*
X131271831Y-77290669D01*
X131175499Y-77218556D01*
X131158056Y-77205498D01*
X131158054Y-77205497D01*
X131024891Y-77155829D01*
X131024889Y-77155828D01*
X131024887Y-77155828D01*
X130966029Y-77149500D01*
X130383982Y-77149500D01*
X130383973Y-77149501D01*
X130325108Y-77155828D01*
X130191945Y-77205497D01*
X130078169Y-77290669D01*
X129992998Y-77404443D01*
X129992997Y-77404446D01*
X129950330Y-77518837D01*
X129908461Y-77574767D01*
X129842997Y-77599184D01*
X129834151Y-77599500D01*
X129781079Y-77599500D01*
X129714040Y-77579815D01*
X129681308Y-77549133D01*
X129672805Y-77537612D01*
X129647150Y-77502850D01*
X129537882Y-77422207D01*
X129537880Y-77422206D01*
X129409700Y-77377353D01*
X129379270Y-77374500D01*
X129379266Y-77374500D01*
X128870734Y-77374500D01*
X128870730Y-77374500D01*
X128840300Y-77377353D01*
X128840298Y-77377353D01*
X128712119Y-77422206D01*
X128712117Y-77422207D01*
X128602850Y-77502850D01*
X128522207Y-77612117D01*
X128522206Y-77612119D01*
X128477353Y-77740298D01*
X128477353Y-77740300D01*
X128474500Y-77770730D01*
X128474500Y-78429269D01*
X125775376Y-78429269D01*
X125781671Y-78412391D01*
X125784036Y-78390383D01*
X125787999Y-78353537D01*
X125787999Y-78353526D01*
X125788000Y-78353521D01*
X125787999Y-77346480D01*
X125782910Y-77299133D01*
X125781671Y-77287608D01*
X125766897Y-77248000D01*
X125732003Y-77154446D01*
X125732001Y-77154443D01*
X125646836Y-77040674D01*
X125646830Y-77040668D01*
X125600188Y-77005752D01*
X125558318Y-76949818D01*
X125550500Y-76906486D01*
X125550500Y-72287143D01*
X125553334Y-72260785D01*
X125554359Y-72256073D01*
X125550816Y-72206537D01*
X125550500Y-72197690D01*
X125550500Y-72184201D01*
X125548579Y-72170843D01*
X125547633Y-72162045D01*
X125546773Y-72150017D01*
X125544091Y-72112517D01*
X125544088Y-72112509D01*
X125542205Y-72103849D01*
X125545551Y-72103121D01*
X125541740Y-72049905D01*
X125554074Y-72016829D01*
X125654367Y-71833161D01*
X125754369Y-71565046D01*
X125815196Y-71285428D01*
X125835610Y-71000001D01*
X129374390Y-71000001D01*
X129394804Y-71285433D01*
X129455628Y-71565037D01*
X129555635Y-71833166D01*
X129692770Y-72084309D01*
X129692775Y-72084317D01*
X129864254Y-72313387D01*
X129864270Y-72313405D01*
X130066594Y-72515729D01*
X130066612Y-72515745D01*
X130295682Y-72687224D01*
X130295690Y-72687229D01*
X130546833Y-72824364D01*
X130546832Y-72824364D01*
X130546836Y-72824365D01*
X130546839Y-72824367D01*
X130814954Y-72924369D01*
X130814960Y-72924370D01*
X130814962Y-72924371D01*
X131094566Y-72985195D01*
X131094568Y-72985195D01*
X131094572Y-72985196D01*
X131348220Y-73003337D01*
X131379999Y-73005610D01*
X131380000Y-73005610D01*
X131380001Y-73005610D01*
X131408595Y-73003564D01*
X131665428Y-72985196D01*
X131665433Y-72985195D01*
X131899142Y-72934355D01*
X131968833Y-72939339D01*
X132024767Y-72981210D01*
X132049184Y-73046675D01*
X132049500Y-73055521D01*
X132049500Y-77156486D01*
X132029815Y-77223525D01*
X131999812Y-77255752D01*
X131953169Y-77290668D01*
X131953163Y-77290674D01*
X131867999Y-77404441D01*
X131867997Y-77404445D01*
X131867997Y-77404446D01*
X131835975Y-77490298D01*
X131818328Y-77537612D01*
X131812000Y-77596462D01*
X131812000Y-78603517D01*
X131812001Y-78603526D01*
X131818328Y-78662391D01*
X131864052Y-78784978D01*
X131867997Y-78795554D01*
X131953169Y-78909331D01*
X132066946Y-78994503D01*
X132200109Y-79044171D01*
X132258979Y-79050500D01*
X132841020Y-79050499D01*
X132899891Y-79044171D01*
X133033054Y-78994503D01*
X133146831Y-78909331D01*
X133232003Y-78795554D01*
X133281671Y-78662391D01*
X133284036Y-78640383D01*
X133287999Y-78603537D01*
X133287999Y-78603526D01*
X133288000Y-78603521D01*
X133287999Y-77596480D01*
X133281671Y-77537609D01*
X133275375Y-77520730D01*
X133264025Y-77490298D01*
X133232003Y-77404446D01*
X133232001Y-77404443D01*
X133146836Y-77290674D01*
X133146830Y-77290668D01*
X133100188Y-77255752D01*
X133058318Y-77199818D01*
X133050500Y-77156486D01*
X133050500Y-72237143D01*
X133053334Y-72210785D01*
X133054359Y-72206073D01*
X133050816Y-72156537D01*
X133050500Y-72147690D01*
X133050500Y-72146595D01*
X133065668Y-72087168D01*
X133075372Y-72069396D01*
X133204367Y-71833161D01*
X133304369Y-71565046D01*
X133365196Y-71285428D01*
X133385610Y-71000000D01*
X133365196Y-70714572D01*
X133304369Y-70434954D01*
X133204367Y-70166839D01*
X133067226Y-69915685D01*
X133067224Y-69915682D01*
X132895745Y-69686612D01*
X132895729Y-69686594D01*
X132693405Y-69484270D01*
X132693387Y-69484254D01*
X132464317Y-69312775D01*
X132464309Y-69312770D01*
X132213166Y-69175635D01*
X132213167Y-69175635D01*
X132105915Y-69135632D01*
X131945046Y-69075631D01*
X131945043Y-69075630D01*
X131945037Y-69075628D01*
X131665433Y-69014804D01*
X131380001Y-68994390D01*
X131379999Y-68994390D01*
X131094566Y-69014804D01*
X130814962Y-69075628D01*
X130546833Y-69175635D01*
X130295690Y-69312770D01*
X130295682Y-69312775D01*
X130066612Y-69484254D01*
X130066594Y-69484270D01*
X129864270Y-69686594D01*
X129864254Y-69686612D01*
X129692775Y-69915682D01*
X129692770Y-69915690D01*
X129555635Y-70166833D01*
X129455628Y-70434962D01*
X129394804Y-70714566D01*
X129374390Y-70999998D01*
X129374390Y-71000001D01*
X125835610Y-71000001D01*
X125835610Y-71000000D01*
X125815196Y-70714572D01*
X125754369Y-70434954D01*
X125654367Y-70166839D01*
X125517226Y-69915685D01*
X125517224Y-69915682D01*
X125345745Y-69686612D01*
X125345729Y-69686594D01*
X125143405Y-69484270D01*
X125143387Y-69484254D01*
X124914317Y-69312775D01*
X124914309Y-69312770D01*
X124663166Y-69175635D01*
X124663167Y-69175635D01*
X124555915Y-69135632D01*
X124395046Y-69075631D01*
X124395043Y-69075630D01*
X124395037Y-69075628D01*
X124115433Y-69014804D01*
X123830001Y-68994390D01*
X123829999Y-68994390D01*
X123544566Y-69014804D01*
X123264962Y-69075628D01*
X122996833Y-69175635D01*
X122745690Y-69312770D01*
X122745682Y-69312775D01*
X122516612Y-69484254D01*
X122516594Y-69484270D01*
X122314270Y-69686594D01*
X122314254Y-69686612D01*
X122142775Y-69915682D01*
X122142770Y-69915690D01*
X122005635Y-70166833D01*
X121905628Y-70434962D01*
X121844804Y-70714566D01*
X121824390Y-70999998D01*
X121824390Y-71000001D01*
X121844804Y-71285433D01*
X121905628Y-71565037D01*
X122005635Y-71833166D01*
X122142770Y-72084309D01*
X122142775Y-72084317D01*
X122314254Y-72313387D01*
X122314270Y-72313405D01*
X122516594Y-72515729D01*
X122516612Y-72515745D01*
X122745682Y-72687224D01*
X122745690Y-72687229D01*
X122996833Y-72824364D01*
X122996832Y-72824364D01*
X122996836Y-72824365D01*
X122996839Y-72824367D01*
X123264954Y-72924369D01*
X123264960Y-72924370D01*
X123264962Y-72924371D01*
X123544566Y-72985195D01*
X123544568Y-72985195D01*
X123544572Y-72985196D01*
X123798220Y-73003337D01*
X123829999Y-73005610D01*
X123830000Y-73005610D01*
X123830001Y-73005610D01*
X123858595Y-73003564D01*
X124115428Y-72985196D01*
X124133752Y-72981210D01*
X124399142Y-72923478D01*
X124468833Y-72928462D01*
X124524767Y-72970333D01*
X124549184Y-73035798D01*
X124549500Y-73044644D01*
X124549500Y-76906486D01*
X124529815Y-76973525D01*
X124499812Y-77005752D01*
X124453169Y-77040668D01*
X124453163Y-77040674D01*
X124367999Y-77154441D01*
X124367997Y-77154445D01*
X124367997Y-77154446D01*
X124331294Y-77252850D01*
X124318328Y-77287612D01*
X124312000Y-77346462D01*
X124312000Y-77899533D01*
X124292315Y-77966572D01*
X124275681Y-77987214D01*
X124124680Y-78138215D01*
X124063357Y-78171700D01*
X123993665Y-78166716D01*
X123937732Y-78124844D01*
X123913315Y-78059380D01*
X123912999Y-78050534D01*
X123912999Y-77346482D01*
X123912998Y-77346473D01*
X123906671Y-77287608D01*
X123888145Y-77237940D01*
X123857003Y-77154446D01*
X123771831Y-77040669D01*
X123675499Y-76968556D01*
X123658056Y-76955498D01*
X123658054Y-76955497D01*
X123524891Y-76905829D01*
X123524889Y-76905828D01*
X123524887Y-76905828D01*
X123466029Y-76899500D01*
X122883982Y-76899500D01*
X122883973Y-76899501D01*
X122825108Y-76905828D01*
X122691945Y-76955497D01*
X122578169Y-77040669D01*
X122492998Y-77154443D01*
X122492481Y-77155829D01*
X122450330Y-77268837D01*
X122408461Y-77324767D01*
X122342997Y-77349184D01*
X122334151Y-77349500D01*
X122206079Y-77349500D01*
X122139040Y-77329815D01*
X122106308Y-77299133D01*
X122100061Y-77290669D01*
X122072150Y-77252850D01*
X121962882Y-77172207D01*
X121962880Y-77172206D01*
X121834700Y-77127353D01*
X121804270Y-77124500D01*
X121804266Y-77124500D01*
X121295734Y-77124500D01*
X121295730Y-77124500D01*
X121265300Y-77127353D01*
X121265298Y-77127353D01*
X121137119Y-77172206D01*
X121137117Y-77172207D01*
X121027850Y-77252850D01*
X120947207Y-77362117D01*
X120947206Y-77362119D01*
X120902353Y-77490298D01*
X120902353Y-77490300D01*
X120899500Y-77520730D01*
X120899500Y-78179269D01*
X120902353Y-78209699D01*
X120902353Y-78209701D01*
X120947206Y-78337880D01*
X120947207Y-78337882D01*
X121027850Y-78447150D01*
X121137118Y-78527793D01*
X121179845Y-78542744D01*
X121265299Y-78572646D01*
X121295730Y-78575500D01*
X121295734Y-78575500D01*
X121804270Y-78575500D01*
X121834699Y-78572646D01*
X121834701Y-78572646D01*
X121912118Y-78545556D01*
X121962882Y-78527793D01*
X122072150Y-78447150D01*
X122106308Y-78400866D01*
X122161956Y-78358616D01*
X122206079Y-78350500D01*
X122334150Y-78350500D01*
X122401189Y-78370185D01*
X122446944Y-78422989D01*
X122450331Y-78431165D01*
X122460974Y-78459699D01*
X122492997Y-78545554D01*
X122578169Y-78659331D01*
X122652918Y-78715287D01*
X122691781Y-78744380D01*
X122691946Y-78744503D01*
X122825109Y-78794171D01*
X122883979Y-78800500D01*
X123163035Y-78800499D01*
X123230073Y-78820183D01*
X123275828Y-78872987D01*
X123285772Y-78942146D01*
X123256747Y-79005701D01*
X123250715Y-79012180D01*
X118634716Y-83628181D01*
X118573393Y-83661666D01*
X118547035Y-83664500D01*
X105964309Y-83664500D01*
X105897270Y-83644815D01*
X105853310Y-83595773D01*
X105814673Y-83518179D01*
X105800360Y-83499226D01*
X105775669Y-83433866D01*
X105790234Y-83365531D01*
X105839431Y-83315919D01*
X105899315Y-83300500D01*
X106067738Y-83300500D01*
X106081620Y-83301279D01*
X106094421Y-83302722D01*
X106117033Y-83305270D01*
X106117033Y-83305269D01*
X106117035Y-83305270D01*
X106173236Y-83294635D01*
X106177726Y-83293872D01*
X106234287Y-83285348D01*
X106234291Y-83285345D01*
X106242447Y-83282830D01*
X106250469Y-83280024D01*
X106250470Y-83280023D01*
X106250472Y-83280023D01*
X106301088Y-83253270D01*
X106305093Y-83251248D01*
X106356642Y-83226425D01*
X106356643Y-83226423D01*
X106356645Y-83226423D01*
X106363695Y-83221616D01*
X106370534Y-83216567D01*
X106370538Y-83216566D01*
X106410975Y-83176127D01*
X106414261Y-83172961D01*
X106456194Y-83134055D01*
X106456196Y-83134050D01*
X106461987Y-83126790D01*
X106462643Y-83127313D01*
X106472032Y-83115070D01*
X110345744Y-79241357D01*
X110356093Y-79232109D01*
X110383970Y-79209879D01*
X110416198Y-79162607D01*
X110418812Y-79158923D01*
X110452793Y-79112882D01*
X110452793Y-79112879D01*
X110452795Y-79112878D01*
X110456787Y-79105324D01*
X110460471Y-79097675D01*
X110475022Y-79050499D01*
X110477330Y-79043014D01*
X110478762Y-79038662D01*
X110497646Y-78984699D01*
X110497646Y-78984696D01*
X110499228Y-78976336D01*
X110500500Y-78967899D01*
X110500500Y-78910754D01*
X110500587Y-78906116D01*
X110502725Y-78848993D01*
X110502180Y-78844155D01*
X110514233Y-78775332D01*
X110551088Y-78731002D01*
X110646831Y-78659331D01*
X110732003Y-78545554D01*
X110781671Y-78412391D01*
X110784036Y-78390383D01*
X110787999Y-78353537D01*
X110787999Y-78353526D01*
X110788000Y-78353521D01*
X110788000Y-78179269D01*
X113399500Y-78179269D01*
X113402353Y-78209699D01*
X113402353Y-78209701D01*
X113447206Y-78337880D01*
X113447207Y-78337882D01*
X113527850Y-78447150D01*
X113637118Y-78527793D01*
X113679845Y-78542744D01*
X113765299Y-78572646D01*
X113795730Y-78575500D01*
X113795734Y-78575500D01*
X114304270Y-78575500D01*
X114334699Y-78572646D01*
X114334701Y-78572646D01*
X114412118Y-78545556D01*
X114462882Y-78527793D01*
X114572150Y-78447150D01*
X114606308Y-78400866D01*
X114661956Y-78358616D01*
X114706079Y-78350500D01*
X114834150Y-78350500D01*
X114901189Y-78370185D01*
X114946944Y-78422989D01*
X114950331Y-78431165D01*
X114960974Y-78459699D01*
X114992997Y-78545554D01*
X115078169Y-78659331D01*
X115152918Y-78715287D01*
X115191781Y-78744380D01*
X115191946Y-78744503D01*
X115325109Y-78794171D01*
X115383979Y-78800500D01*
X115966020Y-78800499D01*
X116024891Y-78794171D01*
X116158054Y-78744503D01*
X116271831Y-78659331D01*
X116357003Y-78545554D01*
X116406671Y-78412391D01*
X116409036Y-78390383D01*
X116412999Y-78353537D01*
X116412999Y-78353526D01*
X116413000Y-78353521D01*
X116412999Y-77346480D01*
X116407910Y-77299133D01*
X116406671Y-77287608D01*
X116388145Y-77237940D01*
X116357003Y-77154446D01*
X116271831Y-77040669D01*
X116175499Y-76968556D01*
X116158056Y-76955498D01*
X116158054Y-76955497D01*
X116024891Y-76905829D01*
X116024889Y-76905828D01*
X116024887Y-76905828D01*
X115966029Y-76899500D01*
X115383982Y-76899500D01*
X115383973Y-76899501D01*
X115325108Y-76905828D01*
X115191945Y-76955497D01*
X115078169Y-77040669D01*
X114992998Y-77154443D01*
X114992481Y-77155829D01*
X114950330Y-77268837D01*
X114908461Y-77324767D01*
X114842997Y-77349184D01*
X114834151Y-77349500D01*
X114706079Y-77349500D01*
X114639040Y-77329815D01*
X114606308Y-77299133D01*
X114600061Y-77290669D01*
X114572150Y-77252850D01*
X114462882Y-77172207D01*
X114462880Y-77172206D01*
X114334700Y-77127353D01*
X114304270Y-77124500D01*
X114304266Y-77124500D01*
X113795734Y-77124500D01*
X113795730Y-77124500D01*
X113765300Y-77127353D01*
X113765298Y-77127353D01*
X113637119Y-77172206D01*
X113637117Y-77172207D01*
X113527850Y-77252850D01*
X113447207Y-77362117D01*
X113447206Y-77362119D01*
X113402353Y-77490298D01*
X113402353Y-77490300D01*
X113399500Y-77520730D01*
X113399500Y-78179269D01*
X110788000Y-78179269D01*
X110787999Y-77346480D01*
X110782910Y-77299133D01*
X110781671Y-77287608D01*
X110766897Y-77248000D01*
X110732003Y-77154446D01*
X110732001Y-77154443D01*
X110646836Y-77040674D01*
X110646830Y-77040668D01*
X110600188Y-77005752D01*
X110558318Y-76949818D01*
X110550500Y-76906486D01*
X110550500Y-72387143D01*
X110553334Y-72360785D01*
X110554359Y-72356073D01*
X110551120Y-72310785D01*
X110550816Y-72306537D01*
X110550500Y-72297690D01*
X110550500Y-72284201D01*
X110548579Y-72270843D01*
X110547633Y-72262045D01*
X110547206Y-72256073D01*
X110544091Y-72212517D01*
X110542407Y-72208002D01*
X110535850Y-72182312D01*
X110535165Y-72177543D01*
X110514530Y-72132360D01*
X110511155Y-72124212D01*
X110493796Y-72077669D01*
X110493791Y-72077663D01*
X110489777Y-72070311D01*
X110474921Y-72002038D01*
X110489771Y-71951456D01*
X110554367Y-71833161D01*
X110654369Y-71565046D01*
X110715196Y-71285428D01*
X110735610Y-71000001D01*
X114274390Y-71000001D01*
X114294804Y-71285433D01*
X114355628Y-71565037D01*
X114455635Y-71833166D01*
X114592770Y-72084309D01*
X114592775Y-72084317D01*
X114764254Y-72313387D01*
X114764270Y-72313405D01*
X114966594Y-72515729D01*
X114966612Y-72515745D01*
X115195682Y-72687224D01*
X115195690Y-72687229D01*
X115446833Y-72824364D01*
X115446832Y-72824364D01*
X115446836Y-72824365D01*
X115446839Y-72824367D01*
X115714954Y-72924369D01*
X115714960Y-72924370D01*
X115714962Y-72924371D01*
X115994566Y-72985195D01*
X115994568Y-72985195D01*
X115994572Y-72985196D01*
X116248220Y-73003337D01*
X116279999Y-73005610D01*
X116280000Y-73005610D01*
X116280001Y-73005610D01*
X116308595Y-73003564D01*
X116565428Y-72985196D01*
X116583752Y-72981210D01*
X116845037Y-72924371D01*
X116845037Y-72924370D01*
X116845046Y-72924369D01*
X116882168Y-72910522D01*
X116951858Y-72905539D01*
X117013181Y-72939024D01*
X117046666Y-73000347D01*
X117049500Y-73026705D01*
X117049500Y-76906486D01*
X117029815Y-76973525D01*
X116999812Y-77005752D01*
X116953169Y-77040668D01*
X116953163Y-77040674D01*
X116867999Y-77154441D01*
X116867997Y-77154445D01*
X116867997Y-77154446D01*
X116831294Y-77252850D01*
X116818328Y-77287612D01*
X116812000Y-77346462D01*
X116812000Y-78353517D01*
X116812001Y-78353526D01*
X116818328Y-78412391D01*
X116861372Y-78527792D01*
X116867997Y-78545554D01*
X116953169Y-78659331D01*
X117027918Y-78715287D01*
X117066781Y-78744380D01*
X117066946Y-78744503D01*
X117200109Y-78794171D01*
X117258979Y-78800500D01*
X117841020Y-78800499D01*
X117899891Y-78794171D01*
X118033054Y-78744503D01*
X118146831Y-78659331D01*
X118232003Y-78545554D01*
X118281671Y-78412391D01*
X118284036Y-78390383D01*
X118287999Y-78353537D01*
X118287999Y-78353526D01*
X118288000Y-78353521D01*
X118287999Y-77346480D01*
X118282910Y-77299133D01*
X118281671Y-77287608D01*
X118266897Y-77248000D01*
X118232003Y-77154446D01*
X118232001Y-77154443D01*
X118146836Y-77040674D01*
X118146830Y-77040668D01*
X118100188Y-77005752D01*
X118058318Y-76949818D01*
X118050500Y-76906486D01*
X118050500Y-72337143D01*
X118053334Y-72310785D01*
X118054359Y-72306073D01*
X118050816Y-72256537D01*
X118050500Y-72247690D01*
X118050500Y-72234201D01*
X118048579Y-72220843D01*
X118047633Y-72212045D01*
X118047206Y-72206073D01*
X118044091Y-72162517D01*
X118042407Y-72158002D01*
X118035850Y-72132312D01*
X118035165Y-72127543D01*
X118019256Y-72092709D01*
X118009312Y-72023553D01*
X118023215Y-71981776D01*
X118104367Y-71833161D01*
X118204369Y-71565046D01*
X118265196Y-71285428D01*
X118285610Y-71000000D01*
X118265196Y-70714572D01*
X118204369Y-70434954D01*
X118104367Y-70166839D01*
X117967226Y-69915685D01*
X117967224Y-69915682D01*
X117795745Y-69686612D01*
X117795729Y-69686594D01*
X117593405Y-69484270D01*
X117593387Y-69484254D01*
X117364317Y-69312775D01*
X117364309Y-69312770D01*
X117113166Y-69175635D01*
X117113167Y-69175635D01*
X117005915Y-69135632D01*
X116845046Y-69075631D01*
X116845043Y-69075630D01*
X116845037Y-69075628D01*
X116565433Y-69014804D01*
X116280001Y-68994390D01*
X116279999Y-68994390D01*
X115994566Y-69014804D01*
X115714962Y-69075628D01*
X115446833Y-69175635D01*
X115195690Y-69312770D01*
X115195682Y-69312775D01*
X114966612Y-69484254D01*
X114966594Y-69484270D01*
X114764270Y-69686594D01*
X114764254Y-69686612D01*
X114592775Y-69915682D01*
X114592770Y-69915690D01*
X114455635Y-70166833D01*
X114355628Y-70434962D01*
X114294804Y-70714566D01*
X114274390Y-70999998D01*
X114274390Y-71000001D01*
X110735610Y-71000001D01*
X110735610Y-71000000D01*
X110715196Y-70714572D01*
X110654369Y-70434954D01*
X110554367Y-70166839D01*
X110417226Y-69915685D01*
X110417224Y-69915682D01*
X110245745Y-69686612D01*
X110245729Y-69686594D01*
X110043405Y-69484270D01*
X110043387Y-69484254D01*
X109814317Y-69312775D01*
X109814309Y-69312770D01*
X109563166Y-69175635D01*
X109563167Y-69175635D01*
X109455915Y-69135632D01*
X109295046Y-69075631D01*
X109295043Y-69075630D01*
X109295037Y-69075628D01*
X109015433Y-69014804D01*
X108730001Y-68994390D01*
X108729999Y-68994390D01*
X108444566Y-69014804D01*
X108164962Y-69075628D01*
X107896833Y-69175635D01*
X107645690Y-69312770D01*
X107645682Y-69312775D01*
X107416612Y-69484254D01*
X107416594Y-69484270D01*
X107214270Y-69686594D01*
X107214254Y-69686612D01*
X107042775Y-69915682D01*
X107042770Y-69915690D01*
X106905635Y-70166833D01*
X106805628Y-70434962D01*
X106744804Y-70714566D01*
X106724390Y-70999998D01*
X106724390Y-71000001D01*
X106744804Y-71285433D01*
X106805628Y-71565037D01*
X106905635Y-71833166D01*
X107042770Y-72084309D01*
X107042775Y-72084317D01*
X107214254Y-72313387D01*
X107214270Y-72313405D01*
X107416594Y-72515729D01*
X107416612Y-72515745D01*
X107645682Y-72687224D01*
X107645690Y-72687229D01*
X107896833Y-72824364D01*
X107896832Y-72824364D01*
X107896836Y-72824365D01*
X107896839Y-72824367D01*
X108164954Y-72924369D01*
X108164960Y-72924370D01*
X108164962Y-72924371D01*
X108444566Y-72985195D01*
X108444568Y-72985195D01*
X108444572Y-72985196D01*
X108698220Y-73003337D01*
X108729999Y-73005610D01*
X108730000Y-73005610D01*
X108730001Y-73005610D01*
X108758595Y-73003564D01*
X109015428Y-72985196D01*
X109033752Y-72981210D01*
X109295037Y-72924371D01*
X109295037Y-72924370D01*
X109295046Y-72924369D01*
X109382168Y-72891873D01*
X109451858Y-72886890D01*
X109513181Y-72920375D01*
X109546666Y-72981698D01*
X109549500Y-73008056D01*
X109549500Y-76906486D01*
X109529815Y-76973525D01*
X109499812Y-77005752D01*
X109453169Y-77040668D01*
X109453163Y-77040674D01*
X109367999Y-77154441D01*
X109367997Y-77154445D01*
X109367997Y-77154446D01*
X109331294Y-77252850D01*
X109318328Y-77287612D01*
X109312000Y-77346462D01*
X109312000Y-78353517D01*
X109312001Y-78353526D01*
X109318328Y-78412391D01*
X109361372Y-78527792D01*
X109367997Y-78545554D01*
X109453169Y-78659331D01*
X109453206Y-78659359D01*
X109453234Y-78659396D01*
X109459440Y-78665602D01*
X109458548Y-78666493D01*
X109495081Y-78715287D01*
X109500071Y-78784978D01*
X109466592Y-78846304D01*
X109466584Y-78846311D01*
X105978607Y-82334289D01*
X105917284Y-82367774D01*
X105847592Y-82362790D01*
X105791659Y-82320918D01*
X105767242Y-82255454D01*
X105782094Y-82187181D01*
X105791969Y-82171884D01*
X105814673Y-82141821D01*
X105905582Y-81959250D01*
X105961397Y-81763083D01*
X105980215Y-81560000D01*
X105961397Y-81356917D01*
X105905582Y-81160750D01*
X105814673Y-80978179D01*
X105733855Y-80871158D01*
X105691762Y-80815418D01*
X105541041Y-80678019D01*
X105541039Y-80678017D01*
X105367642Y-80570655D01*
X105367635Y-80570651D01*
X105272546Y-80533814D01*
X105177456Y-80496976D01*
X104976976Y-80459500D01*
X104773024Y-80459500D01*
X104572544Y-80496976D01*
X104572541Y-80496976D01*
X104572541Y-80496977D01*
X104382364Y-80570651D01*
X104382357Y-80570655D01*
X104208960Y-80678017D01*
X104208958Y-80678019D01*
X104058237Y-80815418D01*
X103935327Y-80978178D01*
X103844422Y-81160739D01*
X103844417Y-81160752D01*
X103788602Y-81356917D01*
X103769785Y-81559999D01*
X103769785Y-81560000D01*
X103788602Y-81763082D01*
X103844417Y-81959247D01*
X103844422Y-81959260D01*
X103935328Y-82141824D01*
X103979845Y-82200774D01*
X104004537Y-82266135D01*
X103989972Y-82334470D01*
X103940774Y-82384082D01*
X103880891Y-82399500D01*
X103632262Y-82399500D01*
X103618379Y-82398720D01*
X103613370Y-82398155D01*
X103582963Y-82394729D01*
X103526810Y-82405354D01*
X103522241Y-82406131D01*
X103465715Y-82414651D01*
X103457532Y-82417175D01*
X103449529Y-82419976D01*
X103398985Y-82446689D01*
X103394848Y-82448777D01*
X103343358Y-82473573D01*
X103336338Y-82478359D01*
X103329460Y-82483435D01*
X103289058Y-82523837D01*
X103285722Y-82527051D01*
X103243804Y-82565946D01*
X103238013Y-82573208D01*
X103237362Y-82572688D01*
X103227967Y-82584928D01*
X102794390Y-83018505D01*
X102733067Y-83051990D01*
X102663375Y-83047006D01*
X102661917Y-83046451D01*
X102637463Y-83036977D01*
X102522408Y-83015470D01*
X102436976Y-82999500D01*
X102233024Y-82999500D01*
X102032544Y-83036976D01*
X102032541Y-83036976D01*
X102032541Y-83036977D01*
X101842364Y-83110651D01*
X101842357Y-83110655D01*
X101668960Y-83218017D01*
X101668958Y-83218019D01*
X101518237Y-83355418D01*
X101395327Y-83518178D01*
X101304422Y-83700739D01*
X101304417Y-83700752D01*
X101248602Y-83896917D01*
X101229785Y-84099999D01*
X101229785Y-84100000D01*
X100900215Y-84100000D01*
X100881397Y-83896917D01*
X100825582Y-83700750D01*
X100807976Y-83665393D01*
X100773309Y-83595771D01*
X100734673Y-83518179D01*
X100611764Y-83355421D01*
X100611762Y-83355418D01*
X100461041Y-83218019D01*
X100461039Y-83218017D01*
X100287642Y-83110655D01*
X100287635Y-83110651D01*
X100183086Y-83070149D01*
X100097456Y-83036976D01*
X99896976Y-82999500D01*
X99693024Y-82999500D01*
X99507887Y-83034108D01*
X99492539Y-83036977D01*
X99468081Y-83046452D01*
X99398457Y-83052312D01*
X99336718Y-83019601D01*
X99335609Y-83018505D01*
X99031819Y-82714715D01*
X98998334Y-82653392D01*
X98995500Y-82627034D01*
X98995500Y-82581969D01*
X99015185Y-82514930D01*
X99067989Y-82469175D01*
X99137147Y-82459231D01*
X99184775Y-82476541D01*
X99302363Y-82549348D01*
X99492544Y-82623024D01*
X99693024Y-82660500D01*
X99693026Y-82660500D01*
X99896974Y-82660500D01*
X99896976Y-82660500D01*
X100097456Y-82623024D01*
X100287637Y-82549348D01*
X100461041Y-82441981D01*
X100611764Y-82304579D01*
X100734673Y-82141821D01*
X100825582Y-81959250D01*
X100881397Y-81763083D01*
X100900215Y-81560000D01*
X101229785Y-81560000D01*
X101248602Y-81763082D01*
X101304417Y-81959247D01*
X101304422Y-81959260D01*
X101395327Y-82141821D01*
X101518237Y-82304581D01*
X101668958Y-82441980D01*
X101668960Y-82441982D01*
X101748174Y-82491029D01*
X101842363Y-82549348D01*
X102032544Y-82623024D01*
X102233024Y-82660500D01*
X102233026Y-82660500D01*
X102436974Y-82660500D01*
X102436976Y-82660500D01*
X102637456Y-82623024D01*
X102827637Y-82549348D01*
X103001041Y-82441981D01*
X103151764Y-82304579D01*
X103274673Y-82141821D01*
X103365582Y-81959250D01*
X103421397Y-81763083D01*
X103440215Y-81560000D01*
X103421397Y-81356917D01*
X103365582Y-81160750D01*
X103274673Y-80978179D01*
X103193855Y-80871158D01*
X103151762Y-80815418D01*
X103001041Y-80678019D01*
X103001039Y-80678017D01*
X102827642Y-80570655D01*
X102827635Y-80570651D01*
X102732546Y-80533814D01*
X102637456Y-80496976D01*
X102436976Y-80459500D01*
X102233024Y-80459500D01*
X102032544Y-80496976D01*
X102032541Y-80496976D01*
X102032541Y-80496977D01*
X101842364Y-80570651D01*
X101842357Y-80570655D01*
X101668960Y-80678017D01*
X101668958Y-80678019D01*
X101518237Y-80815418D01*
X101395327Y-80978178D01*
X101304422Y-81160739D01*
X101304417Y-81160752D01*
X101248602Y-81356917D01*
X101229785Y-81559999D01*
X101229785Y-81560000D01*
X100900215Y-81560000D01*
X100881397Y-81356917D01*
X100825582Y-81160750D01*
X100734673Y-80978179D01*
X100653855Y-80871158D01*
X100611762Y-80815418D01*
X100461041Y-80678019D01*
X100461039Y-80678017D01*
X100287642Y-80570655D01*
X100287635Y-80570651D01*
X100192546Y-80533814D01*
X100097456Y-80496976D01*
X99896976Y-80459500D01*
X99693024Y-80459500D01*
X99492544Y-80496976D01*
X99492541Y-80496976D01*
X99492541Y-80496977D01*
X99302364Y-80570651D01*
X99302357Y-80570655D01*
X99128962Y-80678016D01*
X99025640Y-80772206D01*
X98962835Y-80802822D01*
X98893448Y-80794624D01*
X98851204Y-80764910D01*
X98829053Y-80741037D01*
X98821790Y-80735245D01*
X98822310Y-80734592D01*
X98810070Y-80725199D01*
X96264140Y-78179269D01*
X98224500Y-78179269D01*
X98227353Y-78209699D01*
X98227353Y-78209701D01*
X98272206Y-78337880D01*
X98272207Y-78337882D01*
X98352850Y-78447150D01*
X98462118Y-78527793D01*
X98504845Y-78542744D01*
X98590299Y-78572646D01*
X98620730Y-78575500D01*
X98620734Y-78575500D01*
X99129270Y-78575500D01*
X99159699Y-78572646D01*
X99159701Y-78572646D01*
X99237118Y-78545556D01*
X99287882Y-78527793D01*
X99397150Y-78447150D01*
X99431308Y-78400866D01*
X99486956Y-78358616D01*
X99531079Y-78350500D01*
X99771650Y-78350500D01*
X99838689Y-78370185D01*
X99884444Y-78422989D01*
X99887831Y-78431165D01*
X99898474Y-78459699D01*
X99930497Y-78545554D01*
X100015669Y-78659331D01*
X100090418Y-78715287D01*
X100129281Y-78744380D01*
X100129446Y-78744503D01*
X100262609Y-78794171D01*
X100321479Y-78800500D01*
X100903520Y-78800499D01*
X100962391Y-78794171D01*
X101095554Y-78744503D01*
X101209331Y-78659331D01*
X101294503Y-78545554D01*
X101344171Y-78412391D01*
X101346536Y-78390383D01*
X101350499Y-78353537D01*
X101350499Y-78353526D01*
X101350500Y-78353521D01*
X101350499Y-77346480D01*
X101345410Y-77299133D01*
X101344171Y-77287608D01*
X101325645Y-77237940D01*
X101294503Y-77154446D01*
X101209331Y-77040669D01*
X101112999Y-76968556D01*
X101095556Y-76955498D01*
X101095554Y-76955497D01*
X100962391Y-76905829D01*
X100962389Y-76905828D01*
X100962387Y-76905828D01*
X100903529Y-76899500D01*
X100321482Y-76899500D01*
X100321473Y-76899501D01*
X100262608Y-76905828D01*
X100129445Y-76955497D01*
X100015669Y-77040669D01*
X99930498Y-77154443D01*
X99929981Y-77155829D01*
X99887830Y-77268837D01*
X99845961Y-77324767D01*
X99780497Y-77349184D01*
X99771651Y-77349500D01*
X99531079Y-77349500D01*
X99464040Y-77329815D01*
X99431308Y-77299133D01*
X99425061Y-77290669D01*
X99397150Y-77252850D01*
X99287882Y-77172207D01*
X99287880Y-77172206D01*
X99159700Y-77127353D01*
X99129270Y-77124500D01*
X99129266Y-77124500D01*
X98620734Y-77124500D01*
X98620730Y-77124500D01*
X98590300Y-77127353D01*
X98590298Y-77127353D01*
X98462119Y-77172206D01*
X98462117Y-77172207D01*
X98352850Y-77252850D01*
X98272207Y-77362117D01*
X98272206Y-77362119D01*
X98227353Y-77490298D01*
X98227353Y-77490300D01*
X98224500Y-77520730D01*
X98224500Y-78179269D01*
X96264140Y-78179269D01*
X95761818Y-77676947D01*
X95728333Y-77615624D01*
X95725499Y-77589266D01*
X95725499Y-77346482D01*
X95725498Y-77346473D01*
X95719171Y-77287608D01*
X95704397Y-77248000D01*
X95669503Y-77154446D01*
X95669501Y-77154443D01*
X95584336Y-77040674D01*
X95584330Y-77040668D01*
X95537688Y-77005752D01*
X95495818Y-76949818D01*
X95488000Y-76906486D01*
X95488000Y-72424643D01*
X95490834Y-72398285D01*
X95491859Y-72393573D01*
X95488316Y-72344037D01*
X95488000Y-72335190D01*
X95488000Y-72321701D01*
X95486079Y-72308343D01*
X95485133Y-72299545D01*
X95485043Y-72298285D01*
X95481591Y-72250017D01*
X95479907Y-72245502D01*
X95473350Y-72219812D01*
X95472665Y-72215043D01*
X95471511Y-72212517D01*
X95460545Y-72188504D01*
X95452030Y-72169860D01*
X95448655Y-72161712D01*
X95431296Y-72115169D01*
X95428405Y-72111307D01*
X95414879Y-72088510D01*
X95412877Y-72084127D01*
X95410642Y-72081548D01*
X95409226Y-72078446D01*
X95408082Y-72076666D01*
X95408337Y-72076501D01*
X95381619Y-72017993D01*
X95391563Y-71948834D01*
X95395525Y-71940920D01*
X95396364Y-71939384D01*
X95454367Y-71833161D01*
X95554369Y-71565046D01*
X95615196Y-71285428D01*
X95635610Y-71000001D01*
X99174390Y-71000001D01*
X99194804Y-71285433D01*
X99255628Y-71565037D01*
X99355635Y-71833166D01*
X99492770Y-72084309D01*
X99492775Y-72084317D01*
X99664254Y-72313387D01*
X99664270Y-72313405D01*
X99866594Y-72515729D01*
X99866612Y-72515745D01*
X100095682Y-72687224D01*
X100095690Y-72687229D01*
X100346833Y-72824364D01*
X100346832Y-72824364D01*
X100346836Y-72824365D01*
X100346839Y-72824367D01*
X100614954Y-72924369D01*
X100614960Y-72924370D01*
X100614962Y-72924371D01*
X100894566Y-72985195D01*
X100894568Y-72985195D01*
X100894572Y-72985196D01*
X101148220Y-73003337D01*
X101179999Y-73005610D01*
X101180000Y-73005610D01*
X101180001Y-73005610D01*
X101208595Y-73003564D01*
X101465428Y-72985196D01*
X101483752Y-72981210D01*
X101745037Y-72924371D01*
X101745037Y-72924370D01*
X101745046Y-72924369D01*
X101819669Y-72896535D01*
X101889358Y-72891552D01*
X101950681Y-72925036D01*
X101984166Y-72986359D01*
X101987000Y-73012718D01*
X101987000Y-76906486D01*
X101967315Y-76973525D01*
X101937312Y-77005752D01*
X101890669Y-77040668D01*
X101890663Y-77040674D01*
X101805499Y-77154441D01*
X101805497Y-77154445D01*
X101805497Y-77154446D01*
X101768794Y-77252850D01*
X101755828Y-77287612D01*
X101749500Y-77346462D01*
X101749500Y-78353517D01*
X101749501Y-78353526D01*
X101755828Y-78412391D01*
X101798872Y-78527792D01*
X101805497Y-78545554D01*
X101890669Y-78659331D01*
X101965418Y-78715287D01*
X102004281Y-78744380D01*
X102004446Y-78744503D01*
X102137609Y-78794171D01*
X102196479Y-78800500D01*
X102778520Y-78800499D01*
X102837391Y-78794171D01*
X102970554Y-78744503D01*
X103084331Y-78659331D01*
X103169503Y-78545554D01*
X103219171Y-78412391D01*
X103221536Y-78390383D01*
X103225499Y-78353537D01*
X103225499Y-78353526D01*
X103225500Y-78353521D01*
X103225500Y-78179269D01*
X105974500Y-78179269D01*
X105977353Y-78209699D01*
X105977353Y-78209701D01*
X106022206Y-78337880D01*
X106022207Y-78337882D01*
X106102850Y-78447150D01*
X106212118Y-78527793D01*
X106254845Y-78542744D01*
X106340299Y-78572646D01*
X106370730Y-78575500D01*
X106370734Y-78575500D01*
X106879270Y-78575500D01*
X106909699Y-78572646D01*
X106909701Y-78572646D01*
X106987118Y-78545556D01*
X107037882Y-78527793D01*
X107147150Y-78447150D01*
X107181308Y-78400866D01*
X107236956Y-78358616D01*
X107281079Y-78350500D01*
X107334150Y-78350500D01*
X107401189Y-78370185D01*
X107446944Y-78422989D01*
X107450331Y-78431165D01*
X107460974Y-78459699D01*
X107492997Y-78545554D01*
X107578169Y-78659331D01*
X107652918Y-78715287D01*
X107691781Y-78744380D01*
X107691946Y-78744503D01*
X107825109Y-78794171D01*
X107883979Y-78800500D01*
X108466020Y-78800499D01*
X108524891Y-78794171D01*
X108658054Y-78744503D01*
X108771831Y-78659331D01*
X108857003Y-78545554D01*
X108906671Y-78412391D01*
X108909036Y-78390383D01*
X108912999Y-78353537D01*
X108912999Y-78353526D01*
X108913000Y-78353521D01*
X108912999Y-77346480D01*
X108907910Y-77299133D01*
X108906671Y-77287608D01*
X108888145Y-77237940D01*
X108857003Y-77154446D01*
X108771831Y-77040669D01*
X108675499Y-76968556D01*
X108658056Y-76955498D01*
X108658054Y-76955497D01*
X108524891Y-76905829D01*
X108524889Y-76905828D01*
X108524887Y-76905828D01*
X108466029Y-76899500D01*
X107883982Y-76899500D01*
X107883973Y-76899501D01*
X107825108Y-76905828D01*
X107691945Y-76955497D01*
X107578169Y-77040669D01*
X107492998Y-77154443D01*
X107492481Y-77155829D01*
X107450330Y-77268837D01*
X107408461Y-77324767D01*
X107342997Y-77349184D01*
X107334151Y-77349500D01*
X107281079Y-77349500D01*
X107214040Y-77329815D01*
X107181308Y-77299133D01*
X107175061Y-77290669D01*
X107147150Y-77252850D01*
X107037882Y-77172207D01*
X107037880Y-77172206D01*
X106909700Y-77127353D01*
X106879270Y-77124500D01*
X106879266Y-77124500D01*
X106370734Y-77124500D01*
X106370730Y-77124500D01*
X106340300Y-77127353D01*
X106340298Y-77127353D01*
X106212119Y-77172206D01*
X106212117Y-77172207D01*
X106102850Y-77252850D01*
X106022207Y-77362117D01*
X106022206Y-77362119D01*
X105977353Y-77490298D01*
X105977353Y-77490300D01*
X105974500Y-77520730D01*
X105974500Y-78179269D01*
X103225500Y-78179269D01*
X103225499Y-77346480D01*
X103220410Y-77299133D01*
X103219171Y-77287608D01*
X103204397Y-77248000D01*
X103169503Y-77154446D01*
X103169501Y-77154443D01*
X103084336Y-77040674D01*
X103084330Y-77040668D01*
X103037688Y-77005752D01*
X102995818Y-76949818D01*
X102988000Y-76906486D01*
X102988000Y-72374643D01*
X102990834Y-72348285D01*
X102991859Y-72343573D01*
X102988316Y-72294037D01*
X102988000Y-72285190D01*
X102988000Y-72271701D01*
X102986079Y-72258343D01*
X102985133Y-72249545D01*
X102981591Y-72200017D01*
X102979907Y-72195502D01*
X102973350Y-72169812D01*
X102972665Y-72165043D01*
X102971511Y-72162517D01*
X102961090Y-72139698D01*
X102952030Y-72119860D01*
X102948662Y-72111732D01*
X102931296Y-72065169D01*
X102931293Y-72065165D01*
X102929324Y-72059885D01*
X102924341Y-71990193D01*
X102936670Y-71957135D01*
X103004367Y-71833161D01*
X103104369Y-71565046D01*
X103165196Y-71285428D01*
X103185610Y-71000000D01*
X103165196Y-70714572D01*
X103104369Y-70434954D01*
X103004367Y-70166839D01*
X102867226Y-69915685D01*
X102867224Y-69915682D01*
X102695745Y-69686612D01*
X102695729Y-69686594D01*
X102493405Y-69484270D01*
X102493387Y-69484254D01*
X102264317Y-69312775D01*
X102264309Y-69312770D01*
X102013166Y-69175635D01*
X102013167Y-69175635D01*
X101905915Y-69135632D01*
X101745046Y-69075631D01*
X101745043Y-69075630D01*
X101745037Y-69075628D01*
X101465433Y-69014804D01*
X101180001Y-68994390D01*
X101179999Y-68994390D01*
X100894566Y-69014804D01*
X100614962Y-69075628D01*
X100346833Y-69175635D01*
X100095690Y-69312770D01*
X100095682Y-69312775D01*
X99866612Y-69484254D01*
X99866594Y-69484270D01*
X99664270Y-69686594D01*
X99664254Y-69686612D01*
X99492775Y-69915682D01*
X99492770Y-69915690D01*
X99355635Y-70166833D01*
X99255628Y-70434962D01*
X99194804Y-70714566D01*
X99174390Y-70999998D01*
X99174390Y-71000001D01*
X95635610Y-71000001D01*
X95635610Y-71000000D01*
X95615196Y-70714572D01*
X95554369Y-70434954D01*
X95454367Y-70166839D01*
X95317226Y-69915685D01*
X95317224Y-69915682D01*
X95145745Y-69686612D01*
X95145729Y-69686594D01*
X94943405Y-69484270D01*
X94943387Y-69484254D01*
X94714317Y-69312775D01*
X94714309Y-69312770D01*
X94463166Y-69175635D01*
X94463167Y-69175635D01*
X94355915Y-69135632D01*
X94195046Y-69075631D01*
X94195043Y-69075630D01*
X94195037Y-69075628D01*
X93915433Y-69014804D01*
X93630001Y-68994390D01*
X93629999Y-68994390D01*
X93344566Y-69014804D01*
X93064962Y-69075628D01*
X92796833Y-69175635D01*
X92545690Y-69312770D01*
X92545682Y-69312775D01*
X92316612Y-69484254D01*
X92316594Y-69484270D01*
X92114270Y-69686594D01*
X92114254Y-69686612D01*
X91942775Y-69915682D01*
X91942770Y-69915690D01*
X91805635Y-70166833D01*
X91705628Y-70434962D01*
X91644804Y-70714566D01*
X91624390Y-70999998D01*
X91624390Y-71000001D01*
X91644804Y-71285433D01*
X91705628Y-71565037D01*
X91805635Y-71833166D01*
X91942770Y-72084309D01*
X91942775Y-72084317D01*
X92114254Y-72313387D01*
X92114270Y-72313405D01*
X92316594Y-72515729D01*
X92316612Y-72515745D01*
X92545682Y-72687224D01*
X92545690Y-72687229D01*
X92796833Y-72824364D01*
X92796832Y-72824364D01*
X92796836Y-72824365D01*
X92796839Y-72824367D01*
X93064954Y-72924369D01*
X93064960Y-72924370D01*
X93064962Y-72924371D01*
X93344566Y-72985195D01*
X93344568Y-72985195D01*
X93344572Y-72985196D01*
X93598220Y-73003337D01*
X93629999Y-73005610D01*
X93630000Y-73005610D01*
X93630001Y-73005610D01*
X93658595Y-73003564D01*
X93915428Y-72985196D01*
X93933752Y-72981210D01*
X94195037Y-72924371D01*
X94195037Y-72924370D01*
X94195046Y-72924369D01*
X94319669Y-72877886D01*
X94389358Y-72872903D01*
X94450681Y-72906388D01*
X94484166Y-72967711D01*
X94487000Y-72994069D01*
X94487000Y-76906486D01*
X94467315Y-76973525D01*
X94437312Y-77005752D01*
X94390669Y-77040668D01*
X94390663Y-77040674D01*
X94305499Y-77154441D01*
X94305497Y-77154445D01*
X94305497Y-77154446D01*
X94268794Y-77252850D01*
X94255828Y-77287612D01*
X94249500Y-77346462D01*
X94249500Y-78353517D01*
X94249501Y-78353526D01*
X94255828Y-78412391D01*
X94298872Y-78527792D01*
X94305497Y-78545554D01*
X94390669Y-78659331D01*
X94465418Y-78715287D01*
X94504281Y-78744380D01*
X94504446Y-78744503D01*
X94637609Y-78794171D01*
X94696479Y-78800500D01*
X95278520Y-78800499D01*
X95337391Y-78794171D01*
X95457516Y-78749365D01*
X95527204Y-78744380D01*
X95588525Y-78777862D01*
X95588528Y-78777865D01*
X95588529Y-78777866D01*
X97085371Y-80274707D01*
X97118856Y-80336030D01*
X97113872Y-80405722D01*
X97072000Y-80461655D01*
X97020477Y-80484276D01*
X96952544Y-80496975D01*
X96762364Y-80570651D01*
X96762357Y-80570655D01*
X96588960Y-80678017D01*
X96588958Y-80678019D01*
X96438237Y-80815418D01*
X96315327Y-80978178D01*
X96224422Y-81160739D01*
X96224417Y-81160752D01*
X96168602Y-81356917D01*
X96149785Y-81559999D01*
X96149785Y-81560000D01*
X96168602Y-81763082D01*
X96224417Y-81959247D01*
X96224422Y-81959260D01*
X96315327Y-82141821D01*
X96438238Y-82304582D01*
X96442099Y-82308817D01*
X96442018Y-82308890D01*
X96449852Y-82315169D01*
X96588958Y-82441980D01*
X96588960Y-82441982D01*
X96668174Y-82491029D01*
X96762363Y-82549348D01*
X96952544Y-82623024D01*
X97153024Y-82660500D01*
X97153026Y-82660500D01*
X97356974Y-82660500D01*
X97356976Y-82660500D01*
X97557456Y-82623024D01*
X97747637Y-82549348D01*
X97905224Y-82451774D01*
X97972583Y-82433219D01*
X98039282Y-82454027D01*
X98084144Y-82507593D01*
X98094500Y-82557202D01*
X98094500Y-82832738D01*
X98093720Y-82846623D01*
X98089729Y-82882036D01*
X98100355Y-82938196D01*
X98101132Y-82942765D01*
X98109652Y-82999291D01*
X98112162Y-83007427D01*
X98114976Y-83015470D01*
X98114976Y-83015471D01*
X98114977Y-83015472D01*
X98134277Y-83051990D01*
X98141688Y-83066011D01*
X98143777Y-83070149D01*
X98163282Y-83110652D01*
X98167367Y-83119133D01*
X98178719Y-83188075D01*
X98150998Y-83252209D01*
X98093003Y-83291175D01*
X98023147Y-83292601D01*
X97972109Y-83264573D01*
X97921041Y-83218019D01*
X97921039Y-83218017D01*
X97747642Y-83110655D01*
X97747635Y-83110651D01*
X97643086Y-83070149D01*
X97557456Y-83036976D01*
X97356976Y-82999500D01*
X97153024Y-82999500D01*
X97067592Y-83015470D01*
X96952537Y-83036977D01*
X96928079Y-83046452D01*
X96858455Y-83052312D01*
X96796716Y-83019600D01*
X96795608Y-83018505D01*
X96306368Y-82529265D01*
X96297103Y-82518898D01*
X96292989Y-82513740D01*
X96274879Y-82491030D01*
X96227633Y-82458818D01*
X96223869Y-82456147D01*
X96177886Y-82422209D01*
X96170297Y-82418198D01*
X96162675Y-82414528D01*
X96108049Y-82397679D01*
X96103644Y-82396230D01*
X96099354Y-82394729D01*
X96095676Y-82393442D01*
X96049695Y-82377352D01*
X96041326Y-82375768D01*
X96032904Y-82374500D01*
X96032902Y-82374500D01*
X95975738Y-82374500D01*
X95971101Y-82374413D01*
X95969085Y-82374337D01*
X95913989Y-82372275D01*
X95904756Y-82373316D01*
X95904662Y-82372486D01*
X95889364Y-82374500D01*
X95727988Y-82374500D01*
X95660949Y-82354815D01*
X95615194Y-82302011D01*
X95605250Y-82232853D01*
X95629034Y-82175774D01*
X95654671Y-82141824D01*
X95654671Y-82141822D01*
X95654673Y-82141821D01*
X95745582Y-81959250D01*
X95801397Y-81763083D01*
X95820215Y-81560000D01*
X95801397Y-81356917D01*
X95745582Y-81160750D01*
X95654673Y-80978179D01*
X95573855Y-80871158D01*
X95531762Y-80815418D01*
X95381041Y-80678019D01*
X95381039Y-80678017D01*
X95207642Y-80570655D01*
X95207635Y-80570651D01*
X95112546Y-80533814D01*
X95017456Y-80496976D01*
X94816976Y-80459500D01*
X94613024Y-80459500D01*
X94412544Y-80496976D01*
X94412541Y-80496976D01*
X94412541Y-80496977D01*
X94222364Y-80570651D01*
X94222357Y-80570655D01*
X94048960Y-80678017D01*
X94048958Y-80678019D01*
X93898237Y-80815418D01*
X93775327Y-80978178D01*
X93684422Y-81160739D01*
X93684417Y-81160752D01*
X93628602Y-81356917D01*
X93609785Y-81559999D01*
X93609785Y-81560000D01*
X93628602Y-81763082D01*
X93684417Y-81959247D01*
X93684422Y-81959260D01*
X93775328Y-82141824D01*
X93800966Y-82175774D01*
X93825658Y-82241135D01*
X93811093Y-82309470D01*
X93761895Y-82359082D01*
X93702012Y-82374500D01*
X85200465Y-82374500D01*
X85133426Y-82354815D01*
X85112784Y-82338181D01*
X80953872Y-78179269D01*
X83224500Y-78179269D01*
X83227353Y-78209699D01*
X83227353Y-78209701D01*
X83272206Y-78337880D01*
X83272207Y-78337882D01*
X83352850Y-78447150D01*
X83462118Y-78527793D01*
X83504845Y-78542744D01*
X83590299Y-78572646D01*
X83620730Y-78575500D01*
X83620734Y-78575500D01*
X84129270Y-78575500D01*
X84159699Y-78572646D01*
X84159701Y-78572646D01*
X84237118Y-78545556D01*
X84287882Y-78527793D01*
X84397150Y-78447150D01*
X84431308Y-78400866D01*
X84486956Y-78358616D01*
X84531079Y-78350500D01*
X84709150Y-78350500D01*
X84776189Y-78370185D01*
X84821944Y-78422989D01*
X84825331Y-78431165D01*
X84835974Y-78459699D01*
X84867997Y-78545554D01*
X84953169Y-78659331D01*
X85027918Y-78715287D01*
X85066781Y-78744380D01*
X85066946Y-78744503D01*
X85200109Y-78794171D01*
X85258979Y-78800500D01*
X85841020Y-78800499D01*
X85899891Y-78794171D01*
X86033054Y-78744503D01*
X86146831Y-78659331D01*
X86232003Y-78545554D01*
X86281671Y-78412391D01*
X86284036Y-78390383D01*
X86287999Y-78353537D01*
X86287999Y-78353526D01*
X86288000Y-78353521D01*
X86287999Y-77346480D01*
X86282910Y-77299133D01*
X86281671Y-77287608D01*
X86263145Y-77237940D01*
X86232003Y-77154446D01*
X86146831Y-77040669D01*
X86050499Y-76968556D01*
X86033056Y-76955498D01*
X86033054Y-76955497D01*
X85899891Y-76905829D01*
X85899889Y-76905828D01*
X85899887Y-76905828D01*
X85841029Y-76899500D01*
X85258982Y-76899500D01*
X85258973Y-76899501D01*
X85200108Y-76905828D01*
X85066945Y-76955497D01*
X84953169Y-77040669D01*
X84867998Y-77154443D01*
X84867481Y-77155829D01*
X84825330Y-77268837D01*
X84783461Y-77324767D01*
X84717997Y-77349184D01*
X84709151Y-77349500D01*
X84531079Y-77349500D01*
X84464040Y-77329815D01*
X84431308Y-77299133D01*
X84425061Y-77290669D01*
X84397150Y-77252850D01*
X84287882Y-77172207D01*
X84287880Y-77172206D01*
X84159700Y-77127353D01*
X84129270Y-77124500D01*
X84129266Y-77124500D01*
X83620734Y-77124500D01*
X83620730Y-77124500D01*
X83590300Y-77127353D01*
X83590298Y-77127353D01*
X83462119Y-77172206D01*
X83462117Y-77172207D01*
X83352850Y-77252850D01*
X83272207Y-77362117D01*
X83272206Y-77362119D01*
X83227353Y-77490298D01*
X83227353Y-77490300D01*
X83224500Y-77520730D01*
X83224500Y-78179269D01*
X80953872Y-78179269D01*
X80761818Y-77987215D01*
X80728333Y-77925892D01*
X80725499Y-77899534D01*
X80725499Y-77346482D01*
X80725498Y-77346473D01*
X80719171Y-77287608D01*
X80704397Y-77248000D01*
X80669503Y-77154446D01*
X80669501Y-77154443D01*
X80584336Y-77040674D01*
X80584330Y-77040668D01*
X80537688Y-77005752D01*
X80495818Y-76949818D01*
X80488000Y-76906486D01*
X80488000Y-72524643D01*
X80490834Y-72498285D01*
X80491859Y-72493573D01*
X80488316Y-72444037D01*
X80488000Y-72435190D01*
X80488000Y-72421701D01*
X80486079Y-72408343D01*
X80485133Y-72399545D01*
X80484706Y-72393573D01*
X80481591Y-72350017D01*
X80479907Y-72345502D01*
X80473350Y-72319812D01*
X80472665Y-72315043D01*
X80471912Y-72313395D01*
X80459031Y-72285190D01*
X80452030Y-72269860D01*
X80448655Y-72261712D01*
X80431296Y-72215169D01*
X80428405Y-72211307D01*
X80414879Y-72188510D01*
X80412877Y-72184127D01*
X80412875Y-72184125D01*
X80412875Y-72184124D01*
X80412874Y-72184122D01*
X80380353Y-72146591D01*
X80374798Y-72139698D01*
X80366723Y-72128911D01*
X80366710Y-72128896D01*
X80357183Y-72119369D01*
X80351151Y-72112890D01*
X80315805Y-72072098D01*
X80286780Y-72008542D01*
X80296724Y-71939384D01*
X80300674Y-71931490D01*
X80354367Y-71833161D01*
X80454369Y-71565046D01*
X80515196Y-71285428D01*
X80535610Y-71000001D01*
X84074390Y-71000001D01*
X84094804Y-71285433D01*
X84155628Y-71565037D01*
X84255635Y-71833166D01*
X84392770Y-72084309D01*
X84392775Y-72084317D01*
X84564254Y-72313387D01*
X84564270Y-72313405D01*
X84766594Y-72515729D01*
X84766612Y-72515745D01*
X84995682Y-72687224D01*
X84995690Y-72687229D01*
X85246833Y-72824364D01*
X85246832Y-72824364D01*
X85246836Y-72824365D01*
X85246839Y-72824367D01*
X85514954Y-72924369D01*
X85514960Y-72924370D01*
X85514962Y-72924371D01*
X85794566Y-72985195D01*
X85794568Y-72985195D01*
X85794572Y-72985196D01*
X86048220Y-73003337D01*
X86079999Y-73005610D01*
X86080000Y-73005610D01*
X86080001Y-73005610D01*
X86108595Y-73003564D01*
X86365428Y-72985196D01*
X86383752Y-72981210D01*
X86645037Y-72924371D01*
X86645037Y-72924370D01*
X86645046Y-72924369D01*
X86757170Y-72882548D01*
X86826858Y-72877565D01*
X86888181Y-72911049D01*
X86921666Y-72972372D01*
X86924500Y-72998731D01*
X86924500Y-76906486D01*
X86904815Y-76973525D01*
X86874812Y-77005752D01*
X86828169Y-77040668D01*
X86828163Y-77040674D01*
X86742999Y-77154441D01*
X86742997Y-77154445D01*
X86742997Y-77154446D01*
X86706294Y-77252850D01*
X86693328Y-77287612D01*
X86687000Y-77346462D01*
X86687000Y-78353517D01*
X86687001Y-78353526D01*
X86693328Y-78412391D01*
X86736372Y-78527792D01*
X86742997Y-78545554D01*
X86828169Y-78659331D01*
X86902918Y-78715287D01*
X86941781Y-78744380D01*
X86941946Y-78744503D01*
X87075109Y-78794171D01*
X87133979Y-78800500D01*
X87716020Y-78800499D01*
X87774891Y-78794171D01*
X87908054Y-78744503D01*
X88021831Y-78659331D01*
X88107003Y-78545554D01*
X88156671Y-78412391D01*
X88159036Y-78390383D01*
X88162999Y-78353537D01*
X88162999Y-78353526D01*
X88163000Y-78353521D01*
X88163000Y-78179269D01*
X90724500Y-78179269D01*
X90727353Y-78209699D01*
X90727353Y-78209701D01*
X90772206Y-78337880D01*
X90772207Y-78337882D01*
X90852850Y-78447150D01*
X90962118Y-78527793D01*
X91004845Y-78542744D01*
X91090299Y-78572646D01*
X91120730Y-78575500D01*
X91120734Y-78575500D01*
X91629270Y-78575500D01*
X91659699Y-78572646D01*
X91659701Y-78572646D01*
X91737118Y-78545556D01*
X91787882Y-78527793D01*
X91897150Y-78447150D01*
X91931308Y-78400866D01*
X91986956Y-78358616D01*
X92031079Y-78350500D01*
X92271650Y-78350500D01*
X92338689Y-78370185D01*
X92384444Y-78422989D01*
X92387831Y-78431165D01*
X92398474Y-78459699D01*
X92430497Y-78545554D01*
X92515669Y-78659331D01*
X92590418Y-78715287D01*
X92629281Y-78744380D01*
X92629446Y-78744503D01*
X92762609Y-78794171D01*
X92821479Y-78800500D01*
X93403520Y-78800499D01*
X93462391Y-78794171D01*
X93595554Y-78744503D01*
X93709331Y-78659331D01*
X93794503Y-78545554D01*
X93844171Y-78412391D01*
X93846536Y-78390383D01*
X93850499Y-78353537D01*
X93850499Y-78353526D01*
X93850500Y-78353521D01*
X93850499Y-77346480D01*
X93845410Y-77299133D01*
X93844171Y-77287608D01*
X93825645Y-77237940D01*
X93794503Y-77154446D01*
X93709331Y-77040669D01*
X93612999Y-76968556D01*
X93595556Y-76955498D01*
X93595554Y-76955497D01*
X93462391Y-76905829D01*
X93462389Y-76905828D01*
X93462387Y-76905828D01*
X93403529Y-76899500D01*
X92821482Y-76899500D01*
X92821473Y-76899501D01*
X92762608Y-76905828D01*
X92629445Y-76955497D01*
X92515669Y-77040669D01*
X92430498Y-77154443D01*
X92429981Y-77155829D01*
X92387830Y-77268837D01*
X92345961Y-77324767D01*
X92280497Y-77349184D01*
X92271651Y-77349500D01*
X92031079Y-77349500D01*
X91964040Y-77329815D01*
X91931308Y-77299133D01*
X91925061Y-77290669D01*
X91897150Y-77252850D01*
X91787882Y-77172207D01*
X91787880Y-77172206D01*
X91659700Y-77127353D01*
X91629270Y-77124500D01*
X91629266Y-77124500D01*
X91120734Y-77124500D01*
X91120730Y-77124500D01*
X91090300Y-77127353D01*
X91090298Y-77127353D01*
X90962119Y-77172206D01*
X90962117Y-77172207D01*
X90852850Y-77252850D01*
X90772207Y-77362117D01*
X90772206Y-77362119D01*
X90727353Y-77490298D01*
X90727353Y-77490300D01*
X90724500Y-77520730D01*
X90724500Y-78179269D01*
X88163000Y-78179269D01*
X88162999Y-77346480D01*
X88157910Y-77299133D01*
X88156671Y-77287608D01*
X88141897Y-77248000D01*
X88107003Y-77154446D01*
X88107001Y-77154443D01*
X88021836Y-77040674D01*
X88021830Y-77040668D01*
X87975188Y-77005752D01*
X87933318Y-76949818D01*
X87925500Y-76906486D01*
X87925500Y-72412143D01*
X87928334Y-72385785D01*
X87929359Y-72381073D01*
X87925816Y-72331537D01*
X87925500Y-72322690D01*
X87925500Y-72309201D01*
X87923579Y-72295843D01*
X87922633Y-72287045D01*
X87919091Y-72237517D01*
X87917407Y-72233002D01*
X87910850Y-72207312D01*
X87910165Y-72202543D01*
X87909011Y-72200017D01*
X87900923Y-72182306D01*
X87889530Y-72157360D01*
X87886155Y-72149212D01*
X87868796Y-72102669D01*
X87865905Y-72098807D01*
X87852379Y-72076010D01*
X87850377Y-72071627D01*
X87850375Y-72071625D01*
X87850375Y-72071624D01*
X87848943Y-72069396D01*
X87848196Y-72066852D01*
X87846690Y-72063554D01*
X87847164Y-72063337D01*
X87829259Y-72002357D01*
X87844425Y-71942934D01*
X87904367Y-71833161D01*
X88004369Y-71565046D01*
X88065196Y-71285428D01*
X88085610Y-71000000D01*
X88065196Y-70714572D01*
X88004369Y-70434954D01*
X87904367Y-70166839D01*
X87767226Y-69915685D01*
X87767224Y-69915682D01*
X87595745Y-69686612D01*
X87595729Y-69686594D01*
X87393405Y-69484270D01*
X87393387Y-69484254D01*
X87164317Y-69312775D01*
X87164309Y-69312770D01*
X86913166Y-69175635D01*
X86913167Y-69175635D01*
X86805915Y-69135632D01*
X86645046Y-69075631D01*
X86645043Y-69075630D01*
X86645037Y-69075628D01*
X86365433Y-69014804D01*
X86080001Y-68994390D01*
X86079999Y-68994390D01*
X85794566Y-69014804D01*
X85514962Y-69075628D01*
X85246833Y-69175635D01*
X84995690Y-69312770D01*
X84995682Y-69312775D01*
X84766612Y-69484254D01*
X84766594Y-69484270D01*
X84564270Y-69686594D01*
X84564254Y-69686612D01*
X84392775Y-69915682D01*
X84392770Y-69915690D01*
X84255635Y-70166833D01*
X84155628Y-70434962D01*
X84094804Y-70714566D01*
X84074390Y-70999998D01*
X84074390Y-71000001D01*
X80535610Y-71000001D01*
X80535610Y-71000000D01*
X80515196Y-70714572D01*
X80454369Y-70434954D01*
X80354367Y-70166839D01*
X80217226Y-69915685D01*
X80217224Y-69915682D01*
X80045745Y-69686612D01*
X80045729Y-69686594D01*
X79843405Y-69484270D01*
X79843387Y-69484254D01*
X79614317Y-69312775D01*
X79614309Y-69312770D01*
X79363166Y-69175635D01*
X79363167Y-69175635D01*
X79255915Y-69135632D01*
X79095046Y-69075631D01*
X79095043Y-69075630D01*
X79095037Y-69075628D01*
X78815433Y-69014804D01*
X78530001Y-68994390D01*
X78529999Y-68994390D01*
X78244566Y-69014804D01*
X77964962Y-69075628D01*
X77696833Y-69175635D01*
X77445690Y-69312770D01*
X77445682Y-69312775D01*
X77216612Y-69484254D01*
X77216594Y-69484270D01*
X77014270Y-69686594D01*
X77014254Y-69686612D01*
X76842775Y-69915682D01*
X76842770Y-69915690D01*
X76705635Y-70166833D01*
X76605628Y-70434962D01*
X76544804Y-70714566D01*
X76524390Y-70999998D01*
X76524390Y-71000001D01*
X72985610Y-71000001D01*
X72985610Y-71000000D01*
X72965196Y-70714572D01*
X72904369Y-70434954D01*
X72804367Y-70166839D01*
X72667226Y-69915685D01*
X72667224Y-69915682D01*
X72495745Y-69686612D01*
X72495729Y-69686594D01*
X72293405Y-69484270D01*
X72293387Y-69484254D01*
X72064317Y-69312775D01*
X72064309Y-69312770D01*
X71813166Y-69175635D01*
X71813167Y-69175635D01*
X71705915Y-69135632D01*
X71545046Y-69075631D01*
X71545043Y-69075630D01*
X71545037Y-69075628D01*
X71265433Y-69014804D01*
X70980001Y-68994390D01*
X70979999Y-68994390D01*
X70694566Y-69014804D01*
X70414962Y-69075628D01*
X70146833Y-69175635D01*
X69895690Y-69312770D01*
X69895682Y-69312775D01*
X69666612Y-69484254D01*
X69666594Y-69484270D01*
X69464270Y-69686594D01*
X69464254Y-69686612D01*
X69292775Y-69915682D01*
X69292770Y-69915690D01*
X69155635Y-70166833D01*
X69055628Y-70434962D01*
X68994804Y-70714566D01*
X68974390Y-70999998D01*
X68974390Y-71000001D01*
X65300500Y-71000001D01*
X65300500Y-66520190D01*
X68329500Y-66520190D01*
X68369066Y-66757300D01*
X68447116Y-66984652D01*
X68447118Y-66984657D01*
X68561529Y-67196069D01*
X68561533Y-67196075D01*
X68709169Y-67385757D01*
X68709171Y-67385759D01*
X68709175Y-67385764D01*
X68886031Y-67548571D01*
X69087272Y-67680049D01*
X69307409Y-67776610D01*
X69540437Y-67835620D01*
X69720010Y-67850500D01*
X69720014Y-67850500D01*
X69839986Y-67850500D01*
X69839990Y-67850500D01*
X70019563Y-67835620D01*
X70252591Y-67776610D01*
X70472728Y-67680049D01*
X70673969Y-67548571D01*
X70850825Y-67385764D01*
X70998472Y-67196067D01*
X71112882Y-66984656D01*
X71190934Y-66757297D01*
X71230500Y-66520192D01*
X71230500Y-66520190D01*
X75879500Y-66520190D01*
X75919066Y-66757300D01*
X75997116Y-66984652D01*
X75997118Y-66984657D01*
X76111529Y-67196069D01*
X76111533Y-67196075D01*
X76259169Y-67385757D01*
X76259171Y-67385759D01*
X76259175Y-67385764D01*
X76436031Y-67548571D01*
X76637272Y-67680049D01*
X76857409Y-67776610D01*
X77090437Y-67835620D01*
X77270010Y-67850500D01*
X77270014Y-67850500D01*
X77389986Y-67850500D01*
X77389990Y-67850500D01*
X77569563Y-67835620D01*
X77802591Y-67776610D01*
X78022728Y-67680049D01*
X78223969Y-67548571D01*
X78400825Y-67385764D01*
X78548472Y-67196067D01*
X78662882Y-66984656D01*
X78740934Y-66757297D01*
X78780500Y-66520192D01*
X78780500Y-66520190D01*
X83429500Y-66520190D01*
X83469066Y-66757300D01*
X83547116Y-66984652D01*
X83547118Y-66984657D01*
X83661529Y-67196069D01*
X83661533Y-67196075D01*
X83809169Y-67385757D01*
X83809171Y-67385759D01*
X83809175Y-67385764D01*
X83986031Y-67548571D01*
X84187272Y-67680049D01*
X84407409Y-67776610D01*
X84640437Y-67835620D01*
X84820010Y-67850500D01*
X84820014Y-67850500D01*
X84939986Y-67850500D01*
X84939990Y-67850500D01*
X85119563Y-67835620D01*
X85352591Y-67776610D01*
X85572728Y-67680049D01*
X85773969Y-67548571D01*
X85950825Y-67385764D01*
X86098472Y-67196067D01*
X86212882Y-66984656D01*
X86290934Y-66757297D01*
X86330500Y-66520192D01*
X86330500Y-66520190D01*
X90979500Y-66520190D01*
X91019066Y-66757300D01*
X91097116Y-66984652D01*
X91097118Y-66984657D01*
X91211529Y-67196069D01*
X91211533Y-67196075D01*
X91359169Y-67385757D01*
X91359171Y-67385759D01*
X91359175Y-67385764D01*
X91536031Y-67548571D01*
X91737272Y-67680049D01*
X91957409Y-67776610D01*
X92190437Y-67835620D01*
X92370010Y-67850500D01*
X92370014Y-67850500D01*
X92489986Y-67850500D01*
X92489990Y-67850500D01*
X92669563Y-67835620D01*
X92902591Y-67776610D01*
X93122728Y-67680049D01*
X93323969Y-67548571D01*
X93500825Y-67385764D01*
X93648472Y-67196067D01*
X93762882Y-66984656D01*
X93840934Y-66757297D01*
X93880500Y-66520192D01*
X93880500Y-66520190D01*
X98529500Y-66520190D01*
X98569066Y-66757300D01*
X98647116Y-66984652D01*
X98647118Y-66984657D01*
X98761529Y-67196069D01*
X98761533Y-67196075D01*
X98909169Y-67385757D01*
X98909171Y-67385759D01*
X98909175Y-67385764D01*
X99086031Y-67548571D01*
X99287272Y-67680049D01*
X99507409Y-67776610D01*
X99740437Y-67835620D01*
X99920010Y-67850500D01*
X99920014Y-67850500D01*
X100039986Y-67850500D01*
X100039990Y-67850500D01*
X100219563Y-67835620D01*
X100452591Y-67776610D01*
X100672728Y-67680049D01*
X100873969Y-67548571D01*
X101050825Y-67385764D01*
X101198472Y-67196067D01*
X101312882Y-66984656D01*
X101390934Y-66757297D01*
X101430500Y-66520192D01*
X101430500Y-66520190D01*
X106079500Y-66520190D01*
X106119066Y-66757300D01*
X106197116Y-66984652D01*
X106197118Y-66984657D01*
X106311529Y-67196069D01*
X106311533Y-67196075D01*
X106459169Y-67385757D01*
X106459171Y-67385759D01*
X106459175Y-67385764D01*
X106636031Y-67548571D01*
X106837272Y-67680049D01*
X107057409Y-67776610D01*
X107290437Y-67835620D01*
X107470010Y-67850500D01*
X107470014Y-67850500D01*
X107589986Y-67850500D01*
X107589990Y-67850500D01*
X107769563Y-67835620D01*
X108002591Y-67776610D01*
X108222728Y-67680049D01*
X108423969Y-67548571D01*
X108600825Y-67385764D01*
X108748472Y-67196067D01*
X108862882Y-66984656D01*
X108940934Y-66757297D01*
X108980500Y-66520192D01*
X108980500Y-66520190D01*
X113629500Y-66520190D01*
X113669066Y-66757300D01*
X113747116Y-66984652D01*
X113747118Y-66984657D01*
X113861529Y-67196069D01*
X113861533Y-67196075D01*
X114009169Y-67385757D01*
X114009171Y-67385759D01*
X114009175Y-67385764D01*
X114186031Y-67548571D01*
X114387272Y-67680049D01*
X114607409Y-67776610D01*
X114840437Y-67835620D01*
X115020010Y-67850500D01*
X115020014Y-67850500D01*
X115139986Y-67850500D01*
X115139990Y-67850500D01*
X115319563Y-67835620D01*
X115552591Y-67776610D01*
X115772728Y-67680049D01*
X115973969Y-67548571D01*
X116150825Y-67385764D01*
X116298472Y-67196067D01*
X116412882Y-66984656D01*
X116490934Y-66757297D01*
X116530500Y-66520192D01*
X116530500Y-66520190D01*
X121179500Y-66520190D01*
X121219066Y-66757300D01*
X121297116Y-66984652D01*
X121297118Y-66984657D01*
X121411529Y-67196069D01*
X121411533Y-67196075D01*
X121559169Y-67385757D01*
X121559171Y-67385759D01*
X121559175Y-67385764D01*
X121736031Y-67548571D01*
X121937272Y-67680049D01*
X122157409Y-67776610D01*
X122390437Y-67835620D01*
X122570010Y-67850500D01*
X122570014Y-67850500D01*
X122689986Y-67850500D01*
X122689990Y-67850500D01*
X122869563Y-67835620D01*
X123102591Y-67776610D01*
X123322728Y-67680049D01*
X123523969Y-67548571D01*
X123700825Y-67385764D01*
X123848472Y-67196067D01*
X123962882Y-66984656D01*
X124040934Y-66757297D01*
X124080500Y-66520192D01*
X124080500Y-66520190D01*
X128729500Y-66520190D01*
X128769066Y-66757300D01*
X128847116Y-66984652D01*
X128847118Y-66984657D01*
X128961529Y-67196069D01*
X128961533Y-67196075D01*
X129109169Y-67385757D01*
X129109171Y-67385759D01*
X129109175Y-67385764D01*
X129286031Y-67548571D01*
X129487272Y-67680049D01*
X129707409Y-67776610D01*
X129940437Y-67835620D01*
X130120010Y-67850500D01*
X130120014Y-67850500D01*
X130239986Y-67850500D01*
X130239990Y-67850500D01*
X130419563Y-67835620D01*
X130652591Y-67776610D01*
X130872728Y-67680049D01*
X131073969Y-67548571D01*
X131250825Y-67385764D01*
X131398472Y-67196067D01*
X131512882Y-66984656D01*
X131590934Y-66757297D01*
X131630500Y-66520192D01*
X131630500Y-66279808D01*
X131590934Y-66042703D01*
X131512882Y-65815344D01*
X131398472Y-65603933D01*
X131398470Y-65603930D01*
X131398466Y-65603924D01*
X131250830Y-65414242D01*
X131250827Y-65414239D01*
X131250825Y-65414236D01*
X131073969Y-65251429D01*
X131073966Y-65251427D01*
X130872729Y-65119951D01*
X130744757Y-65063817D01*
X130652591Y-65023390D01*
X130652589Y-65023389D01*
X130419559Y-64964379D01*
X130240000Y-64949500D01*
X130239990Y-64949500D01*
X130120010Y-64949500D01*
X130119999Y-64949500D01*
X129940440Y-64964379D01*
X129707410Y-65023389D01*
X129487270Y-65119951D01*
X129286033Y-65251427D01*
X129286029Y-65251430D01*
X129109172Y-65414239D01*
X129109169Y-65414242D01*
X128961533Y-65603924D01*
X128961529Y-65603930D01*
X128847118Y-65815342D01*
X128847116Y-65815347D01*
X128769066Y-66042699D01*
X128729500Y-66279809D01*
X128729500Y-66520190D01*
X124080500Y-66520190D01*
X124080500Y-66279808D01*
X124040934Y-66042703D01*
X123962882Y-65815344D01*
X123848472Y-65603933D01*
X123848470Y-65603930D01*
X123848466Y-65603924D01*
X123700830Y-65414242D01*
X123700827Y-65414239D01*
X123700825Y-65414236D01*
X123523969Y-65251429D01*
X123523966Y-65251427D01*
X123322729Y-65119951D01*
X123194757Y-65063817D01*
X123102591Y-65023390D01*
X123102589Y-65023389D01*
X122869559Y-64964379D01*
X122690000Y-64949500D01*
X122689990Y-64949500D01*
X122570010Y-64949500D01*
X122569999Y-64949500D01*
X122390440Y-64964379D01*
X122157410Y-65023389D01*
X121937270Y-65119951D01*
X121736033Y-65251427D01*
X121736029Y-65251430D01*
X121559172Y-65414239D01*
X121559169Y-65414242D01*
X121411533Y-65603924D01*
X121411529Y-65603930D01*
X121297118Y-65815342D01*
X121297116Y-65815347D01*
X121219066Y-66042699D01*
X121179500Y-66279809D01*
X121179500Y-66520190D01*
X116530500Y-66520190D01*
X116530500Y-66279808D01*
X116490934Y-66042703D01*
X116412882Y-65815344D01*
X116298472Y-65603933D01*
X116298470Y-65603930D01*
X116298466Y-65603924D01*
X116150830Y-65414242D01*
X116150827Y-65414239D01*
X116150825Y-65414236D01*
X115973969Y-65251429D01*
X115973966Y-65251427D01*
X115772729Y-65119951D01*
X115644757Y-65063817D01*
X115552591Y-65023390D01*
X115552589Y-65023389D01*
X115319559Y-64964379D01*
X115140000Y-64949500D01*
X115139990Y-64949500D01*
X115020010Y-64949500D01*
X115019999Y-64949500D01*
X114840440Y-64964379D01*
X114607410Y-65023389D01*
X114387270Y-65119951D01*
X114186033Y-65251427D01*
X114186029Y-65251430D01*
X114009172Y-65414239D01*
X114009169Y-65414242D01*
X113861533Y-65603924D01*
X113861529Y-65603930D01*
X113747118Y-65815342D01*
X113747116Y-65815347D01*
X113669066Y-66042699D01*
X113629500Y-66279809D01*
X113629500Y-66520190D01*
X108980500Y-66520190D01*
X108980500Y-66279808D01*
X108940934Y-66042703D01*
X108862882Y-65815344D01*
X108748472Y-65603933D01*
X108748470Y-65603930D01*
X108748466Y-65603924D01*
X108600830Y-65414242D01*
X108600827Y-65414239D01*
X108600825Y-65414236D01*
X108423969Y-65251429D01*
X108423966Y-65251427D01*
X108222729Y-65119951D01*
X108094757Y-65063817D01*
X108002591Y-65023390D01*
X108002589Y-65023389D01*
X107769559Y-64964379D01*
X107590000Y-64949500D01*
X107589990Y-64949500D01*
X107470010Y-64949500D01*
X107469999Y-64949500D01*
X107290440Y-64964379D01*
X107057410Y-65023389D01*
X106837270Y-65119951D01*
X106636033Y-65251427D01*
X106636029Y-65251430D01*
X106459172Y-65414239D01*
X106459169Y-65414242D01*
X106311533Y-65603924D01*
X106311529Y-65603930D01*
X106197118Y-65815342D01*
X106197116Y-65815347D01*
X106119066Y-66042699D01*
X106079500Y-66279809D01*
X106079500Y-66520190D01*
X101430500Y-66520190D01*
X101430500Y-66279808D01*
X101390934Y-66042703D01*
X101312882Y-65815344D01*
X101198472Y-65603933D01*
X101198470Y-65603930D01*
X101198466Y-65603924D01*
X101050830Y-65414242D01*
X101050827Y-65414239D01*
X101050825Y-65414236D01*
X100873969Y-65251429D01*
X100873966Y-65251427D01*
X100672729Y-65119951D01*
X100544757Y-65063817D01*
X100452591Y-65023390D01*
X100452589Y-65023389D01*
X100219559Y-64964379D01*
X100040000Y-64949500D01*
X100039990Y-64949500D01*
X99920010Y-64949500D01*
X99919999Y-64949500D01*
X99740440Y-64964379D01*
X99507410Y-65023389D01*
X99287270Y-65119951D01*
X99086033Y-65251427D01*
X99086029Y-65251430D01*
X98909172Y-65414239D01*
X98909169Y-65414242D01*
X98761533Y-65603924D01*
X98761529Y-65603930D01*
X98647118Y-65815342D01*
X98647116Y-65815347D01*
X98569066Y-66042699D01*
X98529500Y-66279809D01*
X98529500Y-66520190D01*
X93880500Y-66520190D01*
X93880500Y-66279808D01*
X93840934Y-66042703D01*
X93762882Y-65815344D01*
X93648472Y-65603933D01*
X93648470Y-65603930D01*
X93648466Y-65603924D01*
X93500830Y-65414242D01*
X93500827Y-65414239D01*
X93500825Y-65414236D01*
X93323969Y-65251429D01*
X93323966Y-65251427D01*
X93122729Y-65119951D01*
X92994757Y-65063817D01*
X92902591Y-65023390D01*
X92902589Y-65023389D01*
X92669559Y-64964379D01*
X92490000Y-64949500D01*
X92489990Y-64949500D01*
X92370010Y-64949500D01*
X92369999Y-64949500D01*
X92190440Y-64964379D01*
X91957410Y-65023389D01*
X91737270Y-65119951D01*
X91536033Y-65251427D01*
X91536029Y-65251430D01*
X91359172Y-65414239D01*
X91359169Y-65414242D01*
X91211533Y-65603924D01*
X91211529Y-65603930D01*
X91097118Y-65815342D01*
X91097116Y-65815347D01*
X91019066Y-66042699D01*
X90979500Y-66279809D01*
X90979500Y-66520190D01*
X86330500Y-66520190D01*
X86330500Y-66279808D01*
X86290934Y-66042703D01*
X86212882Y-65815344D01*
X86098472Y-65603933D01*
X86098470Y-65603930D01*
X86098466Y-65603924D01*
X85950830Y-65414242D01*
X85950827Y-65414239D01*
X85950825Y-65414236D01*
X85773969Y-65251429D01*
X85773966Y-65251427D01*
X85572729Y-65119951D01*
X85444757Y-65063817D01*
X85352591Y-65023390D01*
X85352589Y-65023389D01*
X85119559Y-64964379D01*
X84940000Y-64949500D01*
X84939990Y-64949500D01*
X84820010Y-64949500D01*
X84819999Y-64949500D01*
X84640440Y-64964379D01*
X84407410Y-65023389D01*
X84187270Y-65119951D01*
X83986033Y-65251427D01*
X83986029Y-65251430D01*
X83809172Y-65414239D01*
X83809169Y-65414242D01*
X83661533Y-65603924D01*
X83661529Y-65603930D01*
X83547118Y-65815342D01*
X83547116Y-65815347D01*
X83469066Y-66042699D01*
X83429500Y-66279809D01*
X83429500Y-66520190D01*
X78780500Y-66520190D01*
X78780500Y-66279808D01*
X78740934Y-66042703D01*
X78662882Y-65815344D01*
X78548472Y-65603933D01*
X78548470Y-65603930D01*
X78548466Y-65603924D01*
X78400830Y-65414242D01*
X78400827Y-65414239D01*
X78400825Y-65414236D01*
X78223969Y-65251429D01*
X78223966Y-65251427D01*
X78022729Y-65119951D01*
X77894757Y-65063817D01*
X77802591Y-65023390D01*
X77802589Y-65023389D01*
X77569559Y-64964379D01*
X77390000Y-64949500D01*
X77389990Y-64949500D01*
X77270010Y-64949500D01*
X77269999Y-64949500D01*
X77090440Y-64964379D01*
X76857410Y-65023389D01*
X76637270Y-65119951D01*
X76436033Y-65251427D01*
X76436029Y-65251430D01*
X76259172Y-65414239D01*
X76259169Y-65414242D01*
X76111533Y-65603924D01*
X76111529Y-65603930D01*
X75997118Y-65815342D01*
X75997116Y-65815347D01*
X75919066Y-66042699D01*
X75879500Y-66279809D01*
X75879500Y-66520190D01*
X71230500Y-66520190D01*
X71230500Y-66279808D01*
X71190934Y-66042703D01*
X71112882Y-65815344D01*
X70998472Y-65603933D01*
X70998470Y-65603930D01*
X70998466Y-65603924D01*
X70850830Y-65414242D01*
X70850827Y-65414239D01*
X70850825Y-65414236D01*
X70673969Y-65251429D01*
X70673966Y-65251427D01*
X70472729Y-65119951D01*
X70344757Y-65063817D01*
X70252591Y-65023390D01*
X70252589Y-65023389D01*
X70019559Y-64964379D01*
X69840000Y-64949500D01*
X69839990Y-64949500D01*
X69720010Y-64949500D01*
X69719999Y-64949500D01*
X69540440Y-64964379D01*
X69307410Y-65023389D01*
X69087270Y-65119951D01*
X68886033Y-65251427D01*
X68886029Y-65251430D01*
X68709172Y-65414239D01*
X68709169Y-65414242D01*
X68561533Y-65603924D01*
X68561529Y-65603930D01*
X68447118Y-65815342D01*
X68447116Y-65815347D01*
X68369066Y-66042699D01*
X68329500Y-66279809D01*
X68329500Y-66520190D01*
X65300500Y-66520190D01*
X65300500Y-49987389D01*
X85149500Y-49987389D01*
X85155630Y-50096541D01*
X85155631Y-50096554D01*
X85204403Y-50354322D01*
X85204404Y-50354327D01*
X85204405Y-50354332D01*
X85204406Y-50354333D01*
X85291059Y-50601974D01*
X85413654Y-50833933D01*
X85569450Y-51045031D01*
X85754969Y-51230550D01*
X85966067Y-51386346D01*
X86198026Y-51508941D01*
X86445667Y-51595594D01*
X86445671Y-51595594D01*
X86445672Y-51595595D01*
X86445677Y-51595596D01*
X86703445Y-51644368D01*
X86703447Y-51644368D01*
X86703457Y-51644370D01*
X86812608Y-51650500D01*
X86812625Y-51650500D01*
X89987375Y-51650500D01*
X89987392Y-51650500D01*
X90096543Y-51644370D01*
X90354333Y-51595594D01*
X90601974Y-51508941D01*
X90833933Y-51386346D01*
X91045031Y-51230550D01*
X91230550Y-51045031D01*
X91386346Y-50833933D01*
X91508941Y-50601974D01*
X91595594Y-50354333D01*
X91644370Y-50096543D01*
X91650500Y-49987392D01*
X91650500Y-46812608D01*
X91644370Y-46703457D01*
X91640686Y-46683989D01*
X91595596Y-46445677D01*
X91595595Y-46445672D01*
X91595594Y-46445671D01*
X91595594Y-46445667D01*
X91508941Y-46198026D01*
X91386346Y-45966067D01*
X91230550Y-45754969D01*
X91045031Y-45569450D01*
X90833933Y-45413654D01*
X90833929Y-45413652D01*
X90833928Y-45413651D01*
X90601978Y-45291061D01*
X90601977Y-45291060D01*
X90601974Y-45291059D01*
X90354333Y-45204406D01*
X90354332Y-45204405D01*
X90354327Y-45204404D01*
X90354322Y-45204403D01*
X90096554Y-45155631D01*
X90096544Y-45155630D01*
X90096543Y-45155630D01*
X89987392Y-45149500D01*
X86812608Y-45149500D01*
X86703457Y-45155630D01*
X86703456Y-45155630D01*
X86703445Y-45155631D01*
X86445677Y-45204403D01*
X86445672Y-45204404D01*
X86321846Y-45247732D01*
X86198026Y-45291059D01*
X86198024Y-45291059D01*
X86198021Y-45291061D01*
X85966071Y-45413651D01*
X85754968Y-45569450D01*
X85569450Y-45754968D01*
X85413651Y-45966071D01*
X85291061Y-46198021D01*
X85204404Y-46445672D01*
X85204403Y-46445677D01*
X85155631Y-46703445D01*
X85155630Y-46703458D01*
X85149500Y-46812610D01*
X85149500Y-49987389D01*
X65300500Y-49987389D01*
X65300500Y-40103246D01*
X65300670Y-40096756D01*
X65316592Y-39792953D01*
X65317949Y-39780046D01*
X65365028Y-39482794D01*
X65367723Y-39470107D01*
X65445627Y-39179368D01*
X65449636Y-39167033D01*
X65557493Y-38886054D01*
X65562763Y-38874215D01*
X65699415Y-38606023D01*
X65705891Y-38594808D01*
X65869819Y-38342380D01*
X65877434Y-38331899D01*
X66066858Y-38097979D01*
X66075525Y-38088354D01*
X66288354Y-37875525D01*
X66297979Y-37866858D01*
X66531899Y-37677434D01*
X66542380Y-37669819D01*
X66794808Y-37505891D01*
X66806023Y-37499415D01*
X67074215Y-37362763D01*
X67086054Y-37357493D01*
X67367040Y-37249633D01*
X67379368Y-37245627D01*
X67670107Y-37167723D01*
X67682786Y-37165029D01*
X67980046Y-37117949D01*
X67992951Y-37116592D01*
X68296756Y-37100669D01*
X68303246Y-37100500D01*
X68365892Y-37100500D01*
X103140802Y-37100500D01*
X103207841Y-37120185D01*
G37*
%TD.AperFunction*%
%TA.AperFunction,Conductor*%
G36*
X103000000Y-49657024D02*
G01*
X102999999Y-49657008D01*
X102998724Y-49645150D01*
X102994160Y-49602702D01*
X102982953Y-49551188D01*
X102976611Y-49532137D01*
X102970579Y-49501813D01*
X102969714Y-49489714D01*
X102968902Y-49480640D01*
X102967964Y-49471913D01*
X102967334Y-49463096D01*
X102967021Y-49454334D01*
X102966534Y-49445251D01*
X102966533Y-49445230D01*
X102965620Y-49432470D01*
X102965989Y-49411833D01*
X102965947Y-49411831D01*
X102965947Y-49411827D01*
X102965902Y-49411824D01*
X102966014Y-49410424D01*
X102966016Y-49410355D01*
X102966036Y-49410172D01*
X102967500Y-49382857D01*
X102967500Y-49365218D01*
X102981015Y-49308924D01*
X102998146Y-49275304D01*
X103000000Y-49263598D01*
X103000000Y-49657024D01*
G37*
%TD.AperFunction*%
%TA.AperFunction,Conductor*%
G36*
X103000000Y-48736402D02*
G01*
X102998146Y-48724696D01*
X102940550Y-48611658D01*
X102940545Y-48611653D01*
X102934811Y-48603759D01*
X102936165Y-48602774D01*
X102908090Y-48551368D01*
X102913069Y-48481676D01*
X102935513Y-48446751D01*
X102934811Y-48446241D01*
X102940542Y-48438349D01*
X102940550Y-48438342D01*
X102998146Y-48325304D01*
X102998146Y-48325302D01*
X102998147Y-48325301D01*
X103000000Y-48313600D01*
X103000000Y-48736402D01*
G37*
%TD.AperFunction*%
%TD*%
M02*
