%TF.GenerationSoftware,KiCad,Pcbnew,7.0.11-rc3*%
%TF.CreationDate,2025-03-16T23:27:26+08:00*%
%TF.ProjectId,fuse_box,66757365-5f62-46f7-982e-6b696361645f,rev?*%
%TF.SameCoordinates,Original*%
%TF.FileFunction,Soldermask,Bot*%
%TF.FilePolarity,Negative*%
%FSLAX46Y46*%
G04 Gerber Fmt 4.6, Leading zero omitted, Abs format (unit mm)*
G04 Created by KiCad (PCBNEW 7.0.11-rc3) date 2025-03-16 23:27:26*
%MOMM*%
%LPD*%
G01*
G04 APERTURE LIST*
G04 Aperture macros list*
%AMRoundRect*
0 Rectangle with rounded corners*
0 $1 Rounding radius*
0 $2 $3 $4 $5 $6 $7 $8 $9 X,Y pos of 4 corners*
0 Add a 4 corners polygon primitive as box body*
4,1,4,$2,$3,$4,$5,$6,$7,$8,$9,$2,$3,0*
0 Add four circle primitives for the rounded corners*
1,1,$1+$1,$2,$3*
1,1,$1+$1,$4,$5*
1,1,$1+$1,$6,$7*
1,1,$1+$1,$8,$9*
0 Add four rect primitives between the rounded corners*
20,1,$1+$1,$2,$3,$4,$5,0*
20,1,$1+$1,$4,$5,$6,$7,0*
20,1,$1+$1,$6,$7,$8,$9,0*
20,1,$1+$1,$8,$9,$2,$3,0*%
G04 Aperture macros list end*
%ADD10C,5.700000*%
%ADD11C,2.400000*%
%ADD12C,3.500000*%
%ADD13RoundRect,1.500000X1.500000X1.500000X-1.500000X1.500000X-1.500000X-1.500000X1.500000X-1.500000X0*%
%ADD14C,6.000000*%
%ADD15C,1.500000*%
%ADD16O,1.700000X1.700000*%
G04 APERTURE END LIST*
D10*
%TO.C,H3*%
X131300000Y-40100000D03*
%TD*%
D11*
%TO.C,F6*%
X92430000Y-66400000D03*
D12*
X93630000Y-61800000D03*
X93630000Y-71000000D03*
%TD*%
D13*
%TO.C,J1*%
X88400000Y-48400000D03*
D14*
X81200000Y-48400000D03*
%TD*%
D11*
%TO.C,F9*%
X69780000Y-66400000D03*
D12*
X70980000Y-61800000D03*
X70980000Y-71000000D03*
%TD*%
D11*
%TO.C,F5*%
X99980000Y-66400000D03*
D12*
X101180000Y-61800000D03*
X101180000Y-71000000D03*
%TD*%
D11*
%TO.C,F8*%
X77330000Y-66400000D03*
D12*
X78530000Y-61800000D03*
X78530000Y-71000000D03*
%TD*%
D10*
%TO.C,H1*%
X131300000Y-83100000D03*
%TD*%
%TO.C,H2*%
X68300000Y-83100000D03*
%TD*%
D15*
%TO.C,TP1*%
X123800000Y-53600000D03*
%TD*%
D11*
%TO.C,F1*%
X130180000Y-66400000D03*
D12*
X131380000Y-61800000D03*
X131380000Y-71000000D03*
%TD*%
D11*
%TO.C,F4*%
X107530000Y-66400000D03*
D12*
X108730000Y-61800000D03*
X108730000Y-71000000D03*
%TD*%
D11*
%TO.C,F7*%
X84880000Y-66400000D03*
D12*
X86080000Y-61800000D03*
X86080000Y-71000000D03*
%TD*%
D11*
%TO.C,F2*%
X122630000Y-66400000D03*
D12*
X123830000Y-61800000D03*
X123830000Y-71000000D03*
%TD*%
D11*
%TO.C,F3*%
X115080000Y-66400000D03*
D12*
X116280000Y-61800000D03*
X116280000Y-71000000D03*
%TD*%
D10*
%TO.C,H4*%
X68300000Y-40100000D03*
%TD*%
D16*
%TO.C,J3*%
X104875000Y-84100000D03*
X104875000Y-81560000D03*
X102335000Y-84100000D03*
X102335000Y-81560000D03*
X99795000Y-84100000D03*
X99795000Y-81560000D03*
X97255000Y-84100000D03*
X97255000Y-81560000D03*
X94715000Y-84100000D03*
X94715000Y-81560000D03*
%TD*%
M02*
