%TF.GenerationSoftware,KiCad,Pcbnew,7.0.11-rc3*%
%TF.CreationDate,2025-03-16T23:27:30+08:00*%
%TF.ProjectId,fuse_box,66757365-5f62-46f7-982e-6b696361645f,rev?*%
%TF.SameCoordinates,Original*%
%TF.FileFunction,Plated,1,2,PTH,Drill*%
%TF.FilePolarity,Positive*%
%FSLAX46Y46*%
G04 Gerber Fmt 4.6, Leading zero omitted, Abs format (unit mm)*
G04 Created by KiCad (PCBNEW 7.0.11-rc3) date 2025-03-16 23:27:30*
%MOMM*%
%LPD*%
G01*
G04 APERTURE LIST*
%TA.AperFunction,ViaDrill*%
%ADD10C,0.300000*%
%TD*%
%TA.AperFunction,ComponentDrill*%
%ADD11C,0.700000*%
%TD*%
%TA.AperFunction,ComponentDrill*%
%ADD12C,1.000000*%
%TD*%
%TA.AperFunction,ComponentDrill*%
%ADD13C,2.000000*%
%TD*%
%TA.AperFunction,ComponentDrill*%
%ADD14C,3.200000*%
%TD*%
%TA.AperFunction,ComponentDrill*%
%ADD15C,4.500000*%
%TD*%
G04 APERTURE END LIST*
D10*
X97800000Y-47750000D03*
X100050000Y-49600000D03*
X100050000Y-50350000D03*
X100050000Y-51100000D03*
X100800000Y-49600000D03*
X100800000Y-50350000D03*
X100800000Y-51100000D03*
X101600000Y-44000000D03*
X101600000Y-44800000D03*
X101600000Y-50800000D03*
X102400000Y-44000000D03*
X102400000Y-44800000D03*
X102400000Y-50800000D03*
X103200000Y-44000000D03*
X103200000Y-44800000D03*
X103200000Y-45600000D03*
X103200000Y-46400000D03*
X103600000Y-50800000D03*
X103600000Y-53400000D03*
X104400000Y-53400000D03*
X104400000Y-54200000D03*
X104400000Y-55000000D03*
X108400000Y-52000000D03*
D11*
%TO.C,TP1*%
X123800000Y-53600000D03*
D12*
%TO.C,J3*%
X94715000Y-81560000D03*
X94715000Y-84100000D03*
X97255000Y-81560000D03*
X97255000Y-84100000D03*
X99795000Y-81560000D03*
X99795000Y-84100000D03*
X102335000Y-81560000D03*
X102335000Y-84100000D03*
X104875000Y-81560000D03*
X104875000Y-84100000D03*
D13*
%TO.C,F9*%
X70980000Y-61800000D03*
X70980000Y-71000000D03*
%TO.C,F8*%
X78530000Y-61800000D03*
X78530000Y-71000000D03*
%TO.C,F7*%
X86080000Y-61800000D03*
X86080000Y-71000000D03*
%TO.C,F6*%
X93630000Y-61800000D03*
X93630000Y-71000000D03*
%TO.C,F5*%
X101180000Y-61800000D03*
X101180000Y-71000000D03*
%TO.C,F4*%
X108730000Y-61800000D03*
X108730000Y-71000000D03*
%TO.C,F3*%
X116280000Y-61800000D03*
X116280000Y-71000000D03*
%TO.C,F2*%
X123830000Y-61800000D03*
X123830000Y-71000000D03*
%TO.C,F1*%
X131380000Y-61800000D03*
X131380000Y-71000000D03*
D14*
%TO.C,H4*%
X68300000Y-40100000D03*
%TO.C,H2*%
X68300000Y-83100000D03*
%TO.C,H3*%
X131300000Y-40100000D03*
%TO.C,H1*%
X131300000Y-83100000D03*
D15*
%TO.C,J1*%
X81200000Y-48400000D03*
X88400000Y-48400000D03*
M02*
