%TF.GenerationSoftware,KiCad,Pcbnew,7.0.11-rc3*%
%TF.CreationDate,2025-03-16T23:27:26+08:00*%
%TF.ProjectId,fuse_box,66757365-5f62-46f7-982e-6b696361645f,rev?*%
%TF.SameCoordinates,Original*%
%TF.FileFunction,Legend,Top*%
%TF.FilePolarity,Positive*%
%FSLAX46Y46*%
G04 Gerber Fmt 4.6, Leading zero omitted, Abs format (unit mm)*
G04 Created by KiCad (PCBNEW 7.0.11-rc3) date 2025-03-16 23:27:26*
%MOMM*%
%LPD*%
G01*
G04 APERTURE LIST*
%ADD10C,0.100000*%
%ADD11C,0.150000*%
%ADD12C,0.120000*%
G04 APERTURE END LIST*
D10*
X123800000Y-52650000D02*
X123800000Y-51100000D01*
D11*
X70969704Y-45084398D02*
X71769704Y-45184398D01*
X71769704Y-45184398D02*
X70969704Y-45541541D01*
X70969704Y-45541541D02*
X71769704Y-45641541D01*
X71045895Y-46389159D02*
X71007800Y-46346302D01*
X71007800Y-46346302D02*
X70969704Y-46227255D01*
X70969704Y-46227255D02*
X70969704Y-46151064D01*
X70969704Y-46151064D02*
X71007800Y-46041540D01*
X71007800Y-46041540D02*
X71083990Y-45974874D01*
X71083990Y-45974874D02*
X71160180Y-45946302D01*
X71160180Y-45946302D02*
X71312561Y-45927255D01*
X71312561Y-45927255D02*
X71426847Y-45941540D01*
X71426847Y-45941540D02*
X71579228Y-45998683D01*
X71579228Y-45998683D02*
X71655419Y-46046302D01*
X71655419Y-46046302D02*
X71731609Y-46132017D01*
X71731609Y-46132017D02*
X71769704Y-46251064D01*
X71769704Y-46251064D02*
X71769704Y-46327255D01*
X71769704Y-46327255D02*
X71731609Y-46436779D01*
X71731609Y-46436779D02*
X71693514Y-46470112D01*
X70969704Y-46722493D02*
X71769704Y-46822493D01*
X70969704Y-47179636D02*
X71426847Y-46893921D01*
X71769704Y-47279636D02*
X71312561Y-46765350D01*
X71769704Y-47622493D02*
X71122085Y-47541540D01*
X71122085Y-47541540D02*
X71045895Y-47570112D01*
X71045895Y-47570112D02*
X71007800Y-47603445D01*
X71007800Y-47603445D02*
X70969704Y-47674874D01*
X70969704Y-47674874D02*
X70969704Y-47827255D01*
X70969704Y-47827255D02*
X71007800Y-47908207D01*
X71007800Y-47908207D02*
X71045895Y-47951064D01*
X71045895Y-47951064D02*
X71122085Y-47998683D01*
X71122085Y-47998683D02*
X71769704Y-48079636D01*
X70100752Y-45403445D02*
X70100752Y-45136779D01*
X69681704Y-45084398D02*
X70481704Y-45184398D01*
X70481704Y-45184398D02*
X70481704Y-45565350D01*
X69681704Y-45884398D02*
X69719800Y-45812969D01*
X69719800Y-45812969D02*
X69757895Y-45779636D01*
X69757895Y-45779636D02*
X69834085Y-45751064D01*
X69834085Y-45751064D02*
X70062657Y-45779636D01*
X70062657Y-45779636D02*
X70138847Y-45827255D01*
X70138847Y-45827255D02*
X70176942Y-45870112D01*
X70176942Y-45870112D02*
X70215038Y-45951064D01*
X70215038Y-45951064D02*
X70215038Y-46065350D01*
X70215038Y-46065350D02*
X70176942Y-46136778D01*
X70176942Y-46136778D02*
X70138847Y-46170112D01*
X70138847Y-46170112D02*
X70062657Y-46198683D01*
X70062657Y-46198683D02*
X69834085Y-46170112D01*
X69834085Y-46170112D02*
X69757895Y-46122493D01*
X69757895Y-46122493D02*
X69719800Y-46079636D01*
X69719800Y-46079636D02*
X69681704Y-45998683D01*
X69681704Y-45998683D02*
X69681704Y-45884398D01*
X69681704Y-46493922D02*
X70215038Y-46560588D01*
X70062657Y-46541541D02*
X70138847Y-46589160D01*
X70138847Y-46589160D02*
X70176942Y-46632017D01*
X70176942Y-46632017D02*
X70215038Y-46712969D01*
X70215038Y-46712969D02*
X70215038Y-46789160D01*
X69681704Y-46989160D02*
X70215038Y-47055826D01*
X70138847Y-47046303D02*
X70176942Y-47089160D01*
X70176942Y-47089160D02*
X70215038Y-47170112D01*
X70215038Y-47170112D02*
X70215038Y-47284398D01*
X70215038Y-47284398D02*
X70176942Y-47355826D01*
X70176942Y-47355826D02*
X70100752Y-47384398D01*
X70100752Y-47384398D02*
X69681704Y-47332017D01*
X70100752Y-47384398D02*
X70176942Y-47432017D01*
X70176942Y-47432017D02*
X70215038Y-47512969D01*
X70215038Y-47512969D02*
X70215038Y-47627255D01*
X70215038Y-47627255D02*
X70176942Y-47698684D01*
X70176942Y-47698684D02*
X70100752Y-47727255D01*
X70100752Y-47727255D02*
X69681704Y-47674874D01*
X70215038Y-48465351D02*
X69681704Y-48398684D01*
X70215038Y-48122493D02*
X69795990Y-48070113D01*
X69795990Y-48070113D02*
X69719800Y-48098684D01*
X69719800Y-48098684D02*
X69681704Y-48170113D01*
X69681704Y-48170113D02*
X69681704Y-48284398D01*
X69681704Y-48284398D02*
X69719800Y-48365351D01*
X69719800Y-48365351D02*
X69757895Y-48408208D01*
X69681704Y-48893923D02*
X69719800Y-48822494D01*
X69719800Y-48822494D02*
X69795990Y-48793923D01*
X69795990Y-48793923D02*
X70481704Y-48879637D01*
X69681704Y-49541542D02*
X70100752Y-49593923D01*
X70100752Y-49593923D02*
X70176942Y-49565351D01*
X70176942Y-49565351D02*
X70215038Y-49493923D01*
X70215038Y-49493923D02*
X70215038Y-49341542D01*
X70215038Y-49341542D02*
X70176942Y-49260590D01*
X69719800Y-49546304D02*
X69681704Y-49465351D01*
X69681704Y-49465351D02*
X69681704Y-49274875D01*
X69681704Y-49274875D02*
X69719800Y-49203447D01*
X69719800Y-49203447D02*
X69795990Y-49174875D01*
X69795990Y-49174875D02*
X69872180Y-49184399D01*
X69872180Y-49184399D02*
X69948371Y-49232018D01*
X69948371Y-49232018D02*
X69986466Y-49312971D01*
X69986466Y-49312971D02*
X69986466Y-49503447D01*
X69986466Y-49503447D02*
X70024561Y-49584399D01*
X69681704Y-50989162D02*
X70062657Y-50770114D01*
X69681704Y-50532019D02*
X70481704Y-50632019D01*
X70481704Y-50632019D02*
X70481704Y-50936781D01*
X70481704Y-50936781D02*
X70443609Y-51008209D01*
X70443609Y-51008209D02*
X70405514Y-51041543D01*
X70405514Y-51041543D02*
X70329323Y-51070114D01*
X70329323Y-51070114D02*
X70215038Y-51055828D01*
X70215038Y-51055828D02*
X70138847Y-51008209D01*
X70138847Y-51008209D02*
X70100752Y-50965352D01*
X70100752Y-50965352D02*
X70062657Y-50884400D01*
X70062657Y-50884400D02*
X70062657Y-50579638D01*
X69681704Y-51674876D02*
X70100752Y-51727257D01*
X70100752Y-51727257D02*
X70176942Y-51698685D01*
X70176942Y-51698685D02*
X70215038Y-51627257D01*
X70215038Y-51627257D02*
X70215038Y-51474876D01*
X70215038Y-51474876D02*
X70176942Y-51393924D01*
X69719800Y-51679638D02*
X69681704Y-51598685D01*
X69681704Y-51598685D02*
X69681704Y-51408209D01*
X69681704Y-51408209D02*
X69719800Y-51336781D01*
X69719800Y-51336781D02*
X69795990Y-51308209D01*
X69795990Y-51308209D02*
X69872180Y-51317733D01*
X69872180Y-51317733D02*
X69948371Y-51365352D01*
X69948371Y-51365352D02*
X69986466Y-51446305D01*
X69986466Y-51446305D02*
X69986466Y-51636781D01*
X69986466Y-51636781D02*
X70024561Y-51717733D01*
X69719800Y-52403448D02*
X69681704Y-52322495D01*
X69681704Y-52322495D02*
X69681704Y-52170115D01*
X69681704Y-52170115D02*
X69719800Y-52098686D01*
X69719800Y-52098686D02*
X69757895Y-52065353D01*
X69757895Y-52065353D02*
X69834085Y-52036781D01*
X69834085Y-52036781D02*
X70062657Y-52065353D01*
X70062657Y-52065353D02*
X70138847Y-52112972D01*
X70138847Y-52112972D02*
X70176942Y-52155829D01*
X70176942Y-52155829D02*
X70215038Y-52236781D01*
X70215038Y-52236781D02*
X70215038Y-52389162D01*
X70215038Y-52389162D02*
X70176942Y-52460591D01*
X69681704Y-52741543D02*
X70215038Y-52808209D01*
X70481704Y-52841543D02*
X70443609Y-52798686D01*
X70443609Y-52798686D02*
X70405514Y-52832019D01*
X70405514Y-52832019D02*
X70443609Y-52874876D01*
X70443609Y-52874876D02*
X70481704Y-52841543D01*
X70481704Y-52841543D02*
X70405514Y-52832019D01*
X70215038Y-53189161D02*
X69681704Y-53122495D01*
X70138847Y-53179638D02*
X70176942Y-53222495D01*
X70176942Y-53222495D02*
X70215038Y-53303447D01*
X70215038Y-53303447D02*
X70215038Y-53417733D01*
X70215038Y-53417733D02*
X70176942Y-53489161D01*
X70176942Y-53489161D02*
X70100752Y-53517733D01*
X70100752Y-53517733D02*
X69681704Y-53465352D01*
X70215038Y-54255829D02*
X69567419Y-54174876D01*
X69567419Y-54174876D02*
X69491228Y-54127257D01*
X69491228Y-54127257D02*
X69453133Y-54084400D01*
X69453133Y-54084400D02*
X69415038Y-54003448D01*
X69415038Y-54003448D02*
X69415038Y-53889162D01*
X69415038Y-53889162D02*
X69453133Y-53817733D01*
X69719800Y-54193924D02*
X69681704Y-54112971D01*
X69681704Y-54112971D02*
X69681704Y-53960591D01*
X69681704Y-53960591D02*
X69719800Y-53889162D01*
X69719800Y-53889162D02*
X69757895Y-53855829D01*
X69757895Y-53855829D02*
X69834085Y-53827257D01*
X69834085Y-53827257D02*
X70062657Y-53855829D01*
X70062657Y-53855829D02*
X70138847Y-53903448D01*
X70138847Y-53903448D02*
X70176942Y-53946305D01*
X70176942Y-53946305D02*
X70215038Y-54027257D01*
X70215038Y-54027257D02*
X70215038Y-54179638D01*
X70215038Y-54179638D02*
X70176942Y-54251067D01*
X68812752Y-45403445D02*
X68812752Y-45136779D01*
X68393704Y-45084398D02*
X69193704Y-45184398D01*
X69193704Y-45184398D02*
X69193704Y-45565350D01*
X68927038Y-46179636D02*
X68393704Y-46112969D01*
X68927038Y-45836778D02*
X68507990Y-45784398D01*
X68507990Y-45784398D02*
X68431800Y-45812969D01*
X68431800Y-45812969D02*
X68393704Y-45884398D01*
X68393704Y-45884398D02*
X68393704Y-45998683D01*
X68393704Y-45998683D02*
X68431800Y-46079636D01*
X68431800Y-46079636D02*
X68469895Y-46122493D01*
X68431800Y-46460588D02*
X68393704Y-46532017D01*
X68393704Y-46532017D02*
X68393704Y-46684398D01*
X68393704Y-46684398D02*
X68431800Y-46765350D01*
X68431800Y-46765350D02*
X68507990Y-46812969D01*
X68507990Y-46812969D02*
X68546085Y-46817731D01*
X68546085Y-46817731D02*
X68622276Y-46789160D01*
X68622276Y-46789160D02*
X68660371Y-46717731D01*
X68660371Y-46717731D02*
X68660371Y-46603446D01*
X68660371Y-46603446D02*
X68698466Y-46532017D01*
X68698466Y-46532017D02*
X68774657Y-46503446D01*
X68774657Y-46503446D02*
X68812752Y-46508208D01*
X68812752Y-46508208D02*
X68888942Y-46555827D01*
X68888942Y-46555827D02*
X68927038Y-46636779D01*
X68927038Y-46636779D02*
X68927038Y-46751065D01*
X68927038Y-46751065D02*
X68888942Y-46822493D01*
X68431800Y-47451065D02*
X68393704Y-47370112D01*
X68393704Y-47370112D02*
X68393704Y-47217731D01*
X68393704Y-47217731D02*
X68431800Y-47146303D01*
X68431800Y-47146303D02*
X68507990Y-47117731D01*
X68507990Y-47117731D02*
X68812752Y-47155827D01*
X68812752Y-47155827D02*
X68888942Y-47203446D01*
X68888942Y-47203446D02*
X68927038Y-47284398D01*
X68927038Y-47284398D02*
X68927038Y-47436779D01*
X68927038Y-47436779D02*
X68888942Y-47508207D01*
X68888942Y-47508207D02*
X68812752Y-47536779D01*
X68812752Y-47536779D02*
X68736561Y-47527255D01*
X68736561Y-47527255D02*
X68660371Y-47136779D01*
X68812752Y-48755826D02*
X68774657Y-48865350D01*
X68774657Y-48865350D02*
X68736561Y-48898684D01*
X68736561Y-48898684D02*
X68660371Y-48927255D01*
X68660371Y-48927255D02*
X68546085Y-48912969D01*
X68546085Y-48912969D02*
X68469895Y-48865350D01*
X68469895Y-48865350D02*
X68431800Y-48822493D01*
X68431800Y-48822493D02*
X68393704Y-48741541D01*
X68393704Y-48741541D02*
X68393704Y-48436779D01*
X68393704Y-48436779D02*
X69193704Y-48536779D01*
X69193704Y-48536779D02*
X69193704Y-48803445D01*
X69193704Y-48803445D02*
X69155609Y-48874874D01*
X69155609Y-48874874D02*
X69117514Y-48908207D01*
X69117514Y-48908207D02*
X69041323Y-48936779D01*
X69041323Y-48936779D02*
X68965133Y-48927255D01*
X68965133Y-48927255D02*
X68888942Y-48879636D01*
X68888942Y-48879636D02*
X68850847Y-48836779D01*
X68850847Y-48836779D02*
X68812752Y-48755826D01*
X68812752Y-48755826D02*
X68812752Y-48489160D01*
X68393704Y-49351065D02*
X68431800Y-49279636D01*
X68431800Y-49279636D02*
X68469895Y-49246303D01*
X68469895Y-49246303D02*
X68546085Y-49217731D01*
X68546085Y-49217731D02*
X68774657Y-49246303D01*
X68774657Y-49246303D02*
X68850847Y-49293922D01*
X68850847Y-49293922D02*
X68888942Y-49336779D01*
X68888942Y-49336779D02*
X68927038Y-49417731D01*
X68927038Y-49417731D02*
X68927038Y-49532017D01*
X68927038Y-49532017D02*
X68888942Y-49603445D01*
X68888942Y-49603445D02*
X68850847Y-49636779D01*
X68850847Y-49636779D02*
X68774657Y-49665350D01*
X68774657Y-49665350D02*
X68546085Y-49636779D01*
X68546085Y-49636779D02*
X68469895Y-49589160D01*
X68469895Y-49589160D02*
X68431800Y-49546303D01*
X68431800Y-49546303D02*
X68393704Y-49465350D01*
X68393704Y-49465350D02*
X68393704Y-49351065D01*
X68393704Y-49884398D02*
X68927038Y-50370113D01*
X68927038Y-49951065D02*
X68393704Y-50303446D01*
X67105704Y-45541541D02*
X67486657Y-45322493D01*
X67105704Y-45084398D02*
X67905704Y-45184398D01*
X67905704Y-45184398D02*
X67905704Y-45489160D01*
X67905704Y-45489160D02*
X67867609Y-45560588D01*
X67867609Y-45560588D02*
X67829514Y-45593922D01*
X67829514Y-45593922D02*
X67753323Y-45622493D01*
X67753323Y-45622493D02*
X67639038Y-45608207D01*
X67639038Y-45608207D02*
X67562847Y-45560588D01*
X67562847Y-45560588D02*
X67524752Y-45517731D01*
X67524752Y-45517731D02*
X67486657Y-45436779D01*
X67486657Y-45436779D02*
X67486657Y-45132017D01*
X67143800Y-46193922D02*
X67105704Y-46112969D01*
X67105704Y-46112969D02*
X67105704Y-45960588D01*
X67105704Y-45960588D02*
X67143800Y-45889160D01*
X67143800Y-45889160D02*
X67219990Y-45860588D01*
X67219990Y-45860588D02*
X67524752Y-45898684D01*
X67524752Y-45898684D02*
X67600942Y-45946303D01*
X67600942Y-45946303D02*
X67639038Y-46027255D01*
X67639038Y-46027255D02*
X67639038Y-46179636D01*
X67639038Y-46179636D02*
X67600942Y-46251064D01*
X67600942Y-46251064D02*
X67524752Y-46279636D01*
X67524752Y-46279636D02*
X67448561Y-46270112D01*
X67448561Y-46270112D02*
X67372371Y-45879636D01*
X67639038Y-46560588D02*
X67105704Y-46684398D01*
X67105704Y-46684398D02*
X67639038Y-46941540D01*
X67181895Y-47189160D02*
X67143800Y-47222493D01*
X67143800Y-47222493D02*
X67105704Y-47179636D01*
X67105704Y-47179636D02*
X67143800Y-47146302D01*
X67143800Y-47146302D02*
X67181895Y-47189160D01*
X67181895Y-47189160D02*
X67105704Y-47179636D01*
X67829514Y-48222493D02*
X67867609Y-48265350D01*
X67867609Y-48265350D02*
X67905704Y-48346302D01*
X67905704Y-48346302D02*
X67905704Y-48536778D01*
X67905704Y-48536778D02*
X67867609Y-48608207D01*
X67867609Y-48608207D02*
X67829514Y-48641540D01*
X67829514Y-48641540D02*
X67753323Y-48670112D01*
X67753323Y-48670112D02*
X67677133Y-48660588D01*
X67677133Y-48660588D02*
X67562847Y-48608207D01*
X67562847Y-48608207D02*
X67105704Y-48093921D01*
X67105704Y-48093921D02*
X67105704Y-48589159D01*
X67905704Y-49184398D02*
X67905704Y-49260588D01*
X67905704Y-49260588D02*
X67867609Y-49332017D01*
X67867609Y-49332017D02*
X67829514Y-49365350D01*
X67829514Y-49365350D02*
X67753323Y-49393922D01*
X67753323Y-49393922D02*
X67600942Y-49412969D01*
X67600942Y-49412969D02*
X67410466Y-49389160D01*
X67410466Y-49389160D02*
X67258085Y-49332017D01*
X67258085Y-49332017D02*
X67181895Y-49284398D01*
X67181895Y-49284398D02*
X67143800Y-49241541D01*
X67143800Y-49241541D02*
X67105704Y-49160588D01*
X67105704Y-49160588D02*
X67105704Y-49084398D01*
X67105704Y-49084398D02*
X67143800Y-49012969D01*
X67143800Y-49012969D02*
X67181895Y-48979636D01*
X67181895Y-48979636D02*
X67258085Y-48951064D01*
X67258085Y-48951064D02*
X67410466Y-48932017D01*
X67410466Y-48932017D02*
X67600942Y-48955826D01*
X67600942Y-48955826D02*
X67753323Y-49012969D01*
X67753323Y-49012969D02*
X67829514Y-49060588D01*
X67829514Y-49060588D02*
X67867609Y-49103445D01*
X67867609Y-49103445D02*
X67905704Y-49184398D01*
X67829514Y-49746303D02*
X67867609Y-49789160D01*
X67867609Y-49789160D02*
X67905704Y-49870112D01*
X67905704Y-49870112D02*
X67905704Y-50060588D01*
X67905704Y-50060588D02*
X67867609Y-50132017D01*
X67867609Y-50132017D02*
X67829514Y-50165350D01*
X67829514Y-50165350D02*
X67753323Y-50193922D01*
X67753323Y-50193922D02*
X67677133Y-50184398D01*
X67677133Y-50184398D02*
X67562847Y-50132017D01*
X67562847Y-50132017D02*
X67105704Y-49617731D01*
X67105704Y-49617731D02*
X67105704Y-50112969D01*
X67905704Y-50936779D02*
X67905704Y-50555827D01*
X67905704Y-50555827D02*
X67524752Y-50470113D01*
X67524752Y-50470113D02*
X67562847Y-50512970D01*
X67562847Y-50512970D02*
X67600942Y-50593922D01*
X67600942Y-50593922D02*
X67600942Y-50784398D01*
X67600942Y-50784398D02*
X67562847Y-50855827D01*
X67562847Y-50855827D02*
X67524752Y-50889160D01*
X67524752Y-50889160D02*
X67448561Y-50917732D01*
X67448561Y-50917732D02*
X67258085Y-50893922D01*
X67258085Y-50893922D02*
X67181895Y-50846303D01*
X67181895Y-50846303D02*
X67143800Y-50803446D01*
X67143800Y-50803446D02*
X67105704Y-50722493D01*
X67105704Y-50722493D02*
X67105704Y-50532017D01*
X67105704Y-50532017D02*
X67143800Y-50460589D01*
X67143800Y-50460589D02*
X67181895Y-50427255D01*
X67181895Y-51227256D02*
X67143800Y-51260589D01*
X67143800Y-51260589D02*
X67105704Y-51217732D01*
X67105704Y-51217732D02*
X67143800Y-51184398D01*
X67143800Y-51184398D02*
X67181895Y-51227256D01*
X67181895Y-51227256D02*
X67105704Y-51217732D01*
X67905704Y-51851065D02*
X67905704Y-51927255D01*
X67905704Y-51927255D02*
X67867609Y-51998684D01*
X67867609Y-51998684D02*
X67829514Y-52032017D01*
X67829514Y-52032017D02*
X67753323Y-52060589D01*
X67753323Y-52060589D02*
X67600942Y-52079636D01*
X67600942Y-52079636D02*
X67410466Y-52055827D01*
X67410466Y-52055827D02*
X67258085Y-51998684D01*
X67258085Y-51998684D02*
X67181895Y-51951065D01*
X67181895Y-51951065D02*
X67143800Y-51908208D01*
X67143800Y-51908208D02*
X67105704Y-51827255D01*
X67105704Y-51827255D02*
X67105704Y-51751065D01*
X67105704Y-51751065D02*
X67143800Y-51679636D01*
X67143800Y-51679636D02*
X67181895Y-51646303D01*
X67181895Y-51646303D02*
X67258085Y-51617731D01*
X67258085Y-51617731D02*
X67410466Y-51598684D01*
X67410466Y-51598684D02*
X67600942Y-51622493D01*
X67600942Y-51622493D02*
X67753323Y-51679636D01*
X67753323Y-51679636D02*
X67829514Y-51727255D01*
X67829514Y-51727255D02*
X67867609Y-51770112D01*
X67867609Y-51770112D02*
X67905704Y-51851065D01*
X67905704Y-52384398D02*
X67905704Y-52879636D01*
X67905704Y-52879636D02*
X67600942Y-52574875D01*
X67600942Y-52574875D02*
X67600942Y-52689160D01*
X67600942Y-52689160D02*
X67562847Y-52760589D01*
X67562847Y-52760589D02*
X67524752Y-52793922D01*
X67524752Y-52793922D02*
X67448561Y-52822494D01*
X67448561Y-52822494D02*
X67258085Y-52798684D01*
X67258085Y-52798684D02*
X67181895Y-52751065D01*
X67181895Y-52751065D02*
X67143800Y-52708208D01*
X67143800Y-52708208D02*
X67105704Y-52627255D01*
X67105704Y-52627255D02*
X67105704Y-52398684D01*
X67105704Y-52398684D02*
X67143800Y-52327255D01*
X67143800Y-52327255D02*
X67181895Y-52293922D01*
D10*
X92808533Y-83903884D02*
X92808533Y-84665789D01*
D11*
X123374405Y-80304819D02*
X123374405Y-79304819D01*
X123374405Y-79304819D02*
X123612500Y-79304819D01*
X123612500Y-79304819D02*
X123755357Y-79352438D01*
X123755357Y-79352438D02*
X123850595Y-79447676D01*
X123850595Y-79447676D02*
X123898214Y-79542914D01*
X123898214Y-79542914D02*
X123945833Y-79733390D01*
X123945833Y-79733390D02*
X123945833Y-79876247D01*
X123945833Y-79876247D02*
X123898214Y-80066723D01*
X123898214Y-80066723D02*
X123850595Y-80161961D01*
X123850595Y-80161961D02*
X123755357Y-80257200D01*
X123755357Y-80257200D02*
X123612500Y-80304819D01*
X123612500Y-80304819D02*
X123374405Y-80304819D01*
X124326786Y-79400057D02*
X124374405Y-79352438D01*
X124374405Y-79352438D02*
X124469643Y-79304819D01*
X124469643Y-79304819D02*
X124707738Y-79304819D01*
X124707738Y-79304819D02*
X124802976Y-79352438D01*
X124802976Y-79352438D02*
X124850595Y-79400057D01*
X124850595Y-79400057D02*
X124898214Y-79495295D01*
X124898214Y-79495295D02*
X124898214Y-79590533D01*
X124898214Y-79590533D02*
X124850595Y-79733390D01*
X124850595Y-79733390D02*
X124279167Y-80304819D01*
X124279167Y-80304819D02*
X124898214Y-80304819D01*
X96833333Y-48204819D02*
X96500000Y-47728628D01*
X96261905Y-48204819D02*
X96261905Y-47204819D01*
X96261905Y-47204819D02*
X96642857Y-47204819D01*
X96642857Y-47204819D02*
X96738095Y-47252438D01*
X96738095Y-47252438D02*
X96785714Y-47300057D01*
X96785714Y-47300057D02*
X96833333Y-47395295D01*
X96833333Y-47395295D02*
X96833333Y-47538152D01*
X96833333Y-47538152D02*
X96785714Y-47633390D01*
X96785714Y-47633390D02*
X96738095Y-47681009D01*
X96738095Y-47681009D02*
X96642857Y-47728628D01*
X96642857Y-47728628D02*
X96261905Y-47728628D01*
X97309524Y-48204819D02*
X97500000Y-48204819D01*
X97500000Y-48204819D02*
X97595238Y-48157200D01*
X97595238Y-48157200D02*
X97642857Y-48109580D01*
X97642857Y-48109580D02*
X97738095Y-47966723D01*
X97738095Y-47966723D02*
X97785714Y-47776247D01*
X97785714Y-47776247D02*
X97785714Y-47395295D01*
X97785714Y-47395295D02*
X97738095Y-47300057D01*
X97738095Y-47300057D02*
X97690476Y-47252438D01*
X97690476Y-47252438D02*
X97595238Y-47204819D01*
X97595238Y-47204819D02*
X97404762Y-47204819D01*
X97404762Y-47204819D02*
X97309524Y-47252438D01*
X97309524Y-47252438D02*
X97261905Y-47300057D01*
X97261905Y-47300057D02*
X97214286Y-47395295D01*
X97214286Y-47395295D02*
X97214286Y-47633390D01*
X97214286Y-47633390D02*
X97261905Y-47728628D01*
X97261905Y-47728628D02*
X97309524Y-47776247D01*
X97309524Y-47776247D02*
X97404762Y-47823866D01*
X97404762Y-47823866D02*
X97595238Y-47823866D01*
X97595238Y-47823866D02*
X97690476Y-47776247D01*
X97690476Y-47776247D02*
X97738095Y-47728628D01*
X97738095Y-47728628D02*
X97785714Y-47633390D01*
X82883333Y-80054819D02*
X82550000Y-79578628D01*
X82311905Y-80054819D02*
X82311905Y-79054819D01*
X82311905Y-79054819D02*
X82692857Y-79054819D01*
X82692857Y-79054819D02*
X82788095Y-79102438D01*
X82788095Y-79102438D02*
X82835714Y-79150057D01*
X82835714Y-79150057D02*
X82883333Y-79245295D01*
X82883333Y-79245295D02*
X82883333Y-79388152D01*
X82883333Y-79388152D02*
X82835714Y-79483390D01*
X82835714Y-79483390D02*
X82788095Y-79531009D01*
X82788095Y-79531009D02*
X82692857Y-79578628D01*
X82692857Y-79578628D02*
X82311905Y-79578628D01*
X83216667Y-79054819D02*
X83883333Y-79054819D01*
X83883333Y-79054819D02*
X83454762Y-80054819D01*
X109233333Y-54459580D02*
X109185714Y-54507200D01*
X109185714Y-54507200D02*
X109042857Y-54554819D01*
X109042857Y-54554819D02*
X108947619Y-54554819D01*
X108947619Y-54554819D02*
X108804762Y-54507200D01*
X108804762Y-54507200D02*
X108709524Y-54411961D01*
X108709524Y-54411961D02*
X108661905Y-54316723D01*
X108661905Y-54316723D02*
X108614286Y-54126247D01*
X108614286Y-54126247D02*
X108614286Y-53983390D01*
X108614286Y-53983390D02*
X108661905Y-53792914D01*
X108661905Y-53792914D02*
X108709524Y-53697676D01*
X108709524Y-53697676D02*
X108804762Y-53602438D01*
X108804762Y-53602438D02*
X108947619Y-53554819D01*
X108947619Y-53554819D02*
X109042857Y-53554819D01*
X109042857Y-53554819D02*
X109185714Y-53602438D01*
X109185714Y-53602438D02*
X109233333Y-53650057D01*
X110138095Y-53554819D02*
X109661905Y-53554819D01*
X109661905Y-53554819D02*
X109614286Y-54031009D01*
X109614286Y-54031009D02*
X109661905Y-53983390D01*
X109661905Y-53983390D02*
X109757143Y-53935771D01*
X109757143Y-53935771D02*
X109995238Y-53935771D01*
X109995238Y-53935771D02*
X110090476Y-53983390D01*
X110090476Y-53983390D02*
X110138095Y-54031009D01*
X110138095Y-54031009D02*
X110185714Y-54126247D01*
X110185714Y-54126247D02*
X110185714Y-54364342D01*
X110185714Y-54364342D02*
X110138095Y-54459580D01*
X110138095Y-54459580D02*
X110090476Y-54507200D01*
X110090476Y-54507200D02*
X109995238Y-54554819D01*
X109995238Y-54554819D02*
X109757143Y-54554819D01*
X109757143Y-54554819D02*
X109661905Y-54507200D01*
X109661905Y-54507200D02*
X109614286Y-54459580D01*
X128133333Y-80054819D02*
X127800000Y-79578628D01*
X127561905Y-80054819D02*
X127561905Y-79054819D01*
X127561905Y-79054819D02*
X127942857Y-79054819D01*
X127942857Y-79054819D02*
X128038095Y-79102438D01*
X128038095Y-79102438D02*
X128085714Y-79150057D01*
X128085714Y-79150057D02*
X128133333Y-79245295D01*
X128133333Y-79245295D02*
X128133333Y-79388152D01*
X128133333Y-79388152D02*
X128085714Y-79483390D01*
X128085714Y-79483390D02*
X128038095Y-79531009D01*
X128038095Y-79531009D02*
X127942857Y-79578628D01*
X127942857Y-79578628D02*
X127561905Y-79578628D01*
X129085714Y-80054819D02*
X128514286Y-80054819D01*
X128800000Y-80054819D02*
X128800000Y-79054819D01*
X128800000Y-79054819D02*
X128704762Y-79197676D01*
X128704762Y-79197676D02*
X128609524Y-79292914D01*
X128609524Y-79292914D02*
X128514286Y-79340533D01*
X67407142Y-79804819D02*
X67073809Y-79328628D01*
X66835714Y-79804819D02*
X66835714Y-78804819D01*
X66835714Y-78804819D02*
X67216666Y-78804819D01*
X67216666Y-78804819D02*
X67311904Y-78852438D01*
X67311904Y-78852438D02*
X67359523Y-78900057D01*
X67359523Y-78900057D02*
X67407142Y-78995295D01*
X67407142Y-78995295D02*
X67407142Y-79138152D01*
X67407142Y-79138152D02*
X67359523Y-79233390D01*
X67359523Y-79233390D02*
X67311904Y-79281009D01*
X67311904Y-79281009D02*
X67216666Y-79328628D01*
X67216666Y-79328628D02*
X66835714Y-79328628D01*
X68359523Y-79804819D02*
X67788095Y-79804819D01*
X68073809Y-79804819D02*
X68073809Y-78804819D01*
X68073809Y-78804819D02*
X67978571Y-78947676D01*
X67978571Y-78947676D02*
X67883333Y-79042914D01*
X67883333Y-79042914D02*
X67788095Y-79090533D01*
X69311904Y-79804819D02*
X68740476Y-79804819D01*
X69026190Y-79804819D02*
X69026190Y-78804819D01*
X69026190Y-78804819D02*
X68930952Y-78947676D01*
X68930952Y-78947676D02*
X68835714Y-79042914D01*
X68835714Y-79042914D02*
X68740476Y-79090533D01*
X85749405Y-80054819D02*
X85749405Y-79054819D01*
X85749405Y-79054819D02*
X85987500Y-79054819D01*
X85987500Y-79054819D02*
X86130357Y-79102438D01*
X86130357Y-79102438D02*
X86225595Y-79197676D01*
X86225595Y-79197676D02*
X86273214Y-79292914D01*
X86273214Y-79292914D02*
X86320833Y-79483390D01*
X86320833Y-79483390D02*
X86320833Y-79626247D01*
X86320833Y-79626247D02*
X86273214Y-79816723D01*
X86273214Y-79816723D02*
X86225595Y-79911961D01*
X86225595Y-79911961D02*
X86130357Y-80007200D01*
X86130357Y-80007200D02*
X85987500Y-80054819D01*
X85987500Y-80054819D02*
X85749405Y-80054819D01*
X86654167Y-79054819D02*
X87320833Y-79054819D01*
X87320833Y-79054819D02*
X86892262Y-80054819D01*
X78311905Y-80054819D02*
X78311905Y-79054819D01*
X78311905Y-79054819D02*
X78550000Y-79054819D01*
X78550000Y-79054819D02*
X78692857Y-79102438D01*
X78692857Y-79102438D02*
X78788095Y-79197676D01*
X78788095Y-79197676D02*
X78835714Y-79292914D01*
X78835714Y-79292914D02*
X78883333Y-79483390D01*
X78883333Y-79483390D02*
X78883333Y-79626247D01*
X78883333Y-79626247D02*
X78835714Y-79816723D01*
X78835714Y-79816723D02*
X78788095Y-79911961D01*
X78788095Y-79911961D02*
X78692857Y-80007200D01*
X78692857Y-80007200D02*
X78550000Y-80054819D01*
X78550000Y-80054819D02*
X78311905Y-80054819D01*
X79454762Y-79483390D02*
X79359524Y-79435771D01*
X79359524Y-79435771D02*
X79311905Y-79388152D01*
X79311905Y-79388152D02*
X79264286Y-79292914D01*
X79264286Y-79292914D02*
X79264286Y-79245295D01*
X79264286Y-79245295D02*
X79311905Y-79150057D01*
X79311905Y-79150057D02*
X79359524Y-79102438D01*
X79359524Y-79102438D02*
X79454762Y-79054819D01*
X79454762Y-79054819D02*
X79645238Y-79054819D01*
X79645238Y-79054819D02*
X79740476Y-79102438D01*
X79740476Y-79102438D02*
X79788095Y-79150057D01*
X79788095Y-79150057D02*
X79835714Y-79245295D01*
X79835714Y-79245295D02*
X79835714Y-79292914D01*
X79835714Y-79292914D02*
X79788095Y-79388152D01*
X79788095Y-79388152D02*
X79740476Y-79435771D01*
X79740476Y-79435771D02*
X79645238Y-79483390D01*
X79645238Y-79483390D02*
X79454762Y-79483390D01*
X79454762Y-79483390D02*
X79359524Y-79531009D01*
X79359524Y-79531009D02*
X79311905Y-79578628D01*
X79311905Y-79578628D02*
X79264286Y-79673866D01*
X79264286Y-79673866D02*
X79264286Y-79864342D01*
X79264286Y-79864342D02*
X79311905Y-79959580D01*
X79311905Y-79959580D02*
X79359524Y-80007200D01*
X79359524Y-80007200D02*
X79454762Y-80054819D01*
X79454762Y-80054819D02*
X79645238Y-80054819D01*
X79645238Y-80054819D02*
X79740476Y-80007200D01*
X79740476Y-80007200D02*
X79788095Y-79959580D01*
X79788095Y-79959580D02*
X79835714Y-79864342D01*
X79835714Y-79864342D02*
X79835714Y-79673866D01*
X79835714Y-79673866D02*
X79788095Y-79578628D01*
X79788095Y-79578628D02*
X79740476Y-79531009D01*
X79740476Y-79531009D02*
X79645238Y-79483390D01*
X100357142Y-45054819D02*
X100023809Y-44578628D01*
X99785714Y-45054819D02*
X99785714Y-44054819D01*
X99785714Y-44054819D02*
X100166666Y-44054819D01*
X100166666Y-44054819D02*
X100261904Y-44102438D01*
X100261904Y-44102438D02*
X100309523Y-44150057D01*
X100309523Y-44150057D02*
X100357142Y-44245295D01*
X100357142Y-44245295D02*
X100357142Y-44388152D01*
X100357142Y-44388152D02*
X100309523Y-44483390D01*
X100309523Y-44483390D02*
X100261904Y-44531009D01*
X100261904Y-44531009D02*
X100166666Y-44578628D01*
X100166666Y-44578628D02*
X99785714Y-44578628D01*
X101309523Y-45054819D02*
X100738095Y-45054819D01*
X101023809Y-45054819D02*
X101023809Y-44054819D01*
X101023809Y-44054819D02*
X100928571Y-44197676D01*
X100928571Y-44197676D02*
X100833333Y-44292914D01*
X100833333Y-44292914D02*
X100738095Y-44340533D01*
X101928571Y-44054819D02*
X102023809Y-44054819D01*
X102023809Y-44054819D02*
X102119047Y-44102438D01*
X102119047Y-44102438D02*
X102166666Y-44150057D01*
X102166666Y-44150057D02*
X102214285Y-44245295D01*
X102214285Y-44245295D02*
X102261904Y-44435771D01*
X102261904Y-44435771D02*
X102261904Y-44673866D01*
X102261904Y-44673866D02*
X102214285Y-44864342D01*
X102214285Y-44864342D02*
X102166666Y-44959580D01*
X102166666Y-44959580D02*
X102119047Y-45007200D01*
X102119047Y-45007200D02*
X102023809Y-45054819D01*
X102023809Y-45054819D02*
X101928571Y-45054819D01*
X101928571Y-45054819D02*
X101833333Y-45007200D01*
X101833333Y-45007200D02*
X101785714Y-44959580D01*
X101785714Y-44959580D02*
X101738095Y-44864342D01*
X101738095Y-44864342D02*
X101690476Y-44673866D01*
X101690476Y-44673866D02*
X101690476Y-44435771D01*
X101690476Y-44435771D02*
X101738095Y-44245295D01*
X101738095Y-44245295D02*
X101785714Y-44150057D01*
X101785714Y-44150057D02*
X101833333Y-44102438D01*
X101833333Y-44102438D02*
X101928571Y-44054819D01*
X108833333Y-47654819D02*
X108357143Y-47654819D01*
X108357143Y-47654819D02*
X108357143Y-46654819D01*
X109690476Y-47654819D02*
X109119048Y-47654819D01*
X109404762Y-47654819D02*
X109404762Y-46654819D01*
X109404762Y-46654819D02*
X109309524Y-46797676D01*
X109309524Y-46797676D02*
X109214286Y-46892914D01*
X109214286Y-46892914D02*
X109119048Y-46940533D01*
X100811905Y-80054819D02*
X100811905Y-79054819D01*
X100811905Y-79054819D02*
X101050000Y-79054819D01*
X101050000Y-79054819D02*
X101192857Y-79102438D01*
X101192857Y-79102438D02*
X101288095Y-79197676D01*
X101288095Y-79197676D02*
X101335714Y-79292914D01*
X101335714Y-79292914D02*
X101383333Y-79483390D01*
X101383333Y-79483390D02*
X101383333Y-79626247D01*
X101383333Y-79626247D02*
X101335714Y-79816723D01*
X101335714Y-79816723D02*
X101288095Y-79911961D01*
X101288095Y-79911961D02*
X101192857Y-80007200D01*
X101192857Y-80007200D02*
X101050000Y-80054819D01*
X101050000Y-80054819D02*
X100811905Y-80054819D01*
X102288095Y-79054819D02*
X101811905Y-79054819D01*
X101811905Y-79054819D02*
X101764286Y-79531009D01*
X101764286Y-79531009D02*
X101811905Y-79483390D01*
X101811905Y-79483390D02*
X101907143Y-79435771D01*
X101907143Y-79435771D02*
X102145238Y-79435771D01*
X102145238Y-79435771D02*
X102240476Y-79483390D01*
X102240476Y-79483390D02*
X102288095Y-79531009D01*
X102288095Y-79531009D02*
X102335714Y-79626247D01*
X102335714Y-79626247D02*
X102335714Y-79864342D01*
X102335714Y-79864342D02*
X102288095Y-79959580D01*
X102288095Y-79959580D02*
X102240476Y-80007200D01*
X102240476Y-80007200D02*
X102145238Y-80054819D01*
X102145238Y-80054819D02*
X101907143Y-80054819D01*
X101907143Y-80054819D02*
X101811905Y-80007200D01*
X101811905Y-80007200D02*
X101764286Y-79959580D01*
X102833333Y-54359580D02*
X102785714Y-54407200D01*
X102785714Y-54407200D02*
X102642857Y-54454819D01*
X102642857Y-54454819D02*
X102547619Y-54454819D01*
X102547619Y-54454819D02*
X102404762Y-54407200D01*
X102404762Y-54407200D02*
X102309524Y-54311961D01*
X102309524Y-54311961D02*
X102261905Y-54216723D01*
X102261905Y-54216723D02*
X102214286Y-54026247D01*
X102214286Y-54026247D02*
X102214286Y-53883390D01*
X102214286Y-53883390D02*
X102261905Y-53692914D01*
X102261905Y-53692914D02*
X102309524Y-53597676D01*
X102309524Y-53597676D02*
X102404762Y-53502438D01*
X102404762Y-53502438D02*
X102547619Y-53454819D01*
X102547619Y-53454819D02*
X102642857Y-53454819D01*
X102642857Y-53454819D02*
X102785714Y-53502438D01*
X102785714Y-53502438D02*
X102833333Y-53550057D01*
X103785714Y-54454819D02*
X103214286Y-54454819D01*
X103500000Y-54454819D02*
X103500000Y-53454819D01*
X103500000Y-53454819D02*
X103404762Y-53597676D01*
X103404762Y-53597676D02*
X103309524Y-53692914D01*
X103309524Y-53692914D02*
X103214286Y-53740533D01*
X97883333Y-79804819D02*
X97550000Y-79328628D01*
X97311905Y-79804819D02*
X97311905Y-78804819D01*
X97311905Y-78804819D02*
X97692857Y-78804819D01*
X97692857Y-78804819D02*
X97788095Y-78852438D01*
X97788095Y-78852438D02*
X97835714Y-78900057D01*
X97835714Y-78900057D02*
X97883333Y-78995295D01*
X97883333Y-78995295D02*
X97883333Y-79138152D01*
X97883333Y-79138152D02*
X97835714Y-79233390D01*
X97835714Y-79233390D02*
X97788095Y-79281009D01*
X97788095Y-79281009D02*
X97692857Y-79328628D01*
X97692857Y-79328628D02*
X97311905Y-79328628D01*
X98788095Y-78804819D02*
X98311905Y-78804819D01*
X98311905Y-78804819D02*
X98264286Y-79281009D01*
X98264286Y-79281009D02*
X98311905Y-79233390D01*
X98311905Y-79233390D02*
X98407143Y-79185771D01*
X98407143Y-79185771D02*
X98645238Y-79185771D01*
X98645238Y-79185771D02*
X98740476Y-79233390D01*
X98740476Y-79233390D02*
X98788095Y-79281009D01*
X98788095Y-79281009D02*
X98835714Y-79376247D01*
X98835714Y-79376247D02*
X98835714Y-79614342D01*
X98835714Y-79614342D02*
X98788095Y-79709580D01*
X98788095Y-79709580D02*
X98740476Y-79757200D01*
X98740476Y-79757200D02*
X98645238Y-79804819D01*
X98645238Y-79804819D02*
X98407143Y-79804819D01*
X98407143Y-79804819D02*
X98311905Y-79757200D01*
X98311905Y-79757200D02*
X98264286Y-79709580D01*
X130874405Y-80304819D02*
X130874405Y-79304819D01*
X130874405Y-79304819D02*
X131112500Y-79304819D01*
X131112500Y-79304819D02*
X131255357Y-79352438D01*
X131255357Y-79352438D02*
X131350595Y-79447676D01*
X131350595Y-79447676D02*
X131398214Y-79542914D01*
X131398214Y-79542914D02*
X131445833Y-79733390D01*
X131445833Y-79733390D02*
X131445833Y-79876247D01*
X131445833Y-79876247D02*
X131398214Y-80066723D01*
X131398214Y-80066723D02*
X131350595Y-80161961D01*
X131350595Y-80161961D02*
X131255357Y-80257200D01*
X131255357Y-80257200D02*
X131112500Y-80304819D01*
X131112500Y-80304819D02*
X130874405Y-80304819D01*
X132398214Y-80304819D02*
X131826786Y-80304819D01*
X132112500Y-80304819D02*
X132112500Y-79304819D01*
X132112500Y-79304819D02*
X132017262Y-79447676D01*
X132017262Y-79447676D02*
X131922024Y-79542914D01*
X131922024Y-79542914D02*
X131826786Y-79590533D01*
X105738095Y-47954819D02*
X105738095Y-48764342D01*
X105738095Y-48764342D02*
X105785714Y-48859580D01*
X105785714Y-48859580D02*
X105833333Y-48907200D01*
X105833333Y-48907200D02*
X105928571Y-48954819D01*
X105928571Y-48954819D02*
X106119047Y-48954819D01*
X106119047Y-48954819D02*
X106214285Y-48907200D01*
X106214285Y-48907200D02*
X106261904Y-48859580D01*
X106261904Y-48859580D02*
X106309523Y-48764342D01*
X106309523Y-48764342D02*
X106309523Y-47954819D01*
X107309523Y-48954819D02*
X106738095Y-48954819D01*
X107023809Y-48954819D02*
X107023809Y-47954819D01*
X107023809Y-47954819D02*
X106928571Y-48097676D01*
X106928571Y-48097676D02*
X106833333Y-48192914D01*
X106833333Y-48192914D02*
X106738095Y-48240533D01*
X75383333Y-80054819D02*
X75050000Y-79578628D01*
X74811905Y-80054819D02*
X74811905Y-79054819D01*
X74811905Y-79054819D02*
X75192857Y-79054819D01*
X75192857Y-79054819D02*
X75288095Y-79102438D01*
X75288095Y-79102438D02*
X75335714Y-79150057D01*
X75335714Y-79150057D02*
X75383333Y-79245295D01*
X75383333Y-79245295D02*
X75383333Y-79388152D01*
X75383333Y-79388152D02*
X75335714Y-79483390D01*
X75335714Y-79483390D02*
X75288095Y-79531009D01*
X75288095Y-79531009D02*
X75192857Y-79578628D01*
X75192857Y-79578628D02*
X74811905Y-79578628D01*
X75954762Y-79483390D02*
X75859524Y-79435771D01*
X75859524Y-79435771D02*
X75811905Y-79388152D01*
X75811905Y-79388152D02*
X75764286Y-79292914D01*
X75764286Y-79292914D02*
X75764286Y-79245295D01*
X75764286Y-79245295D02*
X75811905Y-79150057D01*
X75811905Y-79150057D02*
X75859524Y-79102438D01*
X75859524Y-79102438D02*
X75954762Y-79054819D01*
X75954762Y-79054819D02*
X76145238Y-79054819D01*
X76145238Y-79054819D02*
X76240476Y-79102438D01*
X76240476Y-79102438D02*
X76288095Y-79150057D01*
X76288095Y-79150057D02*
X76335714Y-79245295D01*
X76335714Y-79245295D02*
X76335714Y-79292914D01*
X76335714Y-79292914D02*
X76288095Y-79388152D01*
X76288095Y-79388152D02*
X76240476Y-79435771D01*
X76240476Y-79435771D02*
X76145238Y-79483390D01*
X76145238Y-79483390D02*
X75954762Y-79483390D01*
X75954762Y-79483390D02*
X75859524Y-79531009D01*
X75859524Y-79531009D02*
X75811905Y-79578628D01*
X75811905Y-79578628D02*
X75764286Y-79673866D01*
X75764286Y-79673866D02*
X75764286Y-79864342D01*
X75764286Y-79864342D02*
X75811905Y-79959580D01*
X75811905Y-79959580D02*
X75859524Y-80007200D01*
X75859524Y-80007200D02*
X75954762Y-80054819D01*
X75954762Y-80054819D02*
X76145238Y-80054819D01*
X76145238Y-80054819D02*
X76240476Y-80007200D01*
X76240476Y-80007200D02*
X76288095Y-79959580D01*
X76288095Y-79959580D02*
X76335714Y-79864342D01*
X76335714Y-79864342D02*
X76335714Y-79673866D01*
X76335714Y-79673866D02*
X76288095Y-79578628D01*
X76288095Y-79578628D02*
X76240476Y-79531009D01*
X76240476Y-79531009D02*
X76145238Y-79483390D01*
X93311905Y-80054819D02*
X93311905Y-79054819D01*
X93311905Y-79054819D02*
X93550000Y-79054819D01*
X93550000Y-79054819D02*
X93692857Y-79102438D01*
X93692857Y-79102438D02*
X93788095Y-79197676D01*
X93788095Y-79197676D02*
X93835714Y-79292914D01*
X93835714Y-79292914D02*
X93883333Y-79483390D01*
X93883333Y-79483390D02*
X93883333Y-79626247D01*
X93883333Y-79626247D02*
X93835714Y-79816723D01*
X93835714Y-79816723D02*
X93788095Y-79911961D01*
X93788095Y-79911961D02*
X93692857Y-80007200D01*
X93692857Y-80007200D02*
X93550000Y-80054819D01*
X93550000Y-80054819D02*
X93311905Y-80054819D01*
X94740476Y-79054819D02*
X94550000Y-79054819D01*
X94550000Y-79054819D02*
X94454762Y-79102438D01*
X94454762Y-79102438D02*
X94407143Y-79150057D01*
X94407143Y-79150057D02*
X94311905Y-79292914D01*
X94311905Y-79292914D02*
X94264286Y-79483390D01*
X94264286Y-79483390D02*
X94264286Y-79864342D01*
X94264286Y-79864342D02*
X94311905Y-79959580D01*
X94311905Y-79959580D02*
X94359524Y-80007200D01*
X94359524Y-80007200D02*
X94454762Y-80054819D01*
X94454762Y-80054819D02*
X94645238Y-80054819D01*
X94645238Y-80054819D02*
X94740476Y-80007200D01*
X94740476Y-80007200D02*
X94788095Y-79959580D01*
X94788095Y-79959580D02*
X94835714Y-79864342D01*
X94835714Y-79864342D02*
X94835714Y-79626247D01*
X94835714Y-79626247D02*
X94788095Y-79531009D01*
X94788095Y-79531009D02*
X94740476Y-79483390D01*
X94740476Y-79483390D02*
X94645238Y-79435771D01*
X94645238Y-79435771D02*
X94454762Y-79435771D01*
X94454762Y-79435771D02*
X94359524Y-79483390D01*
X94359524Y-79483390D02*
X94311905Y-79531009D01*
X94311905Y-79531009D02*
X94264286Y-79626247D01*
X113058333Y-80054819D02*
X112725000Y-79578628D01*
X112486905Y-80054819D02*
X112486905Y-79054819D01*
X112486905Y-79054819D02*
X112867857Y-79054819D01*
X112867857Y-79054819D02*
X112963095Y-79102438D01*
X112963095Y-79102438D02*
X113010714Y-79150057D01*
X113010714Y-79150057D02*
X113058333Y-79245295D01*
X113058333Y-79245295D02*
X113058333Y-79388152D01*
X113058333Y-79388152D02*
X113010714Y-79483390D01*
X113010714Y-79483390D02*
X112963095Y-79531009D01*
X112963095Y-79531009D02*
X112867857Y-79578628D01*
X112867857Y-79578628D02*
X112486905Y-79578628D01*
X113391667Y-79054819D02*
X114010714Y-79054819D01*
X114010714Y-79054819D02*
X113677381Y-79435771D01*
X113677381Y-79435771D02*
X113820238Y-79435771D01*
X113820238Y-79435771D02*
X113915476Y-79483390D01*
X113915476Y-79483390D02*
X113963095Y-79531009D01*
X113963095Y-79531009D02*
X114010714Y-79626247D01*
X114010714Y-79626247D02*
X114010714Y-79864342D01*
X114010714Y-79864342D02*
X113963095Y-79959580D01*
X113963095Y-79959580D02*
X113915476Y-80007200D01*
X113915476Y-80007200D02*
X113820238Y-80054819D01*
X113820238Y-80054819D02*
X113534524Y-80054819D01*
X113534524Y-80054819D02*
X113439286Y-80007200D01*
X113439286Y-80007200D02*
X113391667Y-79959580D01*
X120558333Y-80304819D02*
X120225000Y-79828628D01*
X119986905Y-80304819D02*
X119986905Y-79304819D01*
X119986905Y-79304819D02*
X120367857Y-79304819D01*
X120367857Y-79304819D02*
X120463095Y-79352438D01*
X120463095Y-79352438D02*
X120510714Y-79400057D01*
X120510714Y-79400057D02*
X120558333Y-79495295D01*
X120558333Y-79495295D02*
X120558333Y-79638152D01*
X120558333Y-79638152D02*
X120510714Y-79733390D01*
X120510714Y-79733390D02*
X120463095Y-79781009D01*
X120463095Y-79781009D02*
X120367857Y-79828628D01*
X120367857Y-79828628D02*
X119986905Y-79828628D01*
X120939286Y-79400057D02*
X120986905Y-79352438D01*
X120986905Y-79352438D02*
X121082143Y-79304819D01*
X121082143Y-79304819D02*
X121320238Y-79304819D01*
X121320238Y-79304819D02*
X121415476Y-79352438D01*
X121415476Y-79352438D02*
X121463095Y-79400057D01*
X121463095Y-79400057D02*
X121510714Y-79495295D01*
X121510714Y-79495295D02*
X121510714Y-79590533D01*
X121510714Y-79590533D02*
X121463095Y-79733390D01*
X121463095Y-79733390D02*
X120891667Y-80304819D01*
X120891667Y-80304819D02*
X121510714Y-80304819D01*
X109233333Y-52359580D02*
X109185714Y-52407200D01*
X109185714Y-52407200D02*
X109042857Y-52454819D01*
X109042857Y-52454819D02*
X108947619Y-52454819D01*
X108947619Y-52454819D02*
X108804762Y-52407200D01*
X108804762Y-52407200D02*
X108709524Y-52311961D01*
X108709524Y-52311961D02*
X108661905Y-52216723D01*
X108661905Y-52216723D02*
X108614286Y-52026247D01*
X108614286Y-52026247D02*
X108614286Y-51883390D01*
X108614286Y-51883390D02*
X108661905Y-51692914D01*
X108661905Y-51692914D02*
X108709524Y-51597676D01*
X108709524Y-51597676D02*
X108804762Y-51502438D01*
X108804762Y-51502438D02*
X108947619Y-51454819D01*
X108947619Y-51454819D02*
X109042857Y-51454819D01*
X109042857Y-51454819D02*
X109185714Y-51502438D01*
X109185714Y-51502438D02*
X109233333Y-51550057D01*
X110090476Y-51788152D02*
X110090476Y-52454819D01*
X109852381Y-51407200D02*
X109614286Y-52121485D01*
X109614286Y-52121485D02*
X110233333Y-52121485D01*
X115874405Y-80054819D02*
X115874405Y-79054819D01*
X115874405Y-79054819D02*
X116112500Y-79054819D01*
X116112500Y-79054819D02*
X116255357Y-79102438D01*
X116255357Y-79102438D02*
X116350595Y-79197676D01*
X116350595Y-79197676D02*
X116398214Y-79292914D01*
X116398214Y-79292914D02*
X116445833Y-79483390D01*
X116445833Y-79483390D02*
X116445833Y-79626247D01*
X116445833Y-79626247D02*
X116398214Y-79816723D01*
X116398214Y-79816723D02*
X116350595Y-79911961D01*
X116350595Y-79911961D02*
X116255357Y-80007200D01*
X116255357Y-80007200D02*
X116112500Y-80054819D01*
X116112500Y-80054819D02*
X115874405Y-80054819D01*
X116779167Y-79054819D02*
X117398214Y-79054819D01*
X117398214Y-79054819D02*
X117064881Y-79435771D01*
X117064881Y-79435771D02*
X117207738Y-79435771D01*
X117207738Y-79435771D02*
X117302976Y-79483390D01*
X117302976Y-79483390D02*
X117350595Y-79531009D01*
X117350595Y-79531009D02*
X117398214Y-79626247D01*
X117398214Y-79626247D02*
X117398214Y-79864342D01*
X117398214Y-79864342D02*
X117350595Y-79959580D01*
X117350595Y-79959580D02*
X117302976Y-80007200D01*
X117302976Y-80007200D02*
X117207738Y-80054819D01*
X117207738Y-80054819D02*
X116922024Y-80054819D01*
X116922024Y-80054819D02*
X116826786Y-80007200D01*
X116826786Y-80007200D02*
X116779167Y-79959580D01*
X90383333Y-80054819D02*
X90050000Y-79578628D01*
X89811905Y-80054819D02*
X89811905Y-79054819D01*
X89811905Y-79054819D02*
X90192857Y-79054819D01*
X90192857Y-79054819D02*
X90288095Y-79102438D01*
X90288095Y-79102438D02*
X90335714Y-79150057D01*
X90335714Y-79150057D02*
X90383333Y-79245295D01*
X90383333Y-79245295D02*
X90383333Y-79388152D01*
X90383333Y-79388152D02*
X90335714Y-79483390D01*
X90335714Y-79483390D02*
X90288095Y-79531009D01*
X90288095Y-79531009D02*
X90192857Y-79578628D01*
X90192857Y-79578628D02*
X89811905Y-79578628D01*
X91240476Y-79054819D02*
X91050000Y-79054819D01*
X91050000Y-79054819D02*
X90954762Y-79102438D01*
X90954762Y-79102438D02*
X90907143Y-79150057D01*
X90907143Y-79150057D02*
X90811905Y-79292914D01*
X90811905Y-79292914D02*
X90764286Y-79483390D01*
X90764286Y-79483390D02*
X90764286Y-79864342D01*
X90764286Y-79864342D02*
X90811905Y-79959580D01*
X90811905Y-79959580D02*
X90859524Y-80007200D01*
X90859524Y-80007200D02*
X90954762Y-80054819D01*
X90954762Y-80054819D02*
X91145238Y-80054819D01*
X91145238Y-80054819D02*
X91240476Y-80007200D01*
X91240476Y-80007200D02*
X91288095Y-79959580D01*
X91288095Y-79959580D02*
X91335714Y-79864342D01*
X91335714Y-79864342D02*
X91335714Y-79626247D01*
X91335714Y-79626247D02*
X91288095Y-79531009D01*
X91288095Y-79531009D02*
X91240476Y-79483390D01*
X91240476Y-79483390D02*
X91145238Y-79435771D01*
X91145238Y-79435771D02*
X90954762Y-79435771D01*
X90954762Y-79435771D02*
X90859524Y-79483390D01*
X90859524Y-79483390D02*
X90811905Y-79531009D01*
X90811905Y-79531009D02*
X90764286Y-79626247D01*
X104433333Y-43559580D02*
X104385714Y-43607200D01*
X104385714Y-43607200D02*
X104242857Y-43654819D01*
X104242857Y-43654819D02*
X104147619Y-43654819D01*
X104147619Y-43654819D02*
X104004762Y-43607200D01*
X104004762Y-43607200D02*
X103909524Y-43511961D01*
X103909524Y-43511961D02*
X103861905Y-43416723D01*
X103861905Y-43416723D02*
X103814286Y-43226247D01*
X103814286Y-43226247D02*
X103814286Y-43083390D01*
X103814286Y-43083390D02*
X103861905Y-42892914D01*
X103861905Y-42892914D02*
X103909524Y-42797676D01*
X103909524Y-42797676D02*
X104004762Y-42702438D01*
X104004762Y-42702438D02*
X104147619Y-42654819D01*
X104147619Y-42654819D02*
X104242857Y-42654819D01*
X104242857Y-42654819D02*
X104385714Y-42702438D01*
X104385714Y-42702438D02*
X104433333Y-42750057D01*
X104814286Y-42750057D02*
X104861905Y-42702438D01*
X104861905Y-42702438D02*
X104957143Y-42654819D01*
X104957143Y-42654819D02*
X105195238Y-42654819D01*
X105195238Y-42654819D02*
X105290476Y-42702438D01*
X105290476Y-42702438D02*
X105338095Y-42750057D01*
X105338095Y-42750057D02*
X105385714Y-42845295D01*
X105385714Y-42845295D02*
X105385714Y-42940533D01*
X105385714Y-42940533D02*
X105338095Y-43083390D01*
X105338095Y-43083390D02*
X104766667Y-43654819D01*
X104766667Y-43654819D02*
X105385714Y-43654819D01*
X108374405Y-80054819D02*
X108374405Y-79054819D01*
X108374405Y-79054819D02*
X108612500Y-79054819D01*
X108612500Y-79054819D02*
X108755357Y-79102438D01*
X108755357Y-79102438D02*
X108850595Y-79197676D01*
X108850595Y-79197676D02*
X108898214Y-79292914D01*
X108898214Y-79292914D02*
X108945833Y-79483390D01*
X108945833Y-79483390D02*
X108945833Y-79626247D01*
X108945833Y-79626247D02*
X108898214Y-79816723D01*
X108898214Y-79816723D02*
X108850595Y-79911961D01*
X108850595Y-79911961D02*
X108755357Y-80007200D01*
X108755357Y-80007200D02*
X108612500Y-80054819D01*
X108612500Y-80054819D02*
X108374405Y-80054819D01*
X109802976Y-79388152D02*
X109802976Y-80054819D01*
X109564881Y-79007200D02*
X109326786Y-79721485D01*
X109326786Y-79721485D02*
X109945833Y-79721485D01*
X95333333Y-46359580D02*
X95285714Y-46407200D01*
X95285714Y-46407200D02*
X95142857Y-46454819D01*
X95142857Y-46454819D02*
X95047619Y-46454819D01*
X95047619Y-46454819D02*
X94904762Y-46407200D01*
X94904762Y-46407200D02*
X94809524Y-46311961D01*
X94809524Y-46311961D02*
X94761905Y-46216723D01*
X94761905Y-46216723D02*
X94714286Y-46026247D01*
X94714286Y-46026247D02*
X94714286Y-45883390D01*
X94714286Y-45883390D02*
X94761905Y-45692914D01*
X94761905Y-45692914D02*
X94809524Y-45597676D01*
X94809524Y-45597676D02*
X94904762Y-45502438D01*
X94904762Y-45502438D02*
X95047619Y-45454819D01*
X95047619Y-45454819D02*
X95142857Y-45454819D01*
X95142857Y-45454819D02*
X95285714Y-45502438D01*
X95285714Y-45502438D02*
X95333333Y-45550057D01*
X95666667Y-45454819D02*
X96285714Y-45454819D01*
X96285714Y-45454819D02*
X95952381Y-45835771D01*
X95952381Y-45835771D02*
X96095238Y-45835771D01*
X96095238Y-45835771D02*
X96190476Y-45883390D01*
X96190476Y-45883390D02*
X96238095Y-45931009D01*
X96238095Y-45931009D02*
X96285714Y-46026247D01*
X96285714Y-46026247D02*
X96285714Y-46264342D01*
X96285714Y-46264342D02*
X96238095Y-46359580D01*
X96238095Y-46359580D02*
X96190476Y-46407200D01*
X96190476Y-46407200D02*
X96095238Y-46454819D01*
X96095238Y-46454819D02*
X95809524Y-46454819D01*
X95809524Y-46454819D02*
X95714286Y-46407200D01*
X95714286Y-46407200D02*
X95666667Y-46359580D01*
X105633333Y-79804819D02*
X105300000Y-79328628D01*
X105061905Y-79804819D02*
X105061905Y-78804819D01*
X105061905Y-78804819D02*
X105442857Y-78804819D01*
X105442857Y-78804819D02*
X105538095Y-78852438D01*
X105538095Y-78852438D02*
X105585714Y-78900057D01*
X105585714Y-78900057D02*
X105633333Y-78995295D01*
X105633333Y-78995295D02*
X105633333Y-79138152D01*
X105633333Y-79138152D02*
X105585714Y-79233390D01*
X105585714Y-79233390D02*
X105538095Y-79281009D01*
X105538095Y-79281009D02*
X105442857Y-79328628D01*
X105442857Y-79328628D02*
X105061905Y-79328628D01*
X106490476Y-79138152D02*
X106490476Y-79804819D01*
X106252381Y-78757200D02*
X106014286Y-79471485D01*
X106014286Y-79471485D02*
X106633333Y-79471485D01*
X70561905Y-80054819D02*
X70561905Y-79054819D01*
X70561905Y-79054819D02*
X70800000Y-79054819D01*
X70800000Y-79054819D02*
X70942857Y-79102438D01*
X70942857Y-79102438D02*
X71038095Y-79197676D01*
X71038095Y-79197676D02*
X71085714Y-79292914D01*
X71085714Y-79292914D02*
X71133333Y-79483390D01*
X71133333Y-79483390D02*
X71133333Y-79626247D01*
X71133333Y-79626247D02*
X71085714Y-79816723D01*
X71085714Y-79816723D02*
X71038095Y-79911961D01*
X71038095Y-79911961D02*
X70942857Y-80007200D01*
X70942857Y-80007200D02*
X70800000Y-80054819D01*
X70800000Y-80054819D02*
X70561905Y-80054819D01*
X71609524Y-80054819D02*
X71800000Y-80054819D01*
X71800000Y-80054819D02*
X71895238Y-80007200D01*
X71895238Y-80007200D02*
X71942857Y-79959580D01*
X71942857Y-79959580D02*
X72038095Y-79816723D01*
X72038095Y-79816723D02*
X72085714Y-79626247D01*
X72085714Y-79626247D02*
X72085714Y-79245295D01*
X72085714Y-79245295D02*
X72038095Y-79150057D01*
X72038095Y-79150057D02*
X71990476Y-79102438D01*
X71990476Y-79102438D02*
X71895238Y-79054819D01*
X71895238Y-79054819D02*
X71704762Y-79054819D01*
X71704762Y-79054819D02*
X71609524Y-79102438D01*
X71609524Y-79102438D02*
X71561905Y-79150057D01*
X71561905Y-79150057D02*
X71514286Y-79245295D01*
X71514286Y-79245295D02*
X71514286Y-79483390D01*
X71514286Y-79483390D02*
X71561905Y-79578628D01*
X71561905Y-79578628D02*
X71609524Y-79626247D01*
X71609524Y-79626247D02*
X71704762Y-79673866D01*
X71704762Y-79673866D02*
X71895238Y-79673866D01*
X71895238Y-79673866D02*
X71990476Y-79626247D01*
X71990476Y-79626247D02*
X72038095Y-79578628D01*
X72038095Y-79578628D02*
X72085714Y-79483390D01*
X97833333Y-51959580D02*
X97785714Y-52007200D01*
X97785714Y-52007200D02*
X97642857Y-52054819D01*
X97642857Y-52054819D02*
X97547619Y-52054819D01*
X97547619Y-52054819D02*
X97404762Y-52007200D01*
X97404762Y-52007200D02*
X97309524Y-51911961D01*
X97309524Y-51911961D02*
X97261905Y-51816723D01*
X97261905Y-51816723D02*
X97214286Y-51626247D01*
X97214286Y-51626247D02*
X97214286Y-51483390D01*
X97214286Y-51483390D02*
X97261905Y-51292914D01*
X97261905Y-51292914D02*
X97309524Y-51197676D01*
X97309524Y-51197676D02*
X97404762Y-51102438D01*
X97404762Y-51102438D02*
X97547619Y-51054819D01*
X97547619Y-51054819D02*
X97642857Y-51054819D01*
X97642857Y-51054819D02*
X97785714Y-51102438D01*
X97785714Y-51102438D02*
X97833333Y-51150057D01*
X98690476Y-51054819D02*
X98500000Y-51054819D01*
X98500000Y-51054819D02*
X98404762Y-51102438D01*
X98404762Y-51102438D02*
X98357143Y-51150057D01*
X98357143Y-51150057D02*
X98261905Y-51292914D01*
X98261905Y-51292914D02*
X98214286Y-51483390D01*
X98214286Y-51483390D02*
X98214286Y-51864342D01*
X98214286Y-51864342D02*
X98261905Y-51959580D01*
X98261905Y-51959580D02*
X98309524Y-52007200D01*
X98309524Y-52007200D02*
X98404762Y-52054819D01*
X98404762Y-52054819D02*
X98595238Y-52054819D01*
X98595238Y-52054819D02*
X98690476Y-52007200D01*
X98690476Y-52007200D02*
X98738095Y-51959580D01*
X98738095Y-51959580D02*
X98785714Y-51864342D01*
X98785714Y-51864342D02*
X98785714Y-51626247D01*
X98785714Y-51626247D02*
X98738095Y-51531009D01*
X98738095Y-51531009D02*
X98690476Y-51483390D01*
X98690476Y-51483390D02*
X98595238Y-51435771D01*
X98595238Y-51435771D02*
X98404762Y-51435771D01*
X98404762Y-51435771D02*
X98309524Y-51483390D01*
X98309524Y-51483390D02*
X98261905Y-51531009D01*
X98261905Y-51531009D02*
X98214286Y-51626247D01*
D12*
%TO.C,D2*%
X122427500Y-76890000D02*
X122427500Y-78810000D01*
X122427500Y-78810000D02*
X125112500Y-78810000D01*
X125112500Y-76890000D02*
X122427500Y-76890000D01*
%TO.C,F6*%
X95430000Y-56400000D02*
X95430000Y-60990000D01*
X89430000Y-56400000D02*
X95430000Y-56400000D01*
X95430000Y-62610000D02*
X95430000Y-70180000D01*
X95430000Y-71820000D02*
X95430000Y-76400000D01*
X95430000Y-76400000D02*
X89430000Y-76400000D01*
X89430000Y-76400000D02*
X89430000Y-56400000D01*
%TO.C,J1*%
X92650000Y-50000000D02*
X92650000Y-46850000D01*
X92650000Y-46850000D02*
X89800000Y-44250000D01*
X89800000Y-52550000D02*
X92650000Y-50000000D01*
X89800000Y-44250000D02*
X76950000Y-44250000D01*
X76950000Y-52550000D02*
X89800000Y-52550000D01*
X76950000Y-44250000D02*
X76950000Y-52550000D01*
%TO.C,R9*%
X99262742Y-47227500D02*
X99737258Y-47227500D01*
X99262742Y-48272500D02*
X99737258Y-48272500D01*
%TO.C,R7*%
X82812742Y-77327500D02*
X83287258Y-77327500D01*
X82812742Y-78372500D02*
X83287258Y-78372500D01*
%TO.C,F9*%
X72780000Y-56400000D02*
X72780000Y-60990000D01*
X66780000Y-56400000D02*
X72780000Y-56400000D01*
X72780000Y-62610000D02*
X72780000Y-70180000D01*
X72780000Y-71820000D02*
X72780000Y-76400000D01*
X72780000Y-76400000D02*
X66780000Y-76400000D01*
X66780000Y-76400000D02*
X66780000Y-56400000D01*
%TO.C,C5*%
X106861252Y-54835000D02*
X106338748Y-54835000D01*
X106861252Y-53365000D02*
X106338748Y-53365000D01*
%TO.C,R1*%
X128062742Y-77577500D02*
X128537258Y-77577500D01*
X128062742Y-78622500D02*
X128537258Y-78622500D01*
%TO.C,F5*%
X102980000Y-56400000D02*
X102980000Y-60990000D01*
X96980000Y-56400000D02*
X102980000Y-56400000D01*
X102980000Y-62610000D02*
X102980000Y-70180000D01*
X102980000Y-71820000D02*
X102980000Y-76400000D01*
X102980000Y-76400000D02*
X96980000Y-76400000D01*
X96980000Y-76400000D02*
X96980000Y-56400000D01*
%TO.C,G\u002A\u002A\u002A*%
G36*
X130650628Y-53403385D02*
G01*
X130649063Y-53439104D01*
X130493599Y-53440508D01*
X130443448Y-53440808D01*
X130403288Y-53440700D01*
X130372532Y-53440167D01*
X130350594Y-53439191D01*
X130336887Y-53437756D01*
X130330880Y-53435891D01*
X130327054Y-53427702D01*
X130324491Y-53413117D01*
X130323426Y-53396208D01*
X130324092Y-53381045D01*
X130326725Y-53371701D01*
X130327153Y-53371194D01*
X130333135Y-53370313D01*
X130348378Y-53369513D01*
X130371557Y-53368822D01*
X130401349Y-53368267D01*
X130436432Y-53367878D01*
X130475482Y-53367683D01*
X130491437Y-53367666D01*
X130652192Y-53367666D01*
X130650628Y-53403385D01*
G37*
G36*
X130650628Y-50638489D02*
G01*
X130652192Y-50674208D01*
X130545947Y-50674208D01*
X130505929Y-50674412D01*
X130475134Y-50675081D01*
X130452206Y-50676297D01*
X130435792Y-50678144D01*
X130424537Y-50680706D01*
X130421351Y-50681875D01*
X130409214Y-50687221D01*
X130402374Y-50690759D01*
X130401933Y-50691136D01*
X130401503Y-50696650D01*
X130400885Y-50711226D01*
X130400130Y-50733343D01*
X130399287Y-50761481D01*
X130398407Y-50794121D01*
X130397965Y-50811791D01*
X130395063Y-50930854D01*
X130363804Y-50932465D01*
X130342534Y-50932414D01*
X130330660Y-50929471D01*
X130328166Y-50927174D01*
X130326656Y-50919510D01*
X130325539Y-50903196D01*
X130324803Y-50880158D01*
X130324436Y-50852322D01*
X130324427Y-50821612D01*
X130324764Y-50789955D01*
X130325435Y-50759277D01*
X130326428Y-50731502D01*
X130327733Y-50708558D01*
X130329336Y-50692368D01*
X130329610Y-50690587D01*
X130338885Y-50657723D01*
X130354731Y-50632757D01*
X130377638Y-50614923D01*
X130378398Y-50614512D01*
X130385884Y-50610776D01*
X130393556Y-50607928D01*
X130402912Y-50605849D01*
X130415450Y-50604417D01*
X130432668Y-50603514D01*
X130456063Y-50603019D01*
X130487135Y-50602811D01*
X130524709Y-50602770D01*
X130649063Y-50602770D01*
X130650628Y-50638489D01*
G37*
G36*
X130650628Y-47175093D02*
G01*
X130649063Y-47210812D01*
X130533491Y-47213458D01*
X130492076Y-47214238D01*
X130460015Y-47215160D01*
X130436120Y-47217291D01*
X130419200Y-47221695D01*
X130408067Y-47229439D01*
X130401533Y-47241588D01*
X130398408Y-47259207D01*
X130397503Y-47283364D01*
X130397630Y-47315122D01*
X130397709Y-47335166D01*
X130397517Y-47371336D01*
X130397732Y-47399344D01*
X130399545Y-47420258D01*
X130404144Y-47435142D01*
X130412718Y-47445062D01*
X130426455Y-47451084D01*
X130446546Y-47454273D01*
X130474178Y-47455696D01*
X130510541Y-47456418D01*
X130533491Y-47456875D01*
X130649063Y-47459520D01*
X130650628Y-47495239D01*
X130652192Y-47530958D01*
X130534211Y-47530928D01*
X130494722Y-47530648D01*
X130459592Y-47529870D01*
X130430356Y-47528659D01*
X130408549Y-47527080D01*
X130395707Y-47525197D01*
X130395311Y-47525091D01*
X130371549Y-47513570D01*
X130350900Y-47494540D01*
X130336471Y-47471073D01*
X130334103Y-47464564D01*
X130331725Y-47451527D01*
X130329661Y-47430122D01*
X130327960Y-47402562D01*
X130326674Y-47371059D01*
X130325853Y-47337825D01*
X130325548Y-47305071D01*
X130325809Y-47275012D01*
X130326687Y-47249858D01*
X130328233Y-47231822D01*
X130328705Y-47228819D01*
X130337461Y-47196997D01*
X130351409Y-47173274D01*
X130371821Y-47155917D01*
X130388472Y-47147514D01*
X130397088Y-47144762D01*
X130408969Y-47142675D01*
X130425496Y-47141173D01*
X130448051Y-47140177D01*
X130478016Y-47139608D01*
X130516772Y-47139385D01*
X130530072Y-47139375D01*
X130652192Y-47139375D01*
X130650628Y-47175093D01*
G37*
G36*
X130650628Y-50096093D02*
G01*
X130649063Y-50131812D01*
X130533491Y-50134458D01*
X130492076Y-50135238D01*
X130460015Y-50136160D01*
X130436120Y-50138291D01*
X130419200Y-50142695D01*
X130408067Y-50150439D01*
X130401533Y-50162588D01*
X130398408Y-50180207D01*
X130397503Y-50204364D01*
X130397630Y-50236122D01*
X130397709Y-50256166D01*
X130397517Y-50292336D01*
X130397732Y-50320344D01*
X130399545Y-50341258D01*
X130404144Y-50356142D01*
X130412718Y-50366062D01*
X130426455Y-50372084D01*
X130446546Y-50375273D01*
X130474178Y-50376696D01*
X130510541Y-50377418D01*
X130533491Y-50377875D01*
X130649063Y-50380520D01*
X130650628Y-50416239D01*
X130652192Y-50451958D01*
X130528919Y-50451842D01*
X130488663Y-50451718D01*
X130457498Y-50451365D01*
X130433930Y-50450680D01*
X130416468Y-50449563D01*
X130403620Y-50447912D01*
X130393894Y-50445624D01*
X130385797Y-50442598D01*
X130384480Y-50442006D01*
X130366976Y-50432685D01*
X130353346Y-50421797D01*
X130343098Y-50407943D01*
X130335742Y-50389727D01*
X130330787Y-50365750D01*
X130327743Y-50334615D01*
X130326118Y-50294925D01*
X130325731Y-50274687D01*
X130325505Y-50241837D01*
X130325762Y-50210688D01*
X130326448Y-50183592D01*
X130327509Y-50162902D01*
X130328553Y-50152774D01*
X130337470Y-50118958D01*
X130352049Y-50093208D01*
X130359775Y-50084994D01*
X130369076Y-50077661D01*
X130379763Y-50071945D01*
X130393223Y-50067649D01*
X130410844Y-50064577D01*
X130434011Y-50062533D01*
X130464112Y-50061318D01*
X130502533Y-50060736D01*
X130531565Y-50060607D01*
X130652192Y-50060375D01*
X130650628Y-50096093D01*
G37*
G36*
X130525894Y-46166348D02*
G01*
X130555947Y-46168090D01*
X130578967Y-46171543D01*
X130596706Y-46177082D01*
X130610918Y-46185084D01*
X130622428Y-46194988D01*
X130630848Y-46204283D01*
X130637498Y-46214305D01*
X130642582Y-46226382D01*
X130646305Y-46241841D01*
X130648872Y-46262010D01*
X130650488Y-46288216D01*
X130651357Y-46321786D01*
X130651684Y-46364048D01*
X130651709Y-46384856D01*
X130651709Y-46515463D01*
X130618636Y-46513887D01*
X130585563Y-46512312D01*
X130582917Y-46386812D01*
X130581996Y-46346620D01*
X130581063Y-46315680D01*
X130579998Y-46292662D01*
X130578683Y-46276234D01*
X130576997Y-46265068D01*
X130574823Y-46257831D01*
X130572040Y-46253194D01*
X130570837Y-46251875D01*
X130565158Y-46247805D01*
X130556368Y-46244925D01*
X130542580Y-46242960D01*
X130521907Y-46241636D01*
X130493864Y-46240715D01*
X130466529Y-46239892D01*
X130445117Y-46239734D01*
X130428883Y-46241371D01*
X130417078Y-46245932D01*
X130408956Y-46254547D01*
X130403770Y-46268347D01*
X130400774Y-46288461D01*
X130399219Y-46316019D01*
X130398359Y-46352151D01*
X130397709Y-46386158D01*
X130395063Y-46512312D01*
X130363804Y-46513924D01*
X130342534Y-46513872D01*
X130330660Y-46510929D01*
X130328166Y-46508632D01*
X130326799Y-46501245D01*
X130325745Y-46485131D01*
X130325000Y-46462144D01*
X130324557Y-46434134D01*
X130324409Y-46402954D01*
X130324552Y-46370457D01*
X130324979Y-46338495D01*
X130325685Y-46308919D01*
X130326662Y-46283582D01*
X130327905Y-46264336D01*
X130328985Y-46255153D01*
X130335353Y-46227793D01*
X130344901Y-46206419D01*
X130358813Y-46190364D01*
X130378272Y-46178959D01*
X130404463Y-46171537D01*
X130438568Y-46167429D01*
X130481772Y-46165968D01*
X130487053Y-46165940D01*
X130525894Y-46166348D01*
G37*
G36*
X130462096Y-47885717D02*
G01*
X130494177Y-47886265D01*
X130524176Y-47887083D01*
X130550285Y-47888153D01*
X130570695Y-47889460D01*
X130583598Y-47890986D01*
X130585501Y-47891418D01*
X130608751Y-47902861D01*
X130628835Y-47922001D01*
X130642947Y-47945961D01*
X130645355Y-47952833D01*
X130647805Y-47967223D01*
X130649670Y-47991954D01*
X130650940Y-48026797D01*
X130651604Y-48071526D01*
X130651709Y-48102001D01*
X130651709Y-48229963D01*
X130618636Y-48228387D01*
X130585563Y-48226812D01*
X130582917Y-48103303D01*
X130582049Y-48064063D01*
X130581238Y-48034034D01*
X130580330Y-48011847D01*
X130579169Y-47996132D01*
X130577600Y-47985519D01*
X130575468Y-47978639D01*
X130572618Y-47974123D01*
X130568894Y-47970599D01*
X130567779Y-47969689D01*
X130553497Y-47962488D01*
X130537352Y-47959583D01*
X130519417Y-47959583D01*
X130519417Y-48088170D01*
X130519244Y-48132683D01*
X130518699Y-48167390D01*
X130517746Y-48193063D01*
X130516350Y-48210473D01*
X130514473Y-48220394D01*
X130513067Y-48223108D01*
X130503581Y-48227592D01*
X130489690Y-48229458D01*
X130489687Y-48229458D01*
X130479472Y-48229501D01*
X130471552Y-48228835D01*
X130465636Y-48226269D01*
X130461433Y-48220611D01*
X130458652Y-48210669D01*
X130457000Y-48195250D01*
X130456188Y-48173164D01*
X130455923Y-48143217D01*
X130455914Y-48104219D01*
X130455917Y-48091308D01*
X130455917Y-47959583D01*
X130396121Y-47959583D01*
X130364410Y-47958966D01*
X130342675Y-47957132D01*
X130331161Y-47954104D01*
X130329975Y-47953233D01*
X130326605Y-47944863D01*
X130324420Y-47930259D01*
X130323599Y-47913467D01*
X130324320Y-47898532D01*
X130326759Y-47889500D01*
X130327153Y-47889027D01*
X130333752Y-47887606D01*
X130349118Y-47886555D01*
X130371444Y-47885857D01*
X130398921Y-47885496D01*
X130429741Y-47885455D01*
X130462096Y-47885717D01*
G37*
G36*
X130520381Y-52881294D02*
G01*
X130548712Y-52882760D01*
X130572266Y-52884945D01*
X130588596Y-52887814D01*
X130592275Y-52889023D01*
X130608504Y-52896644D01*
X130621526Y-52905303D01*
X130631672Y-52916180D01*
X130639268Y-52930456D01*
X130644645Y-52949311D01*
X130648130Y-52973926D01*
X130650053Y-53005481D01*
X130650742Y-53045158D01*
X130650525Y-53094136D01*
X130650482Y-53098124D01*
X130649063Y-53227437D01*
X130617313Y-53227437D01*
X130585563Y-53227437D01*
X130582917Y-53101283D01*
X130582099Y-53058105D01*
X130581170Y-53024341D01*
X130579384Y-52998837D01*
X130575994Y-52980443D01*
X130570254Y-52968007D01*
X130561417Y-52960377D01*
X130548735Y-52956403D01*
X130531463Y-52954931D01*
X130508853Y-52954812D01*
X130488003Y-52954916D01*
X130460967Y-52954833D01*
X130439932Y-52955367D01*
X130424148Y-52957695D01*
X130412864Y-52962991D01*
X130405330Y-52972432D01*
X130400795Y-52987194D01*
X130398509Y-53008451D01*
X130397722Y-53037379D01*
X130397682Y-53075155D01*
X130397709Y-53096377D01*
X130397568Y-53130905D01*
X130397175Y-53162159D01*
X130396571Y-53188484D01*
X130395798Y-53208228D01*
X130394900Y-53219736D01*
X130394497Y-53221713D01*
X130387646Y-53226653D01*
X130374143Y-53229548D01*
X130357741Y-53230282D01*
X130342194Y-53228737D01*
X130331256Y-53224795D01*
X130329976Y-53223733D01*
X130327660Y-53217830D01*
X130325974Y-53204853D01*
X130324877Y-53183969D01*
X130324331Y-53154346D01*
X130324295Y-53115151D01*
X130324346Y-53105993D01*
X130324658Y-53071914D01*
X130325114Y-53040757D01*
X130325674Y-53014321D01*
X130326299Y-52994405D01*
X130326949Y-52982806D01*
X130327117Y-52981375D01*
X130336337Y-52943917D01*
X130351046Y-52915433D01*
X130371333Y-52895790D01*
X130392725Y-52886036D01*
X130408232Y-52883356D01*
X130431198Y-52881578D01*
X130459177Y-52880666D01*
X130489720Y-52880584D01*
X130520381Y-52881294D01*
G37*
G36*
X130336275Y-52340071D02*
G01*
X130350291Y-52346385D01*
X130370809Y-52356472D01*
X130396481Y-52369603D01*
X130425961Y-52385046D01*
X130454594Y-52400309D01*
X130457900Y-52402071D01*
X130490952Y-52419947D01*
X130523767Y-52437943D01*
X130555000Y-52455328D01*
X130583302Y-52471372D01*
X130607325Y-52485344D01*
X130625722Y-52496512D01*
X130637146Y-52504146D01*
X130639403Y-52505992D01*
X130646113Y-52513792D01*
X130649856Y-52523410D01*
X130651444Y-52538021D01*
X130651709Y-52554195D01*
X130651320Y-52574120D01*
X130649475Y-52586819D01*
X130645158Y-52595639D01*
X130637354Y-52603927D01*
X130636330Y-52604866D01*
X130627911Y-52610881D01*
X130611465Y-52621171D01*
X130588279Y-52634983D01*
X130559641Y-52651566D01*
X130526838Y-52670171D01*
X130491157Y-52690044D01*
X130477088Y-52697786D01*
X130435314Y-52720682D01*
X130401913Y-52738783D01*
X130375948Y-52752329D01*
X130356481Y-52761559D01*
X130342577Y-52766714D01*
X130333299Y-52768033D01*
X130327710Y-52765756D01*
X130324873Y-52760123D01*
X130323853Y-52751374D01*
X130323712Y-52739749D01*
X130323707Y-52737068D01*
X130324465Y-52717127D01*
X130328239Y-52703650D01*
X130337034Y-52693562D01*
X130352858Y-52683787D01*
X130361333Y-52679413D01*
X130392417Y-52663722D01*
X130392406Y-52630935D01*
X130450625Y-52630935D01*
X130515448Y-52595620D01*
X130538819Y-52582525D01*
X130558374Y-52570874D01*
X130572448Y-52561715D01*
X130579370Y-52556096D01*
X130579801Y-52555204D01*
X130575317Y-52551246D01*
X130563573Y-52543531D01*
X130546665Y-52533251D01*
X130526689Y-52521597D01*
X130505740Y-52509760D01*
X130485914Y-52498931D01*
X130469307Y-52490302D01*
X130458015Y-52485064D01*
X130454594Y-52484041D01*
X130453163Y-52488984D01*
X130451961Y-52502612D01*
X130451091Y-52523027D01*
X130450656Y-52548330D01*
X130450625Y-52557446D01*
X130450625Y-52630935D01*
X130392406Y-52630935D01*
X130392380Y-52556642D01*
X130392343Y-52449562D01*
X130359307Y-52430879D01*
X130326271Y-52412197D01*
X130324705Y-52376567D01*
X130324496Y-52355350D01*
X130326311Y-52343055D01*
X130330110Y-52338262D01*
X130336275Y-52340071D01*
G37*
G36*
X133234640Y-45441387D02*
G01*
X133228842Y-45455225D01*
X133219444Y-45477074D01*
X133206809Y-45506110D01*
X133191298Y-45541509D01*
X133173273Y-45582444D01*
X133153094Y-45628093D01*
X133131124Y-45677631D01*
X133107724Y-45730232D01*
X133103492Y-45739729D01*
X133079915Y-45792636D01*
X133052680Y-45853776D01*
X133022427Y-45921711D01*
X132989796Y-45995002D01*
X132955427Y-46072210D01*
X132919962Y-46151898D01*
X132884039Y-46232627D01*
X132848300Y-46312959D01*
X132813383Y-46391456D01*
X132779930Y-46466678D01*
X132770227Y-46488500D01*
X132741355Y-46553409D01*
X132713698Y-46615536D01*
X132687559Y-46674204D01*
X132663241Y-46728734D01*
X132641047Y-46778449D01*
X132621281Y-46822672D01*
X132604245Y-46860723D01*
X132590241Y-46891925D01*
X132579574Y-46915601D01*
X132572547Y-46931073D01*
X132569461Y-46937663D01*
X132569351Y-46937850D01*
X132568486Y-46934051D01*
X132568163Y-46921240D01*
X132568359Y-46900974D01*
X132569052Y-46874809D01*
X132570216Y-46844303D01*
X132571005Y-46827166D01*
X132574190Y-46776748D01*
X132579165Y-46717817D01*
X132585704Y-46652250D01*
X132593582Y-46581923D01*
X132602574Y-46508714D01*
X132612454Y-46434498D01*
X132622997Y-46361154D01*
X132633977Y-46290557D01*
X132639317Y-46258312D01*
X132646854Y-46215160D01*
X132655482Y-46168124D01*
X132664952Y-46118374D01*
X132675017Y-46067079D01*
X132685427Y-46015407D01*
X132695935Y-45964527D01*
X132706293Y-45915609D01*
X132716252Y-45869822D01*
X132725564Y-45828334D01*
X132733981Y-45792315D01*
X132741255Y-45762933D01*
X132747137Y-45741359D01*
X132751379Y-45728760D01*
X132752071Y-45727301D01*
X132757171Y-45723319D01*
X132770253Y-45714652D01*
X132790303Y-45701910D01*
X132816305Y-45685704D01*
X132847242Y-45666644D01*
X132882098Y-45645340D01*
X132919859Y-45622402D01*
X132959507Y-45598440D01*
X133000027Y-45574065D01*
X133040403Y-45549886D01*
X133079619Y-45526513D01*
X133116659Y-45504557D01*
X133150507Y-45484628D01*
X133180148Y-45467336D01*
X133204565Y-45453291D01*
X133222742Y-45443103D01*
X133233664Y-45437383D01*
X133236478Y-45436385D01*
X133234640Y-45441387D01*
G37*
G36*
X130442103Y-46653456D02*
G01*
X130489305Y-46653772D01*
X130490675Y-46653784D01*
X130649063Y-46655187D01*
X130650628Y-46690906D01*
X130652192Y-46726625D01*
X130585805Y-46726625D01*
X130519417Y-46726625D01*
X130519417Y-46770426D01*
X130520457Y-46798749D01*
X130523655Y-46817511D01*
X130527172Y-46825299D01*
X130534175Y-46832475D01*
X130547905Y-46844347D01*
X130566521Y-46859393D01*
X130588182Y-46876094D01*
X130593317Y-46879946D01*
X130651709Y-46923523D01*
X130651709Y-46959699D01*
X130651084Y-46978243D01*
X130649445Y-46992241D01*
X130647145Y-46998695D01*
X130647115Y-46998714D01*
X130641668Y-46996536D01*
X130629340Y-46988752D01*
X130611538Y-46976341D01*
X130589667Y-46960281D01*
X130566922Y-46942937D01*
X130538864Y-46921439D01*
X130517964Y-46906093D01*
X130503245Y-46896280D01*
X130493735Y-46891379D01*
X130488457Y-46890769D01*
X130486996Y-46892053D01*
X130480583Y-46899364D01*
X130467725Y-46911023D01*
X130450073Y-46925776D01*
X130429281Y-46942366D01*
X130407000Y-46959536D01*
X130384882Y-46976032D01*
X130364579Y-46990596D01*
X130347743Y-47001973D01*
X130336026Y-47008907D01*
X130331359Y-47010382D01*
X130327228Y-47003884D01*
X130324455Y-46990342D01*
X130323265Y-46973233D01*
X130323881Y-46956037D01*
X130326529Y-46942231D01*
X130326887Y-46941240D01*
X130332128Y-46934951D01*
X130344142Y-46923796D01*
X130361237Y-46909257D01*
X130381721Y-46892816D01*
X130385516Y-46889864D01*
X130412195Y-46869203D01*
X130431744Y-46853525D01*
X130445268Y-46841164D01*
X130453874Y-46830455D01*
X130458666Y-46819734D01*
X130460750Y-46807335D01*
X130461233Y-46791596D01*
X130461209Y-46775898D01*
X130461209Y-46726625D01*
X130395629Y-46726625D01*
X130367554Y-46726425D01*
X130348345Y-46725689D01*
X130336292Y-46724206D01*
X130329683Y-46721770D01*
X130326837Y-46718254D01*
X130324462Y-46705965D01*
X130323800Y-46689189D01*
X130324756Y-46672553D01*
X130327237Y-46660683D01*
X130328037Y-46659076D01*
X130331600Y-46657092D01*
X130340092Y-46655568D01*
X130354451Y-46654473D01*
X130375613Y-46653776D01*
X130404518Y-46653448D01*
X130442103Y-46653456D01*
G37*
G36*
X130334557Y-51043683D02*
G01*
X130348226Y-51049770D01*
X130368429Y-51059614D01*
X130393826Y-51072493D01*
X130423075Y-51087687D01*
X130453675Y-51103860D01*
X130454834Y-51104473D01*
X130487760Y-51122132D01*
X130520514Y-51139942D01*
X130551752Y-51157182D01*
X130580132Y-51173130D01*
X130604315Y-51187067D01*
X130622956Y-51198270D01*
X130634716Y-51206019D01*
X130636701Y-51207562D01*
X130644738Y-51215256D01*
X130649251Y-51223459D01*
X130651240Y-51235436D01*
X130651707Y-51254449D01*
X130651709Y-51256466D01*
X130651097Y-51277388D01*
X130648724Y-51291111D01*
X130643785Y-51300975D01*
X130639803Y-51305835D01*
X130633048Y-51310803D01*
X130618399Y-51320037D01*
X130597257Y-51332743D01*
X130571025Y-51348130D01*
X130541104Y-51365405D01*
X130508896Y-51383775D01*
X130475805Y-51402450D01*
X130443231Y-51420637D01*
X130412578Y-51437543D01*
X130385246Y-51452377D01*
X130362639Y-51464346D01*
X130346159Y-51472659D01*
X130338399Y-51476117D01*
X130330278Y-51474771D01*
X130325485Y-51463506D01*
X130324059Y-51442460D01*
X130324619Y-51428363D01*
X130325835Y-51414847D01*
X130328746Y-51405857D01*
X130335464Y-51398729D01*
X130348104Y-51390798D01*
X130359344Y-51384582D01*
X130392417Y-51366466D01*
X130392375Y-51334811D01*
X130450625Y-51334811D01*
X130504865Y-51305591D01*
X130533969Y-51289815D01*
X130554893Y-51278163D01*
X130568836Y-51269855D01*
X130576995Y-51264111D01*
X130580569Y-51260152D01*
X130580757Y-51257198D01*
X130580380Y-51256467D01*
X130575030Y-51252596D01*
X130562446Y-51245040D01*
X130544792Y-51234979D01*
X130524235Y-51223590D01*
X130502940Y-51212052D01*
X130483071Y-51201544D01*
X130466795Y-51193245D01*
X130456276Y-51188332D01*
X130453675Y-51187500D01*
X130452576Y-51192474D01*
X130451653Y-51206134D01*
X130450985Y-51226578D01*
X130450650Y-51251909D01*
X130450625Y-51261155D01*
X130450625Y-51334811D01*
X130392375Y-51334811D01*
X130392276Y-51259785D01*
X130392134Y-51153104D01*
X130359203Y-51134540D01*
X130326271Y-51115977D01*
X130324717Y-51080756D01*
X130324676Y-51060845D01*
X130326340Y-51047072D01*
X130328766Y-51042072D01*
X130334557Y-51043683D01*
G37*
G36*
X130437301Y-45626661D02*
G01*
X130483139Y-45627029D01*
X130484590Y-45627044D01*
X130531100Y-45627454D01*
X130568113Y-45627918D01*
X130596707Y-45628880D01*
X130617962Y-45630781D01*
X130632955Y-45634062D01*
X130642766Y-45639166D01*
X130648474Y-45646535D01*
X130651156Y-45656610D01*
X130651893Y-45669834D01*
X130651763Y-45686648D01*
X130651709Y-45695498D01*
X130651709Y-45741848D01*
X130629219Y-45760387D01*
X130618624Y-45768856D01*
X130601099Y-45782563D01*
X130578143Y-45800346D01*
X130551259Y-45821046D01*
X130521946Y-45843502D01*
X130503895Y-45857276D01*
X130475457Y-45879177D01*
X130450114Y-45899145D01*
X130429001Y-45916248D01*
X130413255Y-45929553D01*
X130404012Y-45938127D01*
X130402024Y-45940865D01*
X130407526Y-45942653D01*
X130422808Y-45944245D01*
X130447066Y-45945599D01*
X130479499Y-45946673D01*
X130519304Y-45947423D01*
X130527349Y-45947522D01*
X130651709Y-45948941D01*
X130651709Y-45983241D01*
X130651709Y-46017541D01*
X130501483Y-46017541D01*
X130454184Y-46017527D01*
X130416378Y-46017274D01*
X130386976Y-46016464D01*
X130364888Y-46014778D01*
X130349024Y-46011899D01*
X130338294Y-46007509D01*
X130331609Y-46001290D01*
X130327879Y-45992923D01*
X130326015Y-45982091D01*
X130324926Y-45968476D01*
X130324748Y-45965972D01*
X130323741Y-45949754D01*
X130323855Y-45936119D01*
X130325918Y-45924042D01*
X130330757Y-45912497D01*
X130339201Y-45900460D01*
X130352077Y-45886906D01*
X130370213Y-45870810D01*
X130394437Y-45851146D01*
X130425577Y-45826889D01*
X130455885Y-45803596D01*
X130487031Y-45779602D01*
X130515437Y-45757540D01*
X130540013Y-45738270D01*
X130559671Y-45722652D01*
X130573321Y-45711546D01*
X130579875Y-45705811D01*
X130580251Y-45705366D01*
X130576301Y-45703444D01*
X130561898Y-45701945D01*
X130537162Y-45700875D01*
X130502216Y-45700239D01*
X130459934Y-45700041D01*
X130416254Y-45699857D01*
X130382380Y-45699280D01*
X130357541Y-45698272D01*
X130340966Y-45696796D01*
X130331881Y-45694814D01*
X130329975Y-45693691D01*
X130326140Y-45684498D01*
X130324109Y-45669211D01*
X130324015Y-45652187D01*
X130325987Y-45637782D01*
X130328134Y-45632336D01*
X130331557Y-45630283D01*
X130339563Y-45628717D01*
X130353145Y-45627606D01*
X130373299Y-45626915D01*
X130401019Y-45626611D01*
X130437301Y-45626661D01*
G37*
G36*
X130524687Y-51849068D02*
G01*
X130560510Y-51849380D01*
X130582917Y-51849728D01*
X130591683Y-51849864D01*
X130616770Y-51850490D01*
X130634335Y-51851230D01*
X130642944Y-51852055D01*
X130643339Y-51852170D01*
X130645833Y-51854163D01*
X130647783Y-51858772D01*
X130649251Y-51867148D01*
X130650300Y-51880443D01*
X130650995Y-51899811D01*
X130651399Y-51926403D01*
X130651576Y-51961371D01*
X130651593Y-52001659D01*
X130651504Y-52045411D01*
X130651260Y-52079934D01*
X130650777Y-52106583D01*
X130649971Y-52126711D01*
X130648760Y-52141672D01*
X130647060Y-52152822D01*
X130644787Y-52161514D01*
X130641859Y-52169102D01*
X130641188Y-52170605D01*
X130628906Y-52189517D01*
X130611158Y-52202611D01*
X130586607Y-52210475D01*
X130553919Y-52213699D01*
X130543230Y-52213850D01*
X130507335Y-52211622D01*
X130480095Y-52204656D01*
X130460501Y-52192526D01*
X130447545Y-52174811D01*
X130446862Y-52173353D01*
X130440902Y-52160416D01*
X130437015Y-52152292D01*
X130436460Y-52151254D01*
X130432108Y-52153559D01*
X130421204Y-52161304D01*
X130405415Y-52173259D01*
X130387273Y-52187507D01*
X130364840Y-52204597D01*
X130347116Y-52216465D01*
X130335282Y-52222364D01*
X130331480Y-52222721D01*
X130326408Y-52216830D01*
X130323979Y-52203095D01*
X130323625Y-52190869D01*
X130324188Y-52173090D01*
X130325628Y-52158883D01*
X130326809Y-52153737D01*
X130332103Y-52147393D01*
X130344108Y-52136368D01*
X130361006Y-52122245D01*
X130379725Y-52107566D01*
X130429459Y-52069691D01*
X130429459Y-52020937D01*
X130487667Y-52020937D01*
X130487741Y-52055631D01*
X130488067Y-52081321D01*
X130488798Y-52099588D01*
X130490089Y-52112012D01*
X130492093Y-52120171D01*
X130494966Y-52125647D01*
X130498250Y-52129416D01*
X130509242Y-52136569D01*
X130525482Y-52139672D01*
X130536198Y-52140000D01*
X130551368Y-52139736D01*
X130562838Y-52138079D01*
X130571124Y-52133732D01*
X130576745Y-52125397D01*
X130580218Y-52111774D01*
X130582059Y-52091567D01*
X130582786Y-52063478D01*
X130582917Y-52026207D01*
X130582917Y-52022763D01*
X130582917Y-51923041D01*
X130535292Y-51923041D01*
X130487667Y-51923041D01*
X130487667Y-52020937D01*
X130429459Y-52020937D01*
X130429459Y-51996558D01*
X130429459Y-51923424D01*
X130377865Y-51921910D01*
X130326271Y-51920395D01*
X130324723Y-51891252D01*
X130325003Y-51870964D01*
X130328092Y-51857932D01*
X130329750Y-51855534D01*
X130334671Y-51853466D01*
X130345419Y-51851837D01*
X130362868Y-51850611D01*
X130387896Y-51849751D01*
X130421376Y-51849220D01*
X130464186Y-51848980D01*
X130485647Y-51848958D01*
X130524687Y-51849068D01*
G37*
G36*
X130437301Y-53590619D02*
G01*
X130483139Y-53590988D01*
X130484590Y-53591003D01*
X130531097Y-53591414D01*
X130568108Y-53591883D01*
X130596700Y-53592845D01*
X130617952Y-53594738D01*
X130632944Y-53598000D01*
X130642755Y-53603067D01*
X130648462Y-53610378D01*
X130651147Y-53620368D01*
X130651886Y-53633477D01*
X130651760Y-53650139D01*
X130651709Y-53658729D01*
X130651894Y-53672129D01*
X130651909Y-53682999D01*
X130650940Y-53692248D01*
X130648174Y-53700786D01*
X130642797Y-53709520D01*
X130633998Y-53719360D01*
X130620962Y-53731215D01*
X130602877Y-53745993D01*
X130578930Y-53764604D01*
X130548308Y-53787956D01*
X130510197Y-53816958D01*
X130510077Y-53817049D01*
X130480390Y-53839951D01*
X130453864Y-53860914D01*
X130431558Y-53879058D01*
X130414536Y-53893504D01*
X130403856Y-53903373D01*
X130400582Y-53907784D01*
X130400587Y-53907793D01*
X130406601Y-53909248D01*
X130421848Y-53910515D01*
X130444979Y-53911541D01*
X130474644Y-53912273D01*
X130509496Y-53912660D01*
X130527667Y-53912708D01*
X130651709Y-53912708D01*
X130651709Y-53947104D01*
X130651709Y-53981500D01*
X130501483Y-53981500D01*
X130454184Y-53981486D01*
X130416378Y-53981233D01*
X130386976Y-53980422D01*
X130364888Y-53978737D01*
X130349024Y-53975858D01*
X130338294Y-53971467D01*
X130331609Y-53965248D01*
X130327879Y-53956881D01*
X130326015Y-53946050D01*
X130324926Y-53932435D01*
X130324748Y-53929931D01*
X130323739Y-53913517D01*
X130323886Y-53899741D01*
X130326028Y-53887558D01*
X130331003Y-53875923D01*
X130339649Y-53863792D01*
X130352804Y-53850119D01*
X130371307Y-53833860D01*
X130395996Y-53813971D01*
X130427708Y-53789405D01*
X130453038Y-53770011D01*
X130484025Y-53746218D01*
X130512440Y-53724212D01*
X130537136Y-53704896D01*
X130556970Y-53689170D01*
X130570797Y-53677937D01*
X130577472Y-53672097D01*
X130577730Y-53671811D01*
X130578723Y-53669344D01*
X130576342Y-53667450D01*
X130569460Y-53666055D01*
X130556952Y-53665086D01*
X130537691Y-53664471D01*
X130510551Y-53664136D01*
X130474406Y-53664009D01*
X130457131Y-53664000D01*
X130416726Y-53663927D01*
X130385667Y-53663656D01*
X130362717Y-53663108D01*
X130346641Y-53662203D01*
X130336203Y-53660862D01*
X130330165Y-53659005D01*
X130327291Y-53656553D01*
X130326837Y-53655629D01*
X130324444Y-53643241D01*
X130323801Y-53626384D01*
X130324808Y-53609696D01*
X130327362Y-53597820D01*
X130328134Y-53596294D01*
X130331557Y-53594241D01*
X130339563Y-53592676D01*
X130353145Y-53591565D01*
X130373299Y-53590874D01*
X130401019Y-53590570D01*
X130437301Y-53590619D01*
G37*
G36*
X130628440Y-48911685D02*
G01*
X130645094Y-48911932D01*
X130647134Y-48914290D01*
X130648739Y-48921878D01*
X130649952Y-48935623D01*
X130650813Y-48956451D01*
X130651364Y-48985288D01*
X130651647Y-49023062D01*
X130651709Y-49059128D01*
X130651677Y-49102545D01*
X130651520Y-49136729D01*
X130651143Y-49163033D01*
X130650452Y-49182807D01*
X130649351Y-49197402D01*
X130647746Y-49208169D01*
X130645544Y-49216460D01*
X130642648Y-49223626D01*
X130639803Y-49229393D01*
X130628799Y-49247065D01*
X130615675Y-49259271D01*
X130598461Y-49266805D01*
X130575188Y-49270461D01*
X130543887Y-49271033D01*
X130536986Y-49270862D01*
X130506031Y-49269045D01*
X130483463Y-49265062D01*
X130467155Y-49257936D01*
X130454978Y-49246692D01*
X130444802Y-49230352D01*
X130443636Y-49228045D01*
X130434000Y-49208670D01*
X130388073Y-49245684D01*
X130368885Y-49260477D01*
X130352108Y-49272179D01*
X130339738Y-49279473D01*
X130334209Y-49281228D01*
X130329364Y-49275516D01*
X130325768Y-49262553D01*
X130323844Y-49245641D01*
X130324015Y-49228079D01*
X130325866Y-49216083D01*
X130331214Y-49208228D01*
X130343572Y-49195903D01*
X130361258Y-49180670D01*
X130379261Y-49166573D01*
X130429755Y-49128620D01*
X130428767Y-49080239D01*
X130487667Y-49080239D01*
X130487829Y-49115647D01*
X130488396Y-49142007D01*
X130489485Y-49160851D01*
X130491217Y-49173710D01*
X130493711Y-49182116D01*
X130495905Y-49186072D01*
X130502559Y-49192999D01*
X130512190Y-49196569D01*
X130528079Y-49197780D01*
X130534581Y-49197833D01*
X130550676Y-49197718D01*
X130562757Y-49196492D01*
X130571374Y-49192835D01*
X130577081Y-49185423D01*
X130580427Y-49172936D01*
X130581964Y-49154052D01*
X130582244Y-49127449D01*
X130581817Y-49091806D01*
X130581716Y-49084859D01*
X130580271Y-48985150D01*
X130536615Y-48985406D01*
X130516196Y-48985553D01*
X130500180Y-48985718D01*
X130491238Y-48985872D01*
X130490313Y-48985914D01*
X130489463Y-48991010D01*
X130488726Y-49005002D01*
X130488149Y-49026205D01*
X130487781Y-49052932D01*
X130487667Y-49080239D01*
X130428767Y-49080239D01*
X130428284Y-49056569D01*
X130426813Y-48984518D01*
X130382793Y-48985688D01*
X130356977Y-48985522D01*
X130339110Y-48983554D01*
X130331199Y-48980572D01*
X130327145Y-48972349D01*
X130324510Y-48958025D01*
X130323470Y-48941412D01*
X130324201Y-48926321D01*
X130326879Y-48916561D01*
X130328170Y-48915190D01*
X130334040Y-48914662D01*
X130348918Y-48914127D01*
X130371231Y-48913602D01*
X130399404Y-48913102D01*
X130431863Y-48912645D01*
X130467032Y-48912245D01*
X130503338Y-48911920D01*
X130539206Y-48911685D01*
X130573063Y-48911557D01*
X130580271Y-48911556D01*
X130603332Y-48911551D01*
X130628440Y-48911685D01*
G37*
G36*
X130548485Y-54131165D02*
G01*
X130572903Y-54134008D01*
X130591833Y-54138966D01*
X130606953Y-54146372D01*
X130619944Y-54156555D01*
X130622877Y-54159395D01*
X130631143Y-54168757D01*
X130637722Y-54179337D01*
X130642780Y-54192368D01*
X130646482Y-54209083D01*
X130648990Y-54230713D01*
X130650471Y-54258493D01*
X130651089Y-54293655D01*
X130651009Y-54337431D01*
X130650700Y-54367791D01*
X130649063Y-54502729D01*
X130617313Y-54502729D01*
X130585563Y-54502729D01*
X130582917Y-54364001D01*
X130582047Y-54321594D01*
X130581179Y-54288510D01*
X130580210Y-54263491D01*
X130579038Y-54245276D01*
X130577560Y-54232608D01*
X130575674Y-54224225D01*
X130573276Y-54218870D01*
X130570837Y-54215834D01*
X130565151Y-54211761D01*
X130556352Y-54208878D01*
X130542548Y-54206913D01*
X130521851Y-54205590D01*
X130494002Y-54204676D01*
X130465819Y-54204090D01*
X130446098Y-54204188D01*
X130432724Y-54205219D01*
X130423586Y-54207432D01*
X130416569Y-54211075D01*
X130412155Y-54214321D01*
X130397709Y-54225684D01*
X130397709Y-54327922D01*
X130397697Y-54364438D01*
X130397993Y-54391716D01*
X130399092Y-54411098D01*
X130401491Y-54423929D01*
X130405684Y-54431551D01*
X130412169Y-54435307D01*
X130421441Y-54436541D01*
X130433996Y-54436596D01*
X130437829Y-54436583D01*
X130461209Y-54436583D01*
X130461209Y-54363066D01*
X130461298Y-54332470D01*
X130462008Y-54310885D01*
X130464003Y-54296741D01*
X130467946Y-54288463D01*
X130474503Y-54284482D01*
X130484336Y-54283225D01*
X130494979Y-54283125D01*
X130508870Y-54284989D01*
X130518358Y-54289473D01*
X130518359Y-54289475D01*
X130520737Y-54297051D01*
X130522597Y-54313122D01*
X130523939Y-54335611D01*
X130524764Y-54362443D01*
X130525070Y-54391541D01*
X130524859Y-54420830D01*
X130524129Y-54448233D01*
X130522882Y-54471674D01*
X130521117Y-54489077D01*
X130518834Y-54498366D01*
X130518359Y-54499025D01*
X130509912Y-54502118D01*
X130491628Y-54504174D01*
X130463232Y-54505217D01*
X130442953Y-54505366D01*
X130406509Y-54504702D01*
X130379099Y-54502393D01*
X130359237Y-54497948D01*
X130345435Y-54490879D01*
X130336207Y-54480696D01*
X130330539Y-54468333D01*
X130328163Y-54455586D01*
X130326360Y-54434356D01*
X130325124Y-54406727D01*
X130324453Y-54374782D01*
X130324340Y-54340606D01*
X130324783Y-54306283D01*
X130325775Y-54273897D01*
X130327314Y-54245533D01*
X130329395Y-54223273D01*
X130331077Y-54212871D01*
X130340532Y-54182808D01*
X130354994Y-54160464D01*
X130375950Y-54143578D01*
X130377095Y-54142895D01*
X130385524Y-54138704D01*
X130395638Y-54135662D01*
X130409363Y-54133529D01*
X130428626Y-54132066D01*
X130455354Y-54131031D01*
X130476473Y-54130501D01*
X130516902Y-54130106D01*
X130548485Y-54131165D01*
G37*
G36*
X130493448Y-48361655D02*
G01*
X130512139Y-48361670D01*
X130541186Y-48362586D01*
X130565869Y-48364421D01*
X130583699Y-48367203D01*
X130585501Y-48367668D01*
X130608751Y-48379111D01*
X130628835Y-48398251D01*
X130642947Y-48422211D01*
X130645355Y-48429083D01*
X130647673Y-48442609D01*
X130649480Y-48464619D01*
X130650778Y-48493025D01*
X130651566Y-48525739D01*
X130651845Y-48560674D01*
X130651615Y-48595743D01*
X130650877Y-48628858D01*
X130649632Y-48657931D01*
X130647879Y-48680876D01*
X130645619Y-48695603D01*
X130645297Y-48696778D01*
X130632657Y-48721931D01*
X130612461Y-48742822D01*
X130587657Y-48756504D01*
X130584570Y-48757504D01*
X130569413Y-48760219D01*
X130546386Y-48762172D01*
X130518174Y-48763354D01*
X130487465Y-48763758D01*
X130456943Y-48763376D01*
X130429295Y-48762200D01*
X130407208Y-48760223D01*
X130395311Y-48758050D01*
X130371540Y-48746524D01*
X130350908Y-48727499D01*
X130336532Y-48704057D01*
X130334173Y-48697522D01*
X130331877Y-48684700D01*
X130329864Y-48663443D01*
X130328179Y-48635898D01*
X130326873Y-48604211D01*
X130325992Y-48570529D01*
X130325584Y-48536998D01*
X130325625Y-48525551D01*
X130393582Y-48525551D01*
X130393667Y-48552887D01*
X130393891Y-48574596D01*
X130394395Y-48607254D01*
X130395060Y-48631038D01*
X130396111Y-48647657D01*
X130397772Y-48658820D01*
X130400268Y-48666237D01*
X130403824Y-48671617D01*
X130407116Y-48675137D01*
X130412605Y-48679995D01*
X130418953Y-48683338D01*
X130428119Y-48685447D01*
X130442061Y-48686604D01*
X130462737Y-48687090D01*
X130490928Y-48687187D01*
X130519988Y-48687244D01*
X130542195Y-48686581D01*
X130558468Y-48683948D01*
X130569724Y-48678095D01*
X130576883Y-48667771D01*
X130580864Y-48651728D01*
X130582585Y-48628714D01*
X130582964Y-48597479D01*
X130582917Y-48562006D01*
X130582881Y-48527126D01*
X130582650Y-48501241D01*
X130582042Y-48482761D01*
X130580875Y-48470098D01*
X130578967Y-48461664D01*
X130576135Y-48455868D01*
X130572197Y-48451124D01*
X130569929Y-48448821D01*
X130563831Y-48443315D01*
X130557185Y-48439633D01*
X130547839Y-48437410D01*
X130533641Y-48436279D01*
X130512440Y-48435877D01*
X130493448Y-48435833D01*
X130459563Y-48436427D01*
X130434799Y-48438469D01*
X130417745Y-48442353D01*
X130406993Y-48448469D01*
X130401133Y-48457210D01*
X130399765Y-48461875D01*
X130396765Y-48474178D01*
X130394751Y-48480812D01*
X130394142Y-48487640D01*
X130393747Y-48503178D01*
X130393582Y-48525551D01*
X130325625Y-48525551D01*
X130325697Y-48505764D01*
X130326379Y-48478974D01*
X130327678Y-48458774D01*
X130328682Y-48451194D01*
X130337458Y-48419376D01*
X130351397Y-48395663D01*
X130371778Y-48378318D01*
X130388472Y-48369889D01*
X130402040Y-48366632D01*
X130423677Y-48364154D01*
X130450898Y-48362482D01*
X130481214Y-48361645D01*
X130493448Y-48361655D01*
G37*
G36*
X130566604Y-49420121D02*
G01*
X130595500Y-49420804D01*
X130617035Y-49422495D01*
X130632283Y-49425618D01*
X130642316Y-49430598D01*
X130648208Y-49437857D01*
X130651032Y-49447820D01*
X130651860Y-49460911D01*
X130651766Y-49477554D01*
X130651709Y-49486957D01*
X130650901Y-49513807D01*
X130648595Y-49533128D01*
X130645094Y-49543242D01*
X130641022Y-49547196D01*
X130633624Y-49552137D01*
X130621953Y-49558515D01*
X130605064Y-49566779D01*
X130582009Y-49577379D01*
X130551842Y-49590765D01*
X130513617Y-49607385D01*
X130475761Y-49623672D01*
X130448464Y-49635603D01*
X130424919Y-49646322D01*
X130406707Y-49655073D01*
X130395411Y-49661101D01*
X130392417Y-49663456D01*
X130393262Y-49666435D01*
X130396513Y-49669862D01*
X130403245Y-49674273D01*
X130414533Y-49680203D01*
X130431454Y-49688188D01*
X130455082Y-49698762D01*
X130486492Y-49712460D01*
X130519417Y-49726660D01*
X130552249Y-49741062D01*
X130582174Y-49754716D01*
X130607686Y-49766895D01*
X130627279Y-49776868D01*
X130639447Y-49783905D01*
X130642448Y-49786280D01*
X130647252Y-49794284D01*
X130650127Y-49806295D01*
X130651470Y-49824729D01*
X130651709Y-49842991D01*
X130651869Y-49861622D01*
X130651623Y-49876417D01*
X130649881Y-49887829D01*
X130645556Y-49896310D01*
X130637558Y-49902312D01*
X130624797Y-49906287D01*
X130606186Y-49908687D01*
X130580635Y-49909965D01*
X130547055Y-49910572D01*
X130504357Y-49910961D01*
X130487606Y-49911123D01*
X130439329Y-49911483D01*
X130400903Y-49911427D01*
X130371604Y-49910936D01*
X130350709Y-49909987D01*
X130337493Y-49908560D01*
X130331233Y-49906633D01*
X130331069Y-49906506D01*
X130326340Y-49897176D01*
X130323981Y-49881847D01*
X130324067Y-49864853D01*
X130326675Y-49850527D01*
X130329975Y-49844475D01*
X130335774Y-49842247D01*
X130348682Y-49840540D01*
X130369473Y-49839316D01*
X130398917Y-49838538D01*
X130437786Y-49838168D01*
X130460680Y-49838125D01*
X130501776Y-49837922D01*
X130534890Y-49837333D01*
X130559403Y-49836382D01*
X130574698Y-49835096D01*
X130580157Y-49833500D01*
X130580007Y-49833138D01*
X130573923Y-49829591D01*
X130559623Y-49822380D01*
X130538539Y-49812192D01*
X130512102Y-49799714D01*
X130481744Y-49785633D01*
X130464384Y-49777677D01*
X130432161Y-49762789D01*
X130402785Y-49748870D01*
X130377767Y-49736666D01*
X130358620Y-49726921D01*
X130346856Y-49720378D01*
X130344198Y-49718524D01*
X130332674Y-49701770D01*
X130326422Y-49679451D01*
X130325545Y-49655128D01*
X130330140Y-49632361D01*
X130340309Y-49614710D01*
X130341247Y-49613743D01*
X130349216Y-49608385D01*
X130365358Y-49599514D01*
X130388164Y-49587890D01*
X130416123Y-49574270D01*
X130447725Y-49559411D01*
X130468071Y-49550097D01*
X130500031Y-49535364D01*
X130528230Y-49521877D01*
X130551406Y-49510280D01*
X130568300Y-49501217D01*
X130577647Y-49495333D01*
X130579032Y-49493456D01*
X130572707Y-49492159D01*
X130557330Y-49490893D01*
X130534433Y-49489726D01*
X130505550Y-49488728D01*
X130472211Y-49487968D01*
X130450461Y-49487652D01*
X130326271Y-49486229D01*
X130324718Y-49456914D01*
X130324489Y-49440100D01*
X130325545Y-49427833D01*
X130326922Y-49423841D01*
X130332986Y-49422877D01*
X130348265Y-49422004D01*
X130371394Y-49421255D01*
X130401005Y-49420665D01*
X130435732Y-49420265D01*
X130474207Y-49420088D01*
X130482437Y-49420083D01*
X130529274Y-49420022D01*
X130566604Y-49420121D01*
G37*
G36*
X133070703Y-44698746D02*
G01*
X133064262Y-44709959D01*
X133054036Y-44726539D01*
X133041413Y-44746218D01*
X133014575Y-44788368D01*
X132989174Y-44830494D01*
X132964003Y-44874750D01*
X132937858Y-44923288D01*
X132909532Y-44978263D01*
X132892537Y-45012125D01*
X132811781Y-45185492D01*
X132738731Y-45365742D01*
X132673533Y-45552349D01*
X132616336Y-45744786D01*
X132567287Y-45942528D01*
X132526534Y-46145049D01*
X132494223Y-46351821D01*
X132477513Y-46491145D01*
X132472072Y-46544135D01*
X132467497Y-46592553D01*
X132463720Y-46638011D01*
X132460668Y-46682124D01*
X132458273Y-46726506D01*
X132456464Y-46772770D01*
X132455170Y-46822531D01*
X132454322Y-46877401D01*
X132453849Y-46938995D01*
X132453681Y-47008927D01*
X132453684Y-47038833D01*
X132453835Y-47111494D01*
X132454257Y-47175452D01*
X132455047Y-47232587D01*
X132456298Y-47284778D01*
X132458107Y-47333904D01*
X132460569Y-47381844D01*
X132463780Y-47430478D01*
X132467833Y-47481684D01*
X132472826Y-47537343D01*
X132478852Y-47599333D01*
X132485359Y-47663250D01*
X132500179Y-47814840D01*
X132512460Y-47958856D01*
X132522342Y-48097965D01*
X132529963Y-48234833D01*
X132535462Y-48372125D01*
X132538977Y-48512508D01*
X132540647Y-48658647D01*
X132540834Y-48730693D01*
X132540459Y-48837991D01*
X132539288Y-48937001D01*
X132537251Y-49029993D01*
X132534280Y-49119237D01*
X132530305Y-49207004D01*
X132525256Y-49295563D01*
X132522138Y-49343354D01*
X132503961Y-49567054D01*
X132480151Y-49786328D01*
X132450857Y-50000214D01*
X132416228Y-50207750D01*
X132376411Y-50407975D01*
X132331555Y-50599928D01*
X132323386Y-50631875D01*
X132313462Y-50669151D01*
X132302331Y-50709206D01*
X132290409Y-50750698D01*
X132278114Y-50792285D01*
X132265863Y-50832625D01*
X132254073Y-50870377D01*
X132243160Y-50904199D01*
X132233543Y-50932749D01*
X132225637Y-50954686D01*
X132219860Y-50968667D01*
X132217382Y-50972922D01*
X132215028Y-50975423D01*
X132213664Y-50975886D01*
X132213485Y-50972821D01*
X132214686Y-50964738D01*
X132217460Y-50950145D01*
X132222003Y-50927554D01*
X132225630Y-50909678D01*
X132242290Y-50823076D01*
X132258852Y-50728381D01*
X132274930Y-50628080D01*
X132290137Y-50524661D01*
X132304085Y-50420610D01*
X132312889Y-50348770D01*
X132335451Y-50131111D01*
X132351882Y-49914859D01*
X132362197Y-49700864D01*
X132366412Y-49489978D01*
X132364542Y-49283055D01*
X132356602Y-49080945D01*
X132342606Y-48884500D01*
X132322571Y-48694572D01*
X132296510Y-48512014D01*
X132278553Y-48409375D01*
X132234869Y-48204172D01*
X132181478Y-48002308D01*
X132118551Y-47804177D01*
X132046259Y-47610172D01*
X131964774Y-47420688D01*
X131874266Y-47236119D01*
X131774907Y-47056859D01*
X131666868Y-46883301D01*
X131550322Y-46715841D01*
X131530853Y-46689583D01*
X131454526Y-46591213D01*
X131374401Y-46494910D01*
X131291658Y-46401895D01*
X131207475Y-46313391D01*
X131123031Y-46230619D01*
X131039503Y-46154801D01*
X130958070Y-46087158D01*
X130925760Y-46062220D01*
X130874373Y-46023486D01*
X130901947Y-46006483D01*
X130910751Y-46001106D01*
X130928195Y-45990505D01*
X130953864Y-45974929D01*
X130987341Y-45954631D01*
X131028212Y-45929862D01*
X131076060Y-45900874D01*
X131130470Y-45867918D01*
X131191025Y-45831246D01*
X131257312Y-45791109D01*
X131328913Y-45747760D01*
X131405413Y-45701449D01*
X131486396Y-45652428D01*
X131571447Y-45600950D01*
X131660151Y-45547264D01*
X131752090Y-45491624D01*
X131846850Y-45434280D01*
X131944016Y-45375484D01*
X132043170Y-45315488D01*
X132143899Y-45254543D01*
X132245785Y-45192901D01*
X132348414Y-45130814D01*
X132451369Y-45068532D01*
X132554235Y-45006308D01*
X132656597Y-44944394D01*
X132758038Y-44883040D01*
X132858143Y-44822498D01*
X132930893Y-44778503D01*
X132965432Y-44757668D01*
X132997009Y-44738719D01*
X133024501Y-44722323D01*
X133046786Y-44709144D01*
X133062741Y-44699849D01*
X133071245Y-44695102D01*
X133072325Y-44694625D01*
X133070703Y-44698746D01*
G37*
G36*
X131972906Y-48749849D02*
G01*
X131972938Y-48755579D01*
X131971598Y-48770045D01*
X131969088Y-48791521D01*
X131965605Y-48818277D01*
X131962010Y-48844026D01*
X131938518Y-49019968D01*
X131917382Y-49204022D01*
X131898827Y-49393935D01*
X131883076Y-49587453D01*
X131872996Y-49737583D01*
X131871285Y-49772298D01*
X131869830Y-49815128D01*
X131868631Y-49864677D01*
X131867688Y-49919545D01*
X131867001Y-49978336D01*
X131866569Y-50039651D01*
X131866394Y-50102094D01*
X131866474Y-50164265D01*
X131866810Y-50224769D01*
X131867402Y-50282206D01*
X131868250Y-50335179D01*
X131869353Y-50382290D01*
X131870713Y-50422142D01*
X131872328Y-50453338D01*
X131873001Y-50462541D01*
X131885134Y-50588770D01*
X131900142Y-50704986D01*
X131918102Y-50811384D01*
X131939096Y-50908160D01*
X131963201Y-50995509D01*
X131990497Y-51073625D01*
X132021063Y-51142703D01*
X132054979Y-51202938D01*
X132092322Y-51254526D01*
X132133174Y-51297662D01*
X132177612Y-51332540D01*
X132225716Y-51359355D01*
X132239440Y-51365278D01*
X132292752Y-51381663D01*
X132345977Y-51387510D01*
X132399033Y-51382865D01*
X132451835Y-51367773D01*
X132504301Y-51342280D01*
X132556348Y-51306430D01*
X132607893Y-51260271D01*
X132658853Y-51203847D01*
X132709145Y-51137203D01*
X132739747Y-51091098D01*
X132763177Y-51052314D01*
X132787521Y-51008781D01*
X132811477Y-50963078D01*
X132833747Y-50917786D01*
X132853029Y-50875483D01*
X132868025Y-50838750D01*
X132870902Y-50830878D01*
X132874902Y-50823984D01*
X132877286Y-50823688D01*
X132877020Y-50829775D01*
X132874052Y-50845054D01*
X132868632Y-50868556D01*
X132861008Y-50899309D01*
X132851429Y-50936342D01*
X132840142Y-50978684D01*
X132827395Y-51025364D01*
X132813439Y-51075412D01*
X132807930Y-51094895D01*
X132734212Y-51336903D01*
X132650296Y-51579632D01*
X132556489Y-51822514D01*
X132453100Y-52064984D01*
X132340436Y-52306475D01*
X132218803Y-52546420D01*
X132088510Y-52784253D01*
X131949863Y-53019407D01*
X131803170Y-53251315D01*
X131648738Y-53479411D01*
X131486875Y-53703128D01*
X131317887Y-53921899D01*
X131189166Y-54079395D01*
X131162321Y-54111145D01*
X131133079Y-54145166D01*
X131102196Y-54180628D01*
X131070429Y-54216699D01*
X131038533Y-54252548D01*
X131007266Y-54287344D01*
X130977382Y-54320256D01*
X130949639Y-54350452D01*
X130924791Y-54377101D01*
X130903597Y-54399373D01*
X130886811Y-54416435D01*
X130875189Y-54427457D01*
X130869489Y-54431608D01*
X130869033Y-54431291D01*
X130871677Y-54426055D01*
X130878963Y-54413854D01*
X130889737Y-54396581D01*
X130901209Y-54378647D01*
X130935088Y-54324095D01*
X130971403Y-54261737D01*
X131009012Y-54193728D01*
X131046775Y-54122223D01*
X131083551Y-54049377D01*
X131118199Y-53977345D01*
X131146461Y-53915354D01*
X131223930Y-53727664D01*
X131292683Y-53534663D01*
X131352423Y-53337452D01*
X131402855Y-53137132D01*
X131443680Y-52934804D01*
X131474603Y-52731570D01*
X131482064Y-52669166D01*
X131489246Y-52601150D01*
X131494963Y-52537720D01*
X131499343Y-52476352D01*
X131502518Y-52414524D01*
X131504615Y-52349712D01*
X131505765Y-52279391D01*
X131506098Y-52201039D01*
X131506098Y-52200854D01*
X131505556Y-52115891D01*
X131503889Y-52037548D01*
X131500922Y-51963380D01*
X131496480Y-51890941D01*
X131490387Y-51817785D01*
X131482470Y-51741465D01*
X131472552Y-51659537D01*
X131461418Y-51576437D01*
X131455157Y-51529654D01*
X131449061Y-51480402D01*
X131442956Y-51427105D01*
X131436669Y-51368186D01*
X131430026Y-51302069D01*
X131422855Y-51227177D01*
X131421864Y-51216604D01*
X131421156Y-51204543D01*
X131420358Y-51183190D01*
X131419500Y-51153835D01*
X131418613Y-51117770D01*
X131417728Y-51076284D01*
X131416875Y-51030668D01*
X131416084Y-50982213D01*
X131415722Y-50957312D01*
X131414974Y-50843476D01*
X131416129Y-50737898D01*
X131419315Y-50638402D01*
X131424664Y-50542814D01*
X131432303Y-50448957D01*
X131442362Y-50354656D01*
X131454971Y-50257735D01*
X131458994Y-50229708D01*
X131492413Y-50032325D01*
X131534476Y-49837284D01*
X131584871Y-49645654D01*
X131643284Y-49458503D01*
X131709401Y-49276901D01*
X131782911Y-49101917D01*
X131800749Y-49062895D01*
X131818184Y-49026154D01*
X131837073Y-48987763D01*
X131856811Y-48948824D01*
X131876793Y-48910437D01*
X131896413Y-48873704D01*
X131915065Y-48839726D01*
X131932145Y-48809603D01*
X131947046Y-48784436D01*
X131959165Y-48765325D01*
X131967894Y-48753373D01*
X131972628Y-48749679D01*
X131972906Y-48749849D01*
G37*
%TO.C,R11*%
X67737742Y-77327500D02*
X68212258Y-77327500D01*
X67737742Y-78372500D02*
X68212258Y-78372500D01*
%TO.C,D7*%
X84802500Y-76890000D02*
X84802500Y-78810000D01*
X84802500Y-78810000D02*
X87487500Y-78810000D01*
X87487500Y-76890000D02*
X84802500Y-76890000D01*
%TO.C,F8*%
X80330000Y-56400000D02*
X80330000Y-60990000D01*
X74330000Y-56400000D02*
X80330000Y-56400000D01*
X80330000Y-62610000D02*
X80330000Y-70180000D01*
X80330000Y-71820000D02*
X80330000Y-76400000D01*
X80330000Y-76400000D02*
X74330000Y-76400000D01*
X74330000Y-76400000D02*
X74330000Y-56400000D01*
%TO.C,D8*%
X77365000Y-76890000D02*
X77365000Y-78810000D01*
X77365000Y-78810000D02*
X80050000Y-78810000D01*
X80050000Y-76890000D02*
X77365000Y-76890000D01*
%TO.C,R10*%
X100837742Y-45477500D02*
X101312258Y-45477500D01*
X100837742Y-46522500D02*
X101312258Y-46522500D01*
%TO.C,L1*%
X105460000Y-43560000D02*
X105460000Y-44190000D01*
X105460000Y-43560000D02*
X112540000Y-43560000D01*
X105460000Y-50840000D02*
X105460000Y-50210000D01*
X105460000Y-50840000D02*
X112540000Y-50840000D01*
X112540000Y-43560000D02*
X112540000Y-44190000D01*
X112540000Y-50840000D02*
X112540000Y-50210000D01*
%TO.C,D5*%
X99865000Y-76890000D02*
X99865000Y-78810000D01*
X99865000Y-78810000D02*
X102550000Y-78810000D01*
X102550000Y-76890000D02*
X99865000Y-76890000D01*
%TO.C,TP1*%
X124750000Y-53600000D02*
G75*
G03*
X122850000Y-53600000I-950000J0D01*
G01*
X122850000Y-53600000D02*
G75*
G03*
X124750000Y-53600000I950000J0D01*
G01*
%TO.C,C1*%
X102738748Y-51265000D02*
X103261252Y-51265000D01*
X102738748Y-52735000D02*
X103261252Y-52735000D01*
%TO.C,R5*%
X97812742Y-77327500D02*
X98287258Y-77327500D01*
X97812742Y-78372500D02*
X98287258Y-78372500D01*
%TO.C,F1*%
X133180000Y-56400000D02*
X133180000Y-60990000D01*
X127180000Y-56400000D02*
X133180000Y-56400000D01*
X133180000Y-62610000D02*
X133180000Y-70180000D01*
X133180000Y-71820000D02*
X133180000Y-76400000D01*
X133180000Y-76400000D02*
X127180000Y-76400000D01*
X127180000Y-76400000D02*
X127180000Y-56400000D01*
%TO.C,D1*%
X129927500Y-77140000D02*
X129927500Y-79060000D01*
X129927500Y-79060000D02*
X132612500Y-79060000D01*
X132612500Y-77140000D02*
X129927500Y-77140000D01*
%TO.C,G\u002A\u002A\u002A*%
G36*
X127331200Y-49263552D02*
G01*
X127446722Y-49263613D01*
X127572558Y-49263714D01*
X127709092Y-49263853D01*
X127772794Y-49263927D01*
X128967649Y-49265346D01*
X128969141Y-49430587D01*
X128969460Y-49483891D01*
X128969346Y-49526577D01*
X128968778Y-49559267D01*
X128967741Y-49582585D01*
X128966216Y-49597153D01*
X128964234Y-49603539D01*
X128962108Y-49604439D01*
X128957005Y-49605268D01*
X128948508Y-49606030D01*
X128936198Y-49606727D01*
X128919657Y-49607362D01*
X128898467Y-49607937D01*
X128872210Y-49608455D01*
X128840469Y-49608919D01*
X128802825Y-49609332D01*
X128758860Y-49609696D01*
X128708156Y-49610013D01*
X128650295Y-49610288D01*
X128584860Y-49610521D01*
X128511432Y-49610717D01*
X128429593Y-49610877D01*
X128338925Y-49611005D01*
X128239010Y-49611103D01*
X128129430Y-49611173D01*
X128009768Y-49611219D01*
X127879604Y-49611244D01*
X127769151Y-49611249D01*
X127633052Y-49611248D01*
X127507754Y-49611240D01*
X127392807Y-49611223D01*
X127287763Y-49611192D01*
X127192172Y-49611143D01*
X127105587Y-49611071D01*
X127027557Y-49610973D01*
X126957635Y-49610845D01*
X126895371Y-49610683D01*
X126840316Y-49610482D01*
X126792023Y-49610238D01*
X126750042Y-49609948D01*
X126713924Y-49609607D01*
X126683221Y-49609211D01*
X126657483Y-49608756D01*
X126636263Y-49608239D01*
X126619110Y-49607654D01*
X126605577Y-49606997D01*
X126595214Y-49606266D01*
X126587573Y-49605455D01*
X126582205Y-49604561D01*
X126578661Y-49603579D01*
X126576493Y-49602505D01*
X126575251Y-49601336D01*
X126574644Y-49600370D01*
X126573109Y-49592009D01*
X126571801Y-49574267D01*
X126570726Y-49548926D01*
X126569889Y-49517766D01*
X126569299Y-49482570D01*
X126568961Y-49445120D01*
X126568881Y-49407196D01*
X126569065Y-49370581D01*
X126569521Y-49337057D01*
X126570254Y-49308404D01*
X126571271Y-49286406D01*
X126572578Y-49272843D01*
X126573467Y-49269551D01*
X126575986Y-49268720D01*
X126582698Y-49267958D01*
X126593985Y-49267264D01*
X126610231Y-49266635D01*
X126631818Y-49266070D01*
X126659128Y-49265567D01*
X126692545Y-49265124D01*
X126732450Y-49264740D01*
X126779227Y-49264412D01*
X126833257Y-49264139D01*
X126894924Y-49263919D01*
X126964611Y-49263750D01*
X127042699Y-49263631D01*
X127129571Y-49263559D01*
X127225611Y-49263534D01*
X127331200Y-49263552D01*
G37*
G36*
X127221338Y-49876249D02*
G01*
X127281592Y-49880110D01*
X127354153Y-49893298D01*
X127415301Y-49910565D01*
X127490000Y-49940901D01*
X127560498Y-49981058D01*
X127625755Y-50030063D01*
X127684735Y-50086942D01*
X127736398Y-50150720D01*
X127779708Y-50220425D01*
X127806801Y-50277746D01*
X127813150Y-50295466D01*
X127820948Y-50320500D01*
X127829165Y-50349192D01*
X127836773Y-50377883D01*
X127842746Y-50402915D01*
X127844827Y-50413071D01*
X127850688Y-50461951D01*
X127851860Y-50517420D01*
X127848620Y-50575977D01*
X127841247Y-50634117D01*
X127830021Y-50688340D01*
X127820275Y-50721345D01*
X127815803Y-50737780D01*
X127814591Y-50749877D01*
X127815676Y-50753489D01*
X127822902Y-50755508D01*
X127838931Y-50757401D01*
X127861318Y-50758941D01*
X127885027Y-50759846D01*
X127949624Y-50761449D01*
X127951112Y-50931610D01*
X127952601Y-51101772D01*
X127262118Y-51100344D01*
X126571634Y-51098915D01*
X126570057Y-50941431D01*
X126569752Y-50899862D01*
X126569684Y-50861496D01*
X126569838Y-50827914D01*
X126570200Y-50800695D01*
X126570756Y-50781417D01*
X126571492Y-50771660D01*
X126571570Y-50771291D01*
X126577420Y-50761484D01*
X126590237Y-50758637D01*
X126590490Y-50758636D01*
X126603007Y-50757699D01*
X126609249Y-50755706D01*
X126609052Y-50749325D01*
X126605780Y-50735281D01*
X126600129Y-50716509D01*
X126599608Y-50714929D01*
X126591928Y-50690603D01*
X126584710Y-50665736D01*
X126580323Y-50648960D01*
X126577298Y-50630138D01*
X126574802Y-50602916D01*
X126572911Y-50570133D01*
X126571702Y-50534628D01*
X126571441Y-50514163D01*
X126974644Y-50514163D01*
X126975076Y-50542039D01*
X126976920Y-50566482D01*
X126980209Y-50583839D01*
X126980222Y-50583879D01*
X126998527Y-50627244D01*
X127023529Y-50666406D01*
X127040784Y-50686213D01*
X127056288Y-50700519D01*
X127073502Y-50713265D01*
X127094981Y-50726060D01*
X127123283Y-50740512D01*
X127138802Y-50747927D01*
X127154540Y-50752145D01*
X127178021Y-50754682D01*
X127205867Y-50755542D01*
X127234700Y-50754732D01*
X127261141Y-50752255D01*
X127281812Y-50748117D01*
X127283127Y-50747710D01*
X127326143Y-50728551D01*
X127364355Y-50701067D01*
X127396783Y-50666877D01*
X127422452Y-50627601D01*
X127440384Y-50584860D01*
X127449600Y-50540273D01*
X127449125Y-50495460D01*
X127445990Y-50477781D01*
X127428823Y-50425462D01*
X127403003Y-50380176D01*
X127368756Y-50342217D01*
X127326309Y-50311878D01*
X127312430Y-50304514D01*
X127292669Y-50295021D01*
X127277249Y-50288906D01*
X127262601Y-50285435D01*
X127245154Y-50283873D01*
X127221338Y-50283484D01*
X127210301Y-50283491D01*
X127183085Y-50283764D01*
X127163521Y-50284941D01*
X127148015Y-50287753D01*
X127132970Y-50292930D01*
X127114791Y-50301204D01*
X127108706Y-50304148D01*
X127063644Y-50331983D01*
X127026430Y-50367868D01*
X126997047Y-50411825D01*
X126981484Y-50446458D01*
X126977881Y-50462720D01*
X126975590Y-50486506D01*
X126974644Y-50514163D01*
X126571441Y-50514163D01*
X126571250Y-50499241D01*
X126571632Y-50466811D01*
X126572923Y-50440177D01*
X126574365Y-50426794D01*
X126584632Y-50372016D01*
X126597640Y-50323831D01*
X126608357Y-50294619D01*
X126628328Y-50250027D01*
X126649160Y-50208457D01*
X126669759Y-50171856D01*
X126689032Y-50142175D01*
X126705018Y-50122267D01*
X126712730Y-50113193D01*
X126723563Y-50099412D01*
X126727912Y-50093660D01*
X126748643Y-50070188D01*
X126777241Y-50043828D01*
X126811337Y-50016357D01*
X126848560Y-49989554D01*
X126886543Y-49965195D01*
X126922915Y-49945058D01*
X126931599Y-49940835D01*
X126950585Y-49931843D01*
X126966528Y-49924189D01*
X126975112Y-49919962D01*
X126987847Y-49915645D01*
X126993468Y-49914969D01*
X127005732Y-49912437D01*
X127011824Y-49909871D01*
X127031325Y-49902301D01*
X127059316Y-49894870D01*
X127093043Y-49888048D01*
X127129751Y-49882301D01*
X127166688Y-49878099D01*
X127201097Y-49875910D01*
X127212821Y-49875703D01*
X127221338Y-49876249D01*
G37*
G36*
X127244608Y-47721762D02*
G01*
X127294787Y-47725547D01*
X127371299Y-47740834D01*
X127446354Y-47765295D01*
X127508105Y-47793320D01*
X127528913Y-47804527D01*
X127545562Y-47814257D01*
X127555753Y-47821125D01*
X127557787Y-47823220D01*
X127564221Y-47828164D01*
X127565645Y-47828300D01*
X127574990Y-47832202D01*
X127590289Y-47842907D01*
X127609911Y-47858910D01*
X127632224Y-47878708D01*
X127655596Y-47900795D01*
X127678396Y-47923668D01*
X127698992Y-47945824D01*
X127715752Y-47965757D01*
X127718174Y-47968911D01*
X127738018Y-47996747D01*
X127757516Y-48026846D01*
X127775575Y-48057218D01*
X127791102Y-48085876D01*
X127803004Y-48110831D01*
X127810188Y-48130092D01*
X127811825Y-48139309D01*
X127814561Y-48148970D01*
X127816778Y-48151290D01*
X127821841Y-48158700D01*
X127824645Y-48167090D01*
X127833715Y-48207260D01*
X127840456Y-48239010D01*
X127845211Y-48264849D01*
X127848321Y-48287285D01*
X127850127Y-48308826D01*
X127850969Y-48331980D01*
X127851190Y-48359255D01*
X127851191Y-48362225D01*
X127849298Y-48422082D01*
X127843314Y-48474464D01*
X127832770Y-48522547D01*
X127822819Y-48554228D01*
X127815834Y-48574337D01*
X127812407Y-48588175D01*
X127813913Y-48596966D01*
X127821730Y-48601932D01*
X127837233Y-48604297D01*
X127861797Y-48605284D01*
X127880724Y-48605706D01*
X127949624Y-48607286D01*
X127949624Y-48776019D01*
X127949624Y-48944752D01*
X127262148Y-48946181D01*
X126574672Y-48947609D01*
X126571575Y-48934932D01*
X126570822Y-48926138D01*
X126570247Y-48907677D01*
X126569865Y-48881127D01*
X126569690Y-48848067D01*
X126569736Y-48810079D01*
X126570018Y-48768740D01*
X126570057Y-48764770D01*
X126571634Y-48607286D01*
X126593187Y-48605512D01*
X126607015Y-48603475D01*
X126611869Y-48599542D01*
X126610898Y-48594264D01*
X126605278Y-48578611D01*
X126598039Y-48556049D01*
X126590392Y-48530556D01*
X126583548Y-48506110D01*
X126580625Y-48494797D01*
X126577969Y-48478542D01*
X126575566Y-48453797D01*
X126573527Y-48423321D01*
X126571967Y-48389871D01*
X126571104Y-48359889D01*
X126974381Y-48359889D01*
X126975131Y-48393246D01*
X126978602Y-48419351D01*
X126984508Y-48439934D01*
X126997044Y-48469776D01*
X127011826Y-48494562D01*
X127031604Y-48518375D01*
X127049135Y-48535929D01*
X127081225Y-48561008D01*
X127119038Y-48581702D01*
X127159034Y-48596504D01*
X127197674Y-48603908D01*
X127210203Y-48604473D01*
X127252937Y-48599328D01*
X127296231Y-48584900D01*
X127337624Y-48562697D01*
X127374652Y-48534229D01*
X127404852Y-48501007D01*
X127420783Y-48475393D01*
X127440573Y-48427693D01*
X127450023Y-48382386D01*
X127449343Y-48337967D01*
X127443957Y-48310329D01*
X127428648Y-48265512D01*
X127407229Y-48227285D01*
X127378539Y-48194423D01*
X127341420Y-48165697D01*
X127294716Y-48139882D01*
X127274320Y-48130626D01*
X127263554Y-48128711D01*
X127244608Y-48127805D01*
X127220497Y-48127820D01*
X127194235Y-48128662D01*
X127168837Y-48130242D01*
X127147319Y-48132468D01*
X127134079Y-48134865D01*
X127113560Y-48143161D01*
X127088918Y-48157440D01*
X127063533Y-48175305D01*
X127040783Y-48194358D01*
X127024048Y-48212199D01*
X127022858Y-48213794D01*
X127001349Y-48246089D01*
X126987091Y-48275162D01*
X126978745Y-48305055D01*
X126974969Y-48339806D01*
X126974381Y-48359889D01*
X126571104Y-48359889D01*
X126570998Y-48356207D01*
X126570731Y-48325085D01*
X126571281Y-48299264D01*
X126572123Y-48286692D01*
X126581344Y-48230020D01*
X126597501Y-48170286D01*
X126619191Y-48111604D01*
X126645011Y-48058087D01*
X126657024Y-48037701D01*
X126666838Y-48021286D01*
X126673598Y-48008393D01*
X126675687Y-48002548D01*
X126679126Y-47997169D01*
X126680098Y-47997033D01*
X126685590Y-47992662D01*
X126693404Y-47981908D01*
X126694844Y-47979540D01*
X126706620Y-47963091D01*
X126724792Y-47941796D01*
X126747097Y-47917994D01*
X126771273Y-47894021D01*
X126795059Y-47872216D01*
X126813301Y-47857115D01*
X126840570Y-47837448D01*
X126871626Y-47817229D01*
X126902340Y-47799025D01*
X126928577Y-47785407D01*
X126928845Y-47785284D01*
X126966766Y-47768290D01*
X126998915Y-47755329D01*
X127028549Y-47745480D01*
X127058923Y-47737820D01*
X127093294Y-47731429D01*
X127134916Y-47725384D01*
X127145328Y-47724015D01*
X127218802Y-47719815D01*
X127244608Y-47721762D01*
G37*
G36*
X127983348Y-51444797D02*
G01*
X128006110Y-51467805D01*
X128025802Y-51488286D01*
X128041137Y-51504854D01*
X128050831Y-51516125D01*
X128053676Y-51520529D01*
X128049833Y-51525635D01*
X128038884Y-51537767D01*
X128021701Y-51556017D01*
X127999157Y-51579479D01*
X127972121Y-51607247D01*
X127941467Y-51638416D01*
X127908066Y-51672077D01*
X127903978Y-51676177D01*
X127870415Y-51710011D01*
X127839609Y-51741425D01*
X127812412Y-51769523D01*
X127789679Y-51793405D01*
X127772264Y-51812175D01*
X127761020Y-51824933D01*
X127756801Y-51830782D01*
X127756811Y-51830985D01*
X127762520Y-51842694D01*
X127771068Y-51861367D01*
X127780953Y-51883593D01*
X127790672Y-51905957D01*
X127798725Y-51925047D01*
X127803434Y-51936958D01*
X127812398Y-51967106D01*
X127820625Y-52004402D01*
X127827427Y-52044743D01*
X127832120Y-52084029D01*
X127834016Y-52118157D01*
X127834025Y-52119752D01*
X127833005Y-52143031D01*
X127830209Y-52171876D01*
X127826192Y-52200850D01*
X127825158Y-52206931D01*
X127820778Y-52231934D01*
X127816850Y-52254835D01*
X127814023Y-52271848D01*
X127813386Y-52275883D01*
X127810065Y-52289381D01*
X127805832Y-52297130D01*
X127805579Y-52297306D01*
X127801131Y-52304990D01*
X127800576Y-52309481D01*
X127798174Y-52318296D01*
X127791736Y-52334326D01*
X127782419Y-52354806D01*
X127777083Y-52365765D01*
X127753589Y-52412967D01*
X127903633Y-52563088D01*
X127937359Y-52596977D01*
X127968438Y-52628487D01*
X127995999Y-52656712D01*
X128019169Y-52680748D01*
X128037077Y-52699689D01*
X128048850Y-52712628D01*
X128053616Y-52718662D01*
X128053676Y-52718882D01*
X128049794Y-52725161D01*
X128039245Y-52737403D01*
X128023678Y-52753993D01*
X128004742Y-52773317D01*
X127984084Y-52793760D01*
X127963352Y-52813709D01*
X127944195Y-52831549D01*
X127928261Y-52845665D01*
X127917198Y-52854444D01*
X127913121Y-52856555D01*
X127907379Y-52852706D01*
X127894668Y-52841755D01*
X127875930Y-52824592D01*
X127852111Y-52802109D01*
X127824154Y-52775196D01*
X127793004Y-52744744D01*
X127760370Y-52712407D01*
X127615830Y-52568258D01*
X127594308Y-52581221D01*
X127577252Y-52591742D01*
X127561748Y-52601700D01*
X127558725Y-52603722D01*
X127523910Y-52623750D01*
X127480910Y-52642729D01*
X127432789Y-52659443D01*
X127387179Y-52671653D01*
X127359171Y-52676204D01*
X127324752Y-52678921D01*
X127286276Y-52679909D01*
X127246095Y-52679271D01*
X127206561Y-52677114D01*
X127170027Y-52673541D01*
X127138844Y-52668657D01*
X127115365Y-52662567D01*
X127107439Y-52659203D01*
X127094754Y-52654779D01*
X127089083Y-52654075D01*
X127076756Y-52651604D01*
X127070728Y-52649142D01*
X127061248Y-52644440D01*
X127044794Y-52636354D01*
X127024502Y-52626427D01*
X127019016Y-52623749D01*
X126977070Y-52603289D01*
X126845967Y-52733959D01*
X126714863Y-52864629D01*
X126644655Y-52794589D01*
X126621910Y-52771587D01*
X126602238Y-52751096D01*
X126586926Y-52734508D01*
X126577261Y-52723210D01*
X126574447Y-52718791D01*
X126578284Y-52713520D01*
X126589147Y-52701359D01*
X126606062Y-52683330D01*
X126628055Y-52660450D01*
X126654152Y-52633739D01*
X126683379Y-52604218D01*
X126695372Y-52592206D01*
X126725569Y-52561812D01*
X126753010Y-52533766D01*
X126776721Y-52509099D01*
X126795725Y-52488841D01*
X126809048Y-52474023D01*
X126815713Y-52465677D01*
X126816298Y-52464408D01*
X126813436Y-52456325D01*
X126805970Y-52442136D01*
X126796612Y-52426664D01*
X126786458Y-52410007D01*
X126779349Y-52396851D01*
X126776927Y-52390465D01*
X126773267Y-52383522D01*
X126772591Y-52383164D01*
X126767820Y-52376775D01*
X126760599Y-52361954D01*
X126751825Y-52341010D01*
X126742395Y-52316250D01*
X126733205Y-52289983D01*
X126725152Y-52264516D01*
X126721596Y-52251927D01*
X126708753Y-52182930D01*
X126705800Y-52110944D01*
X126712437Y-52037741D01*
X126728363Y-51965095D01*
X126753278Y-51894778D01*
X126786880Y-51828563D01*
X126795822Y-51814077D01*
X126806233Y-51796826D01*
X126813606Y-51782749D01*
X126816298Y-51775097D01*
X126812456Y-51769518D01*
X126801581Y-51757070D01*
X126784649Y-51738785D01*
X126762635Y-51715693D01*
X126736515Y-51688826D01*
X126707264Y-51659214D01*
X126695372Y-51647299D01*
X126665192Y-51616960D01*
X126637763Y-51589036D01*
X126614059Y-51564547D01*
X126595055Y-51544511D01*
X126581725Y-51529948D01*
X126575041Y-51521879D01*
X126574447Y-51520713D01*
X126578250Y-51515055D01*
X126588805Y-51502913D01*
X126604824Y-51485677D01*
X126625022Y-51464734D01*
X126644772Y-51444799D01*
X126715097Y-51374643D01*
X126845846Y-51505297D01*
X126976594Y-51635951D01*
X127001904Y-51623211D01*
X127033279Y-51608116D01*
X127062310Y-51595446D01*
X127086899Y-51586029D01*
X127104945Y-51580698D01*
X127111620Y-51579805D01*
X127123159Y-51577993D01*
X127127958Y-51574985D01*
X127135670Y-51571232D01*
X127152594Y-51567890D01*
X127176699Y-51565042D01*
X127205952Y-51562774D01*
X127238322Y-51561170D01*
X127271777Y-51560316D01*
X127304286Y-51560297D01*
X127333815Y-51561197D01*
X127358334Y-51563101D01*
X127370306Y-51564857D01*
X127424602Y-51578183D01*
X127478950Y-51596996D01*
X127529845Y-51619869D01*
X127573783Y-51645375D01*
X127581976Y-51651060D01*
X127596983Y-51661282D01*
X127608483Y-51668087D01*
X127612871Y-51669797D01*
X127617812Y-51665953D01*
X127629772Y-51655006D01*
X127647844Y-51637835D01*
X127671120Y-51615319D01*
X127698692Y-51588336D01*
X127729652Y-51557765D01*
X127763094Y-51524483D01*
X127765362Y-51522217D01*
X127913020Y-51374637D01*
X127983348Y-51444797D01*
G37*
G36*
X127583440Y-53092782D02*
G01*
X127952436Y-53092782D01*
X127952436Y-53258243D01*
X127952323Y-53300618D01*
X127952005Y-53339586D01*
X127951510Y-53373657D01*
X127950868Y-53401342D01*
X127950107Y-53421150D01*
X127949258Y-53431593D01*
X127949022Y-53432601D01*
X127947463Y-53434416D01*
X127943745Y-53435971D01*
X127937062Y-53437283D01*
X127926606Y-53438375D01*
X127911570Y-53439266D01*
X127891145Y-53439976D01*
X127864526Y-53440525D01*
X127830903Y-53440935D01*
X127789470Y-53441224D01*
X127739419Y-53441413D01*
X127679943Y-53441523D01*
X127610234Y-53441573D01*
X127590463Y-53441579D01*
X127516676Y-53441596D01*
X127453228Y-53441653D01*
X127399212Y-53441813D01*
X127353719Y-53442139D01*
X127315840Y-53442696D01*
X127284667Y-53443546D01*
X127259290Y-53444753D01*
X127238802Y-53446380D01*
X127222294Y-53448491D01*
X127208856Y-53451149D01*
X127197581Y-53454418D01*
X127187560Y-53458360D01*
X127177883Y-53463040D01*
X127167643Y-53468521D01*
X127162233Y-53471470D01*
X127115521Y-53503123D01*
X127076139Y-53543205D01*
X127044335Y-53591401D01*
X127020358Y-53647399D01*
X127018988Y-53651575D01*
X127015577Y-53669238D01*
X127013475Y-53694700D01*
X127012669Y-53724589D01*
X127013146Y-53755534D01*
X127014893Y-53784163D01*
X127017899Y-53807104D01*
X127019602Y-53814477D01*
X127027169Y-53833704D01*
X127038398Y-53854150D01*
X127050771Y-53871700D01*
X127060664Y-53881524D01*
X127067093Y-53882174D01*
X127083908Y-53882795D01*
X127110244Y-53883379D01*
X127145238Y-53883917D01*
X127188027Y-53884401D01*
X127237746Y-53884824D01*
X127293532Y-53885176D01*
X127354522Y-53885451D01*
X127419851Y-53885639D01*
X127488656Y-53885734D01*
X127509593Y-53885742D01*
X127952601Y-53885829D01*
X127951112Y-54055968D01*
X127949624Y-54226108D01*
X126892228Y-54227751D01*
X126762773Y-54227949D01*
X126644068Y-54228117D01*
X126535611Y-54228250D01*
X126436903Y-54228338D01*
X126347444Y-54228376D01*
X126266733Y-54228355D01*
X126194271Y-54228269D01*
X126129558Y-54228111D01*
X126072093Y-54227872D01*
X126021377Y-54227545D01*
X125976909Y-54227124D01*
X125938189Y-54226601D01*
X125904718Y-54225969D01*
X125875996Y-54225221D01*
X125851521Y-54224348D01*
X125830795Y-54223345D01*
X125813318Y-54222203D01*
X125798588Y-54220916D01*
X125786107Y-54219475D01*
X125775373Y-54217875D01*
X125765888Y-54216107D01*
X125757151Y-54214164D01*
X125748662Y-54212039D01*
X125744841Y-54211035D01*
X125721338Y-54203980D01*
X125696039Y-54195049D01*
X125671364Y-54185265D01*
X125649735Y-54175653D01*
X125633573Y-54167236D01*
X125625298Y-54161039D01*
X125624853Y-54160285D01*
X125618415Y-54155877D01*
X125617362Y-54155802D01*
X125607586Y-54151824D01*
X125592220Y-54140995D01*
X125573034Y-54124970D01*
X125551796Y-54105407D01*
X125530278Y-54083961D01*
X125510247Y-54062289D01*
X125493473Y-54042047D01*
X125488181Y-54034876D01*
X125469142Y-54005367D01*
X125452719Y-53973842D01*
X125437938Y-53937958D01*
X125423822Y-53895373D01*
X125410674Y-53848591D01*
X125408190Y-53833841D01*
X125405894Y-53810653D01*
X125403906Y-53781840D01*
X125402348Y-53750214D01*
X125401342Y-53718585D01*
X125401008Y-53689766D01*
X125401469Y-53666568D01*
X125402324Y-53655226D01*
X125415799Y-53588962D01*
X125439544Y-53523664D01*
X125472617Y-53461225D01*
X125514077Y-53403534D01*
X125544077Y-53370481D01*
X125601263Y-53320895D01*
X125665549Y-53279822D01*
X125721624Y-53253430D01*
X125738608Y-53246991D01*
X125751256Y-53244458D01*
X125761970Y-53246849D01*
X125773147Y-53255184D01*
X125787189Y-53270483D01*
X125801085Y-53287191D01*
X125817859Y-53307369D01*
X125836777Y-53329827D01*
X125847884Y-53342862D01*
X125862103Y-53359442D01*
X125874668Y-53374099D01*
X125881814Y-53382441D01*
X125890065Y-53392210D01*
X125902883Y-53407526D01*
X125917659Y-53425273D01*
X125919382Y-53427347D01*
X125934274Y-53445174D01*
X125947587Y-53460914D01*
X125956683Y-53471449D01*
X125957336Y-53472182D01*
X125964333Y-53483192D01*
X125965773Y-53490912D01*
X125960368Y-53496859D01*
X125947339Y-53506139D01*
X125929133Y-53517071D01*
X125922011Y-53520966D01*
X125885588Y-53542413D01*
X125849119Y-53567473D01*
X125815556Y-53593896D01*
X125787852Y-53619429D01*
X125776527Y-53631865D01*
X125757461Y-53659665D01*
X125744409Y-53689111D01*
X125738505Y-53717106D01*
X125739177Y-53733876D01*
X125743113Y-53751529D01*
X125748444Y-53770204D01*
X125753952Y-53786072D01*
X125758420Y-53795304D01*
X125758881Y-53795837D01*
X125763190Y-53802366D01*
X125769748Y-53814357D01*
X125770160Y-53815160D01*
X125779790Y-53828182D01*
X125794691Y-53842536D01*
X125802894Y-53848907D01*
X125811674Y-53855217D01*
X125819529Y-53860695D01*
X125827283Y-53865402D01*
X125835758Y-53869399D01*
X125845777Y-53872750D01*
X125858162Y-53875515D01*
X125873735Y-53877758D01*
X125893320Y-53879540D01*
X125917738Y-53880923D01*
X125947813Y-53881969D01*
X125984366Y-53882741D01*
X126028221Y-53883299D01*
X126080200Y-53883707D01*
X126141125Y-53884026D01*
X126211819Y-53884319D01*
X126275859Y-53884575D01*
X126342553Y-53884790D01*
X126405956Y-53884877D01*
X126465171Y-53884844D01*
X126519301Y-53884696D01*
X126567452Y-53884438D01*
X126608725Y-53884078D01*
X126642224Y-53883622D01*
X126667053Y-53883074D01*
X126682316Y-53882441D01*
X126687120Y-53881821D01*
X126688108Y-53874378D01*
X126686661Y-53859498D01*
X126683756Y-53843645D01*
X126680421Y-53821153D01*
X126678034Y-53790672D01*
X126676625Y-53755338D01*
X126676222Y-53718287D01*
X126676855Y-53682656D01*
X126678553Y-53651581D01*
X126681344Y-53628198D01*
X126681740Y-53626127D01*
X126688159Y-53596537D01*
X126695340Y-53566915D01*
X126702443Y-53540488D01*
X126708624Y-53520481D01*
X126710807Y-53514615D01*
X126716905Y-53499289D01*
X126720707Y-53489305D01*
X126745014Y-53434722D01*
X126777566Y-53378827D01*
X126816270Y-53324737D01*
X126859031Y-53275569D01*
X126875004Y-53259684D01*
X126919837Y-53221690D01*
X126971122Y-53186232D01*
X127025655Y-53155170D01*
X127080229Y-53130362D01*
X127122830Y-53115971D01*
X127139377Y-53111408D01*
X127154194Y-53107487D01*
X127168244Y-53104159D01*
X127182493Y-53101375D01*
X127197905Y-53099086D01*
X127215443Y-53097245D01*
X127236073Y-53095802D01*
X127260757Y-53094709D01*
X127290462Y-53093917D01*
X127326151Y-53093378D01*
X127368788Y-53093044D01*
X127419338Y-53092865D01*
X127478765Y-53092794D01*
X127548033Y-53092781D01*
X127583440Y-53092782D01*
G37*
G36*
X127951757Y-44866203D02*
G01*
X127982864Y-44867922D01*
X128020423Y-44871161D01*
X128031178Y-44872207D01*
X128088643Y-44878337D01*
X128137695Y-44884720D01*
X128181164Y-44891891D01*
X128221882Y-44900385D01*
X128262681Y-44910735D01*
X128306393Y-44923478D01*
X128312401Y-44925327D01*
X128359319Y-44940685D01*
X128402892Y-44956571D01*
X128440667Y-44972033D01*
X128470194Y-44986120D01*
X128472944Y-44987606D01*
X128489945Y-44996560D01*
X128503079Y-45002787D01*
X128508996Y-45004828D01*
X128517338Y-45007745D01*
X128533179Y-45015754D01*
X128554634Y-45027740D01*
X128579820Y-45042586D01*
X128606854Y-45059178D01*
X128633853Y-45076399D01*
X128658933Y-45093135D01*
X128663928Y-45096587D01*
X128761242Y-45170901D01*
X128849958Y-45252335D01*
X128929905Y-45340691D01*
X129000912Y-45435768D01*
X129062807Y-45537369D01*
X129091271Y-45592582D01*
X129105012Y-45620930D01*
X129115033Y-45641910D01*
X129122511Y-45658282D01*
X129128623Y-45672804D01*
X129134546Y-45688235D01*
X129141457Y-45707336D01*
X129147651Y-45724757D01*
X129164541Y-45774184D01*
X129178366Y-45819411D01*
X129189820Y-45863428D01*
X129199599Y-45909226D01*
X129208400Y-45959796D01*
X129216918Y-46018129D01*
X129218314Y-46028477D01*
X129220768Y-46055867D01*
X129222177Y-46092282D01*
X129222496Y-46135542D01*
X129221684Y-46183149D01*
X129219742Y-46237862D01*
X129217140Y-46283764D01*
X129213634Y-46323289D01*
X129208979Y-46358867D01*
X129202930Y-46392931D01*
X129198508Y-46413751D01*
X129193459Y-46437107D01*
X129188957Y-46459307D01*
X129186184Y-46474351D01*
X129182739Y-46488834D01*
X129178663Y-46497793D01*
X129177806Y-46498587D01*
X129173864Y-46506012D01*
X129172859Y-46513917D01*
X129170331Y-46529459D01*
X129163422Y-46553133D01*
X129152927Y-46583085D01*
X129139640Y-46617458D01*
X129124355Y-46654398D01*
X129107869Y-46692051D01*
X129090975Y-46728560D01*
X129074468Y-46762072D01*
X129059144Y-46790730D01*
X129045796Y-46812680D01*
X129043329Y-46816249D01*
X129035768Y-46828566D01*
X129032347Y-46837490D01*
X129032330Y-46837859D01*
X129028360Y-46843748D01*
X129026705Y-46844022D01*
X129021308Y-46848354D01*
X129021081Y-46850044D01*
X129017696Y-46858156D01*
X129008277Y-46873413D01*
X128993930Y-46894270D01*
X128975757Y-46919178D01*
X128954864Y-46946589D01*
X128932354Y-46974956D01*
X128929061Y-46979008D01*
X128907658Y-47004063D01*
X128881698Y-47032596D01*
X128853254Y-47062501D01*
X128824397Y-47091672D01*
X128797198Y-47118005D01*
X128773727Y-47139395D01*
X128760298Y-47150554D01*
X128743650Y-47163756D01*
X128727996Y-47176578D01*
X128723757Y-47180165D01*
X128700954Y-47197870D01*
X128670159Y-47219087D01*
X128633560Y-47242538D01*
X128593345Y-47266949D01*
X128551703Y-47291043D01*
X128510820Y-47313544D01*
X128472885Y-47333178D01*
X128440086Y-47348667D01*
X128422077Y-47356089D01*
X128409314Y-47361176D01*
X128393046Y-47367990D01*
X128391143Y-47368808D01*
X128348313Y-47384955D01*
X128296362Y-47400684D01*
X128237416Y-47415488D01*
X128173602Y-47428858D01*
X128107047Y-47440288D01*
X128068913Y-47445712D01*
X128056320Y-47446636D01*
X128033747Y-47447482D01*
X128001997Y-47448252D01*
X127961874Y-47448945D01*
X127914182Y-47449563D01*
X127859725Y-47450106D01*
X127799307Y-47450574D01*
X127733731Y-47450968D01*
X127663802Y-47451289D01*
X127590322Y-47451536D01*
X127514097Y-47451712D01*
X127435929Y-47451815D01*
X127356622Y-47451847D01*
X127276981Y-47451808D01*
X127197808Y-47451699D01*
X127119909Y-47451520D01*
X127044086Y-47451272D01*
X126971144Y-47450956D01*
X126901886Y-47450571D01*
X126837115Y-47450118D01*
X126777637Y-47449599D01*
X126724255Y-47449013D01*
X126677772Y-47448361D01*
X126638992Y-47447644D01*
X126608719Y-47446862D01*
X126587757Y-47446015D01*
X126576909Y-47445105D01*
X126575571Y-47444712D01*
X126573662Y-47439599D01*
X126572109Y-47427942D01*
X126570887Y-47408977D01*
X126569973Y-47381940D01*
X126569340Y-47346068D01*
X126568966Y-47300597D01*
X126568825Y-47244764D01*
X126568822Y-47234921D01*
X126568902Y-47191722D01*
X126693593Y-47191722D01*
X126693600Y-47220011D01*
X126693829Y-47237402D01*
X126695372Y-47324912D01*
X127346402Y-47326341D01*
X127997432Y-47327771D01*
X127997432Y-46875972D01*
X127997432Y-46424174D01*
X128036925Y-46397189D01*
X128083049Y-46359664D01*
X128119395Y-46316689D01*
X128146200Y-46267942D01*
X128159982Y-46228145D01*
X128163455Y-46208146D01*
X128165428Y-46181702D01*
X128165908Y-46152560D01*
X128164899Y-46124468D01*
X128162405Y-46101172D01*
X128159797Y-46089779D01*
X128136027Y-46033644D01*
X128104946Y-45985757D01*
X128066780Y-45946388D01*
X128021755Y-45915804D01*
X128008049Y-45908899D01*
X127978513Y-45896968D01*
X127946571Y-45887249D01*
X127915437Y-45880458D01*
X127888324Y-45877313D01*
X127870262Y-45878146D01*
X127853578Y-45881157D01*
X127834058Y-45884542D01*
X127831510Y-45884973D01*
X127785396Y-45898183D01*
X127741135Y-45921169D01*
X127700374Y-45952461D01*
X127664760Y-45990588D01*
X127635939Y-46034080D01*
X127617276Y-46076285D01*
X127613149Y-46093692D01*
X127610086Y-46117082D01*
X127608141Y-46143771D01*
X127607367Y-46171078D01*
X127607818Y-46196323D01*
X127609545Y-46216824D01*
X127612604Y-46229898D01*
X127614181Y-46232419D01*
X127619550Y-46243089D01*
X127620594Y-46250489D01*
X127623644Y-46261751D01*
X127631681Y-46279161D01*
X127643029Y-46299799D01*
X127656017Y-46320749D01*
X127668971Y-46339090D01*
X127676721Y-46348384D01*
X127696883Y-46367621D01*
X127721163Y-46387096D01*
X127745440Y-46403694D01*
X127761999Y-46412769D01*
X127775993Y-46420908D01*
X127784966Y-46429321D01*
X127785903Y-46431058D01*
X127786576Y-46438335D01*
X127787173Y-46455668D01*
X127787696Y-46481864D01*
X127788143Y-46515732D01*
X127788515Y-46556078D01*
X127788812Y-46601710D01*
X127789033Y-46651436D01*
X127789180Y-46704063D01*
X127789251Y-46758398D01*
X127789247Y-46813250D01*
X127789167Y-46867424D01*
X127789012Y-46919730D01*
X127788782Y-46968974D01*
X127788476Y-47013965D01*
X127788095Y-47053508D01*
X127787639Y-47086413D01*
X127787107Y-47111486D01*
X127786499Y-47127535D01*
X127785913Y-47133221D01*
X127784549Y-47134711D01*
X127781236Y-47136026D01*
X127775320Y-47137178D01*
X127766148Y-47138177D01*
X127753066Y-47139034D01*
X127735422Y-47139758D01*
X127712561Y-47140362D01*
X127683832Y-47140856D01*
X127648579Y-47141250D01*
X127606150Y-47141554D01*
X127555893Y-47141781D01*
X127497152Y-47141940D01*
X127429276Y-47142041D01*
X127351610Y-47142097D01*
X127263502Y-47142117D01*
X127241279Y-47142117D01*
X127164206Y-47142157D01*
X127090331Y-47142272D01*
X127020429Y-47142457D01*
X126955275Y-47142706D01*
X126895643Y-47143014D01*
X126842309Y-47143375D01*
X126796048Y-47143784D01*
X126757635Y-47144235D01*
X126727845Y-47144723D01*
X126707452Y-47145242D01*
X126697232Y-47145787D01*
X126696172Y-47146004D01*
X126694931Y-47152696D01*
X126694054Y-47168609D01*
X126693593Y-47191722D01*
X126568902Y-47191722D01*
X126568929Y-47177376D01*
X126569264Y-47130315D01*
X126569854Y-47092974D01*
X126570723Y-47064589D01*
X126571894Y-47044396D01*
X126573393Y-47031632D01*
X126575244Y-47025534D01*
X126575571Y-47025129D01*
X126580849Y-47023142D01*
X126592822Y-47021541D01*
X126612275Y-47020300D01*
X126639986Y-47019391D01*
X126676738Y-47018786D01*
X126723312Y-47018459D01*
X126769615Y-47018379D01*
X126814239Y-47018280D01*
X126855058Y-47017999D01*
X126890767Y-47017558D01*
X126920063Y-47016984D01*
X126941639Y-47016298D01*
X126954191Y-47015526D01*
X126956909Y-47014943D01*
X126953612Y-47009413D01*
X126944675Y-46997062D01*
X126931531Y-46979816D01*
X126918254Y-46962916D01*
X126871161Y-46899971D01*
X126829377Y-46835649D01*
X126790633Y-46766271D01*
X126765021Y-46714659D01*
X126751214Y-46685550D01*
X126741288Y-46664336D01*
X126734258Y-46648769D01*
X126729140Y-46636601D01*
X126724949Y-46625585D01*
X126720700Y-46613472D01*
X126720682Y-46613419D01*
X126714795Y-46596902D01*
X126709594Y-46583281D01*
X126709267Y-46582485D01*
X126703408Y-46565876D01*
X126695403Y-46539416D01*
X126685575Y-46504231D01*
X126674244Y-46461444D01*
X126670293Y-46446092D01*
X126664747Y-46420224D01*
X126658922Y-46385886D01*
X126653145Y-46345842D01*
X126647744Y-46302852D01*
X126643048Y-46259682D01*
X126639383Y-46219092D01*
X126637077Y-46183846D01*
X126636430Y-46160651D01*
X126638804Y-46094833D01*
X126645594Y-46023641D01*
X126656267Y-45949986D01*
X126670285Y-45876779D01*
X126687114Y-45806930D01*
X126706218Y-45743350D01*
X126720279Y-45705071D01*
X126754827Y-45624348D01*
X126790624Y-45551801D01*
X126829429Y-45484368D01*
X126873003Y-45418987D01*
X126922353Y-45353543D01*
X126997016Y-45268080D01*
X127080306Y-45188548D01*
X127170577Y-45116300D01*
X127266181Y-45052689D01*
X127336391Y-45013512D01*
X127416167Y-44975181D01*
X127494082Y-44943615D01*
X127572543Y-44918150D01*
X127653955Y-44898127D01*
X127740727Y-44882882D01*
X127835263Y-44871753D01*
X127859633Y-44869600D01*
X127888324Y-44867506D01*
X127893894Y-44867099D01*
X127923351Y-44865948D01*
X127951757Y-44866203D01*
G37*
%TO.C,F4*%
X110530000Y-56400000D02*
X110530000Y-60990000D01*
X104530000Y-56400000D02*
X110530000Y-56400000D01*
X110530000Y-62610000D02*
X110530000Y-70180000D01*
X110530000Y-71820000D02*
X110530000Y-76400000D01*
X110530000Y-76400000D02*
X104530000Y-76400000D01*
X104530000Y-76400000D02*
X104530000Y-56400000D01*
%TO.C,U1*%
X103237500Y-47440000D02*
X102437500Y-47440000D01*
X103237500Y-47440000D02*
X104037500Y-47440000D01*
X103237500Y-50560000D02*
X102437500Y-50560000D01*
X103237500Y-50560000D02*
X104037500Y-50560000D01*
X101937500Y-47490000D02*
X101697500Y-47160000D01*
X102177500Y-47160000D01*
X101937500Y-47490000D01*
G36*
X101937500Y-47490000D02*
G01*
X101697500Y-47160000D01*
X102177500Y-47160000D01*
X101937500Y-47490000D01*
G37*
%TO.C,F7*%
X87880000Y-56400000D02*
X87880000Y-60990000D01*
X81880000Y-56400000D02*
X87880000Y-56400000D01*
X87880000Y-62610000D02*
X87880000Y-70180000D01*
X87880000Y-71820000D02*
X87880000Y-76400000D01*
X87880000Y-76400000D02*
X81880000Y-76400000D01*
X81880000Y-76400000D02*
X81880000Y-56400000D01*
%TO.C,kibuzzard-67D51968*%
G36*
X124798855Y-48453400D02*
G01*
X124798855Y-51196600D01*
X124798855Y-51593475D01*
X122801145Y-51593475D01*
X122801145Y-51196600D01*
X122801145Y-50621290D01*
X123222785Y-50621290D01*
X123222785Y-50863225D01*
X123324279Y-50899632D01*
X123428102Y-50935192D01*
X123534252Y-50969905D01*
X123640932Y-51003243D01*
X123746342Y-51034675D01*
X123850482Y-51064202D01*
X124002168Y-51104684D01*
X124146710Y-51140402D01*
X124281012Y-51171121D01*
X124401980Y-51196600D01*
X124401980Y-50950855D01*
X124302920Y-50933710D01*
X124188620Y-50912755D01*
X124065033Y-50888942D01*
X123938112Y-50863225D01*
X123810477Y-50835603D01*
X123684747Y-50806075D01*
X123566876Y-50775595D01*
X123462815Y-50745115D01*
X123568304Y-50714397D01*
X123686652Y-50683202D01*
X123812382Y-50652722D01*
X123940017Y-50624147D01*
X124066700Y-50597716D01*
X124189572Y-50573665D01*
X124303158Y-50553662D01*
X124401980Y-50539375D01*
X124401980Y-50291725D01*
X124295300Y-50313632D01*
X124161950Y-50345065D01*
X124062149Y-50370253D01*
X123958327Y-50397558D01*
X123850482Y-50426980D01*
X123740522Y-50458095D01*
X123630349Y-50490480D01*
X123519965Y-50524135D01*
X123362802Y-50574141D01*
X123222785Y-50621290D01*
X122801145Y-50621290D01*
X122801145Y-49699270D01*
X123198020Y-49699270D01*
X123205164Y-49808331D01*
X123226595Y-49903105D01*
X123260885Y-49983591D01*
X123306605Y-50049790D01*
X123427572Y-50137420D01*
X123579020Y-50165995D01*
X123689510Y-50153083D01*
X123782220Y-50114348D01*
X123857150Y-50049790D01*
X123913877Y-49958985D01*
X123951977Y-49841510D01*
X123971450Y-49697365D01*
X124080035Y-49706890D01*
X124207670Y-49716415D01*
X124207670Y-50122180D01*
X124401980Y-50122180D01*
X124401980Y-49520200D01*
X124256486Y-49513056D01*
X124105752Y-49503055D01*
X123950733Y-49489720D01*
X123792380Y-49472575D01*
X123788332Y-49603544D01*
X123776187Y-49706890D01*
X123730467Y-49845002D01*
X123659982Y-49909772D01*
X123569495Y-49925965D01*
X123506630Y-49916440D01*
X123452337Y-49881197D01*
X123413285Y-49810712D01*
X123398045Y-49697365D01*
X123402331Y-49608306D01*
X123415190Y-49535440D01*
X123453290Y-49428760D01*
X123258980Y-49381135D01*
X123238025Y-49435427D01*
X123218022Y-49514485D01*
X123203735Y-49605925D01*
X123198020Y-49699270D01*
X122801145Y-49699270D01*
X122801145Y-49236355D01*
X123222785Y-49236355D01*
X123417095Y-49236355D01*
X123417095Y-49002040D01*
X124401980Y-49002040D01*
X124401980Y-48842020D01*
X124327685Y-48760105D01*
X124259105Y-48659140D01*
X124200050Y-48552460D01*
X124156235Y-48453400D01*
X123961925Y-48529600D01*
X124008597Y-48645805D01*
X124076225Y-48767725D01*
X123417095Y-48767725D01*
X123417095Y-48520075D01*
X123222785Y-48520075D01*
X123222785Y-49236355D01*
X122801145Y-49236355D01*
X122801145Y-48453400D01*
X122801145Y-48056525D01*
X124798855Y-48056525D01*
X124798855Y-48453400D01*
G37*
%TO.C,R8*%
X75312742Y-77327500D02*
X75787258Y-77327500D01*
X75312742Y-78372500D02*
X75787258Y-78372500D01*
%TO.C,D6*%
X92365000Y-76890000D02*
X92365000Y-78810000D01*
X92365000Y-78810000D02*
X95050000Y-78810000D01*
X95050000Y-76890000D02*
X92365000Y-76890000D01*
%TO.C,R3*%
X112987742Y-77327500D02*
X113462258Y-77327500D01*
X112987742Y-78372500D02*
X113462258Y-78372500D01*
%TO.C,F2*%
X125630000Y-56400000D02*
X125630000Y-60990000D01*
X119630000Y-56400000D02*
X125630000Y-56400000D01*
X125630000Y-62610000D02*
X125630000Y-70180000D01*
X125630000Y-71820000D02*
X125630000Y-76400000D01*
X125630000Y-76400000D02*
X119630000Y-76400000D01*
X119630000Y-76400000D02*
X119630000Y-56400000D01*
%TO.C,F3*%
X118080000Y-56400000D02*
X118080000Y-60990000D01*
X112080000Y-56400000D02*
X118080000Y-56400000D01*
X118080000Y-62610000D02*
X118080000Y-70180000D01*
X118080000Y-71820000D02*
X118080000Y-76400000D01*
X118080000Y-76400000D02*
X112080000Y-76400000D01*
X112080000Y-76400000D02*
X112080000Y-56400000D01*
%TO.C,R2*%
X120487742Y-77327500D02*
X120962258Y-77327500D01*
X120487742Y-78372500D02*
X120962258Y-78372500D01*
%TO.C,C4*%
X106861252Y-52735000D02*
X106338748Y-52735000D01*
X106861252Y-51265000D02*
X106338748Y-51265000D01*
%TO.C,D3*%
X114927500Y-76890000D02*
X114927500Y-78810000D01*
X114927500Y-78810000D02*
X117612500Y-78810000D01*
X117612500Y-76890000D02*
X114927500Y-76890000D01*
%TO.C,R6*%
X90312742Y-77327500D02*
X90787258Y-77327500D01*
X90312742Y-78372500D02*
X90787258Y-78372500D01*
%TO.C,C2*%
X105110000Y-45459420D02*
X105110000Y-45740580D01*
X104090000Y-45459420D02*
X104090000Y-45740580D01*
%TO.C,D4*%
X107427500Y-76890000D02*
X107427500Y-78810000D01*
X107427500Y-78810000D02*
X110112500Y-78810000D01*
X110112500Y-76890000D02*
X107427500Y-76890000D01*
%TO.C,C3*%
X97859420Y-45490000D02*
X98140580Y-45490000D01*
X97859420Y-46510000D02*
X98140580Y-46510000D01*
%TO.C,R4*%
X105562742Y-77327500D02*
X106037258Y-77327500D01*
X105562742Y-78372500D02*
X106037258Y-78372500D01*
%TO.C,D9*%
X69615000Y-76890000D02*
X69615000Y-78810000D01*
X69615000Y-78810000D02*
X72300000Y-78810000D01*
X72300000Y-76890000D02*
X69615000Y-76890000D01*
%TO.C,C6*%
X100835000Y-51338748D02*
X100835000Y-51861252D01*
X99365000Y-51338748D02*
X99365000Y-51861252D01*
%TO.C,J3*%
X93445000Y-80290000D02*
X106145000Y-80290000D01*
X106145000Y-80290000D02*
X106145000Y-85370000D01*
X106145000Y-85370000D02*
X93445000Y-85370000D01*
X93445000Y-85370000D02*
X93445000Y-80290000D01*
%TD*%
M02*
