%TF.GenerationSoftware,KiCad,Pcbnew,7.0.11-rc3*%
%TF.CreationDate,2025-03-16T23:23:52+08:00*%
%TF.ProjectId,BMS_Master,424d535f-4d61-4737-9465-722e6b696361,V1.3*%
%TF.SameCoordinates,Original*%
%TF.FileFunction,Legend,Top*%
%TF.FilePolarity,Positive*%
%FSLAX46Y46*%
G04 Gerber Fmt 4.6, Leading zero omitted, Abs format (unit mm)*
G04 Created by KiCad (PCBNEW 7.0.11-rc3) date 2025-03-16 23:23:52*
%MOMM*%
%LPD*%
G01*
G04 APERTURE LIST*
%ADD10C,0.150000*%
%ADD11C,0.120000*%
G04 APERTURE END LIST*
D10*
X67934580Y-62666666D02*
X67982200Y-62714285D01*
X67982200Y-62714285D02*
X68029819Y-62857142D01*
X68029819Y-62857142D02*
X68029819Y-62952380D01*
X68029819Y-62952380D02*
X67982200Y-63095237D01*
X67982200Y-63095237D02*
X67886961Y-63190475D01*
X67886961Y-63190475D02*
X67791723Y-63238094D01*
X67791723Y-63238094D02*
X67601247Y-63285713D01*
X67601247Y-63285713D02*
X67458390Y-63285713D01*
X67458390Y-63285713D02*
X67267914Y-63238094D01*
X67267914Y-63238094D02*
X67172676Y-63190475D01*
X67172676Y-63190475D02*
X67077438Y-63095237D01*
X67077438Y-63095237D02*
X67029819Y-62952380D01*
X67029819Y-62952380D02*
X67029819Y-62857142D01*
X67029819Y-62857142D02*
X67077438Y-62714285D01*
X67077438Y-62714285D02*
X67125057Y-62666666D01*
X67029819Y-61809523D02*
X67029819Y-61999999D01*
X67029819Y-61999999D02*
X67077438Y-62095237D01*
X67077438Y-62095237D02*
X67125057Y-62142856D01*
X67125057Y-62142856D02*
X67267914Y-62238094D01*
X67267914Y-62238094D02*
X67458390Y-62285713D01*
X67458390Y-62285713D02*
X67839342Y-62285713D01*
X67839342Y-62285713D02*
X67934580Y-62238094D01*
X67934580Y-62238094D02*
X67982200Y-62190475D01*
X67982200Y-62190475D02*
X68029819Y-62095237D01*
X68029819Y-62095237D02*
X68029819Y-61904761D01*
X68029819Y-61904761D02*
X67982200Y-61809523D01*
X67982200Y-61809523D02*
X67934580Y-61761904D01*
X67934580Y-61761904D02*
X67839342Y-61714285D01*
X67839342Y-61714285D02*
X67601247Y-61714285D01*
X67601247Y-61714285D02*
X67506009Y-61761904D01*
X67506009Y-61761904D02*
X67458390Y-61809523D01*
X67458390Y-61809523D02*
X67410771Y-61904761D01*
X67410771Y-61904761D02*
X67410771Y-62095237D01*
X67410771Y-62095237D02*
X67458390Y-62190475D01*
X67458390Y-62190475D02*
X67506009Y-62238094D01*
X67506009Y-62238094D02*
X67601247Y-62285713D01*
X84107142Y-75309580D02*
X84059523Y-75357200D01*
X84059523Y-75357200D02*
X83916666Y-75404819D01*
X83916666Y-75404819D02*
X83821428Y-75404819D01*
X83821428Y-75404819D02*
X83678571Y-75357200D01*
X83678571Y-75357200D02*
X83583333Y-75261961D01*
X83583333Y-75261961D02*
X83535714Y-75166723D01*
X83535714Y-75166723D02*
X83488095Y-74976247D01*
X83488095Y-74976247D02*
X83488095Y-74833390D01*
X83488095Y-74833390D02*
X83535714Y-74642914D01*
X83535714Y-74642914D02*
X83583333Y-74547676D01*
X83583333Y-74547676D02*
X83678571Y-74452438D01*
X83678571Y-74452438D02*
X83821428Y-74404819D01*
X83821428Y-74404819D02*
X83916666Y-74404819D01*
X83916666Y-74404819D02*
X84059523Y-74452438D01*
X84059523Y-74452438D02*
X84107142Y-74500057D01*
X85059523Y-75404819D02*
X84488095Y-75404819D01*
X84773809Y-75404819D02*
X84773809Y-74404819D01*
X84773809Y-74404819D02*
X84678571Y-74547676D01*
X84678571Y-74547676D02*
X84583333Y-74642914D01*
X84583333Y-74642914D02*
X84488095Y-74690533D01*
X85916666Y-74738152D02*
X85916666Y-75404819D01*
X85678571Y-74357200D02*
X85440476Y-75071485D01*
X85440476Y-75071485D02*
X86059523Y-75071485D01*
X90614580Y-57042857D02*
X90662200Y-57090476D01*
X90662200Y-57090476D02*
X90709819Y-57233333D01*
X90709819Y-57233333D02*
X90709819Y-57328571D01*
X90709819Y-57328571D02*
X90662200Y-57471428D01*
X90662200Y-57471428D02*
X90566961Y-57566666D01*
X90566961Y-57566666D02*
X90471723Y-57614285D01*
X90471723Y-57614285D02*
X90281247Y-57661904D01*
X90281247Y-57661904D02*
X90138390Y-57661904D01*
X90138390Y-57661904D02*
X89947914Y-57614285D01*
X89947914Y-57614285D02*
X89852676Y-57566666D01*
X89852676Y-57566666D02*
X89757438Y-57471428D01*
X89757438Y-57471428D02*
X89709819Y-57328571D01*
X89709819Y-57328571D02*
X89709819Y-57233333D01*
X89709819Y-57233333D02*
X89757438Y-57090476D01*
X89757438Y-57090476D02*
X89805057Y-57042857D01*
X89805057Y-56661904D02*
X89757438Y-56614285D01*
X89757438Y-56614285D02*
X89709819Y-56519047D01*
X89709819Y-56519047D02*
X89709819Y-56280952D01*
X89709819Y-56280952D02*
X89757438Y-56185714D01*
X89757438Y-56185714D02*
X89805057Y-56138095D01*
X89805057Y-56138095D02*
X89900295Y-56090476D01*
X89900295Y-56090476D02*
X89995533Y-56090476D01*
X89995533Y-56090476D02*
X90138390Y-56138095D01*
X90138390Y-56138095D02*
X90709819Y-56709523D01*
X90709819Y-56709523D02*
X90709819Y-56090476D01*
X89709819Y-55471428D02*
X89709819Y-55376190D01*
X89709819Y-55376190D02*
X89757438Y-55280952D01*
X89757438Y-55280952D02*
X89805057Y-55233333D01*
X89805057Y-55233333D02*
X89900295Y-55185714D01*
X89900295Y-55185714D02*
X90090771Y-55138095D01*
X90090771Y-55138095D02*
X90328866Y-55138095D01*
X90328866Y-55138095D02*
X90519342Y-55185714D01*
X90519342Y-55185714D02*
X90614580Y-55233333D01*
X90614580Y-55233333D02*
X90662200Y-55280952D01*
X90662200Y-55280952D02*
X90709819Y-55376190D01*
X90709819Y-55376190D02*
X90709819Y-55471428D01*
X90709819Y-55471428D02*
X90662200Y-55566666D01*
X90662200Y-55566666D02*
X90614580Y-55614285D01*
X90614580Y-55614285D02*
X90519342Y-55661904D01*
X90519342Y-55661904D02*
X90328866Y-55709523D01*
X90328866Y-55709523D02*
X90090771Y-55709523D01*
X90090771Y-55709523D02*
X89900295Y-55661904D01*
X89900295Y-55661904D02*
X89805057Y-55614285D01*
X89805057Y-55614285D02*
X89757438Y-55566666D01*
X89757438Y-55566666D02*
X89709819Y-55471428D01*
X102738333Y-78054819D02*
X102405000Y-77578628D01*
X102166905Y-78054819D02*
X102166905Y-77054819D01*
X102166905Y-77054819D02*
X102547857Y-77054819D01*
X102547857Y-77054819D02*
X102643095Y-77102438D01*
X102643095Y-77102438D02*
X102690714Y-77150057D01*
X102690714Y-77150057D02*
X102738333Y-77245295D01*
X102738333Y-77245295D02*
X102738333Y-77388152D01*
X102738333Y-77388152D02*
X102690714Y-77483390D01*
X102690714Y-77483390D02*
X102643095Y-77531009D01*
X102643095Y-77531009D02*
X102547857Y-77578628D01*
X102547857Y-77578628D02*
X102166905Y-77578628D01*
X103214524Y-78054819D02*
X103405000Y-78054819D01*
X103405000Y-78054819D02*
X103500238Y-78007200D01*
X103500238Y-78007200D02*
X103547857Y-77959580D01*
X103547857Y-77959580D02*
X103643095Y-77816723D01*
X103643095Y-77816723D02*
X103690714Y-77626247D01*
X103690714Y-77626247D02*
X103690714Y-77245295D01*
X103690714Y-77245295D02*
X103643095Y-77150057D01*
X103643095Y-77150057D02*
X103595476Y-77102438D01*
X103595476Y-77102438D02*
X103500238Y-77054819D01*
X103500238Y-77054819D02*
X103309762Y-77054819D01*
X103309762Y-77054819D02*
X103214524Y-77102438D01*
X103214524Y-77102438D02*
X103166905Y-77150057D01*
X103166905Y-77150057D02*
X103119286Y-77245295D01*
X103119286Y-77245295D02*
X103119286Y-77483390D01*
X103119286Y-77483390D02*
X103166905Y-77578628D01*
X103166905Y-77578628D02*
X103214524Y-77626247D01*
X103214524Y-77626247D02*
X103309762Y-77673866D01*
X103309762Y-77673866D02*
X103500238Y-77673866D01*
X103500238Y-77673866D02*
X103595476Y-77626247D01*
X103595476Y-77626247D02*
X103643095Y-77578628D01*
X103643095Y-77578628D02*
X103690714Y-77483390D01*
X75228809Y-56178628D02*
X75228809Y-56654819D01*
X74895476Y-55654819D02*
X75228809Y-56178628D01*
X75228809Y-56178628D02*
X75562142Y-55654819D01*
X75847857Y-55750057D02*
X75895476Y-55702438D01*
X75895476Y-55702438D02*
X75990714Y-55654819D01*
X75990714Y-55654819D02*
X76228809Y-55654819D01*
X76228809Y-55654819D02*
X76324047Y-55702438D01*
X76324047Y-55702438D02*
X76371666Y-55750057D01*
X76371666Y-55750057D02*
X76419285Y-55845295D01*
X76419285Y-55845295D02*
X76419285Y-55940533D01*
X76419285Y-55940533D02*
X76371666Y-56083390D01*
X76371666Y-56083390D02*
X75800238Y-56654819D01*
X75800238Y-56654819D02*
X76419285Y-56654819D01*
X106657142Y-59154819D02*
X106323809Y-58678628D01*
X106085714Y-59154819D02*
X106085714Y-58154819D01*
X106085714Y-58154819D02*
X106466666Y-58154819D01*
X106466666Y-58154819D02*
X106561904Y-58202438D01*
X106561904Y-58202438D02*
X106609523Y-58250057D01*
X106609523Y-58250057D02*
X106657142Y-58345295D01*
X106657142Y-58345295D02*
X106657142Y-58488152D01*
X106657142Y-58488152D02*
X106609523Y-58583390D01*
X106609523Y-58583390D02*
X106561904Y-58631009D01*
X106561904Y-58631009D02*
X106466666Y-58678628D01*
X106466666Y-58678628D02*
X106085714Y-58678628D01*
X107038095Y-58250057D02*
X107085714Y-58202438D01*
X107085714Y-58202438D02*
X107180952Y-58154819D01*
X107180952Y-58154819D02*
X107419047Y-58154819D01*
X107419047Y-58154819D02*
X107514285Y-58202438D01*
X107514285Y-58202438D02*
X107561904Y-58250057D01*
X107561904Y-58250057D02*
X107609523Y-58345295D01*
X107609523Y-58345295D02*
X107609523Y-58440533D01*
X107609523Y-58440533D02*
X107561904Y-58583390D01*
X107561904Y-58583390D02*
X106990476Y-59154819D01*
X106990476Y-59154819D02*
X107609523Y-59154819D01*
X107990476Y-58250057D02*
X108038095Y-58202438D01*
X108038095Y-58202438D02*
X108133333Y-58154819D01*
X108133333Y-58154819D02*
X108371428Y-58154819D01*
X108371428Y-58154819D02*
X108466666Y-58202438D01*
X108466666Y-58202438D02*
X108514285Y-58250057D01*
X108514285Y-58250057D02*
X108561904Y-58345295D01*
X108561904Y-58345295D02*
X108561904Y-58440533D01*
X108561904Y-58440533D02*
X108514285Y-58583390D01*
X108514285Y-58583390D02*
X107942857Y-59154819D01*
X107942857Y-59154819D02*
X108561904Y-59154819D01*
X73683333Y-79059580D02*
X73635714Y-79107200D01*
X73635714Y-79107200D02*
X73492857Y-79154819D01*
X73492857Y-79154819D02*
X73397619Y-79154819D01*
X73397619Y-79154819D02*
X73254762Y-79107200D01*
X73254762Y-79107200D02*
X73159524Y-79011961D01*
X73159524Y-79011961D02*
X73111905Y-78916723D01*
X73111905Y-78916723D02*
X73064286Y-78726247D01*
X73064286Y-78726247D02*
X73064286Y-78583390D01*
X73064286Y-78583390D02*
X73111905Y-78392914D01*
X73111905Y-78392914D02*
X73159524Y-78297676D01*
X73159524Y-78297676D02*
X73254762Y-78202438D01*
X73254762Y-78202438D02*
X73397619Y-78154819D01*
X73397619Y-78154819D02*
X73492857Y-78154819D01*
X73492857Y-78154819D02*
X73635714Y-78202438D01*
X73635714Y-78202438D02*
X73683333Y-78250057D01*
X74064286Y-78250057D02*
X74111905Y-78202438D01*
X74111905Y-78202438D02*
X74207143Y-78154819D01*
X74207143Y-78154819D02*
X74445238Y-78154819D01*
X74445238Y-78154819D02*
X74540476Y-78202438D01*
X74540476Y-78202438D02*
X74588095Y-78250057D01*
X74588095Y-78250057D02*
X74635714Y-78345295D01*
X74635714Y-78345295D02*
X74635714Y-78440533D01*
X74635714Y-78440533D02*
X74588095Y-78583390D01*
X74588095Y-78583390D02*
X74016667Y-79154819D01*
X74016667Y-79154819D02*
X74635714Y-79154819D01*
X76894580Y-62566666D02*
X76942200Y-62614285D01*
X76942200Y-62614285D02*
X76989819Y-62757142D01*
X76989819Y-62757142D02*
X76989819Y-62852380D01*
X76989819Y-62852380D02*
X76942200Y-62995237D01*
X76942200Y-62995237D02*
X76846961Y-63090475D01*
X76846961Y-63090475D02*
X76751723Y-63138094D01*
X76751723Y-63138094D02*
X76561247Y-63185713D01*
X76561247Y-63185713D02*
X76418390Y-63185713D01*
X76418390Y-63185713D02*
X76227914Y-63138094D01*
X76227914Y-63138094D02*
X76132676Y-63090475D01*
X76132676Y-63090475D02*
X76037438Y-62995237D01*
X76037438Y-62995237D02*
X75989819Y-62852380D01*
X75989819Y-62852380D02*
X75989819Y-62757142D01*
X75989819Y-62757142D02*
X76037438Y-62614285D01*
X76037438Y-62614285D02*
X76085057Y-62566666D01*
X75989819Y-61661904D02*
X75989819Y-62138094D01*
X75989819Y-62138094D02*
X76466009Y-62185713D01*
X76466009Y-62185713D02*
X76418390Y-62138094D01*
X76418390Y-62138094D02*
X76370771Y-62042856D01*
X76370771Y-62042856D02*
X76370771Y-61804761D01*
X76370771Y-61804761D02*
X76418390Y-61709523D01*
X76418390Y-61709523D02*
X76466009Y-61661904D01*
X76466009Y-61661904D02*
X76561247Y-61614285D01*
X76561247Y-61614285D02*
X76799342Y-61614285D01*
X76799342Y-61614285D02*
X76894580Y-61661904D01*
X76894580Y-61661904D02*
X76942200Y-61709523D01*
X76942200Y-61709523D02*
X76989819Y-61804761D01*
X76989819Y-61804761D02*
X76989819Y-62042856D01*
X76989819Y-62042856D02*
X76942200Y-62138094D01*
X76942200Y-62138094D02*
X76894580Y-62185713D01*
X102262142Y-79654819D02*
X101928809Y-79178628D01*
X101690714Y-79654819D02*
X101690714Y-78654819D01*
X101690714Y-78654819D02*
X102071666Y-78654819D01*
X102071666Y-78654819D02*
X102166904Y-78702438D01*
X102166904Y-78702438D02*
X102214523Y-78750057D01*
X102214523Y-78750057D02*
X102262142Y-78845295D01*
X102262142Y-78845295D02*
X102262142Y-78988152D01*
X102262142Y-78988152D02*
X102214523Y-79083390D01*
X102214523Y-79083390D02*
X102166904Y-79131009D01*
X102166904Y-79131009D02*
X102071666Y-79178628D01*
X102071666Y-79178628D02*
X101690714Y-79178628D01*
X103214523Y-79654819D02*
X102643095Y-79654819D01*
X102928809Y-79654819D02*
X102928809Y-78654819D01*
X102928809Y-78654819D02*
X102833571Y-78797676D01*
X102833571Y-78797676D02*
X102738333Y-78892914D01*
X102738333Y-78892914D02*
X102643095Y-78940533D01*
X103833571Y-78654819D02*
X103928809Y-78654819D01*
X103928809Y-78654819D02*
X104024047Y-78702438D01*
X104024047Y-78702438D02*
X104071666Y-78750057D01*
X104071666Y-78750057D02*
X104119285Y-78845295D01*
X104119285Y-78845295D02*
X104166904Y-79035771D01*
X104166904Y-79035771D02*
X104166904Y-79273866D01*
X104166904Y-79273866D02*
X104119285Y-79464342D01*
X104119285Y-79464342D02*
X104071666Y-79559580D01*
X104071666Y-79559580D02*
X104024047Y-79607200D01*
X104024047Y-79607200D02*
X103928809Y-79654819D01*
X103928809Y-79654819D02*
X103833571Y-79654819D01*
X103833571Y-79654819D02*
X103738333Y-79607200D01*
X103738333Y-79607200D02*
X103690714Y-79559580D01*
X103690714Y-79559580D02*
X103643095Y-79464342D01*
X103643095Y-79464342D02*
X103595476Y-79273866D01*
X103595476Y-79273866D02*
X103595476Y-79035771D01*
X103595476Y-79035771D02*
X103643095Y-78845295D01*
X103643095Y-78845295D02*
X103690714Y-78750057D01*
X103690714Y-78750057D02*
X103738333Y-78702438D01*
X103738333Y-78702438D02*
X103833571Y-78654819D01*
X97704819Y-78630357D02*
X97228628Y-78963690D01*
X97704819Y-79201785D02*
X96704819Y-79201785D01*
X96704819Y-79201785D02*
X96704819Y-78820833D01*
X96704819Y-78820833D02*
X96752438Y-78725595D01*
X96752438Y-78725595D02*
X96800057Y-78677976D01*
X96800057Y-78677976D02*
X96895295Y-78630357D01*
X96895295Y-78630357D02*
X97038152Y-78630357D01*
X97038152Y-78630357D02*
X97133390Y-78677976D01*
X97133390Y-78677976D02*
X97181009Y-78725595D01*
X97181009Y-78725595D02*
X97228628Y-78820833D01*
X97228628Y-78820833D02*
X97228628Y-79201785D01*
X97704819Y-77677976D02*
X97704819Y-78249404D01*
X97704819Y-77963690D02*
X96704819Y-77963690D01*
X96704819Y-77963690D02*
X96847676Y-78058928D01*
X96847676Y-78058928D02*
X96942914Y-78154166D01*
X96942914Y-78154166D02*
X96990533Y-78249404D01*
X97038152Y-76820833D02*
X97704819Y-76820833D01*
X96657200Y-77058928D02*
X97371485Y-77297023D01*
X97371485Y-77297023D02*
X97371485Y-76677976D01*
X73138333Y-74579580D02*
X73090714Y-74627200D01*
X73090714Y-74627200D02*
X72947857Y-74674819D01*
X72947857Y-74674819D02*
X72852619Y-74674819D01*
X72852619Y-74674819D02*
X72709762Y-74627200D01*
X72709762Y-74627200D02*
X72614524Y-74531961D01*
X72614524Y-74531961D02*
X72566905Y-74436723D01*
X72566905Y-74436723D02*
X72519286Y-74246247D01*
X72519286Y-74246247D02*
X72519286Y-74103390D01*
X72519286Y-74103390D02*
X72566905Y-73912914D01*
X72566905Y-73912914D02*
X72614524Y-73817676D01*
X72614524Y-73817676D02*
X72709762Y-73722438D01*
X72709762Y-73722438D02*
X72852619Y-73674819D01*
X72852619Y-73674819D02*
X72947857Y-73674819D01*
X72947857Y-73674819D02*
X73090714Y-73722438D01*
X73090714Y-73722438D02*
X73138333Y-73770057D01*
X73995476Y-74008152D02*
X73995476Y-74674819D01*
X73757381Y-73627200D02*
X73519286Y-74341485D01*
X73519286Y-74341485D02*
X74138333Y-74341485D01*
X103657142Y-67704819D02*
X103323809Y-67228628D01*
X103085714Y-67704819D02*
X103085714Y-66704819D01*
X103085714Y-66704819D02*
X103466666Y-66704819D01*
X103466666Y-66704819D02*
X103561904Y-66752438D01*
X103561904Y-66752438D02*
X103609523Y-66800057D01*
X103609523Y-66800057D02*
X103657142Y-66895295D01*
X103657142Y-66895295D02*
X103657142Y-67038152D01*
X103657142Y-67038152D02*
X103609523Y-67133390D01*
X103609523Y-67133390D02*
X103561904Y-67181009D01*
X103561904Y-67181009D02*
X103466666Y-67228628D01*
X103466666Y-67228628D02*
X103085714Y-67228628D01*
X104609523Y-67704819D02*
X104038095Y-67704819D01*
X104323809Y-67704819D02*
X104323809Y-66704819D01*
X104323809Y-66704819D02*
X104228571Y-66847676D01*
X104228571Y-66847676D02*
X104133333Y-66942914D01*
X104133333Y-66942914D02*
X104038095Y-66990533D01*
X104942857Y-66704819D02*
X105561904Y-66704819D01*
X105561904Y-66704819D02*
X105228571Y-67085771D01*
X105228571Y-67085771D02*
X105371428Y-67085771D01*
X105371428Y-67085771D02*
X105466666Y-67133390D01*
X105466666Y-67133390D02*
X105514285Y-67181009D01*
X105514285Y-67181009D02*
X105561904Y-67276247D01*
X105561904Y-67276247D02*
X105561904Y-67514342D01*
X105561904Y-67514342D02*
X105514285Y-67609580D01*
X105514285Y-67609580D02*
X105466666Y-67657200D01*
X105466666Y-67657200D02*
X105371428Y-67704819D01*
X105371428Y-67704819D02*
X105085714Y-67704819D01*
X105085714Y-67704819D02*
X104990476Y-67657200D01*
X104990476Y-67657200D02*
X104942857Y-67609580D01*
X81283333Y-71559580D02*
X81235714Y-71607200D01*
X81235714Y-71607200D02*
X81092857Y-71654819D01*
X81092857Y-71654819D02*
X80997619Y-71654819D01*
X80997619Y-71654819D02*
X80854762Y-71607200D01*
X80854762Y-71607200D02*
X80759524Y-71511961D01*
X80759524Y-71511961D02*
X80711905Y-71416723D01*
X80711905Y-71416723D02*
X80664286Y-71226247D01*
X80664286Y-71226247D02*
X80664286Y-71083390D01*
X80664286Y-71083390D02*
X80711905Y-70892914D01*
X80711905Y-70892914D02*
X80759524Y-70797676D01*
X80759524Y-70797676D02*
X80854762Y-70702438D01*
X80854762Y-70702438D02*
X80997619Y-70654819D01*
X80997619Y-70654819D02*
X81092857Y-70654819D01*
X81092857Y-70654819D02*
X81235714Y-70702438D01*
X81235714Y-70702438D02*
X81283333Y-70750057D01*
X81616667Y-70654819D02*
X82235714Y-70654819D01*
X82235714Y-70654819D02*
X81902381Y-71035771D01*
X81902381Y-71035771D02*
X82045238Y-71035771D01*
X82045238Y-71035771D02*
X82140476Y-71083390D01*
X82140476Y-71083390D02*
X82188095Y-71131009D01*
X82188095Y-71131009D02*
X82235714Y-71226247D01*
X82235714Y-71226247D02*
X82235714Y-71464342D01*
X82235714Y-71464342D02*
X82188095Y-71559580D01*
X82188095Y-71559580D02*
X82140476Y-71607200D01*
X82140476Y-71607200D02*
X82045238Y-71654819D01*
X82045238Y-71654819D02*
X81759524Y-71654819D01*
X81759524Y-71654819D02*
X81664286Y-71607200D01*
X81664286Y-71607200D02*
X81616667Y-71559580D01*
X67654819Y-71142857D02*
X67178628Y-71476190D01*
X67654819Y-71714285D02*
X66654819Y-71714285D01*
X66654819Y-71714285D02*
X66654819Y-71333333D01*
X66654819Y-71333333D02*
X66702438Y-71238095D01*
X66702438Y-71238095D02*
X66750057Y-71190476D01*
X66750057Y-71190476D02*
X66845295Y-71142857D01*
X66845295Y-71142857D02*
X66988152Y-71142857D01*
X66988152Y-71142857D02*
X67083390Y-71190476D01*
X67083390Y-71190476D02*
X67131009Y-71238095D01*
X67131009Y-71238095D02*
X67178628Y-71333333D01*
X67178628Y-71333333D02*
X67178628Y-71714285D01*
X66750057Y-70761904D02*
X66702438Y-70714285D01*
X66702438Y-70714285D02*
X66654819Y-70619047D01*
X66654819Y-70619047D02*
X66654819Y-70380952D01*
X66654819Y-70380952D02*
X66702438Y-70285714D01*
X66702438Y-70285714D02*
X66750057Y-70238095D01*
X66750057Y-70238095D02*
X66845295Y-70190476D01*
X66845295Y-70190476D02*
X66940533Y-70190476D01*
X66940533Y-70190476D02*
X67083390Y-70238095D01*
X67083390Y-70238095D02*
X67654819Y-70809523D01*
X67654819Y-70809523D02*
X67654819Y-70190476D01*
X66654819Y-69857142D02*
X66654819Y-69238095D01*
X66654819Y-69238095D02*
X67035771Y-69571428D01*
X67035771Y-69571428D02*
X67035771Y-69428571D01*
X67035771Y-69428571D02*
X67083390Y-69333333D01*
X67083390Y-69333333D02*
X67131009Y-69285714D01*
X67131009Y-69285714D02*
X67226247Y-69238095D01*
X67226247Y-69238095D02*
X67464342Y-69238095D01*
X67464342Y-69238095D02*
X67559580Y-69285714D01*
X67559580Y-69285714D02*
X67607200Y-69333333D01*
X67607200Y-69333333D02*
X67654819Y-69428571D01*
X67654819Y-69428571D02*
X67654819Y-69714285D01*
X67654819Y-69714285D02*
X67607200Y-69809523D01*
X67607200Y-69809523D02*
X67559580Y-69857142D01*
X74038333Y-51974819D02*
X73705000Y-51498628D01*
X73466905Y-51974819D02*
X73466905Y-50974819D01*
X73466905Y-50974819D02*
X73847857Y-50974819D01*
X73847857Y-50974819D02*
X73943095Y-51022438D01*
X73943095Y-51022438D02*
X73990714Y-51070057D01*
X73990714Y-51070057D02*
X74038333Y-51165295D01*
X74038333Y-51165295D02*
X74038333Y-51308152D01*
X74038333Y-51308152D02*
X73990714Y-51403390D01*
X73990714Y-51403390D02*
X73943095Y-51451009D01*
X73943095Y-51451009D02*
X73847857Y-51498628D01*
X73847857Y-51498628D02*
X73466905Y-51498628D01*
X74990714Y-51974819D02*
X74419286Y-51974819D01*
X74705000Y-51974819D02*
X74705000Y-50974819D01*
X74705000Y-50974819D02*
X74609762Y-51117676D01*
X74609762Y-51117676D02*
X74514524Y-51212914D01*
X74514524Y-51212914D02*
X74419286Y-51260533D01*
X102064580Y-73512857D02*
X102112200Y-73560476D01*
X102112200Y-73560476D02*
X102159819Y-73703333D01*
X102159819Y-73703333D02*
X102159819Y-73798571D01*
X102159819Y-73798571D02*
X102112200Y-73941428D01*
X102112200Y-73941428D02*
X102016961Y-74036666D01*
X102016961Y-74036666D02*
X101921723Y-74084285D01*
X101921723Y-74084285D02*
X101731247Y-74131904D01*
X101731247Y-74131904D02*
X101588390Y-74131904D01*
X101588390Y-74131904D02*
X101397914Y-74084285D01*
X101397914Y-74084285D02*
X101302676Y-74036666D01*
X101302676Y-74036666D02*
X101207438Y-73941428D01*
X101207438Y-73941428D02*
X101159819Y-73798571D01*
X101159819Y-73798571D02*
X101159819Y-73703333D01*
X101159819Y-73703333D02*
X101207438Y-73560476D01*
X101207438Y-73560476D02*
X101255057Y-73512857D01*
X102159819Y-72560476D02*
X102159819Y-73131904D01*
X102159819Y-72846190D02*
X101159819Y-72846190D01*
X101159819Y-72846190D02*
X101302676Y-72941428D01*
X101302676Y-72941428D02*
X101397914Y-73036666D01*
X101397914Y-73036666D02*
X101445533Y-73131904D01*
X101159819Y-71703333D02*
X101159819Y-71893809D01*
X101159819Y-71893809D02*
X101207438Y-71989047D01*
X101207438Y-71989047D02*
X101255057Y-72036666D01*
X101255057Y-72036666D02*
X101397914Y-72131904D01*
X101397914Y-72131904D02*
X101588390Y-72179523D01*
X101588390Y-72179523D02*
X101969342Y-72179523D01*
X101969342Y-72179523D02*
X102064580Y-72131904D01*
X102064580Y-72131904D02*
X102112200Y-72084285D01*
X102112200Y-72084285D02*
X102159819Y-71989047D01*
X102159819Y-71989047D02*
X102159819Y-71798571D01*
X102159819Y-71798571D02*
X102112200Y-71703333D01*
X102112200Y-71703333D02*
X102064580Y-71655714D01*
X102064580Y-71655714D02*
X101969342Y-71608095D01*
X101969342Y-71608095D02*
X101731247Y-71608095D01*
X101731247Y-71608095D02*
X101636009Y-71655714D01*
X101636009Y-71655714D02*
X101588390Y-71703333D01*
X101588390Y-71703333D02*
X101540771Y-71798571D01*
X101540771Y-71798571D02*
X101540771Y-71989047D01*
X101540771Y-71989047D02*
X101588390Y-72084285D01*
X101588390Y-72084285D02*
X101636009Y-72131904D01*
X101636009Y-72131904D02*
X101731247Y-72179523D01*
X100161905Y-64654819D02*
X100161905Y-63654819D01*
X100161905Y-63654819D02*
X100400000Y-63654819D01*
X100400000Y-63654819D02*
X100542857Y-63702438D01*
X100542857Y-63702438D02*
X100638095Y-63797676D01*
X100638095Y-63797676D02*
X100685714Y-63892914D01*
X100685714Y-63892914D02*
X100733333Y-64083390D01*
X100733333Y-64083390D02*
X100733333Y-64226247D01*
X100733333Y-64226247D02*
X100685714Y-64416723D01*
X100685714Y-64416723D02*
X100638095Y-64511961D01*
X100638095Y-64511961D02*
X100542857Y-64607200D01*
X100542857Y-64607200D02*
X100400000Y-64654819D01*
X100400000Y-64654819D02*
X100161905Y-64654819D01*
X101066667Y-63654819D02*
X101685714Y-63654819D01*
X101685714Y-63654819D02*
X101352381Y-64035771D01*
X101352381Y-64035771D02*
X101495238Y-64035771D01*
X101495238Y-64035771D02*
X101590476Y-64083390D01*
X101590476Y-64083390D02*
X101638095Y-64131009D01*
X101638095Y-64131009D02*
X101685714Y-64226247D01*
X101685714Y-64226247D02*
X101685714Y-64464342D01*
X101685714Y-64464342D02*
X101638095Y-64559580D01*
X101638095Y-64559580D02*
X101590476Y-64607200D01*
X101590476Y-64607200D02*
X101495238Y-64654819D01*
X101495238Y-64654819D02*
X101209524Y-64654819D01*
X101209524Y-64654819D02*
X101114286Y-64607200D01*
X101114286Y-64607200D02*
X101066667Y-64559580D01*
X99054819Y-68616666D02*
X98578628Y-68949999D01*
X99054819Y-69188094D02*
X98054819Y-69188094D01*
X98054819Y-69188094D02*
X98054819Y-68807142D01*
X98054819Y-68807142D02*
X98102438Y-68711904D01*
X98102438Y-68711904D02*
X98150057Y-68664285D01*
X98150057Y-68664285D02*
X98245295Y-68616666D01*
X98245295Y-68616666D02*
X98388152Y-68616666D01*
X98388152Y-68616666D02*
X98483390Y-68664285D01*
X98483390Y-68664285D02*
X98531009Y-68711904D01*
X98531009Y-68711904D02*
X98578628Y-68807142D01*
X98578628Y-68807142D02*
X98578628Y-69188094D01*
X98483390Y-68045237D02*
X98435771Y-68140475D01*
X98435771Y-68140475D02*
X98388152Y-68188094D01*
X98388152Y-68188094D02*
X98292914Y-68235713D01*
X98292914Y-68235713D02*
X98245295Y-68235713D01*
X98245295Y-68235713D02*
X98150057Y-68188094D01*
X98150057Y-68188094D02*
X98102438Y-68140475D01*
X98102438Y-68140475D02*
X98054819Y-68045237D01*
X98054819Y-68045237D02*
X98054819Y-67854761D01*
X98054819Y-67854761D02*
X98102438Y-67759523D01*
X98102438Y-67759523D02*
X98150057Y-67711904D01*
X98150057Y-67711904D02*
X98245295Y-67664285D01*
X98245295Y-67664285D02*
X98292914Y-67664285D01*
X98292914Y-67664285D02*
X98388152Y-67711904D01*
X98388152Y-67711904D02*
X98435771Y-67759523D01*
X98435771Y-67759523D02*
X98483390Y-67854761D01*
X98483390Y-67854761D02*
X98483390Y-68045237D01*
X98483390Y-68045237D02*
X98531009Y-68140475D01*
X98531009Y-68140475D02*
X98578628Y-68188094D01*
X98578628Y-68188094D02*
X98673866Y-68235713D01*
X98673866Y-68235713D02*
X98864342Y-68235713D01*
X98864342Y-68235713D02*
X98959580Y-68188094D01*
X98959580Y-68188094D02*
X99007200Y-68140475D01*
X99007200Y-68140475D02*
X99054819Y-68045237D01*
X99054819Y-68045237D02*
X99054819Y-67854761D01*
X99054819Y-67854761D02*
X99007200Y-67759523D01*
X99007200Y-67759523D02*
X98959580Y-67711904D01*
X98959580Y-67711904D02*
X98864342Y-67664285D01*
X98864342Y-67664285D02*
X98673866Y-67664285D01*
X98673866Y-67664285D02*
X98578628Y-67711904D01*
X98578628Y-67711904D02*
X98531009Y-67759523D01*
X98531009Y-67759523D02*
X98483390Y-67854761D01*
X122559580Y-52642857D02*
X122607200Y-52690476D01*
X122607200Y-52690476D02*
X122654819Y-52833333D01*
X122654819Y-52833333D02*
X122654819Y-52928571D01*
X122654819Y-52928571D02*
X122607200Y-53071428D01*
X122607200Y-53071428D02*
X122511961Y-53166666D01*
X122511961Y-53166666D02*
X122416723Y-53214285D01*
X122416723Y-53214285D02*
X122226247Y-53261904D01*
X122226247Y-53261904D02*
X122083390Y-53261904D01*
X122083390Y-53261904D02*
X121892914Y-53214285D01*
X121892914Y-53214285D02*
X121797676Y-53166666D01*
X121797676Y-53166666D02*
X121702438Y-53071428D01*
X121702438Y-53071428D02*
X121654819Y-52928571D01*
X121654819Y-52928571D02*
X121654819Y-52833333D01*
X121654819Y-52833333D02*
X121702438Y-52690476D01*
X121702438Y-52690476D02*
X121750057Y-52642857D01*
X121750057Y-52261904D02*
X121702438Y-52214285D01*
X121702438Y-52214285D02*
X121654819Y-52119047D01*
X121654819Y-52119047D02*
X121654819Y-51880952D01*
X121654819Y-51880952D02*
X121702438Y-51785714D01*
X121702438Y-51785714D02*
X121750057Y-51738095D01*
X121750057Y-51738095D02*
X121845295Y-51690476D01*
X121845295Y-51690476D02*
X121940533Y-51690476D01*
X121940533Y-51690476D02*
X122083390Y-51738095D01*
X122083390Y-51738095D02*
X122654819Y-52309523D01*
X122654819Y-52309523D02*
X122654819Y-51690476D01*
X122083390Y-51119047D02*
X122035771Y-51214285D01*
X122035771Y-51214285D02*
X121988152Y-51261904D01*
X121988152Y-51261904D02*
X121892914Y-51309523D01*
X121892914Y-51309523D02*
X121845295Y-51309523D01*
X121845295Y-51309523D02*
X121750057Y-51261904D01*
X121750057Y-51261904D02*
X121702438Y-51214285D01*
X121702438Y-51214285D02*
X121654819Y-51119047D01*
X121654819Y-51119047D02*
X121654819Y-50928571D01*
X121654819Y-50928571D02*
X121702438Y-50833333D01*
X121702438Y-50833333D02*
X121750057Y-50785714D01*
X121750057Y-50785714D02*
X121845295Y-50738095D01*
X121845295Y-50738095D02*
X121892914Y-50738095D01*
X121892914Y-50738095D02*
X121988152Y-50785714D01*
X121988152Y-50785714D02*
X122035771Y-50833333D01*
X122035771Y-50833333D02*
X122083390Y-50928571D01*
X122083390Y-50928571D02*
X122083390Y-51119047D01*
X122083390Y-51119047D02*
X122131009Y-51214285D01*
X122131009Y-51214285D02*
X122178628Y-51261904D01*
X122178628Y-51261904D02*
X122273866Y-51309523D01*
X122273866Y-51309523D02*
X122464342Y-51309523D01*
X122464342Y-51309523D02*
X122559580Y-51261904D01*
X122559580Y-51261904D02*
X122607200Y-51214285D01*
X122607200Y-51214285D02*
X122654819Y-51119047D01*
X122654819Y-51119047D02*
X122654819Y-50928571D01*
X122654819Y-50928571D02*
X122607200Y-50833333D01*
X122607200Y-50833333D02*
X122559580Y-50785714D01*
X122559580Y-50785714D02*
X122464342Y-50738095D01*
X122464342Y-50738095D02*
X122273866Y-50738095D01*
X122273866Y-50738095D02*
X122178628Y-50785714D01*
X122178628Y-50785714D02*
X122131009Y-50833333D01*
X122131009Y-50833333D02*
X122083390Y-50928571D01*
X105857142Y-52859580D02*
X105809523Y-52907200D01*
X105809523Y-52907200D02*
X105666666Y-52954819D01*
X105666666Y-52954819D02*
X105571428Y-52954819D01*
X105571428Y-52954819D02*
X105428571Y-52907200D01*
X105428571Y-52907200D02*
X105333333Y-52811961D01*
X105333333Y-52811961D02*
X105285714Y-52716723D01*
X105285714Y-52716723D02*
X105238095Y-52526247D01*
X105238095Y-52526247D02*
X105238095Y-52383390D01*
X105238095Y-52383390D02*
X105285714Y-52192914D01*
X105285714Y-52192914D02*
X105333333Y-52097676D01*
X105333333Y-52097676D02*
X105428571Y-52002438D01*
X105428571Y-52002438D02*
X105571428Y-51954819D01*
X105571428Y-51954819D02*
X105666666Y-51954819D01*
X105666666Y-51954819D02*
X105809523Y-52002438D01*
X105809523Y-52002438D02*
X105857142Y-52050057D01*
X106238095Y-52050057D02*
X106285714Y-52002438D01*
X106285714Y-52002438D02*
X106380952Y-51954819D01*
X106380952Y-51954819D02*
X106619047Y-51954819D01*
X106619047Y-51954819D02*
X106714285Y-52002438D01*
X106714285Y-52002438D02*
X106761904Y-52050057D01*
X106761904Y-52050057D02*
X106809523Y-52145295D01*
X106809523Y-52145295D02*
X106809523Y-52240533D01*
X106809523Y-52240533D02*
X106761904Y-52383390D01*
X106761904Y-52383390D02*
X106190476Y-52954819D01*
X106190476Y-52954819D02*
X106809523Y-52954819D01*
X107666666Y-51954819D02*
X107476190Y-51954819D01*
X107476190Y-51954819D02*
X107380952Y-52002438D01*
X107380952Y-52002438D02*
X107333333Y-52050057D01*
X107333333Y-52050057D02*
X107238095Y-52192914D01*
X107238095Y-52192914D02*
X107190476Y-52383390D01*
X107190476Y-52383390D02*
X107190476Y-52764342D01*
X107190476Y-52764342D02*
X107238095Y-52859580D01*
X107238095Y-52859580D02*
X107285714Y-52907200D01*
X107285714Y-52907200D02*
X107380952Y-52954819D01*
X107380952Y-52954819D02*
X107571428Y-52954819D01*
X107571428Y-52954819D02*
X107666666Y-52907200D01*
X107666666Y-52907200D02*
X107714285Y-52859580D01*
X107714285Y-52859580D02*
X107761904Y-52764342D01*
X107761904Y-52764342D02*
X107761904Y-52526247D01*
X107761904Y-52526247D02*
X107714285Y-52431009D01*
X107714285Y-52431009D02*
X107666666Y-52383390D01*
X107666666Y-52383390D02*
X107571428Y-52335771D01*
X107571428Y-52335771D02*
X107380952Y-52335771D01*
X107380952Y-52335771D02*
X107285714Y-52383390D01*
X107285714Y-52383390D02*
X107238095Y-52431009D01*
X107238095Y-52431009D02*
X107190476Y-52526247D01*
X78512142Y-50644819D02*
X78178809Y-50168628D01*
X77940714Y-50644819D02*
X77940714Y-49644819D01*
X77940714Y-49644819D02*
X78321666Y-49644819D01*
X78321666Y-49644819D02*
X78416904Y-49692438D01*
X78416904Y-49692438D02*
X78464523Y-49740057D01*
X78464523Y-49740057D02*
X78512142Y-49835295D01*
X78512142Y-49835295D02*
X78512142Y-49978152D01*
X78512142Y-49978152D02*
X78464523Y-50073390D01*
X78464523Y-50073390D02*
X78416904Y-50121009D01*
X78416904Y-50121009D02*
X78321666Y-50168628D01*
X78321666Y-50168628D02*
X77940714Y-50168628D01*
X79464523Y-50644819D02*
X78893095Y-50644819D01*
X79178809Y-50644819D02*
X79178809Y-49644819D01*
X79178809Y-49644819D02*
X79083571Y-49787676D01*
X79083571Y-49787676D02*
X78988333Y-49882914D01*
X78988333Y-49882914D02*
X78893095Y-49930533D01*
X80369285Y-49644819D02*
X79893095Y-49644819D01*
X79893095Y-49644819D02*
X79845476Y-50121009D01*
X79845476Y-50121009D02*
X79893095Y-50073390D01*
X79893095Y-50073390D02*
X79988333Y-50025771D01*
X79988333Y-50025771D02*
X80226428Y-50025771D01*
X80226428Y-50025771D02*
X80321666Y-50073390D01*
X80321666Y-50073390D02*
X80369285Y-50121009D01*
X80369285Y-50121009D02*
X80416904Y-50216247D01*
X80416904Y-50216247D02*
X80416904Y-50454342D01*
X80416904Y-50454342D02*
X80369285Y-50549580D01*
X80369285Y-50549580D02*
X80321666Y-50597200D01*
X80321666Y-50597200D02*
X80226428Y-50644819D01*
X80226428Y-50644819D02*
X79988333Y-50644819D01*
X79988333Y-50644819D02*
X79893095Y-50597200D01*
X79893095Y-50597200D02*
X79845476Y-50549580D01*
X102262142Y-76354819D02*
X101928809Y-75878628D01*
X101690714Y-76354819D02*
X101690714Y-75354819D01*
X101690714Y-75354819D02*
X102071666Y-75354819D01*
X102071666Y-75354819D02*
X102166904Y-75402438D01*
X102166904Y-75402438D02*
X102214523Y-75450057D01*
X102214523Y-75450057D02*
X102262142Y-75545295D01*
X102262142Y-75545295D02*
X102262142Y-75688152D01*
X102262142Y-75688152D02*
X102214523Y-75783390D01*
X102214523Y-75783390D02*
X102166904Y-75831009D01*
X102166904Y-75831009D02*
X102071666Y-75878628D01*
X102071666Y-75878628D02*
X101690714Y-75878628D01*
X103214523Y-76354819D02*
X102643095Y-76354819D01*
X102928809Y-76354819D02*
X102928809Y-75354819D01*
X102928809Y-75354819D02*
X102833571Y-75497676D01*
X102833571Y-75497676D02*
X102738333Y-75592914D01*
X102738333Y-75592914D02*
X102643095Y-75640533D01*
X104166904Y-76354819D02*
X103595476Y-76354819D01*
X103881190Y-76354819D02*
X103881190Y-75354819D01*
X103881190Y-75354819D02*
X103785952Y-75497676D01*
X103785952Y-75497676D02*
X103690714Y-75592914D01*
X103690714Y-75592914D02*
X103595476Y-75640533D01*
X90088095Y-67354819D02*
X90088095Y-68164342D01*
X90088095Y-68164342D02*
X90135714Y-68259580D01*
X90135714Y-68259580D02*
X90183333Y-68307200D01*
X90183333Y-68307200D02*
X90278571Y-68354819D01*
X90278571Y-68354819D02*
X90469047Y-68354819D01*
X90469047Y-68354819D02*
X90564285Y-68307200D01*
X90564285Y-68307200D02*
X90611904Y-68259580D01*
X90611904Y-68259580D02*
X90659523Y-68164342D01*
X90659523Y-68164342D02*
X90659523Y-67354819D01*
X91564285Y-67688152D02*
X91564285Y-68354819D01*
X91326190Y-67307200D02*
X91088095Y-68021485D01*
X91088095Y-68021485D02*
X91707142Y-68021485D01*
X114238095Y-49654819D02*
X114238095Y-50464342D01*
X114238095Y-50464342D02*
X114285714Y-50559580D01*
X114285714Y-50559580D02*
X114333333Y-50607200D01*
X114333333Y-50607200D02*
X114428571Y-50654819D01*
X114428571Y-50654819D02*
X114619047Y-50654819D01*
X114619047Y-50654819D02*
X114714285Y-50607200D01*
X114714285Y-50607200D02*
X114761904Y-50559580D01*
X114761904Y-50559580D02*
X114809523Y-50464342D01*
X114809523Y-50464342D02*
X114809523Y-49654819D01*
X115714285Y-49654819D02*
X115523809Y-49654819D01*
X115523809Y-49654819D02*
X115428571Y-49702438D01*
X115428571Y-49702438D02*
X115380952Y-49750057D01*
X115380952Y-49750057D02*
X115285714Y-49892914D01*
X115285714Y-49892914D02*
X115238095Y-50083390D01*
X115238095Y-50083390D02*
X115238095Y-50464342D01*
X115238095Y-50464342D02*
X115285714Y-50559580D01*
X115285714Y-50559580D02*
X115333333Y-50607200D01*
X115333333Y-50607200D02*
X115428571Y-50654819D01*
X115428571Y-50654819D02*
X115619047Y-50654819D01*
X115619047Y-50654819D02*
X115714285Y-50607200D01*
X115714285Y-50607200D02*
X115761904Y-50559580D01*
X115761904Y-50559580D02*
X115809523Y-50464342D01*
X115809523Y-50464342D02*
X115809523Y-50226247D01*
X115809523Y-50226247D02*
X115761904Y-50131009D01*
X115761904Y-50131009D02*
X115714285Y-50083390D01*
X115714285Y-50083390D02*
X115619047Y-50035771D01*
X115619047Y-50035771D02*
X115428571Y-50035771D01*
X115428571Y-50035771D02*
X115333333Y-50083390D01*
X115333333Y-50083390D02*
X115285714Y-50131009D01*
X115285714Y-50131009D02*
X115238095Y-50226247D01*
X70728809Y-64798628D02*
X70728809Y-65274819D01*
X70395476Y-64274819D02*
X70728809Y-64798628D01*
X70728809Y-64798628D02*
X71062142Y-64274819D01*
X71919285Y-65274819D02*
X71347857Y-65274819D01*
X71633571Y-65274819D02*
X71633571Y-64274819D01*
X71633571Y-64274819D02*
X71538333Y-64417676D01*
X71538333Y-64417676D02*
X71443095Y-64512914D01*
X71443095Y-64512914D02*
X71347857Y-64560533D01*
X93657142Y-49859580D02*
X93609523Y-49907200D01*
X93609523Y-49907200D02*
X93466666Y-49954819D01*
X93466666Y-49954819D02*
X93371428Y-49954819D01*
X93371428Y-49954819D02*
X93228571Y-49907200D01*
X93228571Y-49907200D02*
X93133333Y-49811961D01*
X93133333Y-49811961D02*
X93085714Y-49716723D01*
X93085714Y-49716723D02*
X93038095Y-49526247D01*
X93038095Y-49526247D02*
X93038095Y-49383390D01*
X93038095Y-49383390D02*
X93085714Y-49192914D01*
X93085714Y-49192914D02*
X93133333Y-49097676D01*
X93133333Y-49097676D02*
X93228571Y-49002438D01*
X93228571Y-49002438D02*
X93371428Y-48954819D01*
X93371428Y-48954819D02*
X93466666Y-48954819D01*
X93466666Y-48954819D02*
X93609523Y-49002438D01*
X93609523Y-49002438D02*
X93657142Y-49050057D01*
X94038095Y-49050057D02*
X94085714Y-49002438D01*
X94085714Y-49002438D02*
X94180952Y-48954819D01*
X94180952Y-48954819D02*
X94419047Y-48954819D01*
X94419047Y-48954819D02*
X94514285Y-49002438D01*
X94514285Y-49002438D02*
X94561904Y-49050057D01*
X94561904Y-49050057D02*
X94609523Y-49145295D01*
X94609523Y-49145295D02*
X94609523Y-49240533D01*
X94609523Y-49240533D02*
X94561904Y-49383390D01*
X94561904Y-49383390D02*
X93990476Y-49954819D01*
X93990476Y-49954819D02*
X94609523Y-49954819D01*
X94942857Y-48954819D02*
X95561904Y-48954819D01*
X95561904Y-48954819D02*
X95228571Y-49335771D01*
X95228571Y-49335771D02*
X95371428Y-49335771D01*
X95371428Y-49335771D02*
X95466666Y-49383390D01*
X95466666Y-49383390D02*
X95514285Y-49431009D01*
X95514285Y-49431009D02*
X95561904Y-49526247D01*
X95561904Y-49526247D02*
X95561904Y-49764342D01*
X95561904Y-49764342D02*
X95514285Y-49859580D01*
X95514285Y-49859580D02*
X95466666Y-49907200D01*
X95466666Y-49907200D02*
X95371428Y-49954819D01*
X95371428Y-49954819D02*
X95085714Y-49954819D01*
X95085714Y-49954819D02*
X94990476Y-49907200D01*
X94990476Y-49907200D02*
X94942857Y-49859580D01*
X77364580Y-68162857D02*
X77412200Y-68210476D01*
X77412200Y-68210476D02*
X77459819Y-68353333D01*
X77459819Y-68353333D02*
X77459819Y-68448571D01*
X77459819Y-68448571D02*
X77412200Y-68591428D01*
X77412200Y-68591428D02*
X77316961Y-68686666D01*
X77316961Y-68686666D02*
X77221723Y-68734285D01*
X77221723Y-68734285D02*
X77031247Y-68781904D01*
X77031247Y-68781904D02*
X76888390Y-68781904D01*
X76888390Y-68781904D02*
X76697914Y-68734285D01*
X76697914Y-68734285D02*
X76602676Y-68686666D01*
X76602676Y-68686666D02*
X76507438Y-68591428D01*
X76507438Y-68591428D02*
X76459819Y-68448571D01*
X76459819Y-68448571D02*
X76459819Y-68353333D01*
X76459819Y-68353333D02*
X76507438Y-68210476D01*
X76507438Y-68210476D02*
X76555057Y-68162857D01*
X77459819Y-67210476D02*
X77459819Y-67781904D01*
X77459819Y-67496190D02*
X76459819Y-67496190D01*
X76459819Y-67496190D02*
X76602676Y-67591428D01*
X76602676Y-67591428D02*
X76697914Y-67686666D01*
X76697914Y-67686666D02*
X76745533Y-67781904D01*
X76459819Y-66877142D02*
X76459819Y-66258095D01*
X76459819Y-66258095D02*
X76840771Y-66591428D01*
X76840771Y-66591428D02*
X76840771Y-66448571D01*
X76840771Y-66448571D02*
X76888390Y-66353333D01*
X76888390Y-66353333D02*
X76936009Y-66305714D01*
X76936009Y-66305714D02*
X77031247Y-66258095D01*
X77031247Y-66258095D02*
X77269342Y-66258095D01*
X77269342Y-66258095D02*
X77364580Y-66305714D01*
X77364580Y-66305714D02*
X77412200Y-66353333D01*
X77412200Y-66353333D02*
X77459819Y-66448571D01*
X77459819Y-66448571D02*
X77459819Y-66734285D01*
X77459819Y-66734285D02*
X77412200Y-66829523D01*
X77412200Y-66829523D02*
X77364580Y-66877142D01*
X73338333Y-66574819D02*
X73005000Y-66098628D01*
X72766905Y-66574819D02*
X72766905Y-65574819D01*
X72766905Y-65574819D02*
X73147857Y-65574819D01*
X73147857Y-65574819D02*
X73243095Y-65622438D01*
X73243095Y-65622438D02*
X73290714Y-65670057D01*
X73290714Y-65670057D02*
X73338333Y-65765295D01*
X73338333Y-65765295D02*
X73338333Y-65908152D01*
X73338333Y-65908152D02*
X73290714Y-66003390D01*
X73290714Y-66003390D02*
X73243095Y-66051009D01*
X73243095Y-66051009D02*
X73147857Y-66098628D01*
X73147857Y-66098628D02*
X72766905Y-66098628D01*
X73671667Y-65574819D02*
X74338333Y-65574819D01*
X74338333Y-65574819D02*
X73909762Y-66574819D01*
X75238333Y-69974819D02*
X74905000Y-69498628D01*
X74666905Y-69974819D02*
X74666905Y-68974819D01*
X74666905Y-68974819D02*
X75047857Y-68974819D01*
X75047857Y-68974819D02*
X75143095Y-69022438D01*
X75143095Y-69022438D02*
X75190714Y-69070057D01*
X75190714Y-69070057D02*
X75238333Y-69165295D01*
X75238333Y-69165295D02*
X75238333Y-69308152D01*
X75238333Y-69308152D02*
X75190714Y-69403390D01*
X75190714Y-69403390D02*
X75143095Y-69451009D01*
X75143095Y-69451009D02*
X75047857Y-69498628D01*
X75047857Y-69498628D02*
X74666905Y-69498628D01*
X76143095Y-68974819D02*
X75666905Y-68974819D01*
X75666905Y-68974819D02*
X75619286Y-69451009D01*
X75619286Y-69451009D02*
X75666905Y-69403390D01*
X75666905Y-69403390D02*
X75762143Y-69355771D01*
X75762143Y-69355771D02*
X76000238Y-69355771D01*
X76000238Y-69355771D02*
X76095476Y-69403390D01*
X76095476Y-69403390D02*
X76143095Y-69451009D01*
X76143095Y-69451009D02*
X76190714Y-69546247D01*
X76190714Y-69546247D02*
X76190714Y-69784342D01*
X76190714Y-69784342D02*
X76143095Y-69879580D01*
X76143095Y-69879580D02*
X76095476Y-69927200D01*
X76095476Y-69927200D02*
X76000238Y-69974819D01*
X76000238Y-69974819D02*
X75762143Y-69974819D01*
X75762143Y-69974819D02*
X75666905Y-69927200D01*
X75666905Y-69927200D02*
X75619286Y-69879580D01*
X85057142Y-73959580D02*
X85009523Y-74007200D01*
X85009523Y-74007200D02*
X84866666Y-74054819D01*
X84866666Y-74054819D02*
X84771428Y-74054819D01*
X84771428Y-74054819D02*
X84628571Y-74007200D01*
X84628571Y-74007200D02*
X84533333Y-73911961D01*
X84533333Y-73911961D02*
X84485714Y-73816723D01*
X84485714Y-73816723D02*
X84438095Y-73626247D01*
X84438095Y-73626247D02*
X84438095Y-73483390D01*
X84438095Y-73483390D02*
X84485714Y-73292914D01*
X84485714Y-73292914D02*
X84533333Y-73197676D01*
X84533333Y-73197676D02*
X84628571Y-73102438D01*
X84628571Y-73102438D02*
X84771428Y-73054819D01*
X84771428Y-73054819D02*
X84866666Y-73054819D01*
X84866666Y-73054819D02*
X85009523Y-73102438D01*
X85009523Y-73102438D02*
X85057142Y-73150057D01*
X85438095Y-73150057D02*
X85485714Y-73102438D01*
X85485714Y-73102438D02*
X85580952Y-73054819D01*
X85580952Y-73054819D02*
X85819047Y-73054819D01*
X85819047Y-73054819D02*
X85914285Y-73102438D01*
X85914285Y-73102438D02*
X85961904Y-73150057D01*
X85961904Y-73150057D02*
X86009523Y-73245295D01*
X86009523Y-73245295D02*
X86009523Y-73340533D01*
X86009523Y-73340533D02*
X85961904Y-73483390D01*
X85961904Y-73483390D02*
X85390476Y-74054819D01*
X85390476Y-74054819D02*
X86009523Y-74054819D01*
X86485714Y-74054819D02*
X86676190Y-74054819D01*
X86676190Y-74054819D02*
X86771428Y-74007200D01*
X86771428Y-74007200D02*
X86819047Y-73959580D01*
X86819047Y-73959580D02*
X86914285Y-73816723D01*
X86914285Y-73816723D02*
X86961904Y-73626247D01*
X86961904Y-73626247D02*
X86961904Y-73245295D01*
X86961904Y-73245295D02*
X86914285Y-73150057D01*
X86914285Y-73150057D02*
X86866666Y-73102438D01*
X86866666Y-73102438D02*
X86771428Y-73054819D01*
X86771428Y-73054819D02*
X86580952Y-73054819D01*
X86580952Y-73054819D02*
X86485714Y-73102438D01*
X86485714Y-73102438D02*
X86438095Y-73150057D01*
X86438095Y-73150057D02*
X86390476Y-73245295D01*
X86390476Y-73245295D02*
X86390476Y-73483390D01*
X86390476Y-73483390D02*
X86438095Y-73578628D01*
X86438095Y-73578628D02*
X86485714Y-73626247D01*
X86485714Y-73626247D02*
X86580952Y-73673866D01*
X86580952Y-73673866D02*
X86771428Y-73673866D01*
X86771428Y-73673866D02*
X86866666Y-73626247D01*
X86866666Y-73626247D02*
X86914285Y-73578628D01*
X86914285Y-73578628D02*
X86961904Y-73483390D01*
X78859819Y-72266666D02*
X78383628Y-72599999D01*
X78859819Y-72838094D02*
X77859819Y-72838094D01*
X77859819Y-72838094D02*
X77859819Y-72457142D01*
X77859819Y-72457142D02*
X77907438Y-72361904D01*
X77907438Y-72361904D02*
X77955057Y-72314285D01*
X77955057Y-72314285D02*
X78050295Y-72266666D01*
X78050295Y-72266666D02*
X78193152Y-72266666D01*
X78193152Y-72266666D02*
X78288390Y-72314285D01*
X78288390Y-72314285D02*
X78336009Y-72361904D01*
X78336009Y-72361904D02*
X78383628Y-72457142D01*
X78383628Y-72457142D02*
X78383628Y-72838094D01*
X77859819Y-71933332D02*
X77859819Y-71314285D01*
X77859819Y-71314285D02*
X78240771Y-71647618D01*
X78240771Y-71647618D02*
X78240771Y-71504761D01*
X78240771Y-71504761D02*
X78288390Y-71409523D01*
X78288390Y-71409523D02*
X78336009Y-71361904D01*
X78336009Y-71361904D02*
X78431247Y-71314285D01*
X78431247Y-71314285D02*
X78669342Y-71314285D01*
X78669342Y-71314285D02*
X78764580Y-71361904D01*
X78764580Y-71361904D02*
X78812200Y-71409523D01*
X78812200Y-71409523D02*
X78859819Y-71504761D01*
X78859819Y-71504761D02*
X78859819Y-71790475D01*
X78859819Y-71790475D02*
X78812200Y-71885713D01*
X78812200Y-71885713D02*
X78764580Y-71933332D01*
X77238333Y-53554819D02*
X76905000Y-53078628D01*
X76666905Y-53554819D02*
X76666905Y-52554819D01*
X76666905Y-52554819D02*
X77047857Y-52554819D01*
X77047857Y-52554819D02*
X77143095Y-52602438D01*
X77143095Y-52602438D02*
X77190714Y-52650057D01*
X77190714Y-52650057D02*
X77238333Y-52745295D01*
X77238333Y-52745295D02*
X77238333Y-52888152D01*
X77238333Y-52888152D02*
X77190714Y-52983390D01*
X77190714Y-52983390D02*
X77143095Y-53031009D01*
X77143095Y-53031009D02*
X77047857Y-53078628D01*
X77047857Y-53078628D02*
X76666905Y-53078628D01*
X78095476Y-52554819D02*
X77905000Y-52554819D01*
X77905000Y-52554819D02*
X77809762Y-52602438D01*
X77809762Y-52602438D02*
X77762143Y-52650057D01*
X77762143Y-52650057D02*
X77666905Y-52792914D01*
X77666905Y-52792914D02*
X77619286Y-52983390D01*
X77619286Y-52983390D02*
X77619286Y-53364342D01*
X77619286Y-53364342D02*
X77666905Y-53459580D01*
X77666905Y-53459580D02*
X77714524Y-53507200D01*
X77714524Y-53507200D02*
X77809762Y-53554819D01*
X77809762Y-53554819D02*
X78000238Y-53554819D01*
X78000238Y-53554819D02*
X78095476Y-53507200D01*
X78095476Y-53507200D02*
X78143095Y-53459580D01*
X78143095Y-53459580D02*
X78190714Y-53364342D01*
X78190714Y-53364342D02*
X78190714Y-53126247D01*
X78190714Y-53126247D02*
X78143095Y-53031009D01*
X78143095Y-53031009D02*
X78095476Y-52983390D01*
X78095476Y-52983390D02*
X78000238Y-52935771D01*
X78000238Y-52935771D02*
X77809762Y-52935771D01*
X77809762Y-52935771D02*
X77714524Y-52983390D01*
X77714524Y-52983390D02*
X77666905Y-53031009D01*
X77666905Y-53031009D02*
X77619286Y-53126247D01*
X89314580Y-55112857D02*
X89362200Y-55160476D01*
X89362200Y-55160476D02*
X89409819Y-55303333D01*
X89409819Y-55303333D02*
X89409819Y-55398571D01*
X89409819Y-55398571D02*
X89362200Y-55541428D01*
X89362200Y-55541428D02*
X89266961Y-55636666D01*
X89266961Y-55636666D02*
X89171723Y-55684285D01*
X89171723Y-55684285D02*
X88981247Y-55731904D01*
X88981247Y-55731904D02*
X88838390Y-55731904D01*
X88838390Y-55731904D02*
X88647914Y-55684285D01*
X88647914Y-55684285D02*
X88552676Y-55636666D01*
X88552676Y-55636666D02*
X88457438Y-55541428D01*
X88457438Y-55541428D02*
X88409819Y-55398571D01*
X88409819Y-55398571D02*
X88409819Y-55303333D01*
X88409819Y-55303333D02*
X88457438Y-55160476D01*
X88457438Y-55160476D02*
X88505057Y-55112857D01*
X88505057Y-54731904D02*
X88457438Y-54684285D01*
X88457438Y-54684285D02*
X88409819Y-54589047D01*
X88409819Y-54589047D02*
X88409819Y-54350952D01*
X88409819Y-54350952D02*
X88457438Y-54255714D01*
X88457438Y-54255714D02*
X88505057Y-54208095D01*
X88505057Y-54208095D02*
X88600295Y-54160476D01*
X88600295Y-54160476D02*
X88695533Y-54160476D01*
X88695533Y-54160476D02*
X88838390Y-54208095D01*
X88838390Y-54208095D02*
X89409819Y-54779523D01*
X89409819Y-54779523D02*
X89409819Y-54160476D01*
X89409819Y-53208095D02*
X89409819Y-53779523D01*
X89409819Y-53493809D02*
X88409819Y-53493809D01*
X88409819Y-53493809D02*
X88552676Y-53589047D01*
X88552676Y-53589047D02*
X88647914Y-53684285D01*
X88647914Y-53684285D02*
X88695533Y-53779523D01*
X83633333Y-79109580D02*
X83585714Y-79157200D01*
X83585714Y-79157200D02*
X83442857Y-79204819D01*
X83442857Y-79204819D02*
X83347619Y-79204819D01*
X83347619Y-79204819D02*
X83204762Y-79157200D01*
X83204762Y-79157200D02*
X83109524Y-79061961D01*
X83109524Y-79061961D02*
X83061905Y-78966723D01*
X83061905Y-78966723D02*
X83014286Y-78776247D01*
X83014286Y-78776247D02*
X83014286Y-78633390D01*
X83014286Y-78633390D02*
X83061905Y-78442914D01*
X83061905Y-78442914D02*
X83109524Y-78347676D01*
X83109524Y-78347676D02*
X83204762Y-78252438D01*
X83204762Y-78252438D02*
X83347619Y-78204819D01*
X83347619Y-78204819D02*
X83442857Y-78204819D01*
X83442857Y-78204819D02*
X83585714Y-78252438D01*
X83585714Y-78252438D02*
X83633333Y-78300057D01*
X84585714Y-79204819D02*
X84014286Y-79204819D01*
X84300000Y-79204819D02*
X84300000Y-78204819D01*
X84300000Y-78204819D02*
X84204762Y-78347676D01*
X84204762Y-78347676D02*
X84109524Y-78442914D01*
X84109524Y-78442914D02*
X84014286Y-78490533D01*
X114657142Y-55559580D02*
X114609523Y-55607200D01*
X114609523Y-55607200D02*
X114466666Y-55654819D01*
X114466666Y-55654819D02*
X114371428Y-55654819D01*
X114371428Y-55654819D02*
X114228571Y-55607200D01*
X114228571Y-55607200D02*
X114133333Y-55511961D01*
X114133333Y-55511961D02*
X114085714Y-55416723D01*
X114085714Y-55416723D02*
X114038095Y-55226247D01*
X114038095Y-55226247D02*
X114038095Y-55083390D01*
X114038095Y-55083390D02*
X114085714Y-54892914D01*
X114085714Y-54892914D02*
X114133333Y-54797676D01*
X114133333Y-54797676D02*
X114228571Y-54702438D01*
X114228571Y-54702438D02*
X114371428Y-54654819D01*
X114371428Y-54654819D02*
X114466666Y-54654819D01*
X114466666Y-54654819D02*
X114609523Y-54702438D01*
X114609523Y-54702438D02*
X114657142Y-54750057D01*
X115038095Y-54750057D02*
X115085714Y-54702438D01*
X115085714Y-54702438D02*
X115180952Y-54654819D01*
X115180952Y-54654819D02*
X115419047Y-54654819D01*
X115419047Y-54654819D02*
X115514285Y-54702438D01*
X115514285Y-54702438D02*
X115561904Y-54750057D01*
X115561904Y-54750057D02*
X115609523Y-54845295D01*
X115609523Y-54845295D02*
X115609523Y-54940533D01*
X115609523Y-54940533D02*
X115561904Y-55083390D01*
X115561904Y-55083390D02*
X114990476Y-55654819D01*
X114990476Y-55654819D02*
X115609523Y-55654819D01*
X115942857Y-54654819D02*
X116609523Y-54654819D01*
X116609523Y-54654819D02*
X116180952Y-55654819D01*
X84259819Y-73066666D02*
X83783628Y-73399999D01*
X84259819Y-73638094D02*
X83259819Y-73638094D01*
X83259819Y-73638094D02*
X83259819Y-73257142D01*
X83259819Y-73257142D02*
X83307438Y-73161904D01*
X83307438Y-73161904D02*
X83355057Y-73114285D01*
X83355057Y-73114285D02*
X83450295Y-73066666D01*
X83450295Y-73066666D02*
X83593152Y-73066666D01*
X83593152Y-73066666D02*
X83688390Y-73114285D01*
X83688390Y-73114285D02*
X83736009Y-73161904D01*
X83736009Y-73161904D02*
X83783628Y-73257142D01*
X83783628Y-73257142D02*
X83783628Y-73638094D01*
X83355057Y-72685713D02*
X83307438Y-72638094D01*
X83307438Y-72638094D02*
X83259819Y-72542856D01*
X83259819Y-72542856D02*
X83259819Y-72304761D01*
X83259819Y-72304761D02*
X83307438Y-72209523D01*
X83307438Y-72209523D02*
X83355057Y-72161904D01*
X83355057Y-72161904D02*
X83450295Y-72114285D01*
X83450295Y-72114285D02*
X83545533Y-72114285D01*
X83545533Y-72114285D02*
X83688390Y-72161904D01*
X83688390Y-72161904D02*
X84259819Y-72733332D01*
X84259819Y-72733332D02*
X84259819Y-72114285D01*
X95514580Y-67662857D02*
X95562200Y-67710476D01*
X95562200Y-67710476D02*
X95609819Y-67853333D01*
X95609819Y-67853333D02*
X95609819Y-67948571D01*
X95609819Y-67948571D02*
X95562200Y-68091428D01*
X95562200Y-68091428D02*
X95466961Y-68186666D01*
X95466961Y-68186666D02*
X95371723Y-68234285D01*
X95371723Y-68234285D02*
X95181247Y-68281904D01*
X95181247Y-68281904D02*
X95038390Y-68281904D01*
X95038390Y-68281904D02*
X94847914Y-68234285D01*
X94847914Y-68234285D02*
X94752676Y-68186666D01*
X94752676Y-68186666D02*
X94657438Y-68091428D01*
X94657438Y-68091428D02*
X94609819Y-67948571D01*
X94609819Y-67948571D02*
X94609819Y-67853333D01*
X94609819Y-67853333D02*
X94657438Y-67710476D01*
X94657438Y-67710476D02*
X94705057Y-67662857D01*
X95609819Y-66710476D02*
X95609819Y-67281904D01*
X95609819Y-66996190D02*
X94609819Y-66996190D01*
X94609819Y-66996190D02*
X94752676Y-67091428D01*
X94752676Y-67091428D02*
X94847914Y-67186666D01*
X94847914Y-67186666D02*
X94895533Y-67281904D01*
X95609819Y-66234285D02*
X95609819Y-66043809D01*
X95609819Y-66043809D02*
X95562200Y-65948571D01*
X95562200Y-65948571D02*
X95514580Y-65900952D01*
X95514580Y-65900952D02*
X95371723Y-65805714D01*
X95371723Y-65805714D02*
X95181247Y-65758095D01*
X95181247Y-65758095D02*
X94800295Y-65758095D01*
X94800295Y-65758095D02*
X94705057Y-65805714D01*
X94705057Y-65805714D02*
X94657438Y-65853333D01*
X94657438Y-65853333D02*
X94609819Y-65948571D01*
X94609819Y-65948571D02*
X94609819Y-66139047D01*
X94609819Y-66139047D02*
X94657438Y-66234285D01*
X94657438Y-66234285D02*
X94705057Y-66281904D01*
X94705057Y-66281904D02*
X94800295Y-66329523D01*
X94800295Y-66329523D02*
X95038390Y-66329523D01*
X95038390Y-66329523D02*
X95133628Y-66281904D01*
X95133628Y-66281904D02*
X95181247Y-66234285D01*
X95181247Y-66234285D02*
X95228866Y-66139047D01*
X95228866Y-66139047D02*
X95228866Y-65948571D01*
X95228866Y-65948571D02*
X95181247Y-65853333D01*
X95181247Y-65853333D02*
X95133628Y-65805714D01*
X95133628Y-65805714D02*
X95038390Y-65758095D01*
X103707142Y-73004819D02*
X103373809Y-72528628D01*
X103135714Y-73004819D02*
X103135714Y-72004819D01*
X103135714Y-72004819D02*
X103516666Y-72004819D01*
X103516666Y-72004819D02*
X103611904Y-72052438D01*
X103611904Y-72052438D02*
X103659523Y-72100057D01*
X103659523Y-72100057D02*
X103707142Y-72195295D01*
X103707142Y-72195295D02*
X103707142Y-72338152D01*
X103707142Y-72338152D02*
X103659523Y-72433390D01*
X103659523Y-72433390D02*
X103611904Y-72481009D01*
X103611904Y-72481009D02*
X103516666Y-72528628D01*
X103516666Y-72528628D02*
X103135714Y-72528628D01*
X104659523Y-73004819D02*
X104088095Y-73004819D01*
X104373809Y-73004819D02*
X104373809Y-72004819D01*
X104373809Y-72004819D02*
X104278571Y-72147676D01*
X104278571Y-72147676D02*
X104183333Y-72242914D01*
X104183333Y-72242914D02*
X104088095Y-72290533D01*
X105040476Y-72100057D02*
X105088095Y-72052438D01*
X105088095Y-72052438D02*
X105183333Y-72004819D01*
X105183333Y-72004819D02*
X105421428Y-72004819D01*
X105421428Y-72004819D02*
X105516666Y-72052438D01*
X105516666Y-72052438D02*
X105564285Y-72100057D01*
X105564285Y-72100057D02*
X105611904Y-72195295D01*
X105611904Y-72195295D02*
X105611904Y-72290533D01*
X105611904Y-72290533D02*
X105564285Y-72433390D01*
X105564285Y-72433390D02*
X104992857Y-73004819D01*
X104992857Y-73004819D02*
X105611904Y-73004819D01*
X90262142Y-50359580D02*
X90214523Y-50407200D01*
X90214523Y-50407200D02*
X90071666Y-50454819D01*
X90071666Y-50454819D02*
X89976428Y-50454819D01*
X89976428Y-50454819D02*
X89833571Y-50407200D01*
X89833571Y-50407200D02*
X89738333Y-50311961D01*
X89738333Y-50311961D02*
X89690714Y-50216723D01*
X89690714Y-50216723D02*
X89643095Y-50026247D01*
X89643095Y-50026247D02*
X89643095Y-49883390D01*
X89643095Y-49883390D02*
X89690714Y-49692914D01*
X89690714Y-49692914D02*
X89738333Y-49597676D01*
X89738333Y-49597676D02*
X89833571Y-49502438D01*
X89833571Y-49502438D02*
X89976428Y-49454819D01*
X89976428Y-49454819D02*
X90071666Y-49454819D01*
X90071666Y-49454819D02*
X90214523Y-49502438D01*
X90214523Y-49502438D02*
X90262142Y-49550057D01*
X90643095Y-49550057D02*
X90690714Y-49502438D01*
X90690714Y-49502438D02*
X90785952Y-49454819D01*
X90785952Y-49454819D02*
X91024047Y-49454819D01*
X91024047Y-49454819D02*
X91119285Y-49502438D01*
X91119285Y-49502438D02*
X91166904Y-49550057D01*
X91166904Y-49550057D02*
X91214523Y-49645295D01*
X91214523Y-49645295D02*
X91214523Y-49740533D01*
X91214523Y-49740533D02*
X91166904Y-49883390D01*
X91166904Y-49883390D02*
X90595476Y-50454819D01*
X90595476Y-50454819D02*
X91214523Y-50454819D01*
X91595476Y-49550057D02*
X91643095Y-49502438D01*
X91643095Y-49502438D02*
X91738333Y-49454819D01*
X91738333Y-49454819D02*
X91976428Y-49454819D01*
X91976428Y-49454819D02*
X92071666Y-49502438D01*
X92071666Y-49502438D02*
X92119285Y-49550057D01*
X92119285Y-49550057D02*
X92166904Y-49645295D01*
X92166904Y-49645295D02*
X92166904Y-49740533D01*
X92166904Y-49740533D02*
X92119285Y-49883390D01*
X92119285Y-49883390D02*
X91547857Y-50454819D01*
X91547857Y-50454819D02*
X92166904Y-50454819D01*
X88462142Y-66509580D02*
X88414523Y-66557200D01*
X88414523Y-66557200D02*
X88271666Y-66604819D01*
X88271666Y-66604819D02*
X88176428Y-66604819D01*
X88176428Y-66604819D02*
X88033571Y-66557200D01*
X88033571Y-66557200D02*
X87938333Y-66461961D01*
X87938333Y-66461961D02*
X87890714Y-66366723D01*
X87890714Y-66366723D02*
X87843095Y-66176247D01*
X87843095Y-66176247D02*
X87843095Y-66033390D01*
X87843095Y-66033390D02*
X87890714Y-65842914D01*
X87890714Y-65842914D02*
X87938333Y-65747676D01*
X87938333Y-65747676D02*
X88033571Y-65652438D01*
X88033571Y-65652438D02*
X88176428Y-65604819D01*
X88176428Y-65604819D02*
X88271666Y-65604819D01*
X88271666Y-65604819D02*
X88414523Y-65652438D01*
X88414523Y-65652438D02*
X88462142Y-65700057D01*
X89414523Y-66604819D02*
X88843095Y-66604819D01*
X89128809Y-66604819D02*
X89128809Y-65604819D01*
X89128809Y-65604819D02*
X89033571Y-65747676D01*
X89033571Y-65747676D02*
X88938333Y-65842914D01*
X88938333Y-65842914D02*
X88843095Y-65890533D01*
X90319285Y-65604819D02*
X89843095Y-65604819D01*
X89843095Y-65604819D02*
X89795476Y-66081009D01*
X89795476Y-66081009D02*
X89843095Y-66033390D01*
X89843095Y-66033390D02*
X89938333Y-65985771D01*
X89938333Y-65985771D02*
X90176428Y-65985771D01*
X90176428Y-65985771D02*
X90271666Y-66033390D01*
X90271666Y-66033390D02*
X90319285Y-66081009D01*
X90319285Y-66081009D02*
X90366904Y-66176247D01*
X90366904Y-66176247D02*
X90366904Y-66414342D01*
X90366904Y-66414342D02*
X90319285Y-66509580D01*
X90319285Y-66509580D02*
X90271666Y-66557200D01*
X90271666Y-66557200D02*
X90176428Y-66604819D01*
X90176428Y-66604819D02*
X89938333Y-66604819D01*
X89938333Y-66604819D02*
X89843095Y-66557200D01*
X89843095Y-66557200D02*
X89795476Y-66509580D01*
X79109819Y-78066666D02*
X78633628Y-78399999D01*
X79109819Y-78638094D02*
X78109819Y-78638094D01*
X78109819Y-78638094D02*
X78109819Y-78257142D01*
X78109819Y-78257142D02*
X78157438Y-78161904D01*
X78157438Y-78161904D02*
X78205057Y-78114285D01*
X78205057Y-78114285D02*
X78300295Y-78066666D01*
X78300295Y-78066666D02*
X78443152Y-78066666D01*
X78443152Y-78066666D02*
X78538390Y-78114285D01*
X78538390Y-78114285D02*
X78586009Y-78161904D01*
X78586009Y-78161904D02*
X78633628Y-78257142D01*
X78633628Y-78257142D02*
X78633628Y-78638094D01*
X78443152Y-77209523D02*
X79109819Y-77209523D01*
X78062200Y-77447618D02*
X78776485Y-77685713D01*
X78776485Y-77685713D02*
X78776485Y-77066666D01*
X83057142Y-70759580D02*
X83009523Y-70807200D01*
X83009523Y-70807200D02*
X82866666Y-70854819D01*
X82866666Y-70854819D02*
X82771428Y-70854819D01*
X82771428Y-70854819D02*
X82628571Y-70807200D01*
X82628571Y-70807200D02*
X82533333Y-70711961D01*
X82533333Y-70711961D02*
X82485714Y-70616723D01*
X82485714Y-70616723D02*
X82438095Y-70426247D01*
X82438095Y-70426247D02*
X82438095Y-70283390D01*
X82438095Y-70283390D02*
X82485714Y-70092914D01*
X82485714Y-70092914D02*
X82533333Y-69997676D01*
X82533333Y-69997676D02*
X82628571Y-69902438D01*
X82628571Y-69902438D02*
X82771428Y-69854819D01*
X82771428Y-69854819D02*
X82866666Y-69854819D01*
X82866666Y-69854819D02*
X83009523Y-69902438D01*
X83009523Y-69902438D02*
X83057142Y-69950057D01*
X84009523Y-70854819D02*
X83438095Y-70854819D01*
X83723809Y-70854819D02*
X83723809Y-69854819D01*
X83723809Y-69854819D02*
X83628571Y-69997676D01*
X83628571Y-69997676D02*
X83533333Y-70092914D01*
X83533333Y-70092914D02*
X83438095Y-70140533D01*
X84390476Y-69950057D02*
X84438095Y-69902438D01*
X84438095Y-69902438D02*
X84533333Y-69854819D01*
X84533333Y-69854819D02*
X84771428Y-69854819D01*
X84771428Y-69854819D02*
X84866666Y-69902438D01*
X84866666Y-69902438D02*
X84914285Y-69950057D01*
X84914285Y-69950057D02*
X84961904Y-70045295D01*
X84961904Y-70045295D02*
X84961904Y-70140533D01*
X84961904Y-70140533D02*
X84914285Y-70283390D01*
X84914285Y-70283390D02*
X84342857Y-70854819D01*
X84342857Y-70854819D02*
X84961904Y-70854819D01*
X77164580Y-58742857D02*
X77212200Y-58790476D01*
X77212200Y-58790476D02*
X77259819Y-58933333D01*
X77259819Y-58933333D02*
X77259819Y-59028571D01*
X77259819Y-59028571D02*
X77212200Y-59171428D01*
X77212200Y-59171428D02*
X77116961Y-59266666D01*
X77116961Y-59266666D02*
X77021723Y-59314285D01*
X77021723Y-59314285D02*
X76831247Y-59361904D01*
X76831247Y-59361904D02*
X76688390Y-59361904D01*
X76688390Y-59361904D02*
X76497914Y-59314285D01*
X76497914Y-59314285D02*
X76402676Y-59266666D01*
X76402676Y-59266666D02*
X76307438Y-59171428D01*
X76307438Y-59171428D02*
X76259819Y-59028571D01*
X76259819Y-59028571D02*
X76259819Y-58933333D01*
X76259819Y-58933333D02*
X76307438Y-58790476D01*
X76307438Y-58790476D02*
X76355057Y-58742857D01*
X77259819Y-57790476D02*
X77259819Y-58361904D01*
X77259819Y-58076190D02*
X76259819Y-58076190D01*
X76259819Y-58076190D02*
X76402676Y-58171428D01*
X76402676Y-58171428D02*
X76497914Y-58266666D01*
X76497914Y-58266666D02*
X76545533Y-58361904D01*
X76259819Y-57171428D02*
X76259819Y-57076190D01*
X76259819Y-57076190D02*
X76307438Y-56980952D01*
X76307438Y-56980952D02*
X76355057Y-56933333D01*
X76355057Y-56933333D02*
X76450295Y-56885714D01*
X76450295Y-56885714D02*
X76640771Y-56838095D01*
X76640771Y-56838095D02*
X76878866Y-56838095D01*
X76878866Y-56838095D02*
X77069342Y-56885714D01*
X77069342Y-56885714D02*
X77164580Y-56933333D01*
X77164580Y-56933333D02*
X77212200Y-56980952D01*
X77212200Y-56980952D02*
X77259819Y-57076190D01*
X77259819Y-57076190D02*
X77259819Y-57171428D01*
X77259819Y-57171428D02*
X77212200Y-57266666D01*
X77212200Y-57266666D02*
X77164580Y-57314285D01*
X77164580Y-57314285D02*
X77069342Y-57361904D01*
X77069342Y-57361904D02*
X76878866Y-57409523D01*
X76878866Y-57409523D02*
X76640771Y-57409523D01*
X76640771Y-57409523D02*
X76450295Y-57361904D01*
X76450295Y-57361904D02*
X76355057Y-57314285D01*
X76355057Y-57314285D02*
X76307438Y-57266666D01*
X76307438Y-57266666D02*
X76259819Y-57171428D01*
X103657142Y-70309580D02*
X103609523Y-70357200D01*
X103609523Y-70357200D02*
X103466666Y-70404819D01*
X103466666Y-70404819D02*
X103371428Y-70404819D01*
X103371428Y-70404819D02*
X103228571Y-70357200D01*
X103228571Y-70357200D02*
X103133333Y-70261961D01*
X103133333Y-70261961D02*
X103085714Y-70166723D01*
X103085714Y-70166723D02*
X103038095Y-69976247D01*
X103038095Y-69976247D02*
X103038095Y-69833390D01*
X103038095Y-69833390D02*
X103085714Y-69642914D01*
X103085714Y-69642914D02*
X103133333Y-69547676D01*
X103133333Y-69547676D02*
X103228571Y-69452438D01*
X103228571Y-69452438D02*
X103371428Y-69404819D01*
X103371428Y-69404819D02*
X103466666Y-69404819D01*
X103466666Y-69404819D02*
X103609523Y-69452438D01*
X103609523Y-69452438D02*
X103657142Y-69500057D01*
X104609523Y-70404819D02*
X104038095Y-70404819D01*
X104323809Y-70404819D02*
X104323809Y-69404819D01*
X104323809Y-69404819D02*
X104228571Y-69547676D01*
X104228571Y-69547676D02*
X104133333Y-69642914D01*
X104133333Y-69642914D02*
X104038095Y-69690533D01*
X105180952Y-69833390D02*
X105085714Y-69785771D01*
X105085714Y-69785771D02*
X105038095Y-69738152D01*
X105038095Y-69738152D02*
X104990476Y-69642914D01*
X104990476Y-69642914D02*
X104990476Y-69595295D01*
X104990476Y-69595295D02*
X105038095Y-69500057D01*
X105038095Y-69500057D02*
X105085714Y-69452438D01*
X105085714Y-69452438D02*
X105180952Y-69404819D01*
X105180952Y-69404819D02*
X105371428Y-69404819D01*
X105371428Y-69404819D02*
X105466666Y-69452438D01*
X105466666Y-69452438D02*
X105514285Y-69500057D01*
X105514285Y-69500057D02*
X105561904Y-69595295D01*
X105561904Y-69595295D02*
X105561904Y-69642914D01*
X105561904Y-69642914D02*
X105514285Y-69738152D01*
X105514285Y-69738152D02*
X105466666Y-69785771D01*
X105466666Y-69785771D02*
X105371428Y-69833390D01*
X105371428Y-69833390D02*
X105180952Y-69833390D01*
X105180952Y-69833390D02*
X105085714Y-69881009D01*
X105085714Y-69881009D02*
X105038095Y-69928628D01*
X105038095Y-69928628D02*
X104990476Y-70023866D01*
X104990476Y-70023866D02*
X104990476Y-70214342D01*
X104990476Y-70214342D02*
X105038095Y-70309580D01*
X105038095Y-70309580D02*
X105085714Y-70357200D01*
X105085714Y-70357200D02*
X105180952Y-70404819D01*
X105180952Y-70404819D02*
X105371428Y-70404819D01*
X105371428Y-70404819D02*
X105466666Y-70357200D01*
X105466666Y-70357200D02*
X105514285Y-70309580D01*
X105514285Y-70309580D02*
X105561904Y-70214342D01*
X105561904Y-70214342D02*
X105561904Y-70023866D01*
X105561904Y-70023866D02*
X105514285Y-69928628D01*
X105514285Y-69928628D02*
X105466666Y-69881009D01*
X105466666Y-69881009D02*
X105371428Y-69833390D01*
X90112142Y-52554819D02*
X89778809Y-52078628D01*
X89540714Y-52554819D02*
X89540714Y-51554819D01*
X89540714Y-51554819D02*
X89921666Y-51554819D01*
X89921666Y-51554819D02*
X90016904Y-51602438D01*
X90016904Y-51602438D02*
X90064523Y-51650057D01*
X90064523Y-51650057D02*
X90112142Y-51745295D01*
X90112142Y-51745295D02*
X90112142Y-51888152D01*
X90112142Y-51888152D02*
X90064523Y-51983390D01*
X90064523Y-51983390D02*
X90016904Y-52031009D01*
X90016904Y-52031009D02*
X89921666Y-52078628D01*
X89921666Y-52078628D02*
X89540714Y-52078628D01*
X91064523Y-52554819D02*
X90493095Y-52554819D01*
X90778809Y-52554819D02*
X90778809Y-51554819D01*
X90778809Y-51554819D02*
X90683571Y-51697676D01*
X90683571Y-51697676D02*
X90588333Y-51792914D01*
X90588333Y-51792914D02*
X90493095Y-51840533D01*
X91921666Y-51554819D02*
X91731190Y-51554819D01*
X91731190Y-51554819D02*
X91635952Y-51602438D01*
X91635952Y-51602438D02*
X91588333Y-51650057D01*
X91588333Y-51650057D02*
X91493095Y-51792914D01*
X91493095Y-51792914D02*
X91445476Y-51983390D01*
X91445476Y-51983390D02*
X91445476Y-52364342D01*
X91445476Y-52364342D02*
X91493095Y-52459580D01*
X91493095Y-52459580D02*
X91540714Y-52507200D01*
X91540714Y-52507200D02*
X91635952Y-52554819D01*
X91635952Y-52554819D02*
X91826428Y-52554819D01*
X91826428Y-52554819D02*
X91921666Y-52507200D01*
X91921666Y-52507200D02*
X91969285Y-52459580D01*
X91969285Y-52459580D02*
X92016904Y-52364342D01*
X92016904Y-52364342D02*
X92016904Y-52126247D01*
X92016904Y-52126247D02*
X91969285Y-52031009D01*
X91969285Y-52031009D02*
X91921666Y-51983390D01*
X91921666Y-51983390D02*
X91826428Y-51935771D01*
X91826428Y-51935771D02*
X91635952Y-51935771D01*
X91635952Y-51935771D02*
X91540714Y-51983390D01*
X91540714Y-51983390D02*
X91493095Y-52031009D01*
X91493095Y-52031009D02*
X91445476Y-52126247D01*
X120038095Y-49254819D02*
X120038095Y-50064342D01*
X120038095Y-50064342D02*
X120085714Y-50159580D01*
X120085714Y-50159580D02*
X120133333Y-50207200D01*
X120133333Y-50207200D02*
X120228571Y-50254819D01*
X120228571Y-50254819D02*
X120419047Y-50254819D01*
X120419047Y-50254819D02*
X120514285Y-50207200D01*
X120514285Y-50207200D02*
X120561904Y-50159580D01*
X120561904Y-50159580D02*
X120609523Y-50064342D01*
X120609523Y-50064342D02*
X120609523Y-49254819D01*
X120990476Y-49254819D02*
X121657142Y-49254819D01*
X121657142Y-49254819D02*
X121228571Y-50254819D01*
X90244580Y-59766666D02*
X90292200Y-59814285D01*
X90292200Y-59814285D02*
X90339819Y-59957142D01*
X90339819Y-59957142D02*
X90339819Y-60052380D01*
X90339819Y-60052380D02*
X90292200Y-60195237D01*
X90292200Y-60195237D02*
X90196961Y-60290475D01*
X90196961Y-60290475D02*
X90101723Y-60338094D01*
X90101723Y-60338094D02*
X89911247Y-60385713D01*
X89911247Y-60385713D02*
X89768390Y-60385713D01*
X89768390Y-60385713D02*
X89577914Y-60338094D01*
X89577914Y-60338094D02*
X89482676Y-60290475D01*
X89482676Y-60290475D02*
X89387438Y-60195237D01*
X89387438Y-60195237D02*
X89339819Y-60052380D01*
X89339819Y-60052380D02*
X89339819Y-59957142D01*
X89339819Y-59957142D02*
X89387438Y-59814285D01*
X89387438Y-59814285D02*
X89435057Y-59766666D01*
X90339819Y-59290475D02*
X90339819Y-59099999D01*
X90339819Y-59099999D02*
X90292200Y-59004761D01*
X90292200Y-59004761D02*
X90244580Y-58957142D01*
X90244580Y-58957142D02*
X90101723Y-58861904D01*
X90101723Y-58861904D02*
X89911247Y-58814285D01*
X89911247Y-58814285D02*
X89530295Y-58814285D01*
X89530295Y-58814285D02*
X89435057Y-58861904D01*
X89435057Y-58861904D02*
X89387438Y-58909523D01*
X89387438Y-58909523D02*
X89339819Y-59004761D01*
X89339819Y-59004761D02*
X89339819Y-59195237D01*
X89339819Y-59195237D02*
X89387438Y-59290475D01*
X89387438Y-59290475D02*
X89435057Y-59338094D01*
X89435057Y-59338094D02*
X89530295Y-59385713D01*
X89530295Y-59385713D02*
X89768390Y-59385713D01*
X89768390Y-59385713D02*
X89863628Y-59338094D01*
X89863628Y-59338094D02*
X89911247Y-59290475D01*
X89911247Y-59290475D02*
X89958866Y-59195237D01*
X89958866Y-59195237D02*
X89958866Y-59004761D01*
X89958866Y-59004761D02*
X89911247Y-58909523D01*
X89911247Y-58909523D02*
X89863628Y-58861904D01*
X89863628Y-58861904D02*
X89768390Y-58814285D01*
X93657142Y-51454819D02*
X93323809Y-50978628D01*
X93085714Y-51454819D02*
X93085714Y-50454819D01*
X93085714Y-50454819D02*
X93466666Y-50454819D01*
X93466666Y-50454819D02*
X93561904Y-50502438D01*
X93561904Y-50502438D02*
X93609523Y-50550057D01*
X93609523Y-50550057D02*
X93657142Y-50645295D01*
X93657142Y-50645295D02*
X93657142Y-50788152D01*
X93657142Y-50788152D02*
X93609523Y-50883390D01*
X93609523Y-50883390D02*
X93561904Y-50931009D01*
X93561904Y-50931009D02*
X93466666Y-50978628D01*
X93466666Y-50978628D02*
X93085714Y-50978628D01*
X94609523Y-51454819D02*
X94038095Y-51454819D01*
X94323809Y-51454819D02*
X94323809Y-50454819D01*
X94323809Y-50454819D02*
X94228571Y-50597676D01*
X94228571Y-50597676D02*
X94133333Y-50692914D01*
X94133333Y-50692914D02*
X94038095Y-50740533D01*
X94942857Y-50454819D02*
X95609523Y-50454819D01*
X95609523Y-50454819D02*
X95180952Y-51454819D01*
X101454819Y-50942857D02*
X100978628Y-51276190D01*
X101454819Y-51514285D02*
X100454819Y-51514285D01*
X100454819Y-51514285D02*
X100454819Y-51133333D01*
X100454819Y-51133333D02*
X100502438Y-51038095D01*
X100502438Y-51038095D02*
X100550057Y-50990476D01*
X100550057Y-50990476D02*
X100645295Y-50942857D01*
X100645295Y-50942857D02*
X100788152Y-50942857D01*
X100788152Y-50942857D02*
X100883390Y-50990476D01*
X100883390Y-50990476D02*
X100931009Y-51038095D01*
X100931009Y-51038095D02*
X100978628Y-51133333D01*
X100978628Y-51133333D02*
X100978628Y-51514285D01*
X101454819Y-49990476D02*
X101454819Y-50561904D01*
X101454819Y-50276190D02*
X100454819Y-50276190D01*
X100454819Y-50276190D02*
X100597676Y-50371428D01*
X100597676Y-50371428D02*
X100692914Y-50466666D01*
X100692914Y-50466666D02*
X100740533Y-50561904D01*
X101454819Y-49514285D02*
X101454819Y-49323809D01*
X101454819Y-49323809D02*
X101407200Y-49228571D01*
X101407200Y-49228571D02*
X101359580Y-49180952D01*
X101359580Y-49180952D02*
X101216723Y-49085714D01*
X101216723Y-49085714D02*
X101026247Y-49038095D01*
X101026247Y-49038095D02*
X100645295Y-49038095D01*
X100645295Y-49038095D02*
X100550057Y-49085714D01*
X100550057Y-49085714D02*
X100502438Y-49133333D01*
X100502438Y-49133333D02*
X100454819Y-49228571D01*
X100454819Y-49228571D02*
X100454819Y-49419047D01*
X100454819Y-49419047D02*
X100502438Y-49514285D01*
X100502438Y-49514285D02*
X100550057Y-49561904D01*
X100550057Y-49561904D02*
X100645295Y-49609523D01*
X100645295Y-49609523D02*
X100883390Y-49609523D01*
X100883390Y-49609523D02*
X100978628Y-49561904D01*
X100978628Y-49561904D02*
X101026247Y-49514285D01*
X101026247Y-49514285D02*
X101073866Y-49419047D01*
X101073866Y-49419047D02*
X101073866Y-49228571D01*
X101073866Y-49228571D02*
X101026247Y-49133333D01*
X101026247Y-49133333D02*
X100978628Y-49085714D01*
X100978628Y-49085714D02*
X100883390Y-49038095D01*
X69134580Y-58591666D02*
X69182200Y-58639285D01*
X69182200Y-58639285D02*
X69229819Y-58782142D01*
X69229819Y-58782142D02*
X69229819Y-58877380D01*
X69229819Y-58877380D02*
X69182200Y-59020237D01*
X69182200Y-59020237D02*
X69086961Y-59115475D01*
X69086961Y-59115475D02*
X68991723Y-59163094D01*
X68991723Y-59163094D02*
X68801247Y-59210713D01*
X68801247Y-59210713D02*
X68658390Y-59210713D01*
X68658390Y-59210713D02*
X68467914Y-59163094D01*
X68467914Y-59163094D02*
X68372676Y-59115475D01*
X68372676Y-59115475D02*
X68277438Y-59020237D01*
X68277438Y-59020237D02*
X68229819Y-58877380D01*
X68229819Y-58877380D02*
X68229819Y-58782142D01*
X68229819Y-58782142D02*
X68277438Y-58639285D01*
X68277438Y-58639285D02*
X68325057Y-58591666D01*
X68658390Y-58020237D02*
X68610771Y-58115475D01*
X68610771Y-58115475D02*
X68563152Y-58163094D01*
X68563152Y-58163094D02*
X68467914Y-58210713D01*
X68467914Y-58210713D02*
X68420295Y-58210713D01*
X68420295Y-58210713D02*
X68325057Y-58163094D01*
X68325057Y-58163094D02*
X68277438Y-58115475D01*
X68277438Y-58115475D02*
X68229819Y-58020237D01*
X68229819Y-58020237D02*
X68229819Y-57829761D01*
X68229819Y-57829761D02*
X68277438Y-57734523D01*
X68277438Y-57734523D02*
X68325057Y-57686904D01*
X68325057Y-57686904D02*
X68420295Y-57639285D01*
X68420295Y-57639285D02*
X68467914Y-57639285D01*
X68467914Y-57639285D02*
X68563152Y-57686904D01*
X68563152Y-57686904D02*
X68610771Y-57734523D01*
X68610771Y-57734523D02*
X68658390Y-57829761D01*
X68658390Y-57829761D02*
X68658390Y-58020237D01*
X68658390Y-58020237D02*
X68706009Y-58115475D01*
X68706009Y-58115475D02*
X68753628Y-58163094D01*
X68753628Y-58163094D02*
X68848866Y-58210713D01*
X68848866Y-58210713D02*
X69039342Y-58210713D01*
X69039342Y-58210713D02*
X69134580Y-58163094D01*
X69134580Y-58163094D02*
X69182200Y-58115475D01*
X69182200Y-58115475D02*
X69229819Y-58020237D01*
X69229819Y-58020237D02*
X69229819Y-57829761D01*
X69229819Y-57829761D02*
X69182200Y-57734523D01*
X69182200Y-57734523D02*
X69134580Y-57686904D01*
X69134580Y-57686904D02*
X69039342Y-57639285D01*
X69039342Y-57639285D02*
X68848866Y-57639285D01*
X68848866Y-57639285D02*
X68753628Y-57686904D01*
X68753628Y-57686904D02*
X68706009Y-57734523D01*
X68706009Y-57734523D02*
X68658390Y-57829761D01*
X108357142Y-49759580D02*
X108309523Y-49807200D01*
X108309523Y-49807200D02*
X108166666Y-49854819D01*
X108166666Y-49854819D02*
X108071428Y-49854819D01*
X108071428Y-49854819D02*
X107928571Y-49807200D01*
X107928571Y-49807200D02*
X107833333Y-49711961D01*
X107833333Y-49711961D02*
X107785714Y-49616723D01*
X107785714Y-49616723D02*
X107738095Y-49426247D01*
X107738095Y-49426247D02*
X107738095Y-49283390D01*
X107738095Y-49283390D02*
X107785714Y-49092914D01*
X107785714Y-49092914D02*
X107833333Y-48997676D01*
X107833333Y-48997676D02*
X107928571Y-48902438D01*
X107928571Y-48902438D02*
X108071428Y-48854819D01*
X108071428Y-48854819D02*
X108166666Y-48854819D01*
X108166666Y-48854819D02*
X108309523Y-48902438D01*
X108309523Y-48902438D02*
X108357142Y-48950057D01*
X108738095Y-48950057D02*
X108785714Y-48902438D01*
X108785714Y-48902438D02*
X108880952Y-48854819D01*
X108880952Y-48854819D02*
X109119047Y-48854819D01*
X109119047Y-48854819D02*
X109214285Y-48902438D01*
X109214285Y-48902438D02*
X109261904Y-48950057D01*
X109261904Y-48950057D02*
X109309523Y-49045295D01*
X109309523Y-49045295D02*
X109309523Y-49140533D01*
X109309523Y-49140533D02*
X109261904Y-49283390D01*
X109261904Y-49283390D02*
X108690476Y-49854819D01*
X108690476Y-49854819D02*
X109309523Y-49854819D01*
X110166666Y-49188152D02*
X110166666Y-49854819D01*
X109928571Y-48807200D02*
X109690476Y-49521485D01*
X109690476Y-49521485D02*
X110309523Y-49521485D01*
X94657142Y-53159580D02*
X94609523Y-53207200D01*
X94609523Y-53207200D02*
X94466666Y-53254819D01*
X94466666Y-53254819D02*
X94371428Y-53254819D01*
X94371428Y-53254819D02*
X94228571Y-53207200D01*
X94228571Y-53207200D02*
X94133333Y-53111961D01*
X94133333Y-53111961D02*
X94085714Y-53016723D01*
X94085714Y-53016723D02*
X94038095Y-52826247D01*
X94038095Y-52826247D02*
X94038095Y-52683390D01*
X94038095Y-52683390D02*
X94085714Y-52492914D01*
X94085714Y-52492914D02*
X94133333Y-52397676D01*
X94133333Y-52397676D02*
X94228571Y-52302438D01*
X94228571Y-52302438D02*
X94371428Y-52254819D01*
X94371428Y-52254819D02*
X94466666Y-52254819D01*
X94466666Y-52254819D02*
X94609523Y-52302438D01*
X94609523Y-52302438D02*
X94657142Y-52350057D01*
X95038095Y-52350057D02*
X95085714Y-52302438D01*
X95085714Y-52302438D02*
X95180952Y-52254819D01*
X95180952Y-52254819D02*
X95419047Y-52254819D01*
X95419047Y-52254819D02*
X95514285Y-52302438D01*
X95514285Y-52302438D02*
X95561904Y-52350057D01*
X95561904Y-52350057D02*
X95609523Y-52445295D01*
X95609523Y-52445295D02*
X95609523Y-52540533D01*
X95609523Y-52540533D02*
X95561904Y-52683390D01*
X95561904Y-52683390D02*
X94990476Y-53254819D01*
X94990476Y-53254819D02*
X95609523Y-53254819D01*
X96514285Y-52254819D02*
X96038095Y-52254819D01*
X96038095Y-52254819D02*
X95990476Y-52731009D01*
X95990476Y-52731009D02*
X96038095Y-52683390D01*
X96038095Y-52683390D02*
X96133333Y-52635771D01*
X96133333Y-52635771D02*
X96371428Y-52635771D01*
X96371428Y-52635771D02*
X96466666Y-52683390D01*
X96466666Y-52683390D02*
X96514285Y-52731009D01*
X96514285Y-52731009D02*
X96561904Y-52826247D01*
X96561904Y-52826247D02*
X96561904Y-53064342D01*
X96561904Y-53064342D02*
X96514285Y-53159580D01*
X96514285Y-53159580D02*
X96466666Y-53207200D01*
X96466666Y-53207200D02*
X96371428Y-53254819D01*
X96371428Y-53254819D02*
X96133333Y-53254819D01*
X96133333Y-53254819D02*
X96038095Y-53207200D01*
X96038095Y-53207200D02*
X95990476Y-53159580D01*
X79964580Y-54042857D02*
X80012200Y-54090476D01*
X80012200Y-54090476D02*
X80059819Y-54233333D01*
X80059819Y-54233333D02*
X80059819Y-54328571D01*
X80059819Y-54328571D02*
X80012200Y-54471428D01*
X80012200Y-54471428D02*
X79916961Y-54566666D01*
X79916961Y-54566666D02*
X79821723Y-54614285D01*
X79821723Y-54614285D02*
X79631247Y-54661904D01*
X79631247Y-54661904D02*
X79488390Y-54661904D01*
X79488390Y-54661904D02*
X79297914Y-54614285D01*
X79297914Y-54614285D02*
X79202676Y-54566666D01*
X79202676Y-54566666D02*
X79107438Y-54471428D01*
X79107438Y-54471428D02*
X79059819Y-54328571D01*
X79059819Y-54328571D02*
X79059819Y-54233333D01*
X79059819Y-54233333D02*
X79107438Y-54090476D01*
X79107438Y-54090476D02*
X79155057Y-54042857D01*
X80059819Y-53090476D02*
X80059819Y-53661904D01*
X80059819Y-53376190D02*
X79059819Y-53376190D01*
X79059819Y-53376190D02*
X79202676Y-53471428D01*
X79202676Y-53471428D02*
X79297914Y-53566666D01*
X79297914Y-53566666D02*
X79345533Y-53661904D01*
X80059819Y-52138095D02*
X80059819Y-52709523D01*
X80059819Y-52423809D02*
X79059819Y-52423809D01*
X79059819Y-52423809D02*
X79202676Y-52519047D01*
X79202676Y-52519047D02*
X79297914Y-52614285D01*
X79297914Y-52614285D02*
X79345533Y-52709523D01*
X107454819Y-50842857D02*
X106978628Y-51176190D01*
X107454819Y-51414285D02*
X106454819Y-51414285D01*
X106454819Y-51414285D02*
X106454819Y-51033333D01*
X106454819Y-51033333D02*
X106502438Y-50938095D01*
X106502438Y-50938095D02*
X106550057Y-50890476D01*
X106550057Y-50890476D02*
X106645295Y-50842857D01*
X106645295Y-50842857D02*
X106788152Y-50842857D01*
X106788152Y-50842857D02*
X106883390Y-50890476D01*
X106883390Y-50890476D02*
X106931009Y-50938095D01*
X106931009Y-50938095D02*
X106978628Y-51033333D01*
X106978628Y-51033333D02*
X106978628Y-51414285D01*
X106550057Y-50461904D02*
X106502438Y-50414285D01*
X106502438Y-50414285D02*
X106454819Y-50319047D01*
X106454819Y-50319047D02*
X106454819Y-50080952D01*
X106454819Y-50080952D02*
X106502438Y-49985714D01*
X106502438Y-49985714D02*
X106550057Y-49938095D01*
X106550057Y-49938095D02*
X106645295Y-49890476D01*
X106645295Y-49890476D02*
X106740533Y-49890476D01*
X106740533Y-49890476D02*
X106883390Y-49938095D01*
X106883390Y-49938095D02*
X107454819Y-50509523D01*
X107454819Y-50509523D02*
X107454819Y-49890476D01*
X106454819Y-49271428D02*
X106454819Y-49176190D01*
X106454819Y-49176190D02*
X106502438Y-49080952D01*
X106502438Y-49080952D02*
X106550057Y-49033333D01*
X106550057Y-49033333D02*
X106645295Y-48985714D01*
X106645295Y-48985714D02*
X106835771Y-48938095D01*
X106835771Y-48938095D02*
X107073866Y-48938095D01*
X107073866Y-48938095D02*
X107264342Y-48985714D01*
X107264342Y-48985714D02*
X107359580Y-49033333D01*
X107359580Y-49033333D02*
X107407200Y-49080952D01*
X107407200Y-49080952D02*
X107454819Y-49176190D01*
X107454819Y-49176190D02*
X107454819Y-49271428D01*
X107454819Y-49271428D02*
X107407200Y-49366666D01*
X107407200Y-49366666D02*
X107359580Y-49414285D01*
X107359580Y-49414285D02*
X107264342Y-49461904D01*
X107264342Y-49461904D02*
X107073866Y-49509523D01*
X107073866Y-49509523D02*
X106835771Y-49509523D01*
X106835771Y-49509523D02*
X106645295Y-49461904D01*
X106645295Y-49461904D02*
X106550057Y-49414285D01*
X106550057Y-49414285D02*
X106502438Y-49366666D01*
X106502438Y-49366666D02*
X106454819Y-49271428D01*
X73238333Y-54959580D02*
X73190714Y-55007200D01*
X73190714Y-55007200D02*
X73047857Y-55054819D01*
X73047857Y-55054819D02*
X72952619Y-55054819D01*
X72952619Y-55054819D02*
X72809762Y-55007200D01*
X72809762Y-55007200D02*
X72714524Y-54911961D01*
X72714524Y-54911961D02*
X72666905Y-54816723D01*
X72666905Y-54816723D02*
X72619286Y-54626247D01*
X72619286Y-54626247D02*
X72619286Y-54483390D01*
X72619286Y-54483390D02*
X72666905Y-54292914D01*
X72666905Y-54292914D02*
X72714524Y-54197676D01*
X72714524Y-54197676D02*
X72809762Y-54102438D01*
X72809762Y-54102438D02*
X72952619Y-54054819D01*
X72952619Y-54054819D02*
X73047857Y-54054819D01*
X73047857Y-54054819D02*
X73190714Y-54102438D01*
X73190714Y-54102438D02*
X73238333Y-54150057D01*
X73571667Y-54054819D02*
X74238333Y-54054819D01*
X74238333Y-54054819D02*
X73809762Y-55054819D01*
X109557142Y-59154819D02*
X109223809Y-58678628D01*
X108985714Y-59154819D02*
X108985714Y-58154819D01*
X108985714Y-58154819D02*
X109366666Y-58154819D01*
X109366666Y-58154819D02*
X109461904Y-58202438D01*
X109461904Y-58202438D02*
X109509523Y-58250057D01*
X109509523Y-58250057D02*
X109557142Y-58345295D01*
X109557142Y-58345295D02*
X109557142Y-58488152D01*
X109557142Y-58488152D02*
X109509523Y-58583390D01*
X109509523Y-58583390D02*
X109461904Y-58631009D01*
X109461904Y-58631009D02*
X109366666Y-58678628D01*
X109366666Y-58678628D02*
X108985714Y-58678628D01*
X109938095Y-58250057D02*
X109985714Y-58202438D01*
X109985714Y-58202438D02*
X110080952Y-58154819D01*
X110080952Y-58154819D02*
X110319047Y-58154819D01*
X110319047Y-58154819D02*
X110414285Y-58202438D01*
X110414285Y-58202438D02*
X110461904Y-58250057D01*
X110461904Y-58250057D02*
X110509523Y-58345295D01*
X110509523Y-58345295D02*
X110509523Y-58440533D01*
X110509523Y-58440533D02*
X110461904Y-58583390D01*
X110461904Y-58583390D02*
X109890476Y-59154819D01*
X109890476Y-59154819D02*
X110509523Y-59154819D01*
X111461904Y-59154819D02*
X110890476Y-59154819D01*
X111176190Y-59154819D02*
X111176190Y-58154819D01*
X111176190Y-58154819D02*
X111080952Y-58297676D01*
X111080952Y-58297676D02*
X110985714Y-58392914D01*
X110985714Y-58392914D02*
X110890476Y-58440533D01*
X100564580Y-67212857D02*
X100612200Y-67260476D01*
X100612200Y-67260476D02*
X100659819Y-67403333D01*
X100659819Y-67403333D02*
X100659819Y-67498571D01*
X100659819Y-67498571D02*
X100612200Y-67641428D01*
X100612200Y-67641428D02*
X100516961Y-67736666D01*
X100516961Y-67736666D02*
X100421723Y-67784285D01*
X100421723Y-67784285D02*
X100231247Y-67831904D01*
X100231247Y-67831904D02*
X100088390Y-67831904D01*
X100088390Y-67831904D02*
X99897914Y-67784285D01*
X99897914Y-67784285D02*
X99802676Y-67736666D01*
X99802676Y-67736666D02*
X99707438Y-67641428D01*
X99707438Y-67641428D02*
X99659819Y-67498571D01*
X99659819Y-67498571D02*
X99659819Y-67403333D01*
X99659819Y-67403333D02*
X99707438Y-67260476D01*
X99707438Y-67260476D02*
X99755057Y-67212857D01*
X100659819Y-66260476D02*
X100659819Y-66831904D01*
X100659819Y-66546190D02*
X99659819Y-66546190D01*
X99659819Y-66546190D02*
X99802676Y-66641428D01*
X99802676Y-66641428D02*
X99897914Y-66736666D01*
X99897914Y-66736666D02*
X99945533Y-66831904D01*
X99659819Y-65927142D02*
X99659819Y-65260476D01*
X99659819Y-65260476D02*
X100659819Y-65689047D01*
X108357142Y-51454819D02*
X108023809Y-50978628D01*
X107785714Y-51454819D02*
X107785714Y-50454819D01*
X107785714Y-50454819D02*
X108166666Y-50454819D01*
X108166666Y-50454819D02*
X108261904Y-50502438D01*
X108261904Y-50502438D02*
X108309523Y-50550057D01*
X108309523Y-50550057D02*
X108357142Y-50645295D01*
X108357142Y-50645295D02*
X108357142Y-50788152D01*
X108357142Y-50788152D02*
X108309523Y-50883390D01*
X108309523Y-50883390D02*
X108261904Y-50931009D01*
X108261904Y-50931009D02*
X108166666Y-50978628D01*
X108166666Y-50978628D02*
X107785714Y-50978628D01*
X109309523Y-51454819D02*
X108738095Y-51454819D01*
X109023809Y-51454819D02*
X109023809Y-50454819D01*
X109023809Y-50454819D02*
X108928571Y-50597676D01*
X108928571Y-50597676D02*
X108833333Y-50692914D01*
X108833333Y-50692914D02*
X108738095Y-50740533D01*
X109880952Y-50883390D02*
X109785714Y-50835771D01*
X109785714Y-50835771D02*
X109738095Y-50788152D01*
X109738095Y-50788152D02*
X109690476Y-50692914D01*
X109690476Y-50692914D02*
X109690476Y-50645295D01*
X109690476Y-50645295D02*
X109738095Y-50550057D01*
X109738095Y-50550057D02*
X109785714Y-50502438D01*
X109785714Y-50502438D02*
X109880952Y-50454819D01*
X109880952Y-50454819D02*
X110071428Y-50454819D01*
X110071428Y-50454819D02*
X110166666Y-50502438D01*
X110166666Y-50502438D02*
X110214285Y-50550057D01*
X110214285Y-50550057D02*
X110261904Y-50645295D01*
X110261904Y-50645295D02*
X110261904Y-50692914D01*
X110261904Y-50692914D02*
X110214285Y-50788152D01*
X110214285Y-50788152D02*
X110166666Y-50835771D01*
X110166666Y-50835771D02*
X110071428Y-50883390D01*
X110071428Y-50883390D02*
X109880952Y-50883390D01*
X109880952Y-50883390D02*
X109785714Y-50931009D01*
X109785714Y-50931009D02*
X109738095Y-50978628D01*
X109738095Y-50978628D02*
X109690476Y-51073866D01*
X109690476Y-51073866D02*
X109690476Y-51264342D01*
X109690476Y-51264342D02*
X109738095Y-51359580D01*
X109738095Y-51359580D02*
X109785714Y-51407200D01*
X109785714Y-51407200D02*
X109880952Y-51454819D01*
X109880952Y-51454819D02*
X110071428Y-51454819D01*
X110071428Y-51454819D02*
X110166666Y-51407200D01*
X110166666Y-51407200D02*
X110214285Y-51359580D01*
X110214285Y-51359580D02*
X110261904Y-51264342D01*
X110261904Y-51264342D02*
X110261904Y-51073866D01*
X110261904Y-51073866D02*
X110214285Y-50978628D01*
X110214285Y-50978628D02*
X110166666Y-50931009D01*
X110166666Y-50931009D02*
X110071428Y-50883390D01*
D11*
%TO.C,C6*%
X68495000Y-62640580D02*
X68495000Y-62359420D01*
X69515000Y-62640580D02*
X69515000Y-62359420D01*
%TO.C,C14*%
X87559420Y-74490000D02*
X87840580Y-74490000D01*
X87559420Y-75510000D02*
X87840580Y-75510000D01*
%TO.C,kibuzzard-679F56A8*%
G36*
X95437444Y-60395994D02*
G01*
X95502531Y-60469812D01*
X95535869Y-60576175D01*
X95545394Y-60700000D01*
X95542417Y-60770048D01*
X95533487Y-60834144D01*
X95493800Y-60939712D01*
X95420775Y-61009562D01*
X95308856Y-61034962D01*
X95291394Y-61034962D01*
X95273931Y-61033375D01*
X95273931Y-60372975D01*
X95302506Y-60369006D01*
X95331081Y-60368212D01*
X95437444Y-60395994D01*
G37*
G36*
X97058281Y-60384087D02*
G01*
X97105113Y-60457112D01*
X97127337Y-60565856D01*
X97131505Y-60630745D01*
X97132894Y-60700000D01*
X97131505Y-60769056D01*
X97127337Y-60833350D01*
X97105113Y-60942094D01*
X97057487Y-61015912D01*
X96977319Y-61042900D01*
X96896356Y-61015912D01*
X96849525Y-60942887D01*
X96827300Y-60834144D01*
X96823133Y-60769255D01*
X96821744Y-60700000D01*
X96823133Y-60630944D01*
X96827300Y-60566650D01*
X96849525Y-60457906D01*
X96896356Y-60384087D01*
X96977319Y-60357100D01*
X97058281Y-60384087D01*
G37*
G36*
X97662060Y-61543492D02*
G01*
X97331331Y-61543492D01*
X96978906Y-61543492D01*
X95872419Y-61543492D01*
X95288219Y-61543492D01*
X95078669Y-61543492D01*
X94747940Y-61543492D01*
X94747940Y-61181012D01*
X95078669Y-61181012D01*
X95185825Y-61199269D01*
X95288219Y-61204825D01*
X95384064Y-61197880D01*
X95471575Y-61177044D01*
X95549164Y-61141127D01*
X95615244Y-61088937D01*
X95669020Y-61019683D01*
X95709700Y-60932569D01*
X95735298Y-60826405D01*
X95743831Y-60700000D01*
X95736092Y-60576373D01*
X95712875Y-60472194D01*
X95675767Y-60386072D01*
X95626356Y-60316619D01*
X95564642Y-60263636D01*
X95490625Y-60226925D01*
X95421904Y-60209462D01*
X95872419Y-60209462D01*
X95872419Y-60371387D01*
X96086731Y-60371387D01*
X96086731Y-61030200D01*
X95872419Y-61030200D01*
X95872419Y-61192125D01*
X96496306Y-61192125D01*
X96496306Y-61030200D01*
X96283581Y-61030200D01*
X96283581Y-60700000D01*
X96623306Y-60700000D01*
X96629011Y-60819211D01*
X96646127Y-60922845D01*
X96674652Y-61010902D01*
X96714587Y-61083381D01*
X96784526Y-61155260D01*
X96872632Y-61198387D01*
X96978906Y-61212762D01*
X97082623Y-61198387D01*
X97169406Y-61155260D01*
X97239256Y-61083381D01*
X97279539Y-61010902D01*
X97308313Y-60922845D01*
X97325577Y-60819211D01*
X97331331Y-60700000D01*
X97325676Y-60580789D01*
X97308709Y-60477155D01*
X97280432Y-60389098D01*
X97240844Y-60316619D01*
X97171347Y-60244740D01*
X97083505Y-60201613D01*
X96977319Y-60187237D01*
X96874308Y-60201613D01*
X96787524Y-60244740D01*
X96716969Y-60316619D01*
X96675991Y-60389098D01*
X96646722Y-60477155D01*
X96629160Y-60580789D01*
X96623306Y-60700000D01*
X96283581Y-60700000D01*
X96283581Y-60371387D01*
X96496306Y-60371387D01*
X96496306Y-60209462D01*
X95872419Y-60209462D01*
X95421904Y-60209462D01*
X95406289Y-60205494D01*
X95313619Y-60198350D01*
X95204081Y-60203112D01*
X95078669Y-60222162D01*
X95078669Y-61181012D01*
X94747940Y-61181012D01*
X94747940Y-59856508D01*
X95078669Y-59856508D01*
X97331331Y-59856508D01*
X97662060Y-59856508D01*
X97662060Y-61543492D01*
G37*
%TO.C,C20*%
X88195580Y-57460000D02*
X87914420Y-57460000D01*
X88195580Y-56440000D02*
X87914420Y-56440000D01*
%TO.C,R9*%
X99992258Y-78072500D02*
X99517742Y-78072500D01*
X99992258Y-77027500D02*
X99517742Y-77027500D01*
%TO.C,Y2*%
X71255000Y-56850000D02*
X71255000Y-60050000D01*
X71255000Y-60050000D02*
X75255000Y-60050000D01*
%TO.C,J7*%
X110050000Y-41925000D02*
X110050000Y-43175000D01*
X110340000Y-42215000D02*
X110340000Y-48185000D01*
X110340000Y-48185000D02*
X120460000Y-48185000D01*
X110350000Y-42225000D02*
X110350000Y-42975000D01*
X110350000Y-42975000D02*
X112150000Y-42975000D01*
X110350000Y-44475000D02*
X111100000Y-44475000D01*
X111100000Y-44475000D02*
X111100000Y-47425000D01*
X111100000Y-47425000D02*
X115400000Y-47425000D01*
X111300000Y-41925000D02*
X110050000Y-41925000D01*
X112150000Y-42225000D02*
X110350000Y-42225000D01*
X112150000Y-42975000D02*
X112150000Y-42225000D01*
X113650000Y-42225000D02*
X113650000Y-42975000D01*
X113650000Y-42975000D02*
X117150000Y-42975000D01*
X117150000Y-42225000D02*
X113650000Y-42225000D01*
X117150000Y-42975000D02*
X117150000Y-42225000D01*
X118650000Y-42225000D02*
X118650000Y-42975000D01*
X118650000Y-42975000D02*
X120450000Y-42975000D01*
X119700000Y-44475000D02*
X119700000Y-47425000D01*
X119700000Y-47425000D02*
X115400000Y-47425000D01*
X120450000Y-42225000D02*
X118650000Y-42225000D01*
X120450000Y-42975000D02*
X120450000Y-42225000D01*
X120450000Y-44475000D02*
X119700000Y-44475000D01*
X120460000Y-42215000D02*
X110340000Y-42215000D01*
X120460000Y-48185000D02*
X120460000Y-42215000D01*
%TO.C,G\u002A\u002A\u002A*%
G36*
X114771011Y-81372899D02*
G01*
X114769776Y-81378246D01*
X114765014Y-81378895D01*
X114757611Y-81375605D01*
X114759018Y-81372899D01*
X114769692Y-81371823D01*
X114771011Y-81372899D01*
G37*
G36*
X118152658Y-84288825D02*
G01*
X118159005Y-84298864D01*
X118160380Y-84303822D01*
X118161790Y-84318810D01*
X118162805Y-84348757D01*
X118163387Y-84390640D01*
X118163501Y-84441433D01*
X118163110Y-84498112D01*
X118162921Y-84513421D01*
X118160376Y-84702302D01*
X118117561Y-84705047D01*
X118086797Y-84704689D01*
X118071683Y-84698421D01*
X118070159Y-84695840D01*
X118068925Y-84683665D01*
X118068036Y-84656284D01*
X118067523Y-84616475D01*
X118067414Y-84567018D01*
X118067738Y-84510692D01*
X118068003Y-84486225D01*
X118070432Y-84288563D01*
X118112863Y-84285833D01*
X118139037Y-84285148D01*
X118152658Y-84288825D01*
G37*
G36*
X114531162Y-84438922D02*
G01*
X114533100Y-84495751D01*
X114535231Y-84537334D01*
X114537892Y-84566413D01*
X114541422Y-84585729D01*
X114546160Y-84598026D01*
X114551695Y-84605317D01*
X114560036Y-84611421D01*
X114572946Y-84616014D01*
X114593166Y-84619437D01*
X114623438Y-84622026D01*
X114666504Y-84624120D01*
X114718090Y-84625850D01*
X114868449Y-84630347D01*
X114868449Y-84666325D01*
X114868449Y-84702302D01*
X114706551Y-84704644D01*
X114646923Y-84705291D01*
X114602343Y-84705123D01*
X114569881Y-84703934D01*
X114546606Y-84701521D01*
X114529589Y-84697678D01*
X114515898Y-84692199D01*
X114513812Y-84691153D01*
X114487487Y-84673286D01*
X114465442Y-84651404D01*
X114464344Y-84649949D01*
X114457772Y-84639818D01*
X114452952Y-84628093D01*
X114449615Y-84611985D01*
X114447492Y-84588702D01*
X114446313Y-84555453D01*
X114445811Y-84509447D01*
X114445716Y-84456571D01*
X114445716Y-84288563D01*
X114486190Y-84288563D01*
X114526665Y-84288563D01*
X114531162Y-84438922D01*
G37*
G36*
X111327544Y-84318382D02*
G01*
X111328591Y-84337280D01*
X111326095Y-84351333D01*
X111317815Y-84361256D01*
X111301504Y-84367767D01*
X111274919Y-84371579D01*
X111235817Y-84373410D01*
X111181952Y-84373976D01*
X111153198Y-84374009D01*
X111096766Y-84374102D01*
X111055596Y-84374596D01*
X111026958Y-84375811D01*
X111008127Y-84378069D01*
X110996373Y-84381691D01*
X110988969Y-84386998D01*
X110983407Y-84393999D01*
X110972525Y-84418769D01*
X110969405Y-84438776D01*
X110969405Y-84463564D01*
X111142546Y-84466006D01*
X111315687Y-84468449D01*
X111315687Y-84499929D01*
X111315687Y-84531410D01*
X111142881Y-84533851D01*
X110970075Y-84536293D01*
X110967492Y-84619297D01*
X110964908Y-84702302D01*
X110921635Y-84705066D01*
X110878361Y-84707830D01*
X110881160Y-84537051D01*
X110882286Y-84476920D01*
X110883615Y-84432017D01*
X110885452Y-84399582D01*
X110888100Y-84376855D01*
X110891863Y-84361076D01*
X110897045Y-84349484D01*
X110902757Y-84340909D01*
X110916485Y-84324025D01*
X110931095Y-84311201D01*
X110949185Y-84301884D01*
X110973357Y-84295522D01*
X111006208Y-84291564D01*
X111050340Y-84289458D01*
X111108350Y-84288652D01*
X111149292Y-84288563D01*
X111324682Y-84288563D01*
X111327544Y-84318382D01*
G37*
G36*
X117881551Y-84329037D02*
G01*
X117881551Y-84369512D01*
X117720124Y-84371975D01*
X117656381Y-84372952D01*
X117608384Y-84374618D01*
X117573903Y-84378390D01*
X117550710Y-84385682D01*
X117536576Y-84397911D01*
X117529272Y-84416492D01*
X117526570Y-84442841D01*
X117526241Y-84478373D01*
X117526275Y-84495107D01*
X117526227Y-84536714D01*
X117527580Y-84567997D01*
X117532578Y-84590496D01*
X117543464Y-84605752D01*
X117562482Y-84615307D01*
X117591877Y-84620701D01*
X117633892Y-84623475D01*
X117690771Y-84625171D01*
X117716661Y-84625850D01*
X117881551Y-84630347D01*
X117881551Y-84666325D01*
X117881551Y-84702302D01*
X117710659Y-84703874D01*
X117655242Y-84703966D01*
X117604488Y-84703271D01*
X117561744Y-84701897D01*
X117530359Y-84699950D01*
X117513857Y-84697592D01*
X117480306Y-84681141D01*
X117455473Y-84653950D01*
X117438848Y-84614630D01*
X117429920Y-84561793D01*
X117428180Y-84494049D01*
X117429151Y-84467042D01*
X117433851Y-84410095D01*
X117442398Y-84367894D01*
X117455983Y-84337391D01*
X117475798Y-84315540D01*
X117492699Y-84304470D01*
X117505022Y-84298925D01*
X117520598Y-84294814D01*
X117542117Y-84291933D01*
X117572265Y-84290076D01*
X117613730Y-84289040D01*
X117669200Y-84288620D01*
X117701665Y-84288577D01*
X117881551Y-84288563D01*
X117881551Y-84329037D01*
G37*
G36*
X109069845Y-84331286D02*
G01*
X109072586Y-84374009D01*
X108910196Y-84374009D01*
X108845639Y-84374094D01*
X108796860Y-84375243D01*
X108761650Y-84378798D01*
X108737799Y-84386099D01*
X108723099Y-84398487D01*
X108715341Y-84417303D01*
X108712316Y-84443889D01*
X108711815Y-84479585D01*
X108711827Y-84494436D01*
X108711995Y-84535657D01*
X108713974Y-84566805D01*
X108719980Y-84589336D01*
X108732229Y-84604711D01*
X108752936Y-84614388D01*
X108784316Y-84619825D01*
X108828586Y-84622480D01*
X108887960Y-84623812D01*
X108908890Y-84624169D01*
X109071601Y-84626986D01*
X109071601Y-84666892D01*
X109071601Y-84706799D01*
X108898460Y-84706602D01*
X108836291Y-84706321D01*
X108789203Y-84705483D01*
X108754291Y-84703854D01*
X108728650Y-84701200D01*
X108709374Y-84697288D01*
X108693559Y-84691882D01*
X108688497Y-84689681D01*
X108663751Y-84674998D01*
X108645681Y-84654949D01*
X108633380Y-84626859D01*
X108625943Y-84588055D01*
X108622465Y-84535861D01*
X108621898Y-84493002D01*
X108623281Y-84433935D01*
X108628112Y-84389588D01*
X108637443Y-84356853D01*
X108652324Y-84332622D01*
X108673807Y-84313787D01*
X108684844Y-84306857D01*
X108697163Y-84300494D01*
X108710943Y-84295795D01*
X108728995Y-84292511D01*
X108754128Y-84290395D01*
X108789152Y-84289197D01*
X108836878Y-84288670D01*
X108891714Y-84288563D01*
X109067104Y-84288563D01*
X109069845Y-84331286D01*
G37*
G36*
X109303205Y-84285821D02*
G01*
X109345928Y-84288563D01*
X109350425Y-84374009D01*
X109354922Y-84459455D01*
X109392304Y-84462179D01*
X109432254Y-84462557D01*
X109463771Y-84455418D01*
X109491520Y-84438349D01*
X109520165Y-84408937D01*
X109537745Y-84386948D01*
X109568561Y-84346890D01*
X109590949Y-84318858D01*
X109607564Y-84300708D01*
X109621061Y-84290296D01*
X109634094Y-84285479D01*
X109649318Y-84284113D01*
X109665167Y-84284065D01*
X109690844Y-84285388D01*
X109707150Y-84288770D01*
X109710199Y-84291426D01*
X109704977Y-84300858D01*
X109690652Y-84321636D01*
X109669237Y-84350959D01*
X109642744Y-84386031D01*
X109634219Y-84397109D01*
X109607385Y-84432784D01*
X109585957Y-84463122D01*
X109571678Y-84485503D01*
X109566294Y-84497305D01*
X109566766Y-84498432D01*
X109574894Y-84506126D01*
X109591313Y-84524895D01*
X109613520Y-84551587D01*
X109639013Y-84583054D01*
X109665286Y-84616146D01*
X109689839Y-84647712D01*
X109710167Y-84674604D01*
X109723768Y-84693670D01*
X109728187Y-84701557D01*
X109720054Y-84704438D01*
X109699091Y-84706343D01*
X109679117Y-84706799D01*
X109630047Y-84706799D01*
X109562151Y-84621514D01*
X109532420Y-84585874D01*
X109505753Y-84557077D01*
X109484804Y-84537835D01*
X109473577Y-84531040D01*
X109452835Y-84528571D01*
X109422631Y-84527983D01*
X109403911Y-84528630D01*
X109354922Y-84531410D01*
X109350425Y-84616856D01*
X109345928Y-84702302D01*
X109303205Y-84705043D01*
X109260482Y-84707785D01*
X109260482Y-84495432D01*
X109260482Y-84283080D01*
X109303205Y-84285821D01*
G37*
G36*
X113772681Y-84285792D02*
G01*
X113816112Y-84288563D01*
X113820609Y-84438922D01*
X113822546Y-84495735D01*
X113824674Y-84537303D01*
X113827331Y-84566371D01*
X113830857Y-84585680D01*
X113835591Y-84597976D01*
X113841168Y-84605317D01*
X113849699Y-84611719D01*
X113862325Y-84616182D01*
X113882085Y-84619040D01*
X113912013Y-84620626D01*
X113955149Y-84621275D01*
X113987005Y-84621353D01*
X114039079Y-84621091D01*
X114076207Y-84620083D01*
X114101424Y-84617995D01*
X114117768Y-84614493D01*
X114128275Y-84609244D01*
X114132841Y-84605317D01*
X114138952Y-84596990D01*
X114143551Y-84584120D01*
X114146975Y-84563963D01*
X114149565Y-84533776D01*
X114151658Y-84490815D01*
X114153400Y-84438922D01*
X114157897Y-84288563D01*
X114198371Y-84288563D01*
X114238846Y-84288563D01*
X114238846Y-84456571D01*
X114238715Y-84516019D01*
X114238143Y-84560270D01*
X114236861Y-84592114D01*
X114234600Y-84614344D01*
X114231091Y-84629748D01*
X114226066Y-84641120D01*
X114220218Y-84649949D01*
X114204225Y-84669202D01*
X114186552Y-84683612D01*
X114164412Y-84693856D01*
X114135020Y-84700615D01*
X114095591Y-84704566D01*
X114043338Y-84706389D01*
X113987005Y-84706771D01*
X113928324Y-84706491D01*
X113884616Y-84705478D01*
X113852872Y-84703474D01*
X113830083Y-84700223D01*
X113813240Y-84695467D01*
X113803260Y-84691045D01*
X113781322Y-84678886D01*
X113764649Y-84666006D01*
X113752466Y-84649819D01*
X113743998Y-84627738D01*
X113738471Y-84597178D01*
X113735110Y-84555552D01*
X113733142Y-84500274D01*
X113732207Y-84453802D01*
X113729251Y-84283022D01*
X113772681Y-84285792D01*
G37*
G36*
X107676492Y-80902300D02*
G01*
X107699693Y-80912191D01*
X107736854Y-80928318D01*
X107786740Y-80950133D01*
X107848119Y-80977088D01*
X107919757Y-81008636D01*
X108000420Y-81044227D01*
X108088874Y-81083314D01*
X108183887Y-81125350D01*
X108284224Y-81169786D01*
X108388653Y-81216075D01*
X108495939Y-81263668D01*
X108604848Y-81312017D01*
X108714148Y-81360575D01*
X108822605Y-81408794D01*
X108928984Y-81456125D01*
X109032054Y-81502021D01*
X109130579Y-81545933D01*
X109223327Y-81587314D01*
X109309063Y-81625617D01*
X109386555Y-81660292D01*
X109454569Y-81690792D01*
X109511871Y-81716569D01*
X109557227Y-81737075D01*
X109589404Y-81751763D01*
X109607169Y-81760083D01*
X109610384Y-81761777D01*
X109604971Y-81764132D01*
X109584154Y-81765010D01*
X109550448Y-81764510D01*
X109506369Y-81762732D01*
X109454433Y-81759776D01*
X109397153Y-81755740D01*
X109341431Y-81751119D01*
X109183275Y-81734761D01*
X109013031Y-81713039D01*
X108835515Y-81686727D01*
X108655549Y-81656601D01*
X108477950Y-81623434D01*
X108307538Y-81588003D01*
X108257614Y-81576838D01*
X108204399Y-81564745D01*
X108155802Y-81553741D01*
X108115127Y-81544572D01*
X108085681Y-81537982D01*
X108071441Y-81534858D01*
X108048295Y-81525676D01*
X108034376Y-81515027D01*
X108027440Y-81504686D01*
X108012791Y-81481176D01*
X107991635Y-81446523D01*
X107965175Y-81402755D01*
X107934616Y-81351898D01*
X107901163Y-81295980D01*
X107866019Y-81237027D01*
X107830389Y-81177068D01*
X107795477Y-81118128D01*
X107762487Y-81062235D01*
X107732625Y-81011415D01*
X107707094Y-80967697D01*
X107687099Y-80933107D01*
X107673843Y-80909671D01*
X107668533Y-80899418D01*
X107668485Y-80899193D01*
X107676492Y-80902300D01*
G37*
G36*
X116393176Y-84286434D02*
G01*
X116436918Y-84289047D01*
X116469747Y-84293832D01*
X116494014Y-84301190D01*
X116512068Y-84311519D01*
X116526259Y-84325217D01*
X116531264Y-84331573D01*
X116543698Y-84355938D01*
X116550739Y-84390367D01*
X116552838Y-84417019D01*
X116550484Y-84472330D01*
X116536953Y-84514185D01*
X116511834Y-84543538D01*
X116494014Y-84554198D01*
X116464621Y-84567993D01*
X116514251Y-84628162D01*
X116536684Y-84656362D01*
X116553839Y-84679838D01*
X116563033Y-84694837D01*
X116563881Y-84697565D01*
X116555734Y-84702780D01*
X116534632Y-84706108D01*
X116516378Y-84706799D01*
X116468874Y-84706799D01*
X116416949Y-84639342D01*
X116365023Y-84571884D01*
X116271468Y-84571884D01*
X116177913Y-84571884D01*
X116175270Y-84637093D01*
X116172628Y-84702302D01*
X116129813Y-84705047D01*
X116099049Y-84704689D01*
X116083935Y-84698421D01*
X116082412Y-84695840D01*
X116081177Y-84683665D01*
X116080289Y-84656284D01*
X116079776Y-84616475D01*
X116079667Y-84567018D01*
X116079990Y-84510692D01*
X116080255Y-84486225D01*
X116081761Y-84363687D01*
X116177125Y-84363687D01*
X116177125Y-84431808D01*
X116177125Y-84499929D01*
X116307335Y-84499929D01*
X116358151Y-84499838D01*
X116394021Y-84499248D01*
X116417993Y-84497682D01*
X116433109Y-84494665D01*
X116442415Y-84489723D01*
X116448955Y-84482378D01*
X116452393Y-84477269D01*
X116461251Y-84451748D01*
X116462027Y-84420625D01*
X116455197Y-84392285D01*
X116446857Y-84379282D01*
X116434029Y-84375183D01*
X116405740Y-84371572D01*
X116364518Y-84368680D01*
X116312891Y-84366736D01*
X116307119Y-84366599D01*
X116177125Y-84363687D01*
X116081761Y-84363687D01*
X116082684Y-84288563D01*
X116263555Y-84286132D01*
X116336171Y-84285595D01*
X116393176Y-84286434D01*
G37*
G36*
X109941803Y-84285821D02*
G01*
X109984526Y-84288563D01*
X109986986Y-84438016D01*
X109987929Y-84499788D01*
X109989854Y-84545892D01*
X109994878Y-84578611D01*
X110005123Y-84600230D01*
X110022706Y-84613032D01*
X110049747Y-84619301D01*
X110088366Y-84621322D01*
X110140680Y-84621378D01*
X110157087Y-84621353D01*
X110208475Y-84621159D01*
X110244871Y-84620331D01*
X110269268Y-84618506D01*
X110284664Y-84615316D01*
X110294050Y-84610396D01*
X110300053Y-84603894D01*
X110305279Y-84592079D01*
X110308971Y-84571585D01*
X110311325Y-84539981D01*
X110312538Y-84494832D01*
X110312819Y-84446043D01*
X110313107Y-84388425D01*
X110314472Y-84346357D01*
X110317670Y-84317406D01*
X110323453Y-84299136D01*
X110332577Y-84289113D01*
X110345795Y-84284901D01*
X110362985Y-84284065D01*
X110380480Y-84285070D01*
X110393376Y-84289631D01*
X110402291Y-84300066D01*
X110407842Y-84318696D01*
X110410645Y-84347840D01*
X110411317Y-84389818D01*
X110410475Y-84446949D01*
X110410154Y-84461475D01*
X110408464Y-84520821D01*
X110406270Y-84565083D01*
X110403264Y-84597163D01*
X110399137Y-84619965D01*
X110393583Y-84636392D01*
X110391067Y-84641506D01*
X110379178Y-84661535D01*
X110366183Y-84676647D01*
X110349442Y-84687579D01*
X110326313Y-84695070D01*
X110294157Y-84699858D01*
X110250333Y-84702680D01*
X110192201Y-84704274D01*
X110164840Y-84704726D01*
X110105417Y-84705416D01*
X110060918Y-84705311D01*
X110028286Y-84704186D01*
X110004466Y-84701816D01*
X109986401Y-84697977D01*
X109971035Y-84692446D01*
X109965855Y-84690127D01*
X109944471Y-84678682D01*
X109928161Y-84665135D01*
X109916253Y-84647027D01*
X109908072Y-84621903D01*
X109902946Y-84587304D01*
X109900202Y-84540775D01*
X109899167Y-84479858D01*
X109899080Y-84446360D01*
X109899080Y-84283080D01*
X109941803Y-84285821D01*
G37*
G36*
X118470314Y-84284463D02*
G01*
X118502236Y-84291243D01*
X118508483Y-84293851D01*
X118519925Y-84303732D01*
X118540159Y-84325786D01*
X118567270Y-84357735D01*
X118599339Y-84397300D01*
X118634449Y-84442201D01*
X118646070Y-84457398D01*
X118681101Y-84502973D01*
X118712975Y-84543513D01*
X118739943Y-84576866D01*
X118760254Y-84600882D01*
X118772159Y-84613410D01*
X118774033Y-84614689D01*
X118778206Y-84611593D01*
X118781454Y-84598147D01*
X118783925Y-84572606D01*
X118785763Y-84533221D01*
X118787115Y-84478248D01*
X118787525Y-84453390D01*
X118789979Y-84288563D01*
X118830454Y-84288563D01*
X118870928Y-84288563D01*
X118870928Y-84489024D01*
X118870761Y-84555679D01*
X118870167Y-84606506D01*
X118869007Y-84643665D01*
X118867142Y-84669314D01*
X118864431Y-84685613D01*
X118860736Y-84694719D01*
X118857437Y-84698004D01*
X118835991Y-84704729D01*
X118804528Y-84707197D01*
X118769774Y-84705738D01*
X118738454Y-84700681D01*
X118717293Y-84692355D01*
X118715650Y-84691059D01*
X118704970Y-84679315D01*
X118685424Y-84655580D01*
X118658926Y-84622266D01*
X118627386Y-84581784D01*
X118592718Y-84536545D01*
X118583702Y-84524664D01*
X118549356Y-84479808D01*
X118518364Y-84440270D01*
X118492440Y-84408163D01*
X118473300Y-84385600D01*
X118462659Y-84374693D01*
X118461354Y-84374009D01*
X118458548Y-84382558D01*
X118455892Y-84406427D01*
X118453562Y-84442946D01*
X118451731Y-84489446D01*
X118450646Y-84538155D01*
X118448194Y-84702302D01*
X118405471Y-84705043D01*
X118362748Y-84707785D01*
X118362748Y-84513914D01*
X118362842Y-84449777D01*
X118363263Y-84401177D01*
X118364218Y-84365663D01*
X118365917Y-84340785D01*
X118368566Y-84324090D01*
X118372375Y-84313129D01*
X118377551Y-84305449D01*
X118380737Y-84302054D01*
X118402637Y-84290313D01*
X118434805Y-84284301D01*
X118470314Y-84284463D01*
G37*
G36*
X108024624Y-84286191D02*
G01*
X108048933Y-84289297D01*
X108057153Y-84291443D01*
X108066952Y-84300149D01*
X108085730Y-84321078D01*
X108111682Y-84352056D01*
X108143002Y-84390910D01*
X108177885Y-84435465D01*
X108192364Y-84454307D01*
X108227865Y-84500294D01*
X108260172Y-84541278D01*
X108287560Y-84575137D01*
X108308298Y-84599747D01*
X108320659Y-84612986D01*
X108322914Y-84614638D01*
X108327022Y-84611098D01*
X108330240Y-84596344D01*
X108332699Y-84568774D01*
X108334530Y-84526783D01*
X108335864Y-84468771D01*
X108336108Y-84453390D01*
X108338563Y-84288563D01*
X108379037Y-84288563D01*
X108419512Y-84288563D01*
X108421933Y-84483374D01*
X108422743Y-84552408D01*
X108422733Y-84605533D01*
X108421141Y-84644829D01*
X108417206Y-84672376D01*
X108410167Y-84690253D01*
X108399261Y-84700540D01*
X108383728Y-84705316D01*
X108362806Y-84706662D01*
X108340169Y-84706661D01*
X108308886Y-84705477D01*
X108284189Y-84702543D01*
X108273223Y-84699304D01*
X108264611Y-84690285D01*
X108246903Y-84669103D01*
X108221848Y-84637948D01*
X108191199Y-84599006D01*
X108156706Y-84554467D01*
X108142509Y-84535946D01*
X108107078Y-84490052D01*
X108074840Y-84449163D01*
X108047526Y-84415408D01*
X108026870Y-84390914D01*
X108014604Y-84377807D01*
X108012427Y-84376227D01*
X108008318Y-84379767D01*
X108005100Y-84394521D01*
X108002641Y-84422091D01*
X108000810Y-84464081D01*
X107999476Y-84522094D01*
X107999232Y-84537474D01*
X107996778Y-84702302D01*
X107954055Y-84705043D01*
X107911332Y-84707785D01*
X107911332Y-84513914D01*
X107911426Y-84449777D01*
X107911846Y-84401177D01*
X107912802Y-84365663D01*
X107914500Y-84340785D01*
X107917150Y-84324090D01*
X107920959Y-84313129D01*
X107926135Y-84305449D01*
X107929320Y-84302054D01*
X107946867Y-84290297D01*
X107972252Y-84285205D01*
X107994529Y-84284698D01*
X108024624Y-84286191D01*
G37*
G36*
X112534539Y-84286427D02*
G01*
X112578259Y-84289037D01*
X112611083Y-84293825D01*
X112635363Y-84301193D01*
X112653456Y-84311545D01*
X112667717Y-84325282D01*
X112672973Y-84331945D01*
X112683190Y-84349381D01*
X112689008Y-84370842D01*
X112691490Y-84401675D01*
X112691820Y-84426781D01*
X112688923Y-84477228D01*
X112679321Y-84513508D01*
X112661648Y-84538631D01*
X112634537Y-84555608D01*
X112633085Y-84556224D01*
X112606349Y-84567387D01*
X112655830Y-84629296D01*
X112678003Y-84657870D01*
X112695039Y-84681407D01*
X112704338Y-84696246D01*
X112705312Y-84699002D01*
X112697188Y-84703314D01*
X112676274Y-84706145D01*
X112656933Y-84706799D01*
X112608554Y-84706799D01*
X112557781Y-84639342D01*
X112507009Y-84571884D01*
X112412782Y-84571884D01*
X112318556Y-84571884D01*
X112318556Y-84625115D01*
X112317710Y-84663769D01*
X112313767Y-84687862D01*
X112304614Y-84700794D01*
X112288141Y-84705965D01*
X112267842Y-84706799D01*
X112240415Y-84704286D01*
X112225061Y-84697535D01*
X112223652Y-84695343D01*
X112222473Y-84683320D01*
X112221634Y-84656080D01*
X112221161Y-84616395D01*
X112221081Y-84567035D01*
X112221418Y-84510771D01*
X112221685Y-84486225D01*
X112223175Y-84365014D01*
X112318556Y-84365014D01*
X112318556Y-84432472D01*
X112318556Y-84499929D01*
X112447175Y-84499929D01*
X112507133Y-84499226D01*
X112549949Y-84497076D01*
X112576415Y-84493417D01*
X112586587Y-84489136D01*
X112592712Y-84474493D01*
X112596623Y-84448778D01*
X112597380Y-84430450D01*
X112596466Y-84401979D01*
X112592265Y-84386083D01*
X112582585Y-84377385D01*
X112574309Y-84373786D01*
X112556714Y-84370447D01*
X112525426Y-84367692D01*
X112484735Y-84365793D01*
X112438933Y-84365020D01*
X112434896Y-84365014D01*
X112318556Y-84365014D01*
X112223175Y-84365014D01*
X112224115Y-84288563D01*
X112404985Y-84286132D01*
X112477566Y-84285593D01*
X112534539Y-84286427D01*
G37*
G36*
X115339109Y-84290939D02*
G01*
X115361631Y-84304303D01*
X115370869Y-84316528D01*
X115386807Y-84341495D01*
X115407933Y-84376513D01*
X115432737Y-84418889D01*
X115459708Y-84465933D01*
X115487335Y-84514952D01*
X115514107Y-84563256D01*
X115538514Y-84608153D01*
X115559045Y-84646951D01*
X115574189Y-84676959D01*
X115582434Y-84695486D01*
X115583499Y-84699554D01*
X115575417Y-84703658D01*
X115554656Y-84705431D01*
X115536405Y-84705021D01*
X115508232Y-84702457D01*
X115491286Y-84696208D01*
X115478806Y-84682199D01*
X115468153Y-84663857D01*
X115446994Y-84625412D01*
X115301796Y-84627880D01*
X115156597Y-84630347D01*
X115135521Y-84668573D01*
X115122502Y-84690588D01*
X115110593Y-84701948D01*
X115093353Y-84706176D01*
X115065651Y-84706799D01*
X115038764Y-84705994D01*
X115021041Y-84703920D01*
X115016856Y-84701967D01*
X115021152Y-84690982D01*
X115033052Y-84667109D01*
X115051072Y-84632983D01*
X115073729Y-84591241D01*
X115098561Y-84546286D01*
X115205737Y-84546286D01*
X115214127Y-84549333D01*
X115236887Y-84551799D01*
X115270401Y-84553408D01*
X115305424Y-84553895D01*
X115344969Y-84553228D01*
X115376535Y-84551418D01*
X115396647Y-84548750D01*
X115402113Y-84545917D01*
X115392799Y-84525381D01*
X115378039Y-84497361D01*
X115360091Y-84465625D01*
X115341209Y-84433942D01*
X115323651Y-84406080D01*
X115309673Y-84385806D01*
X115301532Y-84376888D01*
X115300831Y-84376789D01*
X115293438Y-84385338D01*
X115280173Y-84405778D01*
X115263353Y-84433981D01*
X115245291Y-84465820D01*
X115228305Y-84497168D01*
X115214709Y-84523898D01*
X115206819Y-84541883D01*
X115205737Y-84546286D01*
X115098561Y-84546286D01*
X115099538Y-84544518D01*
X115127015Y-84495452D01*
X115154678Y-84446677D01*
X115181042Y-84400831D01*
X115204624Y-84360548D01*
X115223940Y-84328466D01*
X115237507Y-84307220D01*
X115243212Y-84299806D01*
X115270679Y-84286755D01*
X115305176Y-84283896D01*
X115339109Y-84290939D01*
G37*
G36*
X117017995Y-84285597D02*
G01*
X117050118Y-84296177D01*
X117061763Y-84304303D01*
X117071240Y-84316704D01*
X117087392Y-84341829D01*
X117108700Y-84376978D01*
X117133647Y-84419450D01*
X117160712Y-84466544D01*
X117188378Y-84515560D01*
X117215126Y-84563795D01*
X117239437Y-84608550D01*
X117259793Y-84647124D01*
X117274675Y-84676815D01*
X117282564Y-84694923D01*
X117283428Y-84698521D01*
X117275163Y-84703576D01*
X117252900Y-84705485D01*
X117236334Y-84705021D01*
X117208154Y-84702453D01*
X117191208Y-84696207D01*
X117178747Y-84682226D01*
X117168203Y-84664076D01*
X117147165Y-84625850D01*
X117004784Y-84625850D01*
X116862404Y-84625850D01*
X116838684Y-84666325D01*
X116824194Y-84689620D01*
X116811639Y-84701648D01*
X116794345Y-84706133D01*
X116766165Y-84706799D01*
X116738332Y-84706161D01*
X116724803Y-84703297D01*
X116721912Y-84696787D01*
X116723821Y-84690381D01*
X116733386Y-84669514D01*
X116749660Y-84637708D01*
X116771141Y-84597595D01*
X116796324Y-84551808D01*
X116798936Y-84547150D01*
X116905793Y-84547150D01*
X116914128Y-84549860D01*
X116936826Y-84552051D01*
X116970262Y-84553474D01*
X117004604Y-84553895D01*
X117044361Y-84553482D01*
X117076491Y-84552359D01*
X117097363Y-84550707D01*
X117103541Y-84549013D01*
X117099296Y-84536861D01*
X117088070Y-84514390D01*
X117072129Y-84485422D01*
X117053739Y-84453781D01*
X117035167Y-84423290D01*
X117018677Y-84397770D01*
X117006535Y-84381046D01*
X117001346Y-84376594D01*
X116994150Y-84385068D01*
X116981035Y-84405443D01*
X116964300Y-84433617D01*
X116946243Y-84465488D01*
X116929161Y-84496954D01*
X116915352Y-84523913D01*
X116907115Y-84542263D01*
X116905793Y-84547150D01*
X116798936Y-84547150D01*
X116823707Y-84502979D01*
X116851786Y-84453740D01*
X116879058Y-84406725D01*
X116904020Y-84364565D01*
X116925169Y-84329893D01*
X116941001Y-84305342D01*
X116950013Y-84293543D01*
X116950735Y-84293007D01*
X116982090Y-84284258D01*
X117017995Y-84285597D01*
G37*
G36*
X119554497Y-84329037D02*
G01*
X119554497Y-84369512D01*
X119371619Y-84374009D01*
X119305204Y-84375581D01*
X119254608Y-84377479D01*
X119217685Y-84381009D01*
X119192291Y-84387477D01*
X119176283Y-84398191D01*
X119167517Y-84414457D01*
X119163847Y-84437581D01*
X119163131Y-84468871D01*
X119163244Y-84500996D01*
X119163502Y-84541554D01*
X119164893Y-84568216D01*
X119168337Y-84585072D01*
X119174758Y-84596212D01*
X119185077Y-84605728D01*
X119187245Y-84607446D01*
X119198086Y-84614943D01*
X119210422Y-84620045D01*
X119227588Y-84623116D01*
X119252921Y-84624518D01*
X119289758Y-84624615D01*
X119337900Y-84623839D01*
X119464554Y-84621353D01*
X119467273Y-84574133D01*
X119469991Y-84526912D01*
X119374799Y-84526912D01*
X119328408Y-84526318D01*
X119297457Y-84523695D01*
X119279414Y-84517782D01*
X119271747Y-84507318D01*
X119271923Y-84491043D01*
X119274933Y-84477190D01*
X119280630Y-84454492D01*
X119417564Y-84456973D01*
X119554497Y-84459455D01*
X119554497Y-84565952D01*
X119554494Y-84610688D01*
X119553056Y-84644800D01*
X119548040Y-84669723D01*
X119537304Y-84686891D01*
X119518706Y-84697737D01*
X119490101Y-84703697D01*
X119449349Y-84706205D01*
X119394306Y-84706694D01*
X119344383Y-84706602D01*
X119283130Y-84706303D01*
X119236895Y-84705407D01*
X119202712Y-84703671D01*
X119177616Y-84700849D01*
X119158638Y-84696696D01*
X119142812Y-84690968D01*
X119140076Y-84689754D01*
X119115255Y-84675953D01*
X119097180Y-84658588D01*
X119084965Y-84634892D01*
X119077722Y-84602100D01*
X119074564Y-84557448D01*
X119074603Y-84498170D01*
X119074863Y-84486504D01*
X119076397Y-84436311D01*
X119078487Y-84400615D01*
X119081654Y-84375924D01*
X119086418Y-84358747D01*
X119093302Y-84345593D01*
X119096595Y-84340903D01*
X119109657Y-84324677D01*
X119123410Y-84312190D01*
X119140311Y-84302956D01*
X119162818Y-84296488D01*
X119193387Y-84292301D01*
X119234475Y-84289909D01*
X119288539Y-84288825D01*
X119358035Y-84288563D01*
X119361119Y-84288563D01*
X119554497Y-84288563D01*
X119554497Y-84329037D01*
G37*
G36*
X111863647Y-84286387D02*
G01*
X111908102Y-84291094D01*
X111942148Y-84299266D01*
X111968268Y-84311330D01*
X111988943Y-84327714D01*
X111991156Y-84329969D01*
X112017245Y-84357201D01*
X112017245Y-84495363D01*
X112016675Y-84556934D01*
X112013658Y-84605132D01*
X112006234Y-84641590D01*
X111992444Y-84667942D01*
X111970328Y-84685823D01*
X111937925Y-84696864D01*
X111893276Y-84702702D01*
X111834422Y-84704968D01*
X111765404Y-84705304D01*
X111712569Y-84704783D01*
X111664100Y-84703424D01*
X111623686Y-84701398D01*
X111595020Y-84698874D01*
X111584014Y-84696930D01*
X111550047Y-84678330D01*
X111523008Y-84646467D01*
X111506304Y-84605716D01*
X111504072Y-84594196D01*
X111500593Y-84555254D01*
X111500033Y-84509093D01*
X111500599Y-84495502D01*
X111594512Y-84495502D01*
X111594837Y-84540628D01*
X111597395Y-84573914D01*
X111604563Y-84597161D01*
X111618715Y-84612172D01*
X111642227Y-84620747D01*
X111677475Y-84624688D01*
X111726833Y-84625796D01*
X111766400Y-84625850D01*
X111817806Y-84625642D01*
X111854362Y-84624762D01*
X111879201Y-84622828D01*
X111895461Y-84619457D01*
X111906277Y-84614267D01*
X111913810Y-84607861D01*
X111922143Y-84597326D01*
X111927459Y-84583213D01*
X111930405Y-84561591D01*
X111931625Y-84528529D01*
X111931799Y-84498389D01*
X111931657Y-84454670D01*
X111929623Y-84422614D01*
X111923284Y-84400412D01*
X111910227Y-84386258D01*
X111888038Y-84378345D01*
X111854305Y-84374866D01*
X111806614Y-84374012D01*
X111765729Y-84374009D01*
X111706323Y-84374076D01*
X111662526Y-84375402D01*
X111631962Y-84379671D01*
X111612255Y-84388569D01*
X111601031Y-84403782D01*
X111595914Y-84426995D01*
X111594529Y-84459894D01*
X111594512Y-84495502D01*
X111500599Y-84495502D01*
X111502050Y-84460652D01*
X111506303Y-84414872D01*
X111512453Y-84376690D01*
X111520157Y-84351046D01*
X111520965Y-84349427D01*
X111534053Y-84328791D01*
X111550267Y-84313307D01*
X111572313Y-84302165D01*
X111602897Y-84294552D01*
X111644725Y-84289657D01*
X111700502Y-84286669D01*
X111733580Y-84285659D01*
X111806300Y-84284717D01*
X111863647Y-84286387D01*
G37*
G36*
X113465137Y-84284401D02*
G01*
X113496540Y-84291408D01*
X113514802Y-84302054D01*
X113520744Y-84309009D01*
X113525215Y-84318014D01*
X113528421Y-84331518D01*
X113530572Y-84351974D01*
X113531875Y-84381833D01*
X113532539Y-84423544D01*
X113532771Y-84479560D01*
X113532791Y-84513914D01*
X113532791Y-84707785D01*
X113490068Y-84705043D01*
X113447344Y-84702302D01*
X113444890Y-84537474D01*
X113443492Y-84475313D01*
X113441398Y-84427184D01*
X113438687Y-84394206D01*
X113435438Y-84377496D01*
X113433509Y-84375623D01*
X113427104Y-84384402D01*
X113414767Y-84406972D01*
X113397838Y-84440667D01*
X113377660Y-84482826D01*
X113357304Y-84526959D01*
X113334538Y-84575750D01*
X113312877Y-84619596D01*
X113293891Y-84655511D01*
X113279149Y-84680511D01*
X113271000Y-84691059D01*
X113247164Y-84701861D01*
X113214359Y-84706526D01*
X113180600Y-84704836D01*
X113153904Y-84696575D01*
X113150413Y-84694334D01*
X113141375Y-84682382D01*
X113126681Y-84656800D01*
X113107829Y-84620463D01*
X113086316Y-84576245D01*
X113065376Y-84530896D01*
X113043198Y-84482743D01*
X113022821Y-84440530D01*
X113005607Y-84406923D01*
X112992918Y-84384585D01*
X112986264Y-84376217D01*
X112982177Y-84378949D01*
X112979152Y-84391462D01*
X112977065Y-84415572D01*
X112975793Y-84453094D01*
X112975212Y-84505844D01*
X112975142Y-84539654D01*
X112975142Y-84706799D01*
X112934385Y-84706799D01*
X112903619Y-84703826D01*
X112889180Y-84695038D01*
X112888742Y-84694065D01*
X112887405Y-84681547D01*
X112886491Y-84653940D01*
X112886028Y-84614139D01*
X112886044Y-84565039D01*
X112886569Y-84509536D01*
X112886776Y-84495451D01*
X112887889Y-84427953D01*
X112889501Y-84376363D01*
X112892604Y-84338609D01*
X112898193Y-84312617D01*
X112907262Y-84296313D01*
X112920804Y-84287625D01*
X112939814Y-84284478D01*
X112965286Y-84284801D01*
X112987208Y-84285965D01*
X113022117Y-84288845D01*
X113043430Y-84293736D01*
X113055526Y-84301914D01*
X113059062Y-84306892D01*
X113065907Y-84320631D01*
X113078521Y-84347845D01*
X113095530Y-84385496D01*
X113115562Y-84430549D01*
X113134180Y-84472946D01*
X113155595Y-84520691D01*
X113175352Y-84562329D01*
X113192091Y-84595179D01*
X113204451Y-84616559D01*
X113210733Y-84623785D01*
X113218727Y-84616523D01*
X113232441Y-84593287D01*
X113251407Y-84554993D01*
X113275157Y-84502560D01*
X113288870Y-84470882D01*
X113310862Y-84420767D01*
X113331744Y-84375647D01*
X113350070Y-84338459D01*
X113364395Y-84312141D01*
X113373064Y-84299806D01*
X113396501Y-84288491D01*
X113429492Y-84283392D01*
X113465137Y-84284401D01*
G37*
G36*
X106709158Y-81123590D02*
G01*
X106729287Y-81134941D01*
X106758306Y-81152325D01*
X106789274Y-81171519D01*
X106897494Y-81236255D01*
X107016988Y-81301900D01*
X107141548Y-81365126D01*
X107220639Y-81402593D01*
X107502426Y-81522386D01*
X107793255Y-81626871D01*
X108092538Y-81715933D01*
X108399685Y-81789457D01*
X108714107Y-81847328D01*
X109035215Y-81889430D01*
X109362419Y-81915648D01*
X109695131Y-81925868D01*
X109890085Y-81924426D01*
X109972283Y-81922545D01*
X110044430Y-81920508D01*
X110109792Y-81918103D01*
X110171635Y-81915116D01*
X110233223Y-81911336D01*
X110297822Y-81906550D01*
X110368698Y-81900547D01*
X110449116Y-81893113D01*
X110542341Y-81884036D01*
X110600638Y-81878229D01*
X111000146Y-81843163D01*
X111387534Y-81819333D01*
X111764739Y-81806753D01*
X112133699Y-81805435D01*
X112496351Y-81815392D01*
X112854632Y-81836635D01*
X113210479Y-81869178D01*
X113442847Y-81896583D01*
X113665533Y-81928110D01*
X113887561Y-81965281D01*
X114105605Y-82007400D01*
X114316339Y-82053774D01*
X114516435Y-82103708D01*
X114702568Y-82156507D01*
X114733414Y-82165977D01*
X114780717Y-82180950D01*
X114822568Y-82194710D01*
X114855650Y-82206129D01*
X114876646Y-82214074D01*
X114881821Y-82216542D01*
X114889124Y-82222386D01*
X114880492Y-82221481D01*
X114877444Y-82220742D01*
X114840593Y-82212581D01*
X114788689Y-82202538D01*
X114724516Y-82191060D01*
X114650858Y-82178593D01*
X114570498Y-82165584D01*
X114486222Y-82152479D01*
X114400812Y-82139725D01*
X114317054Y-82127767D01*
X114237731Y-82117052D01*
X114202869Y-82112585D01*
X113964609Y-82084993D01*
X113736958Y-82063648D01*
X113513798Y-82048169D01*
X113289016Y-82038171D01*
X113056497Y-82033273D01*
X112925673Y-82032613D01*
X112650896Y-82036185D01*
X112390530Y-82047022D01*
X112142431Y-82065352D01*
X111904455Y-82091400D01*
X111674460Y-82125393D01*
X111450301Y-82167558D01*
X111275213Y-82206968D01*
X110971862Y-82289270D01*
X110675890Y-82387802D01*
X110387702Y-82502358D01*
X110107705Y-82632732D01*
X109836307Y-82778719D01*
X109573915Y-82940114D01*
X109320936Y-83116711D01*
X109077777Y-83308304D01*
X109053612Y-83328622D01*
X108973333Y-83399138D01*
X108888764Y-83478132D01*
X108802790Y-83562604D01*
X108718301Y-83649551D01*
X108638183Y-83735972D01*
X108565323Y-83818864D01*
X108502608Y-83895226D01*
X108478553Y-83926541D01*
X108458652Y-83951907D01*
X108442446Y-83970351D01*
X108433184Y-83978197D01*
X108432797Y-83978258D01*
X108427491Y-83970684D01*
X108413349Y-83948468D01*
X108390834Y-83912366D01*
X108360406Y-83863135D01*
X108322527Y-83801532D01*
X108277659Y-83728314D01*
X108226263Y-83644239D01*
X108168802Y-83550063D01*
X108105735Y-83446544D01*
X108037526Y-83334438D01*
X107964635Y-83214502D01*
X107887525Y-83087494D01*
X107806656Y-82954170D01*
X107722491Y-82815287D01*
X107635492Y-82671603D01*
X107562169Y-82550415D01*
X107473251Y-82403364D01*
X107386885Y-82260466D01*
X107303527Y-82122478D01*
X107223634Y-81990157D01*
X107147662Y-81864263D01*
X107076066Y-81745552D01*
X107009305Y-81634783D01*
X106947833Y-81532714D01*
X106892107Y-81440101D01*
X106842583Y-81357705D01*
X106799718Y-81286281D01*
X106763968Y-81226589D01*
X106735789Y-81179386D01*
X106715637Y-81145430D01*
X106703969Y-81125478D01*
X106701054Y-81120099D01*
X106709158Y-81123590D01*
G37*
G36*
X114840769Y-81391513D02*
G01*
X114877741Y-81400558D01*
X114930257Y-81414427D01*
X114999123Y-81433114D01*
X115016856Y-81437955D01*
X115260698Y-81508995D01*
X115513463Y-81591122D01*
X115771157Y-81682903D01*
X116029786Y-81782907D01*
X116285356Y-81889702D01*
X116325531Y-81907251D01*
X116671807Y-82067676D01*
X117018398Y-82244412D01*
X117363210Y-82436077D01*
X117704146Y-82641288D01*
X118039113Y-82858664D01*
X118366014Y-83086822D01*
X118682754Y-83324379D01*
X118987239Y-83569955D01*
X119277373Y-83822166D01*
X119401594Y-83936428D01*
X119433646Y-83966933D01*
X119452276Y-83985919D01*
X119457651Y-83993654D01*
X119449938Y-83990409D01*
X119429304Y-83976452D01*
X119424080Y-83972714D01*
X119379243Y-83942581D01*
X119321039Y-83906731D01*
X119252508Y-83866825D01*
X119176690Y-83824520D01*
X119096625Y-83781476D01*
X119015353Y-83739351D01*
X118935914Y-83699804D01*
X118861348Y-83664495D01*
X118848442Y-83658610D01*
X118559737Y-83537453D01*
X118264432Y-83432332D01*
X117964117Y-83343704D01*
X117660380Y-83272022D01*
X117354811Y-83217745D01*
X117268488Y-83205642D01*
X117183839Y-83194849D01*
X117107327Y-83186050D01*
X117035608Y-83179054D01*
X116965339Y-83173670D01*
X116893176Y-83169708D01*
X116815775Y-83166979D01*
X116729793Y-83165291D01*
X116631885Y-83164455D01*
X116541395Y-83164271D01*
X116431560Y-83164546D01*
X116336343Y-83165509D01*
X116252379Y-83167362D01*
X116176304Y-83170310D01*
X116104754Y-83174557D01*
X116034364Y-83180306D01*
X115961769Y-83187762D01*
X115883606Y-83197128D01*
X115796510Y-83208608D01*
X115785871Y-83210059D01*
X115510901Y-83243557D01*
X115248276Y-83266925D01*
X114995484Y-83280173D01*
X114750013Y-83283312D01*
X114509350Y-83276350D01*
X114270981Y-83259298D01*
X114032395Y-83232166D01*
X113928541Y-83217316D01*
X113651636Y-83168541D01*
X113378161Y-83106923D01*
X113110515Y-83033186D01*
X112851094Y-82948052D01*
X112602296Y-82852246D01*
X112366517Y-82746490D01*
X112363527Y-82745043D01*
X112316822Y-82721926D01*
X112266526Y-82696205D01*
X112215026Y-82669193D01*
X112164710Y-82642202D01*
X112117962Y-82616546D01*
X112077171Y-82593539D01*
X112044722Y-82574493D01*
X112023002Y-82560723D01*
X112014398Y-82553540D01*
X112014494Y-82552980D01*
X112023911Y-82553388D01*
X112047655Y-82556072D01*
X112082266Y-82560600D01*
X112124287Y-82566541D01*
X112129675Y-82567331D01*
X112214944Y-82579249D01*
X112313719Y-82592007D01*
X112421568Y-82605090D01*
X112534058Y-82617983D01*
X112646758Y-82630174D01*
X112755235Y-82641147D01*
X112813244Y-82646638D01*
X113083922Y-82668852D01*
X113342064Y-82684605D01*
X113587263Y-82693921D01*
X113819113Y-82696826D01*
X114037207Y-82693343D01*
X114241140Y-82683498D01*
X114430503Y-82667315D01*
X114604892Y-82644820D01*
X114763898Y-82616035D01*
X114907116Y-82580987D01*
X115034139Y-82539701D01*
X115113594Y-82506922D01*
X115209301Y-82456242D01*
X115291403Y-82398058D01*
X115359196Y-82333329D01*
X115411978Y-82263014D01*
X115449045Y-82188072D01*
X115469693Y-82109464D01*
X115473220Y-82028146D01*
X115472395Y-82017539D01*
X115465522Y-81975338D01*
X115451529Y-81931720D01*
X115429529Y-81882578D01*
X115411146Y-81847451D01*
X115391985Y-81817027D01*
X115368795Y-81787077D01*
X115338327Y-81753369D01*
X115301130Y-81715459D01*
X115228038Y-81648059D01*
X115148507Y-81585919D01*
X115059291Y-81526797D01*
X114957141Y-81468454D01*
X114900296Y-81438922D01*
X114860904Y-81418883D01*
X114832227Y-81403707D01*
X114815070Y-81393389D01*
X114810238Y-81387922D01*
X114818536Y-81387299D01*
X114840769Y-81391513D01*
G37*
%TO.C,R22*%
X107377500Y-56737258D02*
X107377500Y-56262742D01*
X108422500Y-56737258D02*
X108422500Y-56262742D01*
%TO.C,C2*%
X76259420Y-78190000D02*
X76540580Y-78190000D01*
X76259420Y-79210000D02*
X76540580Y-79210000D01*
%TO.C,C5*%
X75615000Y-62259420D02*
X75615000Y-62540580D01*
X74595000Y-62259420D02*
X74595000Y-62540580D01*
%TO.C,R10*%
X99992258Y-79672500D02*
X99517742Y-79672500D01*
X99992258Y-78627500D02*
X99517742Y-78627500D01*
%TO.C,J6*%
X94400000Y-41925000D02*
X94400000Y-43175000D01*
X94690000Y-42215000D02*
X94690000Y-48185000D01*
X94690000Y-48185000D02*
X107310000Y-48185000D01*
X94700000Y-42225000D02*
X94700000Y-42975000D01*
X94700000Y-42975000D02*
X96500000Y-42975000D01*
X94700000Y-44475000D02*
X95450000Y-44475000D01*
X95450000Y-44475000D02*
X95450000Y-47425000D01*
X95450000Y-47425000D02*
X101000000Y-47425000D01*
X95650000Y-41925000D02*
X94400000Y-41925000D01*
X96500000Y-42225000D02*
X94700000Y-42225000D01*
X96500000Y-42975000D02*
X96500000Y-42225000D01*
X98000000Y-42225000D02*
X98000000Y-42975000D01*
X98000000Y-42975000D02*
X104000000Y-42975000D01*
X104000000Y-42225000D02*
X98000000Y-42225000D01*
X104000000Y-42975000D02*
X104000000Y-42225000D01*
X105500000Y-42225000D02*
X105500000Y-42975000D01*
X105500000Y-42975000D02*
X107300000Y-42975000D01*
X106550000Y-44475000D02*
X106550000Y-47425000D01*
X106550000Y-47425000D02*
X101000000Y-47425000D01*
X107300000Y-42225000D02*
X105500000Y-42225000D01*
X107300000Y-42975000D02*
X107300000Y-42225000D01*
X107300000Y-44475000D02*
X106550000Y-44475000D01*
X107310000Y-42215000D02*
X94690000Y-42215000D01*
X107310000Y-48185000D02*
X107310000Y-42215000D01*
%TO.C,U5*%
X81095000Y-52870000D02*
X81095000Y-54820000D01*
X81095000Y-52870000D02*
X81095000Y-50920000D01*
X86215000Y-52870000D02*
X86215000Y-54820000D01*
X86215000Y-52870000D02*
X86215000Y-50920000D01*
X81190000Y-55570000D02*
X80860000Y-55810000D01*
X80860000Y-55330000D01*
X81190000Y-55570000D01*
G36*
X81190000Y-55570000D02*
G01*
X80860000Y-55810000D01*
X80860000Y-55330000D01*
X81190000Y-55570000D01*
G37*
%TO.C,R14*%
X96222500Y-77762742D02*
X96222500Y-78237258D01*
X95177500Y-77762742D02*
X95177500Y-78237258D01*
%TO.C,J2*%
X94185000Y-61980000D02*
X92855000Y-61980000D01*
X94185000Y-60650000D02*
X94185000Y-61980000D01*
X94185000Y-59380000D02*
X94185000Y-54240000D01*
X94185000Y-59380000D02*
X91525000Y-59380000D01*
X94185000Y-54240000D02*
X91525000Y-54240000D01*
X91525000Y-59380000D02*
X91525000Y-54240000D01*
%TO.C,SW1*%
X68445000Y-75230000D02*
X68445000Y-69110000D01*
X72065000Y-75230000D02*
X68445000Y-75230000D01*
X68445000Y-69110000D02*
X72065000Y-69110000D01*
X72065000Y-69110000D02*
X72065000Y-75230000D01*
%TO.C,C4*%
X73793748Y-71785000D02*
X74316252Y-71785000D01*
X73793748Y-73255000D02*
X74316252Y-73255000D01*
%TO.C,R13*%
X104062742Y-68177500D02*
X104537258Y-68177500D01*
X104062742Y-69222500D02*
X104537258Y-69222500D01*
%TO.C,kibuzzard-679F52BD*%
G36*
X68277716Y-50382103D02*
G01*
X68332881Y-50409488D01*
X68368600Y-50456319D01*
X68380506Y-50523787D01*
X68336056Y-50634119D01*
X68277716Y-50663289D01*
X68191594Y-50673012D01*
X68148731Y-50673012D01*
X68148731Y-50377737D01*
X68180481Y-50373769D01*
X68207469Y-50372975D01*
X68277716Y-50382103D01*
G37*
G36*
X66728117Y-50381905D02*
G01*
X66782687Y-50408694D01*
X66817811Y-50456914D01*
X66829519Y-50530138D01*
X66817612Y-50607330D01*
X66781894Y-50657931D01*
X66722759Y-50685911D01*
X66640606Y-50695238D01*
X66561231Y-50695238D01*
X66561231Y-50377737D01*
X66609650Y-50373769D01*
X66658069Y-50372975D01*
X66728117Y-50381905D01*
G37*
G36*
X68974760Y-51527617D02*
G01*
X68644031Y-51527617D01*
X67775669Y-51527617D01*
X66561231Y-51527617D01*
X66365969Y-51527617D01*
X66035240Y-51527617D01*
X66035240Y-51196888D01*
X66365969Y-51196888D01*
X66561231Y-51196888D01*
X66561231Y-50865100D01*
X66631081Y-50865100D01*
X66748468Y-50856369D01*
X66846628Y-50830175D01*
X66925562Y-50786519D01*
X66983330Y-50723283D01*
X67017990Y-50638352D01*
X67029544Y-50531725D01*
X67018078Y-50426156D01*
X66983683Y-50342283D01*
X66926356Y-50280106D01*
X66848216Y-50237332D01*
X66761030Y-50214225D01*
X67110506Y-50214225D01*
X67114078Y-50335470D01*
X67118444Y-50461081D01*
X67123802Y-50588478D01*
X67130350Y-50715081D01*
X67138089Y-50840494D01*
X67147019Y-50964319D01*
X67157337Y-51083977D01*
X67169244Y-51196888D01*
X67331169Y-51196888D01*
X67364506Y-51092509D01*
X67401019Y-50979400D01*
X67438325Y-50866291D01*
X67474044Y-50761912D01*
X67508969Y-50869267D01*
X67543894Y-50981781D01*
X67578819Y-51093105D01*
X67613744Y-51196888D01*
X67775669Y-51196888D01*
X67953469Y-51196888D01*
X68148731Y-51196888D01*
X68148731Y-50834937D01*
X68250331Y-50834937D01*
X68304108Y-50924830D01*
X68354313Y-51013531D01*
X68399755Y-51103423D01*
X68439244Y-51196888D01*
X68644031Y-51196888D01*
X68598788Y-51092906D01*
X68544019Y-50983369D01*
X68485281Y-50878594D01*
X68428131Y-50787313D01*
X68497584Y-50742466D01*
X68544019Y-50680950D01*
X68570213Y-50607131D01*
X68578944Y-50525375D01*
X68572395Y-50448183D01*
X68552750Y-50381706D01*
X68477344Y-50280900D01*
X68423369Y-50246372D01*
X68359869Y-50222162D01*
X68287637Y-50207875D01*
X68207469Y-50203112D01*
X68151906Y-50204700D01*
X68085231Y-50208669D01*
X68016175Y-50216606D01*
X67953469Y-50228512D01*
X67953469Y-51196888D01*
X67775669Y-51196888D01*
X67786186Y-51084175D01*
X67795512Y-50965113D01*
X67803648Y-50841883D01*
X67810594Y-50716669D01*
X67816547Y-50590066D01*
X67821706Y-50462669D01*
X67826469Y-50336661D01*
X67831231Y-50214225D01*
X67650256Y-50214225D01*
X67650653Y-50309673D01*
X67651844Y-50408694D01*
X67653431Y-50508905D01*
X67655019Y-50607925D01*
X67656606Y-50705358D01*
X67658194Y-50800806D01*
X67659384Y-50892286D01*
X67659781Y-50977812D01*
X67624063Y-50850813D01*
X67590725Y-50734925D01*
X67562944Y-50636500D01*
X67543894Y-50561888D01*
X67401019Y-50561888D01*
X67378794Y-50639675D01*
X67347837Y-50747625D01*
X67312912Y-50866687D01*
X67280369Y-50977812D01*
X67280766Y-50892286D01*
X67281956Y-50800806D01*
X67283544Y-50705159D01*
X67285131Y-50607131D01*
X67286719Y-50507714D01*
X67288306Y-50407900D01*
X67289894Y-50309475D01*
X67291481Y-50214225D01*
X67110506Y-50214225D01*
X66761030Y-50214225D01*
X66751378Y-50211667D01*
X66635844Y-50203112D01*
X66573931Y-50204700D01*
X66502494Y-50208669D01*
X66430262Y-50215812D01*
X66365969Y-50226925D01*
X66365969Y-51196888D01*
X66035240Y-51196888D01*
X66035240Y-49872383D01*
X66365969Y-49872383D01*
X68644031Y-49872383D01*
X68974760Y-49872383D01*
X68974760Y-51527617D01*
G37*
%TO.C,C3*%
X81516252Y-73305000D02*
X80993748Y-73305000D01*
X81516252Y-71835000D02*
X80993748Y-71835000D01*
%TO.C,D4*%
X86115000Y-77440000D02*
X86115000Y-79360000D01*
X86115000Y-79360000D02*
X88800000Y-79360000D01*
X88800000Y-77440000D02*
X86115000Y-77440000D01*
%TO.C,R23*%
X66677500Y-67837258D02*
X66677500Y-67362742D01*
X67722500Y-67837258D02*
X67722500Y-67362742D01*
%TO.C,R1*%
X73967742Y-52247500D02*
X74442258Y-52247500D01*
X73967742Y-53292500D02*
X74442258Y-53292500D01*
%TO.C,C16*%
X100665000Y-72704420D02*
X100665000Y-72985580D01*
X99645000Y-72704420D02*
X99645000Y-72985580D01*
%TO.C,kibuzzard-679F55A0*%
G36*
X90003187Y-44484981D02*
G01*
X89901587Y-44465137D01*
X89803956Y-44442912D01*
X89705531Y-44417512D01*
X89599962Y-44388144D01*
X89705531Y-44358775D01*
X89803956Y-44333375D01*
X89901587Y-44311944D01*
X90003187Y-44292894D01*
X90003187Y-44484981D01*
G37*
G36*
X90743492Y-43426119D02*
G01*
X90743492Y-44213519D01*
X90743492Y-45107281D01*
X90743492Y-45534319D01*
X90743492Y-45865048D01*
X89056508Y-45865048D01*
X89056508Y-45534319D01*
X89056508Y-45088231D01*
X89387237Y-45088231D01*
X89395770Y-45181298D01*
X89421369Y-45266825D01*
X89463437Y-45343025D01*
X89521381Y-45408112D01*
X89594605Y-45461095D01*
X89682512Y-45500981D01*
X89784509Y-45525984D01*
X89900000Y-45534319D01*
X90015987Y-45527473D01*
X90117884Y-45506934D01*
X90205693Y-45472704D01*
X90279412Y-45424781D01*
X90353496Y-45340820D01*
X90397946Y-45234987D01*
X90412762Y-45107281D01*
X90407405Y-45020564D01*
X90391331Y-44944562D01*
X90344500Y-44832644D01*
X90190512Y-44881856D01*
X90225437Y-44962025D01*
X90242900Y-45088231D01*
X90220477Y-45201539D01*
X90153206Y-45277937D01*
X90084679Y-45310128D01*
X89998690Y-45329443D01*
X89895237Y-45335881D01*
X89806337Y-45330523D01*
X89733312Y-45314450D01*
X89629331Y-45258887D01*
X89573769Y-45181100D01*
X89557100Y-45091406D01*
X89573769Y-44973137D01*
X89614250Y-44885031D01*
X89458675Y-44834231D01*
X89439625Y-44866775D01*
X89415812Y-44919956D01*
X89395969Y-44993775D01*
X89387237Y-45088231D01*
X89056508Y-45088231D01*
X89056508Y-44489744D01*
X89409462Y-44489744D01*
X89518157Y-44523379D01*
X89629927Y-44557609D01*
X89744772Y-44592435D01*
X89862694Y-44627856D01*
X89960325Y-44656368D01*
X90062084Y-44684752D01*
X90167970Y-44713010D01*
X90277984Y-44741140D01*
X90392125Y-44769144D01*
X90392125Y-44565944D01*
X90165113Y-44521494D01*
X90165113Y-44259556D01*
X90392125Y-44213519D01*
X90392125Y-44003969D01*
X90280714Y-44030162D01*
X90172542Y-44056674D01*
X90067608Y-44083502D01*
X89965913Y-44110649D01*
X89867456Y-44138112D01*
X89748046Y-44172690D01*
X89631911Y-44207367D01*
X89519050Y-44242143D01*
X89409462Y-44277019D01*
X89409462Y-44489744D01*
X89056508Y-44489744D01*
X89056508Y-43916656D01*
X89409462Y-43916656D01*
X90392125Y-43916656D01*
X90392125Y-43740444D01*
X89739662Y-43740444D01*
X89848583Y-43681442D01*
X89957326Y-43625085D01*
X90065894Y-43571375D01*
X90174461Y-43520310D01*
X90283205Y-43471892D01*
X90392125Y-43426119D01*
X90392125Y-43268956D01*
X89409462Y-43268956D01*
X89409462Y-43445169D01*
X90014300Y-43445169D01*
X89952387Y-43473148D01*
X89880950Y-43506287D01*
X89803559Y-43543594D01*
X89723787Y-43584075D01*
X89642627Y-43626739D01*
X89561069Y-43670594D01*
X89482289Y-43715044D01*
X89409462Y-43759494D01*
X89409462Y-43916656D01*
X89056508Y-43916656D01*
X89056508Y-43083219D01*
X89409462Y-43083219D01*
X90392125Y-43083219D01*
X90392125Y-42465681D01*
X90230200Y-42465681D01*
X90230200Y-42886369D01*
X89409462Y-42886369D01*
X89409462Y-43083219D01*
X89056508Y-43083219D01*
X89056508Y-42465681D01*
X89056508Y-42134952D01*
X90743492Y-42134952D01*
X90743492Y-42465681D01*
X90743492Y-43426119D01*
G37*
%TO.C,D3*%
X102090000Y-64200000D02*
X102090000Y-64850000D01*
X102090000Y-64200000D02*
X102090000Y-63550000D01*
X105210000Y-64200000D02*
X105210000Y-64850000D01*
X105210000Y-64200000D02*
X105210000Y-63550000D01*
X102140000Y-65362500D02*
X101810000Y-65602500D01*
X101810000Y-65122500D01*
X102140000Y-65362500D01*
G36*
X102140000Y-65362500D02*
G01*
X101810000Y-65602500D01*
X101810000Y-65122500D01*
X102140000Y-65362500D01*
G37*
%TO.C,R8*%
X98077500Y-71587258D02*
X98077500Y-71112742D01*
X99122500Y-71587258D02*
X99122500Y-71112742D01*
%TO.C,C28*%
X120090000Y-52040580D02*
X120090000Y-51759420D01*
X121110000Y-52040580D02*
X121110000Y-51759420D01*
%TO.C,kibuzzard-679F5696*%
G36*
X97046375Y-55295994D02*
G01*
X97111462Y-55369812D01*
X97144800Y-55476175D01*
X97154325Y-55600000D01*
X97151348Y-55670048D01*
X97142419Y-55734144D01*
X97102731Y-55839712D01*
X97029706Y-55909562D01*
X96917787Y-55934962D01*
X96900325Y-55934962D01*
X96882862Y-55933375D01*
X96882862Y-55272975D01*
X96911437Y-55269006D01*
X96940012Y-55268212D01*
X97046375Y-55295994D01*
G37*
G36*
X97683492Y-56443492D02*
G01*
X97352763Y-56443492D01*
X96897150Y-56443492D01*
X96371687Y-56443492D01*
X95458875Y-56443492D01*
X95057237Y-56443492D01*
X94726508Y-56443492D01*
X94726508Y-55600000D01*
X95057237Y-55600000D01*
X95064381Y-55719261D01*
X95085812Y-55823044D01*
X95120341Y-55911150D01*
X95166775Y-55983381D01*
X95224520Y-56039737D01*
X95292981Y-56080219D01*
X95371364Y-56104627D01*
X95458875Y-56112762D01*
X95555911Y-56108794D01*
X95637469Y-56096887D01*
X95746212Y-56068312D01*
X95746212Y-55577775D01*
X95550950Y-55577775D01*
X95550950Y-55936550D01*
X95512850Y-55941312D01*
X95474750Y-55942900D01*
X95379897Y-55922064D01*
X95311237Y-55859556D01*
X95280369Y-55793675D01*
X95261849Y-55707156D01*
X95255675Y-55600000D01*
X95259048Y-55527173D01*
X95269169Y-55461094D01*
X95313619Y-55353144D01*
X95392200Y-55282500D01*
X95509675Y-55257100D01*
X95614450Y-55274562D01*
X95700175Y-55314250D01*
X95750975Y-55158675D01*
X95718431Y-55139625D01*
X95663662Y-55115812D01*
X95638515Y-55109462D01*
X95881150Y-55109462D01*
X95881150Y-56092125D01*
X96057362Y-56092125D01*
X96057362Y-55439662D01*
X96116365Y-55548583D01*
X96172721Y-55657326D01*
X96226431Y-55765894D01*
X96277496Y-55874461D01*
X96325915Y-55983205D01*
X96371687Y-56092125D01*
X96528850Y-56092125D01*
X96528850Y-56081012D01*
X96687600Y-56081012D01*
X96794756Y-56099269D01*
X96897150Y-56104825D01*
X96992995Y-56097880D01*
X97080506Y-56077044D01*
X97158095Y-56041127D01*
X97224175Y-55988937D01*
X97277952Y-55919683D01*
X97318631Y-55832569D01*
X97344230Y-55726405D01*
X97352763Y-55600000D01*
X97345023Y-55476373D01*
X97321806Y-55372194D01*
X97284698Y-55286072D01*
X97235287Y-55216619D01*
X97173573Y-55163636D01*
X97099556Y-55126925D01*
X97015220Y-55105494D01*
X96922550Y-55098350D01*
X96813012Y-55103112D01*
X96687600Y-55122162D01*
X96687600Y-56081012D01*
X96528850Y-56081012D01*
X96528850Y-55109462D01*
X96352637Y-55109462D01*
X96352637Y-55714300D01*
X96324658Y-55652387D01*
X96291519Y-55580950D01*
X96254212Y-55503559D01*
X96213731Y-55423787D01*
X96171067Y-55342627D01*
X96127212Y-55261069D01*
X96082762Y-55182289D01*
X96038312Y-55109462D01*
X95881150Y-55109462D01*
X95638515Y-55109462D01*
X95585081Y-55095969D01*
X95482687Y-55087237D01*
X95396566Y-55095373D01*
X95316000Y-55119781D01*
X95243372Y-55160461D01*
X95181062Y-55217412D01*
X95129866Y-55290239D01*
X95090575Y-55378544D01*
X95065572Y-55481930D01*
X95057237Y-55600000D01*
X94726508Y-55600000D01*
X94726508Y-54756508D01*
X95057237Y-54756508D01*
X97352763Y-54756508D01*
X97683492Y-54756508D01*
X97683492Y-56443492D01*
G37*
%TO.C,C26*%
X103138748Y-52065000D02*
X103661252Y-52065000D01*
X103138748Y-53535000D02*
X103661252Y-53535000D01*
%TO.C,R15*%
X78917742Y-51097500D02*
X79392258Y-51097500D01*
X78917742Y-52142500D02*
X79392258Y-52142500D01*
%TO.C,R11*%
X99992258Y-76472500D02*
X99517742Y-76472500D01*
X99992258Y-75427500D02*
X99517742Y-75427500D01*
%TO.C,U4*%
X90850000Y-68615000D02*
X88650000Y-68615000D01*
X90850000Y-68615000D02*
X93050000Y-68615000D01*
X90850000Y-74085000D02*
X88650000Y-74085000D01*
X90850000Y-74085000D02*
X93050000Y-74085000D01*
X86990000Y-69075000D02*
X86660000Y-69315000D01*
X86660000Y-68835000D01*
X86990000Y-69075000D01*
G36*
X86990000Y-69075000D02*
G01*
X86660000Y-69315000D01*
X86660000Y-68835000D01*
X86990000Y-69075000D01*
G37*
%TO.C,U6*%
X113660000Y-51400000D02*
X113660000Y-50600000D01*
X113660000Y-51400000D02*
X113660000Y-52200000D01*
X110540000Y-51400000D02*
X110540000Y-50600000D01*
X110540000Y-51400000D02*
X110540000Y-52200000D01*
X113940000Y-50340000D02*
X113610000Y-50100000D01*
X113940000Y-49860000D01*
X113940000Y-50340000D01*
G36*
X113940000Y-50340000D02*
G01*
X113610000Y-50100000D01*
X113940000Y-49860000D01*
X113940000Y-50340000D01*
G37*
%TO.C,Y1*%
X70105000Y-60850000D02*
X70105000Y-64050000D01*
X70105000Y-64050000D02*
X74105000Y-64050000D01*
%TO.C,kibuzzard-679F56A0*%
G36*
X97696192Y-59043492D02*
G01*
X97365463Y-59043492D01*
X97144800Y-59043492D01*
X96525675Y-59043492D01*
X95471575Y-59043492D01*
X95044537Y-59043492D01*
X94713808Y-59043492D01*
X94713808Y-58200000D01*
X95044537Y-58200000D01*
X95051384Y-58315987D01*
X95071922Y-58417884D01*
X95106152Y-58505693D01*
X95154075Y-58579412D01*
X95238036Y-58653496D01*
X95343869Y-58697946D01*
X95471575Y-58712762D01*
X95558292Y-58707405D01*
X95634294Y-58691331D01*
X95746212Y-58644500D01*
X95697000Y-58490512D01*
X95616831Y-58525437D01*
X95490625Y-58542900D01*
X95377317Y-58520477D01*
X95300919Y-58453206D01*
X95268728Y-58384679D01*
X95249413Y-58298690D01*
X95242975Y-58195237D01*
X95248333Y-58106337D01*
X95264406Y-58033312D01*
X95319969Y-57929331D01*
X95397756Y-57873769D01*
X95487450Y-57857100D01*
X95605719Y-57873769D01*
X95693825Y-57914250D01*
X95744625Y-57758675D01*
X95712081Y-57739625D01*
X95658900Y-57715812D01*
X95635277Y-57709462D01*
X95908137Y-57709462D01*
X95908137Y-58692125D01*
X96525675Y-58692125D01*
X96525675Y-58530200D01*
X96104987Y-58530200D01*
X96104987Y-57709462D01*
X96660612Y-57709462D01*
X96660612Y-58692125D01*
X96855875Y-58692125D01*
X96855875Y-58242862D01*
X96939219Y-58332556D01*
X96981883Y-58387722D01*
X97022562Y-58446856D01*
X97060464Y-58508769D01*
X97094794Y-58572269D01*
X97144800Y-58692125D01*
X97365463Y-58692125D01*
X97339666Y-58621283D01*
X97306725Y-58548456D01*
X97268030Y-58475431D01*
X97224969Y-58403994D01*
X97178336Y-58335533D01*
X97128925Y-58271437D01*
X97078522Y-58213097D01*
X97028912Y-58161900D01*
X97077133Y-58103559D01*
X97123369Y-58042837D01*
X97167223Y-57981520D01*
X97208300Y-57921394D01*
X97245805Y-57863053D01*
X97278944Y-57807094D01*
X97332125Y-57709462D01*
X97111462Y-57709462D01*
X97063837Y-57804712D01*
X97001131Y-57911075D01*
X96928900Y-58019025D01*
X96855875Y-58117450D01*
X96855875Y-57709462D01*
X96660612Y-57709462D01*
X96104987Y-57709462D01*
X95908137Y-57709462D01*
X95635277Y-57709462D01*
X95585081Y-57695969D01*
X95490625Y-57687237D01*
X95397558Y-57695770D01*
X95312031Y-57721369D01*
X95235831Y-57763437D01*
X95170744Y-57821381D01*
X95117761Y-57894605D01*
X95077875Y-57982512D01*
X95052872Y-58084509D01*
X95044537Y-58200000D01*
X94713808Y-58200000D01*
X94713808Y-57356508D01*
X95044537Y-57356508D01*
X97365463Y-57356508D01*
X97696192Y-57356508D01*
X97696192Y-59043492D01*
G37*
%TO.C,C23*%
X97340580Y-49910000D02*
X97059420Y-49910000D01*
X97340580Y-48890000D02*
X97059420Y-48890000D01*
%TO.C,kibuzzard-679F5580*%
G36*
X70184356Y-72915331D02*
G01*
X70213527Y-72973672D01*
X70223250Y-73059794D01*
X70223250Y-73102656D01*
X69927975Y-73102656D01*
X69924006Y-73070906D01*
X69923212Y-73043919D01*
X69932341Y-72973672D01*
X69959725Y-72918506D01*
X70006556Y-72882788D01*
X70074025Y-72870881D01*
X70184356Y-72915331D01*
G37*
G36*
X71098492Y-72221594D02*
G01*
X71098492Y-72607356D01*
X71098492Y-73297919D01*
X71098492Y-73628648D01*
X69411508Y-73628648D01*
X69411508Y-73297919D01*
X69411508Y-73043919D01*
X69753350Y-73043919D01*
X69754937Y-73099481D01*
X69758906Y-73166156D01*
X69766844Y-73235213D01*
X69778750Y-73297919D01*
X70747125Y-73297919D01*
X70747125Y-73102656D01*
X70385175Y-73102656D01*
X70385175Y-73001056D01*
X70475067Y-72947280D01*
X70563769Y-72897075D01*
X70653661Y-72851633D01*
X70747125Y-72812144D01*
X70747125Y-72607356D01*
X70643144Y-72652600D01*
X70533606Y-72707369D01*
X70428831Y-72766106D01*
X70337550Y-72823256D01*
X70292703Y-72753803D01*
X70231187Y-72707369D01*
X70157369Y-72681175D01*
X70075612Y-72672444D01*
X69998420Y-72678992D01*
X69931944Y-72698638D01*
X69831137Y-72774044D01*
X69796609Y-72828019D01*
X69772400Y-72891519D01*
X69758112Y-72963750D01*
X69753350Y-73043919D01*
X69411508Y-73043919D01*
X69411508Y-72175556D01*
X69742237Y-72175556D01*
X69750881Y-72272835D01*
X69776810Y-72355120D01*
X69820025Y-72422412D01*
X69912894Y-72489683D01*
X70035925Y-72512106D01*
X70152606Y-72486706D01*
X70231187Y-72422412D01*
X70283575Y-72335894D01*
X70320087Y-72243819D01*
X70347869Y-72177144D01*
X70381206Y-72116819D01*
X70423275Y-72072369D01*
X70477250Y-72054906D01*
X70524081Y-72062050D01*
X70565356Y-72088244D01*
X70593931Y-72139837D01*
X70604250Y-72221594D01*
X70598694Y-72300770D01*
X70582025Y-72366850D01*
X70534400Y-72469244D01*
X70693150Y-72526394D01*
X70741569Y-72416856D01*
X70761214Y-72331528D01*
X70767762Y-72221594D01*
X70759384Y-72110204D01*
X70734249Y-72019452D01*
X70692356Y-71949337D01*
X70601273Y-71882067D01*
X70478837Y-71859644D01*
X70404820Y-71866391D01*
X70344694Y-71886631D01*
X70255794Y-71955687D01*
X70198644Y-72047763D01*
X70159750Y-72143806D01*
X70135937Y-72204925D01*
X70106569Y-72260487D01*
X70068469Y-72300969D01*
X70018462Y-72316844D01*
X69955844Y-72299558D01*
X69918274Y-72247699D01*
X69905750Y-72161269D01*
X69921625Y-72049350D01*
X69959725Y-71961244D01*
X69808912Y-71904094D01*
X69762875Y-72017600D01*
X69747397Y-72090823D01*
X69742237Y-72175556D01*
X69411508Y-72175556D01*
X69411508Y-71756456D01*
X69764462Y-71756456D01*
X69926387Y-71756456D01*
X69926387Y-71497694D01*
X70747125Y-71497694D01*
X70747125Y-71300844D01*
X69926387Y-71300844D01*
X69926387Y-71042081D01*
X69764462Y-71042081D01*
X69764462Y-71756456D01*
X69411508Y-71756456D01*
X69411508Y-71042081D01*
X69411508Y-70711352D01*
X71098492Y-70711352D01*
X71098492Y-71042081D01*
X71098492Y-71300844D01*
X71098492Y-72221594D01*
G37*
%TO.C,C13*%
X76065000Y-66879420D02*
X76065000Y-67160580D01*
X75045000Y-66879420D02*
X75045000Y-67160580D01*
%TO.C,R7*%
X73132500Y-68437258D02*
X73132500Y-67962742D01*
X74177500Y-68437258D02*
X74177500Y-67962742D01*
%TO.C,R5*%
X74942258Y-71242500D02*
X74467742Y-71242500D01*
X74942258Y-70197500D02*
X74467742Y-70197500D01*
%TO.C,kibuzzard-67C3D8F9*%
G36*
X93528110Y-42932472D02*
G01*
X93557795Y-42991842D01*
X93567690Y-43079483D01*
X93567690Y-43123102D01*
X93267205Y-43123102D01*
X93263166Y-43090792D01*
X93262359Y-43063328D01*
X93271648Y-42991842D01*
X93299515Y-42935703D01*
X93347173Y-42899354D01*
X93415832Y-42887237D01*
X93528110Y-42932472D01*
G37*
G36*
X94391061Y-43842003D02*
G01*
X94391061Y-44546365D01*
X94391061Y-44980937D01*
X94391061Y-45384814D01*
X92808939Y-45384814D01*
X92808939Y-44980937D01*
X92808939Y-44526979D01*
X93078191Y-44526979D01*
X93086874Y-44621688D01*
X93112924Y-44708724D01*
X93155735Y-44786268D01*
X93214701Y-44852504D01*
X93289216Y-44906422D01*
X93378675Y-44947011D01*
X93482472Y-44972456D01*
X93600000Y-44980937D01*
X93718033Y-44973970D01*
X93821729Y-44953069D01*
X93911086Y-44918235D01*
X93986107Y-44869467D01*
X94061497Y-44784024D01*
X94106731Y-44676324D01*
X94121809Y-44546365D01*
X94116357Y-44458118D01*
X94100000Y-44380775D01*
X94052342Y-44266882D01*
X93895638Y-44316963D01*
X93931179Y-44398546D01*
X93948950Y-44526979D01*
X93926131Y-44642286D01*
X93857674Y-44720032D01*
X93787938Y-44752791D01*
X93700431Y-44772447D01*
X93595153Y-44778998D01*
X93504685Y-44773546D01*
X93430372Y-44757189D01*
X93324556Y-44700646D01*
X93268013Y-44621486D01*
X93251050Y-44530210D01*
X93268013Y-44409855D01*
X93309208Y-44320194D01*
X93150889Y-44268498D01*
X93131502Y-44301616D01*
X93107270Y-44355735D01*
X93087076Y-44430856D01*
X93078191Y-44526979D01*
X92808939Y-44526979D01*
X92808939Y-43795153D01*
X93078191Y-43795153D01*
X93086986Y-43894148D01*
X93113373Y-43977885D01*
X93157351Y-44046365D01*
X93251858Y-44114822D01*
X93377060Y-44137641D01*
X93495800Y-44111793D01*
X93575767Y-44046365D01*
X93629079Y-43958320D01*
X93666236Y-43864620D01*
X93694507Y-43796769D01*
X93728433Y-43735380D01*
X93771244Y-43690145D01*
X93826171Y-43672375D01*
X93873829Y-43679645D01*
X93915832Y-43706300D01*
X93944911Y-43758805D01*
X93955412Y-43842003D01*
X93949758Y-43922577D01*
X93932795Y-43989822D01*
X93884330Y-44094023D01*
X94045880Y-44152181D01*
X94095153Y-44040711D01*
X94115145Y-43953877D01*
X94121809Y-43842003D01*
X94113283Y-43728648D01*
X94087704Y-43636295D01*
X94045073Y-43564943D01*
X93952383Y-43496486D01*
X93827787Y-43473667D01*
X93752464Y-43480533D01*
X93691276Y-43501131D01*
X93600808Y-43571405D01*
X93542649Y-43665105D01*
X93503069Y-43762843D01*
X93478837Y-43825040D01*
X93448950Y-43881583D01*
X93410178Y-43922779D01*
X93359289Y-43938934D01*
X93295566Y-43921343D01*
X93257333Y-43868569D01*
X93244588Y-43780614D01*
X93260743Y-43666721D01*
X93299515Y-43577060D01*
X93146042Y-43518901D01*
X93099192Y-43634410D01*
X93083441Y-43708926D01*
X93078191Y-43795153D01*
X92808939Y-43795153D01*
X92808939Y-43063328D01*
X93089499Y-43063328D01*
X93091115Y-43119871D01*
X93095153Y-43187722D01*
X93103231Y-43257997D01*
X93115347Y-43321809D01*
X94100808Y-43321809D01*
X94100808Y-43123102D01*
X93732472Y-43123102D01*
X93732472Y-43019709D01*
X93823950Y-42964984D01*
X93914216Y-42913893D01*
X94005695Y-42867649D01*
X94100808Y-42827464D01*
X94100808Y-42619063D01*
X93994992Y-42665105D01*
X93883522Y-42720840D01*
X93776898Y-42780614D01*
X93684006Y-42838772D01*
X93638368Y-42768094D01*
X93575767Y-42720840D01*
X93500646Y-42694184D01*
X93417447Y-42685299D01*
X93338893Y-42691963D01*
X93271244Y-42711955D01*
X93168659Y-42788691D01*
X93133522Y-42843619D01*
X93108885Y-42908239D01*
X93094346Y-42981745D01*
X93089499Y-43063328D01*
X92808939Y-43063328D01*
X92808939Y-42619063D01*
X92808939Y-42215186D01*
X94391061Y-42215186D01*
X94391061Y-42619063D01*
X94391061Y-43842003D01*
G37*
%TO.C,U3*%
X78845000Y-59410000D02*
X78845000Y-59860000D01*
X78845000Y-66630000D02*
X78845000Y-66180000D01*
X79295000Y-59410000D02*
X78845000Y-59410000D01*
X79295000Y-66630000D02*
X78845000Y-66630000D01*
X85615000Y-59410000D02*
X86065000Y-59410000D01*
X85615000Y-66630000D02*
X86065000Y-66630000D01*
X86065000Y-59410000D02*
X86065000Y-59860000D01*
X86065000Y-66630000D02*
X86065000Y-66180000D01*
X78255000Y-59860000D02*
X77915000Y-59390000D01*
X78595000Y-59390000D01*
X78255000Y-59860000D01*
G36*
X78255000Y-59860000D02*
G01*
X77915000Y-59390000D01*
X78595000Y-59390000D01*
X78255000Y-59860000D01*
G37*
%TO.C,D1*%
X68970000Y-49790000D02*
X68970000Y-51710000D01*
X68970000Y-51710000D02*
X71655000Y-51710000D01*
X71655000Y-49790000D02*
X68970000Y-49790000D01*
%TO.C,C29*%
X85240000Y-71590580D02*
X85240000Y-71309420D01*
X86260000Y-71590580D02*
X86260000Y-71309420D01*
%TO.C,R3*%
X77527500Y-71882742D02*
X77527500Y-72357258D01*
X76482500Y-71882742D02*
X76482500Y-72357258D01*
%TO.C,kibuzzard-679F55F7*%
G36*
X91148319Y-78615900D02*
G01*
X91194356Y-78621456D01*
X91194356Y-78792906D01*
X91141969Y-78796875D01*
X91080056Y-78797669D01*
X90981631Y-78776238D01*
X90943531Y-78704006D01*
X90956231Y-78657969D01*
X90990362Y-78630981D01*
X91040369Y-78617488D01*
X91099106Y-78613519D01*
X91148319Y-78615900D01*
G37*
G36*
X94142873Y-79285560D02*
G01*
X93812144Y-79285560D01*
X93574019Y-79285560D01*
X92791381Y-79285560D01*
X91872219Y-79285560D01*
X91065769Y-79285560D01*
X89987856Y-79285560D01*
X89657127Y-79285560D01*
X89657127Y-77954706D01*
X89987856Y-77954706D01*
X89987856Y-78937369D01*
X90183119Y-78937369D01*
X90183119Y-78708769D01*
X90751444Y-78708769D01*
X90773669Y-78823863D01*
X90837169Y-78900063D01*
X90936387Y-78942131D01*
X91065769Y-78954831D01*
X91165384Y-78951656D01*
X91254681Y-78942131D01*
X91381681Y-78919906D01*
X91381681Y-78475406D01*
X91365806Y-78349200D01*
X91313419Y-78253950D01*
X91215787Y-78193625D01*
X91205587Y-78191244D01*
X91569006Y-78191244D01*
X91569006Y-78607169D01*
X91572181Y-78680194D01*
X91581706Y-78746869D01*
X91628537Y-78857200D01*
X91721406Y-78929431D01*
X91788478Y-78948481D01*
X91872219Y-78954831D01*
X91959333Y-78951259D01*
X92039700Y-78940544D01*
X92110939Y-78926256D01*
X92170669Y-78911969D01*
X92170669Y-78191244D01*
X91973819Y-78191244D01*
X91973819Y-78777031D01*
X91884919Y-78784969D01*
X91788875Y-78734963D01*
X91770420Y-78671661D01*
X91764269Y-78581769D01*
X91764269Y-78191244D01*
X91569006Y-78191244D01*
X91205587Y-78191244D01*
X91146930Y-78177552D01*
X91062594Y-78172194D01*
X90992347Y-78174773D01*
X90924481Y-78182512D01*
X90821294Y-78205531D01*
X90848281Y-78362694D01*
X90931625Y-78343644D01*
X91038781Y-78335706D01*
X91111806Y-78345033D01*
X91159431Y-78373013D01*
X91194356Y-78465881D01*
X91194356Y-78489694D01*
X91131253Y-78480169D01*
X91059419Y-78476994D01*
X90943531Y-78488900D01*
X90845106Y-78527794D01*
X90776844Y-78599231D01*
X90751444Y-78708769D01*
X90183119Y-78708769D01*
X90183119Y-78516681D01*
X90538719Y-78516681D01*
X90538719Y-78354756D01*
X90183119Y-78354756D01*
X90183119Y-78116631D01*
X90589519Y-78116631D01*
X90589519Y-77954706D01*
X89987856Y-77954706D01*
X89657127Y-77954706D01*
X89657127Y-77845169D01*
X92326244Y-77845169D01*
X92326244Y-78007094D01*
X92532619Y-78007094D01*
X92532619Y-78640506D01*
X92548097Y-78776039D01*
X92594531Y-78874663D01*
X92674700Y-78934789D01*
X92791381Y-78954831D01*
X92879488Y-78948481D01*
X92945369Y-78933400D01*
X92989025Y-78916731D01*
X93010456Y-78905619D01*
X92985056Y-78748456D01*
X92932669Y-78769094D01*
X92834244Y-78784969D01*
X92758044Y-78757981D01*
X92727881Y-78654794D01*
X92727881Y-78353169D01*
X93119994Y-78353169D01*
X93289856Y-78353169D01*
X93289856Y-78659556D01*
X93294619Y-78744289D01*
X93308906Y-78811163D01*
X93364469Y-78900856D01*
X93453369Y-78943719D01*
X93574019Y-78954831D01*
X93695463Y-78945306D01*
X93812144Y-78913556D01*
X93785156Y-78745281D01*
X93735150Y-78765919D01*
X93690700Y-78777825D01*
X93646250Y-78783381D01*
X93596244Y-78784969D01*
X93550206Y-78780206D01*
X93515281Y-78761156D01*
X93493056Y-78721469D01*
X93485119Y-78654794D01*
X93485119Y-78353169D01*
X93797856Y-78353169D01*
X93797856Y-78191244D01*
X93485119Y-78191244D01*
X93485119Y-77972169D01*
X93289856Y-78003919D01*
X93289856Y-78191244D01*
X93119994Y-78191244D01*
X93119994Y-78353169D01*
X92727881Y-78353169D01*
X92727881Y-77845169D01*
X92326244Y-77845169D01*
X89657127Y-77845169D01*
X89657127Y-77514440D01*
X89987856Y-77514440D01*
X93812144Y-77514440D01*
X94142873Y-77514440D01*
X94142873Y-79285560D01*
G37*
%TO.C,J3*%
X95350000Y-86250000D02*
X95350000Y-85000000D01*
X95060000Y-85960000D02*
X95060000Y-79990000D01*
X95060000Y-79990000D02*
X87440000Y-79990000D01*
X95050000Y-85950000D02*
X95050000Y-85200000D01*
X95050000Y-85200000D02*
X93250000Y-85200000D01*
X95050000Y-83700000D02*
X94300000Y-83700000D01*
X94300000Y-83700000D02*
X94300000Y-80750000D01*
X94300000Y-80750000D02*
X91250000Y-80750000D01*
X94100000Y-86250000D02*
X95350000Y-86250000D01*
X93250000Y-85950000D02*
X95050000Y-85950000D01*
X93250000Y-85200000D02*
X93250000Y-85950000D01*
X91750000Y-85950000D02*
X91750000Y-85200000D01*
X91750000Y-85200000D02*
X90750000Y-85200000D01*
X90750000Y-85950000D02*
X91750000Y-85950000D01*
X90750000Y-85200000D02*
X90750000Y-85950000D01*
X89250000Y-85950000D02*
X89250000Y-85200000D01*
X89250000Y-85200000D02*
X87450000Y-85200000D01*
X88200000Y-83700000D02*
X88200000Y-80750000D01*
X88200000Y-80750000D02*
X91250000Y-80750000D01*
X87450000Y-85950000D02*
X89250000Y-85950000D01*
X87450000Y-85200000D02*
X87450000Y-85950000D01*
X87450000Y-83700000D02*
X88200000Y-83700000D01*
X87440000Y-85960000D02*
X95060000Y-85960000D01*
X87440000Y-79990000D02*
X87440000Y-85960000D01*
%TO.C,U1*%
X79595000Y-75650000D02*
X79595000Y-76450000D01*
X79595000Y-75650000D02*
X79595000Y-74850000D01*
X82715000Y-75650000D02*
X82715000Y-76450000D01*
X82715000Y-75650000D02*
X82715000Y-74850000D01*
X79645000Y-76950000D02*
X79315000Y-77190000D01*
X79315000Y-76710000D01*
X79645000Y-76950000D01*
G36*
X79645000Y-76950000D02*
G01*
X79315000Y-77190000D01*
X79315000Y-76710000D01*
X79645000Y-76950000D01*
G37*
%TO.C,R6*%
X77217742Y-53877500D02*
X77692258Y-53877500D01*
X77217742Y-54922500D02*
X77692258Y-54922500D01*
%TO.C,J5*%
X78305000Y-41925000D02*
X78305000Y-43175000D01*
X78595000Y-42215000D02*
X78595000Y-48185000D01*
X78595000Y-48185000D02*
X88715000Y-48185000D01*
X78605000Y-42225000D02*
X78605000Y-42975000D01*
X78605000Y-42975000D02*
X80405000Y-42975000D01*
X78605000Y-44475000D02*
X79355000Y-44475000D01*
X79355000Y-44475000D02*
X79355000Y-47425000D01*
X79355000Y-47425000D02*
X83655000Y-47425000D01*
X79555000Y-41925000D02*
X78305000Y-41925000D01*
X80405000Y-42225000D02*
X78605000Y-42225000D01*
X80405000Y-42975000D02*
X80405000Y-42225000D01*
X81905000Y-42225000D02*
X81905000Y-42975000D01*
X81905000Y-42975000D02*
X85405000Y-42975000D01*
X85405000Y-42225000D02*
X81905000Y-42225000D01*
X85405000Y-42975000D02*
X85405000Y-42225000D01*
X86905000Y-42225000D02*
X86905000Y-42975000D01*
X86905000Y-42975000D02*
X88705000Y-42975000D01*
X87955000Y-44475000D02*
X87955000Y-47425000D01*
X87955000Y-47425000D02*
X83655000Y-47425000D01*
X88705000Y-42225000D02*
X86905000Y-42225000D01*
X88705000Y-42975000D02*
X88705000Y-42225000D01*
X88705000Y-44475000D02*
X87955000Y-44475000D01*
X88715000Y-42215000D02*
X78595000Y-42215000D01*
X88715000Y-48185000D02*
X88715000Y-42215000D01*
%TO.C,C21*%
X86845000Y-54610580D02*
X86845000Y-54329420D01*
X87865000Y-54610580D02*
X87865000Y-54329420D01*
%TO.C,C1*%
X81259420Y-78190000D02*
X81540580Y-78190000D01*
X81259420Y-79210000D02*
X81540580Y-79210000D01*
%TO.C,TR1*%
X108075000Y-66950000D02*
X117325000Y-66950000D01*
X117325000Y-75450000D02*
X108075000Y-75450000D01*
X107100000Y-67850000D02*
X106860000Y-67520000D01*
X107340000Y-67520000D01*
X107100000Y-67850000D01*
G36*
X107100000Y-67850000D02*
G01*
X106860000Y-67520000D01*
X107340000Y-67520000D01*
X107100000Y-67850000D01*
G37*
%TO.C,C27*%
X113610000Y-55059420D02*
X113610000Y-55340580D01*
X112590000Y-55059420D02*
X112590000Y-55340580D01*
%TO.C,J4*%
X129130000Y-66230000D02*
X130130000Y-67230000D01*
X120010000Y-66230000D02*
X129130000Y-66230000D01*
X120010000Y-66230000D02*
X120010000Y-68655000D01*
X130130000Y-67230000D02*
X130130000Y-75100000D01*
X120010000Y-70675000D02*
X120010000Y-72013233D01*
X130130000Y-75100000D02*
X129130000Y-76100000D01*
X129130000Y-76100000D02*
X120010000Y-76100000D01*
X120010000Y-76100000D02*
X120010000Y-73316767D01*
%TO.C,R2*%
X83182500Y-75587258D02*
X83182500Y-75112742D01*
X84227500Y-75587258D02*
X84227500Y-75112742D01*
%TO.C,C19*%
X93145000Y-67090580D02*
X93145000Y-66809420D01*
X94165000Y-67090580D02*
X94165000Y-66809420D01*
%TO.C,R12*%
X104062742Y-73227500D02*
X104537258Y-73227500D01*
X104062742Y-74272500D02*
X104537258Y-74272500D01*
%TO.C,kibuzzard-679F55DD*%
G36*
X77603187Y-44481013D02*
G01*
X77501587Y-44461169D01*
X77403956Y-44438944D01*
X77305531Y-44413544D01*
X77199962Y-44384175D01*
X77305531Y-44354806D01*
X77403956Y-44329406D01*
X77501587Y-44307975D01*
X77603187Y-44288925D01*
X77603187Y-44481013D01*
G37*
G36*
X78343492Y-43422150D02*
G01*
X78343492Y-44209550D01*
X78343492Y-45103313D01*
X78343492Y-45530350D01*
X78343492Y-45861079D01*
X76656508Y-45861079D01*
X76656508Y-45530350D01*
X76656508Y-45084263D01*
X76987237Y-45084263D01*
X76995770Y-45177330D01*
X77021369Y-45262856D01*
X77063437Y-45339056D01*
X77121381Y-45404144D01*
X77194605Y-45457127D01*
X77282512Y-45497013D01*
X77384509Y-45522016D01*
X77500000Y-45530350D01*
X77615987Y-45523504D01*
X77717884Y-45502966D01*
X77805693Y-45468735D01*
X77879412Y-45420813D01*
X77953496Y-45336851D01*
X77997946Y-45231018D01*
X78012762Y-45103313D01*
X78007405Y-45016595D01*
X77991331Y-44940594D01*
X77944500Y-44828675D01*
X77790512Y-44877888D01*
X77825437Y-44958056D01*
X77842900Y-45084263D01*
X77820477Y-45197570D01*
X77753206Y-45273969D01*
X77684679Y-45306160D01*
X77598690Y-45325474D01*
X77495237Y-45331913D01*
X77406337Y-45326555D01*
X77333312Y-45310481D01*
X77229331Y-45254919D01*
X77173769Y-45177131D01*
X77157100Y-45087438D01*
X77173769Y-44969169D01*
X77214250Y-44881063D01*
X77058675Y-44830263D01*
X77039625Y-44862806D01*
X77015812Y-44915988D01*
X76995969Y-44989806D01*
X76987237Y-45084263D01*
X76656508Y-45084263D01*
X76656508Y-44485775D01*
X77009462Y-44485775D01*
X77118157Y-44519410D01*
X77229927Y-44553641D01*
X77344772Y-44588466D01*
X77462694Y-44623888D01*
X77560325Y-44652399D01*
X77662084Y-44680784D01*
X77767970Y-44709041D01*
X77877984Y-44737172D01*
X77992125Y-44765175D01*
X77992125Y-44561975D01*
X77765113Y-44517525D01*
X77765113Y-44255588D01*
X77992125Y-44209550D01*
X77992125Y-44000000D01*
X77880714Y-44026194D01*
X77772542Y-44052705D01*
X77667608Y-44079534D01*
X77565913Y-44106680D01*
X77467456Y-44134144D01*
X77348046Y-44168721D01*
X77231911Y-44203398D01*
X77119050Y-44238175D01*
X77009462Y-44273050D01*
X77009462Y-44485775D01*
X76656508Y-44485775D01*
X76656508Y-43912688D01*
X77009462Y-43912688D01*
X77992125Y-43912688D01*
X77992125Y-43736475D01*
X77339662Y-43736475D01*
X77448583Y-43677473D01*
X77557326Y-43621117D01*
X77665894Y-43567406D01*
X77774461Y-43516342D01*
X77883205Y-43467923D01*
X77992125Y-43422150D01*
X77992125Y-43264988D01*
X77009462Y-43264988D01*
X77009462Y-43441200D01*
X77614300Y-43441200D01*
X77552387Y-43469180D01*
X77480950Y-43502319D01*
X77403559Y-43539625D01*
X77323787Y-43580106D01*
X77242627Y-43622770D01*
X77161069Y-43666625D01*
X77082289Y-43711075D01*
X77009462Y-43755525D01*
X77009462Y-43912688D01*
X76656508Y-43912688D01*
X76656508Y-43120525D01*
X77009462Y-43120525D01*
X77992125Y-43120525D01*
X77992125Y-42925263D01*
X77558737Y-42925263D01*
X77558737Y-42664912D01*
X77992125Y-42664912D01*
X77992125Y-42469650D01*
X77009462Y-42469650D01*
X77009462Y-42664912D01*
X77396812Y-42664912D01*
X77396812Y-42925263D01*
X77009462Y-42925263D01*
X77009462Y-43120525D01*
X76656508Y-43120525D01*
X76656508Y-42469650D01*
X76656508Y-42138921D01*
X78343492Y-42138921D01*
X78343492Y-42469650D01*
X78343492Y-43422150D01*
G37*
%TO.C,C22*%
X88045580Y-50460000D02*
X87764420Y-50460000D01*
X88045580Y-49440000D02*
X87764420Y-49440000D01*
%TO.C,kibuzzard-67C3D9C1*%
G36*
X109128110Y-45232795D02*
G01*
X109157795Y-45292165D01*
X109167690Y-45379806D01*
X109167690Y-45423425D01*
X108867205Y-45423425D01*
X108863166Y-45391115D01*
X108862359Y-45363651D01*
X108871648Y-45292165D01*
X108899515Y-45236026D01*
X108947173Y-45199677D01*
X109015832Y-45187561D01*
X109128110Y-45232795D01*
G37*
G36*
X109270275Y-44340832D02*
G01*
X109335703Y-44345073D01*
X109446365Y-44367690D01*
X109521486Y-44416155D01*
X109548950Y-44497738D01*
X109521486Y-44580129D01*
X109447173Y-44627787D01*
X109336511Y-44650404D01*
X109270477Y-44654645D01*
X109200000Y-44656058D01*
X109129725Y-44654645D01*
X109064297Y-44650404D01*
X108953635Y-44627787D01*
X108878514Y-44580129D01*
X108851050Y-44497738D01*
X108878514Y-44415347D01*
X108952827Y-44367690D01*
X109063489Y-44345073D01*
X109129523Y-44340832D01*
X109200000Y-44339418D01*
X109270275Y-44340832D01*
G37*
G36*
X109991061Y-43693215D02*
G01*
X109991061Y-44496123D01*
X109991061Y-44919386D01*
X109991061Y-46142326D01*
X109991061Y-46846688D01*
X109991061Y-47281260D01*
X109991061Y-47685137D01*
X108408939Y-47685137D01*
X108408939Y-47281260D01*
X108408939Y-46827302D01*
X108678191Y-46827302D01*
X108686874Y-46922011D01*
X108712924Y-47009047D01*
X108755735Y-47086591D01*
X108814701Y-47152827D01*
X108889216Y-47206745D01*
X108978675Y-47247334D01*
X109082472Y-47272779D01*
X109200000Y-47281260D01*
X109318033Y-47274293D01*
X109421729Y-47253393D01*
X109511086Y-47218558D01*
X109586107Y-47169790D01*
X109661497Y-47084348D01*
X109706731Y-46976647D01*
X109721809Y-46846688D01*
X109716357Y-46758441D01*
X109700000Y-46681099D01*
X109652342Y-46567205D01*
X109495638Y-46617286D01*
X109531179Y-46698869D01*
X109548950Y-46827302D01*
X109526131Y-46942609D01*
X109457674Y-47020355D01*
X109387938Y-47053114D01*
X109300431Y-47072770D01*
X109195153Y-47079321D01*
X109104685Y-47073869D01*
X109030372Y-47057512D01*
X108924556Y-47000969D01*
X108868013Y-46921809D01*
X108851050Y-46830533D01*
X108868013Y-46710178D01*
X108909208Y-46620517D01*
X108750889Y-46568821D01*
X108731502Y-46601939D01*
X108707270Y-46656058D01*
X108687076Y-46731179D01*
X108678191Y-46827302D01*
X108408939Y-46827302D01*
X108408939Y-46095477D01*
X108678191Y-46095477D01*
X108686986Y-46194471D01*
X108713373Y-46278209D01*
X108757351Y-46346688D01*
X108851858Y-46415145D01*
X108977060Y-46437964D01*
X109095800Y-46412116D01*
X109175767Y-46346688D01*
X109229079Y-46258643D01*
X109266236Y-46164943D01*
X109294507Y-46097092D01*
X109328433Y-46035703D01*
X109371244Y-45990468D01*
X109426171Y-45972698D01*
X109473829Y-45979968D01*
X109515832Y-46006624D01*
X109544911Y-46059128D01*
X109555412Y-46142326D01*
X109549758Y-46222900D01*
X109532795Y-46290145D01*
X109484330Y-46394346D01*
X109645880Y-46452504D01*
X109695153Y-46341034D01*
X109715145Y-46254200D01*
X109721809Y-46142326D01*
X109713283Y-46028971D01*
X109687704Y-45936618D01*
X109645073Y-45865267D01*
X109552383Y-45796809D01*
X109427787Y-45773990D01*
X109352464Y-45780856D01*
X109291276Y-45801454D01*
X109200808Y-45871729D01*
X109142649Y-45965428D01*
X109103069Y-46063166D01*
X109078837Y-46125363D01*
X109048950Y-46181906D01*
X109010178Y-46223102D01*
X108959289Y-46239257D01*
X108895566Y-46221666D01*
X108857333Y-46168892D01*
X108844588Y-46080937D01*
X108860743Y-45967044D01*
X108899515Y-45877383D01*
X108746042Y-45819225D01*
X108699192Y-45934733D01*
X108683441Y-46009249D01*
X108678191Y-46095477D01*
X108408939Y-46095477D01*
X108408939Y-45363651D01*
X108689499Y-45363651D01*
X108691115Y-45420194D01*
X108695153Y-45488045D01*
X108703231Y-45558320D01*
X108715347Y-45622132D01*
X109700808Y-45622132D01*
X109700808Y-45423425D01*
X109332472Y-45423425D01*
X109332472Y-45320032D01*
X109423950Y-45265307D01*
X109514216Y-45214216D01*
X109605695Y-45167973D01*
X109700808Y-45127787D01*
X109700808Y-44919386D01*
X109594992Y-44965428D01*
X109483522Y-45021163D01*
X109376898Y-45080937D01*
X109284006Y-45139095D01*
X109238368Y-45068417D01*
X109175767Y-45021163D01*
X109100646Y-44994507D01*
X109017447Y-44985622D01*
X108938893Y-44992286D01*
X108871244Y-45012278D01*
X108768659Y-45089015D01*
X108733522Y-45143942D01*
X108708885Y-45208562D01*
X108694346Y-45282068D01*
X108689499Y-45363651D01*
X108408939Y-45363651D01*
X108408939Y-44497738D01*
X108678191Y-44497738D01*
X108692820Y-44602567D01*
X108736708Y-44690881D01*
X108809855Y-44762682D01*
X108883613Y-44804382D01*
X108973223Y-44834168D01*
X109078685Y-44852040D01*
X109200000Y-44857997D01*
X109321315Y-44852191D01*
X109426777Y-44834774D01*
X109516387Y-44805745D01*
X109590145Y-44765105D01*
X109663292Y-44693933D01*
X109707180Y-44604272D01*
X109721809Y-44496123D01*
X109707180Y-44390576D01*
X109663292Y-44302262D01*
X109590145Y-44231179D01*
X109516387Y-44190186D01*
X109426777Y-44160905D01*
X109321315Y-44143336D01*
X109200000Y-44137480D01*
X109078685Y-44143235D01*
X108973223Y-44160501D01*
X108883613Y-44189277D01*
X108809855Y-44229564D01*
X108736708Y-44300287D01*
X108692820Y-44389679D01*
X108678191Y-44497738D01*
X108408939Y-44497738D01*
X108408939Y-44030856D01*
X108700808Y-44030856D01*
X109338934Y-44030856D01*
X109422132Y-44026817D01*
X109497254Y-44014701D01*
X109563086Y-43992892D01*
X109618417Y-43959774D01*
X109695153Y-43855574D01*
X109715145Y-43782270D01*
X109721809Y-43693215D01*
X109715145Y-43602746D01*
X109695153Y-43528433D01*
X109662641Y-43468659D01*
X109618417Y-43421809D01*
X109563086Y-43387480D01*
X109497254Y-43365267D01*
X109422132Y-43353150D01*
X109338934Y-43349111D01*
X108700808Y-43349111D01*
X108700808Y-43547819D01*
X109324394Y-43547819D01*
X109430210Y-43554281D01*
X109499677Y-43576898D01*
X109537641Y-43620517D01*
X109548950Y-43689984D01*
X109537641Y-43759451D01*
X109500485Y-43802262D01*
X109431826Y-43824071D01*
X109326010Y-43830533D01*
X108700808Y-43830533D01*
X108700808Y-44030856D01*
X108408939Y-44030856D01*
X108408939Y-43245719D01*
X108700808Y-43245719D01*
X108865590Y-43245719D01*
X108865590Y-42982391D01*
X109700808Y-42982391D01*
X109700808Y-42782068D01*
X108865590Y-42782068D01*
X108865590Y-42518740D01*
X108700808Y-42518740D01*
X108700808Y-43245719D01*
X108408939Y-43245719D01*
X108408939Y-42518740D01*
X108408939Y-42114863D01*
X109991061Y-42114863D01*
X109991061Y-42518740D01*
X109991061Y-42782068D01*
X109991061Y-43693215D01*
G37*
%TO.C,kibuzzard-679F561D*%
G36*
X77472716Y-80482103D02*
G01*
X77527881Y-80509488D01*
X77563600Y-80556319D01*
X77575506Y-80623787D01*
X77531056Y-80734119D01*
X77472716Y-80763289D01*
X77386594Y-80773012D01*
X77343731Y-80773012D01*
X77343731Y-80477737D01*
X77375481Y-80473769D01*
X77402469Y-80472975D01*
X77472716Y-80482103D01*
G37*
G36*
X75923117Y-80481905D02*
G01*
X75977687Y-80508694D01*
X76012811Y-80556914D01*
X76024519Y-80630138D01*
X76012612Y-80707330D01*
X75976894Y-80757931D01*
X75917759Y-80785911D01*
X75835606Y-80795238D01*
X75756231Y-80795238D01*
X75756231Y-80477737D01*
X75804650Y-80473769D01*
X75853069Y-80472975D01*
X75923117Y-80481905D01*
G37*
G36*
X78169760Y-81627617D02*
G01*
X77839031Y-81627617D01*
X76970669Y-81627617D01*
X75756231Y-81627617D01*
X75560969Y-81627617D01*
X75230240Y-81627617D01*
X75230240Y-81296888D01*
X75560969Y-81296888D01*
X75756231Y-81296888D01*
X75756231Y-80965100D01*
X75826081Y-80965100D01*
X75943468Y-80956369D01*
X76041628Y-80930175D01*
X76120562Y-80886519D01*
X76178330Y-80823283D01*
X76212990Y-80738352D01*
X76224544Y-80631725D01*
X76213078Y-80526156D01*
X76178683Y-80442283D01*
X76121356Y-80380106D01*
X76043216Y-80337332D01*
X75956030Y-80314225D01*
X76305506Y-80314225D01*
X76309078Y-80435470D01*
X76313444Y-80561081D01*
X76318802Y-80688478D01*
X76325350Y-80815081D01*
X76333089Y-80940494D01*
X76342019Y-81064319D01*
X76352337Y-81183977D01*
X76364244Y-81296888D01*
X76526169Y-81296888D01*
X76559506Y-81192509D01*
X76596019Y-81079400D01*
X76633325Y-80966291D01*
X76669044Y-80861912D01*
X76703969Y-80969267D01*
X76738894Y-81081781D01*
X76773819Y-81193105D01*
X76808744Y-81296888D01*
X76970669Y-81296888D01*
X77148469Y-81296888D01*
X77343731Y-81296888D01*
X77343731Y-80934937D01*
X77445331Y-80934937D01*
X77499108Y-81024830D01*
X77549313Y-81113531D01*
X77594755Y-81203423D01*
X77634244Y-81296888D01*
X77839031Y-81296888D01*
X77793788Y-81192906D01*
X77739019Y-81083369D01*
X77680281Y-80978594D01*
X77623131Y-80887313D01*
X77692584Y-80842466D01*
X77739019Y-80780950D01*
X77765213Y-80707131D01*
X77773944Y-80625375D01*
X77767395Y-80548183D01*
X77747750Y-80481706D01*
X77672344Y-80380900D01*
X77618369Y-80346372D01*
X77554869Y-80322162D01*
X77482637Y-80307875D01*
X77402469Y-80303112D01*
X77346906Y-80304700D01*
X77280231Y-80308669D01*
X77211175Y-80316606D01*
X77148469Y-80328512D01*
X77148469Y-81296888D01*
X76970669Y-81296888D01*
X76981186Y-81184175D01*
X76990512Y-81065113D01*
X76998648Y-80941883D01*
X77005594Y-80816669D01*
X77011547Y-80690066D01*
X77016706Y-80562669D01*
X77021469Y-80436661D01*
X77026231Y-80314225D01*
X76845256Y-80314225D01*
X76845653Y-80409673D01*
X76846844Y-80508694D01*
X76848431Y-80608905D01*
X76850019Y-80707925D01*
X76851606Y-80805358D01*
X76853194Y-80900806D01*
X76854384Y-80992286D01*
X76854781Y-81077812D01*
X76819063Y-80950813D01*
X76785725Y-80834925D01*
X76757944Y-80736500D01*
X76738894Y-80661888D01*
X76596019Y-80661888D01*
X76573794Y-80739675D01*
X76542837Y-80847625D01*
X76507912Y-80966687D01*
X76475369Y-81077812D01*
X76475766Y-80992286D01*
X76476956Y-80900806D01*
X76478544Y-80805159D01*
X76480131Y-80707131D01*
X76481719Y-80607714D01*
X76483306Y-80507900D01*
X76484894Y-80409475D01*
X76486481Y-80314225D01*
X76305506Y-80314225D01*
X75956030Y-80314225D01*
X75946378Y-80311667D01*
X75830844Y-80303112D01*
X75768931Y-80304700D01*
X75697494Y-80308669D01*
X75625262Y-80315812D01*
X75560969Y-80326925D01*
X75560969Y-81296888D01*
X75230240Y-81296888D01*
X75230240Y-79972383D01*
X75560969Y-79972383D01*
X77839031Y-79972383D01*
X78169760Y-79972383D01*
X78169760Y-81627617D01*
G37*
%TO.C,C15*%
X87364420Y-67040000D02*
X87645580Y-67040000D01*
X87364420Y-68060000D02*
X87645580Y-68060000D01*
%TO.C,R4*%
X79127500Y-75212742D02*
X79127500Y-75687258D01*
X78082500Y-75212742D02*
X78082500Y-75687258D01*
%TO.C,C12*%
X85095580Y-69610000D02*
X84814420Y-69610000D01*
X85095580Y-68590000D02*
X84814420Y-68590000D01*
%TO.C,C10*%
X77695000Y-57640580D02*
X77695000Y-57359420D01*
X78715000Y-57640580D02*
X78715000Y-57359420D01*
%TO.C,C18*%
X104440580Y-71710000D02*
X104159420Y-71710000D01*
X104440580Y-70690000D02*
X104159420Y-70690000D01*
%TO.C,R16*%
X87717742Y-51597500D02*
X88192258Y-51597500D01*
X87717742Y-52642500D02*
X88192258Y-52642500D01*
%TO.C,U7*%
X119460000Y-51400000D02*
X119460000Y-50600000D01*
X119460000Y-51400000D02*
X119460000Y-52200000D01*
X116340000Y-51400000D02*
X116340000Y-50600000D01*
X116340000Y-51400000D02*
X116340000Y-52200000D01*
X119740000Y-50340000D02*
X119410000Y-50100000D01*
X119740000Y-49860000D01*
X119740000Y-50340000D01*
G36*
X119740000Y-50340000D02*
G01*
X119410000Y-50100000D01*
X119740000Y-49860000D01*
X119740000Y-50340000D01*
G37*
%TO.C,C9*%
X88965000Y-59459420D02*
X88965000Y-59740580D01*
X87945000Y-59459420D02*
X87945000Y-59740580D01*
%TO.C,R17*%
X97437258Y-51522500D02*
X96962742Y-51522500D01*
X97437258Y-50477500D02*
X96962742Y-50477500D01*
%TO.C,kibuzzard-679F52AD*%
G36*
X66728316Y-53873372D02*
G01*
X66783481Y-53900756D01*
X66819200Y-53947588D01*
X66831106Y-54015056D01*
X66786656Y-54125388D01*
X66728316Y-54154558D01*
X66642194Y-54164281D01*
X66599331Y-54164281D01*
X66599331Y-53869006D01*
X66631081Y-53865038D01*
X66658069Y-53864244D01*
X66728316Y-53873372D01*
G37*
G36*
X68936660Y-55036348D02*
G01*
X68605931Y-55036348D01*
X67508969Y-55036348D01*
X67094631Y-55036348D01*
X66404069Y-55036348D01*
X66073340Y-55036348D01*
X66073340Y-54688156D01*
X66404069Y-54688156D01*
X66599331Y-54688156D01*
X66599331Y-54326206D01*
X66700931Y-54326206D01*
X66754708Y-54416098D01*
X66804912Y-54504800D01*
X66850355Y-54594692D01*
X66889844Y-54688156D01*
X67094631Y-54688156D01*
X67049387Y-54584175D01*
X66994619Y-54474638D01*
X66935881Y-54369863D01*
X66878731Y-54278581D01*
X66948184Y-54233734D01*
X66994619Y-54172219D01*
X67020812Y-54098400D01*
X67029544Y-54016644D01*
X67023214Y-53942031D01*
X67205756Y-53942031D01*
X67205756Y-54357956D01*
X67208931Y-54430981D01*
X67218456Y-54497656D01*
X67265287Y-54607988D01*
X67358156Y-54680219D01*
X67425228Y-54699269D01*
X67508969Y-54705619D01*
X67596083Y-54702047D01*
X67676450Y-54691331D01*
X67692281Y-54688156D01*
X68005856Y-54688156D01*
X68201119Y-54688156D01*
X68201119Y-54102369D01*
X68246362Y-54097606D01*
X68290019Y-54096019D01*
X68386856Y-54142056D01*
X68404716Y-54202778D01*
X68410669Y-54292869D01*
X68410669Y-54688156D01*
X68605931Y-54688156D01*
X68605931Y-54267469D01*
X68602359Y-54194642D01*
X68591644Y-54128563D01*
X68543225Y-54020613D01*
X68450356Y-53950763D01*
X68384078Y-53932308D01*
X68302719Y-53926156D01*
X68215605Y-53929331D01*
X68135237Y-53938856D01*
X68064395Y-53951953D01*
X68005856Y-53965844D01*
X68005856Y-54688156D01*
X67692281Y-54688156D01*
X67747689Y-54677044D01*
X67807419Y-54662756D01*
X67807419Y-53942031D01*
X67610569Y-53942031D01*
X67610569Y-54527819D01*
X67521669Y-54535756D01*
X67425625Y-54485750D01*
X67407170Y-54422448D01*
X67401019Y-54332556D01*
X67401019Y-53942031D01*
X67205756Y-53942031D01*
X67023214Y-53942031D01*
X67022995Y-53939452D01*
X67003350Y-53872975D01*
X66927944Y-53772169D01*
X66873969Y-53737641D01*
X66810469Y-53713431D01*
X66738237Y-53699144D01*
X66658069Y-53694381D01*
X66602506Y-53695969D01*
X66535831Y-53699938D01*
X66466775Y-53707875D01*
X66404069Y-53719781D01*
X66404069Y-54688156D01*
X66073340Y-54688156D01*
X66073340Y-53363652D01*
X66404069Y-53363652D01*
X68605931Y-53363652D01*
X68936660Y-53363652D01*
X68936660Y-55036348D01*
G37*
%TO.C,kibuzzard-67D6AC10*%
G36*
X121493053Y-65078514D02*
G01*
X121540711Y-65152827D01*
X121563328Y-65263489D01*
X121567569Y-65329523D01*
X121568982Y-65400000D01*
X121567569Y-65470275D01*
X121563328Y-65535703D01*
X121540711Y-65646365D01*
X121492246Y-65721486D01*
X121410662Y-65748950D01*
X121328271Y-65721486D01*
X121280614Y-65647173D01*
X121257997Y-65536511D01*
X121253756Y-65470477D01*
X121252342Y-65400000D01*
X121253756Y-65329725D01*
X121257997Y-65264297D01*
X121280614Y-65153635D01*
X121328271Y-65078514D01*
X121410662Y-65051050D01*
X121493053Y-65078514D01*
G37*
G36*
X123626602Y-66191061D02*
G01*
X123357351Y-66191061D01*
X122585137Y-66191061D01*
X121412278Y-66191061D01*
X120677221Y-66191061D01*
X120242649Y-66191061D01*
X119973398Y-66191061D01*
X119973398Y-65400000D01*
X120242649Y-65400000D01*
X120249616Y-65518033D01*
X120270517Y-65621729D01*
X120305351Y-65711086D01*
X120354120Y-65786107D01*
X120439562Y-65861497D01*
X120547263Y-65906731D01*
X120677221Y-65921809D01*
X120765468Y-65916357D01*
X120842811Y-65900000D01*
X120956704Y-65852342D01*
X120906624Y-65695638D01*
X120825040Y-65731179D01*
X120696607Y-65748950D01*
X120581300Y-65726131D01*
X120503554Y-65657674D01*
X120470795Y-65587938D01*
X120451140Y-65500431D01*
X120444890Y-65400000D01*
X121050404Y-65400000D01*
X121056210Y-65521315D01*
X121073627Y-65626777D01*
X121102655Y-65716387D01*
X121143296Y-65790145D01*
X121214468Y-65863292D01*
X121304129Y-65907180D01*
X121412278Y-65921809D01*
X121517824Y-65907180D01*
X121530646Y-65900808D01*
X121851696Y-65900808D01*
X122034249Y-65900808D01*
X122026171Y-65123748D01*
X122144103Y-65547011D01*
X122289499Y-65547011D01*
X122412278Y-65123748D01*
X122402585Y-65900808D01*
X122585137Y-65900808D01*
X122581502Y-65772981D01*
X122577060Y-65647981D01*
X122571607Y-65524798D01*
X122564943Y-65402423D01*
X122556866Y-65279847D01*
X122547173Y-65156058D01*
X122536470Y-65030048D01*
X122525363Y-64900808D01*
X122694992Y-64900808D01*
X122694992Y-65900808D01*
X122893700Y-65900808D01*
X122893700Y-65459774D01*
X123158643Y-65459774D01*
X123158643Y-65900808D01*
X123357351Y-65900808D01*
X123357351Y-64900808D01*
X123158643Y-64900808D01*
X123158643Y-65294992D01*
X122893700Y-65294992D01*
X122893700Y-64900808D01*
X122694992Y-64900808D01*
X122525363Y-64900808D01*
X122360582Y-64900808D01*
X122331502Y-64986430D01*
X122295961Y-65097092D01*
X122255574Y-65219871D01*
X122215186Y-65343457D01*
X122178029Y-65227141D01*
X122139257Y-65102746D01*
X122102908Y-64988045D01*
X122074637Y-64900808D01*
X121909855Y-64900808D01*
X121899152Y-65010258D01*
X121889661Y-65128595D01*
X121881381Y-65253393D01*
X121874313Y-65382229D01*
X121868053Y-65513489D01*
X121862197Y-65645557D01*
X121856745Y-65775606D01*
X121851696Y-65900808D01*
X121530646Y-65900808D01*
X121606139Y-65863292D01*
X121677221Y-65790145D01*
X121718215Y-65716387D01*
X121747496Y-65626777D01*
X121765065Y-65521315D01*
X121770921Y-65400000D01*
X121765166Y-65278685D01*
X121747900Y-65173223D01*
X121719124Y-65083613D01*
X121678837Y-65009855D01*
X121608113Y-64936708D01*
X121518722Y-64892820D01*
X121410662Y-64878191D01*
X121305834Y-64892820D01*
X121217519Y-64936708D01*
X121145719Y-65009855D01*
X121104019Y-65083613D01*
X121074233Y-65173223D01*
X121056361Y-65278685D01*
X121050404Y-65400000D01*
X120444890Y-65400000D01*
X120444588Y-65395153D01*
X120450040Y-65304685D01*
X120466397Y-65230372D01*
X120522940Y-65124556D01*
X120602100Y-65068013D01*
X120693376Y-65051050D01*
X120813732Y-65068013D01*
X120903393Y-65109208D01*
X120955089Y-64950889D01*
X120921971Y-64931502D01*
X120867851Y-64907270D01*
X120792730Y-64887076D01*
X120696607Y-64878191D01*
X120601898Y-64886874D01*
X120514863Y-64912924D01*
X120437318Y-64955735D01*
X120371082Y-65014701D01*
X120317165Y-65089216D01*
X120276575Y-65178675D01*
X120251131Y-65282472D01*
X120242649Y-65400000D01*
X119973398Y-65400000D01*
X119973398Y-64608939D01*
X120242649Y-64608939D01*
X123357351Y-64608939D01*
X123626602Y-64608939D01*
X123626602Y-66191061D01*
G37*
%TO.C,R19*%
X98977500Y-50437258D02*
X98977500Y-49962742D01*
X100022500Y-50437258D02*
X100022500Y-49962742D01*
%TO.C,C8*%
X69695000Y-58565580D02*
X69695000Y-58284420D01*
X70715000Y-58565580D02*
X70715000Y-58284420D01*
%TO.C,C24*%
X104559420Y-48890000D02*
X104840580Y-48890000D01*
X104559420Y-49910000D02*
X104840580Y-49910000D01*
%TO.C,U2*%
X74545000Y-75650000D02*
X74545000Y-76450000D01*
X74545000Y-75650000D02*
X74545000Y-74850000D01*
X77665000Y-75650000D02*
X77665000Y-76450000D01*
X77665000Y-75650000D02*
X77665000Y-74850000D01*
X74595000Y-76950000D02*
X74265000Y-77190000D01*
X74265000Y-76710000D01*
X74595000Y-76950000D01*
G36*
X74595000Y-76950000D02*
G01*
X74265000Y-77190000D01*
X74265000Y-76710000D01*
X74595000Y-76950000D01*
G37*
%TO.C,C25*%
X98761252Y-53535000D02*
X98238748Y-53535000D01*
X98761252Y-52065000D02*
X98238748Y-52065000D01*
%TO.C,J1*%
X86005000Y-86245000D02*
X86005000Y-84995000D01*
X85715000Y-85955000D02*
X85715000Y-79985000D01*
X85715000Y-79985000D02*
X78095000Y-79985000D01*
X85705000Y-85945000D02*
X85705000Y-85195000D01*
X85705000Y-85195000D02*
X83905000Y-85195000D01*
X85705000Y-83695000D02*
X84955000Y-83695000D01*
X84955000Y-83695000D02*
X84955000Y-80745000D01*
X84955000Y-80745000D02*
X81905000Y-80745000D01*
X84755000Y-86245000D02*
X86005000Y-86245000D01*
X83905000Y-85945000D02*
X85705000Y-85945000D01*
X83905000Y-85195000D02*
X83905000Y-85945000D01*
X82405000Y-85945000D02*
X82405000Y-85195000D01*
X82405000Y-85195000D02*
X81405000Y-85195000D01*
X81405000Y-85945000D02*
X82405000Y-85945000D01*
X81405000Y-85195000D02*
X81405000Y-85945000D01*
X79905000Y-85945000D02*
X79905000Y-85195000D01*
X79905000Y-85195000D02*
X78105000Y-85195000D01*
X78855000Y-83695000D02*
X78855000Y-80745000D01*
X78855000Y-80745000D02*
X81905000Y-80745000D01*
X78105000Y-85945000D02*
X79905000Y-85945000D01*
X78105000Y-85195000D02*
X78105000Y-85945000D01*
X78105000Y-83695000D02*
X78855000Y-83695000D01*
X78095000Y-85955000D02*
X85715000Y-85955000D01*
X78095000Y-79985000D02*
X78095000Y-85955000D01*
%TO.C,D2*%
X68970000Y-53240000D02*
X68970000Y-55160000D01*
X68970000Y-55160000D02*
X71655000Y-55160000D01*
X71655000Y-53240000D02*
X68970000Y-53240000D01*
%TO.C,C11*%
X79195000Y-56410580D02*
X79195000Y-56129420D01*
X80215000Y-56410580D02*
X80215000Y-56129420D01*
%TO.C,R20*%
X101877500Y-50437258D02*
X101877500Y-49962742D01*
X102922500Y-50437258D02*
X102922500Y-49962742D01*
%TO.C,C7*%
X73445580Y-56460000D02*
X73164420Y-56460000D01*
X73445580Y-55440000D02*
X73164420Y-55440000D01*
%TO.C,R21*%
X110222500Y-56262742D02*
X110222500Y-56737258D01*
X109177500Y-56262742D02*
X109177500Y-56737258D01*
%TO.C,C17*%
X99645000Y-69635580D02*
X99645000Y-69354420D01*
X100665000Y-69635580D02*
X100665000Y-69354420D01*
%TO.C,R18*%
X104462742Y-50477500D02*
X104937258Y-50477500D01*
X104462742Y-51522500D02*
X104937258Y-51522500D01*
%TD*%
M02*
