%TF.GenerationSoftware,KiCad,Pcbnew,7.0.11-rc3*%
%TF.CreationDate,2025-03-16T23:23:52+08:00*%
%TF.ProjectId,BMS_Master,424d535f-4d61-4737-9465-722e6b696361,V1.3*%
%TF.SameCoordinates,Original*%
%TF.FileFunction,Soldermask,Top*%
%TF.FilePolarity,Negative*%
%FSLAX46Y46*%
G04 Gerber Fmt 4.6, Leading zero omitted, Abs format (unit mm)*
G04 Created by KiCad (PCBNEW 7.0.11-rc3) date 2025-03-16 23:23:52*
%MOMM*%
%LPD*%
G01*
G04 APERTURE LIST*
G04 Aperture macros list*
%AMRoundRect*
0 Rectangle with rounded corners*
0 $1 Rounding radius*
0 $2 $3 $4 $5 $6 $7 $8 $9 X,Y pos of 4 corners*
0 Add a 4 corners polygon primitive as box body*
4,1,4,$2,$3,$4,$5,$6,$7,$8,$9,$2,$3,0*
0 Add four circle primitives for the rounded corners*
1,1,$1+$1,$2,$3*
1,1,$1+$1,$4,$5*
1,1,$1+$1,$6,$7*
1,1,$1+$1,$8,$9*
0 Add four rect primitives between the rounded corners*
20,1,$1+$1,$2,$3,$4,$5,0*
20,1,$1+$1,$4,$5,$6,$7,0*
20,1,$1+$1,$6,$7,$8,$9,0*
20,1,$1+$1,$8,$9,$2,$3,0*%
G04 Aperture macros list end*
%ADD10RoundRect,0.225000X0.250000X-0.225000X0.250000X0.225000X-0.250000X0.225000X-0.250000X-0.225000X0*%
%ADD11RoundRect,0.225000X-0.225000X-0.250000X0.225000X-0.250000X0.225000X0.250000X-0.225000X0.250000X0*%
%ADD12RoundRect,0.225000X0.225000X0.250000X-0.225000X0.250000X-0.225000X-0.250000X0.225000X-0.250000X0*%
%ADD13RoundRect,0.200000X0.200000X0.275000X-0.200000X0.275000X-0.200000X-0.275000X0.200000X-0.275000X0*%
%ADD14R,1.400000X1.200000*%
%ADD15RoundRect,0.250000X-0.600000X-0.725000X0.600000X-0.725000X0.600000X0.725000X-0.600000X0.725000X0*%
%ADD16O,1.700000X1.950000*%
%ADD17RoundRect,0.200000X0.275000X-0.200000X0.275000X0.200000X-0.275000X0.200000X-0.275000X-0.200000X0*%
%ADD18RoundRect,0.225000X-0.250000X0.225000X-0.250000X-0.225000X0.250000X-0.225000X0.250000X0.225000X0*%
%ADD19RoundRect,0.150000X0.150000X-0.825000X0.150000X0.825000X-0.150000X0.825000X-0.150000X-0.825000X0*%
%ADD20RoundRect,0.200000X-0.275000X0.200000X-0.275000X-0.200000X0.275000X-0.200000X0.275000X0.200000X0*%
%ADD21R,1.700000X1.700000*%
%ADD22O,1.700000X1.700000*%
%ADD23R,1.600000X2.180000*%
%ADD24RoundRect,0.250000X-0.250000X-0.475000X0.250000X-0.475000X0.250000X0.475000X-0.250000X0.475000X0*%
%ADD25RoundRect,0.200000X-0.200000X-0.275000X0.200000X-0.275000X0.200000X0.275000X-0.200000X0.275000X0*%
%ADD26RoundRect,0.250000X0.250000X0.475000X-0.250000X0.475000X-0.250000X-0.475000X0.250000X-0.475000X0*%
%ADD27C,5.500000*%
%ADD28RoundRect,0.243750X-0.243750X-0.456250X0.243750X-0.456250X0.243750X0.456250X-0.243750X0.456250X0*%
%ADD29RoundRect,0.150000X0.150000X-0.587500X0.150000X0.587500X-0.150000X0.587500X-0.150000X-0.587500X0*%
%ADD30RoundRect,0.100000X-0.637500X-0.100000X0.637500X-0.100000X0.637500X0.100000X-0.637500X0.100000X0*%
%ADD31RoundRect,0.150000X-0.150000X0.512500X-0.150000X-0.512500X0.150000X-0.512500X0.150000X0.512500X0*%
%ADD32RoundRect,0.075000X-0.662500X-0.075000X0.662500X-0.075000X0.662500X0.075000X-0.662500X0.075000X0*%
%ADD33RoundRect,0.075000X-0.075000X-0.662500X0.075000X-0.662500X0.075000X0.662500X-0.075000X0.662500X0*%
%ADD34RoundRect,0.250000X0.600000X0.750000X-0.600000X0.750000X-0.600000X-0.750000X0.600000X-0.750000X0*%
%ADD35O,1.700000X2.000000*%
%ADD36RoundRect,0.150000X0.150000X-0.512500X0.150000X0.512500X-0.150000X0.512500X-0.150000X-0.512500X0*%
%ADD37R,1.830000X1.090000*%
%ADD38RoundRect,0.054500X-0.860500X-0.490500X0.860500X-0.490500X0.860500X0.490500X-0.860500X0.490500X0*%
%ADD39C,3.000000*%
%ADD40RoundRect,0.250001X-0.759999X0.499999X-0.759999X-0.499999X0.759999X-0.499999X0.759999X0.499999X0*%
%ADD41O,2.020000X1.500000*%
G04 APERTURE END LIST*
D10*
%TO.C,C6*%
X69005000Y-63275000D03*
X69005000Y-61725000D03*
%TD*%
D11*
%TO.C,C14*%
X86925000Y-75000000D03*
X88475000Y-75000000D03*
%TD*%
D12*
%TO.C,C20*%
X88830000Y-56950000D03*
X87280000Y-56950000D03*
%TD*%
D13*
%TO.C,R9*%
X100580000Y-77550000D03*
X98930000Y-77550000D03*
%TD*%
D14*
%TO.C,Y2*%
X72155000Y-59250000D03*
X74355000Y-59250000D03*
X74355000Y-57650000D03*
X72155000Y-57650000D03*
%TD*%
D15*
%TO.C,J7*%
X112900000Y-44675000D03*
D16*
X115400000Y-44675000D03*
X117900000Y-44675000D03*
%TD*%
D17*
%TO.C,R22*%
X107900000Y-57325000D03*
X107900000Y-55675000D03*
%TD*%
D11*
%TO.C,C2*%
X75625000Y-78700000D03*
X77175000Y-78700000D03*
%TD*%
D18*
%TO.C,C5*%
X75105000Y-61625000D03*
X75105000Y-63175000D03*
%TD*%
D13*
%TO.C,R10*%
X100580000Y-79150000D03*
X98930000Y-79150000D03*
%TD*%
D15*
%TO.C,J6*%
X97250000Y-44675000D03*
D16*
X99750000Y-44675000D03*
X102250000Y-44675000D03*
X104750000Y-44675000D03*
%TD*%
D19*
%TO.C,U5*%
X81750000Y-55345000D03*
X83020000Y-55345000D03*
X84290000Y-55345000D03*
X85560000Y-55345000D03*
X85560000Y-50395000D03*
X84290000Y-50395000D03*
X83020000Y-50395000D03*
X81750000Y-50395000D03*
%TD*%
D20*
%TO.C,R14*%
X95700000Y-77175000D03*
X95700000Y-78825000D03*
%TD*%
D21*
%TO.C,J2*%
X92855000Y-60650000D03*
D22*
X92855000Y-58110000D03*
X92855000Y-55570000D03*
%TD*%
D23*
%TO.C,SW1*%
X70255000Y-76760000D03*
X70255000Y-67580000D03*
%TD*%
D24*
%TO.C,C4*%
X73105000Y-72520000D03*
X75005000Y-72520000D03*
%TD*%
D25*
%TO.C,R13*%
X103475000Y-68700000D03*
X105125000Y-68700000D03*
%TD*%
D26*
%TO.C,C3*%
X82205000Y-72570000D03*
X80305000Y-72570000D03*
%TD*%
D27*
%TO.C,H4*%
X69000000Y-83000000D03*
%TD*%
D28*
%TO.C,D4*%
X86862500Y-78400000D03*
X88737500Y-78400000D03*
%TD*%
D17*
%TO.C,R23*%
X67200000Y-68425000D03*
X67200000Y-66775000D03*
%TD*%
D25*
%TO.C,R1*%
X73380000Y-52770000D03*
X75030000Y-52770000D03*
%TD*%
D18*
%TO.C,C16*%
X100155000Y-72070000D03*
X100155000Y-73620000D03*
%TD*%
D29*
%TO.C,D3*%
X102700000Y-65137500D03*
X104600000Y-65137500D03*
X103650000Y-63262500D03*
%TD*%
D17*
%TO.C,R8*%
X98600000Y-72175000D03*
X98600000Y-70525000D03*
%TD*%
D10*
%TO.C,C28*%
X120600000Y-52675000D03*
X120600000Y-51125000D03*
%TD*%
D24*
%TO.C,C26*%
X102450000Y-52800000D03*
X104350000Y-52800000D03*
%TD*%
D25*
%TO.C,R15*%
X78330000Y-51620000D03*
X79980000Y-51620000D03*
%TD*%
D13*
%TO.C,R11*%
X100580000Y-75950000D03*
X98930000Y-75950000D03*
%TD*%
D27*
%TO.C,H2*%
X127000000Y-45000000D03*
%TD*%
D30*
%TO.C,U4*%
X87987500Y-69075000D03*
X87987500Y-69725000D03*
X87987500Y-70375000D03*
X87987500Y-71025000D03*
X87987500Y-71675000D03*
X87987500Y-72325000D03*
X87987500Y-72975000D03*
X87987500Y-73625000D03*
X93712500Y-73625000D03*
X93712500Y-72975000D03*
X93712500Y-72325000D03*
X93712500Y-71675000D03*
X93712500Y-71025000D03*
X93712500Y-70375000D03*
X93712500Y-69725000D03*
X93712500Y-69075000D03*
%TD*%
D31*
%TO.C,U6*%
X113050000Y-50262500D03*
X112100000Y-50262500D03*
X111150000Y-50262500D03*
X111150000Y-52537500D03*
X113050000Y-52537500D03*
%TD*%
D14*
%TO.C,Y1*%
X71005000Y-63250000D03*
X73205000Y-63250000D03*
X73205000Y-61650000D03*
X71005000Y-61650000D03*
%TD*%
D12*
%TO.C,C23*%
X97975000Y-49400000D03*
X96425000Y-49400000D03*
%TD*%
D18*
%TO.C,C13*%
X75555000Y-66245000D03*
X75555000Y-67795000D03*
%TD*%
D17*
%TO.C,R7*%
X73655000Y-69025000D03*
X73655000Y-67375000D03*
%TD*%
D13*
%TO.C,R5*%
X75530000Y-70720000D03*
X73880000Y-70720000D03*
%TD*%
D27*
%TO.C,H1*%
X127000000Y-83000000D03*
%TD*%
D32*
%TO.C,U3*%
X78292500Y-60270000D03*
X78292500Y-60770000D03*
X78292500Y-61270000D03*
X78292500Y-61770000D03*
X78292500Y-62270000D03*
X78292500Y-62770000D03*
X78292500Y-63270000D03*
X78292500Y-63770000D03*
X78292500Y-64270000D03*
X78292500Y-64770000D03*
X78292500Y-65270000D03*
X78292500Y-65770000D03*
D33*
X79705000Y-67182500D03*
X80205000Y-67182500D03*
X80705000Y-67182500D03*
X81205000Y-67182500D03*
X81705000Y-67182500D03*
X82205000Y-67182500D03*
X82705000Y-67182500D03*
X83205000Y-67182500D03*
X83705000Y-67182500D03*
X84205000Y-67182500D03*
X84705000Y-67182500D03*
X85205000Y-67182500D03*
D32*
X86617500Y-65770000D03*
X86617500Y-65270000D03*
X86617500Y-64770000D03*
X86617500Y-64270000D03*
X86617500Y-63770000D03*
X86617500Y-63270000D03*
X86617500Y-62770000D03*
X86617500Y-62270000D03*
X86617500Y-61770000D03*
X86617500Y-61270000D03*
X86617500Y-60770000D03*
X86617500Y-60270000D03*
D33*
X85205000Y-58857500D03*
X84705000Y-58857500D03*
X84205000Y-58857500D03*
X83705000Y-58857500D03*
X83205000Y-58857500D03*
X82705000Y-58857500D03*
X82205000Y-58857500D03*
X81705000Y-58857500D03*
X81205000Y-58857500D03*
X80705000Y-58857500D03*
X80205000Y-58857500D03*
X79705000Y-58857500D03*
%TD*%
D28*
%TO.C,D1*%
X69717500Y-50750000D03*
X71592500Y-50750000D03*
%TD*%
D10*
%TO.C,C29*%
X85750000Y-72225000D03*
X85750000Y-70675000D03*
%TD*%
D20*
%TO.C,R3*%
X77005000Y-71295000D03*
X77005000Y-72945000D03*
%TD*%
D34*
%TO.C,J3*%
X92500000Y-83500000D03*
D35*
X90000000Y-83500000D03*
%TD*%
D36*
%TO.C,U1*%
X80205000Y-76787500D03*
X81155000Y-76787500D03*
X82105000Y-76787500D03*
X82105000Y-74512500D03*
X80205000Y-74512500D03*
%TD*%
D25*
%TO.C,R6*%
X76630000Y-54400000D03*
X78280000Y-54400000D03*
%TD*%
D15*
%TO.C,J5*%
X81155000Y-44675000D03*
D16*
X83655000Y-44675000D03*
X86155000Y-44675000D03*
%TD*%
D10*
%TO.C,C21*%
X87355000Y-55245000D03*
X87355000Y-53695000D03*
%TD*%
D11*
%TO.C,C1*%
X80625000Y-78700000D03*
X82175000Y-78700000D03*
%TD*%
D37*
%TO.C,TR1*%
X107080000Y-68660000D03*
D38*
X107080000Y-71200000D03*
X107080000Y-73740000D03*
X118320000Y-73740000D03*
X118320000Y-71200000D03*
X118320000Y-68660000D03*
%TD*%
D18*
%TO.C,C27*%
X113100000Y-54425000D03*
X113100000Y-55975000D03*
%TD*%
D39*
%TO.C,J4*%
X125420000Y-71165000D03*
D40*
X121100000Y-69665000D03*
D41*
X121100000Y-72665000D03*
%TD*%
D17*
%TO.C,R2*%
X83705000Y-76175000D03*
X83705000Y-74525000D03*
%TD*%
D10*
%TO.C,C19*%
X93655000Y-67725000D03*
X93655000Y-66175000D03*
%TD*%
D27*
%TO.C,H3*%
X69000000Y-45000000D03*
%TD*%
D25*
%TO.C,R12*%
X103475000Y-73750000D03*
X105125000Y-73750000D03*
%TD*%
D12*
%TO.C,C22*%
X88680000Y-49950000D03*
X87130000Y-49950000D03*
%TD*%
D11*
%TO.C,C15*%
X86730000Y-67550000D03*
X88280000Y-67550000D03*
%TD*%
D20*
%TO.C,R4*%
X78605000Y-74625000D03*
X78605000Y-76275000D03*
%TD*%
D12*
%TO.C,C12*%
X85730000Y-69100000D03*
X84180000Y-69100000D03*
%TD*%
D10*
%TO.C,C10*%
X78205000Y-58275000D03*
X78205000Y-56725000D03*
%TD*%
D12*
%TO.C,C18*%
X105075000Y-71200000D03*
X103525000Y-71200000D03*
%TD*%
D25*
%TO.C,R16*%
X87130000Y-52120000D03*
X88780000Y-52120000D03*
%TD*%
D31*
%TO.C,U7*%
X118850000Y-50262500D03*
X117900000Y-50262500D03*
X116950000Y-50262500D03*
X116950000Y-52537500D03*
X118850000Y-52537500D03*
%TD*%
D18*
%TO.C,C9*%
X88455000Y-58825000D03*
X88455000Y-60375000D03*
%TD*%
D13*
%TO.C,R17*%
X98025000Y-51000000D03*
X96375000Y-51000000D03*
%TD*%
D17*
%TO.C,R19*%
X99500000Y-51025000D03*
X99500000Y-49375000D03*
%TD*%
D10*
%TO.C,C8*%
X70205000Y-59200000D03*
X70205000Y-57650000D03*
%TD*%
D11*
%TO.C,C24*%
X103925000Y-49400000D03*
X105475000Y-49400000D03*
%TD*%
D36*
%TO.C,U2*%
X75155000Y-76787500D03*
X76105000Y-76787500D03*
X77055000Y-76787500D03*
X77055000Y-74512500D03*
X75155000Y-74512500D03*
%TD*%
D26*
%TO.C,C25*%
X99450000Y-52800000D03*
X97550000Y-52800000D03*
%TD*%
D34*
%TO.C,J1*%
X83155000Y-83495000D03*
D35*
X80655000Y-83495000D03*
%TD*%
D28*
%TO.C,D2*%
X69717500Y-54200000D03*
X71592500Y-54200000D03*
%TD*%
D10*
%TO.C,C11*%
X79705000Y-57045000D03*
X79705000Y-55495000D03*
%TD*%
D17*
%TO.C,R20*%
X102400000Y-51025000D03*
X102400000Y-49375000D03*
%TD*%
D12*
%TO.C,C7*%
X74080000Y-55950000D03*
X72530000Y-55950000D03*
%TD*%
D20*
%TO.C,R21*%
X109700000Y-55675000D03*
X109700000Y-57325000D03*
%TD*%
D10*
%TO.C,C17*%
X100155000Y-70270000D03*
X100155000Y-68720000D03*
%TD*%
D25*
%TO.C,R18*%
X103875000Y-51000000D03*
X105525000Y-51000000D03*
%TD*%
M02*
