%TF.GenerationSoftware,KiCad,Pcbnew,7.0.11-rc3*%
%TF.CreationDate,2025-03-16T23:23:52+08:00*%
%TF.ProjectId,BMS_Master,424d535f-4d61-4737-9465-722e6b696361,V1.3*%
%TF.SameCoordinates,Original*%
%TF.FileFunction,Legend,Bot*%
%TF.FilePolarity,Positive*%
%FSLAX46Y46*%
G04 Gerber Fmt 4.6, Leading zero omitted, Abs format (unit mm)*
G04 Created by KiCad (PCBNEW 7.0.11-rc3) date 2025-03-16 23:23:52*
%MOMM*%
%LPD*%
G01*
G04 APERTURE LIST*
%ADD10C,0.120000*%
G04 APERTURE END LIST*
%TO.C,kibuzzard-67D6BCA3*%
G36*
X106316236Y-84761066D02*
G01*
X106385299Y-84802262D01*
X106433764Y-84868901D01*
X106451939Y-84959774D01*
X106433764Y-85053069D01*
X106385299Y-85120921D01*
X106316236Y-85163328D01*
X106233845Y-85177868D01*
X106083603Y-85122132D01*
X106018174Y-84959774D01*
X106083603Y-84802262D01*
X106233845Y-84746527D01*
X106316236Y-84761066D01*
G37*
G36*
X107547254Y-83745719D02*
G01*
X107675687Y-83832956D01*
X107811389Y-83908078D01*
X107937399Y-83963813D01*
X107840468Y-84210985D01*
X107692649Y-84151616D01*
X107537561Y-84065590D01*
X107537561Y-84904039D01*
X107852585Y-84904039D01*
X107852585Y-85151212D01*
X106941438Y-85151212D01*
X106941438Y-84904039D01*
X107239499Y-84904039D01*
X107239499Y-83651212D01*
X107443053Y-83651212D01*
X107547254Y-83745719D01*
G37*
G36*
X111094002Y-83997132D02*
G01*
X111229402Y-84017124D01*
X111352686Y-84048021D01*
X111472940Y-84087399D01*
X111472940Y-85151212D01*
X111172456Y-85151212D01*
X111172456Y-84305493D01*
X111048869Y-84282472D01*
X110925283Y-84276414D01*
X110859855Y-84278837D01*
X110779887Y-84287318D01*
X110698708Y-84300646D01*
X110629645Y-84315186D01*
X110576333Y-84038934D01*
X110669628Y-84015913D01*
X110772617Y-84001373D01*
X110868336Y-83992892D01*
X110937399Y-83990468D01*
X111094002Y-83997132D01*
G37*
G36*
X113765347Y-83726333D02*
G01*
X113765347Y-84012278D01*
X114024637Y-84012278D01*
X114024637Y-84259451D01*
X113765347Y-84259451D01*
X113765347Y-84727141D01*
X113758078Y-84856482D01*
X113736268Y-84958562D01*
X113651454Y-85095477D01*
X113515751Y-85160905D01*
X113331583Y-85177868D01*
X113146204Y-85163328D01*
X112968094Y-85114863D01*
X113009289Y-84857997D01*
X113085622Y-84889499D01*
X113153473Y-84907674D01*
X113221325Y-84916155D01*
X113297658Y-84918578D01*
X113367932Y-84911309D01*
X113421244Y-84882229D01*
X113455170Y-84821648D01*
X113467286Y-84719871D01*
X113467286Y-84259451D01*
X112989903Y-84259451D01*
X112989903Y-84012278D01*
X113467286Y-84012278D01*
X113467286Y-83677868D01*
X113765347Y-83726333D01*
G37*
G36*
X120606220Y-83779645D02*
G01*
X120659532Y-83945638D01*
X120720113Y-84129806D01*
X120780695Y-84315186D01*
X120836430Y-84140711D01*
X120894588Y-83954120D01*
X120949111Y-83782068D01*
X120991519Y-83651212D01*
X121238691Y-83651212D01*
X121254746Y-83815388D01*
X121268982Y-83992892D01*
X121281401Y-84180089D01*
X121292003Y-84373344D01*
X121301393Y-84570234D01*
X121310178Y-84768336D01*
X121318356Y-84963409D01*
X121325929Y-85151212D01*
X121052100Y-85151212D01*
X121064216Y-83985622D01*
X120887318Y-84620517D01*
X120669225Y-84620517D01*
X120485057Y-83985622D01*
X120499596Y-85151212D01*
X120225767Y-85151212D01*
X120231220Y-84959471D01*
X120237884Y-84771971D01*
X120246062Y-84587197D01*
X120256058Y-84403635D01*
X120268174Y-84219770D01*
X120282714Y-84034087D01*
X120298768Y-83845073D01*
X120315428Y-83651212D01*
X120562601Y-83651212D01*
X120606220Y-83779645D01*
G37*
G36*
X116971325Y-83779645D02*
G01*
X117024637Y-83945638D01*
X117085218Y-84129806D01*
X117145800Y-84315186D01*
X117201535Y-84140711D01*
X117259693Y-83954120D01*
X117314216Y-83782068D01*
X117356624Y-83651212D01*
X117603796Y-83651212D01*
X117619851Y-83815388D01*
X117634087Y-83992892D01*
X117646506Y-84180089D01*
X117657108Y-84373344D01*
X117666498Y-84570234D01*
X117675283Y-84768336D01*
X117683461Y-84963409D01*
X117691034Y-85151212D01*
X117417205Y-85151212D01*
X117429321Y-83985622D01*
X117252423Y-84620517D01*
X117034330Y-84620517D01*
X116850162Y-83985622D01*
X116864701Y-85151212D01*
X116590872Y-85151212D01*
X116596325Y-84959471D01*
X116602989Y-84771971D01*
X116611167Y-84587197D01*
X116621163Y-84403635D01*
X116633279Y-84219770D01*
X116647819Y-84034087D01*
X116663873Y-83845073D01*
X116680533Y-83651212D01*
X116927706Y-83651212D01*
X116971325Y-83779645D01*
G37*
G36*
X108417205Y-83777221D02*
G01*
X108443861Y-83922617D01*
X108474152Y-84079826D01*
X108506866Y-84241276D01*
X108542003Y-84403635D01*
X108579564Y-84563570D01*
X108618336Y-84713510D01*
X108657108Y-84845880D01*
X108696183Y-84711692D01*
X108735864Y-84561147D01*
X108774637Y-84401212D01*
X108810985Y-84238853D01*
X108844608Y-84077706D01*
X108875202Y-83921405D01*
X108900646Y-83776918D01*
X108918821Y-83651212D01*
X109233845Y-83651212D01*
X109205977Y-83786914D01*
X109165994Y-83956543D01*
X109133953Y-84083495D01*
X109099219Y-84215563D01*
X109061793Y-84352746D01*
X109022213Y-84492623D01*
X108981018Y-84632768D01*
X108938207Y-84773183D01*
X108874596Y-84973102D01*
X108814620Y-85151212D01*
X108506866Y-85151212D01*
X108460555Y-85022106D01*
X108415320Y-84890038D01*
X108371163Y-84755008D01*
X108328756Y-84619305D01*
X108288772Y-84485218D01*
X108251212Y-84352746D01*
X108199717Y-84159794D01*
X108154281Y-83975929D01*
X108115206Y-83805089D01*
X108082795Y-83651212D01*
X108395396Y-83651212D01*
X108417205Y-83777221D01*
G37*
G36*
X114795840Y-83990166D02*
G01*
X114897011Y-84011066D01*
X115048465Y-84088611D01*
X115135703Y-84202504D01*
X115163570Y-84339418D01*
X115127221Y-84488449D01*
X115035137Y-84586591D01*
X114911551Y-84650808D01*
X114778271Y-84695638D01*
X114689822Y-84724717D01*
X114614701Y-84755008D01*
X114563813Y-84792569D01*
X114545638Y-84845880D01*
X114603796Y-84910097D01*
X114771002Y-84925848D01*
X114966074Y-84896769D01*
X115146607Y-84833764D01*
X115192649Y-85083360D01*
X115025444Y-85143942D01*
X114910339Y-85169386D01*
X114773425Y-85177868D01*
X114639540Y-85171204D01*
X114528675Y-85151212D01*
X114367528Y-85078514D01*
X114279079Y-84969467D01*
X114252423Y-84836187D01*
X114288772Y-84684733D01*
X114382068Y-84582956D01*
X114509289Y-84516317D01*
X114644992Y-84467851D01*
X114731018Y-84437561D01*
X114801292Y-84404847D01*
X114849758Y-84367286D01*
X114867932Y-84320032D01*
X114827948Y-84260662D01*
X114674071Y-84232795D01*
X114477787Y-84260662D01*
X114349354Y-84300646D01*
X114303312Y-84048627D01*
X114469305Y-84000162D01*
X114568962Y-83987439D01*
X114676494Y-83983199D01*
X114795840Y-83990166D01*
G37*
G36*
X116060784Y-83987137D02*
G01*
X116164378Y-83998950D01*
X116321890Y-84034087D01*
X116280695Y-84273990D01*
X116153473Y-84244911D01*
X115989903Y-84232795D01*
X115878433Y-84247032D01*
X115805735Y-84289742D01*
X115752423Y-84431502D01*
X115752423Y-84467851D01*
X115848748Y-84453312D01*
X115958401Y-84448465D01*
X116135299Y-84466640D01*
X116285541Y-84526010D01*
X116389742Y-84635057D01*
X116428514Y-84802262D01*
X116394588Y-84977948D01*
X116297658Y-85094265D01*
X116146204Y-85158481D01*
X115948708Y-85177868D01*
X115926898Y-85177172D01*
X115796648Y-85173021D01*
X115660339Y-85158481D01*
X115466478Y-85124556D01*
X115466478Y-84930695D01*
X115752423Y-84930695D01*
X115832391Y-84936753D01*
X115926898Y-84937964D01*
X116077141Y-84905250D01*
X116135299Y-84794992D01*
X116115913Y-84724717D01*
X116063813Y-84683522D01*
X115987480Y-84662924D01*
X115897819Y-84656866D01*
X115822698Y-84660501D01*
X115752423Y-84668982D01*
X115752423Y-84930695D01*
X115466478Y-84930695D01*
X115466478Y-84446042D01*
X115490711Y-84253393D01*
X115570679Y-84107997D01*
X115719709Y-84015913D01*
X115824818Y-83991377D01*
X115953554Y-83983199D01*
X116060784Y-83987137D01*
G37*
G36*
X112387722Y-83992892D02*
G01*
X112485864Y-84021971D01*
X112577342Y-84070133D01*
X112657916Y-84137076D01*
X112725767Y-84222799D01*
X112779079Y-84327302D01*
X112813611Y-84450283D01*
X112825121Y-84591438D01*
X112814216Y-84727746D01*
X112781502Y-84845880D01*
X112728494Y-84946143D01*
X112656704Y-85028837D01*
X112567044Y-85093659D01*
X112460420Y-85140307D01*
X112337742Y-85168477D01*
X112199919Y-85177868D01*
X112003635Y-85159693D01*
X111838853Y-85114863D01*
X111880048Y-84860420D01*
X112016963Y-84899192D01*
X112187803Y-84918578D01*
X112319871Y-84902524D01*
X112425283Y-84854362D01*
X112494346Y-84778332D01*
X112517367Y-84678675D01*
X112061793Y-84678675D01*
X111778271Y-84678675D01*
X111774637Y-84627787D01*
X111773425Y-84567205D01*
X111781258Y-84472698D01*
X112061793Y-84472698D01*
X112517367Y-84472698D01*
X112496769Y-84383037D01*
X112453150Y-84305493D01*
X112382876Y-84252181D01*
X112282310Y-84232795D01*
X112180533Y-84253393D01*
X112112682Y-84307916D01*
X112073910Y-84384249D01*
X112061793Y-84472698D01*
X111781258Y-84472698D01*
X111787964Y-84391788D01*
X111831583Y-84246796D01*
X111904281Y-84132229D01*
X112004981Y-84049435D01*
X112132606Y-83999758D01*
X112287157Y-83983199D01*
X112387722Y-83992892D01*
G37*
G36*
X119686053Y-83630479D02*
G01*
X119811659Y-83670059D01*
X119914378Y-83736026D01*
X120017064Y-83877787D01*
X120051292Y-84065590D01*
X120012520Y-84243700D01*
X119914378Y-84363651D01*
X119782310Y-84443619D01*
X119641761Y-84499354D01*
X119539984Y-84541761D01*
X119447900Y-84592649D01*
X119380048Y-84656866D01*
X119353393Y-84739257D01*
X119364297Y-84810743D01*
X119404281Y-84873748D01*
X119483037Y-84917367D01*
X119607835Y-84933118D01*
X119728695Y-84924637D01*
X119829564Y-84899192D01*
X119985864Y-84826494D01*
X120073102Y-85068821D01*
X119905897Y-85142730D01*
X119775646Y-85172718D01*
X119607835Y-85182714D01*
X119437803Y-85169925D01*
X119299273Y-85131556D01*
X119192246Y-85067609D01*
X119089560Y-84928574D01*
X119055331Y-84741680D01*
X119065630Y-84628695D01*
X119096527Y-84536914D01*
X119201939Y-84401212D01*
X119342488Y-84313974D01*
X119489095Y-84254604D01*
X119582391Y-84218255D01*
X119667205Y-84173425D01*
X119728998Y-84115267D01*
X119753231Y-84038934D01*
X119726844Y-83943349D01*
X119647684Y-83885999D01*
X119515751Y-83866882D01*
X119344911Y-83891115D01*
X119210420Y-83949273D01*
X119123183Y-83719063D01*
X119296446Y-83648788D01*
X119408219Y-83625162D01*
X119537561Y-83617286D01*
X119686053Y-83630479D01*
G37*
G36*
X105216377Y-83628494D02*
G01*
X105331179Y-83662116D01*
X105504443Y-83750565D01*
X105397819Y-83968659D01*
X105253635Y-83899596D01*
X105085218Y-83871729D01*
X104948304Y-83918982D01*
X104898627Y-84048627D01*
X104921648Y-84140711D01*
X104981018Y-84198869D01*
X105063409Y-84230372D01*
X105155493Y-84240065D01*
X105266963Y-84240065D01*
X105266963Y-84487237D01*
X105174879Y-84487237D01*
X105042205Y-84499051D01*
X104934976Y-84534491D01*
X104864095Y-84599616D01*
X104840468Y-84700485D01*
X104902262Y-84862843D01*
X104986773Y-84911914D01*
X105116721Y-84928271D01*
X105231523Y-84921607D01*
X105328756Y-84901616D01*
X105472940Y-84850727D01*
X105531099Y-85100323D01*
X105455977Y-85126979D01*
X105350565Y-85153635D01*
X105231826Y-85174233D01*
X105114297Y-85182714D01*
X104974354Y-85173930D01*
X104855008Y-85147577D01*
X104755654Y-85105170D01*
X104675687Y-85048223D01*
X104571486Y-84896769D01*
X104537561Y-84705331D01*
X104553615Y-84583562D01*
X104601777Y-84479968D01*
X104679019Y-84396971D01*
X104782310Y-84336995D01*
X104646607Y-84210985D01*
X104595719Y-84038934D01*
X104624798Y-83871729D01*
X104714459Y-83737237D01*
X104868336Y-83648788D01*
X104969810Y-83625162D01*
X105087641Y-83617286D01*
X105216377Y-83628494D01*
G37*
G36*
X122275848Y-83645153D02*
G01*
X122462439Y-83670598D01*
X122462439Y-85126979D01*
X122357633Y-85146062D01*
X122251616Y-85159693D01*
X122146809Y-85167872D01*
X122045638Y-85170598D01*
X122021405Y-85169432D01*
X121925989Y-85164842D01*
X121814216Y-85147577D01*
X121713651Y-85116680D01*
X121627625Y-85070032D01*
X121502827Y-84924637D01*
X121468296Y-84822557D01*
X121456785Y-84698061D01*
X121750000Y-84698061D01*
X121774233Y-84805897D01*
X121836026Y-84871325D01*
X121922052Y-84902827D01*
X122021405Y-84911309D01*
X122095315Y-84908885D01*
X122164378Y-84901616D01*
X122164378Y-84494507D01*
X122048061Y-84494507D01*
X122004443Y-84494507D01*
X121819063Y-84541761D01*
X121750000Y-84698061D01*
X121456785Y-84698061D01*
X121470416Y-84596284D01*
X121511309Y-84499354D01*
X121590368Y-84414540D01*
X121718498Y-84349111D01*
X121579160Y-84218255D01*
X121540085Y-84129806D01*
X121531140Y-84060743D01*
X121817851Y-84060743D01*
X121876010Y-84197658D01*
X122048061Y-84247334D01*
X122164378Y-84247334D01*
X122164378Y-83903231D01*
X122098950Y-83895961D01*
X122028675Y-83893538D01*
X121948708Y-83899596D01*
X121880856Y-83923829D01*
X121834814Y-83974717D01*
X121817851Y-84060743D01*
X121531140Y-84060743D01*
X121527060Y-84029241D01*
X121548869Y-83888691D01*
X121631260Y-83761470D01*
X121798465Y-83669386D01*
X121920840Y-83643033D01*
X122074717Y-83634249D01*
X122275848Y-83645153D01*
G37*
D10*
%TO.C,J8*%
X80560000Y-61595000D02*
X80560000Y-75415000D01*
X78060000Y-61595000D02*
X80560000Y-61595000D01*
X75540000Y-61595000D02*
X69760000Y-61595000D01*
X65840000Y-61595000D02*
X67240000Y-61595000D01*
X65840000Y-61595000D02*
X65840000Y-75415000D01*
X78060000Y-75415000D02*
X80560000Y-75415000D01*
X69760000Y-75415000D02*
X75540000Y-75415000D01*
X65840000Y-75415000D02*
X67240000Y-75415000D01*
%TD*%
M02*
