%TF.GenerationSoftware,KiCad,Pcbnew,7.0.11-rc3*%
%TF.CreationDate,2025-03-16T23:23:55+08:00*%
%TF.ProjectId,BMS_Master,424d535f-4d61-4737-9465-722e6b696361,V1.3*%
%TF.SameCoordinates,Original*%
%TF.FileFunction,Plated,1,2,PTH,Drill*%
%TF.FilePolarity,Positive*%
%FSLAX46Y46*%
G04 Gerber Fmt 4.6, Leading zero omitted, Abs format (unit mm)*
G04 Created by KiCad (PCBNEW 7.0.11-rc3) date 2025-03-16 23:23:55*
%MOMM*%
%LPD*%
G01*
G04 APERTURE LIST*
%TA.AperFunction,ViaDrill*%
%ADD10C,0.250000*%
%TD*%
%TA.AperFunction,ViaDrill*%
%ADD11C,0.300000*%
%TD*%
%TA.AperFunction,ViaDrill*%
%ADD12C,0.400000*%
%TD*%
%TA.AperFunction,ComponentDrill*%
%ADD13C,0.950000*%
%TD*%
%TA.AperFunction,ComponentDrill*%
%ADD14C,1.000000*%
%TD*%
%TA.AperFunction,ComponentDrill*%
%ADD15C,1.020000*%
%TD*%
%TA.AperFunction,ComponentDrill*%
%ADD16C,3.200000*%
%TD*%
G04 APERTURE END LIST*
D10*
X75600000Y-69000000D03*
X81105000Y-57150000D03*
X82463150Y-57617701D03*
X84200000Y-70172880D03*
X88200000Y-66200000D03*
D11*
X67200000Y-66775000D03*
X67200000Y-68425000D03*
X68115477Y-49210000D03*
X68115477Y-51750000D03*
X68115477Y-54290000D03*
X68115477Y-56830000D03*
X68115477Y-59370000D03*
X68115477Y-64450000D03*
X68115477Y-72070000D03*
X68115477Y-77150000D03*
X68115477Y-79690000D03*
X70655477Y-49210000D03*
X70655477Y-74610000D03*
X70655477Y-79690000D03*
X73195477Y-44130000D03*
X73195477Y-46670000D03*
X73195477Y-49210000D03*
X73195477Y-74610000D03*
X73195477Y-77150000D03*
X73195477Y-79690000D03*
X73195477Y-82230000D03*
X73195477Y-84770000D03*
X73655000Y-69025000D03*
X75105000Y-64000000D03*
X75400000Y-74509447D03*
X75735477Y-44130000D03*
X75735477Y-46670000D03*
X75735477Y-49210000D03*
X75735477Y-56830000D03*
X75735477Y-84770000D03*
X75850000Y-59350000D03*
X77950000Y-68000000D03*
X78275477Y-44130000D03*
X78275477Y-46670000D03*
X78275477Y-49210000D03*
X78275477Y-84770000D03*
X78710343Y-70439657D03*
X79350000Y-71100000D03*
X79605000Y-54200000D03*
X79924558Y-68739657D03*
X80050000Y-65750000D03*
X80205000Y-63650000D03*
X80815477Y-49210000D03*
X81053440Y-60546560D03*
X81105000Y-68670096D03*
X83005000Y-53550000D03*
X83355477Y-46670000D03*
X83355477Y-79690000D03*
X83405000Y-73100000D03*
X84255000Y-56972701D03*
X85000000Y-74000000D03*
X85895477Y-79690000D03*
X85895477Y-82230000D03*
X85895477Y-84770000D03*
X86500000Y-57000000D03*
X88435477Y-44130000D03*
X88435477Y-46670000D03*
X88435477Y-79690000D03*
X88435477Y-82230000D03*
X88435477Y-84770000D03*
X88475000Y-75000000D03*
X88755000Y-55250000D03*
X89400000Y-70850000D03*
X89400000Y-71800000D03*
X89800000Y-51100000D03*
X89805000Y-58800000D03*
X90975477Y-44130000D03*
X90975477Y-46670000D03*
X90975477Y-54290000D03*
X90975477Y-56830000D03*
X90975477Y-59370000D03*
X91000000Y-66700000D03*
X91450000Y-76637500D03*
X92100000Y-74800000D03*
X92250000Y-67350000D03*
X92425414Y-70506162D03*
X92440000Y-66510000D03*
X93105000Y-64100000D03*
X93400000Y-74750000D03*
X93515477Y-44130000D03*
X93515477Y-49210000D03*
X93515477Y-51750000D03*
X93515477Y-79690000D03*
X95100000Y-72400000D03*
X95250000Y-70350000D03*
X95750000Y-72300000D03*
X95900000Y-70350000D03*
X96055477Y-54290000D03*
X96055477Y-56830000D03*
X96055477Y-59370000D03*
X96055477Y-82230000D03*
X96055477Y-84770000D03*
X96500000Y-72350000D03*
X96600000Y-70300000D03*
X97200000Y-70050000D03*
X97300000Y-72550000D03*
X97600000Y-69400000D03*
X97700000Y-73100000D03*
X98300000Y-69400000D03*
X98350000Y-73150000D03*
X98595477Y-54290000D03*
X98595477Y-56830000D03*
X98595477Y-82230000D03*
X98595477Y-84770000D03*
X98700000Y-59600000D03*
X98930000Y-75950000D03*
X98930000Y-77550000D03*
X98930000Y-79150000D03*
X98950000Y-69100000D03*
X98950000Y-73850000D03*
X99000000Y-67700000D03*
X99000000Y-68400000D03*
X99050000Y-73250000D03*
X99223569Y-74475000D03*
X99400000Y-71300000D03*
X99500000Y-51025000D03*
X99700000Y-67700000D03*
X99882476Y-74487622D03*
X100400000Y-67700000D03*
X100550000Y-74650000D03*
X101100000Y-67700000D03*
X101135477Y-49210000D03*
X101135477Y-51750000D03*
X101135477Y-54290000D03*
X101135477Y-64450000D03*
X101135477Y-82230000D03*
X101135477Y-84770000D03*
X101300000Y-74700000D03*
X101800000Y-67700000D03*
X101950000Y-74750000D03*
X102400000Y-51025000D03*
X102450000Y-71200000D03*
X102500000Y-67700000D03*
X102600000Y-74750000D03*
X103200000Y-67700000D03*
X103300000Y-74750000D03*
X103650000Y-61800000D03*
X103675477Y-54290000D03*
X103675477Y-77150000D03*
X103675477Y-79690000D03*
X103675477Y-82230000D03*
X103675477Y-84770000D03*
X103900000Y-67200000D03*
X104000000Y-74750000D03*
X105125000Y-73750000D03*
X106215477Y-44130000D03*
X106215477Y-54290000D03*
X108755477Y-44130000D03*
X108755477Y-51750000D03*
X109500000Y-50300000D03*
X110400000Y-52600000D03*
X111100000Y-55700000D03*
X111295477Y-44130000D03*
X113835477Y-46670000D03*
X114400000Y-49000000D03*
X115000000Y-51000000D03*
X116375477Y-46670000D03*
X116375477Y-56830000D03*
X116950000Y-52537500D03*
X118915477Y-56830000D03*
X121455477Y-44130000D03*
X121455477Y-46670000D03*
X121455477Y-49210000D03*
X121455477Y-54290000D03*
X121455477Y-56830000D03*
D12*
X76355000Y-80800000D03*
D13*
%TO.C,J5*%
X81155000Y-44675000D03*
X83655000Y-44675000D03*
X86155000Y-44675000D03*
%TO.C,J6*%
X97250000Y-44675000D03*
X99750000Y-44675000D03*
X102250000Y-44675000D03*
X104750000Y-44675000D03*
%TO.C,J7*%
X112900000Y-44675000D03*
X115400000Y-44675000D03*
X117900000Y-44675000D03*
D14*
%TO.C,J1*%
X80655000Y-83495000D03*
X83155000Y-83495000D03*
%TO.C,J3*%
X90000000Y-83500000D03*
X92500000Y-83500000D03*
%TO.C,J2*%
X92855000Y-55570000D03*
X92855000Y-58110000D03*
X92855000Y-60650000D03*
D15*
%TO.C,J4*%
X121100000Y-69665000D03*
X121100000Y-72665000D03*
D16*
%TO.C,H3*%
X69000000Y-45000000D03*
%TO.C,H4*%
X69000000Y-83000000D03*
%TO.C,H2*%
X127000000Y-45000000D03*
%TO.C,H1*%
X127000000Y-83000000D03*
M02*
