%TF.GenerationSoftware,KiCad,Pcbnew,7.0.11-rc3*%
%TF.CreationDate,2025-03-16T23:31:10+08:00*%
%TF.ProjectId,TSAL,5453414c-2e6b-4696-9361-645f70636258,rev?*%
%TF.SameCoordinates,Original*%
%TF.FileFunction,Paste,Bot*%
%TF.FilePolarity,Positive*%
%FSLAX46Y46*%
G04 Gerber Fmt 4.6, Leading zero omitted, Abs format (unit mm)*
G04 Created by KiCad (PCBNEW 7.0.11-rc3) date 2025-03-16 23:31:10*
%MOMM*%
%LPD*%
G01*
G04 APERTURE LIST*
G04 Aperture macros list*
%AMRoundRect*
0 Rectangle with rounded corners*
0 $1 Rounding radius*
0 $2 $3 $4 $5 $6 $7 $8 $9 X,Y pos of 4 corners*
0 Add a 4 corners polygon primitive as box body*
4,1,4,$2,$3,$4,$5,$6,$7,$8,$9,$2,$3,0*
0 Add four circle primitives for the rounded corners*
1,1,$1+$1,$2,$3*
1,1,$1+$1,$4,$5*
1,1,$1+$1,$6,$7*
1,1,$1+$1,$8,$9*
0 Add four rect primitives between the rounded corners*
20,1,$1+$1,$2,$3,$4,$5,0*
20,1,$1+$1,$4,$5,$6,$7,0*
20,1,$1+$1,$6,$7,$8,$9,0*
20,1,$1+$1,$8,$9,$2,$3,0*%
G04 Aperture macros list end*
%ADD10RoundRect,0.125000X-0.125000X-0.125000X0.125000X-0.125000X0.125000X0.125000X-0.125000X0.125000X0*%
%ADD11RoundRect,0.150000X0.150000X-0.587500X0.150000X0.587500X-0.150000X0.587500X-0.150000X-0.587500X0*%
%ADD12RoundRect,0.200000X-0.200000X-0.275000X0.200000X-0.275000X0.200000X0.275000X-0.200000X0.275000X0*%
%ADD13RoundRect,0.225000X0.250000X-0.225000X0.250000X0.225000X-0.250000X0.225000X-0.250000X-0.225000X0*%
%ADD14RoundRect,0.200000X-0.275000X0.200000X-0.275000X-0.200000X0.275000X-0.200000X0.275000X0.200000X0*%
%ADD15RoundRect,0.200000X0.200000X0.275000X-0.200000X0.275000X-0.200000X-0.275000X0.200000X-0.275000X0*%
%ADD16RoundRect,0.250000X0.475000X-0.250000X0.475000X0.250000X-0.475000X0.250000X-0.475000X-0.250000X0*%
%ADD17RoundRect,0.225000X-0.250000X0.225000X-0.250000X-0.225000X0.250000X-0.225000X0.250000X0.225000X0*%
%ADD18RoundRect,0.150000X-0.512500X-0.150000X0.512500X-0.150000X0.512500X0.150000X-0.512500X0.150000X0*%
%ADD19RoundRect,0.150000X-0.150000X0.512500X-0.150000X-0.512500X0.150000X-0.512500X0.150000X0.512500X0*%
%ADD20RoundRect,0.225000X-0.225000X-0.250000X0.225000X-0.250000X0.225000X0.250000X-0.225000X0.250000X0*%
G04 APERTURE END LIST*
D10*
%TO.C,D2*%
X139687500Y-55537500D03*
X141887500Y-55537500D03*
%TD*%
D11*
%TO.C,Q2*%
X145241632Y-60787500D03*
X143341632Y-60787500D03*
X144291632Y-58912500D03*
%TD*%
D12*
%TO.C,R40*%
X151275000Y-37300000D03*
X152925000Y-37300000D03*
%TD*%
D13*
%TO.C,C20*%
X151612500Y-41000000D03*
X151612500Y-39450000D03*
%TD*%
D14*
%TO.C,R27*%
X141287500Y-59387500D03*
X141287500Y-61037500D03*
%TD*%
D12*
%TO.C,R42*%
X140887500Y-35037500D03*
X142537500Y-35037500D03*
%TD*%
D15*
%TO.C,R41*%
X156125000Y-37300000D03*
X154475000Y-37300000D03*
%TD*%
%TO.C,R23*%
X120612500Y-58787500D03*
X118962500Y-58787500D03*
%TD*%
D16*
%TO.C,C23*%
X145537500Y-38687500D03*
X145537500Y-36787500D03*
%TD*%
D17*
%TO.C,C22*%
X139037500Y-36737500D03*
X139037500Y-38287500D03*
%TD*%
D18*
%TO.C,U6*%
X141065000Y-38687500D03*
X141065000Y-37737500D03*
X141065000Y-36787500D03*
X143340000Y-36787500D03*
X143340000Y-38687500D03*
%TD*%
D16*
%TO.C,C34*%
X158000000Y-40950000D03*
X158000000Y-39050000D03*
%TD*%
D15*
%TO.C,R43*%
X145862500Y-35037500D03*
X144212500Y-35037500D03*
%TD*%
D12*
%TO.C,R28*%
X143462500Y-63037500D03*
X145112500Y-63037500D03*
%TD*%
D18*
%TO.C,U9*%
X153540000Y-40950000D03*
X153540000Y-40000000D03*
X153540000Y-39050000D03*
X155815000Y-39050000D03*
X155815000Y-40950000D03*
%TD*%
D19*
%TO.C,U3*%
X118790000Y-71057500D03*
X119740000Y-71057500D03*
X120690000Y-71057500D03*
X120690000Y-73332500D03*
X118790000Y-73332500D03*
%TD*%
D20*
%TO.C,C16*%
X118950000Y-75250000D03*
X120500000Y-75250000D03*
%TD*%
D19*
%TO.C,U4*%
X118887500Y-60777500D03*
X119837500Y-60777500D03*
X120787500Y-60777500D03*
X120787500Y-63052500D03*
X118887500Y-63052500D03*
%TD*%
D20*
%TO.C,C17*%
X119172500Y-64970000D03*
X120722500Y-64970000D03*
%TD*%
M02*
