%TF.GenerationSoftware,KiCad,Pcbnew,7.0.11-rc3*%
%TF.CreationDate,2025-03-16T23:31:13+08:00*%
%TF.ProjectId,TSAL,5453414c-2e6b-4696-9361-645f70636258,rev?*%
%TF.SameCoordinates,Original*%
%TF.FileFunction,Plated,1,2,PTH,Drill*%
%TF.FilePolarity,Positive*%
%FSLAX46Y46*%
G04 Gerber Fmt 4.6, Leading zero omitted, Abs format (unit mm)*
G04 Created by KiCad (PCBNEW 7.0.11-rc3) date 2025-03-16 23:31:13*
%MOMM*%
%LPD*%
G01*
G04 APERTURE LIST*
%TA.AperFunction,ViaDrill*%
%ADD10C,0.300000*%
%TD*%
%TA.AperFunction,ComponentDrill*%
%ADD11C,0.600000*%
%TD*%
%TA.AperFunction,ComponentDrill*%
%ADD12C,0.700000*%
%TD*%
%TA.AperFunction,ComponentDrill*%
%ADD13C,0.730000*%
%TD*%
%TA.AperFunction,ComponentDrill*%
%ADD14C,0.800000*%
%TD*%
%TA.AperFunction,ComponentDrill*%
%ADD15C,0.950000*%
%TD*%
%TA.AperFunction,ComponentDrill*%
%ADD16C,1.000000*%
%TD*%
%TA.AperFunction,ComponentDrill*%
%ADD17C,1.300000*%
%TD*%
%TA.AperFunction,ComponentDrill*%
%ADD18C,1.500000*%
%TD*%
G04 APERTURE END LIST*
D10*
X85537500Y-56450000D03*
X87537500Y-42762500D03*
X91287500Y-56250000D03*
X95000000Y-46250000D03*
X98537500Y-42637500D03*
X100087500Y-72537500D03*
X100112500Y-64537500D03*
X102212500Y-65922500D03*
X102212500Y-73922500D03*
X112850000Y-75200000D03*
X114400000Y-80600000D03*
X115200000Y-62700000D03*
X115225000Y-70750000D03*
X116750000Y-84300000D03*
X118800000Y-70100000D03*
X118900000Y-76250000D03*
X120690000Y-71057500D03*
X120787500Y-60777500D03*
X122650000Y-63050000D03*
X125000000Y-63950000D03*
X125950000Y-56500000D03*
X127000000Y-54300000D03*
X138000000Y-42500000D03*
X139050000Y-38350000D03*
X139900000Y-35100000D03*
X140250000Y-46100000D03*
X141200000Y-40100000D03*
X141300000Y-59250000D03*
X144800000Y-43700000D03*
X145550000Y-36800000D03*
X145950000Y-42800000D03*
X148300000Y-42950000D03*
X151000000Y-42600000D03*
X156200000Y-37100000D03*
D11*
%TO.C,RV1*%
X77350000Y-42500000D03*
X78650000Y-37500000D03*
D12*
%TO.C,TP9*%
X122600000Y-67750000D03*
%TO.C,TP3*%
X123200000Y-71400000D03*
%TO.C,TP7*%
X123750000Y-81750000D03*
%TO.C,TP8*%
X130287500Y-56537500D03*
D13*
%TO.C,PS1*%
X97237500Y-56237500D03*
X99737500Y-56237500D03*
X102237500Y-56237500D03*
X104737500Y-56237500D03*
X110037500Y-56237500D03*
X112537500Y-56237500D03*
X115037500Y-56237500D03*
D14*
%TO.C,RV3*%
X105190000Y-38000000D03*
X107730000Y-38000000D03*
X110270000Y-38000000D03*
%TO.C,RV4*%
X127500000Y-60420000D03*
X127500000Y-62960000D03*
X127500000Y-65500000D03*
%TO.C,RV2*%
X127500000Y-71620000D03*
X127500000Y-74160000D03*
X127500000Y-76700000D03*
D15*
%TO.C,J5*%
X117287500Y-37012500D03*
X119787500Y-37012500D03*
X122287500Y-37012500D03*
%TO.C,J2*%
X154000000Y-67250000D03*
X156500000Y-67250000D03*
X159000000Y-67250000D03*
D16*
%TO.C,J4*%
X138500000Y-33000000D03*
X141000000Y-33000000D03*
%TO.C,J1*%
X150000000Y-33000000D03*
X152500000Y-33000000D03*
%TO.C,J8*%
X156500000Y-49500000D03*
%TO.C,J6*%
X156500000Y-58500000D03*
%TO.C,J3*%
X156500000Y-76000000D03*
%TO.C,J8*%
X159000000Y-49500000D03*
%TO.C,J6*%
X159000000Y-58500000D03*
%TO.C,J3*%
X159000000Y-76000000D03*
D17*
%TO.C,D4*%
X80000000Y-49760000D03*
X80000000Y-65000000D03*
%TO.C,K1*%
X136312500Y-55500000D03*
X136312500Y-70500000D03*
X136312500Y-75500000D03*
X136312500Y-80500000D03*
X143812500Y-55500000D03*
X143812500Y-70500000D03*
X143812500Y-75500000D03*
X143812500Y-80500000D03*
D18*
%TO.C,Q5*%
X85000000Y-36500000D03*
X90450000Y-36500000D03*
X95900000Y-36500000D03*
M02*
