%TF.GenerationSoftware,KiCad,Pcbnew,7.0.11-rc3*%
%TF.CreationDate,2025-03-16T23:31:10+08:00*%
%TF.ProjectId,TSAL,5453414c-2e6b-4696-9361-645f70636258,rev?*%
%TF.SameCoordinates,Original*%
%TF.FileFunction,Copper,L2,Bot*%
%TF.FilePolarity,Positive*%
%FSLAX46Y46*%
G04 Gerber Fmt 4.6, Leading zero omitted, Abs format (unit mm)*
G04 Created by KiCad (PCBNEW 7.0.11-rc3) date 2025-03-16 23:31:10*
%MOMM*%
%LPD*%
G01*
G04 APERTURE LIST*
G04 Aperture macros list*
%AMRoundRect*
0 Rectangle with rounded corners*
0 $1 Rounding radius*
0 $2 $3 $4 $5 $6 $7 $8 $9 X,Y pos of 4 corners*
0 Add a 4 corners polygon primitive as box body*
4,1,4,$2,$3,$4,$5,$6,$7,$8,$9,$2,$3,0*
0 Add four circle primitives for the rounded corners*
1,1,$1+$1,$2,$3*
1,1,$1+$1,$4,$5*
1,1,$1+$1,$6,$7*
1,1,$1+$1,$8,$9*
0 Add four rect primitives between the rounded corners*
20,1,$1+$1,$2,$3,$4,$5,0*
20,1,$1+$1,$4,$5,$6,$7,0*
20,1,$1+$1,$6,$7,$8,$9,0*
20,1,$1+$1,$8,$9,$2,$3,0*%
G04 Aperture macros list end*
%TA.AperFunction,ComponentPad*%
%ADD10RoundRect,0.250000X-0.600000X-0.750000X0.600000X-0.750000X0.600000X0.750000X-0.600000X0.750000X0*%
%TD*%
%TA.AperFunction,ComponentPad*%
%ADD11O,1.700000X2.000000*%
%TD*%
%TA.AperFunction,ComponentPad*%
%ADD12C,1.500000*%
%TD*%
%TA.AperFunction,ComponentPad*%
%ADD13C,1.440000*%
%TD*%
%TA.AperFunction,ComponentPad*%
%ADD14R,2.500000X4.500000*%
%TD*%
%TA.AperFunction,ComponentPad*%
%ADD15O,2.500000X4.500000*%
%TD*%
%TA.AperFunction,ComponentPad*%
%ADD16RoundRect,0.250000X0.600000X0.750000X-0.600000X0.750000X-0.600000X-0.750000X0.600000X-0.750000X0*%
%TD*%
%TA.AperFunction,ComponentPad*%
%ADD17RoundRect,0.250000X-0.600000X-0.725000X0.600000X-0.725000X0.600000X0.725000X-0.600000X0.725000X0*%
%TD*%
%TA.AperFunction,ComponentPad*%
%ADD18O,1.700000X1.950000*%
%TD*%
%TA.AperFunction,ComponentPad*%
%ADD19C,2.000000*%
%TD*%
%TA.AperFunction,ComponentPad*%
%ADD20R,2.000000X2.000000*%
%TD*%
%TA.AperFunction,ComponentPad*%
%ADD21C,1.600000*%
%TD*%
%TA.AperFunction,ComponentPad*%
%ADD22R,2.600000X2.600000*%
%TD*%
%TA.AperFunction,ComponentPad*%
%ADD23O,2.600000X2.600000*%
%TD*%
%TA.AperFunction,ComponentPad*%
%ADD24RoundRect,0.250000X0.600000X0.725000X-0.600000X0.725000X-0.600000X-0.725000X0.600000X-0.725000X0*%
%TD*%
%TA.AperFunction,ComponentPad*%
%ADD25R,1.130000X1.130000*%
%TD*%
%TA.AperFunction,ComponentPad*%
%ADD26C,1.130000*%
%TD*%
%TA.AperFunction,SMDPad,CuDef*%
%ADD27RoundRect,0.125000X-0.125000X-0.125000X0.125000X-0.125000X0.125000X0.125000X-0.125000X0.125000X0*%
%TD*%
%TA.AperFunction,SMDPad,CuDef*%
%ADD28RoundRect,0.150000X0.150000X-0.587500X0.150000X0.587500X-0.150000X0.587500X-0.150000X-0.587500X0*%
%TD*%
%TA.AperFunction,SMDPad,CuDef*%
%ADD29RoundRect,0.200000X-0.200000X-0.275000X0.200000X-0.275000X0.200000X0.275000X-0.200000X0.275000X0*%
%TD*%
%TA.AperFunction,SMDPad,CuDef*%
%ADD30RoundRect,0.225000X0.250000X-0.225000X0.250000X0.225000X-0.250000X0.225000X-0.250000X-0.225000X0*%
%TD*%
%TA.AperFunction,SMDPad,CuDef*%
%ADD31RoundRect,0.200000X-0.275000X0.200000X-0.275000X-0.200000X0.275000X-0.200000X0.275000X0.200000X0*%
%TD*%
%TA.AperFunction,SMDPad,CuDef*%
%ADD32RoundRect,0.200000X0.200000X0.275000X-0.200000X0.275000X-0.200000X-0.275000X0.200000X-0.275000X0*%
%TD*%
%TA.AperFunction,SMDPad,CuDef*%
%ADD33RoundRect,0.250000X0.475000X-0.250000X0.475000X0.250000X-0.475000X0.250000X-0.475000X-0.250000X0*%
%TD*%
%TA.AperFunction,SMDPad,CuDef*%
%ADD34RoundRect,0.225000X-0.250000X0.225000X-0.250000X-0.225000X0.250000X-0.225000X0.250000X0.225000X0*%
%TD*%
%TA.AperFunction,SMDPad,CuDef*%
%ADD35RoundRect,0.150000X-0.512500X-0.150000X0.512500X-0.150000X0.512500X0.150000X-0.512500X0.150000X0*%
%TD*%
%TA.AperFunction,SMDPad,CuDef*%
%ADD36RoundRect,0.150000X-0.150000X0.512500X-0.150000X-0.512500X0.150000X-0.512500X0.150000X0.512500X0*%
%TD*%
%TA.AperFunction,SMDPad,CuDef*%
%ADD37RoundRect,0.225000X-0.225000X-0.250000X0.225000X-0.250000X0.225000X0.250000X-0.225000X0.250000X0*%
%TD*%
%TA.AperFunction,ViaPad*%
%ADD38C,0.600000*%
%TD*%
%TA.AperFunction,Conductor*%
%ADD39C,0.200000*%
%TD*%
%TA.AperFunction,Conductor*%
%ADD40C,0.350000*%
%TD*%
G04 APERTURE END LIST*
D10*
%TO.P,J4,1,Pin_1*%
%TO.N,GND2*%
X138500000Y-33000000D03*
D11*
%TO.P,J4,2,Pin_2*%
%TO.N,VCC*%
X141000000Y-33000000D03*
%TD*%
D12*
%TO.P,TP7,1,1*%
%TO.N,Net-(R21-Pad2)*%
X123750000Y-81750000D03*
%TD*%
%TO.P,TP8,1,1*%
%TO.N,Net-(R23-Pad2)*%
X130287500Y-56537500D03*
%TD*%
D13*
%TO.P,RV2,1,1*%
%TO.N,+5V*%
X127500000Y-76700000D03*
%TO.P,RV2,2,2*%
%TO.N,Net-(U3--)*%
X127500000Y-74160000D03*
%TO.P,RV2,3,3*%
%TO.N,GND2*%
X127500000Y-71620000D03*
%TD*%
D14*
%TO.P,Q5,1,G*%
%TO.N,Net-(J5-Pin_1)*%
X85000000Y-36500000D03*
D15*
%TO.P,Q5,2,D*%
%TO.N,Net-(D4-A)*%
X90450000Y-36500000D03*
%TO.P,Q5,3,S*%
%TO.N,Net-(Q5-S)*%
X95900000Y-36500000D03*
%TD*%
D16*
%TO.P,J3,1,Pin_1*%
%TO.N,Net-(J3-Pin_1)*%
X159000000Y-76000000D03*
D11*
%TO.P,J3,2,Pin_2*%
%TO.N,GND2*%
X156500000Y-76000000D03*
%TD*%
D17*
%TO.P,J5,1,Pin_1*%
%TO.N,Net-(J5-Pin_1)*%
X117287500Y-37012500D03*
D18*
%TO.P,J5,2,Pin_2*%
%TO.N,unconnected-(J5-Pin_2-Pad2)*%
X119787500Y-37012500D03*
%TO.P,J5,3,Pin_3*%
%TO.N,HV-*%
X122287500Y-37012500D03*
%TD*%
D19*
%TO.P,K1,11*%
%TO.N,Net-(J3-Pin_1)*%
X136312500Y-75500000D03*
%TO.P,K1,12*%
%TO.N,GND2*%
X136312500Y-70500000D03*
%TO.P,K1,14*%
%TO.N,/SDC*%
X136312500Y-80500000D03*
%TO.P,K1,21*%
%TO.N,Net-(K1-Pad21)*%
X143812500Y-75500000D03*
%TO.P,K1,22*%
%TO.N,GND2*%
X143812500Y-70500000D03*
%TO.P,K1,24*%
%TO.N,/SDC*%
X143812500Y-80500000D03*
D20*
%TO.P,K1,A1*%
X136312500Y-55500000D03*
D19*
%TO.P,K1,A2*%
%TO.N,Net-(D2-A)*%
X143812500Y-55500000D03*
%TD*%
D16*
%TO.P,J8,1,Pin_1*%
%TO.N,Net-(D9-K)*%
X159000000Y-49500000D03*
D11*
%TO.P,J8,2,Pin_2*%
%TO.N,GND2*%
X156500000Y-49500000D03*
%TD*%
D12*
%TO.P,TP9,1,1*%
%TO.N,Net-(U4-+)*%
X122600000Y-67750000D03*
%TD*%
D13*
%TO.P,RV3,1,1*%
%TO.N,Net-(Q5-S)*%
X105190000Y-38000000D03*
%TO.P,RV3,2,2*%
%TO.N,Net-(J5-Pin_1)*%
X107730000Y-38000000D03*
%TO.P,RV3,3,3*%
X110270000Y-38000000D03*
%TD*%
D21*
%TO.P,RV1,1*%
%TO.N,HV+*%
X77350000Y-42500000D03*
%TO.P,RV1,2*%
%TO.N,HV-*%
X78650000Y-37500000D03*
%TD*%
D13*
%TO.P,RV4,1,1*%
%TO.N,+5V*%
X127500000Y-60420000D03*
%TO.P,RV4,2,2*%
%TO.N,Net-(U4--)*%
X127500000Y-62960000D03*
%TO.P,RV4,3,3*%
%TO.N,GND2*%
X127500000Y-65500000D03*
%TD*%
D12*
%TO.P,TP3,1,1*%
%TO.N,Net-(U3-+)*%
X123200000Y-71400000D03*
%TD*%
D22*
%TO.P,D4,1,K*%
%TO.N,HV+*%
X80000000Y-65000000D03*
D23*
%TO.P,D4,2,A*%
%TO.N,Net-(D4-A)*%
X80000000Y-49760000D03*
%TD*%
D10*
%TO.P,J1,1,Pin_1*%
%TO.N,GND2*%
X150000000Y-33000000D03*
D11*
%TO.P,J1,2,Pin_2*%
%TO.N,/SDC*%
X152500000Y-33000000D03*
%TD*%
D16*
%TO.P,J6,1,Pin_1*%
%TO.N,Net-(J6-Pin_1)*%
X159000000Y-58500000D03*
D11*
%TO.P,J6,2,Pin_2*%
%TO.N,GND2*%
X156500000Y-58500000D03*
%TD*%
D24*
%TO.P,J2,1,Pin_1*%
%TO.N,+5V*%
X159000000Y-67250000D03*
D18*
%TO.P,J2,2,Pin_2*%
%TO.N,unconnected-(J2-Pin_2-Pad2)*%
X156500000Y-67250000D03*
%TO.P,J2,3,Pin_3*%
%TO.N,Net-(D6-K)*%
X154000000Y-67250000D03*
%TD*%
D25*
%TO.P,PS1,1,-VIN*%
%TO.N,GND2*%
X115037500Y-56237500D03*
D26*
%TO.P,PS1,2,+VIN*%
%TO.N,VCC*%
X112537500Y-56237500D03*
%TO.P,PS1,3,R.C.*%
%TO.N,unconnected-(PS1-R.C.-Pad3)*%
X110037500Y-56237500D03*
%TO.P,PS1,5,N.C._1*%
%TO.N,unconnected-(PS1-N.C._1-Pad5)*%
X104737500Y-56237500D03*
%TO.P,PS1,6,+VOUT*%
%TO.N,Net-(PS1-+VOUT)*%
X102237500Y-56237500D03*
%TO.P,PS1,7,-VOUT*%
%TO.N,HV-*%
X99737500Y-56237500D03*
%TO.P,PS1,8,N.C._2*%
%TO.N,unconnected-(PS1-N.C._2-Pad8)*%
X97237500Y-56237500D03*
%TD*%
D27*
%TO.P,D2,1,K*%
%TO.N,/SDC*%
X139687500Y-55537500D03*
%TO.P,D2,2,A*%
%TO.N,Net-(D2-A)*%
X141887500Y-55537500D03*
%TD*%
D28*
%TO.P,Q2,1,G*%
%TO.N,Net-(Q2-G)*%
X145241632Y-60787500D03*
%TO.P,Q2,2,S*%
%TO.N,GND2*%
X143341632Y-60787500D03*
%TO.P,Q2,3,D*%
%TO.N,Net-(D2-A)*%
X144291632Y-58912500D03*
%TD*%
D29*
%TO.P,R40,1*%
%TO.N,GND2*%
X151275000Y-37300000D03*
%TO.P,R40,2*%
%TO.N,Net-(U9-ADJ)*%
X152925000Y-37300000D03*
%TD*%
D30*
%TO.P,C20,1*%
%TO.N,/SDC*%
X151612500Y-41000000D03*
%TO.P,C20,2*%
%TO.N,GND2*%
X151612500Y-39450000D03*
%TD*%
D31*
%TO.P,R27,1*%
%TO.N,Net-(IC4-RST{slash}~{RST})*%
X141287500Y-59387500D03*
%TO.P,R27,2*%
%TO.N,Net-(Q2-G)*%
X141287500Y-61037500D03*
%TD*%
D29*
%TO.P,R42,1*%
%TO.N,GND2*%
X140887500Y-35037500D03*
%TO.P,R42,2*%
%TO.N,Net-(U6-ADJ)*%
X142537500Y-35037500D03*
%TD*%
D32*
%TO.P,R41,1*%
%TO.N,Net-(IC3-RST{slash}~{RST})*%
X156125000Y-37300000D03*
%TO.P,R41,2*%
%TO.N,Net-(U9-ADJ)*%
X154475000Y-37300000D03*
%TD*%
%TO.P,R23,1*%
%TO.N,+5V*%
X120612500Y-58787500D03*
%TO.P,R23,2*%
%TO.N,Net-(R23-Pad2)*%
X118962500Y-58787500D03*
%TD*%
D33*
%TO.P,C23,1*%
%TO.N,+5V*%
X145537500Y-38687500D03*
%TO.P,C23,2*%
%TO.N,GND2*%
X145537500Y-36787500D03*
%TD*%
D34*
%TO.P,C22,1*%
%TO.N,VCC*%
X139037500Y-36737500D03*
%TO.P,C22,2*%
%TO.N,GND2*%
X139037500Y-38287500D03*
%TD*%
D35*
%TO.P,U6,1,VIN*%
%TO.N,VCC*%
X141065000Y-38687500D03*
%TO.P,U6,2,GND*%
%TO.N,GND2*%
X141065000Y-37737500D03*
%TO.P,U6,3,EN*%
%TO.N,VCC*%
X141065000Y-36787500D03*
%TO.P,U6,4,ADJ*%
%TO.N,Net-(U6-ADJ)*%
X143340000Y-36787500D03*
%TO.P,U6,5,VOUT*%
%TO.N,+5V*%
X143340000Y-38687500D03*
%TD*%
D33*
%TO.P,C34,1*%
%TO.N,Net-(IC3-RST{slash}~{RST})*%
X158000000Y-40950000D03*
%TO.P,C34,2*%
%TO.N,GND2*%
X158000000Y-39050000D03*
%TD*%
D32*
%TO.P,R43,1*%
%TO.N,+5V*%
X145862500Y-35037500D03*
%TO.P,R43,2*%
%TO.N,Net-(U6-ADJ)*%
X144212500Y-35037500D03*
%TD*%
D29*
%TO.P,R28,1*%
%TO.N,GND2*%
X143462500Y-63037500D03*
%TO.P,R28,2*%
%TO.N,Net-(Q2-G)*%
X145112500Y-63037500D03*
%TD*%
D35*
%TO.P,U9,1,VIN*%
%TO.N,/SDC*%
X153540000Y-40950000D03*
%TO.P,U9,2,GND*%
%TO.N,GND2*%
X153540000Y-40000000D03*
%TO.P,U9,3,EN*%
%TO.N,/SDC*%
X153540000Y-39050000D03*
%TO.P,U9,4,ADJ*%
%TO.N,Net-(U9-ADJ)*%
X155815000Y-39050000D03*
%TO.P,U9,5,VOUT*%
%TO.N,Net-(IC3-RST{slash}~{RST})*%
X155815000Y-40950000D03*
%TD*%
D36*
%TO.P,U3,1*%
%TO.N,Net-(R21-Pad2)*%
X118790000Y-71057500D03*
%TO.P,U3,2,V-*%
%TO.N,GND2*%
X119740000Y-71057500D03*
%TO.P,U3,3,+*%
%TO.N,Net-(U3-+)*%
X120690000Y-71057500D03*
%TO.P,U3,4,-*%
%TO.N,Net-(U3--)*%
X120690000Y-73332500D03*
%TO.P,U3,5,V+*%
%TO.N,+5V*%
X118790000Y-73332500D03*
%TD*%
D37*
%TO.P,C16,1*%
%TO.N,+5V*%
X118950000Y-75250000D03*
%TO.P,C16,2*%
%TO.N,GND2*%
X120500000Y-75250000D03*
%TD*%
D36*
%TO.P,U4,1*%
%TO.N,Net-(R23-Pad2)*%
X118887500Y-60777500D03*
%TO.P,U4,2,V-*%
%TO.N,GND2*%
X119837500Y-60777500D03*
%TO.P,U4,3,+*%
%TO.N,Net-(U4-+)*%
X120787500Y-60777500D03*
%TO.P,U4,4,-*%
%TO.N,Net-(U4--)*%
X120787500Y-63052500D03*
%TO.P,U4,5,V+*%
%TO.N,+5V*%
X118887500Y-63052500D03*
%TD*%
D37*
%TO.P,C17,1*%
%TO.N,+5V*%
X119172500Y-64970000D03*
%TO.P,C17,2*%
%TO.N,GND2*%
X120722500Y-64970000D03*
%TD*%
D38*
%TO.N,HV-*%
X95000000Y-46250000D03*
X87537500Y-42762500D03*
%TO.N,+5VA*%
X102212500Y-73922500D03*
X98537500Y-42637500D03*
X102212500Y-65922500D03*
%TO.N,Net-(IC1-IN)*%
X100087500Y-72537500D03*
X85537500Y-56450000D03*
%TO.N,Net-(IC2-IN)*%
X100112500Y-64537500D03*
X91287500Y-56250000D03*
%TO.N,+5V*%
X148300000Y-42950000D03*
X115225000Y-70750000D03*
X145950000Y-42800000D03*
X118900000Y-76250000D03*
X115200000Y-62700000D03*
%TO.N,GND2*%
X140250000Y-46100000D03*
X151000000Y-42600000D03*
X114400000Y-80600000D03*
X139900000Y-35100000D03*
X138000000Y-42500000D03*
X116750000Y-84300000D03*
X145550000Y-36800000D03*
X141200000Y-40100000D03*
X139050000Y-38350000D03*
X112850000Y-75200000D03*
%TO.N,Net-(U3-+)*%
X120690000Y-71057500D03*
%TO.N,Net-(IC3-RST{slash}~{RST})*%
X156200000Y-37100000D03*
%TO.N,Net-(U4-+)*%
X120787500Y-60777500D03*
%TO.N,Net-(IC3-OUT)*%
X127000000Y-54300000D03*
X144800000Y-43700000D03*
%TO.N,Net-(IC4-RST{slash}~{RST})*%
X141300000Y-59250000D03*
%TO.N,Net-(R21-Pad2)*%
X118800000Y-70100000D03*
%TO.N,Net-(R23-Pad2)*%
X125950000Y-56500000D03*
%TO.N,Net-(U4--)*%
X122650000Y-63050000D03*
X125000000Y-63950000D03*
%TD*%
D39*
%TO.N,HV-*%
X89707107Y-45957107D02*
X87830393Y-44080393D01*
X95000000Y-46250000D02*
X95000000Y-43414214D01*
X99444607Y-50694607D02*
X95000000Y-46250000D01*
X99737500Y-56237500D02*
X99737500Y-51401714D01*
X78650000Y-37500000D02*
X83619607Y-42469607D01*
X84326714Y-42762500D02*
X87537500Y-42762500D01*
X87537500Y-43373286D02*
X87537500Y-42762500D01*
X118092893Y-41207107D02*
X122287500Y-37012500D01*
X95292893Y-42707107D02*
X96207107Y-41792893D01*
X96914214Y-41500000D02*
X117385786Y-41500000D01*
X95000000Y-46250000D02*
X90414214Y-46250000D01*
X117385786Y-41499990D02*
G75*
G03*
X118092893Y-41207107I14J999990D01*
G01*
X87537510Y-43373286D02*
G75*
G03*
X87830393Y-44080393I999990J-14D01*
G01*
X99737490Y-51401714D02*
G75*
G03*
X99444607Y-50694607I-999990J14D01*
G01*
X96914214Y-41500010D02*
G75*
G03*
X96207107Y-41792893I-14J-999990D01*
G01*
X89707092Y-45957122D02*
G75*
G03*
X90414214Y-46250000I707008J706922D01*
G01*
X95292886Y-42707100D02*
G75*
G03*
X95000000Y-43414214I707114J-707100D01*
G01*
X83619600Y-42469614D02*
G75*
G03*
X84326714Y-42762500I707100J707114D01*
G01*
%TO.N,+5VA*%
X101057107Y-44607107D02*
X99380393Y-42930393D01*
X102212500Y-65922500D02*
X102212500Y-73922500D01*
X101350000Y-49135786D02*
X101350000Y-45314214D01*
X103207107Y-51407107D02*
X101642893Y-49842893D01*
X102212500Y-65922500D02*
X103207107Y-64927893D01*
X103500000Y-64220786D02*
X103500000Y-52114214D01*
X98673286Y-42637500D02*
X98537500Y-42637500D01*
X101349990Y-45314214D02*
G75*
G03*
X101057107Y-44607107I-999990J14D01*
G01*
X99380400Y-42930386D02*
G75*
G03*
X98673286Y-42637500I-707100J-707114D01*
G01*
X103207114Y-64927900D02*
G75*
G03*
X103500000Y-64220786I-707114J707100D01*
G01*
X103499990Y-52114214D02*
G75*
G03*
X103207107Y-51407107I-999990J14D01*
G01*
X101350010Y-49135786D02*
G75*
G03*
X101642893Y-49842893I999990J-14D01*
G01*
%TO.N,Net-(IC1-IN)*%
X99794607Y-70707107D02*
X85537500Y-56450000D01*
X100087500Y-72537500D02*
X100087500Y-71414214D01*
X100087490Y-71414214D02*
G75*
G03*
X99794607Y-70707107I-999990J14D01*
G01*
%TO.N,Net-(IC2-IN)*%
X100112500Y-64537500D02*
X100112500Y-61876714D01*
X94485786Y-56250000D02*
X91287500Y-56250000D01*
X99819607Y-61169607D02*
X95192893Y-56542893D01*
X100112490Y-61876714D02*
G75*
G03*
X99819607Y-61169607I-999990J14D01*
G01*
X95192879Y-56542907D02*
G75*
G03*
X94485786Y-56250000I-707079J-706993D01*
G01*
%TO.N,+5V*%
X143340000Y-38687500D02*
X145537500Y-38687500D01*
X118900000Y-76250000D02*
X118900000Y-75300000D01*
X118790000Y-73332500D02*
X118790000Y-75090000D01*
X118900000Y-75300000D02*
X118950000Y-75250000D01*
X125867500Y-58787500D02*
X127500000Y-60420000D01*
X115225000Y-70750000D02*
X116207500Y-70750000D01*
X118790000Y-75090000D02*
X118950000Y-75250000D01*
X118887500Y-63052500D02*
X118887500Y-64685000D01*
X118887500Y-64685000D02*
X119172500Y-64970000D01*
X145537500Y-42387500D02*
X145950000Y-42800000D01*
X120700000Y-78050000D02*
X126150000Y-78050000D01*
X126150000Y-78050000D02*
X127500000Y-76700000D01*
X127030000Y-60420000D02*
X127500000Y-60420000D01*
X121705000Y-65745000D02*
X127030000Y-60420000D01*
X146562500Y-35737500D02*
X145862500Y-35037500D01*
X148300000Y-56550000D02*
X159000000Y-67250000D01*
X115200000Y-62700000D02*
X115200000Y-70725000D01*
X145537500Y-38687500D02*
X146562500Y-37662500D01*
X119172500Y-64970000D02*
X119947500Y-65745000D01*
X116207500Y-70750000D02*
X118790000Y-73332500D01*
X148300000Y-42950000D02*
X148300000Y-56550000D01*
X120612500Y-58787500D02*
X125867500Y-58787500D01*
X145537500Y-38687500D02*
X145537500Y-42387500D01*
X119947500Y-65745000D02*
X121705000Y-65745000D01*
X146562500Y-37662500D02*
X146562500Y-35737500D01*
X118900000Y-76250000D02*
X120700000Y-78050000D01*
X115200000Y-70725000D02*
X115225000Y-70750000D01*
%TO.N,GND2*%
X153540000Y-40000000D02*
X152162500Y-40000000D01*
D40*
X139050000Y-38350000D02*
X139662500Y-37737500D01*
D39*
X152162500Y-40000000D02*
X151612500Y-39450000D01*
D40*
X139662500Y-37737500D02*
X141065000Y-37737500D01*
D39*
%TO.N,Net-(U3-+)*%
X121032500Y-71400000D02*
X120690000Y-71057500D01*
X123200000Y-71400000D02*
X121032500Y-71400000D01*
%TO.N,/SDC*%
X152225000Y-37925000D02*
X153350000Y-39050000D01*
X153540000Y-39050000D02*
X154350000Y-39050000D01*
X154350000Y-39050000D02*
X154502500Y-39202500D01*
X136312500Y-80500000D02*
X143812500Y-80500000D01*
X136312500Y-54088971D02*
X136312500Y-55500000D01*
X151612500Y-41000000D02*
X153490000Y-41000000D01*
X152225000Y-33275000D02*
X152225000Y-37925000D01*
X153350000Y-39050000D02*
X153540000Y-39050000D01*
X139650000Y-55500000D02*
X139687500Y-55537500D01*
X153490000Y-41000000D02*
X153540000Y-40950000D01*
X149401471Y-41000000D02*
X136312500Y-54088971D01*
X135012500Y-79200000D02*
X136312500Y-80500000D01*
X135012500Y-56800000D02*
X135012500Y-79200000D01*
X154502500Y-39202500D02*
X154502500Y-40797500D01*
X154502500Y-40797500D02*
X154350000Y-40950000D01*
X136312500Y-55500000D02*
X135012500Y-56800000D01*
X154350000Y-40950000D02*
X153540000Y-40950000D01*
X152500000Y-33000000D02*
X152225000Y-33275000D01*
X136312500Y-55500000D02*
X139650000Y-55500000D01*
X151612500Y-41000000D02*
X149401471Y-41000000D01*
D40*
%TO.N,VCC*%
X137300000Y-44400000D02*
X132600000Y-49100000D01*
X112600000Y-53400000D02*
X112600000Y-56175000D01*
X137300000Y-38475000D02*
X137300000Y-44400000D01*
X116900000Y-49100000D02*
X112600000Y-53400000D01*
X142102500Y-37162501D02*
X142102500Y-38312499D01*
X141065000Y-36787500D02*
X141727499Y-36787500D01*
X112600000Y-56175000D02*
X112537500Y-56237500D01*
X132600000Y-49100000D02*
X116900000Y-49100000D01*
X141727499Y-38687500D02*
X141065000Y-38687500D01*
X142102500Y-38312499D02*
X141727499Y-38687500D01*
X141727499Y-36787500D02*
X142102500Y-37162501D01*
X139037500Y-36737500D02*
X137300000Y-38475000D01*
X141000000Y-33000000D02*
X139037500Y-34962500D01*
X139037500Y-36737500D02*
X141015000Y-36737500D01*
X139037500Y-34962500D02*
X139037500Y-36737500D01*
X141015000Y-36737500D02*
X141065000Y-36787500D01*
D39*
%TO.N,Net-(IC3-RST{slash}~{RST})*%
X159400000Y-40300000D02*
X158750000Y-40950000D01*
X155815000Y-40950000D02*
X158000000Y-40950000D01*
X158750000Y-40950000D02*
X158000000Y-40950000D01*
X159400000Y-38100000D02*
X159400000Y-40300000D01*
X158600000Y-37300000D02*
X159400000Y-38100000D01*
X156125000Y-37300000D02*
X158600000Y-37300000D01*
%TO.N,Net-(D2-A)*%
X144291632Y-55979132D02*
X143812500Y-55500000D01*
X144291632Y-58912500D02*
X144291632Y-55979132D01*
X141887500Y-55537500D02*
X143775000Y-55537500D01*
X143775000Y-55537500D02*
X143812500Y-55500000D01*
%TO.N,Net-(IC3-OUT)*%
X144800000Y-43700000D02*
X134200000Y-54300000D01*
X134200000Y-54300000D02*
X127000000Y-54300000D01*
%TO.N,Net-(IC4-RST{slash}~{RST})*%
X141287500Y-59262500D02*
X141300000Y-59250000D01*
X141287500Y-59387500D02*
X141287500Y-59262500D01*
D40*
%TO.N,Net-(J3-Pin_1)*%
X159000000Y-76000000D02*
X156900000Y-78100000D01*
X138912500Y-78100000D02*
X136312500Y-75500000D01*
X156900000Y-78100000D02*
X138912500Y-78100000D01*
D39*
%TO.N,Net-(J5-Pin_1)*%
X85000000Y-36500000D02*
X85000000Y-34014214D01*
X100692893Y-32492893D02*
X103807107Y-35607107D01*
X116592893Y-37707107D02*
X117287500Y-37012500D01*
X86814214Y-32200000D02*
X99985786Y-32200000D01*
X85292893Y-33307107D02*
X86107107Y-32492893D01*
X107730000Y-37344214D02*
X107730000Y-38000000D01*
X110270000Y-38000000D02*
X115885786Y-38000000D01*
X104514214Y-35900000D02*
X106285786Y-35900000D01*
X107730000Y-38000000D02*
X110270000Y-38000000D01*
X106992893Y-36192893D02*
X107437107Y-36637107D01*
X106992900Y-36192886D02*
G75*
G03*
X106285786Y-35900000I-707100J-707114D01*
G01*
X103807100Y-35607114D02*
G75*
G03*
X104514214Y-35900000I707100J707114D01*
G01*
X115885786Y-37999990D02*
G75*
G03*
X116592893Y-37707107I14J999990D01*
G01*
X107729990Y-37344214D02*
G75*
G03*
X107437107Y-36637107I-999990J14D01*
G01*
X86814214Y-32200010D02*
G75*
G03*
X86107107Y-32492893I-14J-999990D01*
G01*
X85292886Y-33307100D02*
G75*
G03*
X85000000Y-34014214I707114J-707100D01*
G01*
X100692900Y-32492886D02*
G75*
G03*
X99985786Y-32200000I-707100J-707114D01*
G01*
%TO.N,Net-(Q2-G)*%
X144950000Y-64500000D02*
X145112500Y-64337500D01*
X145112500Y-64337500D02*
X145112500Y-63037500D01*
X141287500Y-61037500D02*
X141287500Y-63687500D01*
X141287500Y-63687500D02*
X142100000Y-64500000D01*
X145241632Y-62908368D02*
X145112500Y-63037500D01*
X145241632Y-60787500D02*
X145241632Y-62908368D01*
X142100000Y-64500000D02*
X144950000Y-64500000D01*
%TO.N,Net-(Q5-S)*%
X97107107Y-37707107D02*
X95900000Y-36500000D01*
X105190000Y-38000000D02*
X97814214Y-38000000D01*
X97107100Y-37707114D02*
G75*
G03*
X97814214Y-38000000I707100J707114D01*
G01*
%TO.N,Net-(R21-Pad2)*%
X118790000Y-71057500D02*
X118790000Y-70110000D01*
X118790000Y-70110000D02*
X118800000Y-70100000D01*
%TO.N,Net-(R23-Pad2)*%
X118887500Y-60777500D02*
X118887500Y-58862500D01*
X118962500Y-58787500D02*
X121250000Y-56500000D01*
X118887500Y-58862500D02*
X118962500Y-58787500D01*
X121250000Y-56500000D02*
X125950000Y-56500000D01*
%TO.N,Net-(U9-ADJ)*%
X155815000Y-39050000D02*
X154475000Y-37710000D01*
X154475000Y-37710000D02*
X154475000Y-37300000D01*
X152925000Y-37300000D02*
X154475000Y-37300000D01*
%TO.N,Net-(U6-ADJ)*%
X144212500Y-35037500D02*
X142537500Y-35037500D01*
X143340000Y-36787500D02*
X144212500Y-35915000D01*
X144212500Y-35915000D02*
X144212500Y-35037500D01*
%TO.N,Net-(U3--)*%
X123632500Y-73332500D02*
X120690000Y-73332500D01*
X124460000Y-74160000D02*
X123632500Y-73332500D01*
X127500000Y-74160000D02*
X124460000Y-74160000D01*
%TO.N,Net-(U4--)*%
X125000000Y-63950000D02*
X125990000Y-62960000D01*
X120787500Y-63052500D02*
X122647500Y-63052500D01*
X122647500Y-63052500D02*
X122650000Y-63050000D01*
X125990000Y-62960000D02*
X127500000Y-62960000D01*
%TD*%
%TA.AperFunction,Conductor*%
%TO.N,GND2*%
G36*
X156016177Y-30520185D02*
G01*
X156036819Y-30536819D01*
X156463681Y-30963681D01*
X156497166Y-31025004D01*
X156500000Y-31051362D01*
X156500000Y-35000000D01*
X158000000Y-36500000D01*
X161448638Y-36500000D01*
X161515677Y-36519685D01*
X161536319Y-36536319D01*
X161963681Y-36963681D01*
X161997166Y-37025004D01*
X162000000Y-37051362D01*
X162000000Y-78948638D01*
X161980315Y-79015677D01*
X161963681Y-79036319D01*
X161536319Y-79463681D01*
X161474996Y-79497166D01*
X161448638Y-79500000D01*
X157999999Y-79500000D01*
X156500000Y-80999999D01*
X156500000Y-84448638D01*
X156480315Y-84515677D01*
X156463681Y-84536319D01*
X155536819Y-85463181D01*
X155475496Y-85496666D01*
X155449138Y-85499500D01*
X113050862Y-85499500D01*
X112983823Y-85479815D01*
X112963181Y-85463181D01*
X112036319Y-84536319D01*
X112002834Y-84474996D01*
X112000000Y-84448638D01*
X112000000Y-81750000D01*
X122794901Y-81750000D01*
X122813252Y-81936331D01*
X122813253Y-81936333D01*
X122867604Y-82115502D01*
X122955862Y-82280623D01*
X122955864Y-82280626D01*
X123074642Y-82425357D01*
X123219373Y-82544135D01*
X123219376Y-82544137D01*
X123322956Y-82599501D01*
X123384499Y-82632396D01*
X123563666Y-82686746D01*
X123563668Y-82686747D01*
X123580374Y-82688392D01*
X123750000Y-82705099D01*
X123936331Y-82686747D01*
X124115501Y-82632396D01*
X124280625Y-82544136D01*
X124425357Y-82425357D01*
X124544136Y-82280625D01*
X124632396Y-82115501D01*
X124686747Y-81936331D01*
X124705099Y-81750000D01*
X124686747Y-81563669D01*
X124632396Y-81384499D01*
X124631037Y-81381956D01*
X124544137Y-81219376D01*
X124544135Y-81219373D01*
X124425357Y-81074642D01*
X124280626Y-80955864D01*
X124280623Y-80955862D01*
X124115502Y-80867604D01*
X123936333Y-80813253D01*
X123936331Y-80813252D01*
X123750000Y-80794901D01*
X123563668Y-80813252D01*
X123563666Y-80813253D01*
X123384497Y-80867604D01*
X123219376Y-80955862D01*
X123219373Y-80955864D01*
X123074642Y-81074642D01*
X122955864Y-81219373D01*
X122955862Y-81219376D01*
X122867604Y-81384497D01*
X122813253Y-81563666D01*
X122813252Y-81563668D01*
X122794901Y-81750000D01*
X112000000Y-81750000D01*
X112000000Y-62700000D01*
X114694353Y-62700000D01*
X114714834Y-62842456D01*
X114744559Y-62907543D01*
X114774623Y-62973373D01*
X114868872Y-63082143D01*
X114868875Y-63082144D01*
X114869213Y-63082535D01*
X114898238Y-63146091D01*
X114899500Y-63163738D01*
X114899500Y-70315112D01*
X114879815Y-70382151D01*
X114869213Y-70396314D01*
X114799625Y-70476622D01*
X114799622Y-70476628D01*
X114739834Y-70607543D01*
X114719353Y-70750000D01*
X114739834Y-70892456D01*
X114783796Y-70988717D01*
X114799623Y-71023373D01*
X114893872Y-71132143D01*
X115014947Y-71209953D01*
X115014950Y-71209954D01*
X115014949Y-71209954D01*
X115153036Y-71250499D01*
X115153038Y-71250500D01*
X115153039Y-71250500D01*
X115296962Y-71250500D01*
X115296962Y-71250499D01*
X115413219Y-71216364D01*
X115435050Y-71209954D01*
X115435050Y-71209953D01*
X115435053Y-71209953D01*
X115556128Y-71132143D01*
X115589788Y-71093296D01*
X115648567Y-71055523D01*
X115683501Y-71050500D01*
X116031667Y-71050500D01*
X116098706Y-71070185D01*
X116119348Y-71086819D01*
X118253181Y-73220652D01*
X118286666Y-73281975D01*
X118289500Y-73308333D01*
X118289500Y-73878260D01*
X118299426Y-73946391D01*
X118350803Y-74051485D01*
X118433512Y-74134194D01*
X118433515Y-74134196D01*
X118433517Y-74134198D01*
X118433518Y-74134198D01*
X118437550Y-74137077D01*
X118480674Y-74192051D01*
X118489500Y-74237997D01*
X118489500Y-74582389D01*
X118469815Y-74649428D01*
X118453181Y-74670070D01*
X118376476Y-74746774D01*
X118376473Y-74746778D01*
X118315279Y-74866878D01*
X118299500Y-74966506D01*
X118299500Y-75533493D01*
X118315279Y-75633121D01*
X118315280Y-75633124D01*
X118315281Y-75633126D01*
X118376472Y-75753220D01*
X118376473Y-75753221D01*
X118376476Y-75753225D01*
X118453013Y-75829762D01*
X118486498Y-75891085D01*
X118481514Y-75960777D01*
X118478126Y-75968954D01*
X118414835Y-76107541D01*
X118414834Y-76107542D01*
X118394353Y-76250000D01*
X118414834Y-76392456D01*
X118446652Y-76462126D01*
X118474623Y-76523373D01*
X118568872Y-76632143D01*
X118689947Y-76709953D01*
X118689950Y-76709954D01*
X118689949Y-76709954D01*
X118797107Y-76741417D01*
X118825280Y-76749690D01*
X118828036Y-76750499D01*
X118828038Y-76750500D01*
X118924167Y-76750500D01*
X118991206Y-76770185D01*
X119011848Y-76786819D01*
X120440039Y-78215010D01*
X120451310Y-78227962D01*
X120456039Y-78234225D01*
X120456041Y-78234227D01*
X120456042Y-78234228D01*
X120470861Y-78247737D01*
X120490317Y-78265474D01*
X120494458Y-78269429D01*
X120507203Y-78282174D01*
X120510931Y-78285270D01*
X120519324Y-78291918D01*
X120528124Y-78299940D01*
X120539064Y-78309914D01*
X120539065Y-78309914D01*
X120539067Y-78309916D01*
X120545530Y-78312419D01*
X120570807Y-78325743D01*
X120576519Y-78329656D01*
X120602514Y-78335769D01*
X120618910Y-78340846D01*
X120643827Y-78350500D01*
X120650751Y-78350500D01*
X120679141Y-78353793D01*
X120685881Y-78355379D01*
X120708655Y-78352201D01*
X120712334Y-78351689D01*
X120729464Y-78350500D01*
X126082862Y-78350500D01*
X126099990Y-78351689D01*
X126107761Y-78352772D01*
X126107761Y-78352771D01*
X126107765Y-78352773D01*
X126154080Y-78350632D01*
X126159805Y-78350500D01*
X126177843Y-78350500D01*
X126177844Y-78350500D01*
X126177844Y-78350499D01*
X126182731Y-78350046D01*
X126193318Y-78348817D01*
X126219992Y-78347585D01*
X126226322Y-78344789D01*
X126253629Y-78336332D01*
X126260433Y-78335061D01*
X126260435Y-78335059D01*
X126260437Y-78335059D01*
X126283138Y-78321003D01*
X126298325Y-78312996D01*
X126322765Y-78302206D01*
X126327661Y-78297309D01*
X126350069Y-78279561D01*
X126355952Y-78275919D01*
X126372053Y-78254595D01*
X126383314Y-78241655D01*
X127036591Y-77588378D01*
X127097912Y-77554895D01*
X127167604Y-77559879D01*
X127174691Y-77562775D01*
X127213983Y-77580269D01*
X127403252Y-77620500D01*
X127596748Y-77620500D01*
X127786017Y-77580269D01*
X127962785Y-77501567D01*
X128119327Y-77387833D01*
X128248802Y-77244036D01*
X128345550Y-77076463D01*
X128405344Y-76892437D01*
X128425570Y-76700000D01*
X128405344Y-76507563D01*
X128345550Y-76323537D01*
X128248802Y-76155964D01*
X128229641Y-76134683D01*
X128119332Y-76012171D01*
X128119325Y-76012165D01*
X127962789Y-75898435D01*
X127962786Y-75898433D01*
X127962785Y-75898433D01*
X127858852Y-75852159D01*
X127786021Y-75819732D01*
X127786016Y-75819730D01*
X127596748Y-75779500D01*
X127403252Y-75779500D01*
X127213983Y-75819730D01*
X127213978Y-75819732D01*
X127037215Y-75898433D01*
X127037210Y-75898435D01*
X126880674Y-76012165D01*
X126880667Y-76012171D01*
X126751197Y-76155964D01*
X126654450Y-76323536D01*
X126654447Y-76323543D01*
X126594657Y-76507558D01*
X126594656Y-76507560D01*
X126574430Y-76700000D01*
X126594656Y-76892439D01*
X126594657Y-76892441D01*
X126641787Y-77037491D01*
X126643782Y-77107332D01*
X126611537Y-77163490D01*
X126061848Y-77713181D01*
X126000525Y-77746666D01*
X125974167Y-77749500D01*
X120875834Y-77749500D01*
X120808795Y-77729815D01*
X120788153Y-77713181D01*
X120147121Y-77072149D01*
X119439394Y-76364423D01*
X119405910Y-76303101D01*
X119404339Y-76259094D01*
X119405647Y-76250000D01*
X119385165Y-76107543D01*
X119346682Y-76023279D01*
X119336739Y-75954123D01*
X119365764Y-75890567D01*
X119403178Y-75861287D01*
X119428220Y-75848528D01*
X119447173Y-75829574D01*
X119508494Y-75796090D01*
X119578185Y-75801073D01*
X119634120Y-75842944D01*
X119640392Y-75852159D01*
X119702424Y-75952728D01*
X119702427Y-75952732D01*
X119822267Y-76072572D01*
X119822271Y-76072575D01*
X119966507Y-76161542D01*
X119966518Y-76161547D01*
X120127393Y-76214855D01*
X120226683Y-76224999D01*
X120250000Y-76224998D01*
X120250000Y-75500000D01*
X120750000Y-75500000D01*
X120750000Y-76224999D01*
X120773308Y-76224999D01*
X120773322Y-76224998D01*
X120872607Y-76214855D01*
X121033481Y-76161547D01*
X121033492Y-76161542D01*
X121177728Y-76072575D01*
X121177732Y-76072572D01*
X121297572Y-75952732D01*
X121297575Y-75952728D01*
X121386542Y-75808492D01*
X121386547Y-75808481D01*
X121439855Y-75647606D01*
X121449999Y-75548322D01*
X121450000Y-75548309D01*
X121450000Y-75500000D01*
X120750000Y-75500000D01*
X120250000Y-75500000D01*
X120250000Y-75124000D01*
X120269685Y-75056961D01*
X120322489Y-75011206D01*
X120374000Y-75000000D01*
X121449999Y-75000000D01*
X121449999Y-74951692D01*
X121449998Y-74951677D01*
X121439855Y-74852392D01*
X121386547Y-74691518D01*
X121386542Y-74691507D01*
X121297575Y-74547271D01*
X121297572Y-74547267D01*
X121177731Y-74427426D01*
X121045843Y-74346076D01*
X120999119Y-74294128D01*
X120987898Y-74225165D01*
X121015741Y-74161083D01*
X121038891Y-74139618D01*
X121046477Y-74134200D01*
X121046483Y-74134198D01*
X121129198Y-74051483D01*
X121180573Y-73946393D01*
X121190500Y-73878260D01*
X121190500Y-73757000D01*
X121210185Y-73689961D01*
X121262989Y-73644206D01*
X121314500Y-73633000D01*
X123456667Y-73633000D01*
X123523706Y-73652685D01*
X123544348Y-73669319D01*
X124200039Y-74325010D01*
X124211310Y-74337962D01*
X124216039Y-74344225D01*
X124250317Y-74375474D01*
X124254458Y-74379429D01*
X124267203Y-74392174D01*
X124270931Y-74395270D01*
X124279324Y-74401918D01*
X124299067Y-74419916D01*
X124304868Y-74422163D01*
X124305528Y-74422419D01*
X124330809Y-74435745D01*
X124336520Y-74439657D01*
X124362517Y-74445771D01*
X124378918Y-74450851D01*
X124403824Y-74460500D01*
X124403827Y-74460500D01*
X124410752Y-74460500D01*
X124439140Y-74463793D01*
X124445881Y-74465379D01*
X124472333Y-74461689D01*
X124489464Y-74460500D01*
X126540102Y-74460500D01*
X126607141Y-74480185D01*
X126651086Y-74530900D01*
X126651201Y-74530835D01*
X126651543Y-74531427D01*
X126652896Y-74532989D01*
X126653376Y-74534053D01*
X126654445Y-74536455D01*
X126751197Y-74704035D01*
X126880667Y-74847828D01*
X126880674Y-74847834D01*
X127037210Y-74961564D01*
X127037211Y-74961564D01*
X127037215Y-74961567D01*
X127181377Y-75025752D01*
X127213978Y-75040267D01*
X127213983Y-75040269D01*
X127403252Y-75080500D01*
X127596748Y-75080500D01*
X127786017Y-75040269D01*
X127962785Y-74961567D01*
X128119327Y-74847833D01*
X128248802Y-74704036D01*
X128345550Y-74536463D01*
X128405344Y-74352437D01*
X128425570Y-74160000D01*
X128405344Y-73967563D01*
X128345550Y-73783537D01*
X128248802Y-73615964D01*
X128119332Y-73472171D01*
X128119325Y-73472165D01*
X127962789Y-73358435D01*
X127962786Y-73358433D01*
X127962785Y-73358433D01*
X127898598Y-73329855D01*
X127786021Y-73279732D01*
X127786016Y-73279730D01*
X127596748Y-73239500D01*
X127403252Y-73239500D01*
X127213983Y-73279730D01*
X127213978Y-73279732D01*
X127037215Y-73358433D01*
X127037210Y-73358435D01*
X126880674Y-73472165D01*
X126880667Y-73472171D01*
X126751197Y-73615964D01*
X126654445Y-73783544D01*
X126653376Y-73785947D01*
X126652387Y-73787109D01*
X126651201Y-73789165D01*
X126650824Y-73788947D01*
X126608121Y-73839179D01*
X126541270Y-73859495D01*
X126540102Y-73859500D01*
X124635833Y-73859500D01*
X124568794Y-73839815D01*
X124548152Y-73823181D01*
X123892462Y-73167491D01*
X123881187Y-73154535D01*
X123876455Y-73148268D01*
X123842183Y-73117025D01*
X123838060Y-73113089D01*
X123825297Y-73100326D01*
X123825296Y-73100325D01*
X123825294Y-73100323D01*
X123821577Y-73097237D01*
X123813179Y-73090584D01*
X123793433Y-73072584D01*
X123786970Y-73070080D01*
X123761692Y-73056756D01*
X123755981Y-73052844D01*
X123755978Y-73052843D01*
X123755979Y-73052843D01*
X123729983Y-73046728D01*
X123713589Y-73041651D01*
X123688674Y-73032000D01*
X123688673Y-73032000D01*
X123681749Y-73032000D01*
X123653358Y-73028706D01*
X123646619Y-73027121D01*
X123620166Y-73030811D01*
X123603036Y-73032000D01*
X121314500Y-73032000D01*
X121247461Y-73012315D01*
X121201706Y-72959511D01*
X121190500Y-72908000D01*
X121190500Y-72786739D01*
X121180573Y-72718608D01*
X121161987Y-72680589D01*
X121129198Y-72613517D01*
X121129196Y-72613515D01*
X121129196Y-72613514D01*
X121046485Y-72530803D01*
X120941391Y-72479426D01*
X120873261Y-72469500D01*
X120873260Y-72469500D01*
X120506740Y-72469500D01*
X120506739Y-72469500D01*
X120438608Y-72479426D01*
X120333514Y-72530803D01*
X120250803Y-72613514D01*
X120199426Y-72718608D01*
X120189500Y-72786739D01*
X120189500Y-73878260D01*
X120199426Y-73946391D01*
X120250803Y-74051485D01*
X120266846Y-74067528D01*
X120300331Y-74128851D01*
X120295347Y-74198543D01*
X120253475Y-74254476D01*
X120191768Y-74278567D01*
X120127392Y-74285144D01*
X119966518Y-74338452D01*
X119966507Y-74338457D01*
X119822271Y-74427424D01*
X119822267Y-74427427D01*
X119702426Y-74547268D01*
X119640392Y-74647841D01*
X119588444Y-74694565D01*
X119519481Y-74705786D01*
X119455399Y-74677943D01*
X119447173Y-74670424D01*
X119428225Y-74651476D01*
X119428221Y-74651473D01*
X119428220Y-74651472D01*
X119308126Y-74590281D01*
X119308124Y-74590280D01*
X119308121Y-74590279D01*
X119208496Y-74574500D01*
X119204768Y-74574207D01*
X119139480Y-74549321D01*
X119098011Y-74493089D01*
X119090500Y-74450589D01*
X119090500Y-74237997D01*
X119110185Y-74170958D01*
X119142450Y-74137077D01*
X119146477Y-74134200D01*
X119146483Y-74134198D01*
X119229198Y-74051483D01*
X119280573Y-73946393D01*
X119290500Y-73878260D01*
X119290500Y-72786740D01*
X119280573Y-72718607D01*
X119229198Y-72613517D01*
X119229196Y-72613515D01*
X119229196Y-72613514D01*
X119146485Y-72530803D01*
X119041391Y-72479426D01*
X118973261Y-72469500D01*
X118973260Y-72469500D01*
X118606740Y-72469500D01*
X118606739Y-72469500D01*
X118538607Y-72479426D01*
X118499455Y-72498566D01*
X118430581Y-72510323D01*
X118366285Y-72482978D01*
X118357316Y-72474845D01*
X117485731Y-71603260D01*
X118289500Y-71603260D01*
X118299426Y-71671391D01*
X118350803Y-71776485D01*
X118433514Y-71859196D01*
X118433515Y-71859196D01*
X118433517Y-71859198D01*
X118538607Y-71910573D01*
X118572673Y-71915536D01*
X118606739Y-71920500D01*
X118971967Y-71920500D01*
X119039006Y-71940185D01*
X119069949Y-71968503D01*
X119072320Y-71971560D01*
X119188438Y-72087678D01*
X119188447Y-72087685D01*
X119329801Y-72171281D01*
X119487514Y-72217100D01*
X119487511Y-72217100D01*
X119489998Y-72217295D01*
X119490000Y-72217295D01*
X119490000Y-69897703D01*
X119990000Y-69897703D01*
X119990000Y-72217295D01*
X119990001Y-72217295D01*
X119992486Y-72217100D01*
X120150198Y-72171281D01*
X120291552Y-72087685D01*
X120291561Y-72087678D01*
X120407679Y-71971560D01*
X120410051Y-71968503D01*
X120412520Y-71966719D01*
X120413200Y-71966040D01*
X120413309Y-71966149D01*
X120466692Y-71927594D01*
X120508033Y-71920500D01*
X120873261Y-71920500D01*
X120895971Y-71917191D01*
X120941393Y-71910573D01*
X121046483Y-71859198D01*
X121129198Y-71776483D01*
X121132350Y-71770037D01*
X121179479Y-71718456D01*
X121243749Y-71700500D01*
X122208537Y-71700500D01*
X122275576Y-71720185D01*
X122317895Y-71766047D01*
X122405862Y-71930623D01*
X122405864Y-71930626D01*
X122524642Y-72075357D01*
X122669373Y-72194135D01*
X122669376Y-72194137D01*
X122834497Y-72282395D01*
X122834499Y-72282396D01*
X123013666Y-72336746D01*
X123013668Y-72336747D01*
X123030374Y-72338392D01*
X123200000Y-72355099D01*
X123386331Y-72336747D01*
X123565501Y-72282396D01*
X123730625Y-72194136D01*
X123875357Y-72075357D01*
X123994136Y-71930625D01*
X124082396Y-71765501D01*
X124126533Y-71620002D01*
X126275340Y-71620002D01*
X126293944Y-71832654D01*
X126293945Y-71832662D01*
X126349194Y-72038853D01*
X126349197Y-72038859D01*
X126439413Y-72232329D01*
X126478415Y-72288030D01*
X127102046Y-71664399D01*
X127114835Y-71745148D01*
X127172359Y-71858045D01*
X127261955Y-71947641D01*
X127374852Y-72005165D01*
X127455599Y-72017953D01*
X126831968Y-72641584D01*
X126887663Y-72680582D01*
X126887669Y-72680586D01*
X127081140Y-72770802D01*
X127081146Y-72770805D01*
X127287337Y-72826054D01*
X127287345Y-72826055D01*
X127499998Y-72844660D01*
X127500002Y-72844660D01*
X127712654Y-72826055D01*
X127712662Y-72826054D01*
X127918853Y-72770805D01*
X127918864Y-72770801D01*
X128112325Y-72680589D01*
X128168030Y-72641583D01*
X127544401Y-72017953D01*
X127625148Y-72005165D01*
X127738045Y-71947641D01*
X127827641Y-71858045D01*
X127885165Y-71745148D01*
X127897953Y-71664400D01*
X128521583Y-72288029D01*
X128560589Y-72232325D01*
X128650801Y-72038864D01*
X128650805Y-72038853D01*
X128706054Y-71832662D01*
X128706055Y-71832654D01*
X128724660Y-71620002D01*
X128724660Y-71619997D01*
X128706055Y-71407345D01*
X128706054Y-71407337D01*
X128650805Y-71201146D01*
X128650802Y-71201140D01*
X128560586Y-71007669D01*
X128560582Y-71007663D01*
X128521584Y-70951968D01*
X127897953Y-71575599D01*
X127885165Y-71494852D01*
X127827641Y-71381955D01*
X127738045Y-71292359D01*
X127625148Y-71234835D01*
X127544400Y-71222046D01*
X128168030Y-70598415D01*
X128112329Y-70559413D01*
X127918859Y-70469197D01*
X127918853Y-70469194D01*
X127712662Y-70413945D01*
X127712654Y-70413944D01*
X127500002Y-70395340D01*
X127499998Y-70395340D01*
X127287345Y-70413944D01*
X127287337Y-70413945D01*
X127081146Y-70469194D01*
X127081140Y-70469197D01*
X126887671Y-70559412D01*
X126887669Y-70559413D01*
X126831969Y-70598415D01*
X126831968Y-70598415D01*
X127455600Y-71222046D01*
X127374852Y-71234835D01*
X127261955Y-71292359D01*
X127172359Y-71381955D01*
X127114835Y-71494852D01*
X127102046Y-71575599D01*
X126478415Y-70951968D01*
X126478415Y-70951969D01*
X126439413Y-71007669D01*
X126439412Y-71007671D01*
X126349197Y-71201140D01*
X126349194Y-71201146D01*
X126293945Y-71407337D01*
X126293944Y-71407345D01*
X126275340Y-71619997D01*
X126275340Y-71620002D01*
X124126533Y-71620002D01*
X124136747Y-71586331D01*
X124155099Y-71400000D01*
X124137013Y-71216369D01*
X124136747Y-71213668D01*
X124136746Y-71213666D01*
X124112016Y-71132143D01*
X124082396Y-71034499D01*
X124057925Y-70988717D01*
X123994137Y-70869376D01*
X123994135Y-70869373D01*
X123875357Y-70724642D01*
X123730626Y-70605864D01*
X123730623Y-70605862D01*
X123565502Y-70517604D01*
X123386333Y-70463253D01*
X123386331Y-70463252D01*
X123200000Y-70444901D01*
X123013668Y-70463252D01*
X123013666Y-70463253D01*
X122834497Y-70517604D01*
X122669376Y-70605862D01*
X122669373Y-70605864D01*
X122524642Y-70724642D01*
X122405864Y-70869373D01*
X122405862Y-70869376D01*
X122317895Y-71033953D01*
X122268933Y-71083797D01*
X122208537Y-71099500D01*
X121314500Y-71099500D01*
X121247461Y-71079815D01*
X121201706Y-71027011D01*
X121190500Y-70975500D01*
X121190500Y-70511739D01*
X121182476Y-70456666D01*
X121180573Y-70443607D01*
X121129198Y-70338517D01*
X121129196Y-70338515D01*
X121129196Y-70338514D01*
X121046485Y-70255803D01*
X120941391Y-70204426D01*
X120873261Y-70194500D01*
X120873260Y-70194500D01*
X120508033Y-70194500D01*
X120440994Y-70174815D01*
X120410051Y-70146497D01*
X120407679Y-70143439D01*
X120291561Y-70027321D01*
X120291552Y-70027314D01*
X120150196Y-69943717D01*
X120150193Y-69943716D01*
X119992494Y-69897900D01*
X119992497Y-69897900D01*
X119990000Y-69897703D01*
X119490000Y-69897703D01*
X119487504Y-69897900D01*
X119387702Y-69926896D01*
X119317833Y-69926697D01*
X119259163Y-69888755D01*
X119240313Y-69859332D01*
X119225377Y-69826628D01*
X119225376Y-69826626D01*
X119131128Y-69717857D01*
X119010053Y-69640047D01*
X119010051Y-69640046D01*
X119010049Y-69640045D01*
X119010050Y-69640045D01*
X118871963Y-69599500D01*
X118871961Y-69599500D01*
X118728039Y-69599500D01*
X118728036Y-69599500D01*
X118589949Y-69640045D01*
X118468873Y-69717856D01*
X118374623Y-69826626D01*
X118374622Y-69826628D01*
X118314834Y-69957543D01*
X118294353Y-70100000D01*
X118314834Y-70242453D01*
X118314835Y-70242458D01*
X118330539Y-70276843D01*
X118340483Y-70346001D01*
X118329146Y-70382815D01*
X118299426Y-70443608D01*
X118289500Y-70511739D01*
X118289500Y-71603260D01*
X117485731Y-71603260D01*
X116467462Y-70584991D01*
X116456187Y-70572035D01*
X116451455Y-70565768D01*
X116417183Y-70534525D01*
X116413060Y-70530589D01*
X116400297Y-70517826D01*
X116400296Y-70517825D01*
X116400294Y-70517823D01*
X116396571Y-70514732D01*
X116388179Y-70508084D01*
X116368433Y-70490084D01*
X116361970Y-70487580D01*
X116336692Y-70474256D01*
X116330981Y-70470344D01*
X116330978Y-70470343D01*
X116330979Y-70470343D01*
X116304983Y-70464228D01*
X116288589Y-70459151D01*
X116263674Y-70449500D01*
X116263673Y-70449500D01*
X116256749Y-70449500D01*
X116228358Y-70446206D01*
X116221619Y-70444621D01*
X116195166Y-70448311D01*
X116178036Y-70449500D01*
X115683501Y-70449500D01*
X115616462Y-70429815D01*
X115589788Y-70406703D01*
X115556126Y-70367855D01*
X115549423Y-70362047D01*
X115550552Y-70360743D01*
X115511701Y-70315898D01*
X115500500Y-70264397D01*
X115500500Y-67750000D01*
X121644901Y-67750000D01*
X121663252Y-67936331D01*
X121663253Y-67936333D01*
X121717604Y-68115502D01*
X121805862Y-68280623D01*
X121805864Y-68280626D01*
X121924642Y-68425357D01*
X122069373Y-68544135D01*
X122069376Y-68544137D01*
X122234497Y-68632395D01*
X122234499Y-68632396D01*
X122413666Y-68686746D01*
X122413668Y-68686747D01*
X122430374Y-68688392D01*
X122600000Y-68705099D01*
X122786331Y-68686747D01*
X122965501Y-68632396D01*
X123130625Y-68544136D01*
X123275357Y-68425357D01*
X123394136Y-68280625D01*
X123482396Y-68115501D01*
X123536747Y-67936331D01*
X123555099Y-67750000D01*
X123536747Y-67563669D01*
X123482396Y-67384499D01*
X123394136Y-67219375D01*
X123394135Y-67219373D01*
X123275357Y-67074642D01*
X123130626Y-66955864D01*
X123130623Y-66955862D01*
X122965502Y-66867604D01*
X122786333Y-66813253D01*
X122786331Y-66813252D01*
X122600000Y-66794901D01*
X122413668Y-66813252D01*
X122413666Y-66813253D01*
X122234497Y-66867604D01*
X122069376Y-66955862D01*
X122069373Y-66955864D01*
X121924642Y-67074642D01*
X121805864Y-67219373D01*
X121805862Y-67219376D01*
X121717604Y-67384497D01*
X121663253Y-67563666D01*
X121663252Y-67563668D01*
X121644901Y-67750000D01*
X115500500Y-67750000D01*
X115500500Y-63163738D01*
X115520185Y-63096699D01*
X115530787Y-63082535D01*
X115531124Y-63082144D01*
X115531128Y-63082143D01*
X115625377Y-62973373D01*
X115685165Y-62842457D01*
X115705647Y-62700000D01*
X115685165Y-62557543D01*
X115625377Y-62426627D01*
X115531128Y-62317857D01*
X115410053Y-62240047D01*
X115410051Y-62240046D01*
X115410049Y-62240045D01*
X115410050Y-62240045D01*
X115271963Y-62199500D01*
X115271961Y-62199500D01*
X115128039Y-62199500D01*
X115128036Y-62199500D01*
X114989949Y-62240045D01*
X114868873Y-62317856D01*
X114774623Y-62426626D01*
X114774622Y-62426628D01*
X114714834Y-62557543D01*
X114694353Y-62700000D01*
X112000000Y-62700000D01*
X112000000Y-59094017D01*
X118362000Y-59094017D01*
X118367614Y-59129463D01*
X118376854Y-59187804D01*
X118434450Y-59300842D01*
X118524158Y-59390550D01*
X118524160Y-59390551D01*
X118524163Y-59390554D01*
X118532057Y-59396290D01*
X118530403Y-59398566D01*
X118570084Y-59436035D01*
X118587000Y-59498557D01*
X118587000Y-59872002D01*
X118567315Y-59939041D01*
X118535055Y-59972918D01*
X118531016Y-59975801D01*
X118448303Y-60058514D01*
X118396926Y-60163608D01*
X118387000Y-60231739D01*
X118387000Y-61323260D01*
X118396926Y-61391391D01*
X118448303Y-61496485D01*
X118531014Y-61579196D01*
X118531015Y-61579196D01*
X118531017Y-61579198D01*
X118636107Y-61630573D01*
X118667816Y-61635193D01*
X118704239Y-61640500D01*
X119069467Y-61640500D01*
X119136506Y-61660185D01*
X119167449Y-61688503D01*
X119169820Y-61691560D01*
X119285938Y-61807678D01*
X119285947Y-61807685D01*
X119427301Y-61891281D01*
X119585014Y-61937100D01*
X119585011Y-61937100D01*
X119587498Y-61937295D01*
X119587500Y-61937295D01*
X119587500Y-59617703D01*
X119585003Y-59617900D01*
X119427306Y-59663716D01*
X119427305Y-59663716D01*
X119375120Y-59694578D01*
X119307396Y-59711759D01*
X119241133Y-59689599D01*
X119197371Y-59635133D01*
X119188000Y-59587845D01*
X119188000Y-59569859D01*
X119207685Y-59502820D01*
X119260489Y-59457065D01*
X119278657Y-59451589D01*
X119278519Y-59451163D01*
X119287800Y-59448147D01*
X119287801Y-59448146D01*
X119287804Y-59448146D01*
X119400842Y-59390550D01*
X119490550Y-59300842D01*
X119548146Y-59187804D01*
X119548146Y-59187802D01*
X119548147Y-59187801D01*
X119559917Y-59113483D01*
X119563000Y-59094019D01*
X119562999Y-58663331D01*
X119582683Y-58596293D01*
X119599313Y-58575656D01*
X119801993Y-58372976D01*
X119863314Y-58339493D01*
X119933006Y-58344477D01*
X119988939Y-58386349D01*
X120013356Y-58451813D01*
X120012315Y-58476111D01*
X120012382Y-58476117D01*
X120012235Y-58477979D01*
X120012147Y-58480047D01*
X120012000Y-58480975D01*
X120012000Y-59094017D01*
X120017614Y-59129463D01*
X120026854Y-59187804D01*
X120084450Y-59300842D01*
X120084452Y-59300844D01*
X120084454Y-59300847D01*
X120174153Y-59390546D01*
X120174156Y-59390548D01*
X120174158Y-59390550D01*
X120174159Y-59390550D01*
X120179743Y-59394607D01*
X120222412Y-59449934D01*
X120228395Y-59519547D01*
X120195792Y-59581344D01*
X120134955Y-59615705D01*
X120096433Y-59616642D01*
X120096295Y-59618399D01*
X120087500Y-59617703D01*
X120087500Y-61937295D01*
X120087501Y-61937295D01*
X120089986Y-61937100D01*
X120247698Y-61891281D01*
X120389052Y-61807685D01*
X120389061Y-61807678D01*
X120505179Y-61691560D01*
X120507551Y-61688503D01*
X120510020Y-61686719D01*
X120510700Y-61686040D01*
X120510809Y-61686149D01*
X120564192Y-61647594D01*
X120605533Y-61640500D01*
X120970761Y-61640500D01*
X121007163Y-61635196D01*
X121038893Y-61630573D01*
X121143983Y-61579198D01*
X121226698Y-61496483D01*
X121278073Y-61391393D01*
X121288000Y-61323260D01*
X121288000Y-60822167D01*
X121289262Y-60804520D01*
X121293147Y-60777500D01*
X121289262Y-60750477D01*
X121288000Y-60732831D01*
X121288000Y-60231739D01*
X121278073Y-60163608D01*
X121278073Y-60163607D01*
X121226698Y-60058517D01*
X121226696Y-60058515D01*
X121226696Y-60058514D01*
X121143985Y-59975803D01*
X121038891Y-59924426D01*
X120970761Y-59914500D01*
X120970760Y-59914500D01*
X120605533Y-59914500D01*
X120538494Y-59894815D01*
X120507551Y-59866497D01*
X120505179Y-59863439D01*
X120389061Y-59747321D01*
X120389052Y-59747314D01*
X120294919Y-59691644D01*
X120247235Y-59640575D01*
X120234732Y-59571833D01*
X120261378Y-59507244D01*
X120318713Y-59467314D01*
X120377446Y-59462440D01*
X120380981Y-59463000D01*
X120844018Y-59462999D01*
X120937804Y-59448146D01*
X121050842Y-59390550D01*
X121140550Y-59300842D01*
X121198146Y-59187804D01*
X121198146Y-59187802D01*
X121198147Y-59187801D01*
X121201163Y-59178520D01*
X121203674Y-59179336D01*
X121227320Y-59129463D01*
X121286634Y-59092534D01*
X121319860Y-59088000D01*
X125691667Y-59088000D01*
X125758706Y-59107685D01*
X125779348Y-59124319D01*
X126611537Y-59956508D01*
X126645022Y-60017831D01*
X126641787Y-60082507D01*
X126594657Y-60227558D01*
X126594656Y-60227561D01*
X126575426Y-60410522D01*
X126548841Y-60475137D01*
X126539786Y-60485241D01*
X121826445Y-65198583D01*
X121765122Y-65232068D01*
X121695430Y-65227084D01*
X121684407Y-65220000D01*
X120596500Y-65220000D01*
X120529461Y-65200315D01*
X120483706Y-65147511D01*
X120472500Y-65096000D01*
X120472500Y-64844000D01*
X120492185Y-64776961D01*
X120544989Y-64731206D01*
X120596500Y-64720000D01*
X121672499Y-64720000D01*
X121672499Y-64671692D01*
X121672498Y-64671677D01*
X121662355Y-64572392D01*
X121609047Y-64411518D01*
X121609042Y-64411507D01*
X121520075Y-64267271D01*
X121520072Y-64267267D01*
X121400232Y-64147427D01*
X121400228Y-64147424D01*
X121255992Y-64058457D01*
X121255983Y-64058453D01*
X121209270Y-64042974D01*
X121151826Y-64003201D01*
X121125003Y-63938685D01*
X121137318Y-63869909D01*
X121160591Y-63837589D01*
X121226698Y-63771483D01*
X121278073Y-63666393D01*
X121288000Y-63598260D01*
X121288000Y-63477000D01*
X121307685Y-63409961D01*
X121360489Y-63364206D01*
X121412000Y-63353000D01*
X122193666Y-63353000D01*
X122260705Y-63372685D01*
X122287380Y-63395799D01*
X122318869Y-63432141D01*
X122318871Y-63432142D01*
X122318872Y-63432143D01*
X122439947Y-63509953D01*
X122439950Y-63509954D01*
X122439949Y-63509954D01*
X122578036Y-63550499D01*
X122578038Y-63550500D01*
X122578039Y-63550500D01*
X122721962Y-63550500D01*
X122721962Y-63550499D01*
X122860053Y-63509953D01*
X122981128Y-63432143D01*
X123075377Y-63323373D01*
X123135165Y-63192457D01*
X123155647Y-63050000D01*
X123135165Y-62907543D01*
X123075377Y-62776627D01*
X122981128Y-62667857D01*
X122860053Y-62590047D01*
X122860051Y-62590046D01*
X122860049Y-62590045D01*
X122860050Y-62590045D01*
X122721963Y-62549500D01*
X122721961Y-62549500D01*
X122578039Y-62549500D01*
X122578036Y-62549500D01*
X122439949Y-62590045D01*
X122318873Y-62667856D01*
X122318872Y-62667856D01*
X122318872Y-62667857D01*
X122284268Y-62707793D01*
X122283046Y-62709203D01*
X122224268Y-62746977D01*
X122189333Y-62752000D01*
X121412000Y-62752000D01*
X121344961Y-62732315D01*
X121299206Y-62679511D01*
X121288000Y-62628000D01*
X121288000Y-62506739D01*
X121278073Y-62438608D01*
X121278073Y-62438607D01*
X121226698Y-62333517D01*
X121226696Y-62333515D01*
X121226696Y-62333514D01*
X121143985Y-62250803D01*
X121038891Y-62199426D01*
X120970761Y-62189500D01*
X120970760Y-62189500D01*
X120604240Y-62189500D01*
X120604239Y-62189500D01*
X120536108Y-62199426D01*
X120431014Y-62250803D01*
X120348303Y-62333514D01*
X120296926Y-62438608D01*
X120287000Y-62506739D01*
X120287000Y-63598260D01*
X120296926Y-63666391D01*
X120348303Y-63771485D01*
X120382049Y-63805231D01*
X120415534Y-63866554D01*
X120410550Y-63936246D01*
X120368678Y-63992179D01*
X120333372Y-64010618D01*
X120189018Y-64058452D01*
X120189007Y-64058457D01*
X120044771Y-64147424D01*
X120044767Y-64147427D01*
X119924926Y-64267268D01*
X119862892Y-64367841D01*
X119810944Y-64414565D01*
X119741981Y-64425786D01*
X119677899Y-64397943D01*
X119669673Y-64390424D01*
X119650725Y-64371476D01*
X119650721Y-64371473D01*
X119650720Y-64371472D01*
X119530626Y-64310281D01*
X119530624Y-64310280D01*
X119530621Y-64310279D01*
X119430993Y-64294500D01*
X119430988Y-64294500D01*
X119312000Y-64294500D01*
X119244961Y-64274815D01*
X119199206Y-64222011D01*
X119188000Y-64170500D01*
X119188000Y-63957997D01*
X119207685Y-63890958D01*
X119239950Y-63857077D01*
X119243977Y-63854200D01*
X119243983Y-63854198D01*
X119326698Y-63771483D01*
X119378073Y-63666393D01*
X119388000Y-63598260D01*
X119388000Y-62506740D01*
X119378073Y-62438607D01*
X119326698Y-62333517D01*
X119326696Y-62333515D01*
X119326696Y-62333514D01*
X119243985Y-62250803D01*
X119138891Y-62199426D01*
X119070761Y-62189500D01*
X119070760Y-62189500D01*
X118704240Y-62189500D01*
X118704239Y-62189500D01*
X118636108Y-62199426D01*
X118531014Y-62250803D01*
X118448303Y-62333514D01*
X118396926Y-62438608D01*
X118387000Y-62506739D01*
X118387000Y-63598260D01*
X118396926Y-63666391D01*
X118448303Y-63771485D01*
X118531012Y-63854194D01*
X118531015Y-63854196D01*
X118531017Y-63854198D01*
X118531018Y-63854198D01*
X118535050Y-63857077D01*
X118578174Y-63912051D01*
X118587000Y-63957997D01*
X118587000Y-64460506D01*
X118573485Y-64516800D01*
X118537779Y-64586876D01*
X118522000Y-64686506D01*
X118522000Y-65253493D01*
X118537779Y-65353121D01*
X118537780Y-65353124D01*
X118537781Y-65353126D01*
X118598972Y-65473220D01*
X118598973Y-65473221D01*
X118598976Y-65473225D01*
X118694274Y-65568523D01*
X118694278Y-65568526D01*
X118694280Y-65568528D01*
X118814374Y-65629719D01*
X118814376Y-65629719D01*
X118814378Y-65629720D01*
X118914007Y-65645500D01*
X118914012Y-65645500D01*
X119371666Y-65645500D01*
X119438705Y-65665185D01*
X119459347Y-65681819D01*
X119687542Y-65910014D01*
X119698813Y-65922966D01*
X119703539Y-65929225D01*
X119703541Y-65929227D01*
X119703542Y-65929228D01*
X119718361Y-65942737D01*
X119737806Y-65960464D01*
X119741947Y-65964419D01*
X119754701Y-65977173D01*
X119758442Y-65980279D01*
X119766834Y-65986927D01*
X119786562Y-66004912D01*
X119786565Y-66004914D01*
X119786567Y-66004916D01*
X119793023Y-66007417D01*
X119818307Y-66020743D01*
X119824020Y-66024657D01*
X119850016Y-66030770D01*
X119866420Y-66035851D01*
X119891326Y-66045500D01*
X119891327Y-66045500D01*
X119898253Y-66045500D01*
X119926641Y-66048793D01*
X119933382Y-66050379D01*
X119957160Y-66047062D01*
X119959836Y-66046689D01*
X119976966Y-66045500D01*
X121637862Y-66045500D01*
X121654990Y-66046689D01*
X121662761Y-66047772D01*
X121662761Y-66047771D01*
X121662765Y-66047773D01*
X121709080Y-66045632D01*
X121714805Y-66045500D01*
X121732843Y-66045500D01*
X121732844Y-66045500D01*
X121732844Y-66045499D01*
X121737731Y-66045046D01*
X121748318Y-66043817D01*
X121774992Y-66042585D01*
X121781322Y-66039789D01*
X121808629Y-66031332D01*
X121815433Y-66030061D01*
X121815435Y-66030059D01*
X121815437Y-66030059D01*
X121838138Y-66016003D01*
X121853325Y-66007996D01*
X121877765Y-65997206D01*
X121882661Y-65992309D01*
X121905069Y-65974561D01*
X121910952Y-65970919D01*
X121927053Y-65949595D01*
X121938314Y-65936655D01*
X122374967Y-65500002D01*
X126275340Y-65500002D01*
X126293944Y-65712654D01*
X126293945Y-65712662D01*
X126349194Y-65918853D01*
X126349197Y-65918859D01*
X126439413Y-66112329D01*
X126478415Y-66168030D01*
X127102046Y-65544399D01*
X127114835Y-65625148D01*
X127172359Y-65738045D01*
X127261955Y-65827641D01*
X127374852Y-65885165D01*
X127455599Y-65897953D01*
X126831968Y-66521584D01*
X126887663Y-66560582D01*
X126887669Y-66560586D01*
X127081140Y-66650802D01*
X127081146Y-66650805D01*
X127287337Y-66706054D01*
X127287345Y-66706055D01*
X127499998Y-66724660D01*
X127500002Y-66724660D01*
X127712654Y-66706055D01*
X127712662Y-66706054D01*
X127918853Y-66650805D01*
X127918864Y-66650801D01*
X128112325Y-66560589D01*
X128168030Y-66521583D01*
X127544401Y-65897953D01*
X127625148Y-65885165D01*
X127738045Y-65827641D01*
X127827641Y-65738045D01*
X127885165Y-65625148D01*
X127897953Y-65544400D01*
X128521583Y-66168029D01*
X128560589Y-66112325D01*
X128650801Y-65918864D01*
X128650805Y-65918853D01*
X128706054Y-65712662D01*
X128706055Y-65712654D01*
X128724660Y-65500002D01*
X128724660Y-65499997D01*
X128706055Y-65287345D01*
X128706054Y-65287337D01*
X128650805Y-65081146D01*
X128650802Y-65081140D01*
X128560586Y-64887669D01*
X128560582Y-64887663D01*
X128521584Y-64831968D01*
X127897953Y-65455599D01*
X127885165Y-65374852D01*
X127827641Y-65261955D01*
X127738045Y-65172359D01*
X127625148Y-65114835D01*
X127544400Y-65102046D01*
X128168030Y-64478415D01*
X128112329Y-64439413D01*
X127918859Y-64349197D01*
X127918853Y-64349194D01*
X127712662Y-64293945D01*
X127712654Y-64293944D01*
X127500002Y-64275340D01*
X127499998Y-64275340D01*
X127287345Y-64293944D01*
X127287337Y-64293945D01*
X127081146Y-64349194D01*
X127081140Y-64349197D01*
X126887671Y-64439412D01*
X126887669Y-64439413D01*
X126831969Y-64478415D01*
X126831968Y-64478415D01*
X127455600Y-65102046D01*
X127374852Y-65114835D01*
X127261955Y-65172359D01*
X127172359Y-65261955D01*
X127114835Y-65374852D01*
X127102046Y-65455599D01*
X126478415Y-64831968D01*
X126478415Y-64831969D01*
X126439413Y-64887669D01*
X126439412Y-64887671D01*
X126349197Y-65081140D01*
X126349194Y-65081146D01*
X126293945Y-65287337D01*
X126293944Y-65287345D01*
X126275340Y-65499997D01*
X126275340Y-65500002D01*
X122374967Y-65500002D01*
X123924969Y-63950000D01*
X124494353Y-63950000D01*
X124514834Y-64092456D01*
X124555228Y-64180905D01*
X124574623Y-64223373D01*
X124668872Y-64332143D01*
X124789947Y-64409953D01*
X124789950Y-64409954D01*
X124789949Y-64409954D01*
X124928036Y-64450499D01*
X124928038Y-64450500D01*
X124928039Y-64450500D01*
X125071962Y-64450500D01*
X125071962Y-64450499D01*
X125210053Y-64409953D01*
X125331128Y-64332143D01*
X125425377Y-64223373D01*
X125485165Y-64092457D01*
X125505647Y-63950000D01*
X125504339Y-63940905D01*
X125514279Y-63871749D01*
X125539392Y-63835577D01*
X126078152Y-63296819D01*
X126139475Y-63263334D01*
X126165833Y-63260500D01*
X126540102Y-63260500D01*
X126607141Y-63280185D01*
X126651086Y-63330900D01*
X126651201Y-63330835D01*
X126651543Y-63331427D01*
X126652896Y-63332989D01*
X126653376Y-63334053D01*
X126654445Y-63336455D01*
X126751197Y-63504035D01*
X126880667Y-63647828D01*
X126880674Y-63647834D01*
X127037210Y-63761564D01*
X127037211Y-63761564D01*
X127037215Y-63761567D01*
X127169893Y-63820639D01*
X127213978Y-63840267D01*
X127213983Y-63840269D01*
X127403252Y-63880500D01*
X127596748Y-63880500D01*
X127786017Y-63840269D01*
X127962785Y-63761567D01*
X128119327Y-63647833D01*
X128121640Y-63645265D01*
X128191338Y-63567856D01*
X128248802Y-63504036D01*
X128345550Y-63336463D01*
X128405344Y-63152437D01*
X128425570Y-62960000D01*
X128405344Y-62767563D01*
X128345550Y-62583537D01*
X128248802Y-62415964D01*
X128235090Y-62400735D01*
X128119332Y-62272171D01*
X128119325Y-62272165D01*
X127962789Y-62158435D01*
X127962786Y-62158433D01*
X127962785Y-62158433D01*
X127898598Y-62129855D01*
X127786021Y-62079732D01*
X127786016Y-62079730D01*
X127596748Y-62039500D01*
X127403252Y-62039500D01*
X127213983Y-62079730D01*
X127213978Y-62079732D01*
X127037215Y-62158433D01*
X127037210Y-62158435D01*
X126880674Y-62272165D01*
X126880667Y-62272171D01*
X126751197Y-62415964D01*
X126654445Y-62583544D01*
X126653376Y-62585947D01*
X126652387Y-62587109D01*
X126651201Y-62589165D01*
X126650824Y-62588947D01*
X126608121Y-62639179D01*
X126541270Y-62659495D01*
X126540102Y-62659500D01*
X126057138Y-62659500D01*
X126040010Y-62658311D01*
X126032238Y-62657227D01*
X126032235Y-62657227D01*
X125991972Y-62659088D01*
X125985920Y-62659368D01*
X125980195Y-62659500D01*
X125962156Y-62659500D01*
X125962151Y-62659500D01*
X125957332Y-62659947D01*
X125946696Y-62661181D01*
X125920005Y-62662415D01*
X125920004Y-62662415D01*
X125913658Y-62665217D01*
X125886385Y-62673663D01*
X125879570Y-62674937D01*
X125879565Y-62674939D01*
X125856856Y-62688999D01*
X125841673Y-62697002D01*
X125817234Y-62707793D01*
X125812329Y-62712698D01*
X125789939Y-62730433D01*
X125784049Y-62734080D01*
X125784044Y-62734084D01*
X125767953Y-62755392D01*
X125756682Y-62768344D01*
X125111846Y-63413181D01*
X125050523Y-63446666D01*
X125024165Y-63449500D01*
X124928036Y-63449500D01*
X124789949Y-63490045D01*
X124668873Y-63567856D01*
X124574623Y-63676626D01*
X124574622Y-63676628D01*
X124514834Y-63807543D01*
X124494353Y-63950000D01*
X123924969Y-63950000D01*
X126740029Y-61134940D01*
X126801350Y-61101457D01*
X126871042Y-61106441D01*
X126900586Y-61122301D01*
X127037211Y-61221564D01*
X127037215Y-61221567D01*
X127213978Y-61300267D01*
X127213983Y-61300269D01*
X127403252Y-61340500D01*
X127596748Y-61340500D01*
X127786017Y-61300269D01*
X127962785Y-61221567D01*
X128119327Y-61107833D01*
X128120581Y-61106441D01*
X128182655Y-61037500D01*
X128248802Y-60964036D01*
X128345550Y-60796463D01*
X128405344Y-60612437D01*
X128425570Y-60420000D01*
X128405344Y-60227563D01*
X128345550Y-60043537D01*
X128248802Y-59875964D01*
X128240278Y-59866497D01*
X128119332Y-59732171D01*
X128119325Y-59732165D01*
X127962789Y-59618435D01*
X127962786Y-59618433D01*
X127962785Y-59618433D01*
X127879482Y-59581344D01*
X127786021Y-59539732D01*
X127786016Y-59539730D01*
X127596748Y-59499500D01*
X127403252Y-59499500D01*
X127213985Y-59539730D01*
X127213981Y-59539731D01*
X127174705Y-59557218D01*
X127105455Y-59566502D01*
X127042179Y-59536873D01*
X127036590Y-59531619D01*
X126127462Y-58622491D01*
X126116187Y-58609535D01*
X126111455Y-58603268D01*
X126077183Y-58572025D01*
X126073060Y-58568089D01*
X126060297Y-58555326D01*
X126060296Y-58555325D01*
X126060294Y-58555323D01*
X126056577Y-58552237D01*
X126048179Y-58545584D01*
X126028433Y-58527584D01*
X126021970Y-58525080D01*
X125996692Y-58511756D01*
X125990981Y-58507844D01*
X125990978Y-58507843D01*
X125990979Y-58507843D01*
X125964983Y-58501728D01*
X125948589Y-58496651D01*
X125923674Y-58487000D01*
X125923673Y-58487000D01*
X125916749Y-58487000D01*
X125888358Y-58483706D01*
X125881619Y-58482121D01*
X125855166Y-58485811D01*
X125838036Y-58487000D01*
X121319860Y-58487000D01*
X121252821Y-58467315D01*
X121207066Y-58414511D01*
X121201588Y-58396342D01*
X121201163Y-58396481D01*
X121198147Y-58387199D01*
X121198146Y-58387197D01*
X121198146Y-58387196D01*
X121140550Y-58274158D01*
X121140546Y-58274154D01*
X121140545Y-58274152D01*
X121050847Y-58184454D01*
X121050844Y-58184452D01*
X121050842Y-58184450D01*
X120974017Y-58145305D01*
X120937801Y-58126852D01*
X120844024Y-58112000D01*
X120380976Y-58112000D01*
X120380974Y-58112001D01*
X120380040Y-58112149D01*
X120379682Y-58112102D01*
X120376120Y-58112383D01*
X120376061Y-58111634D01*
X120310748Y-58103185D01*
X120257302Y-58058181D01*
X120236671Y-57991427D01*
X120255406Y-57924115D01*
X120272974Y-57901995D01*
X121338153Y-56836819D01*
X121399476Y-56803334D01*
X121425834Y-56800500D01*
X125491499Y-56800500D01*
X125558538Y-56820185D01*
X125585211Y-56843296D01*
X125618872Y-56882143D01*
X125739947Y-56959953D01*
X125739950Y-56959954D01*
X125739949Y-56959954D01*
X125878036Y-57000499D01*
X125878038Y-57000500D01*
X125878039Y-57000500D01*
X126021962Y-57000500D01*
X126021962Y-57000499D01*
X126160053Y-56959953D01*
X126281128Y-56882143D01*
X126375377Y-56773373D01*
X126435165Y-56642457D01*
X126450255Y-56537500D01*
X129332401Y-56537500D01*
X129350752Y-56723831D01*
X129350753Y-56723833D01*
X129405104Y-56903002D01*
X129493362Y-57068123D01*
X129493364Y-57068126D01*
X129612142Y-57212857D01*
X129756873Y-57331635D01*
X129756876Y-57331637D01*
X129786006Y-57347207D01*
X129921999Y-57419896D01*
X130101166Y-57474246D01*
X130101168Y-57474247D01*
X130117874Y-57475892D01*
X130287500Y-57492599D01*
X130473831Y-57474247D01*
X130653001Y-57419896D01*
X130818125Y-57331636D01*
X130962857Y-57212857D01*
X131081636Y-57068125D01*
X131169896Y-56903001D01*
X131205424Y-56785882D01*
X134707121Y-56785882D01*
X134710811Y-56812333D01*
X134712000Y-56829464D01*
X134712000Y-79132861D01*
X134710812Y-79149988D01*
X134709727Y-79157765D01*
X134711868Y-79204079D01*
X134712000Y-79209804D01*
X134712000Y-79227842D01*
X134712447Y-79232671D01*
X134713681Y-79243305D01*
X134714915Y-79269992D01*
X134714916Y-79269997D01*
X134717714Y-79276334D01*
X134726164Y-79303620D01*
X134727437Y-79310429D01*
X134727437Y-79310430D01*
X134727439Y-79310433D01*
X134741501Y-79333146D01*
X134749497Y-79348315D01*
X134760294Y-79372765D01*
X134760295Y-79372766D01*
X134760296Y-79372768D01*
X134765189Y-79377661D01*
X134782935Y-79400065D01*
X134786577Y-79405948D01*
X134786579Y-79405950D01*
X134786580Y-79405951D01*
X134786581Y-79405952D01*
X134806180Y-79420752D01*
X134807896Y-79422048D01*
X134820850Y-79433321D01*
X135212851Y-79825322D01*
X135246336Y-79886645D01*
X135241352Y-79956337D01*
X135236171Y-79968274D01*
X135188269Y-80064474D01*
X135188268Y-80064476D01*
X135127385Y-80278461D01*
X135127384Y-80278464D01*
X135106857Y-80499999D01*
X135106857Y-80500000D01*
X135127384Y-80721535D01*
X135127385Y-80721537D01*
X135188269Y-80935523D01*
X135188275Y-80935538D01*
X135287438Y-81134683D01*
X135287443Y-81134691D01*
X135421520Y-81312238D01*
X135585937Y-81462123D01*
X135585939Y-81462125D01*
X135775095Y-81579245D01*
X135775096Y-81579245D01*
X135775099Y-81579247D01*
X135982560Y-81659618D01*
X136201257Y-81700500D01*
X136201259Y-81700500D01*
X136423741Y-81700500D01*
X136423743Y-81700500D01*
X136642440Y-81659618D01*
X136849901Y-81579247D01*
X137039062Y-81462124D01*
X137203481Y-81312236D01*
X137337558Y-81134689D01*
X137436729Y-80935528D01*
X137449522Y-80890564D01*
X137486802Y-80831472D01*
X137550111Y-80801915D01*
X137568788Y-80800500D01*
X142556212Y-80800500D01*
X142623251Y-80820185D01*
X142669006Y-80872989D01*
X142675478Y-80890565D01*
X142688270Y-80935525D01*
X142688274Y-80935534D01*
X142787436Y-81134679D01*
X142787443Y-81134691D01*
X142921520Y-81312238D01*
X143085937Y-81462123D01*
X143085939Y-81462125D01*
X143275095Y-81579245D01*
X143275096Y-81579245D01*
X143275099Y-81579247D01*
X143482560Y-81659618D01*
X143701257Y-81700500D01*
X143701259Y-81700500D01*
X143923741Y-81700500D01*
X143923743Y-81700500D01*
X144142440Y-81659618D01*
X144349901Y-81579247D01*
X144539062Y-81462124D01*
X144703481Y-81312236D01*
X144837558Y-81134689D01*
X144936729Y-80935528D01*
X144997615Y-80721536D01*
X145018143Y-80500000D01*
X144997615Y-80278464D01*
X144936729Y-80064472D01*
X144882884Y-79956337D01*
X144837561Y-79865316D01*
X144837556Y-79865308D01*
X144703479Y-79687761D01*
X144539062Y-79537876D01*
X144539060Y-79537874D01*
X144349904Y-79420754D01*
X144349898Y-79420752D01*
X144142440Y-79340382D01*
X143923743Y-79299500D01*
X143701257Y-79299500D01*
X143482560Y-79340382D01*
X143386332Y-79377661D01*
X143275101Y-79420752D01*
X143275095Y-79420754D01*
X143085939Y-79537874D01*
X143085937Y-79537876D01*
X142921520Y-79687761D01*
X142787443Y-79865308D01*
X142787436Y-79865320D01*
X142688274Y-80064465D01*
X142688270Y-80064474D01*
X142675478Y-80109435D01*
X142638198Y-80168528D01*
X142574889Y-80198085D01*
X142556212Y-80199500D01*
X137568788Y-80199500D01*
X137501749Y-80179815D01*
X137455994Y-80127011D01*
X137449522Y-80109435D01*
X137436730Y-80064476D01*
X137436729Y-80064472D01*
X137349060Y-79888410D01*
X137337563Y-79865320D01*
X137337556Y-79865308D01*
X137203479Y-79687761D01*
X137039062Y-79537876D01*
X137039060Y-79537874D01*
X136849904Y-79420754D01*
X136849898Y-79420752D01*
X136642440Y-79340382D01*
X136423743Y-79299500D01*
X136201257Y-79299500D01*
X135982560Y-79340382D01*
X135775099Y-79420753D01*
X135775097Y-79420753D01*
X135769754Y-79422824D01*
X135769138Y-79421234D01*
X135708117Y-79432092D01*
X135643631Y-79405200D01*
X135633987Y-79396516D01*
X135349319Y-79111848D01*
X135315834Y-79050525D01*
X135313000Y-79024167D01*
X135313000Y-76494141D01*
X135332685Y-76427102D01*
X135385489Y-76381347D01*
X135454647Y-76371403D01*
X135518203Y-76400428D01*
X135520503Y-76402472D01*
X135585938Y-76462124D01*
X135585940Y-76462125D01*
X135585941Y-76462126D01*
X135775095Y-76579245D01*
X135775096Y-76579245D01*
X135775099Y-76579247D01*
X135982560Y-76659618D01*
X136201257Y-76700500D01*
X136201259Y-76700500D01*
X136423741Y-76700500D01*
X136423743Y-76700500D01*
X136642440Y-76659618D01*
X136782352Y-76605415D01*
X136851972Y-76599553D01*
X136913712Y-76632262D01*
X136914824Y-76633361D01*
X138610349Y-78328886D01*
X138626478Y-78348747D01*
X138629107Y-78352772D01*
X138632416Y-78357836D01*
X138635232Y-78360028D01*
X138657393Y-78377276D01*
X138668912Y-78387449D01*
X138668982Y-78387519D01*
X138685889Y-78399590D01*
X138690001Y-78402656D01*
X138731310Y-78434809D01*
X138738222Y-78438549D01*
X138745301Y-78442010D01*
X138795440Y-78456937D01*
X138800322Y-78458501D01*
X138849838Y-78475500D01*
X138857579Y-78476791D01*
X138865409Y-78477767D01*
X138865411Y-78477768D01*
X138865412Y-78477767D01*
X138865413Y-78477768D01*
X138903512Y-78476192D01*
X138917692Y-78475605D01*
X138922815Y-78475500D01*
X156848196Y-78475500D01*
X156873641Y-78478139D01*
X156876724Y-78478785D01*
X156884268Y-78480367D01*
X156915676Y-78476451D01*
X156931014Y-78475500D01*
X156931112Y-78475500D01*
X156931114Y-78475500D01*
X156951643Y-78472073D01*
X156956673Y-78471341D01*
X157008626Y-78464866D01*
X157008628Y-78464864D01*
X157016141Y-78462628D01*
X157023606Y-78460066D01*
X157023606Y-78460065D01*
X157023610Y-78460065D01*
X157063368Y-78438549D01*
X157069636Y-78435157D01*
X157074193Y-78432812D01*
X157089102Y-78425522D01*
X157121211Y-78409826D01*
X157121213Y-78409823D01*
X157127594Y-78405268D01*
X157133820Y-78400421D01*
X157133826Y-78400419D01*
X157169293Y-78361890D01*
X157172795Y-78358240D01*
X158294217Y-77236819D01*
X158355540Y-77203334D01*
X158381898Y-77200500D01*
X159654270Y-77200500D01*
X159684699Y-77197646D01*
X159684701Y-77197646D01*
X159748790Y-77175219D01*
X159812882Y-77152793D01*
X159922150Y-77072150D01*
X160002793Y-76962882D01*
X160027443Y-76892437D01*
X160047646Y-76834701D01*
X160047646Y-76834699D01*
X160050500Y-76804269D01*
X160050500Y-75195730D01*
X160047646Y-75165300D01*
X160047646Y-75165298D01*
X160012366Y-75064476D01*
X160002793Y-75037118D01*
X159922150Y-74927850D01*
X159812882Y-74847207D01*
X159812880Y-74847206D01*
X159684700Y-74802353D01*
X159654270Y-74799500D01*
X159654266Y-74799500D01*
X158345734Y-74799500D01*
X158345730Y-74799500D01*
X158315300Y-74802353D01*
X158315298Y-74802353D01*
X158187119Y-74847206D01*
X158187117Y-74847207D01*
X158077850Y-74927850D01*
X157997207Y-75037117D01*
X157997206Y-75037119D01*
X157952353Y-75165298D01*
X157952353Y-75165300D01*
X157949500Y-75195730D01*
X157949500Y-75204763D01*
X157929815Y-75271802D01*
X157877011Y-75317557D01*
X157807853Y-75327501D01*
X157744297Y-75298476D01*
X157713118Y-75257168D01*
X157673600Y-75172422D01*
X157673599Y-75172420D01*
X157538113Y-74978926D01*
X157538108Y-74978920D01*
X157371082Y-74811894D01*
X157177578Y-74676399D01*
X156963492Y-74576570D01*
X156963486Y-74576567D01*
X156750000Y-74519364D01*
X156750000Y-75564498D01*
X156642315Y-75515320D01*
X156535763Y-75500000D01*
X156464237Y-75500000D01*
X156357685Y-75515320D01*
X156250000Y-75564498D01*
X156250000Y-74519364D01*
X156249999Y-74519364D01*
X156036513Y-74576567D01*
X156036507Y-74576570D01*
X155822422Y-74676399D01*
X155822420Y-74676400D01*
X155628926Y-74811886D01*
X155628920Y-74811891D01*
X155461891Y-74978920D01*
X155461886Y-74978926D01*
X155326400Y-75172420D01*
X155326399Y-75172422D01*
X155226570Y-75386507D01*
X155226566Y-75386516D01*
X155165432Y-75614673D01*
X155165430Y-75614684D01*
X155153592Y-75749999D01*
X155153593Y-75750000D01*
X156066314Y-75750000D01*
X156040507Y-75790156D01*
X156000000Y-75928111D01*
X156000000Y-76071889D01*
X156040507Y-76209844D01*
X156066314Y-76250000D01*
X155153592Y-76250000D01*
X155165430Y-76385315D01*
X155165432Y-76385326D01*
X155226566Y-76613483D01*
X155226570Y-76613492D01*
X155326399Y-76827577D01*
X155461886Y-77021073D01*
X155461891Y-77021079D01*
X155628917Y-77188105D01*
X155822421Y-77323600D01*
X156036507Y-77423429D01*
X156036516Y-77423433D01*
X156250333Y-77480725D01*
X156309994Y-77517090D01*
X156340523Y-77579937D01*
X156332228Y-77649312D01*
X156287743Y-77703190D01*
X156221191Y-77724465D01*
X156218240Y-77724500D01*
X139119399Y-77724500D01*
X139052360Y-77704815D01*
X139031718Y-77688181D01*
X137447406Y-76103869D01*
X137413921Y-76042546D01*
X137418905Y-75972854D01*
X137424087Y-75960915D01*
X137424156Y-75960777D01*
X137436729Y-75935528D01*
X137497615Y-75721536D01*
X137518143Y-75500000D01*
X142606857Y-75500000D01*
X142627384Y-75721535D01*
X142627385Y-75721537D01*
X142688269Y-75935523D01*
X142688275Y-75935538D01*
X142787438Y-76134683D01*
X142787443Y-76134691D01*
X142921520Y-76312238D01*
X143085937Y-76462123D01*
X143085939Y-76462125D01*
X143275095Y-76579245D01*
X143275096Y-76579245D01*
X143275099Y-76579247D01*
X143482560Y-76659618D01*
X143701257Y-76700500D01*
X143701259Y-76700500D01*
X143923741Y-76700500D01*
X143923743Y-76700500D01*
X144142440Y-76659618D01*
X144349901Y-76579247D01*
X144539062Y-76462124D01*
X144678782Y-76334751D01*
X144703479Y-76312238D01*
X144750481Y-76249998D01*
X144837558Y-76134689D01*
X144936729Y-75935528D01*
X144997615Y-75721536D01*
X145018143Y-75500000D01*
X145007626Y-75386507D01*
X144997615Y-75278464D01*
X144997614Y-75278462D01*
X144991555Y-75257168D01*
X144936729Y-75064472D01*
X144932989Y-75056961D01*
X144837561Y-74865316D01*
X144837556Y-74865308D01*
X144703479Y-74687761D01*
X144539062Y-74537876D01*
X144539060Y-74537874D01*
X144349904Y-74420754D01*
X144349898Y-74420752D01*
X144347740Y-74419916D01*
X144142440Y-74340382D01*
X143923743Y-74299500D01*
X143701257Y-74299500D01*
X143482560Y-74340382D01*
X143351364Y-74391207D01*
X143275101Y-74420752D01*
X143275095Y-74420754D01*
X143085939Y-74537874D01*
X143085937Y-74537876D01*
X142921520Y-74687761D01*
X142787443Y-74865308D01*
X142787438Y-74865316D01*
X142688275Y-75064461D01*
X142688269Y-75064476D01*
X142627385Y-75278462D01*
X142627384Y-75278464D01*
X142606857Y-75499999D01*
X142606857Y-75500000D01*
X137518143Y-75500000D01*
X137507626Y-75386507D01*
X137497615Y-75278464D01*
X137497614Y-75278462D01*
X137491555Y-75257168D01*
X137436729Y-75064472D01*
X137432989Y-75056961D01*
X137337561Y-74865316D01*
X137337556Y-74865308D01*
X137203479Y-74687761D01*
X137039062Y-74537876D01*
X137039060Y-74537874D01*
X136849904Y-74420754D01*
X136849898Y-74420752D01*
X136847740Y-74419916D01*
X136642440Y-74340382D01*
X136423743Y-74299500D01*
X136201257Y-74299500D01*
X135982560Y-74340382D01*
X135851364Y-74391207D01*
X135775101Y-74420752D01*
X135775095Y-74420754D01*
X135585941Y-74537873D01*
X135520538Y-74597496D01*
X135457734Y-74628112D01*
X135388346Y-74619914D01*
X135334407Y-74575504D01*
X135313039Y-74508982D01*
X135313000Y-74505858D01*
X135313000Y-71872762D01*
X135332685Y-71805723D01*
X135385489Y-71759968D01*
X135454647Y-71750024D01*
X135496018Y-71763707D01*
X135707890Y-71878367D01*
X135707896Y-71878369D01*
X135943006Y-71959083D01*
X136188207Y-72000000D01*
X136436793Y-72000000D01*
X136681993Y-71959083D01*
X136917103Y-71878369D01*
X136917114Y-71878364D01*
X137135728Y-71760057D01*
X137135731Y-71760055D01*
X137182556Y-71723609D01*
X136560033Y-71101086D01*
X136628129Y-71074126D01*
X136760992Y-70977595D01*
X136865675Y-70851055D01*
X136914131Y-70748079D01*
X137535934Y-71369882D01*
X137636231Y-71216369D01*
X137736087Y-70988717D01*
X137797112Y-70747738D01*
X137797114Y-70747729D01*
X137817641Y-70500005D01*
X142307359Y-70500005D01*
X142327885Y-70747729D01*
X142327887Y-70747738D01*
X142388912Y-70988717D01*
X142488766Y-71216364D01*
X142589064Y-71369882D01*
X143209952Y-70748993D01*
X143219688Y-70778956D01*
X143307686Y-70917619D01*
X143427403Y-71030040D01*
X143562010Y-71104041D01*
X142942442Y-71723609D01*
X142989268Y-71760055D01*
X142989270Y-71760056D01*
X143207885Y-71878364D01*
X143207896Y-71878369D01*
X143443006Y-71959083D01*
X143688207Y-72000000D01*
X143936793Y-72000000D01*
X144181993Y-71959083D01*
X144417103Y-71878369D01*
X144417114Y-71878364D01*
X144635728Y-71760057D01*
X144635731Y-71760055D01*
X144682556Y-71723609D01*
X144060033Y-71101086D01*
X144128129Y-71074126D01*
X144260992Y-70977595D01*
X144365675Y-70851055D01*
X144414131Y-70748079D01*
X145035934Y-71369882D01*
X145136231Y-71216369D01*
X145236087Y-70988717D01*
X145297112Y-70747738D01*
X145297114Y-70747729D01*
X145317641Y-70500005D01*
X145317641Y-70499994D01*
X145297114Y-70252270D01*
X145297112Y-70252261D01*
X145236087Y-70011282D01*
X145136231Y-69783630D01*
X145035934Y-69630116D01*
X144415046Y-70251004D01*
X144405312Y-70221044D01*
X144317314Y-70082381D01*
X144197597Y-69969960D01*
X144062989Y-69895958D01*
X144682557Y-69276390D01*
X144682556Y-69276389D01*
X144635729Y-69239943D01*
X144417114Y-69121635D01*
X144417103Y-69121630D01*
X144181993Y-69040916D01*
X143936793Y-69000000D01*
X143688207Y-69000000D01*
X143443006Y-69040916D01*
X143207896Y-69121630D01*
X143207890Y-69121632D01*
X142989261Y-69239949D01*
X142942442Y-69276388D01*
X142942442Y-69276390D01*
X143564965Y-69898913D01*
X143496871Y-69925874D01*
X143364008Y-70022405D01*
X143259325Y-70148945D01*
X143210868Y-70251920D01*
X142589064Y-69630116D01*
X142488767Y-69783632D01*
X142388912Y-70011282D01*
X142327887Y-70252261D01*
X142327885Y-70252270D01*
X142307359Y-70499994D01*
X142307359Y-70500005D01*
X137817641Y-70500005D01*
X137817641Y-70499994D01*
X137797114Y-70252270D01*
X137797112Y-70252261D01*
X137736087Y-70011282D01*
X137636231Y-69783630D01*
X137535934Y-69630116D01*
X136915046Y-70251004D01*
X136905312Y-70221044D01*
X136817314Y-70082381D01*
X136697597Y-69969960D01*
X136562988Y-69895957D01*
X137182557Y-69276389D01*
X137135729Y-69239943D01*
X136917114Y-69121635D01*
X136917103Y-69121630D01*
X136681993Y-69040916D01*
X136436793Y-69000000D01*
X136188207Y-69000000D01*
X135943006Y-69040916D01*
X135707896Y-69121630D01*
X135707885Y-69121635D01*
X135496017Y-69236292D01*
X135427689Y-69250887D01*
X135362317Y-69226224D01*
X135320656Y-69170133D01*
X135313000Y-69127237D01*
X135313000Y-67426604D01*
X152949500Y-67426604D01*
X152964699Y-67580932D01*
X152964700Y-67580934D01*
X153024768Y-67778954D01*
X153122315Y-67961450D01*
X153122317Y-67961452D01*
X153253589Y-68121410D01*
X153334584Y-68187880D01*
X153413550Y-68252685D01*
X153596046Y-68350232D01*
X153794066Y-68410300D01*
X153794065Y-68410300D01*
X153812529Y-68412118D01*
X154000000Y-68430583D01*
X154205934Y-68410300D01*
X154403954Y-68350232D01*
X154586450Y-68252685D01*
X154746410Y-68121410D01*
X154877685Y-67961450D01*
X154975232Y-67778954D01*
X155035300Y-67580934D01*
X155050500Y-67426608D01*
X155050500Y-67426604D01*
X155449500Y-67426604D01*
X155464699Y-67580932D01*
X155464700Y-67580934D01*
X155524768Y-67778954D01*
X155622315Y-67961450D01*
X155622317Y-67961452D01*
X155753589Y-68121410D01*
X155834584Y-68187880D01*
X155913550Y-68252685D01*
X156096046Y-68350232D01*
X156294066Y-68410300D01*
X156294065Y-68410300D01*
X156312529Y-68412118D01*
X156500000Y-68430583D01*
X156705934Y-68410300D01*
X156903954Y-68350232D01*
X157086450Y-68252685D01*
X157246410Y-68121410D01*
X157377685Y-67961450D01*
X157475232Y-67778954D01*
X157535300Y-67580934D01*
X157550500Y-67426608D01*
X157550500Y-67073392D01*
X157535300Y-66919066D01*
X157475232Y-66721046D01*
X157377685Y-66538550D01*
X157297052Y-66440298D01*
X157246410Y-66378589D01*
X157086452Y-66247317D01*
X157086453Y-66247317D01*
X157086450Y-66247315D01*
X156903954Y-66149768D01*
X156705934Y-66089700D01*
X156705932Y-66089699D01*
X156705934Y-66089699D01*
X156500000Y-66069417D01*
X156294067Y-66089699D01*
X156096043Y-66149769D01*
X155996737Y-66202850D01*
X155913550Y-66247315D01*
X155913548Y-66247316D01*
X155913547Y-66247317D01*
X155753589Y-66378589D01*
X155622317Y-66538547D01*
X155622315Y-66538550D01*
X155610535Y-66560589D01*
X155524769Y-66721043D01*
X155464699Y-66919067D01*
X155449500Y-67073395D01*
X155449500Y-67426604D01*
X155050500Y-67426604D01*
X155050500Y-67073392D01*
X155035300Y-66919066D01*
X154975232Y-66721046D01*
X154877685Y-66538550D01*
X154797052Y-66440298D01*
X154746410Y-66378589D01*
X154586452Y-66247317D01*
X154586453Y-66247317D01*
X154586450Y-66247315D01*
X154403954Y-66149768D01*
X154205934Y-66089700D01*
X154205932Y-66089699D01*
X154205934Y-66089699D01*
X154000000Y-66069417D01*
X153794067Y-66089699D01*
X153596043Y-66149769D01*
X153496737Y-66202850D01*
X153413550Y-66247315D01*
X153413548Y-66247316D01*
X153413547Y-66247317D01*
X153253589Y-66378589D01*
X153122317Y-66538547D01*
X153122315Y-66538550D01*
X153110535Y-66560589D01*
X153024769Y-66721043D01*
X152964699Y-66919067D01*
X152949500Y-67073395D01*
X152949500Y-67426604D01*
X135313000Y-67426604D01*
X135313000Y-61269017D01*
X140612000Y-61269017D01*
X140616950Y-61300269D01*
X140626854Y-61362804D01*
X140684450Y-61475842D01*
X140684452Y-61475844D01*
X140684454Y-61475847D01*
X140774152Y-61565545D01*
X140774154Y-61565546D01*
X140774158Y-61565550D01*
X140887196Y-61623146D01*
X140887198Y-61623147D01*
X140896480Y-61626163D01*
X140895662Y-61628677D01*
X140945519Y-61652303D01*
X140982459Y-61711609D01*
X140987000Y-61744859D01*
X140987000Y-63620361D01*
X140985812Y-63637488D01*
X140984727Y-63645265D01*
X140986868Y-63691579D01*
X140987000Y-63697304D01*
X140987000Y-63715342D01*
X140987447Y-63720171D01*
X140988681Y-63730805D01*
X140989915Y-63757492D01*
X140989916Y-63757497D01*
X140992714Y-63763834D01*
X141001164Y-63791120D01*
X141002437Y-63797929D01*
X141002437Y-63797930D01*
X141002439Y-63797933D01*
X141016501Y-63820646D01*
X141024497Y-63835815D01*
X141035294Y-63860265D01*
X141035295Y-63860266D01*
X141035296Y-63860268D01*
X141040189Y-63865161D01*
X141057935Y-63887565D01*
X141061577Y-63893448D01*
X141061579Y-63893450D01*
X141061580Y-63893451D01*
X141061581Y-63893452D01*
X141077632Y-63905573D01*
X141082896Y-63909548D01*
X141095850Y-63920821D01*
X141840042Y-64665014D01*
X141851313Y-64677966D01*
X141856039Y-64684225D01*
X141856041Y-64684227D01*
X141856042Y-64684228D01*
X141870861Y-64697737D01*
X141890306Y-64715464D01*
X141894447Y-64719419D01*
X141907201Y-64732173D01*
X141910942Y-64735279D01*
X141919334Y-64741927D01*
X141939062Y-64759912D01*
X141939065Y-64759914D01*
X141939067Y-64759916D01*
X141945523Y-64762417D01*
X141970807Y-64775743D01*
X141976520Y-64779657D01*
X142002516Y-64785770D01*
X142018920Y-64790851D01*
X142043826Y-64800500D01*
X142043827Y-64800500D01*
X142050753Y-64800500D01*
X142079141Y-64803793D01*
X142085882Y-64805379D01*
X142109660Y-64802062D01*
X142112336Y-64801689D01*
X142129466Y-64800500D01*
X144882862Y-64800500D01*
X144899990Y-64801689D01*
X144907761Y-64802772D01*
X144907761Y-64802771D01*
X144907765Y-64802773D01*
X144954080Y-64800632D01*
X144959805Y-64800500D01*
X144977843Y-64800500D01*
X144977844Y-64800500D01*
X144977844Y-64800499D01*
X144982731Y-64800046D01*
X144993318Y-64798817D01*
X145019992Y-64797585D01*
X145026322Y-64794789D01*
X145053629Y-64786332D01*
X145060433Y-64785061D01*
X145060435Y-64785059D01*
X145060437Y-64785059D01*
X145083138Y-64771003D01*
X145098325Y-64762996D01*
X145122765Y-64752206D01*
X145127661Y-64747309D01*
X145150069Y-64729561D01*
X145155952Y-64725919D01*
X145172053Y-64704595D01*
X145183314Y-64691655D01*
X145277511Y-64597458D01*
X145290463Y-64586188D01*
X145296723Y-64581460D01*
X145296728Y-64581458D01*
X145327988Y-64547166D01*
X145331902Y-64543067D01*
X145344674Y-64530297D01*
X145344675Y-64530296D01*
X145347782Y-64526554D01*
X145354416Y-64518176D01*
X145372416Y-64498433D01*
X145374916Y-64491978D01*
X145388250Y-64466683D01*
X145392157Y-64460980D01*
X145398275Y-64434967D01*
X145403348Y-64418586D01*
X145413000Y-64393673D01*
X145413000Y-64386748D01*
X145416295Y-64358355D01*
X145417878Y-64351623D01*
X145417879Y-64351619D01*
X145414189Y-64325165D01*
X145413000Y-64308035D01*
X145413000Y-63786771D01*
X145432685Y-63719732D01*
X145480703Y-63676287D01*
X145550842Y-63640550D01*
X145640550Y-63550842D01*
X145698146Y-63437804D01*
X145698146Y-63437802D01*
X145698147Y-63437801D01*
X145709803Y-63364206D01*
X145713000Y-63344019D01*
X145712999Y-62730982D01*
X145698146Y-62637196D01*
X145640550Y-62524158D01*
X145640546Y-62524154D01*
X145640545Y-62524152D01*
X145578451Y-62462058D01*
X145544966Y-62400735D01*
X145542132Y-62374377D01*
X145542132Y-61767997D01*
X145561817Y-61700958D01*
X145594082Y-61667077D01*
X145598109Y-61664200D01*
X145598115Y-61664198D01*
X145680830Y-61581483D01*
X145732205Y-61476393D01*
X145742132Y-61408260D01*
X145742132Y-60166740D01*
X145732205Y-60098607D01*
X145680830Y-59993517D01*
X145680828Y-59993515D01*
X145680828Y-59993514D01*
X145598117Y-59910803D01*
X145493023Y-59859426D01*
X145424893Y-59849500D01*
X145424892Y-59849500D01*
X145058372Y-59849500D01*
X145058371Y-59849500D01*
X144990240Y-59859426D01*
X144885146Y-59910803D01*
X144802435Y-59993514D01*
X144751058Y-60098608D01*
X144741132Y-60166739D01*
X144741132Y-61408260D01*
X144751058Y-61476391D01*
X144802435Y-61581485D01*
X144885144Y-61664194D01*
X144885147Y-61664196D01*
X144885149Y-61664198D01*
X144885150Y-61664198D01*
X144889182Y-61667077D01*
X144932306Y-61722051D01*
X144941132Y-61767997D01*
X144941132Y-62246567D01*
X144921447Y-62313606D01*
X144868643Y-62359361D01*
X144836529Y-62369040D01*
X144787200Y-62376852D01*
X144787199Y-62376852D01*
X144740327Y-62400735D01*
X144674158Y-62434450D01*
X144674157Y-62434451D01*
X144674152Y-62434454D01*
X144584454Y-62524152D01*
X144584450Y-62524157D01*
X144559505Y-62573114D01*
X144511529Y-62623909D01*
X144443708Y-62640703D01*
X144377574Y-62618164D01*
X144334123Y-62563448D01*
X144330635Y-62553707D01*
X144305517Y-62473100D01*
X144217572Y-62327622D01*
X144097377Y-62207427D01*
X143951898Y-62119482D01*
X143928316Y-62112133D01*
X143870169Y-62073394D01*
X143842197Y-62009368D01*
X143853280Y-61940383D01*
X143889218Y-61895762D01*
X143893191Y-61892680D01*
X144009310Y-61776561D01*
X144009317Y-61776552D01*
X144092914Y-61635196D01*
X144092915Y-61635193D01*
X144138731Y-61477495D01*
X144138732Y-61477489D01*
X144141631Y-61440649D01*
X144141632Y-61440634D01*
X144141632Y-61037500D01*
X143591632Y-61037500D01*
X143591632Y-62019500D01*
X143592933Y-62020801D01*
X143655539Y-62039185D01*
X143701294Y-62091989D01*
X143712500Y-62143500D01*
X143712500Y-63163500D01*
X143692815Y-63230539D01*
X143640011Y-63276294D01*
X143588500Y-63287500D01*
X142562501Y-63287500D01*
X142562501Y-63369082D01*
X142568908Y-63439602D01*
X142568909Y-63439607D01*
X142619481Y-63601896D01*
X142707427Y-63747377D01*
X142827622Y-63867572D01*
X142973101Y-63955517D01*
X142978224Y-63957114D01*
X143036372Y-63995851D01*
X143064347Y-64059876D01*
X143053266Y-64128862D01*
X143006648Y-64180905D01*
X142941335Y-64199500D01*
X142275833Y-64199500D01*
X142208794Y-64179815D01*
X142188152Y-64163181D01*
X141624319Y-63599348D01*
X141590834Y-63538025D01*
X141588000Y-63511667D01*
X141588000Y-61744859D01*
X141607685Y-61677820D01*
X141660489Y-61632065D01*
X141678657Y-61626589D01*
X141678519Y-61626163D01*
X141687800Y-61623147D01*
X141687801Y-61623146D01*
X141687804Y-61623146D01*
X141800842Y-61565550D01*
X141890550Y-61475842D01*
X141948146Y-61362804D01*
X141948146Y-61362802D01*
X141948147Y-61362801D01*
X141962999Y-61269024D01*
X141963000Y-61269019D01*
X141962999Y-61037500D01*
X142541632Y-61037500D01*
X142541632Y-61440649D01*
X142544531Y-61477489D01*
X142544532Y-61477495D01*
X142590348Y-61635193D01*
X142590349Y-61635196D01*
X142673946Y-61776552D01*
X142673953Y-61776561D01*
X142790070Y-61892678D01*
X142790079Y-61892685D01*
X142893737Y-61953988D01*
X142941420Y-62005057D01*
X142953924Y-62073799D01*
X142927279Y-62138388D01*
X142894767Y-62166836D01*
X142827625Y-62207425D01*
X142827621Y-62207428D01*
X142707427Y-62327622D01*
X142619480Y-62473104D01*
X142568909Y-62635393D01*
X142562500Y-62705927D01*
X142562500Y-62787500D01*
X143212500Y-62787500D01*
X143212500Y-62068000D01*
X143211198Y-62066698D01*
X143148593Y-62048315D01*
X143102838Y-61995511D01*
X143091632Y-61944000D01*
X143091632Y-61037500D01*
X142541632Y-61037500D01*
X141962999Y-61037500D01*
X141962999Y-60805982D01*
X141948146Y-60712196D01*
X141890550Y-60599158D01*
X141890546Y-60599154D01*
X141890545Y-60599152D01*
X141828893Y-60537500D01*
X142541632Y-60537500D01*
X143091632Y-60537500D01*
X143091632Y-59552703D01*
X143089135Y-59552900D01*
X142931438Y-59598716D01*
X142931435Y-59598717D01*
X142790079Y-59682314D01*
X142790070Y-59682321D01*
X142673953Y-59798438D01*
X142673946Y-59798447D01*
X142590349Y-59939803D01*
X142590348Y-59939806D01*
X142544532Y-60097504D01*
X142544531Y-60097510D01*
X142541632Y-60134350D01*
X142541632Y-60537500D01*
X141828893Y-60537500D01*
X141800847Y-60509454D01*
X141800844Y-60509452D01*
X141800842Y-60509450D01*
X141724017Y-60470305D01*
X141687801Y-60451852D01*
X141594024Y-60437000D01*
X140980982Y-60437000D01*
X140900019Y-60449823D01*
X140887196Y-60451854D01*
X140774158Y-60509450D01*
X140774157Y-60509451D01*
X140774152Y-60509454D01*
X140684454Y-60599152D01*
X140684451Y-60599157D01*
X140626852Y-60712198D01*
X140612000Y-60805975D01*
X140612000Y-61269017D01*
X135313000Y-61269017D01*
X135313000Y-59619017D01*
X140612000Y-59619017D01*
X140617350Y-59652793D01*
X140626854Y-59712804D01*
X140684450Y-59825842D01*
X140684452Y-59825844D01*
X140684454Y-59825847D01*
X140774152Y-59915545D01*
X140774154Y-59915546D01*
X140774158Y-59915550D01*
X140886749Y-59972918D01*
X140887198Y-59973147D01*
X140980975Y-59987999D01*
X140980981Y-59988000D01*
X141594018Y-59987999D01*
X141687804Y-59973146D01*
X141800842Y-59915550D01*
X141890550Y-59825842D01*
X141948146Y-59712804D01*
X141948146Y-59712802D01*
X141948147Y-59712801D01*
X141962999Y-59619024D01*
X141963000Y-59619019D01*
X141962999Y-59155982D01*
X141948146Y-59062196D01*
X141890550Y-58949158D01*
X141890546Y-58949154D01*
X141890545Y-58949152D01*
X141800847Y-58859454D01*
X141800844Y-58859452D01*
X141800842Y-58859450D01*
X141724017Y-58820305D01*
X141687801Y-58801852D01*
X141594024Y-58787000D01*
X141594019Y-58787000D01*
X141517503Y-58787000D01*
X141482569Y-58781977D01*
X141427224Y-58765726D01*
X141371962Y-58749500D01*
X141371961Y-58749500D01*
X141228039Y-58749500D01*
X141228037Y-58749500D01*
X141117427Y-58781977D01*
X141082494Y-58787000D01*
X140980982Y-58787000D01*
X140900019Y-58799823D01*
X140887196Y-58801854D01*
X140774158Y-58859450D01*
X140774157Y-58859451D01*
X140774152Y-58859454D01*
X140684454Y-58949152D01*
X140684451Y-58949157D01*
X140626852Y-59062198D01*
X140612000Y-59155975D01*
X140612000Y-59619017D01*
X135313000Y-59619017D01*
X135313000Y-56975833D01*
X135332685Y-56908794D01*
X135349319Y-56888152D01*
X135500652Y-56736819D01*
X135561975Y-56703334D01*
X135588333Y-56700500D01*
X137332250Y-56700500D01*
X137332251Y-56700499D01*
X137347068Y-56697552D01*
X137390729Y-56688868D01*
X137390729Y-56688867D01*
X137390731Y-56688867D01*
X137457052Y-56644552D01*
X137501367Y-56578231D01*
X137501367Y-56578229D01*
X137501368Y-56578229D01*
X137512999Y-56519752D01*
X137513000Y-56519750D01*
X137513000Y-55924500D01*
X137532685Y-55857461D01*
X137585489Y-55811706D01*
X137637000Y-55800500D01*
X139191087Y-55800500D01*
X139258126Y-55820185D01*
X139283713Y-55844776D01*
X139284082Y-55844408D01*
X139291753Y-55852079D01*
X139372921Y-55933247D01*
X139476955Y-55981759D01*
X139524361Y-55988000D01*
X139850638Y-55987999D01*
X139898045Y-55981759D01*
X140002079Y-55933247D01*
X140083247Y-55852079D01*
X140131759Y-55748045D01*
X140138000Y-55700639D01*
X140138000Y-55700632D01*
X141437000Y-55700632D01*
X141437001Y-55700638D01*
X141443241Y-55748045D01*
X141443242Y-55748047D01*
X141443242Y-55748048D01*
X141485188Y-55838000D01*
X141491753Y-55852079D01*
X141572921Y-55933247D01*
X141676955Y-55981759D01*
X141724361Y-55988000D01*
X142050638Y-55987999D01*
X142098045Y-55981759D01*
X142202079Y-55933247D01*
X142261008Y-55874318D01*
X142322332Y-55840834D01*
X142348689Y-55838000D01*
X142566881Y-55838000D01*
X142633920Y-55857685D01*
X142679675Y-55910489D01*
X142686147Y-55928066D01*
X142688268Y-55935523D01*
X142688271Y-55935529D01*
X142787438Y-56134683D01*
X142787443Y-56134691D01*
X142921520Y-56312238D01*
X143085937Y-56462123D01*
X143085939Y-56462125D01*
X143275095Y-56579245D01*
X143275096Y-56579245D01*
X143275099Y-56579247D01*
X143482560Y-56659618D01*
X143701257Y-56700500D01*
X143701259Y-56700500D01*
X143867132Y-56700500D01*
X143934171Y-56720185D01*
X143979926Y-56772989D01*
X143991132Y-56824500D01*
X143991132Y-57932002D01*
X143971447Y-57999041D01*
X143939187Y-58032918D01*
X143935148Y-58035801D01*
X143852435Y-58118514D01*
X143801058Y-58223608D01*
X143791132Y-58291739D01*
X143791132Y-59444983D01*
X143771447Y-59512022D01*
X143718643Y-59557777D01*
X143649485Y-59567721D01*
X143632539Y-59564060D01*
X143594126Y-59552900D01*
X143591632Y-59552703D01*
X143591632Y-60537500D01*
X144141632Y-60537500D01*
X144141632Y-60134365D01*
X144141631Y-60134350D01*
X144138732Y-60097510D01*
X144138731Y-60097504D01*
X144113046Y-60009095D01*
X144113245Y-59939225D01*
X144151187Y-59880555D01*
X144214826Y-59851712D01*
X144232122Y-59850500D01*
X144474893Y-59850500D01*
X144497603Y-59847191D01*
X144543025Y-59840573D01*
X144648115Y-59789198D01*
X144730830Y-59706483D01*
X144782205Y-59601393D01*
X144792132Y-59533260D01*
X144792132Y-58291740D01*
X144782205Y-58223607D01*
X144730830Y-58118517D01*
X144730828Y-58118515D01*
X144730828Y-58118514D01*
X144648115Y-58035801D01*
X144644077Y-58032918D01*
X144600956Y-57977942D01*
X144592132Y-57932002D01*
X144592132Y-56468495D01*
X144611817Y-56401456D01*
X144632594Y-56376858D01*
X144635546Y-56374167D01*
X144703481Y-56312236D01*
X144837558Y-56134689D01*
X144936729Y-55935528D01*
X144997615Y-55721536D01*
X145018143Y-55500000D01*
X144997615Y-55278464D01*
X144936729Y-55064472D01*
X144936724Y-55064461D01*
X144837561Y-54865316D01*
X144837556Y-54865308D01*
X144703479Y-54687761D01*
X144539062Y-54537876D01*
X144539060Y-54537874D01*
X144349904Y-54420754D01*
X144349898Y-54420752D01*
X144142440Y-54340382D01*
X143923743Y-54299500D01*
X143701257Y-54299500D01*
X143482560Y-54340382D01*
X143351364Y-54391207D01*
X143275101Y-54420752D01*
X143275095Y-54420754D01*
X143085939Y-54537874D01*
X143085937Y-54537876D01*
X142921520Y-54687761D01*
X142787443Y-54865308D01*
X142787438Y-54865316D01*
X142688271Y-55064470D01*
X142688268Y-55064476D01*
X142664808Y-55146934D01*
X142627529Y-55206027D01*
X142564220Y-55235585D01*
X142545542Y-55237000D01*
X142348689Y-55237000D01*
X142281650Y-55217315D01*
X142261008Y-55200682D01*
X142232826Y-55172500D01*
X142202079Y-55141753D01*
X142098045Y-55093241D01*
X142098043Y-55093240D01*
X142098044Y-55093240D01*
X142050640Y-55087000D01*
X141724367Y-55087000D01*
X141709339Y-55088978D01*
X141676955Y-55093241D01*
X141676953Y-55093242D01*
X141676951Y-55093242D01*
X141572920Y-55141753D01*
X141491753Y-55222920D01*
X141443240Y-55326956D01*
X141437000Y-55374359D01*
X141437000Y-55700632D01*
X140138000Y-55700632D01*
X140137999Y-55374362D01*
X140131759Y-55326955D01*
X140083247Y-55222921D01*
X140002079Y-55141753D01*
X139898045Y-55093241D01*
X139898043Y-55093240D01*
X139898044Y-55093240D01*
X139850640Y-55087000D01*
X139524367Y-55087000D01*
X139509339Y-55088978D01*
X139476955Y-55093241D01*
X139476953Y-55093242D01*
X139476951Y-55093242D01*
X139372920Y-55141753D01*
X139351493Y-55163181D01*
X139290170Y-55196666D01*
X139263812Y-55199500D01*
X137637000Y-55199500D01*
X137569961Y-55179815D01*
X137524206Y-55127011D01*
X137513000Y-55075500D01*
X137513000Y-54480249D01*
X137512999Y-54480247D01*
X137501368Y-54421770D01*
X137501367Y-54421769D01*
X137457052Y-54355447D01*
X137390730Y-54311132D01*
X137390729Y-54311131D01*
X137332252Y-54299500D01*
X137332248Y-54299500D01*
X136826304Y-54299500D01*
X136759265Y-54279815D01*
X136713510Y-54227011D01*
X136703566Y-54157853D01*
X136732591Y-54094297D01*
X136738623Y-54087819D01*
X137728590Y-53097852D01*
X147663204Y-43163236D01*
X147724525Y-43129753D01*
X147794217Y-43134737D01*
X147850150Y-43176609D01*
X147863676Y-43199405D01*
X147874621Y-43223369D01*
X147874623Y-43223373D01*
X147968872Y-43332143D01*
X147968875Y-43332144D01*
X147969213Y-43332535D01*
X147998238Y-43396091D01*
X147999500Y-43413738D01*
X147999500Y-56482861D01*
X147998312Y-56499988D01*
X147997227Y-56507765D01*
X147999368Y-56554079D01*
X147999500Y-56559804D01*
X147999500Y-56577842D01*
X147999947Y-56582671D01*
X148001181Y-56593305D01*
X148002415Y-56619992D01*
X148002416Y-56619997D01*
X148005214Y-56626334D01*
X148013664Y-56653620D01*
X148014937Y-56660429D01*
X148014937Y-56660430D01*
X148014939Y-56660433D01*
X148029001Y-56683146D01*
X148036997Y-56698315D01*
X148047794Y-56722765D01*
X148047795Y-56722766D01*
X148047796Y-56722768D01*
X148052689Y-56727661D01*
X148070435Y-56750065D01*
X148074077Y-56755948D01*
X148074079Y-56755950D01*
X148074080Y-56755951D01*
X148074081Y-56755952D01*
X148086244Y-56765137D01*
X148095396Y-56772048D01*
X148108350Y-56783321D01*
X157913181Y-66588152D01*
X157946666Y-66649475D01*
X157949500Y-66675833D01*
X157949500Y-68029269D01*
X157952353Y-68059699D01*
X157952353Y-68059701D01*
X157997206Y-68187880D01*
X157997207Y-68187882D01*
X158077850Y-68297150D01*
X158187118Y-68377793D01*
X158229845Y-68392744D01*
X158315299Y-68422646D01*
X158345730Y-68425500D01*
X158345734Y-68425500D01*
X159654270Y-68425500D01*
X159684699Y-68422646D01*
X159684701Y-68422646D01*
X159748790Y-68400219D01*
X159812882Y-68377793D01*
X159922150Y-68297150D01*
X160002793Y-68187882D01*
X160028120Y-68115501D01*
X160047646Y-68059701D01*
X160047646Y-68059699D01*
X160050500Y-68029269D01*
X160050500Y-66470730D01*
X160047646Y-66440300D01*
X160047646Y-66440298D01*
X160002793Y-66312119D01*
X160002792Y-66312117D01*
X159922150Y-66202850D01*
X159812882Y-66122207D01*
X159812880Y-66122206D01*
X159684700Y-66077353D01*
X159654270Y-66074500D01*
X159654266Y-66074500D01*
X158345734Y-66074500D01*
X158345729Y-66074500D01*
X158315761Y-66077310D01*
X158247177Y-66063970D01*
X158216504Y-66041533D01*
X150924971Y-58750000D01*
X155153592Y-58750000D01*
X155165430Y-58885315D01*
X155165432Y-58885326D01*
X155226566Y-59113483D01*
X155226570Y-59113492D01*
X155326399Y-59327577D01*
X155461886Y-59521073D01*
X155461891Y-59521079D01*
X155628917Y-59688105D01*
X155822421Y-59823600D01*
X156036507Y-59923429D01*
X156036516Y-59923433D01*
X156250000Y-59980634D01*
X156250000Y-58935501D01*
X156357685Y-58984680D01*
X156464237Y-59000000D01*
X156535763Y-59000000D01*
X156642315Y-58984680D01*
X156750000Y-58935501D01*
X156750000Y-59980633D01*
X156963483Y-59923433D01*
X156963492Y-59923429D01*
X157177577Y-59823600D01*
X157177579Y-59823599D01*
X157371073Y-59688113D01*
X157371079Y-59688108D01*
X157538108Y-59521079D01*
X157538113Y-59521073D01*
X157673601Y-59327577D01*
X157673602Y-59327573D01*
X157713118Y-59242832D01*
X157759290Y-59190392D01*
X157826483Y-59171240D01*
X157893365Y-59191455D01*
X157938699Y-59244621D01*
X157949500Y-59295236D01*
X157949500Y-59304269D01*
X157952353Y-59334699D01*
X157952353Y-59334701D01*
X157997052Y-59462440D01*
X157997207Y-59462882D01*
X158077850Y-59572150D01*
X158187118Y-59652793D01*
X158229845Y-59667744D01*
X158315299Y-59697646D01*
X158345730Y-59700500D01*
X158345734Y-59700500D01*
X159654270Y-59700500D01*
X159684699Y-59697646D01*
X159684701Y-59697646D01*
X159748790Y-59675219D01*
X159812882Y-59652793D01*
X159922150Y-59572150D01*
X160002793Y-59462882D01*
X160028105Y-59390545D01*
X160047646Y-59334701D01*
X160047646Y-59334699D01*
X160050500Y-59304269D01*
X160050500Y-57695730D01*
X160047646Y-57665300D01*
X160047646Y-57665298D01*
X160002793Y-57537119D01*
X160002792Y-57537117D01*
X159922150Y-57427850D01*
X159812882Y-57347207D01*
X159812880Y-57347206D01*
X159684700Y-57302353D01*
X159654270Y-57299500D01*
X159654266Y-57299500D01*
X158345734Y-57299500D01*
X158345730Y-57299500D01*
X158315300Y-57302353D01*
X158315298Y-57302353D01*
X158187119Y-57347206D01*
X158187117Y-57347207D01*
X158077850Y-57427850D01*
X157997207Y-57537117D01*
X157997206Y-57537119D01*
X157952353Y-57665298D01*
X157952353Y-57665300D01*
X157949500Y-57695730D01*
X157949500Y-57704763D01*
X157929815Y-57771802D01*
X157877011Y-57817557D01*
X157807853Y-57827501D01*
X157744297Y-57798476D01*
X157713118Y-57757168D01*
X157673600Y-57672422D01*
X157673599Y-57672420D01*
X157538113Y-57478926D01*
X157538108Y-57478920D01*
X157371082Y-57311894D01*
X157177578Y-57176399D01*
X156963492Y-57076570D01*
X156963486Y-57076567D01*
X156750000Y-57019364D01*
X156750000Y-58064498D01*
X156642315Y-58015320D01*
X156535763Y-58000000D01*
X156464237Y-58000000D01*
X156357685Y-58015320D01*
X156250000Y-58064498D01*
X156250000Y-57019364D01*
X156249999Y-57019364D01*
X156036513Y-57076567D01*
X156036507Y-57076570D01*
X155822422Y-57176399D01*
X155822420Y-57176400D01*
X155628926Y-57311886D01*
X155628920Y-57311891D01*
X155461891Y-57478920D01*
X155461886Y-57478926D01*
X155326400Y-57672420D01*
X155326399Y-57672422D01*
X155226570Y-57886507D01*
X155226566Y-57886516D01*
X155165432Y-58114673D01*
X155165430Y-58114684D01*
X155153592Y-58249999D01*
X155153593Y-58250000D01*
X156066314Y-58250000D01*
X156040507Y-58290156D01*
X156000000Y-58428111D01*
X156000000Y-58571889D01*
X156040507Y-58709844D01*
X156066314Y-58750000D01*
X155153592Y-58750000D01*
X150924971Y-58750000D01*
X148636819Y-56461848D01*
X148603334Y-56400525D01*
X148600500Y-56374167D01*
X148600500Y-49750000D01*
X155153592Y-49750000D01*
X155165430Y-49885315D01*
X155165432Y-49885326D01*
X155226566Y-50113483D01*
X155226570Y-50113492D01*
X155326399Y-50327577D01*
X155461886Y-50521073D01*
X155461891Y-50521079D01*
X155628917Y-50688105D01*
X155822421Y-50823600D01*
X156036507Y-50923429D01*
X156036516Y-50923433D01*
X156250000Y-50980634D01*
X156250000Y-49935501D01*
X156357685Y-49984680D01*
X156464237Y-50000000D01*
X156535763Y-50000000D01*
X156642315Y-49984680D01*
X156750000Y-49935501D01*
X156750000Y-50980633D01*
X156963483Y-50923433D01*
X156963492Y-50923429D01*
X157177577Y-50823600D01*
X157177579Y-50823599D01*
X157371073Y-50688113D01*
X157371079Y-50688108D01*
X157538108Y-50521079D01*
X157538113Y-50521073D01*
X157673601Y-50327577D01*
X157673602Y-50327573D01*
X157713118Y-50242832D01*
X157759290Y-50190392D01*
X157826483Y-50171240D01*
X157893365Y-50191455D01*
X157938699Y-50244621D01*
X157949500Y-50295236D01*
X157949500Y-50304269D01*
X157952353Y-50334699D01*
X157952353Y-50334701D01*
X157997206Y-50462880D01*
X157997207Y-50462882D01*
X158077850Y-50572150D01*
X158187118Y-50652793D01*
X158229845Y-50667744D01*
X158315299Y-50697646D01*
X158345730Y-50700500D01*
X158345734Y-50700500D01*
X159654270Y-50700500D01*
X159684699Y-50697646D01*
X159684701Y-50697646D01*
X159748790Y-50675219D01*
X159812882Y-50652793D01*
X159922150Y-50572150D01*
X160002793Y-50462882D01*
X160025219Y-50398790D01*
X160047646Y-50334701D01*
X160047646Y-50334699D01*
X160050500Y-50304269D01*
X160050500Y-48695730D01*
X160047646Y-48665300D01*
X160047646Y-48665298D01*
X160002793Y-48537119D01*
X160002792Y-48537117D01*
X159922150Y-48427850D01*
X159812882Y-48347207D01*
X159812880Y-48347206D01*
X159684700Y-48302353D01*
X159654270Y-48299500D01*
X159654266Y-48299500D01*
X158345734Y-48299500D01*
X158345730Y-48299500D01*
X158315300Y-48302353D01*
X158315298Y-48302353D01*
X158187119Y-48347206D01*
X158187117Y-48347207D01*
X158077850Y-48427850D01*
X157997207Y-48537117D01*
X157997206Y-48537119D01*
X157952353Y-48665298D01*
X157952353Y-48665300D01*
X157949500Y-48695730D01*
X157949500Y-48704763D01*
X157929815Y-48771802D01*
X157877011Y-48817557D01*
X157807853Y-48827501D01*
X157744297Y-48798476D01*
X157713118Y-48757168D01*
X157673600Y-48672422D01*
X157673599Y-48672420D01*
X157538113Y-48478926D01*
X157538108Y-48478920D01*
X157371082Y-48311894D01*
X157177578Y-48176399D01*
X156963492Y-48076570D01*
X156963486Y-48076567D01*
X156750000Y-48019364D01*
X156750000Y-49064498D01*
X156642315Y-49015320D01*
X156535763Y-49000000D01*
X156464237Y-49000000D01*
X156357685Y-49015320D01*
X156250000Y-49064498D01*
X156250000Y-48019364D01*
X156249999Y-48019364D01*
X156036513Y-48076567D01*
X156036507Y-48076570D01*
X155822422Y-48176399D01*
X155822420Y-48176400D01*
X155628926Y-48311886D01*
X155628920Y-48311891D01*
X155461891Y-48478920D01*
X155461886Y-48478926D01*
X155326400Y-48672420D01*
X155326399Y-48672422D01*
X155226570Y-48886507D01*
X155226566Y-48886516D01*
X155165432Y-49114673D01*
X155165430Y-49114684D01*
X155153592Y-49249999D01*
X155153593Y-49250000D01*
X156066314Y-49250000D01*
X156040507Y-49290156D01*
X156000000Y-49428111D01*
X156000000Y-49571889D01*
X156040507Y-49709844D01*
X156066314Y-49750000D01*
X155153592Y-49750000D01*
X148600500Y-49750000D01*
X148600500Y-43413738D01*
X148620185Y-43346699D01*
X148630787Y-43332535D01*
X148631124Y-43332144D01*
X148631128Y-43332143D01*
X148725377Y-43223373D01*
X148785165Y-43092457D01*
X148805647Y-42950000D01*
X148785165Y-42807543D01*
X148725377Y-42676627D01*
X148631128Y-42567857D01*
X148533781Y-42505296D01*
X148488027Y-42452493D01*
X148478083Y-42383334D01*
X148507108Y-42319779D01*
X148513124Y-42313316D01*
X149489623Y-41336819D01*
X149550946Y-41303334D01*
X149577304Y-41300500D01*
X150847432Y-41300500D01*
X150914471Y-41320185D01*
X150957915Y-41368203D01*
X151013972Y-41478220D01*
X151013974Y-41478222D01*
X151013976Y-41478225D01*
X151109274Y-41573523D01*
X151109278Y-41573526D01*
X151109280Y-41573528D01*
X151229374Y-41634719D01*
X151229376Y-41634719D01*
X151229378Y-41634720D01*
X151329007Y-41650500D01*
X151329012Y-41650500D01*
X151895993Y-41650500D01*
X151995621Y-41634720D01*
X151995621Y-41634719D01*
X151995626Y-41634719D01*
X152115720Y-41573528D01*
X152211028Y-41478220D01*
X152267084Y-41368203D01*
X152315058Y-41317409D01*
X152377568Y-41300500D01*
X152680957Y-41300500D01*
X152747996Y-41320185D01*
X152768633Y-41336814D01*
X152821017Y-41389198D01*
X152926107Y-41440573D01*
X152960173Y-41445536D01*
X152994239Y-41450500D01*
X152994240Y-41450500D01*
X154085761Y-41450500D01*
X154108471Y-41447191D01*
X154153893Y-41440573D01*
X154258983Y-41389198D01*
X154341698Y-41306483D01*
X154341698Y-41306481D01*
X154347668Y-41298122D01*
X154350493Y-41300139D01*
X154385351Y-41261966D01*
X154413283Y-41250547D01*
X154419990Y-41247585D01*
X154419992Y-41247585D01*
X154426322Y-41244789D01*
X154453629Y-41236332D01*
X154460433Y-41235061D01*
X154460435Y-41235059D01*
X154460437Y-41235059D01*
X154483138Y-41221003D01*
X154498325Y-41212996D01*
X154522765Y-41202206D01*
X154527660Y-41197310D01*
X154550071Y-41179560D01*
X154550240Y-41179455D01*
X154555952Y-41175919D01*
X154572047Y-41154606D01*
X154583311Y-41141659D01*
X154667518Y-41057451D01*
X154680475Y-41046178D01*
X154686721Y-41041461D01*
X154686728Y-41041458D01*
X154701162Y-41025623D01*
X154717964Y-41007194D01*
X154721925Y-41003046D01*
X154738735Y-40986238D01*
X154740189Y-40987692D01*
X154790561Y-40953797D01*
X154860415Y-40952322D01*
X154919978Y-40988847D01*
X154950338Y-41051776D01*
X154952000Y-41072010D01*
X154952000Y-41133260D01*
X154961926Y-41201391D01*
X155013303Y-41306485D01*
X155096014Y-41389196D01*
X155096015Y-41389196D01*
X155096017Y-41389198D01*
X155201107Y-41440573D01*
X155235173Y-41445536D01*
X155269239Y-41450500D01*
X155269240Y-41450500D01*
X156360761Y-41450500D01*
X156383471Y-41447191D01*
X156428893Y-41440573D01*
X156533983Y-41389198D01*
X156616698Y-41306483D01*
X156616700Y-41306477D01*
X156619577Y-41302450D01*
X156674551Y-41259326D01*
X156720497Y-41250500D01*
X156977404Y-41250500D01*
X157044443Y-41270185D01*
X157090198Y-41322989D01*
X157094445Y-41333544D01*
X157122206Y-41412880D01*
X157122207Y-41412882D01*
X157202850Y-41522150D01*
X157312118Y-41602793D01*
X157339248Y-41612286D01*
X157440299Y-41647646D01*
X157470730Y-41650500D01*
X157470734Y-41650500D01*
X158529270Y-41650500D01*
X158559699Y-41647646D01*
X158559701Y-41647646D01*
X158623790Y-41625219D01*
X158687882Y-41602793D01*
X158797150Y-41522150D01*
X158877793Y-41412882D01*
X158900219Y-41348790D01*
X158922646Y-41284701D01*
X158922646Y-41284699D01*
X158925498Y-41254283D01*
X158925500Y-41254266D01*
X158925500Y-41254240D01*
X158925603Y-41252054D01*
X158925746Y-41251637D01*
X158925771Y-41251380D01*
X158925833Y-41251385D01*
X158948399Y-41186007D01*
X158950511Y-41183124D01*
X158955952Y-41175919D01*
X158972052Y-41154597D01*
X158983318Y-41141652D01*
X159565011Y-40559958D01*
X159577963Y-40548688D01*
X159584223Y-40543960D01*
X159584228Y-40543958D01*
X159615488Y-40509666D01*
X159619402Y-40505567D01*
X159632174Y-40492797D01*
X159632175Y-40492796D01*
X159635282Y-40489054D01*
X159641916Y-40480676D01*
X159659916Y-40460933D01*
X159662417Y-40454476D01*
X159675750Y-40429184D01*
X159675766Y-40429159D01*
X159679657Y-40423481D01*
X159685772Y-40397478D01*
X159690854Y-40381071D01*
X159700500Y-40356173D01*
X159700500Y-40349248D01*
X159703794Y-40320856D01*
X159705379Y-40314119D01*
X159701689Y-40287665D01*
X159700500Y-40270535D01*
X159700500Y-38167137D01*
X159701689Y-38150006D01*
X159702771Y-38142240D01*
X159702773Y-38142236D01*
X159700632Y-38095921D01*
X159700500Y-38090196D01*
X159700500Y-38072159D01*
X159700046Y-38067266D01*
X159698817Y-38056680D01*
X159697585Y-38030009D01*
X159694788Y-38023676D01*
X159686332Y-37996370D01*
X159685061Y-37989567D01*
X159676351Y-37975500D01*
X159671003Y-37966862D01*
X159662995Y-37951670D01*
X159652207Y-37927237D01*
X159652206Y-37927236D01*
X159652206Y-37927235D01*
X159647309Y-37922338D01*
X159629563Y-37899934D01*
X159625918Y-37894047D01*
X159625917Y-37894046D01*
X159604602Y-37877950D01*
X159591648Y-37866677D01*
X158859962Y-37134991D01*
X158848687Y-37122035D01*
X158843955Y-37115768D01*
X158809683Y-37084525D01*
X158805560Y-37080589D01*
X158792797Y-37067826D01*
X158792796Y-37067825D01*
X158792794Y-37067823D01*
X158789077Y-37064737D01*
X158780679Y-37058084D01*
X158760933Y-37040084D01*
X158754470Y-37037580D01*
X158729192Y-37024256D01*
X158723481Y-37020344D01*
X158723478Y-37020343D01*
X158723479Y-37020343D01*
X158697483Y-37014228D01*
X158681089Y-37009151D01*
X158656174Y-36999500D01*
X158656173Y-36999500D01*
X158649249Y-36999500D01*
X158620858Y-36996206D01*
X158614119Y-36994621D01*
X158587666Y-36998311D01*
X158570536Y-36999500D01*
X156832360Y-36999500D01*
X156765321Y-36979815D01*
X156719566Y-36927011D01*
X156714088Y-36908842D01*
X156713663Y-36908981D01*
X156710647Y-36899699D01*
X156710646Y-36899697D01*
X156710646Y-36899696D01*
X156653050Y-36786658D01*
X156653046Y-36786654D01*
X156653045Y-36786652D01*
X156563347Y-36696954D01*
X156563344Y-36696952D01*
X156563342Y-36696950D01*
X156450304Y-36639354D01*
X156450303Y-36639353D01*
X156450300Y-36639352D01*
X156365670Y-36625949D01*
X156350135Y-36622453D01*
X156313076Y-36611572D01*
X156271962Y-36599500D01*
X156271961Y-36599500D01*
X156128039Y-36599500D01*
X156059995Y-36619478D01*
X156025064Y-36624500D01*
X155893482Y-36624500D01*
X155812519Y-36637323D01*
X155799696Y-36639354D01*
X155686658Y-36696950D01*
X155686657Y-36696951D01*
X155686652Y-36696954D01*
X155596954Y-36786652D01*
X155596951Y-36786657D01*
X155596950Y-36786658D01*
X155589992Y-36800314D01*
X155539352Y-36899698D01*
X155524500Y-36993475D01*
X155524500Y-37606517D01*
X155530114Y-37641963D01*
X155539354Y-37700304D01*
X155596950Y-37813342D01*
X155596952Y-37813344D01*
X155596954Y-37813347D01*
X155686652Y-37903045D01*
X155686654Y-37903046D01*
X155686658Y-37903050D01*
X155797531Y-37959543D01*
X155799698Y-37960647D01*
X155893475Y-37975499D01*
X155893481Y-37975500D01*
X156356518Y-37975499D01*
X156450304Y-37960646D01*
X156563342Y-37903050D01*
X156653050Y-37813342D01*
X156710646Y-37700304D01*
X156710646Y-37700302D01*
X156710647Y-37700301D01*
X156713663Y-37691020D01*
X156716174Y-37691836D01*
X156739820Y-37641963D01*
X156799134Y-37605034D01*
X156832360Y-37600500D01*
X158424167Y-37600500D01*
X158491206Y-37620185D01*
X158511848Y-37636819D01*
X158724086Y-37849057D01*
X158757571Y-37910380D01*
X158752587Y-37980072D01*
X158710715Y-38036005D01*
X158645251Y-38060422D01*
X158623802Y-38060096D01*
X158524986Y-38050000D01*
X158250000Y-38050000D01*
X158250000Y-39176000D01*
X158230315Y-39243039D01*
X158177511Y-39288794D01*
X158126000Y-39300000D01*
X157874000Y-39300000D01*
X157806961Y-39280315D01*
X157761206Y-39227511D01*
X157750000Y-39176000D01*
X157750000Y-38050000D01*
X157475029Y-38050000D01*
X157475012Y-38050001D01*
X157372302Y-38060494D01*
X157205880Y-38115641D01*
X157205875Y-38115643D01*
X157056654Y-38207684D01*
X156932684Y-38331654D01*
X156840643Y-38480875D01*
X156840641Y-38480880D01*
X156795215Y-38617969D01*
X156755442Y-38675414D01*
X156690927Y-38702237D01*
X156622151Y-38689922D01*
X156589828Y-38666646D01*
X156533985Y-38610803D01*
X156428891Y-38559426D01*
X156360761Y-38549500D01*
X156360760Y-38549500D01*
X155790833Y-38549500D01*
X155723794Y-38529815D01*
X155703152Y-38513181D01*
X155066842Y-37876871D01*
X155033357Y-37815548D01*
X155038341Y-37745856D01*
X155044029Y-37732915D01*
X155060646Y-37700304D01*
X155060774Y-37699500D01*
X155071810Y-37629815D01*
X155075500Y-37606519D01*
X155075499Y-36993482D01*
X155060646Y-36899696D01*
X155003050Y-36786658D01*
X155003046Y-36786654D01*
X155003045Y-36786652D01*
X154913347Y-36696954D01*
X154913344Y-36696952D01*
X154913342Y-36696950D01*
X154836517Y-36657805D01*
X154800301Y-36639352D01*
X154706524Y-36624500D01*
X154243482Y-36624500D01*
X154162519Y-36637323D01*
X154149696Y-36639354D01*
X154036658Y-36696950D01*
X154036657Y-36696951D01*
X154036652Y-36696954D01*
X153946954Y-36786652D01*
X153946951Y-36786657D01*
X153946950Y-36786658D01*
X153939992Y-36800314D01*
X153889352Y-36899698D01*
X153886337Y-36908980D01*
X153883825Y-36908163D01*
X153860180Y-36958037D01*
X153800866Y-36994966D01*
X153767640Y-36999500D01*
X153632360Y-36999500D01*
X153565321Y-36979815D01*
X153519566Y-36927011D01*
X153514088Y-36908842D01*
X153513663Y-36908981D01*
X153510647Y-36899699D01*
X153510646Y-36899697D01*
X153510646Y-36899696D01*
X153453050Y-36786658D01*
X153453046Y-36786654D01*
X153453045Y-36786652D01*
X153363347Y-36696954D01*
X153363344Y-36696952D01*
X153363342Y-36696950D01*
X153286517Y-36657805D01*
X153250301Y-36639352D01*
X153156524Y-36624500D01*
X152693478Y-36624500D01*
X152668894Y-36628394D01*
X152599601Y-36619437D01*
X152546150Y-36574439D01*
X152525513Y-36507686D01*
X152525500Y-36505920D01*
X152525500Y-34315458D01*
X152545185Y-34248419D01*
X152597989Y-34202664D01*
X152637346Y-34192055D01*
X152705934Y-34185300D01*
X152903954Y-34125232D01*
X153086450Y-34027685D01*
X153246410Y-33896410D01*
X153377685Y-33736450D01*
X153475232Y-33553954D01*
X153535300Y-33355934D01*
X153550500Y-33201608D01*
X153550500Y-32798392D01*
X153535300Y-32644066D01*
X153475232Y-32446046D01*
X153377685Y-32263550D01*
X153285819Y-32151610D01*
X153246410Y-32103589D01*
X153086452Y-31972317D01*
X153086453Y-31972317D01*
X153086450Y-31972315D01*
X152903954Y-31874768D01*
X152705934Y-31814700D01*
X152705932Y-31814699D01*
X152705934Y-31814699D01*
X152500000Y-31794417D01*
X152294067Y-31814699D01*
X152096043Y-31874769D01*
X152010694Y-31920390D01*
X151913550Y-31972315D01*
X151913548Y-31972316D01*
X151913547Y-31972317D01*
X151753589Y-32103589D01*
X151622317Y-32263547D01*
X151622315Y-32263550D01*
X151590886Y-32322349D01*
X151583357Y-32336435D01*
X151534394Y-32386279D01*
X151466256Y-32401739D01*
X151400577Y-32377907D01*
X151358208Y-32322349D01*
X151349999Y-32277981D01*
X151349999Y-32200028D01*
X151349998Y-32200012D01*
X151339505Y-32097302D01*
X151284358Y-31930880D01*
X151284356Y-31930875D01*
X151192315Y-31781654D01*
X151068345Y-31657684D01*
X150919124Y-31565643D01*
X150919119Y-31565641D01*
X150752697Y-31510494D01*
X150752690Y-31510493D01*
X150649986Y-31500000D01*
X150250000Y-31500000D01*
X150250000Y-32564498D01*
X150142315Y-32515320D01*
X150035763Y-32500000D01*
X149964237Y-32500000D01*
X149857685Y-32515320D01*
X149750000Y-32564498D01*
X149750000Y-31500000D01*
X149350028Y-31500000D01*
X149350012Y-31500001D01*
X149247302Y-31510494D01*
X149080880Y-31565641D01*
X149080875Y-31565643D01*
X148931654Y-31657684D01*
X148807684Y-31781654D01*
X148715643Y-31930875D01*
X148715641Y-31930880D01*
X148660494Y-32097302D01*
X148660493Y-32097309D01*
X148650000Y-32200013D01*
X148650000Y-32750000D01*
X149566314Y-32750000D01*
X149540507Y-32790156D01*
X149500000Y-32928111D01*
X149500000Y-33071889D01*
X149540507Y-33209844D01*
X149566314Y-33250000D01*
X148650001Y-33250000D01*
X148650001Y-33799986D01*
X148660494Y-33902697D01*
X148715641Y-34069119D01*
X148715643Y-34069124D01*
X148807684Y-34218345D01*
X148931654Y-34342315D01*
X149080875Y-34434356D01*
X149080880Y-34434358D01*
X149247302Y-34489505D01*
X149247309Y-34489506D01*
X149350019Y-34499999D01*
X149749999Y-34499999D01*
X149750000Y-34499998D01*
X149750000Y-33435501D01*
X149857685Y-33484680D01*
X149964237Y-33500000D01*
X150035763Y-33500000D01*
X150142315Y-33484680D01*
X150250000Y-33435501D01*
X150250000Y-34499999D01*
X150649972Y-34499999D01*
X150649986Y-34499998D01*
X150752697Y-34489505D01*
X150919119Y-34434358D01*
X150919124Y-34434356D01*
X151068345Y-34342315D01*
X151192315Y-34218345D01*
X151284356Y-34069124D01*
X151284358Y-34069119D01*
X151339505Y-33902697D01*
X151339506Y-33902690D01*
X151349999Y-33799986D01*
X151349999Y-33722022D01*
X151369683Y-33654982D01*
X151422486Y-33609226D01*
X151491645Y-33599282D01*
X151555201Y-33628306D01*
X151583356Y-33663565D01*
X151622315Y-33736451D01*
X151753589Y-33896410D01*
X151879164Y-33999465D01*
X151918499Y-34057211D01*
X151924500Y-34095319D01*
X151924500Y-36263350D01*
X151904815Y-36330389D01*
X151852011Y-36376144D01*
X151782853Y-36386088D01*
X151763610Y-36381736D01*
X151602101Y-36331408D01*
X151531572Y-36325000D01*
X151525000Y-36325000D01*
X151525000Y-37426000D01*
X151505315Y-37493039D01*
X151452511Y-37538794D01*
X151401000Y-37550000D01*
X150375001Y-37550000D01*
X150375001Y-37631582D01*
X150381408Y-37702102D01*
X150381409Y-37702107D01*
X150431981Y-37864396D01*
X150519927Y-38009877D01*
X150640122Y-38130072D01*
X150785604Y-38218019D01*
X150785603Y-38218019D01*
X150947894Y-38268590D01*
X150947893Y-38268590D01*
X151018427Y-38274999D01*
X151156086Y-38274999D01*
X151223126Y-38294683D01*
X151268881Y-38347487D01*
X151278825Y-38416645D01*
X151249801Y-38480201D01*
X151195092Y-38516705D01*
X151054016Y-38563453D01*
X151054007Y-38563457D01*
X150909771Y-38652424D01*
X150909767Y-38652427D01*
X150789927Y-38772267D01*
X150789924Y-38772271D01*
X150700957Y-38916507D01*
X150700952Y-38916518D01*
X150647644Y-39077393D01*
X150637500Y-39176677D01*
X150637500Y-39200000D01*
X151362500Y-39200000D01*
X151362500Y-38499999D01*
X151349181Y-38486681D01*
X151315695Y-38425358D01*
X151320679Y-38355667D01*
X151362550Y-38299733D01*
X151428014Y-38275315D01*
X151436861Y-38274999D01*
X151531581Y-38274999D01*
X151602102Y-38268591D01*
X151602107Y-38268590D01*
X151764398Y-38218018D01*
X151886086Y-38144454D01*
X151953641Y-38126617D01*
X152020115Y-38148134D01*
X152037918Y-38162889D01*
X152201093Y-38326064D01*
X152234578Y-38387387D01*
X152229594Y-38457079D01*
X152187722Y-38513012D01*
X152122258Y-38537429D01*
X152074409Y-38531451D01*
X152010108Y-38510144D01*
X151910822Y-38500000D01*
X151862500Y-38500000D01*
X151862500Y-39576000D01*
X151842815Y-39643039D01*
X151790011Y-39688794D01*
X151738500Y-39700000D01*
X150637501Y-39700000D01*
X150637501Y-39723322D01*
X150647644Y-39822607D01*
X150700952Y-39983481D01*
X150700957Y-39983492D01*
X150789924Y-40127728D01*
X150789927Y-40127732D01*
X150909766Y-40247571D01*
X151010340Y-40309606D01*
X151057064Y-40361554D01*
X151068287Y-40430517D01*
X151040443Y-40494599D01*
X151032926Y-40502825D01*
X151013974Y-40521777D01*
X151013973Y-40521779D01*
X151013972Y-40521780D01*
X150957917Y-40631795D01*
X150909942Y-40682591D01*
X150847432Y-40699500D01*
X149468609Y-40699500D01*
X149451481Y-40698311D01*
X149443709Y-40697227D01*
X149443706Y-40697227D01*
X149413854Y-40698607D01*
X149397391Y-40699368D01*
X149391666Y-40699500D01*
X149373627Y-40699500D01*
X149373622Y-40699500D01*
X149368797Y-40699948D01*
X149358168Y-40701181D01*
X149331479Y-40702415D01*
X149325134Y-40705215D01*
X149297851Y-40713665D01*
X149291039Y-40714938D01*
X149291038Y-40714939D01*
X149268328Y-40728999D01*
X149253149Y-40737000D01*
X149228706Y-40747793D01*
X149223807Y-40752693D01*
X149201413Y-40770431D01*
X149195519Y-40774080D01*
X149179420Y-40795398D01*
X149168150Y-40808348D01*
X136147486Y-53829012D01*
X136134535Y-53840283D01*
X136128267Y-53845015D01*
X136097022Y-53879289D01*
X136093074Y-53883424D01*
X136080327Y-53896171D01*
X136077246Y-53899882D01*
X136070585Y-53908290D01*
X136052583Y-53928037D01*
X136052583Y-53928038D01*
X136050078Y-53934504D01*
X136036759Y-53959773D01*
X136032845Y-53965486D01*
X136032843Y-53965491D01*
X136026728Y-53991488D01*
X136021651Y-54007884D01*
X136012000Y-54032797D01*
X136012000Y-54039722D01*
X136008706Y-54068112D01*
X136007121Y-54074848D01*
X136007121Y-54074853D01*
X136010811Y-54101304D01*
X136012000Y-54118435D01*
X136012000Y-54175500D01*
X135992315Y-54242539D01*
X135939511Y-54288294D01*
X135888000Y-54299500D01*
X135292747Y-54299500D01*
X135234270Y-54311131D01*
X135234269Y-54311132D01*
X135167947Y-54355447D01*
X135123632Y-54421769D01*
X135123631Y-54421770D01*
X135112000Y-54480247D01*
X135112000Y-56224166D01*
X135092315Y-56291205D01*
X135075681Y-56311847D01*
X134847486Y-56540041D01*
X134834535Y-56551312D01*
X134828267Y-56556044D01*
X134797022Y-56590318D01*
X134793074Y-56594453D01*
X134780327Y-56607200D01*
X134777246Y-56610911D01*
X134770585Y-56619319D01*
X134752583Y-56639066D01*
X134752583Y-56639067D01*
X134750078Y-56645533D01*
X134736759Y-56670802D01*
X134732845Y-56676515D01*
X134732843Y-56676520D01*
X134726728Y-56702517D01*
X134721651Y-56718913D01*
X134712000Y-56743826D01*
X134712000Y-56750751D01*
X134708706Y-56779141D01*
X134707121Y-56785877D01*
X134707121Y-56785882D01*
X131205424Y-56785882D01*
X131224247Y-56723831D01*
X131242599Y-56537500D01*
X131224247Y-56351169D01*
X131169896Y-56171999D01*
X131140956Y-56117856D01*
X131081637Y-56006876D01*
X131081635Y-56006873D01*
X130962857Y-55862142D01*
X130818126Y-55743364D01*
X130818123Y-55743362D01*
X130653002Y-55655104D01*
X130473833Y-55600753D01*
X130473831Y-55600752D01*
X130287500Y-55582401D01*
X130101168Y-55600752D01*
X130101166Y-55600753D01*
X129921997Y-55655104D01*
X129756876Y-55743362D01*
X129756873Y-55743364D01*
X129612142Y-55862142D01*
X129493364Y-56006873D01*
X129493362Y-56006876D01*
X129405104Y-56171997D01*
X129350753Y-56351166D01*
X129350752Y-56351168D01*
X129332401Y-56537500D01*
X126450255Y-56537500D01*
X126455647Y-56500000D01*
X126435165Y-56357543D01*
X126375377Y-56226627D01*
X126281128Y-56117857D01*
X126160053Y-56040047D01*
X126160051Y-56040046D01*
X126160049Y-56040045D01*
X126160050Y-56040045D01*
X126021963Y-55999500D01*
X126021961Y-55999500D01*
X125878039Y-55999500D01*
X125878036Y-55999500D01*
X125739949Y-56040045D01*
X125618873Y-56117856D01*
X125585212Y-56156703D01*
X125526433Y-56194477D01*
X125491499Y-56199500D01*
X121317146Y-56199500D01*
X121300018Y-56198311D01*
X121292239Y-56197226D01*
X121292236Y-56197226D01*
X121251522Y-56199108D01*
X121245900Y-56199368D01*
X121240175Y-56199500D01*
X121222150Y-56199500D01*
X121217370Y-56199942D01*
X121206705Y-56201179D01*
X121180009Y-56202414D01*
X121173660Y-56205217D01*
X121146370Y-56213667D01*
X121139567Y-56214938D01*
X121139566Y-56214939D01*
X121116859Y-56228998D01*
X121101674Y-56237002D01*
X121077236Y-56247792D01*
X121072336Y-56252693D01*
X121049942Y-56270431D01*
X121044048Y-56274080D01*
X121027949Y-56295398D01*
X121016679Y-56308348D01*
X119249346Y-58075681D01*
X119188023Y-58109166D01*
X119161665Y-58112000D01*
X118730982Y-58112000D01*
X118650019Y-58124823D01*
X118637196Y-58126854D01*
X118524158Y-58184450D01*
X118524157Y-58184451D01*
X118524152Y-58184454D01*
X118434454Y-58274152D01*
X118434451Y-58274157D01*
X118434450Y-58274158D01*
X118415251Y-58311837D01*
X118376852Y-58387198D01*
X118362000Y-58480975D01*
X118362000Y-59094017D01*
X112000000Y-59094017D01*
X112000000Y-57028200D01*
X112019685Y-56961161D01*
X112072489Y-56915406D01*
X112141647Y-56905462D01*
X112189973Y-56923207D01*
X112203260Y-56931556D01*
X112366082Y-56988530D01*
X112366088Y-56988530D01*
X112366090Y-56988531D01*
X112537496Y-57007844D01*
X112537500Y-57007844D01*
X112537504Y-57007844D01*
X112708909Y-56988531D01*
X112708908Y-56988531D01*
X112708918Y-56988530D01*
X112871740Y-56931556D01*
X113000988Y-56850344D01*
X113972500Y-56850344D01*
X113978901Y-56909872D01*
X113978903Y-56909879D01*
X114029145Y-57044586D01*
X114029149Y-57044593D01*
X114115309Y-57159687D01*
X114115312Y-57159690D01*
X114230406Y-57245850D01*
X114230413Y-57245854D01*
X114365120Y-57296096D01*
X114365127Y-57296098D01*
X114424655Y-57302499D01*
X114424672Y-57302500D01*
X114787500Y-57302500D01*
X114787500Y-56505445D01*
X114861377Y-56562947D01*
X114976592Y-56602500D01*
X115067745Y-56602500D01*
X115157654Y-56587497D01*
X115264788Y-56529519D01*
X115287500Y-56504847D01*
X115287500Y-57302500D01*
X115650328Y-57302500D01*
X115650344Y-57302499D01*
X115709872Y-57296098D01*
X115709879Y-57296096D01*
X115844586Y-57245854D01*
X115844593Y-57245850D01*
X115959687Y-57159690D01*
X115959690Y-57159687D01*
X116045850Y-57044593D01*
X116045854Y-57044586D01*
X116096096Y-56909879D01*
X116096098Y-56909872D01*
X116102499Y-56850344D01*
X116102500Y-56850327D01*
X116102500Y-56487500D01*
X115303469Y-56487500D01*
X115347291Y-56439897D01*
X115396224Y-56328341D01*
X115406283Y-56206942D01*
X115376379Y-56088854D01*
X115310161Y-55987500D01*
X116102500Y-55987500D01*
X116102500Y-55624672D01*
X116102499Y-55624655D01*
X116096098Y-55565127D01*
X116096096Y-55565120D01*
X116045854Y-55430413D01*
X116045850Y-55430406D01*
X115959690Y-55315312D01*
X115959687Y-55315309D01*
X115844593Y-55229149D01*
X115844586Y-55229145D01*
X115709879Y-55178903D01*
X115709872Y-55178901D01*
X115650344Y-55172500D01*
X115287500Y-55172500D01*
X115287500Y-55969554D01*
X115213623Y-55912053D01*
X115098408Y-55872500D01*
X115007255Y-55872500D01*
X114917346Y-55887503D01*
X114810212Y-55945481D01*
X114787500Y-55970152D01*
X114787500Y-55172500D01*
X114424655Y-55172500D01*
X114365127Y-55178901D01*
X114365120Y-55178903D01*
X114230413Y-55229145D01*
X114230406Y-55229149D01*
X114115312Y-55315309D01*
X114115309Y-55315312D01*
X114029149Y-55430406D01*
X114029145Y-55430413D01*
X113978903Y-55565120D01*
X113978901Y-55565127D01*
X113972500Y-55624655D01*
X113972500Y-55987500D01*
X114771531Y-55987500D01*
X114727709Y-56035103D01*
X114678776Y-56146659D01*
X114668717Y-56268058D01*
X114698621Y-56386146D01*
X114764839Y-56487500D01*
X113972500Y-56487500D01*
X113972500Y-56850344D01*
X113000988Y-56850344D01*
X113017802Y-56839779D01*
X113139779Y-56717802D01*
X113231556Y-56571740D01*
X113288530Y-56408918D01*
X113292142Y-56376858D01*
X113307844Y-56237503D01*
X113307844Y-56237496D01*
X113288531Y-56066090D01*
X113288530Y-56066084D01*
X113288530Y-56066082D01*
X113231556Y-55903260D01*
X113139779Y-55757198D01*
X113017802Y-55635221D01*
X113017801Y-55635220D01*
X113012878Y-55630297D01*
X113014868Y-55628306D01*
X112982031Y-55581483D01*
X112975500Y-55541770D01*
X112975500Y-54300000D01*
X126494353Y-54300000D01*
X126514834Y-54442456D01*
X126558074Y-54537137D01*
X126574623Y-54573373D01*
X126668872Y-54682143D01*
X126789947Y-54759953D01*
X126789950Y-54759954D01*
X126789949Y-54759954D01*
X126928036Y-54800499D01*
X126928038Y-54800500D01*
X126928039Y-54800500D01*
X127071962Y-54800500D01*
X127071962Y-54800499D01*
X127210053Y-54759953D01*
X127331128Y-54682143D01*
X127364788Y-54643296D01*
X127423567Y-54605523D01*
X127458501Y-54600500D01*
X134132862Y-54600500D01*
X134149990Y-54601689D01*
X134157761Y-54602772D01*
X134157761Y-54602771D01*
X134157765Y-54602773D01*
X134204080Y-54600632D01*
X134209805Y-54600500D01*
X134227843Y-54600500D01*
X134227844Y-54600500D01*
X134227844Y-54600499D01*
X134232731Y-54600046D01*
X134243318Y-54598817D01*
X134269992Y-54597585D01*
X134276322Y-54594789D01*
X134303629Y-54586332D01*
X134310433Y-54585061D01*
X134310435Y-54585059D01*
X134310437Y-54585059D01*
X134333138Y-54571003D01*
X134348325Y-54562996D01*
X134372765Y-54552206D01*
X134377661Y-54547309D01*
X134400069Y-54529561D01*
X134405952Y-54525919D01*
X134422053Y-54504595D01*
X134433314Y-54491655D01*
X144688151Y-44236819D01*
X144749474Y-44203334D01*
X144775832Y-44200500D01*
X144871962Y-44200500D01*
X144871962Y-44200499D01*
X145010053Y-44159953D01*
X145131128Y-44082143D01*
X145225377Y-43973373D01*
X145285165Y-43842457D01*
X145305647Y-43700000D01*
X145285165Y-43557543D01*
X145225377Y-43426627D01*
X145131128Y-43317857D01*
X145010053Y-43240047D01*
X145010051Y-43240046D01*
X145010049Y-43240045D01*
X145010050Y-43240045D01*
X144871963Y-43199500D01*
X144871961Y-43199500D01*
X144728039Y-43199500D01*
X144728036Y-43199500D01*
X144589949Y-43240045D01*
X144468873Y-43317856D01*
X144374623Y-43426626D01*
X144374622Y-43426628D01*
X144314834Y-43557543D01*
X144294353Y-43700000D01*
X144294353Y-43700001D01*
X144295661Y-43709103D01*
X144285713Y-43778261D01*
X144260603Y-43814424D01*
X134111848Y-53963181D01*
X134050525Y-53996666D01*
X134024167Y-53999500D01*
X127458501Y-53999500D01*
X127391462Y-53979815D01*
X127364788Y-53956703D01*
X127331128Y-53917857D01*
X127210053Y-53840047D01*
X127210051Y-53840046D01*
X127210049Y-53840045D01*
X127210050Y-53840045D01*
X127071963Y-53799500D01*
X127071961Y-53799500D01*
X126928039Y-53799500D01*
X126928036Y-53799500D01*
X126789949Y-53840045D01*
X126668873Y-53917856D01*
X126574623Y-54026626D01*
X126574622Y-54026628D01*
X126514834Y-54157543D01*
X126494353Y-54300000D01*
X112975500Y-54300000D01*
X112975500Y-53606899D01*
X112995185Y-53539860D01*
X113011819Y-53519218D01*
X117019218Y-49511819D01*
X117080541Y-49478334D01*
X117106899Y-49475500D01*
X132548196Y-49475500D01*
X132573641Y-49478139D01*
X132576724Y-49478785D01*
X132584268Y-49480367D01*
X132615676Y-49476451D01*
X132631014Y-49475500D01*
X132631112Y-49475500D01*
X132631114Y-49475500D01*
X132651643Y-49472073D01*
X132656673Y-49471341D01*
X132708626Y-49464866D01*
X132708628Y-49464864D01*
X132716141Y-49462628D01*
X132723606Y-49460066D01*
X132723606Y-49460065D01*
X132723610Y-49460065D01*
X132769636Y-49435157D01*
X132774193Y-49432812D01*
X132789102Y-49425522D01*
X132821211Y-49409826D01*
X132821213Y-49409823D01*
X132827594Y-49405268D01*
X132833820Y-49400421D01*
X132833826Y-49400419D01*
X132869293Y-49361890D01*
X132872795Y-49358240D01*
X137528889Y-44702146D01*
X137548746Y-44686022D01*
X137557836Y-44680084D01*
X137577282Y-44655098D01*
X137587460Y-44643576D01*
X137587520Y-44643517D01*
X137599597Y-44626600D01*
X137602663Y-44622489D01*
X137634809Y-44581189D01*
X137634810Y-44581183D01*
X137638542Y-44574289D01*
X137642003Y-44567207D01*
X137642010Y-44567199D01*
X137656955Y-44516995D01*
X137658483Y-44512224D01*
X137675500Y-44462660D01*
X137675500Y-44462656D01*
X137676790Y-44454924D01*
X137677768Y-44447085D01*
X137675606Y-44394807D01*
X137675500Y-44389683D01*
X137675500Y-38681898D01*
X137695185Y-38614859D01*
X137711809Y-38594227D01*
X137850824Y-38455212D01*
X137912141Y-38421731D01*
X137981833Y-38426715D01*
X138037767Y-38468586D01*
X138062184Y-38534050D01*
X138062500Y-38542891D01*
X138062500Y-38560804D01*
X138062501Y-38560815D01*
X138072644Y-38660107D01*
X138125952Y-38820981D01*
X138125957Y-38820992D01*
X138214924Y-38965228D01*
X138214927Y-38965232D01*
X138334767Y-39085072D01*
X138334771Y-39085075D01*
X138479007Y-39174042D01*
X138479018Y-39174047D01*
X138639893Y-39227355D01*
X138739183Y-39237499D01*
X138787499Y-39237498D01*
X138787500Y-39237498D01*
X138787500Y-38161500D01*
X138807185Y-38094461D01*
X138859989Y-38048706D01*
X138911500Y-38037500D01*
X139163500Y-38037500D01*
X139230539Y-38057185D01*
X139276294Y-38109989D01*
X139287500Y-38161500D01*
X139287500Y-39237499D01*
X139335808Y-39237499D01*
X139335822Y-39237498D01*
X139435107Y-39227355D01*
X139595981Y-39174047D01*
X139595992Y-39174042D01*
X139740228Y-39085075D01*
X139740232Y-39085072D01*
X139860072Y-38965232D01*
X139860075Y-38965228D01*
X139949042Y-38820992D01*
X139949047Y-38820981D01*
X139960294Y-38787041D01*
X140000066Y-38729596D01*
X140064582Y-38702773D01*
X140133358Y-38715088D01*
X140184558Y-38762631D01*
X140202000Y-38826045D01*
X140202000Y-38870760D01*
X140211926Y-38938891D01*
X140263303Y-39043985D01*
X140346014Y-39126696D01*
X140346015Y-39126696D01*
X140346017Y-39126698D01*
X140451107Y-39178073D01*
X140485173Y-39183036D01*
X140519239Y-39188000D01*
X140519240Y-39188000D01*
X141610761Y-39188000D01*
X141633471Y-39184691D01*
X141678893Y-39178073D01*
X141783983Y-39126698D01*
X141864506Y-39046174D01*
X141893158Y-39024808D01*
X141897166Y-39022639D01*
X141901642Y-39020336D01*
X141948710Y-38997326D01*
X141948712Y-38997324D01*
X141955093Y-38992768D01*
X141961319Y-38987921D01*
X141961325Y-38987919D01*
X141996792Y-38949390D01*
X142000294Y-38945740D01*
X142265319Y-38680716D01*
X142326642Y-38647231D01*
X142396334Y-38652215D01*
X142452267Y-38694087D01*
X142476684Y-38759551D01*
X142477000Y-38768397D01*
X142477000Y-38870760D01*
X142486926Y-38938891D01*
X142538303Y-39043985D01*
X142621014Y-39126696D01*
X142621015Y-39126696D01*
X142621017Y-39126698D01*
X142726107Y-39178073D01*
X142760173Y-39183036D01*
X142794239Y-39188000D01*
X142794240Y-39188000D01*
X143885761Y-39188000D01*
X143908471Y-39184691D01*
X143953893Y-39178073D01*
X144058983Y-39126698D01*
X144141698Y-39043983D01*
X144141700Y-39043977D01*
X144144577Y-39039950D01*
X144199551Y-38996826D01*
X144245497Y-38988000D01*
X144514904Y-38988000D01*
X144581943Y-39007685D01*
X144627698Y-39060489D01*
X144631945Y-39071044D01*
X144653453Y-39132509D01*
X144659707Y-39150382D01*
X144740350Y-39259650D01*
X144849618Y-39340293D01*
X144892345Y-39355244D01*
X144977799Y-39385146D01*
X145008230Y-39388000D01*
X145008234Y-39388000D01*
X145113000Y-39388000D01*
X145180039Y-39407685D01*
X145225794Y-39460489D01*
X145237000Y-39512000D01*
X145237000Y-42320361D01*
X145235812Y-42337488D01*
X145234727Y-42345265D01*
X145236868Y-42391579D01*
X145237000Y-42397304D01*
X145237000Y-42415342D01*
X145237447Y-42420171D01*
X145238681Y-42430805D01*
X145239915Y-42457492D01*
X145239916Y-42457497D01*
X145242714Y-42463834D01*
X145251164Y-42491120D01*
X145252437Y-42497929D01*
X145252437Y-42497930D01*
X145252439Y-42497933D01*
X145266501Y-42520646D01*
X145274497Y-42535815D01*
X145285294Y-42560265D01*
X145285295Y-42560266D01*
X145285296Y-42560268D01*
X145290189Y-42565161D01*
X145307935Y-42587565D01*
X145311577Y-42593448D01*
X145311579Y-42593450D01*
X145311580Y-42593451D01*
X145311581Y-42593452D01*
X145332781Y-42609461D01*
X145332896Y-42609548D01*
X145345850Y-42620821D01*
X145410604Y-42685575D01*
X145444089Y-42746898D01*
X145445661Y-42790902D01*
X145444353Y-42799999D01*
X145464834Y-42942456D01*
X145516241Y-43055020D01*
X145524623Y-43073373D01*
X145618872Y-43182143D01*
X145739947Y-43259953D01*
X145739950Y-43259954D01*
X145739949Y-43259954D01*
X145878036Y-43300499D01*
X145878038Y-43300500D01*
X145878039Y-43300500D01*
X146021962Y-43300500D01*
X146021962Y-43300499D01*
X146160053Y-43259953D01*
X146281128Y-43182143D01*
X146375377Y-43073373D01*
X146435165Y-42942457D01*
X146455647Y-42800000D01*
X146435165Y-42657543D01*
X146375377Y-42526627D01*
X146281128Y-42417857D01*
X146160053Y-42340047D01*
X146160051Y-42340046D01*
X146160049Y-42340045D01*
X146160050Y-42340045D01*
X146021963Y-42299500D01*
X146021961Y-42299500D01*
X145962000Y-42299500D01*
X145894961Y-42279815D01*
X145849206Y-42227011D01*
X145838000Y-42175500D01*
X145838000Y-39512000D01*
X145857685Y-39444961D01*
X145910489Y-39399206D01*
X145962000Y-39388000D01*
X146066770Y-39388000D01*
X146097199Y-39385146D01*
X146097201Y-39385146D01*
X146161290Y-39362719D01*
X146225382Y-39340293D01*
X146334650Y-39259650D01*
X146415293Y-39150382D01*
X146440833Y-39077393D01*
X146460146Y-39022201D01*
X146460146Y-39022199D01*
X146463000Y-38991769D01*
X146463000Y-38383230D01*
X146460147Y-38352810D01*
X146460146Y-38352808D01*
X146460146Y-38352801D01*
X146443632Y-38305609D01*
X146440070Y-38235834D01*
X146472991Y-38176978D01*
X146727511Y-37922458D01*
X146740463Y-37911188D01*
X146746723Y-37906460D01*
X146746728Y-37906458D01*
X146777988Y-37872166D01*
X146781902Y-37868067D01*
X146794674Y-37855297D01*
X146794675Y-37855296D01*
X146797782Y-37851554D01*
X146804416Y-37843176D01*
X146822416Y-37823433D01*
X146824917Y-37816976D01*
X146838250Y-37791684D01*
X146838266Y-37791659D01*
X146842157Y-37785981D01*
X146848272Y-37759978D01*
X146853354Y-37743571D01*
X146863000Y-37718673D01*
X146863000Y-37711748D01*
X146866294Y-37683356D01*
X146867879Y-37676619D01*
X146864189Y-37650165D01*
X146863000Y-37633035D01*
X146863000Y-37050000D01*
X150375000Y-37050000D01*
X151025000Y-37050000D01*
X151025000Y-36325000D01*
X151024999Y-36324999D01*
X151018436Y-36325000D01*
X151018417Y-36325001D01*
X150947897Y-36331408D01*
X150947892Y-36331409D01*
X150785603Y-36381981D01*
X150640122Y-36469927D01*
X150519927Y-36590122D01*
X150431980Y-36735604D01*
X150381409Y-36897893D01*
X150375000Y-36968427D01*
X150375000Y-37050000D01*
X146863000Y-37050000D01*
X146863000Y-35804636D01*
X146864189Y-35787505D01*
X146865271Y-35779739D01*
X146865273Y-35779735D01*
X146863132Y-35733420D01*
X146863000Y-35727695D01*
X146863000Y-35709659D01*
X146862546Y-35704766D01*
X146861317Y-35694180D01*
X146860085Y-35667508D01*
X146857286Y-35661170D01*
X146848833Y-35633873D01*
X146847561Y-35627067D01*
X146833502Y-35604362D01*
X146825498Y-35589176D01*
X146819600Y-35575819D01*
X146814706Y-35564734D01*
X146809809Y-35559837D01*
X146792061Y-35537431D01*
X146788419Y-35531548D01*
X146767109Y-35515456D01*
X146754152Y-35504181D01*
X146499318Y-35249347D01*
X146465833Y-35188024D01*
X146462999Y-35161666D01*
X146462999Y-34730982D01*
X146461100Y-34718989D01*
X146448146Y-34637196D01*
X146390550Y-34524158D01*
X146390546Y-34524154D01*
X146390545Y-34524152D01*
X146300847Y-34434454D01*
X146300844Y-34434452D01*
X146300842Y-34434450D01*
X146197684Y-34381888D01*
X146187801Y-34376852D01*
X146094024Y-34362000D01*
X145630982Y-34362000D01*
X145550019Y-34374823D01*
X145537196Y-34376854D01*
X145424158Y-34434450D01*
X145424157Y-34434451D01*
X145424152Y-34434454D01*
X145334454Y-34524152D01*
X145334451Y-34524157D01*
X145276852Y-34637198D01*
X145262000Y-34730975D01*
X145262000Y-35344017D01*
X145264165Y-35357685D01*
X145276854Y-35437804D01*
X145334450Y-35550842D01*
X145334452Y-35550844D01*
X145334454Y-35550847D01*
X145359426Y-35575819D01*
X145392911Y-35637142D01*
X145387927Y-35706834D01*
X145346055Y-35762767D01*
X145280591Y-35787184D01*
X145271745Y-35787500D01*
X145012529Y-35787500D01*
X145012512Y-35787501D01*
X144909802Y-35797994D01*
X144783676Y-35839788D01*
X144713847Y-35842190D01*
X144653805Y-35806458D01*
X144622613Y-35743937D01*
X144630174Y-35674478D01*
X144656988Y-35634403D01*
X144740550Y-35550842D01*
X144798146Y-35437804D01*
X144798146Y-35437802D01*
X144798147Y-35437801D01*
X144809030Y-35369082D01*
X144813000Y-35344019D01*
X144812999Y-34730982D01*
X144798146Y-34637196D01*
X144740550Y-34524158D01*
X144740546Y-34524154D01*
X144740545Y-34524152D01*
X144650847Y-34434454D01*
X144650844Y-34434452D01*
X144650842Y-34434450D01*
X144547684Y-34381888D01*
X144537801Y-34376852D01*
X144444024Y-34362000D01*
X143980982Y-34362000D01*
X143900019Y-34374823D01*
X143887196Y-34376854D01*
X143774158Y-34434450D01*
X143774157Y-34434451D01*
X143774152Y-34434454D01*
X143684454Y-34524152D01*
X143684451Y-34524157D01*
X143626852Y-34637198D01*
X143623837Y-34646480D01*
X143621325Y-34645663D01*
X143597680Y-34695537D01*
X143538366Y-34732466D01*
X143505140Y-34737000D01*
X143244860Y-34737000D01*
X143177821Y-34717315D01*
X143132066Y-34664511D01*
X143126588Y-34646342D01*
X143126163Y-34646481D01*
X143123147Y-34637199D01*
X143123146Y-34637197D01*
X143123146Y-34637196D01*
X143065550Y-34524158D01*
X143065546Y-34524154D01*
X143065545Y-34524152D01*
X142975847Y-34434454D01*
X142975844Y-34434452D01*
X142975842Y-34434450D01*
X142872684Y-34381888D01*
X142862801Y-34376852D01*
X142769024Y-34362000D01*
X142305982Y-34362000D01*
X142225019Y-34374823D01*
X142212196Y-34376854D01*
X142099158Y-34434450D01*
X142099157Y-34434451D01*
X142099152Y-34434454D01*
X142009454Y-34524152D01*
X142009450Y-34524157D01*
X141984505Y-34573114D01*
X141936529Y-34623909D01*
X141868708Y-34640703D01*
X141802574Y-34618164D01*
X141759123Y-34563448D01*
X141755635Y-34553707D01*
X141730517Y-34473100D01*
X141642572Y-34327622D01*
X141545786Y-34230836D01*
X141512301Y-34169513D01*
X141517285Y-34099821D01*
X141559157Y-34043888D01*
X141575006Y-34033801D01*
X141586450Y-34027685D01*
X141746410Y-33896410D01*
X141877685Y-33736450D01*
X141975232Y-33553954D01*
X142035300Y-33355934D01*
X142050500Y-33201608D01*
X142050500Y-32798392D01*
X142035300Y-32644066D01*
X141975232Y-32446046D01*
X141877685Y-32263550D01*
X141785819Y-32151610D01*
X141746410Y-32103589D01*
X141586452Y-31972317D01*
X141586453Y-31972317D01*
X141586450Y-31972315D01*
X141403954Y-31874768D01*
X141205934Y-31814700D01*
X141205932Y-31814699D01*
X141205934Y-31814699D01*
X141000000Y-31794417D01*
X140794067Y-31814699D01*
X140596043Y-31874769D01*
X140510694Y-31920390D01*
X140413550Y-31972315D01*
X140413548Y-31972316D01*
X140413547Y-31972317D01*
X140253589Y-32103589D01*
X140122317Y-32263547D01*
X140122315Y-32263550D01*
X140090886Y-32322349D01*
X140083357Y-32336435D01*
X140034394Y-32386279D01*
X139966256Y-32401739D01*
X139900577Y-32377907D01*
X139858208Y-32322349D01*
X139849999Y-32277981D01*
X139849999Y-32200028D01*
X139849998Y-32200013D01*
X139839505Y-32097302D01*
X139784358Y-31930880D01*
X139784356Y-31930875D01*
X139692315Y-31781654D01*
X139568345Y-31657684D01*
X139419124Y-31565643D01*
X139419119Y-31565641D01*
X139252697Y-31510494D01*
X139252690Y-31510493D01*
X139149986Y-31500000D01*
X138750000Y-31500000D01*
X138750000Y-32564498D01*
X138642315Y-32515320D01*
X138535763Y-32500000D01*
X138464237Y-32500000D01*
X138357685Y-32515320D01*
X138250000Y-32564498D01*
X138250000Y-31500000D01*
X137850028Y-31500000D01*
X137850012Y-31500001D01*
X137747302Y-31510494D01*
X137580880Y-31565641D01*
X137580875Y-31565643D01*
X137431654Y-31657684D01*
X137307684Y-31781654D01*
X137229539Y-31908348D01*
X137177591Y-31955072D01*
X137108628Y-31966295D01*
X137044546Y-31938451D01*
X137005690Y-31880382D01*
X137000000Y-31843251D01*
X137000000Y-30624500D01*
X137019685Y-30557461D01*
X137072489Y-30511706D01*
X137124000Y-30500500D01*
X155949138Y-30500500D01*
X156016177Y-30520185D01*
G37*
%TD.AperFunction*%
%TA.AperFunction,Conductor*%
G36*
X138750000Y-34499999D02*
G01*
X138769089Y-34519088D01*
X138802574Y-34580411D01*
X138797590Y-34650103D01*
X138779261Y-34682932D01*
X138760222Y-34707393D01*
X138750074Y-34718888D01*
X138749983Y-34718979D01*
X138749974Y-34718989D01*
X138737902Y-34735897D01*
X138734841Y-34740003D01*
X138702692Y-34781308D01*
X138698947Y-34788229D01*
X138695488Y-34795304D01*
X138680557Y-34845455D01*
X138678995Y-34850331D01*
X138662000Y-34899838D01*
X138660706Y-34907592D01*
X138659731Y-34915411D01*
X138661894Y-34967691D01*
X138662000Y-34972816D01*
X138662000Y-36022908D01*
X138642315Y-36089947D01*
X138594295Y-36133392D01*
X138534283Y-36163969D01*
X138534274Y-36163976D01*
X138438976Y-36259274D01*
X138438973Y-36259278D01*
X138438972Y-36259280D01*
X138393613Y-36348303D01*
X138377779Y-36379378D01*
X138362000Y-36479006D01*
X138362000Y-36830599D01*
X138342315Y-36897638D01*
X138325681Y-36918280D01*
X137211681Y-38032280D01*
X137150358Y-38065765D01*
X137080666Y-38060781D01*
X137024733Y-38018909D01*
X137000316Y-37953445D01*
X137000000Y-37944599D01*
X137000000Y-34156748D01*
X137019685Y-34089709D01*
X137072489Y-34043954D01*
X137141647Y-34034010D01*
X137205203Y-34063035D01*
X137229539Y-34091651D01*
X137307684Y-34218345D01*
X137431654Y-34342315D01*
X137580875Y-34434356D01*
X137580880Y-34434358D01*
X137747302Y-34489505D01*
X137747309Y-34489506D01*
X137850019Y-34499999D01*
X138249999Y-34499999D01*
X138250000Y-34499998D01*
X138250000Y-33435501D01*
X138357685Y-33484680D01*
X138464237Y-33500000D01*
X138535763Y-33500000D01*
X138642315Y-33484680D01*
X138750000Y-33435501D01*
X138750000Y-34499999D01*
G37*
%TD.AperFunction*%
%TA.AperFunction,Conductor*%
G36*
X139908852Y-34724698D02*
G01*
X139953199Y-34753199D01*
X139987500Y-34787500D01*
X141013500Y-34787500D01*
X141080539Y-34807185D01*
X141126294Y-34859989D01*
X141137500Y-34911500D01*
X141137500Y-36012499D01*
X141144081Y-36012499D01*
X141214602Y-36006091D01*
X141214607Y-36006090D01*
X141376896Y-35955518D01*
X141522377Y-35867572D01*
X141642572Y-35747377D01*
X141730517Y-35601898D01*
X141755635Y-35521292D01*
X141794372Y-35463144D01*
X141858397Y-35435169D01*
X141927383Y-35446250D01*
X141979426Y-35492868D01*
X141984501Y-35501877D01*
X142009450Y-35550842D01*
X142009452Y-35550844D01*
X142009454Y-35550847D01*
X142099152Y-35640545D01*
X142099154Y-35640546D01*
X142099158Y-35640550D01*
X142212194Y-35698145D01*
X142212198Y-35698147D01*
X142305975Y-35712999D01*
X142305981Y-35713000D01*
X142769018Y-35712999D01*
X142862804Y-35698146D01*
X142975842Y-35640550D01*
X143065550Y-35550842D01*
X143123146Y-35437804D01*
X143123146Y-35437802D01*
X143123147Y-35437801D01*
X143126163Y-35428520D01*
X143128674Y-35429336D01*
X143152320Y-35379463D01*
X143211634Y-35342534D01*
X143244860Y-35338000D01*
X143505140Y-35338000D01*
X143572179Y-35357685D01*
X143617934Y-35410489D01*
X143623411Y-35428657D01*
X143623837Y-35428519D01*
X143626852Y-35437800D01*
X143626853Y-35437803D01*
X143626854Y-35437804D01*
X143684450Y-35550842D01*
X143684452Y-35550844D01*
X143684454Y-35550847D01*
X143774152Y-35640545D01*
X143774156Y-35640548D01*
X143774158Y-35640550D01*
X143812759Y-35660218D01*
X143863554Y-35708192D01*
X143880349Y-35776013D01*
X143857812Y-35842147D01*
X143844144Y-35858383D01*
X143451848Y-36250681D01*
X143390525Y-36284166D01*
X143364167Y-36287000D01*
X142794239Y-36287000D01*
X142726108Y-36296926D01*
X142621014Y-36348303D01*
X142538303Y-36431014D01*
X142486926Y-36536108D01*
X142477000Y-36604239D01*
X142477000Y-36706601D01*
X142457315Y-36773640D01*
X142404511Y-36819395D01*
X142335353Y-36829339D01*
X142271797Y-36800314D01*
X142265319Y-36794282D01*
X142029648Y-36558611D01*
X142013521Y-36538752D01*
X142007585Y-36529667D01*
X142007584Y-36529666D01*
X142007583Y-36529664D01*
X141982608Y-36510225D01*
X141971090Y-36500053D01*
X141971014Y-36499977D01*
X141954094Y-36487898D01*
X141949978Y-36484829D01*
X141908688Y-36452690D01*
X141901771Y-36448947D01*
X141886817Y-36441636D01*
X141853601Y-36417919D01*
X141783985Y-36348303D01*
X141678891Y-36296926D01*
X141610761Y-36287000D01*
X141610760Y-36287000D01*
X140519240Y-36287000D01*
X140519239Y-36287000D01*
X140451108Y-36296926D01*
X140343769Y-36349401D01*
X140289309Y-36362000D01*
X139764353Y-36362000D01*
X139697314Y-36342315D01*
X139653868Y-36294294D01*
X139648708Y-36284166D01*
X139636028Y-36259280D01*
X139636025Y-36259277D01*
X139636023Y-36259274D01*
X139540725Y-36163976D01*
X139540716Y-36163969D01*
X139480705Y-36133392D01*
X139429909Y-36085418D01*
X139413000Y-36022908D01*
X139413000Y-35287500D01*
X139987501Y-35287500D01*
X139987501Y-35369082D01*
X139993908Y-35439602D01*
X139993909Y-35439607D01*
X140044481Y-35601896D01*
X140132427Y-35747377D01*
X140252622Y-35867572D01*
X140398104Y-35955519D01*
X140398103Y-35955519D01*
X140560394Y-36006090D01*
X140560393Y-36006090D01*
X140630908Y-36012498D01*
X140630926Y-36012499D01*
X140637499Y-36012498D01*
X140637500Y-36012498D01*
X140637500Y-35287500D01*
X139987501Y-35287500D01*
X139413000Y-35287500D01*
X139413000Y-35169398D01*
X139432685Y-35102359D01*
X139449314Y-35081721D01*
X139777838Y-34753198D01*
X139839160Y-34719714D01*
X139908852Y-34724698D01*
G37*
%TD.AperFunction*%
%TD*%
M02*
