%TF.GenerationSoftware,KiCad,Pcbnew,7.0.11-rc3*%
%TF.CreationDate,2025-03-16T23:26:45+08:00*%
%TF.ProjectId,dashboard,64617368-626f-4617-9264-2e6b69636164,rev?*%
%TF.SameCoordinates,Original*%
%TF.FileFunction,Plated,1,2,PTH,Drill*%
%TF.FilePolarity,Positive*%
%FSLAX46Y46*%
G04 Gerber Fmt 4.6, Leading zero omitted, Abs format (unit mm)*
G04 Created by KiCad (PCBNEW 7.0.11-rc3) date 2025-03-16 23:26:45*
%MOMM*%
%LPD*%
G01*
G04 APERTURE LIST*
%TA.AperFunction,ViaDrill*%
%ADD10C,0.300000*%
%TD*%
%TA.AperFunction,ComponentDrill*%
%ADD11C,0.950000*%
%TD*%
%TA.AperFunction,ComponentDrill*%
%ADD12C,1.000000*%
%TD*%
%TA.AperFunction,ComponentDrill*%
%ADD13C,3.200000*%
%TD*%
G04 APERTURE END LIST*
D10*
X61490000Y-52570000D03*
X61490000Y-62730000D03*
X61490000Y-88130000D03*
X64030000Y-52570000D03*
X64030000Y-55110000D03*
X64030000Y-57650000D03*
X64030000Y-60190000D03*
X64030000Y-62730000D03*
X64030000Y-67810000D03*
X64030000Y-70350000D03*
X64030000Y-72890000D03*
X64030000Y-77970000D03*
X64030000Y-80510000D03*
X64030000Y-83050000D03*
X64030000Y-85590000D03*
X66570000Y-47490000D03*
X66570000Y-50030000D03*
X66570000Y-57650000D03*
X66570000Y-60190000D03*
X66570000Y-62730000D03*
X66570000Y-67810000D03*
X66570000Y-70350000D03*
X66570000Y-72890000D03*
X66570000Y-80510000D03*
X66570000Y-83050000D03*
X69110000Y-47490000D03*
X69110000Y-50030000D03*
X69110000Y-67810000D03*
X69110000Y-70350000D03*
X69110000Y-77970000D03*
X69110000Y-80510000D03*
X69110000Y-83050000D03*
X69110000Y-90670000D03*
X69800000Y-72800000D03*
X70400000Y-76000000D03*
X71200000Y-73800000D03*
X71650000Y-50030000D03*
X71650000Y-52570000D03*
X71650000Y-55110000D03*
X71650000Y-77970000D03*
X71650000Y-80510000D03*
X71650000Y-83050000D03*
X71650000Y-85590000D03*
X71650000Y-88130000D03*
X74190000Y-50030000D03*
X74190000Y-52570000D03*
X74190000Y-55110000D03*
X74190000Y-57650000D03*
X74190000Y-62730000D03*
X74190000Y-85590000D03*
X74190000Y-88130000D03*
X75400000Y-82600000D03*
X76600000Y-74200000D03*
X76600000Y-75400000D03*
X76730000Y-47490000D03*
X76730000Y-52570000D03*
X76730000Y-55110000D03*
X76730000Y-60190000D03*
X76730000Y-90670000D03*
X76800000Y-73200000D03*
X77400000Y-83000000D03*
X77950000Y-78750000D03*
X78600000Y-73000000D03*
X79270000Y-47490000D03*
X79270000Y-83050000D03*
X79270000Y-90670000D03*
X79900000Y-67200000D03*
X80100000Y-77600000D03*
X81600000Y-76600000D03*
X81810000Y-52570000D03*
X81810000Y-55110000D03*
X81810000Y-57650000D03*
X81810000Y-60190000D03*
X81810000Y-88130000D03*
X82600000Y-84600000D03*
X84350000Y-50030000D03*
X84350000Y-52570000D03*
X84350000Y-55110000D03*
X84350000Y-57650000D03*
X84350000Y-60190000D03*
X84350000Y-62730000D03*
X84350000Y-65270000D03*
X84350000Y-80510000D03*
X84350000Y-85590000D03*
X84350000Y-88130000D03*
X84800000Y-74000000D03*
X85200000Y-75200000D03*
X86890000Y-50030000D03*
X86890000Y-52570000D03*
X86890000Y-55110000D03*
X86890000Y-57650000D03*
X86890000Y-60190000D03*
X86890000Y-62730000D03*
X86890000Y-65270000D03*
X86890000Y-67810000D03*
X86890000Y-80510000D03*
X86890000Y-83050000D03*
X86890000Y-90670000D03*
X88400000Y-73300000D03*
X89430000Y-47490000D03*
X89430000Y-50030000D03*
X89430000Y-52570000D03*
X89430000Y-55110000D03*
X89430000Y-57650000D03*
X89430000Y-60190000D03*
X89430000Y-62730000D03*
X89430000Y-65270000D03*
X89430000Y-90670000D03*
X91970000Y-47490000D03*
X91970000Y-50030000D03*
X91970000Y-52570000D03*
X91970000Y-55110000D03*
X91970000Y-57650000D03*
X91970000Y-60190000D03*
X91970000Y-62730000D03*
X91970000Y-80510000D03*
X91970000Y-83050000D03*
X91970000Y-85590000D03*
X91970000Y-88130000D03*
X94510000Y-47490000D03*
X94510000Y-50030000D03*
X94510000Y-52570000D03*
X94510000Y-55110000D03*
X94510000Y-57650000D03*
X94510000Y-60190000D03*
X94510000Y-65270000D03*
X94510000Y-72890000D03*
X94510000Y-75430000D03*
X94510000Y-88130000D03*
X96000000Y-84000000D03*
X97050000Y-50030000D03*
X97050000Y-52570000D03*
X97050000Y-55110000D03*
X97050000Y-62730000D03*
X97050000Y-70350000D03*
X97050000Y-72890000D03*
X97050000Y-75430000D03*
X97050000Y-85590000D03*
X97050000Y-90670000D03*
X97050000Y-93210000D03*
X99100000Y-74800000D03*
X99590000Y-50030000D03*
X99590000Y-52570000D03*
X99590000Y-55110000D03*
X99590000Y-90670000D03*
X99590000Y-93210000D03*
X100500000Y-66600000D03*
X102130000Y-50030000D03*
X102130000Y-52570000D03*
X102130000Y-55110000D03*
X102130000Y-65270000D03*
X102130000Y-72890000D03*
X102130000Y-75430000D03*
X102130000Y-83050000D03*
X102130000Y-85590000D03*
X103200000Y-87800000D03*
X104670000Y-47490000D03*
X104670000Y-50030000D03*
X104670000Y-52570000D03*
X104670000Y-62730000D03*
X104670000Y-72890000D03*
X104670000Y-83050000D03*
X104720000Y-58086625D03*
X104720000Y-67880000D03*
X104720000Y-78186625D03*
X106120000Y-59486625D03*
X106120000Y-69280000D03*
X106120000Y-79586625D03*
X107210000Y-47490000D03*
X107210000Y-50030000D03*
X107210000Y-52570000D03*
X107210000Y-62730000D03*
X107210000Y-83050000D03*
X107210000Y-88130000D03*
X107210000Y-90670000D03*
X107210000Y-93210000D03*
X109750000Y-52570000D03*
X109750000Y-55110000D03*
X109750000Y-57650000D03*
X109750000Y-62730000D03*
X109750000Y-65270000D03*
X109750000Y-67810000D03*
X109750000Y-72890000D03*
X109750000Y-75430000D03*
X109750000Y-77970000D03*
X109750000Y-83050000D03*
X109750000Y-85590000D03*
X109750000Y-88130000D03*
X112290000Y-52570000D03*
X112290000Y-55110000D03*
X112290000Y-62730000D03*
X112290000Y-65270000D03*
X112290000Y-72890000D03*
X112290000Y-75430000D03*
X112290000Y-83050000D03*
X112290000Y-85590000D03*
X112290000Y-88130000D03*
D11*
%TO.C,J11*%
X82000000Y-48000000D03*
X84500000Y-48000000D03*
X87000000Y-48000000D03*
%TO.C,J13*%
X96000000Y-48000000D03*
X98500000Y-48000000D03*
X101000000Y-48000000D03*
D12*
%TO.C,J7*%
X62000000Y-57500000D03*
X62000000Y-60000000D03*
%TO.C,J8*%
X62000000Y-69000000D03*
X62000000Y-71500000D03*
%TO.C,J9*%
X62000000Y-79500000D03*
X62000000Y-82000000D03*
%TO.C,J6*%
X70500000Y-92000000D03*
%TO.C,J12*%
X72000000Y-48000000D03*
%TO.C,J6*%
X73000000Y-92000000D03*
%TO.C,J12*%
X74500000Y-48000000D03*
%TO.C,J5*%
X81000000Y-92000000D03*
X83500000Y-92000000D03*
%TO.C,J10*%
X88800000Y-76860000D03*
X88800000Y-79400000D03*
X88800000Y-81940000D03*
%TO.C,J4*%
X91500000Y-92000000D03*
X94000000Y-92000000D03*
%TO.C,J14*%
X102000000Y-92000000D03*
X104500000Y-92000000D03*
%TO.C,J1*%
X111920000Y-58386625D03*
X111920000Y-60886625D03*
%TO.C,J2*%
X111920000Y-68280000D03*
X111920000Y-70780000D03*
%TO.C,J3*%
X111920000Y-78486625D03*
X111920000Y-80986625D03*
D13*
%TO.C,H1*%
X62500000Y-48500000D03*
%TO.C,H2*%
X62500000Y-91500000D03*
%TO.C,H4*%
X111500000Y-48500000D03*
%TO.C,H3*%
X111500000Y-91500000D03*
M02*
