%TF.GenerationSoftware,KiCad,Pcbnew,7.0.11-rc3*%
%TF.CreationDate,2025-03-16T23:26:39+08:00*%
%TF.ProjectId,dashboard,64617368-626f-4617-9264-2e6b69636164,rev?*%
%TF.SameCoordinates,Original*%
%TF.FileFunction,Copper,L1,Top*%
%TF.FilePolarity,Positive*%
%FSLAX46Y46*%
G04 Gerber Fmt 4.6, Leading zero omitted, Abs format (unit mm)*
G04 Created by KiCad (PCBNEW 7.0.11-rc3) date 2025-03-16 23:26:39*
%MOMM*%
%LPD*%
G01*
G04 APERTURE LIST*
G04 Aperture macros list*
%AMRoundRect*
0 Rectangle with rounded corners*
0 $1 Rounding radius*
0 $2 $3 $4 $5 $6 $7 $8 $9 X,Y pos of 4 corners*
0 Add a 4 corners polygon primitive as box body*
4,1,4,$2,$3,$4,$5,$6,$7,$8,$9,$2,$3,0*
0 Add four circle primitives for the rounded corners*
1,1,$1+$1,$2,$3*
1,1,$1+$1,$4,$5*
1,1,$1+$1,$6,$7*
1,1,$1+$1,$8,$9*
0 Add four rect primitives between the rounded corners*
20,1,$1+$1,$2,$3,$4,$5,0*
20,1,$1+$1,$4,$5,$6,$7,0*
20,1,$1+$1,$6,$7,$8,$9,0*
20,1,$1+$1,$8,$9,$2,$3,0*%
G04 Aperture macros list end*
%TA.AperFunction,ComponentPad*%
%ADD10RoundRect,0.250000X0.750000X-0.600000X0.750000X0.600000X-0.750000X0.600000X-0.750000X-0.600000X0*%
%TD*%
%TA.AperFunction,ComponentPad*%
%ADD11O,2.000000X1.700000*%
%TD*%
%TA.AperFunction,SMDPad,CuDef*%
%ADD12RoundRect,0.225000X0.225000X0.250000X-0.225000X0.250000X-0.225000X-0.250000X0.225000X-0.250000X0*%
%TD*%
%TA.AperFunction,SMDPad,CuDef*%
%ADD13RoundRect,0.150000X0.150000X-0.825000X0.150000X0.825000X-0.150000X0.825000X-0.150000X-0.825000X0*%
%TD*%
%TA.AperFunction,ComponentPad*%
%ADD14RoundRect,0.250000X0.600000X0.750000X-0.600000X0.750000X-0.600000X-0.750000X0.600000X-0.750000X0*%
%TD*%
%TA.AperFunction,ComponentPad*%
%ADD15O,1.700000X2.000000*%
%TD*%
%TA.AperFunction,SMDPad,CuDef*%
%ADD16RoundRect,0.243750X0.243750X0.456250X-0.243750X0.456250X-0.243750X-0.456250X0.243750X-0.456250X0*%
%TD*%
%TA.AperFunction,ComponentPad*%
%ADD17O,1.700000X1.700000*%
%TD*%
%TA.AperFunction,SMDPad,CuDef*%
%ADD18RoundRect,0.225000X-0.225000X-0.250000X0.225000X-0.250000X0.225000X0.250000X-0.225000X0.250000X0*%
%TD*%
%TA.AperFunction,SMDPad,CuDef*%
%ADD19RoundRect,0.250000X-0.250000X-0.475000X0.250000X-0.475000X0.250000X0.475000X-0.250000X0.475000X0*%
%TD*%
%TA.AperFunction,ComponentPad*%
%ADD20C,5.500000*%
%TD*%
%TA.AperFunction,SMDPad,CuDef*%
%ADD21R,2.180000X1.600000*%
%TD*%
%TA.AperFunction,SMDPad,CuDef*%
%ADD22RoundRect,0.225000X0.250000X-0.225000X0.250000X0.225000X-0.250000X0.225000X-0.250000X-0.225000X0*%
%TD*%
%TA.AperFunction,SMDPad,CuDef*%
%ADD23RoundRect,0.150000X0.150000X-0.512500X0.150000X0.512500X-0.150000X0.512500X-0.150000X-0.512500X0*%
%TD*%
%TA.AperFunction,SMDPad,CuDef*%
%ADD24RoundRect,0.075000X-0.075000X0.662500X-0.075000X-0.662500X0.075000X-0.662500X0.075000X0.662500X0*%
%TD*%
%TA.AperFunction,SMDPad,CuDef*%
%ADD25RoundRect,0.075000X-0.662500X0.075000X-0.662500X-0.075000X0.662500X-0.075000X0.662500X0.075000X0*%
%TD*%
%TA.AperFunction,SMDPad,CuDef*%
%ADD26RoundRect,0.200000X0.275000X-0.200000X0.275000X0.200000X-0.275000X0.200000X-0.275000X-0.200000X0*%
%TD*%
%TA.AperFunction,ComponentPad*%
%ADD27RoundRect,0.250000X-0.600000X-0.725000X0.600000X-0.725000X0.600000X0.725000X-0.600000X0.725000X0*%
%TD*%
%TA.AperFunction,ComponentPad*%
%ADD28O,1.700000X1.950000*%
%TD*%
%TA.AperFunction,SMDPad,CuDef*%
%ADD29RoundRect,0.200000X-0.200000X-0.275000X0.200000X-0.275000X0.200000X0.275000X-0.200000X0.275000X0*%
%TD*%
%TA.AperFunction,ComponentPad*%
%ADD30RoundRect,0.250000X-0.600000X-0.750000X0.600000X-0.750000X0.600000X0.750000X-0.600000X0.750000X0*%
%TD*%
%TA.AperFunction,SMDPad,CuDef*%
%ADD31R,1.400000X1.200000*%
%TD*%
%TA.AperFunction,ComponentPad*%
%ADD32RoundRect,0.250000X-0.750000X0.600000X-0.750000X-0.600000X0.750000X-0.600000X0.750000X0.600000X0*%
%TD*%
%TA.AperFunction,SMDPad,CuDef*%
%ADD33R,1.200000X1.400000*%
%TD*%
%TA.AperFunction,SMDPad,CuDef*%
%ADD34RoundRect,0.200000X-0.275000X0.200000X-0.275000X-0.200000X0.275000X-0.200000X0.275000X0.200000X0*%
%TD*%
%TA.AperFunction,SMDPad,CuDef*%
%ADD35RoundRect,0.225000X-0.250000X0.225000X-0.250000X-0.225000X0.250000X-0.225000X0.250000X0.225000X0*%
%TD*%
%TA.AperFunction,ViaPad*%
%ADD36C,0.600000*%
%TD*%
%TA.AperFunction,Conductor*%
%ADD37C,0.200000*%
%TD*%
%TA.AperFunction,Conductor*%
%ADD38C,0.500000*%
%TD*%
G04 APERTURE END LIST*
D10*
%TO.P,J9,1,Pin_1*%
%TO.N,VDC*%
X62000000Y-82000000D03*
D11*
%TO.P,J9,2,Pin_2*%
%TO.N,Net-(J9-Pin_2)*%
X62000000Y-79500000D03*
%TD*%
D12*
%TO.P,C8,1*%
%TO.N,+3V3*%
X75750000Y-69700000D03*
%TO.P,C8,2*%
%TO.N,GND*%
X74200000Y-69700000D03*
%TD*%
D13*
%TO.P,U6,1,TXD*%
%TO.N,Net-(U4-PB8)*%
X96595000Y-64474998D03*
%TO.P,U6,2,GND*%
%TO.N,GND*%
X97865000Y-64474998D03*
%TO.P,U6,3,VCC*%
%TO.N,+5V*%
X99135000Y-64474998D03*
%TO.P,U6,4,RXD*%
%TO.N,Net-(U4-PB9)*%
X100405000Y-64474998D03*
%TO.P,U6,5,VRXD*%
%TO.N,+3V3*%
X100405000Y-59524998D03*
%TO.P,U6,6,CANL*%
%TO.N,CAN_N*%
X99135000Y-59524998D03*
%TO.P,U6,7,CANH*%
%TO.N,CAN_P*%
X97865000Y-59524998D03*
%TO.P,U6,8,S*%
%TO.N,unconnected-(U6-S-Pad8)*%
X96595000Y-59524998D03*
%TD*%
D14*
%TO.P,J5,1,Pin_1*%
%TO.N,VDC*%
X83500000Y-92000000D03*
D15*
%TO.P,J5,2,Pin_2*%
%TO.N,Net-(J5-Pin_2)*%
X81000000Y-92000000D03*
%TD*%
D16*
%TO.P,D3,1,K*%
%TO.N,Net-(D3-K)*%
X105120000Y-79786625D03*
%TO.P,D3,2,A*%
%TO.N,Net-(D3-A)*%
X103245000Y-79786625D03*
%TD*%
D14*
%TO.P,J6,1,Pin_1*%
%TO.N,VDC*%
X73000000Y-92000000D03*
D15*
%TO.P,J6,2,Pin_2*%
%TO.N,Net-(J6-Pin_2)*%
X70500000Y-92000000D03*
%TD*%
D17*
%TO.P,J10,1,Pin_1*%
%TO.N,SWDIO*%
X88800000Y-81940000D03*
%TO.P,J10,2,Pin_2*%
%TO.N,SWCLK*%
X88800000Y-79400000D03*
%TO.P,J10,3,Pin_3*%
%TO.N,GND*%
X88800000Y-76860000D03*
%TD*%
D10*
%TO.P,J8,1,Pin_1*%
%TO.N,VDC*%
X62000000Y-71500000D03*
D11*
%TO.P,J8,2,Pin_2*%
%TO.N,Net-(J8-Pin_2)*%
X62000000Y-69000000D03*
%TD*%
D12*
%TO.P,C17,1*%
%TO.N,+5V*%
X99200000Y-66725000D03*
%TO.P,C17,2*%
%TO.N,GND*%
X97650000Y-66725000D03*
%TD*%
D18*
%TO.P,C4,1*%
%TO.N,/LSE_OUT*%
X81525000Y-64125000D03*
%TO.P,C4,2*%
%TO.N,GND*%
X83075000Y-64125000D03*
%TD*%
D19*
%TO.P,C14,1*%
%TO.N,+3V3*%
X93637500Y-76812500D03*
%TO.P,C14,2*%
%TO.N,GND*%
X95537500Y-76812500D03*
%TD*%
D20*
%TO.P,H4,1,1*%
%TO.N,GND*%
X111500000Y-48500000D03*
%TD*%
D21*
%TO.P,SW1,1,A*%
%TO.N,GND*%
X78890000Y-58900000D03*
%TO.P,SW1,2,B*%
%TO.N,Net-(SW1-B)*%
X69710000Y-58900000D03*
%TD*%
D18*
%TO.P,C7,1*%
%TO.N,+3V3*%
X83625000Y-71000000D03*
%TO.P,C7,2*%
%TO.N,GND*%
X85175000Y-71000000D03*
%TD*%
D20*
%TO.P,H1,1,1*%
%TO.N,GND*%
X62500000Y-48500000D03*
%TD*%
D22*
%TO.P,C15,1*%
%TO.N,Net-(C15-Pad1)*%
X98395000Y-54674998D03*
%TO.P,C15,2*%
%TO.N,GND*%
X98395000Y-53124998D03*
%TD*%
D10*
%TO.P,J7,1,Pin_1*%
%TO.N,VDC*%
X62000000Y-60000000D03*
D11*
%TO.P,J7,2,Pin_2*%
%TO.N,Net-(J7-Pin_2)*%
X62000000Y-57500000D03*
%TD*%
D16*
%TO.P,D1,1,K*%
%TO.N,Net-(D1-K)*%
X105057500Y-59686625D03*
%TO.P,D1,2,A*%
%TO.N,Net-(D1-A)*%
X103182500Y-59686625D03*
%TD*%
D23*
%TO.P,U7,1,VIN*%
%TO.N,+5V*%
X93700000Y-82200000D03*
%TO.P,U7,2,GND*%
%TO.N,GND*%
X94650000Y-82200000D03*
%TO.P,U7,3,EN*%
%TO.N,+5V*%
X95600000Y-82200000D03*
%TO.P,U7,4,ADJ*%
%TO.N,Net-(U7-ADJ)*%
X95600000Y-79925000D03*
%TO.P,U7,5,VOUT*%
%TO.N,+3V3*%
X93700000Y-79925000D03*
%TD*%
D24*
%TO.P,U4,1,VBAT*%
%TO.N,+3V3*%
X81950000Y-71637500D03*
%TO.P,U4,2,PC13*%
%TO.N,ADC_CH1*%
X81450000Y-71637500D03*
%TO.P,U4,3,PC14*%
%TO.N,/LSE_IN*%
X80950000Y-71637500D03*
%TO.P,U4,4,PC15*%
%TO.N,/LSE_OUT*%
X80450000Y-71637500D03*
%TO.P,U4,5,PD0*%
%TO.N,/RCC_OSC_IN*%
X79950000Y-71637500D03*
%TO.P,U4,6,PD1*%
%TO.N,/RCC_OSC_OUT*%
X79450000Y-71637500D03*
%TO.P,U4,7,NRST*%
%TO.N,Net-(SW1-B)*%
X78950000Y-71637500D03*
%TO.P,U4,8,VSSA*%
%TO.N,GND*%
X78450000Y-71637500D03*
%TO.P,U4,9,VDDA*%
%TO.N,+3V3*%
X77950000Y-71637500D03*
%TO.P,U4,10,PA0*%
%TO.N,ADC0*%
X77450000Y-71637500D03*
%TO.P,U4,11,PA1*%
%TO.N,ADC1*%
X76950000Y-71637500D03*
%TO.P,U4,12,PA2*%
%TO.N,ADC2*%
X76450000Y-71637500D03*
D25*
%TO.P,U4,13,PA3*%
%TO.N,ADC3*%
X75037500Y-73050000D03*
%TO.P,U4,14,PA4*%
%TO.N,FUNC1_IO*%
X75037500Y-73550000D03*
%TO.P,U4,15,PA5*%
%TO.N,FUNC2_IO*%
X75037500Y-74050000D03*
%TO.P,U4,16,PA6*%
%TO.N,FUNC3_IO*%
X75037500Y-74550000D03*
%TO.P,U4,17,PA7*%
%TO.N,FUNC1_LED*%
X75037500Y-75050000D03*
%TO.P,U4,18,PB0*%
%TO.N,FUNC2_LED*%
X75037500Y-75550000D03*
%TO.P,U4,19,PB1*%
%TO.N,FUNC3_LED*%
X75037500Y-76050000D03*
%TO.P,U4,20,PB2*%
%TO.N,unconnected-(U4-PB2-Pad20)*%
X75037500Y-76550000D03*
%TO.P,U4,21,PB10*%
%TO.N,IC2*%
X75037500Y-77050000D03*
%TO.P,U4,22,PB11*%
%TO.N,IC3*%
X75037500Y-77550000D03*
%TO.P,U4,23,VSS*%
%TO.N,GND*%
X75037500Y-78050000D03*
%TO.P,U4,24,VDD*%
%TO.N,+3V3*%
X75037500Y-78550000D03*
D24*
%TO.P,U4,25,PB12*%
%TO.N,unconnected-(U4-PB12-Pad25)*%
X76450000Y-79962500D03*
%TO.P,U4,26,PB13*%
%TO.N,unconnected-(U4-PB13-Pad26)*%
X76950000Y-79962500D03*
%TO.P,U4,27,PB14*%
%TO.N,Fault3_LED*%
X77450000Y-79962500D03*
%TO.P,U4,28,PB15*%
%TO.N,RGB*%
X77950000Y-79962500D03*
%TO.P,U4,29,PA8*%
%TO.N,FAULT1_LED*%
X78450000Y-79962500D03*
%TO.P,U4,30,PA9*%
%TO.N,FAULT0_LED*%
X78950000Y-79962500D03*
%TO.P,U4,31,PA10*%
%TO.N,unconnected-(U4-PA10-Pad31)*%
X79450000Y-79962500D03*
%TO.P,U4,32,PA11*%
%TO.N,D+*%
X79950000Y-79962500D03*
%TO.P,U4,33,PA12*%
%TO.N,D-*%
X80450000Y-79962500D03*
%TO.P,U4,34,PA13*%
%TO.N,SWDIO*%
X80950000Y-79962500D03*
%TO.P,U4,35,VSS*%
%TO.N,GND*%
X81450000Y-79962500D03*
%TO.P,U4,36,VDD*%
%TO.N,+3V3*%
X81950000Y-79962500D03*
D25*
%TO.P,U4,37,PA14*%
%TO.N,SWCLK*%
X83362500Y-78550000D03*
%TO.P,U4,38,PA15*%
%TO.N,IC0*%
X83362500Y-78050000D03*
%TO.P,U4,39,PB3*%
%TO.N,IC1*%
X83362500Y-77550000D03*
%TO.P,U4,40,PB4*%
%TO.N,unconnected-(U4-PB4-Pad40)*%
X83362500Y-77050000D03*
%TO.P,U4,41,PB5*%
%TO.N,unconnected-(U4-PB5-Pad41)*%
X83362500Y-76550000D03*
%TO.P,U4,42,PB6*%
%TO.N,unconnected-(U4-PB6-Pad42)*%
X83362500Y-76050000D03*
%TO.P,U4,43,PB7*%
%TO.N,unconnected-(U4-PB7-Pad43)*%
X83362500Y-75550000D03*
%TO.P,U4,44,BOOT0*%
%TO.N,GND*%
X83362500Y-75050000D03*
%TO.P,U4,45,PB8*%
%TO.N,Net-(U4-PB8)*%
X83362500Y-74550000D03*
%TO.P,U4,46,PB9*%
%TO.N,Net-(U4-PB9)*%
X83362500Y-74050000D03*
%TO.P,U4,47,VSS*%
%TO.N,GND*%
X83362500Y-73550000D03*
%TO.P,U4,48,VDD*%
%TO.N,+3V3*%
X83362500Y-73050000D03*
%TD*%
D26*
%TO.P,R19,1*%
%TO.N,GND*%
X98187500Y-81662500D03*
%TO.P,R19,2*%
%TO.N,Net-(U7-ADJ)*%
X98187500Y-80012500D03*
%TD*%
D27*
%TO.P,J13,1,Pin_1*%
%TO.N,CAN_P*%
X96000000Y-48000000D03*
D28*
%TO.P,J13,2,Pin_2*%
%TO.N,unconnected-(J13-Pin_2-Pad2)*%
X98500000Y-48000000D03*
%TO.P,J13,3,Pin_3*%
%TO.N,CAN_N*%
X101000000Y-48000000D03*
%TD*%
D16*
%TO.P,D2,1,K*%
%TO.N,Net-(D2-K)*%
X105057500Y-69480000D03*
%TO.P,D2,2,A*%
%TO.N,Net-(D2-A)*%
X103182500Y-69480000D03*
%TD*%
D22*
%TO.P,C3,1*%
%TO.N,/LSE_IN*%
X85000000Y-67875000D03*
%TO.P,C3,2*%
%TO.N,GND*%
X85000000Y-66325000D03*
%TD*%
D14*
%TO.P,J14,1,Pin_1*%
%TO.N,GND*%
X104500000Y-92000000D03*
D15*
%TO.P,J14,2,Pin_2*%
%TO.N,VDC*%
X102000000Y-92000000D03*
%TD*%
D18*
%TO.P,C1,1*%
%TO.N,/RCC_OSC_IN*%
X79325000Y-62000000D03*
%TO.P,C1,2*%
%TO.N,GND*%
X80875000Y-62000000D03*
%TD*%
D29*
%TO.P,R21,1*%
%TO.N,CAN_P*%
X96045000Y-56424998D03*
%TO.P,R21,2*%
%TO.N,Net-(C15-Pad1)*%
X97695000Y-56424998D03*
%TD*%
D12*
%TO.P,C5,1*%
%TO.N,+3V3*%
X75775000Y-68000000D03*
%TO.P,C5,2*%
%TO.N,GND*%
X74225000Y-68000000D03*
%TD*%
D27*
%TO.P,J11,1,Pin_1*%
%TO.N,RGB*%
X82000000Y-48000000D03*
D28*
%TO.P,J11,2,Pin_2*%
%TO.N,Net-(J11-Pin_2)*%
X84500000Y-48000000D03*
%TO.P,J11,3,Pin_3*%
%TO.N,GND*%
X87000000Y-48000000D03*
%TD*%
D30*
%TO.P,J12,1,Pin_1*%
%TO.N,GND*%
X72000000Y-48000000D03*
D15*
%TO.P,J12,2,Pin_2*%
%TO.N,Net-(J11-Pin_2)*%
X74500000Y-48000000D03*
%TD*%
D12*
%TO.P,C10,1*%
%TO.N,+3V3*%
X74350000Y-80000000D03*
%TO.P,C10,2*%
%TO.N,GND*%
X72800000Y-80000000D03*
%TD*%
D29*
%TO.P,R7,1*%
%TO.N,+3V3*%
X77325000Y-69700000D03*
%TO.P,R7,2*%
%TO.N,Net-(SW1-B)*%
X78975000Y-69700000D03*
%TD*%
D31*
%TO.P,Y1,1,1*%
%TO.N,/RCC_OSC_IN*%
X79400000Y-63875000D03*
%TO.P,Y1,2,2*%
%TO.N,GND*%
X77200000Y-63875000D03*
%TO.P,Y1,3,3*%
%TO.N,/RCC_OSC_OUT*%
X77200000Y-65475000D03*
%TO.P,Y1,4,4*%
%TO.N,GND*%
X79400000Y-65475000D03*
%TD*%
D18*
%TO.P,C13,1*%
%TO.N,+5V*%
X93637500Y-85412500D03*
%TO.P,C13,2*%
%TO.N,GND*%
X95187500Y-85412500D03*
%TD*%
D32*
%TO.P,J1,1,Pin_1*%
%TO.N,Net-(J1-Pin_1)*%
X111920000Y-58386625D03*
D11*
%TO.P,J1,2,Pin_2*%
%TO.N,GND*%
X111920000Y-60886625D03*
%TD*%
D14*
%TO.P,J4,1,Pin_1*%
%TO.N,VDC*%
X94000000Y-92000000D03*
D15*
%TO.P,J4,2,Pin_2*%
%TO.N,Net-(J4-Pin_2)*%
X91500000Y-92000000D03*
%TD*%
D32*
%TO.P,J3,1,Pin_1*%
%TO.N,Net-(J3-Pin_1)*%
X111920000Y-78486625D03*
D11*
%TO.P,J3,2,Pin_2*%
%TO.N,GND*%
X111920000Y-80986625D03*
%TD*%
D29*
%TO.P,R22,1*%
%TO.N,Net-(C15-Pad1)*%
X99245000Y-56424998D03*
%TO.P,R22,2*%
%TO.N,CAN_N*%
X100895000Y-56424998D03*
%TD*%
D33*
%TO.P,Y2,1,1*%
%TO.N,/LSE_IN*%
X83100000Y-68225000D03*
%TO.P,Y2,2,2*%
%TO.N,GND*%
X83100000Y-66025000D03*
%TO.P,Y2,3,3*%
%TO.N,/LSE_OUT*%
X81500000Y-66025000D03*
%TO.P,Y2,4,4*%
X81500000Y-68225000D03*
%TD*%
D32*
%TO.P,J2,1,Pin_1*%
%TO.N,Net-(J2-Pin_1)*%
X111920000Y-68280000D03*
D11*
%TO.P,J2,2,Pin_2*%
%TO.N,GND*%
X111920000Y-70780000D03*
%TD*%
D34*
%TO.P,R20,1*%
%TO.N,+3V3*%
X98187500Y-76162500D03*
%TO.P,R20,2*%
%TO.N,Net-(U7-ADJ)*%
X98187500Y-77812500D03*
%TD*%
D20*
%TO.P,H2,1,1*%
%TO.N,GND*%
X62500000Y-91500000D03*
%TD*%
D18*
%TO.P,C9,1*%
%TO.N,+3V3*%
X85225000Y-72800000D03*
%TO.P,C9,2*%
%TO.N,GND*%
X86775000Y-72800000D03*
%TD*%
D20*
%TO.P,H3,1,1*%
%TO.N,GND*%
X111500000Y-91500000D03*
%TD*%
D22*
%TO.P,C2,1*%
%TO.N,/RCC_OSC_OUT*%
X75000000Y-65350000D03*
%TO.P,C2,2*%
%TO.N,GND*%
X75000000Y-63800000D03*
%TD*%
D35*
%TO.P,C16,1*%
%TO.N,+3V3*%
X102100000Y-61750000D03*
%TO.P,C16,2*%
%TO.N,GND*%
X102100000Y-63300000D03*
%TD*%
D18*
%TO.P,C6,1*%
%TO.N,+3V3*%
X82025000Y-81800000D03*
%TO.P,C6,2*%
%TO.N,GND*%
X83575000Y-81800000D03*
%TD*%
D36*
%TO.N,GND*%
X104670000Y-47490000D03*
X91970000Y-62730000D03*
X99590000Y-90670000D03*
X81810000Y-60190000D03*
X112290000Y-75430000D03*
X66570000Y-62730000D03*
X69110000Y-83050000D03*
X71650000Y-83050000D03*
X74190000Y-85590000D03*
X76730000Y-47490000D03*
X66570000Y-47490000D03*
X84350000Y-57650000D03*
X74190000Y-88130000D03*
X103200000Y-87800000D03*
X109750000Y-85590000D03*
X97050000Y-70350000D03*
X109750000Y-65270000D03*
X64030000Y-80510000D03*
X74190000Y-57650000D03*
X104670000Y-52570000D03*
X69110000Y-80510000D03*
X97050000Y-90670000D03*
X91970000Y-55110000D03*
X81810000Y-55110000D03*
X94510000Y-75430000D03*
X97050000Y-55110000D03*
X64030000Y-52570000D03*
X112290000Y-52570000D03*
X71650000Y-85590000D03*
X71650000Y-77970000D03*
X107210000Y-88130000D03*
X109750000Y-75430000D03*
X112290000Y-65270000D03*
X94510000Y-88130000D03*
X89430000Y-50030000D03*
X97050000Y-85590000D03*
X102130000Y-50030000D03*
X79270000Y-90670000D03*
X112290000Y-62730000D03*
X94510000Y-47490000D03*
X71650000Y-55110000D03*
X86890000Y-52570000D03*
X64030000Y-57650000D03*
X66570000Y-60190000D03*
X94510000Y-52570000D03*
X64030000Y-62730000D03*
X102130000Y-85590000D03*
X94510000Y-65270000D03*
X89430000Y-65270000D03*
X102130000Y-83050000D03*
X107210000Y-62730000D03*
X89430000Y-62730000D03*
X91970000Y-85590000D03*
X104670000Y-72890000D03*
X76730000Y-52570000D03*
X69110000Y-67810000D03*
X107210000Y-83050000D03*
X97050000Y-75430000D03*
X99590000Y-50030000D03*
X102130000Y-75430000D03*
X86890000Y-67810000D03*
X102130000Y-65270000D03*
X86890000Y-55110000D03*
X81810000Y-57650000D03*
X97050000Y-52570000D03*
X109750000Y-88130000D03*
X91970000Y-52570000D03*
X80100000Y-77600000D03*
X109750000Y-72890000D03*
X107210000Y-47490000D03*
X84350000Y-52570000D03*
X102130000Y-55110000D03*
X94510000Y-57650000D03*
X64030000Y-85590000D03*
X107210000Y-52570000D03*
X91970000Y-83050000D03*
X91970000Y-50030000D03*
X109750000Y-52570000D03*
X99100000Y-74800000D03*
X86890000Y-50030000D03*
X91970000Y-88130000D03*
X66570000Y-80510000D03*
X89430000Y-57650000D03*
X86890000Y-83050000D03*
X104670000Y-83050000D03*
X64030000Y-77970000D03*
X66570000Y-57650000D03*
X66570000Y-67810000D03*
X71650000Y-50030000D03*
X109750000Y-62730000D03*
X97050000Y-72890000D03*
X86890000Y-62730000D03*
X71650000Y-52570000D03*
X102130000Y-52570000D03*
X91970000Y-60190000D03*
X109750000Y-77970000D03*
X69110000Y-70350000D03*
X84350000Y-80510000D03*
X76730000Y-55110000D03*
X64030000Y-67810000D03*
X71650000Y-88130000D03*
X112290000Y-85590000D03*
X99590000Y-52570000D03*
X97050000Y-62730000D03*
X89430000Y-47490000D03*
X86890000Y-80510000D03*
X69110000Y-90670000D03*
X91970000Y-80510000D03*
X86890000Y-90670000D03*
X107210000Y-93210000D03*
X99590000Y-55110000D03*
X64030000Y-83050000D03*
X94510000Y-50030000D03*
X112290000Y-83050000D03*
X91970000Y-47490000D03*
X61490000Y-88130000D03*
X84350000Y-60190000D03*
X84350000Y-65270000D03*
X107210000Y-90670000D03*
X74190000Y-55110000D03*
X109750000Y-83050000D03*
X64030000Y-60190000D03*
X86890000Y-57650000D03*
X112290000Y-88130000D03*
X97050000Y-93210000D03*
X84350000Y-85590000D03*
X112290000Y-55110000D03*
X89430000Y-90670000D03*
X112290000Y-72890000D03*
X94510000Y-55110000D03*
X97050000Y-50030000D03*
X76730000Y-90670000D03*
X99590000Y-93210000D03*
X74190000Y-52570000D03*
X104670000Y-62730000D03*
X91970000Y-57650000D03*
X79270000Y-47490000D03*
X84350000Y-55110000D03*
X109750000Y-57650000D03*
X61490000Y-52570000D03*
X66570000Y-83050000D03*
X107210000Y-50030000D03*
X79900000Y-67200000D03*
X89430000Y-55110000D03*
X69110000Y-77970000D03*
X109750000Y-67810000D03*
X76730000Y-60190000D03*
X71650000Y-80510000D03*
X81810000Y-88130000D03*
X94510000Y-60190000D03*
X66570000Y-50030000D03*
X102130000Y-72890000D03*
X104670000Y-50030000D03*
X89430000Y-60190000D03*
X94510000Y-72890000D03*
X66570000Y-70350000D03*
X81600000Y-76600000D03*
X84350000Y-50030000D03*
X74190000Y-62730000D03*
X86890000Y-65270000D03*
X79270000Y-83050000D03*
X78600000Y-73000000D03*
X61490000Y-62730000D03*
X81810000Y-52570000D03*
X89430000Y-52570000D03*
X66570000Y-72890000D03*
X84350000Y-62730000D03*
X64030000Y-55110000D03*
X69110000Y-47490000D03*
X64030000Y-70350000D03*
X69110000Y-50030000D03*
X86890000Y-60190000D03*
X74190000Y-50030000D03*
X109750000Y-55110000D03*
X64030000Y-72890000D03*
X84350000Y-88130000D03*
%TO.N,Net-(D1-K)*%
X106120000Y-59486625D03*
%TO.N,Net-(D1-A)*%
X104720000Y-58086625D03*
%TO.N,Net-(D2-K)*%
X106120000Y-69280000D03*
%TO.N,Net-(D2-A)*%
X104720000Y-67880000D03*
%TO.N,Net-(D3-K)*%
X106120000Y-79586625D03*
%TO.N,Net-(D3-A)*%
X104720000Y-78186625D03*
%TO.N,FAULT0_LED*%
X82600000Y-84600000D03*
%TO.N,FAULT1_LED*%
X77400000Y-83000000D03*
%TO.N,Fault3_LED*%
X75400000Y-82600000D03*
%TO.N,FUNC1_LED*%
X71200000Y-73800000D03*
%TO.N,FUNC2_LED*%
X69800000Y-72800000D03*
%TO.N,FUNC3_LED*%
X70400000Y-76000000D03*
%TO.N,+5V*%
X96000000Y-84000000D03*
%TO.N,FUNC1_IO*%
X76800000Y-73200000D03*
%TO.N,FUNC2_IO*%
X76600000Y-74200000D03*
%TO.N,FUNC3_IO*%
X76600000Y-75400000D03*
%TO.N,Net-(U4-PB8)*%
X85200000Y-75200000D03*
X88400000Y-73300000D03*
%TO.N,Net-(U4-PB9)*%
X100500000Y-66600000D03*
X84800000Y-74000000D03*
%TO.N,RGB*%
X77950000Y-78750000D03*
%TD*%
D37*
%TO.N,/RCC_OSC_IN*%
X79950000Y-70650000D02*
X79950000Y-71637500D01*
X80075000Y-70525000D02*
X79950000Y-70650000D01*
X78200000Y-64175000D02*
X78200000Y-67000000D01*
X79400000Y-62075000D02*
X79400000Y-63875000D01*
X78500000Y-63875000D02*
X78200000Y-64175000D01*
X80075000Y-68875000D02*
X80075000Y-70525000D01*
X79325000Y-62000000D02*
X79400000Y-62075000D01*
X79400000Y-63875000D02*
X78500000Y-63875000D01*
X78200000Y-67000000D02*
X80075000Y-68875000D01*
%TO.N,GND*%
X83362500Y-73550000D02*
X82592590Y-73550000D01*
X82592590Y-73550000D02*
X81600000Y-74542590D01*
X81650000Y-75050000D02*
X81600000Y-75000000D01*
X81600000Y-75000000D02*
X81600000Y-76600000D01*
X81600000Y-74542590D02*
X81600000Y-75000000D01*
X83362500Y-75050000D02*
X81650000Y-75050000D01*
%TO.N,/RCC_OSC_OUT*%
X79450000Y-70412648D02*
X79450000Y-71637500D01*
X79675000Y-69075000D02*
X79675000Y-70187648D01*
X77075000Y-65350000D02*
X77200000Y-65475000D01*
X79675000Y-70187648D02*
X79450000Y-70412648D01*
X77200000Y-66600000D02*
X79675000Y-69075000D01*
X75000000Y-65350000D02*
X77075000Y-65350000D01*
X77200000Y-65475000D02*
X77200000Y-66600000D01*
%TO.N,/LSE_IN*%
X83100000Y-68458795D02*
X83100000Y-68225000D01*
X83450000Y-67875000D02*
X83100000Y-68225000D01*
X80950000Y-70608795D02*
X83100000Y-68458795D01*
X85000000Y-67875000D02*
X83450000Y-67875000D01*
X80950000Y-71637500D02*
X80950000Y-70608795D01*
%TO.N,/LSE_OUT*%
X81500000Y-64150000D02*
X81525000Y-64125000D01*
X80500000Y-70300000D02*
X80500000Y-71587500D01*
X81500000Y-68225000D02*
X81500000Y-66025000D01*
X81500000Y-66025000D02*
X81500000Y-64150000D01*
X81500000Y-69300000D02*
X80500000Y-70300000D01*
X81500000Y-68225000D02*
X81500000Y-69300000D01*
X80500000Y-71587500D02*
X80450000Y-71637500D01*
%TO.N,+3V3*%
X96800000Y-76800000D02*
X97437500Y-76162500D01*
X75037500Y-78550000D02*
X75037500Y-79312500D01*
X93637500Y-76812500D02*
X91025000Y-74200000D01*
X81950000Y-72578705D02*
X80928705Y-73600000D01*
X93700000Y-76875000D02*
X93637500Y-76812500D01*
X100405000Y-61195000D02*
X100405000Y-59524998D01*
X85800000Y-74200000D02*
X85400000Y-73800000D01*
X77600000Y-76757410D02*
X77600000Y-75200000D01*
X75775000Y-68000000D02*
X75775000Y-69675000D01*
X77950000Y-72550000D02*
X77600000Y-72900000D01*
X93700000Y-78400000D02*
X93700000Y-76875000D01*
X81950000Y-81350000D02*
X82000000Y-81400000D01*
X80928705Y-73600000D02*
X77600000Y-73600000D01*
X85400000Y-72975000D02*
X85225000Y-72800000D01*
X98187500Y-76162500D02*
X98450000Y-75900000D01*
X96800000Y-78000000D02*
X96800000Y-76800000D01*
X80500000Y-76800000D02*
X81950000Y-78250000D01*
X75037500Y-78550000D02*
X75950000Y-78550000D01*
X97437500Y-76162500D02*
X98187500Y-76162500D01*
X98450000Y-66251304D02*
X98535000Y-66166304D01*
X98535000Y-66166304D02*
X98535000Y-63065000D01*
X81950000Y-71637500D02*
X81950000Y-72578705D01*
X100405000Y-59524998D02*
X101224998Y-59524998D01*
X75950000Y-78550000D02*
X77600000Y-76900000D01*
X77950000Y-71637500D02*
X77950000Y-70325000D01*
X98450000Y-75900000D02*
X98450000Y-66251304D01*
X83625000Y-71000000D02*
X83625000Y-71200000D01*
X77600000Y-76900000D02*
X77600000Y-76757410D01*
X98535000Y-63065000D02*
X100405000Y-61195000D01*
X81950000Y-78250000D02*
X81950000Y-79962500D01*
X77600000Y-73600000D02*
X77600000Y-75200000D01*
X102100000Y-60400000D02*
X102100000Y-61750000D01*
X91025000Y-74200000D02*
X85800000Y-74200000D01*
X83362500Y-73050000D02*
X84975000Y-73050000D01*
X81950000Y-71000000D02*
X83625000Y-71000000D01*
X75037500Y-79312500D02*
X74350000Y-80000000D01*
X83362500Y-73050000D02*
X82250000Y-73050000D01*
X83625000Y-71200000D02*
X85225000Y-72800000D01*
X85400000Y-73800000D02*
X85400000Y-72975000D01*
X84975000Y-73050000D02*
X85225000Y-72800000D01*
X81950000Y-79962500D02*
X81950000Y-81350000D01*
X77600000Y-72900000D02*
X77600000Y-73600000D01*
X77950000Y-70325000D02*
X77325000Y-69700000D01*
X77950000Y-71637500D02*
X77950000Y-72550000D01*
X80500000Y-74800000D02*
X80500000Y-76800000D01*
X93700000Y-79925000D02*
X93700000Y-78400000D01*
X82250000Y-73050000D02*
X80500000Y-74800000D01*
X81950000Y-71637500D02*
X81950000Y-71000000D01*
X96400000Y-78400000D02*
X96800000Y-78000000D01*
X75750000Y-69700000D02*
X77325000Y-69700000D01*
X93700000Y-78400000D02*
X96400000Y-78400000D01*
X75775000Y-69675000D02*
X75750000Y-69700000D01*
X101224998Y-59524998D02*
X102100000Y-60400000D01*
%TO.N,Net-(D1-K)*%
X106120000Y-59486625D02*
X105257500Y-59486625D01*
%TO.N,Net-(D1-A)*%
X103182500Y-59686625D02*
X104720000Y-58149125D01*
%TO.N,Net-(D2-K)*%
X105257500Y-69280000D02*
X105057500Y-69480000D01*
X106120000Y-69280000D02*
X105257500Y-69280000D01*
%TO.N,Net-(D2-A)*%
X103182500Y-69480000D02*
X104720000Y-67942500D01*
X104720000Y-67942500D02*
X104720000Y-67880000D01*
%TO.N,Net-(D3-K)*%
X106120000Y-79586625D02*
X105257500Y-79586625D01*
%TO.N,Net-(D3-A)*%
X103182500Y-79786625D02*
X104720000Y-78249125D01*
%TO.N,FAULT0_LED*%
X78950000Y-79962500D02*
X78950000Y-80750000D01*
X80200000Y-82000000D02*
X80200000Y-82800000D01*
X80200000Y-82800000D02*
X82000000Y-84600000D01*
X82000000Y-84600000D02*
X82600000Y-84600000D01*
X78950000Y-80750000D02*
X80200000Y-82000000D01*
%TO.N,FAULT1_LED*%
X78450000Y-79962500D02*
X78450000Y-81950000D01*
X78450000Y-81950000D02*
X77400000Y-83000000D01*
%TO.N,Fault3_LED*%
X75400000Y-82600000D02*
X75582410Y-82600000D01*
X75582410Y-82600000D02*
X77450000Y-80732410D01*
X77450000Y-80732410D02*
X77450000Y-79962500D01*
%TO.N,FUNC1_LED*%
X75037500Y-75050000D02*
X72450000Y-75050000D01*
X72450000Y-75050000D02*
X71200000Y-73800000D01*
%TO.N,FUNC2_LED*%
X70950000Y-75550000D02*
X75037500Y-75550000D01*
X69800000Y-74400000D02*
X70950000Y-75550000D01*
X69800000Y-72800000D02*
X69800000Y-74400000D01*
%TO.N,FUNC3_LED*%
X70450000Y-76050000D02*
X70400000Y-76000000D01*
X75037500Y-76050000D02*
X70450000Y-76050000D01*
%TO.N,+5V*%
X99135000Y-64474998D02*
X99135000Y-66660000D01*
X99800000Y-74400000D02*
X99800000Y-82800000D01*
X93700000Y-81537501D02*
X93700000Y-82200000D01*
X93637500Y-85412500D02*
X93637500Y-82262500D01*
X99135000Y-66660000D02*
X99200000Y-66725000D01*
X99800000Y-82800000D02*
X99600000Y-83000000D01*
X95600000Y-82200000D02*
X95600000Y-81537501D01*
X99200000Y-73800000D02*
X99800000Y-74400000D01*
X95600000Y-81537501D02*
X95299999Y-81237500D01*
X95600000Y-82200000D02*
X95600000Y-83600000D01*
X94000001Y-81237500D02*
X93700000Y-81537501D01*
X97000000Y-83000000D02*
X96000000Y-84000000D01*
X93637500Y-82262500D02*
X93700000Y-82200000D01*
X99200000Y-66725000D02*
X99200000Y-73800000D01*
X95299999Y-81237500D02*
X94000001Y-81237500D01*
X99600000Y-83000000D02*
X97000000Y-83000000D01*
X95600000Y-83600000D02*
X96000000Y-84000000D01*
%TO.N,Net-(SW1-B)*%
X69710000Y-64110000D02*
X72400000Y-66800000D01*
X76075000Y-66800000D02*
X78975000Y-69700000D01*
X78975000Y-69700000D02*
X78975000Y-71612500D01*
X69710000Y-58900000D02*
X69710000Y-64110000D01*
X72400000Y-66800000D02*
X76075000Y-66800000D01*
X78975000Y-71612500D02*
X78950000Y-71637500D01*
%TO.N,FUNC1_IO*%
X76800000Y-73200000D02*
X76450000Y-73550000D01*
X76450000Y-73550000D02*
X75037500Y-73550000D01*
%TO.N,FUNC2_IO*%
X76450000Y-74050000D02*
X76600000Y-74200000D01*
X75037500Y-74050000D02*
X76450000Y-74050000D01*
%TO.N,FUNC3_IO*%
X76600000Y-75400000D02*
X76600000Y-75342590D01*
X75807410Y-74550000D02*
X75037500Y-74550000D01*
X76600000Y-75342590D02*
X75807410Y-74550000D01*
%TO.N,SWDIO*%
X85000000Y-83000000D02*
X86060000Y-81940000D01*
X86060000Y-81940000D02*
X88800000Y-81940000D01*
X82000000Y-83000000D02*
X85000000Y-83000000D01*
X80950000Y-81950000D02*
X82000000Y-83000000D01*
X80950000Y-79962500D02*
X80950000Y-81950000D01*
%TO.N,SWCLK*%
X83362500Y-78550000D02*
X87950000Y-78550000D01*
X87950000Y-78550000D02*
X88800000Y-79400000D01*
%TO.N,Net-(U4-PB8)*%
X85200000Y-75200000D02*
X84550000Y-74550000D01*
X89700000Y-73300000D02*
X88400000Y-73300000D01*
X96595000Y-66405000D02*
X89700000Y-73300000D01*
X84550000Y-74550000D02*
X83362500Y-74550000D01*
X96595000Y-64474998D02*
X96595000Y-66405000D01*
%TO.N,Net-(U4-PB9)*%
X100500000Y-66600000D02*
X100405000Y-66505000D01*
X84750000Y-74050000D02*
X84800000Y-74000000D01*
X83362500Y-74050000D02*
X84750000Y-74050000D01*
X100405000Y-66505000D02*
X100405000Y-64474998D01*
%TO.N,CAN_P*%
X97865000Y-59524998D02*
X97865000Y-58244998D01*
X96045000Y-48045000D02*
X96000000Y-48000000D01*
X97865000Y-58244998D02*
X96045000Y-56424998D01*
X96045000Y-56424998D02*
X96045000Y-48045000D01*
%TO.N,RGB*%
X77950000Y-78750000D02*
X77950000Y-79962500D01*
D38*
%TO.N,Net-(J11-Pin_2)*%
X83050000Y-49450000D02*
X75950000Y-49450000D01*
X75950000Y-49450000D02*
X74500000Y-48000000D01*
X84500000Y-48000000D02*
X83050000Y-49450000D01*
D37*
%TO.N,Net-(U7-ADJ)*%
X98187500Y-77812500D02*
X98187500Y-80012500D01*
X98187500Y-80012500D02*
X95687500Y-80012500D01*
X95687500Y-80012500D02*
X95600000Y-79925000D01*
%TO.N,VDC*%
X62000000Y-85200000D02*
X62000000Y-82000000D01*
X68800000Y-93800000D02*
X68000000Y-93000000D01*
X68000000Y-93000000D02*
X68000000Y-91200000D01*
X60700000Y-61300000D02*
X62000000Y-60000000D01*
X60700000Y-70200000D02*
X60700000Y-61300000D01*
X83500000Y-92000000D02*
X82200000Y-93300000D01*
X71200000Y-93800000D02*
X68800000Y-93800000D01*
X84800000Y-93300000D02*
X83500000Y-92000000D01*
X62000000Y-71500000D02*
X60700000Y-70200000D01*
X60700000Y-72800000D02*
X62000000Y-71500000D01*
X92700000Y-93300000D02*
X84800000Y-93300000D01*
X68000000Y-91200000D02*
X62000000Y-85200000D01*
X94000000Y-92000000D02*
X102000000Y-92000000D01*
X73000000Y-92000000D02*
X71200000Y-93800000D01*
X94000000Y-92000000D02*
X92700000Y-93300000D01*
X74300000Y-93300000D02*
X73000000Y-92000000D01*
X82200000Y-93300000D02*
X74300000Y-93300000D01*
X60700000Y-80700000D02*
X60700000Y-72800000D01*
X62000000Y-82000000D02*
X60700000Y-80700000D01*
%TO.N,Net-(C15-Pad1)*%
X98395000Y-54674998D02*
X98395000Y-56419998D01*
X98395000Y-56419998D02*
X98400000Y-56424998D01*
X98400000Y-56424998D02*
X99245000Y-56424998D01*
X97695000Y-56424998D02*
X98400000Y-56424998D01*
%TO.N,CAN_N*%
X99135000Y-58184998D02*
X100895000Y-56424998D01*
X99135000Y-59524998D02*
X99135000Y-58184998D01*
X100895000Y-48105000D02*
X101000000Y-48000000D01*
X100895000Y-56424998D02*
X100895000Y-48105000D01*
%TD*%
%TA.AperFunction,Conductor*%
%TO.N,GND*%
G36*
X99005703Y-74101831D02*
G01*
X99012181Y-74107863D01*
X99413181Y-74508863D01*
X99446666Y-74570186D01*
X99449500Y-74596544D01*
X99449500Y-82525500D01*
X99429815Y-82592539D01*
X99377011Y-82638294D01*
X99325500Y-82649500D01*
X98958532Y-82649500D01*
X98891493Y-82629815D01*
X98845738Y-82577011D01*
X98835794Y-82507853D01*
X98864819Y-82444297D01*
X98894383Y-82419382D01*
X98897379Y-82417570D01*
X99017572Y-82297377D01*
X99105519Y-82151895D01*
X99156090Y-81989606D01*
X99162500Y-81919072D01*
X99162500Y-81912500D01*
X97212501Y-81912500D01*
X97212501Y-81919082D01*
X97218908Y-81989602D01*
X97218909Y-81989607D01*
X97269481Y-82151896D01*
X97357427Y-82297377D01*
X97477620Y-82417570D01*
X97480617Y-82419382D01*
X97482354Y-82421279D01*
X97483526Y-82422197D01*
X97483373Y-82422391D01*
X97527805Y-82470910D01*
X97539644Y-82539769D01*
X97512376Y-82604098D01*
X97454658Y-82643473D01*
X97416468Y-82649500D01*
X97049212Y-82649500D01*
X97023766Y-82646861D01*
X97022836Y-82646666D01*
X97014686Y-82644957D01*
X97014685Y-82644957D01*
X97014684Y-82644957D01*
X96985878Y-82648548D01*
X96972199Y-82649397D01*
X96970962Y-82649499D01*
X96951996Y-82652664D01*
X96946929Y-82653402D01*
X96898611Y-82659425D01*
X96891566Y-82661522D01*
X96884617Y-82663908D01*
X96841804Y-82687077D01*
X96837252Y-82689420D01*
X96793517Y-82710801D01*
X96787515Y-82715085D01*
X96781743Y-82719579D01*
X96748769Y-82755398D01*
X96745222Y-82759095D01*
X96162181Y-83342137D01*
X96100858Y-83375622D01*
X96031167Y-83370638D01*
X95975233Y-83328767D01*
X95950816Y-83263302D01*
X95950500Y-83254456D01*
X95950500Y-83129754D01*
X95970185Y-83062715D01*
X95986819Y-83042072D01*
X95988339Y-83040551D01*
X95988342Y-83040550D01*
X96078050Y-82950842D01*
X96135646Y-82837804D01*
X96135646Y-82837802D01*
X96135647Y-82837801D01*
X96148112Y-82759095D01*
X96150500Y-82744019D01*
X96150499Y-81655982D01*
X96135646Y-81562196D01*
X96078050Y-81449158D01*
X96078046Y-81449154D01*
X96078045Y-81449152D01*
X95988347Y-81359454D01*
X95988343Y-81359451D01*
X95988342Y-81359450D01*
X95941126Y-81335392D01*
X95866609Y-81297423D01*
X95867592Y-81295492D01*
X95831634Y-81273453D01*
X95607861Y-81049680D01*
X95574376Y-80988357D01*
X95579360Y-80918665D01*
X95621232Y-80862732D01*
X95686696Y-80838315D01*
X95695535Y-80837999D01*
X95781518Y-80837999D01*
X95875304Y-80823146D01*
X95988342Y-80765550D01*
X96078050Y-80675842D01*
X96135646Y-80562804D01*
X96135646Y-80562802D01*
X96135647Y-80562801D01*
X96150725Y-80467602D01*
X96180654Y-80404468D01*
X96239965Y-80367536D01*
X96273198Y-80363000D01*
X97402020Y-80363000D01*
X97469059Y-80382685D01*
X97502531Y-80419128D01*
X97504189Y-80417905D01*
X97509706Y-80425380D01*
X97509707Y-80425382D01*
X97590350Y-80534650D01*
X97674504Y-80596758D01*
X97716754Y-80652405D01*
X97722213Y-80722062D01*
X97689145Y-80783611D01*
X97637763Y-80814912D01*
X97623105Y-80819479D01*
X97623104Y-80819480D01*
X97477622Y-80907427D01*
X97357427Y-81027622D01*
X97269480Y-81173104D01*
X97218909Y-81335393D01*
X97212500Y-81405927D01*
X97212500Y-81412500D01*
X99162499Y-81412500D01*
X99162499Y-81405917D01*
X99156091Y-81335397D01*
X99156090Y-81335392D01*
X99105518Y-81173103D01*
X99017572Y-81027622D01*
X98897377Y-80907427D01*
X98751897Y-80819481D01*
X98737237Y-80814913D01*
X98679090Y-80776174D01*
X98651117Y-80712149D01*
X98662199Y-80643164D01*
X98700493Y-80596759D01*
X98784650Y-80534650D01*
X98865293Y-80425382D01*
X98887719Y-80361290D01*
X98910146Y-80297201D01*
X98910146Y-80297199D01*
X98913000Y-80266769D01*
X98913000Y-79758230D01*
X98910146Y-79727800D01*
X98910146Y-79727798D01*
X98865293Y-79599619D01*
X98865292Y-79599617D01*
X98861988Y-79595140D01*
X98784650Y-79490350D01*
X98675382Y-79409707D01*
X98647641Y-79400000D01*
X98621044Y-79390693D01*
X98564268Y-79349971D01*
X98538522Y-79285018D01*
X98538000Y-79273652D01*
X98538000Y-78551347D01*
X98557685Y-78484308D01*
X98610489Y-78438553D01*
X98621028Y-78434312D01*
X98675382Y-78415293D01*
X98784650Y-78334650D01*
X98865293Y-78225382D01*
X98892158Y-78148607D01*
X98910146Y-78097201D01*
X98910146Y-78097199D01*
X98913000Y-78066769D01*
X98913000Y-77558230D01*
X98910146Y-77527800D01*
X98910146Y-77527798D01*
X98865293Y-77399619D01*
X98865292Y-77399617D01*
X98861872Y-77394983D01*
X98784650Y-77290350D01*
X98675382Y-77209707D01*
X98675380Y-77209706D01*
X98547200Y-77164853D01*
X98516770Y-77162000D01*
X98516766Y-77162000D01*
X97858234Y-77162000D01*
X97858230Y-77162000D01*
X97827800Y-77164853D01*
X97827798Y-77164853D01*
X97699619Y-77209706D01*
X97699617Y-77209707D01*
X97590350Y-77290350D01*
X97509707Y-77399617D01*
X97509706Y-77399619D01*
X97464853Y-77527798D01*
X97464853Y-77527800D01*
X97462000Y-77558230D01*
X97462000Y-78066769D01*
X97464853Y-78097199D01*
X97464853Y-78097201D01*
X97509706Y-78225380D01*
X97509707Y-78225382D01*
X97590350Y-78334650D01*
X97699618Y-78415293D01*
X97753956Y-78434306D01*
X97810731Y-78475027D01*
X97836478Y-78539980D01*
X97837000Y-78551347D01*
X97837000Y-79273652D01*
X97817315Y-79340691D01*
X97764511Y-79386446D01*
X97753956Y-79390693D01*
X97699617Y-79409707D01*
X97623168Y-79466129D01*
X97590350Y-79490350D01*
X97521657Y-79583427D01*
X97504189Y-79607095D01*
X97502214Y-79605637D01*
X97462920Y-79646015D01*
X97402020Y-79662000D01*
X96274499Y-79662000D01*
X96207460Y-79642315D01*
X96161705Y-79589511D01*
X96150499Y-79538000D01*
X96150499Y-79380982D01*
X96147808Y-79363991D01*
X96135646Y-79287196D01*
X96078050Y-79174158D01*
X96078046Y-79174154D01*
X96078045Y-79174152D01*
X95988347Y-79084454D01*
X95988344Y-79084452D01*
X95988342Y-79084450D01*
X95905318Y-79042147D01*
X95875301Y-79026852D01*
X95781524Y-79012000D01*
X95418482Y-79012000D01*
X95337519Y-79024823D01*
X95324696Y-79026854D01*
X95211658Y-79084450D01*
X95211657Y-79084451D01*
X95211652Y-79084454D01*
X95121954Y-79174152D01*
X95121951Y-79174157D01*
X95121950Y-79174158D01*
X95111785Y-79194108D01*
X95064352Y-79287198D01*
X95049500Y-79380975D01*
X95049500Y-80469017D01*
X95056066Y-80510473D01*
X95064354Y-80562804D01*
X95121950Y-80675842D01*
X95121953Y-80675845D01*
X95127689Y-80683741D01*
X95126497Y-80684606D01*
X95154911Y-80736642D01*
X95149927Y-80806334D01*
X95108055Y-80862267D01*
X95042591Y-80886684D01*
X95033745Y-80887000D01*
X94266255Y-80887000D01*
X94199216Y-80867315D01*
X94153461Y-80814511D01*
X94143517Y-80745353D01*
X94172542Y-80681797D01*
X94177916Y-80676025D01*
X94178042Y-80675849D01*
X94178050Y-80675842D01*
X94235646Y-80562804D01*
X94235646Y-80562802D01*
X94235647Y-80562801D01*
X94250499Y-80469024D01*
X94250500Y-80469019D01*
X94250499Y-79380982D01*
X94235646Y-79287196D01*
X94178050Y-79174158D01*
X94178046Y-79174154D01*
X94178045Y-79174152D01*
X94086819Y-79082926D01*
X94053334Y-79021603D01*
X94050500Y-78995245D01*
X94050500Y-78874500D01*
X94070185Y-78807461D01*
X94122989Y-78761706D01*
X94174500Y-78750500D01*
X96350789Y-78750500D01*
X96376234Y-78753138D01*
X96385315Y-78755043D01*
X96410673Y-78751881D01*
X96414123Y-78751452D01*
X96427764Y-78750605D01*
X96429026Y-78750500D01*
X96429040Y-78750500D01*
X96437071Y-78749159D01*
X96448014Y-78747334D01*
X96453063Y-78746597D01*
X96501393Y-78740573D01*
X96501399Y-78740569D01*
X96508456Y-78738468D01*
X96515377Y-78736092D01*
X96515381Y-78736092D01*
X96558216Y-78712909D01*
X96562729Y-78710586D01*
X96606484Y-78689198D01*
X96606486Y-78689195D01*
X96612461Y-78684929D01*
X96618256Y-78680419D01*
X96618255Y-78680419D01*
X96618258Y-78680418D01*
X96651254Y-78644572D01*
X96654756Y-78640924D01*
X97013046Y-78282634D01*
X97032902Y-78266511D01*
X97040669Y-78261437D01*
X97058496Y-78238531D01*
X97067542Y-78228289D01*
X97068362Y-78227319D01*
X97068375Y-78227307D01*
X97079588Y-78211601D01*
X97082592Y-78207572D01*
X97112517Y-78169126D01*
X97112520Y-78169115D01*
X97116021Y-78162648D01*
X97119235Y-78156071D01*
X97119239Y-78156067D01*
X97133127Y-78109417D01*
X97134686Y-78104550D01*
X97137210Y-78097199D01*
X97150500Y-78058488D01*
X97150500Y-78058483D01*
X97151706Y-78051252D01*
X97152617Y-78043952D01*
X97150606Y-77995332D01*
X97150500Y-77990207D01*
X97150500Y-76996543D01*
X97170185Y-76929504D01*
X97186815Y-76908866D01*
X97413011Y-76682669D01*
X97474332Y-76649186D01*
X97544023Y-76654170D01*
X97582870Y-76679136D01*
X97582874Y-76679132D01*
X97582939Y-76679180D01*
X97588371Y-76682671D01*
X97590348Y-76684648D01*
X97590349Y-76684648D01*
X97590350Y-76684650D01*
X97699618Y-76765293D01*
X97714482Y-76770494D01*
X97827799Y-76810146D01*
X97858230Y-76813000D01*
X97858234Y-76813000D01*
X98516770Y-76813000D01*
X98547199Y-76810146D01*
X98547201Y-76810146D01*
X98618162Y-76785315D01*
X98675382Y-76765293D01*
X98784650Y-76684650D01*
X98865293Y-76575382D01*
X98898367Y-76480862D01*
X98910146Y-76447201D01*
X98910146Y-76447199D01*
X98913000Y-76416769D01*
X98913000Y-75908230D01*
X98910146Y-75877800D01*
X98910146Y-75877798D01*
X98867909Y-75757095D01*
X98865293Y-75749618D01*
X98865291Y-75749615D01*
X98865290Y-75749613D01*
X98824730Y-75694656D01*
X98800759Y-75629027D01*
X98800500Y-75621023D01*
X98800500Y-74195544D01*
X98820185Y-74128505D01*
X98872989Y-74082750D01*
X98942147Y-74072806D01*
X99005703Y-74101831D01*
G37*
%TD.AperFunction*%
%TA.AperFunction,Conductor*%
G36*
X80621495Y-73970185D02*
G01*
X80667250Y-74022989D01*
X80677194Y-74092147D01*
X80648169Y-74155703D01*
X80642141Y-74162175D01*
X80549499Y-74254818D01*
X80286955Y-74517361D01*
X80267106Y-74533482D01*
X80259331Y-74538562D01*
X80241499Y-74561472D01*
X80232394Y-74571784D01*
X80231624Y-74572694D01*
X80220439Y-74588359D01*
X80217378Y-74592463D01*
X80187482Y-74630873D01*
X80183980Y-74637344D01*
X80180760Y-74643932D01*
X80166871Y-74690582D01*
X80165309Y-74695457D01*
X80149499Y-74741513D01*
X80148296Y-74748717D01*
X80147382Y-74756048D01*
X80149394Y-74804667D01*
X80149500Y-74809792D01*
X80149500Y-76750788D01*
X80146861Y-76776232D01*
X80144957Y-76785311D01*
X80144957Y-76785316D01*
X80148548Y-76814121D01*
X80149396Y-76827795D01*
X80149499Y-76829032D01*
X80152666Y-76848015D01*
X80153403Y-76853077D01*
X80159426Y-76901390D01*
X80161524Y-76908435D01*
X80163907Y-76915379D01*
X80163908Y-76915381D01*
X80179370Y-76943952D01*
X80187082Y-76958203D01*
X80189421Y-76962747D01*
X80210802Y-77006484D01*
X80210804Y-77006486D01*
X80210805Y-77006488D01*
X80215062Y-77012451D01*
X80219583Y-77018259D01*
X80255398Y-77051230D01*
X80259096Y-77054778D01*
X81563181Y-78358863D01*
X81596666Y-78420186D01*
X81599500Y-78446544D01*
X81599500Y-79093123D01*
X81587882Y-79145528D01*
X81562382Y-79200212D01*
X81516209Y-79252651D01*
X81449015Y-79271803D01*
X81382134Y-79251587D01*
X81337618Y-79200212D01*
X81311618Y-79144455D01*
X81300000Y-79092050D01*
X81300000Y-78729911D01*
X81299999Y-78729911D01*
X81224896Y-78739800D01*
X81224891Y-78739801D01*
X81085021Y-78797736D01*
X80964902Y-78889908D01*
X80937215Y-78925989D01*
X80880786Y-78967190D01*
X80840907Y-78974143D01*
X80840914Y-78974235D01*
X80840061Y-78974290D01*
X80838862Y-78974500D01*
X80836862Y-78974500D01*
X80789459Y-78980740D01*
X80789451Y-78980742D01*
X80752403Y-78998018D01*
X80683325Y-79008509D01*
X80647596Y-78998018D01*
X80610545Y-78980741D01*
X80610541Y-78980740D01*
X80563140Y-78974500D01*
X80336868Y-78974500D01*
X80326341Y-78975885D01*
X80289455Y-78980741D01*
X80289453Y-78980742D01*
X80289451Y-78980742D01*
X80252403Y-78998018D01*
X80183325Y-79008509D01*
X80147596Y-78998018D01*
X80110545Y-78980741D01*
X80110541Y-78980740D01*
X80063140Y-78974500D01*
X79836868Y-78974500D01*
X79826341Y-78975885D01*
X79789455Y-78980741D01*
X79789453Y-78980742D01*
X79789451Y-78980742D01*
X79752403Y-78998018D01*
X79683325Y-79008509D01*
X79647596Y-78998018D01*
X79610545Y-78980741D01*
X79610541Y-78980740D01*
X79563140Y-78974500D01*
X79336868Y-78974500D01*
X79326341Y-78975885D01*
X79289455Y-78980741D01*
X79289453Y-78980742D01*
X79289451Y-78980742D01*
X79252403Y-78998018D01*
X79183325Y-79008509D01*
X79147596Y-78998018D01*
X79110545Y-78980741D01*
X79110541Y-78980740D01*
X79063140Y-78974500D01*
X78836868Y-78974500D01*
X78826341Y-78975885D01*
X78789455Y-78980741D01*
X78789453Y-78980742D01*
X78789451Y-78980742D01*
X78752403Y-78998018D01*
X78683325Y-79008509D01*
X78647596Y-78998018D01*
X78610545Y-78980741D01*
X78610541Y-78980740D01*
X78600119Y-78979368D01*
X78536223Y-78951100D01*
X78497753Y-78892774D01*
X78493368Y-78840247D01*
X78505250Y-78750000D01*
X78504843Y-78746912D01*
X78500056Y-78710547D01*
X78486330Y-78606291D01*
X78435804Y-78484308D01*
X78430862Y-78472377D01*
X78430861Y-78472376D01*
X78430861Y-78472375D01*
X78342621Y-78357379D01*
X78227625Y-78269139D01*
X78227624Y-78269138D01*
X78227622Y-78269137D01*
X78093712Y-78213671D01*
X78093710Y-78213670D01*
X78093709Y-78213670D01*
X77989877Y-78200000D01*
X77950001Y-78194750D01*
X77949999Y-78194750D01*
X77806291Y-78213670D01*
X77806287Y-78213671D01*
X77672377Y-78269137D01*
X77557379Y-78357379D01*
X77469137Y-78472377D01*
X77413671Y-78606287D01*
X77413670Y-78606291D01*
X77394750Y-78749999D01*
X77394750Y-78750000D01*
X77406631Y-78840244D01*
X77395866Y-78909280D01*
X77349486Y-78961536D01*
X77299877Y-78979369D01*
X77289459Y-78980740D01*
X77289451Y-78980742D01*
X77252403Y-78998018D01*
X77183325Y-79008509D01*
X77147596Y-78998018D01*
X77110545Y-78980741D01*
X77110541Y-78980740D01*
X77063140Y-78974500D01*
X76836868Y-78974500D01*
X76826341Y-78975885D01*
X76789455Y-78980741D01*
X76789453Y-78980742D01*
X76789451Y-78980742D01*
X76752403Y-78998018D01*
X76683325Y-79008509D01*
X76647596Y-78998018D01*
X76610545Y-78980741D01*
X76610541Y-78980740D01*
X76563140Y-78974500D01*
X76336862Y-78974500D01*
X76335471Y-78974684D01*
X76335055Y-78974619D01*
X76332816Y-78974766D01*
X76332783Y-78974264D01*
X76266437Y-78963911D01*
X76214186Y-78917525D01*
X76195308Y-78850254D01*
X76215796Y-78783456D01*
X76231613Y-78764067D01*
X77813046Y-77182634D01*
X77832902Y-77166511D01*
X77840669Y-77161437D01*
X77858496Y-77138531D01*
X77867542Y-77128289D01*
X77868362Y-77127319D01*
X77868375Y-77127307D01*
X77879588Y-77111601D01*
X77882592Y-77107572D01*
X77912517Y-77069126D01*
X77912520Y-77069115D01*
X77916021Y-77062648D01*
X77919235Y-77056071D01*
X77919239Y-77056067D01*
X77933127Y-77009417D01*
X77934686Y-77004550D01*
X77937435Y-76996543D01*
X77950500Y-76958488D01*
X77950500Y-76958483D01*
X77951706Y-76951252D01*
X77952617Y-76943952D01*
X77950606Y-76895332D01*
X77950500Y-76890207D01*
X77950500Y-74074500D01*
X77970185Y-74007461D01*
X78022989Y-73961706D01*
X78074500Y-73950500D01*
X80554456Y-73950500D01*
X80621495Y-73970185D01*
G37*
%TD.AperFunction*%
%TA.AperFunction,Conductor*%
G36*
X82104670Y-73793523D02*
G01*
X82160603Y-73835395D01*
X82175897Y-73862252D01*
X82197737Y-73914979D01*
X82289907Y-74035096D01*
X82325987Y-74062782D01*
X82367189Y-74119210D01*
X82374143Y-74159091D01*
X82374235Y-74159086D01*
X82374290Y-74159935D01*
X82374500Y-74161136D01*
X82374500Y-74163137D01*
X82380162Y-74206148D01*
X82380741Y-74210545D01*
X82398018Y-74247596D01*
X82408509Y-74316673D01*
X82398018Y-74352402D01*
X82380742Y-74389451D01*
X82380740Y-74389458D01*
X82374500Y-74436860D01*
X82374500Y-74438842D01*
X82374332Y-74439413D01*
X82374234Y-74440912D01*
X82373898Y-74440890D01*
X82354815Y-74505881D01*
X82325987Y-74537217D01*
X82289908Y-74564901D01*
X82197736Y-74685021D01*
X82139801Y-74824891D01*
X82139800Y-74824896D01*
X82129911Y-74899999D01*
X82129912Y-74900000D01*
X82492052Y-74900000D01*
X82544452Y-74911616D01*
X82600215Y-74937618D01*
X82652652Y-74983789D01*
X82671804Y-75050982D01*
X82651589Y-75117863D01*
X82600215Y-75162380D01*
X82544459Y-75188381D01*
X82492052Y-75200000D01*
X82129912Y-75200000D01*
X82139800Y-75275103D01*
X82139801Y-75275108D01*
X82197736Y-75414978D01*
X82289907Y-75535096D01*
X82325987Y-75562782D01*
X82367189Y-75619210D01*
X82374143Y-75659091D01*
X82374235Y-75659086D01*
X82374290Y-75659935D01*
X82374500Y-75661136D01*
X82374500Y-75663137D01*
X82379655Y-75702297D01*
X82380741Y-75710545D01*
X82398018Y-75747596D01*
X82408509Y-75816673D01*
X82398018Y-75852402D01*
X82380742Y-75889451D01*
X82380740Y-75889458D01*
X82374500Y-75936859D01*
X82374500Y-76163131D01*
X82374501Y-76163138D01*
X82380741Y-76210545D01*
X82398018Y-76247596D01*
X82408509Y-76316673D01*
X82398018Y-76352402D01*
X82380742Y-76389451D01*
X82380740Y-76389458D01*
X82374500Y-76436859D01*
X82374500Y-76663131D01*
X82374501Y-76663138D01*
X82380741Y-76710545D01*
X82398018Y-76747596D01*
X82408509Y-76816673D01*
X82398018Y-76852402D01*
X82380742Y-76889451D01*
X82380740Y-76889458D01*
X82374500Y-76936859D01*
X82374500Y-77163131D01*
X82374501Y-77163138D01*
X82380741Y-77210545D01*
X82398018Y-77247596D01*
X82408509Y-77316673D01*
X82398018Y-77352402D01*
X82380742Y-77389451D01*
X82380740Y-77389458D01*
X82374500Y-77436859D01*
X82374500Y-77663131D01*
X82374501Y-77663138D01*
X82380741Y-77710545D01*
X82398018Y-77747596D01*
X82408509Y-77816673D01*
X82398018Y-77852402D01*
X82380742Y-77889451D01*
X82380740Y-77889458D01*
X82379171Y-77901377D01*
X82350903Y-77965273D01*
X82292577Y-78003743D01*
X82222713Y-78004573D01*
X82168551Y-77972870D01*
X80886819Y-76691137D01*
X80853334Y-76629814D01*
X80850500Y-76603456D01*
X80850500Y-74996542D01*
X80870185Y-74929503D01*
X80886814Y-74908866D01*
X81973659Y-73822021D01*
X82034978Y-73788539D01*
X82104670Y-73793523D01*
G37*
%TD.AperFunction*%
%TA.AperFunction,Conductor*%
G36*
X78517862Y-72348410D02*
G01*
X78562380Y-72399785D01*
X78588381Y-72455542D01*
X78600000Y-72507948D01*
X78600000Y-72870086D01*
X78600001Y-72870087D01*
X78675098Y-72860201D01*
X78675103Y-72860200D01*
X78814979Y-72802262D01*
X78814981Y-72802261D01*
X78935095Y-72710094D01*
X78962782Y-72674013D01*
X79019209Y-72632810D01*
X79059091Y-72625859D01*
X79059085Y-72625765D01*
X79059961Y-72625707D01*
X79061157Y-72625499D01*
X79063138Y-72625499D01*
X79110545Y-72619259D01*
X79147595Y-72601981D01*
X79216672Y-72591490D01*
X79252404Y-72601981D01*
X79289455Y-72619259D01*
X79336861Y-72625500D01*
X79563138Y-72625499D01*
X79610545Y-72619259D01*
X79647595Y-72601981D01*
X79716672Y-72591490D01*
X79752404Y-72601981D01*
X79789455Y-72619259D01*
X79836861Y-72625500D01*
X80063138Y-72625499D01*
X80110545Y-72619259D01*
X80147595Y-72601981D01*
X80216672Y-72591490D01*
X80252404Y-72601981D01*
X80289455Y-72619259D01*
X80336861Y-72625500D01*
X80563138Y-72625499D01*
X80610545Y-72619259D01*
X80647595Y-72601981D01*
X80716672Y-72591490D01*
X80752404Y-72601981D01*
X80789455Y-72619259D01*
X80836861Y-72625500D01*
X81063138Y-72625499D01*
X81097572Y-72620966D01*
X81166604Y-72631732D01*
X81218860Y-72678112D01*
X81237745Y-72745381D01*
X81217264Y-72812181D01*
X81201435Y-72831586D01*
X80819842Y-73213181D01*
X80758519Y-73246666D01*
X80732161Y-73249500D01*
X78074500Y-73249500D01*
X78007461Y-73229815D01*
X77961706Y-73177011D01*
X77950500Y-73125500D01*
X77950500Y-73096542D01*
X77970185Y-73029503D01*
X77986809Y-73008871D01*
X78103757Y-72891923D01*
X78165074Y-72858442D01*
X78216765Y-72859673D01*
X78216836Y-72859140D01*
X78221802Y-72859793D01*
X78223533Y-72859835D01*
X78224901Y-72860201D01*
X78299998Y-72870087D01*
X78300000Y-72870086D01*
X78300000Y-72621761D01*
X78301219Y-72607053D01*
X78301390Y-72604300D01*
X78301328Y-72604293D01*
X78301369Y-72603961D01*
X78301442Y-72603455D01*
X78301453Y-72603287D01*
X78301686Y-72601415D01*
X78301692Y-72601348D01*
X78301703Y-72601281D01*
X78302617Y-72593951D01*
X78300606Y-72545321D01*
X78300500Y-72540197D01*
X78300500Y-72506876D01*
X78312117Y-72454473D01*
X78312118Y-72454471D01*
X78337618Y-72399784D01*
X78383788Y-72347348D01*
X78450981Y-72328195D01*
X78517862Y-72348410D01*
G37*
%TD.AperFunction*%
%TA.AperFunction,Conductor*%
G36*
X79593039Y-65244685D02*
G01*
X79638794Y-65297489D01*
X79650000Y-65349000D01*
X79650000Y-66575000D01*
X80147828Y-66575000D01*
X80147844Y-66574999D01*
X80207372Y-66568598D01*
X80207379Y-66568596D01*
X80342086Y-66518354D01*
X80342089Y-66518352D01*
X80451188Y-66436680D01*
X80516652Y-66412262D01*
X80584925Y-66427113D01*
X80634331Y-66476517D01*
X80649500Y-66535946D01*
X80649500Y-66749678D01*
X80664032Y-66822735D01*
X80664033Y-66822739D01*
X80682405Y-66850235D01*
X80719399Y-66905601D01*
X80799807Y-66959327D01*
X80802260Y-66960966D01*
X80802264Y-66960967D01*
X80875321Y-66975499D01*
X80875324Y-66975500D01*
X80875326Y-66975500D01*
X81025500Y-66975500D01*
X81092539Y-66995185D01*
X81138294Y-67047989D01*
X81149500Y-67099500D01*
X81149500Y-67150500D01*
X81129815Y-67217539D01*
X81077011Y-67263294D01*
X81025500Y-67274500D01*
X80875323Y-67274500D01*
X80802264Y-67289032D01*
X80802260Y-67289033D01*
X80719399Y-67344399D01*
X80664033Y-67427260D01*
X80664032Y-67427264D01*
X80649500Y-67500321D01*
X80649500Y-68710984D01*
X80629815Y-68778023D01*
X80577011Y-68823778D01*
X80507853Y-68833722D01*
X80444297Y-68804697D01*
X80418901Y-68767080D01*
X80415985Y-68768659D01*
X80387928Y-68716817D01*
X80385579Y-68712254D01*
X80364199Y-68668518D01*
X80359926Y-68662534D01*
X80355420Y-68656745D01*
X80355419Y-68656744D01*
X80355418Y-68656742D01*
X80319587Y-68623757D01*
X80315914Y-68620232D01*
X78586819Y-66891137D01*
X78553334Y-66829814D01*
X78550500Y-66803456D01*
X78550500Y-66699000D01*
X78570185Y-66631961D01*
X78622989Y-66586206D01*
X78674500Y-66575000D01*
X79150000Y-66575000D01*
X79150000Y-65349000D01*
X79169685Y-65281961D01*
X79222489Y-65236206D01*
X79274000Y-65225000D01*
X79526000Y-65225000D01*
X79593039Y-65244685D01*
G37*
%TD.AperFunction*%
%TA.AperFunction,Conductor*%
G36*
X109801739Y-45520185D02*
G01*
X109847494Y-45572989D01*
X109857438Y-45642147D01*
X109828413Y-45705703D01*
X109798628Y-45730750D01*
X109673477Y-45806049D01*
X109673460Y-45806061D01*
X109392906Y-46019334D01*
X109382625Y-46029071D01*
X109382625Y-46029073D01*
X110555819Y-47202266D01*
X110365130Y-47365130D01*
X110202266Y-47555818D01*
X109031914Y-46385466D01*
X109031913Y-46385466D01*
X108908896Y-46530296D01*
X108711124Y-46821988D01*
X108546052Y-47133347D01*
X108546043Y-47133365D01*
X108415602Y-47460749D01*
X108415600Y-47460756D01*
X108321325Y-47800306D01*
X108321319Y-47800332D01*
X108264308Y-48148082D01*
X108264306Y-48148099D01*
X108245227Y-48499997D01*
X108245227Y-48500002D01*
X108264306Y-48851900D01*
X108264308Y-48851917D01*
X108321319Y-49199667D01*
X108321325Y-49199693D01*
X108415600Y-49539243D01*
X108415602Y-49539250D01*
X108546043Y-49866634D01*
X108546052Y-49866652D01*
X108711124Y-50178011D01*
X108908896Y-50469702D01*
X109031914Y-50614532D01*
X110202266Y-49444180D01*
X110365130Y-49634870D01*
X110555819Y-49797733D01*
X109382625Y-50970926D01*
X109382625Y-50970928D01*
X109392900Y-50980660D01*
X109673460Y-51193938D01*
X109673464Y-51193941D01*
X109975445Y-51375635D01*
X110295273Y-51523603D01*
X110629256Y-51636136D01*
X110973437Y-51711896D01*
X111323788Y-51749999D01*
X111323795Y-51750000D01*
X111676205Y-51750000D01*
X111676211Y-51749999D01*
X112026562Y-51711896D01*
X112370743Y-51636136D01*
X112704726Y-51523603D01*
X113024554Y-51375635D01*
X113326535Y-51193941D01*
X113326539Y-51193938D01*
X113607093Y-50980665D01*
X113607105Y-50980654D01*
X113617373Y-50970927D01*
X113617373Y-50970926D01*
X112444180Y-49797733D01*
X112634870Y-49634870D01*
X112797733Y-49444180D01*
X113968084Y-50614532D01*
X113968085Y-50614531D01*
X114091102Y-50469704D01*
X114272867Y-50201622D01*
X114326781Y-50157181D01*
X114396163Y-50148943D01*
X114458985Y-50179523D01*
X114495301Y-50239214D01*
X114499500Y-50271209D01*
X114499500Y-89728790D01*
X114479815Y-89795829D01*
X114427011Y-89841584D01*
X114357853Y-89851528D01*
X114294297Y-89822503D01*
X114272867Y-89798377D01*
X114091099Y-89530291D01*
X113968085Y-89385467D01*
X113968084Y-89385466D01*
X112797732Y-90555818D01*
X112634870Y-90365130D01*
X112444180Y-90202266D01*
X113617374Y-89029073D01*
X113617373Y-89029072D01*
X113607099Y-89019340D01*
X113607087Y-89019330D01*
X113326539Y-88806061D01*
X113326535Y-88806058D01*
X113024554Y-88624364D01*
X112704726Y-88476396D01*
X112370743Y-88363863D01*
X112026562Y-88288103D01*
X111676211Y-88250000D01*
X111323788Y-88250000D01*
X110973437Y-88288103D01*
X110629256Y-88363863D01*
X110295273Y-88476396D01*
X109975445Y-88624364D01*
X109673464Y-88806058D01*
X109673460Y-88806061D01*
X109392906Y-89019334D01*
X109382625Y-89029071D01*
X109382625Y-89029073D01*
X110555819Y-90202266D01*
X110365130Y-90365130D01*
X110202266Y-90555818D01*
X109031914Y-89385466D01*
X109031913Y-89385466D01*
X108908896Y-89530296D01*
X108711124Y-89821988D01*
X108546052Y-90133347D01*
X108546043Y-90133365D01*
X108415602Y-90460749D01*
X108415600Y-90460756D01*
X108321325Y-90800306D01*
X108321319Y-90800332D01*
X108264308Y-91148082D01*
X108264306Y-91148099D01*
X108245227Y-91499997D01*
X108245227Y-91500002D01*
X108264306Y-91851900D01*
X108264308Y-91851917D01*
X108321319Y-92199667D01*
X108321325Y-92199693D01*
X108415600Y-92539243D01*
X108415602Y-92539250D01*
X108546043Y-92866634D01*
X108546052Y-92866652D01*
X108711124Y-93178011D01*
X108908896Y-93469702D01*
X109031914Y-93614532D01*
X110202266Y-92444180D01*
X110365130Y-92634870D01*
X110555819Y-92797733D01*
X109382625Y-93970926D01*
X109382625Y-93970928D01*
X109392900Y-93980660D01*
X109673460Y-94193938D01*
X109673477Y-94193950D01*
X109798628Y-94269250D01*
X109845923Y-94320679D01*
X109857906Y-94389513D01*
X109830771Y-94453899D01*
X109773135Y-94493393D01*
X109734700Y-94499500D01*
X64265300Y-94499500D01*
X64198261Y-94479815D01*
X64152506Y-94427011D01*
X64142562Y-94357853D01*
X64171587Y-94294297D01*
X64201372Y-94269250D01*
X64326522Y-94193950D01*
X64326539Y-94193938D01*
X64607093Y-93980665D01*
X64607105Y-93980654D01*
X64617373Y-93970927D01*
X64617373Y-93970926D01*
X63444180Y-92797733D01*
X63634870Y-92634870D01*
X63797733Y-92444181D01*
X64968084Y-93614532D01*
X64968085Y-93614531D01*
X65091102Y-93469704D01*
X65288875Y-93178011D01*
X65453947Y-92866652D01*
X65453956Y-92866634D01*
X65584397Y-92539250D01*
X65584399Y-92539243D01*
X65678674Y-92199693D01*
X65678680Y-92199667D01*
X65735691Y-91851917D01*
X65735693Y-91851900D01*
X65754773Y-91500002D01*
X65754773Y-91499997D01*
X65735693Y-91148099D01*
X65735691Y-91148082D01*
X65678680Y-90800332D01*
X65678674Y-90800306D01*
X65584399Y-90460756D01*
X65584397Y-90460749D01*
X65453956Y-90133365D01*
X65453947Y-90133347D01*
X65288875Y-89821988D01*
X65091099Y-89530291D01*
X64968085Y-89385467D01*
X64968084Y-89385466D01*
X63797732Y-90555818D01*
X63634870Y-90365130D01*
X63444180Y-90202266D01*
X64617374Y-89029073D01*
X64617373Y-89029072D01*
X64607099Y-89019340D01*
X64607087Y-89019330D01*
X64326539Y-88806061D01*
X64326535Y-88806058D01*
X64024554Y-88624364D01*
X63704726Y-88476396D01*
X63370743Y-88363863D01*
X63026562Y-88288103D01*
X62676211Y-88250000D01*
X62323788Y-88250000D01*
X61973437Y-88288103D01*
X61629256Y-88363863D01*
X61295273Y-88476396D01*
X60975445Y-88624364D01*
X60673464Y-88806058D01*
X60673460Y-88806061D01*
X60392906Y-89019334D01*
X60382625Y-89029071D01*
X60382625Y-89029073D01*
X61555819Y-90202266D01*
X61365130Y-90365130D01*
X61202266Y-90555819D01*
X60031914Y-89385466D01*
X60031913Y-89385466D01*
X59908896Y-89530296D01*
X59727133Y-89798377D01*
X59673219Y-89842818D01*
X59603836Y-89851056D01*
X59541015Y-89820475D01*
X59504699Y-89760785D01*
X59500500Y-89728790D01*
X59500500Y-80685316D01*
X60344957Y-80685316D01*
X60348548Y-80714121D01*
X60349396Y-80727795D01*
X60349499Y-80729032D01*
X60349500Y-80729037D01*
X60349500Y-80729040D01*
X60350849Y-80737123D01*
X60352666Y-80748015D01*
X60353403Y-80753077D01*
X60359426Y-80801390D01*
X60361524Y-80808435D01*
X60363907Y-80815379D01*
X60363908Y-80815381D01*
X60368111Y-80823147D01*
X60387082Y-80858203D01*
X60389421Y-80862747D01*
X60410802Y-80906484D01*
X60410804Y-80906486D01*
X60410805Y-80906488D01*
X60415062Y-80912451D01*
X60419583Y-80918259D01*
X60455398Y-80951230D01*
X60459096Y-80954778D01*
X60717931Y-81213613D01*
X60751416Y-81274936D01*
X60753540Y-81314546D01*
X60749500Y-81352127D01*
X60749500Y-82647870D01*
X60749501Y-82647876D01*
X60755908Y-82707483D01*
X60806202Y-82842328D01*
X60806206Y-82842335D01*
X60892452Y-82957544D01*
X60892455Y-82957547D01*
X61007664Y-83043793D01*
X61007671Y-83043797D01*
X61032231Y-83052957D01*
X61142517Y-83094091D01*
X61202127Y-83100500D01*
X61525500Y-83100499D01*
X61592539Y-83120183D01*
X61638294Y-83172987D01*
X61649500Y-83224499D01*
X61649500Y-85150788D01*
X61646861Y-85176232D01*
X61644957Y-85185311D01*
X61644957Y-85185316D01*
X61648548Y-85214121D01*
X61649396Y-85227795D01*
X61649499Y-85229032D01*
X61652666Y-85248015D01*
X61653403Y-85253077D01*
X61659426Y-85301390D01*
X61661524Y-85308435D01*
X61663907Y-85315379D01*
X61663908Y-85315381D01*
X61680270Y-85345616D01*
X61687082Y-85358203D01*
X61689421Y-85362747D01*
X61710802Y-85406484D01*
X61710804Y-85406486D01*
X61710805Y-85406488D01*
X61715062Y-85412451D01*
X61719583Y-85418259D01*
X61755398Y-85451230D01*
X61759096Y-85454778D01*
X67613181Y-91308863D01*
X67646666Y-91370186D01*
X67649500Y-91396544D01*
X67649500Y-92950788D01*
X67646861Y-92976232D01*
X67644957Y-92985311D01*
X67644957Y-92985316D01*
X67648548Y-93014121D01*
X67649396Y-93027795D01*
X67649499Y-93029032D01*
X67652666Y-93048015D01*
X67653403Y-93053077D01*
X67659426Y-93101390D01*
X67661524Y-93108435D01*
X67663907Y-93115379D01*
X67663908Y-93115381D01*
X67680270Y-93145616D01*
X67687082Y-93158203D01*
X67689421Y-93162747D01*
X67710802Y-93206484D01*
X67710804Y-93206486D01*
X67710805Y-93206488D01*
X67715062Y-93212451D01*
X67719583Y-93218259D01*
X67755398Y-93251230D01*
X67759096Y-93254778D01*
X68141631Y-93637313D01*
X68517360Y-94013041D01*
X68533484Y-94032896D01*
X68538563Y-94040669D01*
X68561478Y-94058504D01*
X68571728Y-94067558D01*
X68572690Y-94068372D01*
X68588347Y-94079551D01*
X68592451Y-94082611D01*
X68600914Y-94089198D01*
X68630874Y-94112517D01*
X68637346Y-94116019D01*
X68643934Y-94119240D01*
X68690593Y-94133131D01*
X68695437Y-94134682D01*
X68741512Y-94150500D01*
X68741517Y-94150500D01*
X68748755Y-94151708D01*
X68756044Y-94152616D01*
X68756046Y-94152617D01*
X68756047Y-94152616D01*
X68756048Y-94152617D01*
X68793855Y-94151053D01*
X68804679Y-94150605D01*
X68809802Y-94150500D01*
X71150789Y-94150500D01*
X71176234Y-94153138D01*
X71185315Y-94155043D01*
X71210673Y-94151881D01*
X71214123Y-94151452D01*
X71227764Y-94150605D01*
X71229026Y-94150500D01*
X71229040Y-94150500D01*
X71237071Y-94149159D01*
X71248014Y-94147334D01*
X71253063Y-94146597D01*
X71301393Y-94140573D01*
X71301399Y-94140569D01*
X71308456Y-94138468D01*
X71315377Y-94136092D01*
X71315381Y-94136092D01*
X71358216Y-94112909D01*
X71362729Y-94110586D01*
X71406484Y-94089198D01*
X71406486Y-94089195D01*
X71412461Y-94084929D01*
X71418256Y-94080419D01*
X71418255Y-94080419D01*
X71418258Y-94080418D01*
X71451254Y-94044572D01*
X71454756Y-94040924D01*
X72213615Y-93282065D01*
X72274936Y-93248582D01*
X72314545Y-93246459D01*
X72352127Y-93250500D01*
X73647872Y-93250499D01*
X73685451Y-93246459D01*
X73754210Y-93258865D01*
X73786386Y-93282068D01*
X74017362Y-93513044D01*
X74033489Y-93532902D01*
X74038563Y-93540669D01*
X74038565Y-93540671D01*
X74061466Y-93558495D01*
X74071726Y-93567557D01*
X74072686Y-93568370D01*
X74088356Y-93579558D01*
X74092447Y-93582608D01*
X74130874Y-93612517D01*
X74130877Y-93612518D01*
X74137330Y-93616011D01*
X74143933Y-93619240D01*
X74174478Y-93628333D01*
X74190584Y-93633128D01*
X74195441Y-93634683D01*
X74241512Y-93650500D01*
X74241516Y-93650500D01*
X74248732Y-93651705D01*
X74256045Y-93652616D01*
X74256047Y-93652617D01*
X74256048Y-93652616D01*
X74256049Y-93652617D01*
X74293133Y-93651083D01*
X74304679Y-93650605D01*
X74309802Y-93650500D01*
X82150789Y-93650500D01*
X82176234Y-93653138D01*
X82185315Y-93655043D01*
X82210673Y-93651881D01*
X82214123Y-93651452D01*
X82227764Y-93650605D01*
X82229026Y-93650500D01*
X82229040Y-93650500D01*
X82237071Y-93649159D01*
X82248014Y-93647334D01*
X82253063Y-93646597D01*
X82301393Y-93640573D01*
X82301399Y-93640569D01*
X82308456Y-93638468D01*
X82315377Y-93636092D01*
X82315381Y-93636092D01*
X82358216Y-93612909D01*
X82362729Y-93610586D01*
X82406484Y-93589198D01*
X82406486Y-93589195D01*
X82412461Y-93584929D01*
X82418256Y-93580419D01*
X82418255Y-93580419D01*
X82418258Y-93580418D01*
X82451254Y-93544572D01*
X82454756Y-93540924D01*
X82713615Y-93282065D01*
X82774936Y-93248582D01*
X82814545Y-93246459D01*
X82852127Y-93250500D01*
X84147872Y-93250499D01*
X84185451Y-93246459D01*
X84254210Y-93258865D01*
X84286386Y-93282068D01*
X84517362Y-93513044D01*
X84533489Y-93532902D01*
X84538563Y-93540669D01*
X84538565Y-93540671D01*
X84561466Y-93558495D01*
X84571726Y-93567557D01*
X84572686Y-93568370D01*
X84588356Y-93579558D01*
X84592447Y-93582608D01*
X84630874Y-93612517D01*
X84630877Y-93612518D01*
X84637330Y-93616011D01*
X84643933Y-93619240D01*
X84674478Y-93628333D01*
X84690584Y-93633128D01*
X84695441Y-93634683D01*
X84741512Y-93650500D01*
X84741516Y-93650500D01*
X84748732Y-93651705D01*
X84756045Y-93652616D01*
X84756047Y-93652617D01*
X84756048Y-93652616D01*
X84756049Y-93652617D01*
X84793133Y-93651083D01*
X84804679Y-93650605D01*
X84809802Y-93650500D01*
X92650789Y-93650500D01*
X92676234Y-93653138D01*
X92685315Y-93655043D01*
X92710673Y-93651881D01*
X92714123Y-93651452D01*
X92727764Y-93650605D01*
X92729026Y-93650500D01*
X92729040Y-93650500D01*
X92737071Y-93649159D01*
X92748014Y-93647334D01*
X92753063Y-93646597D01*
X92801393Y-93640573D01*
X92801399Y-93640569D01*
X92808456Y-93638468D01*
X92815377Y-93636092D01*
X92815381Y-93636092D01*
X92858216Y-93612909D01*
X92862729Y-93610586D01*
X92906484Y-93589198D01*
X92906486Y-93589195D01*
X92912461Y-93584929D01*
X92918256Y-93580419D01*
X92918255Y-93580419D01*
X92918258Y-93580418D01*
X92951254Y-93544572D01*
X92954756Y-93540924D01*
X93213615Y-93282065D01*
X93274936Y-93248582D01*
X93314545Y-93246459D01*
X93352127Y-93250500D01*
X94647872Y-93250499D01*
X94707483Y-93244091D01*
X94842331Y-93193796D01*
X94957546Y-93107546D01*
X95043796Y-92992331D01*
X95094091Y-92857483D01*
X95100500Y-92797873D01*
X95100500Y-92474500D01*
X95120185Y-92407461D01*
X95172989Y-92361706D01*
X95224500Y-92350500D01*
X100819087Y-92350500D01*
X100886126Y-92370185D01*
X100931881Y-92422989D01*
X100938064Y-92439565D01*
X100971505Y-92553456D01*
X100973684Y-92560875D01*
X101023019Y-92656572D01*
X101069991Y-92747686D01*
X101199905Y-92912883D01*
X101199909Y-92912887D01*
X101358746Y-93050521D01*
X101540750Y-93155601D01*
X101540752Y-93155601D01*
X101540756Y-93155604D01*
X101739367Y-93224344D01*
X101947398Y-93254254D01*
X102157330Y-93244254D01*
X102361576Y-93194704D01*
X102447199Y-93155601D01*
X102552743Y-93107401D01*
X102552746Y-93107399D01*
X102552753Y-93107396D01*
X102723952Y-92985486D01*
X102744774Y-92963649D01*
X102868984Y-92833380D01*
X102868983Y-92833380D01*
X102868986Y-92833378D01*
X102922755Y-92749712D01*
X102975557Y-92703959D01*
X103044715Y-92694015D01*
X103108271Y-92723040D01*
X103146046Y-92781818D01*
X103150427Y-92804151D01*
X103160494Y-92902697D01*
X103215641Y-93069119D01*
X103215643Y-93069124D01*
X103307684Y-93218345D01*
X103431654Y-93342315D01*
X103580875Y-93434356D01*
X103580880Y-93434358D01*
X103747302Y-93489505D01*
X103747309Y-93489506D01*
X103850019Y-93499999D01*
X104249999Y-93499999D01*
X104250000Y-93499998D01*
X104250000Y-92435501D01*
X104357685Y-92484680D01*
X104464237Y-92500000D01*
X104535763Y-92500000D01*
X104642315Y-92484680D01*
X104750000Y-92435501D01*
X104750000Y-93499999D01*
X105149972Y-93499999D01*
X105149986Y-93499998D01*
X105252697Y-93489505D01*
X105419119Y-93434358D01*
X105419124Y-93434356D01*
X105568345Y-93342315D01*
X105692315Y-93218345D01*
X105784356Y-93069124D01*
X105784358Y-93069119D01*
X105839505Y-92902697D01*
X105839506Y-92902690D01*
X105849999Y-92799986D01*
X105850000Y-92799973D01*
X105850000Y-92250000D01*
X104933686Y-92250000D01*
X104959493Y-92209844D01*
X105000000Y-92071889D01*
X105000000Y-91928111D01*
X104959493Y-91790156D01*
X104933686Y-91750000D01*
X105849999Y-91750000D01*
X105849999Y-91200028D01*
X105849998Y-91200013D01*
X105839505Y-91097302D01*
X105784358Y-90930880D01*
X105784356Y-90930875D01*
X105692315Y-90781654D01*
X105568345Y-90657684D01*
X105419124Y-90565643D01*
X105419119Y-90565641D01*
X105252697Y-90510494D01*
X105252690Y-90510493D01*
X105149986Y-90500000D01*
X104750000Y-90500000D01*
X104750000Y-91564498D01*
X104642315Y-91515320D01*
X104535763Y-91500000D01*
X104464237Y-91500000D01*
X104357685Y-91515320D01*
X104250000Y-91564498D01*
X104250000Y-90500000D01*
X103850028Y-90500000D01*
X103850012Y-90500001D01*
X103747302Y-90510494D01*
X103580880Y-90565641D01*
X103580875Y-90565643D01*
X103431654Y-90657684D01*
X103307684Y-90781654D01*
X103215643Y-90930875D01*
X103215641Y-90930880D01*
X103160494Y-91097302D01*
X103160493Y-91097309D01*
X103151159Y-91188675D01*
X103124763Y-91253367D01*
X103067582Y-91293518D01*
X102997771Y-91296381D01*
X102937494Y-91261047D01*
X102930331Y-91252724D01*
X102800094Y-91087116D01*
X102800090Y-91087112D01*
X102641253Y-90949478D01*
X102459249Y-90844398D01*
X102459245Y-90844396D01*
X102459244Y-90844396D01*
X102260633Y-90775656D01*
X102052602Y-90745746D01*
X102052598Y-90745746D01*
X101842672Y-90755745D01*
X101638421Y-90805296D01*
X101638417Y-90805298D01*
X101447256Y-90892598D01*
X101447251Y-90892601D01*
X101276046Y-91014515D01*
X101276040Y-91014520D01*
X101131014Y-91166620D01*
X101017388Y-91343425D01*
X100939275Y-91538543D01*
X100937266Y-91548968D01*
X100905250Y-91611070D01*
X100844741Y-91646005D01*
X100815507Y-91649500D01*
X95224499Y-91649500D01*
X95157460Y-91629815D01*
X95111705Y-91577011D01*
X95100499Y-91525500D01*
X95100499Y-91202129D01*
X95100498Y-91202123D01*
X95100497Y-91202116D01*
X95094564Y-91146915D01*
X95094091Y-91142516D01*
X95043797Y-91007671D01*
X95043793Y-91007664D01*
X94957547Y-90892455D01*
X94957544Y-90892452D01*
X94842335Y-90806206D01*
X94842328Y-90806202D01*
X94707482Y-90755908D01*
X94707483Y-90755908D01*
X94647883Y-90749501D01*
X94647881Y-90749500D01*
X94647873Y-90749500D01*
X94647864Y-90749500D01*
X93352129Y-90749500D01*
X93352123Y-90749501D01*
X93292516Y-90755908D01*
X93157671Y-90806202D01*
X93157664Y-90806206D01*
X93042455Y-90892452D01*
X93042452Y-90892455D01*
X92956206Y-91007664D01*
X92956202Y-91007671D01*
X92905908Y-91142517D01*
X92899501Y-91202116D01*
X92899501Y-91202123D01*
X92899500Y-91202135D01*
X92899500Y-92553455D01*
X92879815Y-92620494D01*
X92863181Y-92641136D01*
X92641488Y-92862829D01*
X92580165Y-92896314D01*
X92510473Y-92891330D01*
X92454540Y-92849458D01*
X92430123Y-92783994D01*
X92444975Y-92715721D01*
X92449476Y-92708132D01*
X92482613Y-92656572D01*
X92560725Y-92461457D01*
X92600500Y-92255085D01*
X92600500Y-91797575D01*
X92585528Y-91640782D01*
X92526316Y-91439125D01*
X92430011Y-91252318D01*
X92430009Y-91252316D01*
X92430008Y-91252313D01*
X92300094Y-91087116D01*
X92300090Y-91087112D01*
X92141253Y-90949478D01*
X91959249Y-90844398D01*
X91959245Y-90844396D01*
X91959244Y-90844396D01*
X91760633Y-90775656D01*
X91552602Y-90745746D01*
X91552598Y-90745746D01*
X91342672Y-90755745D01*
X91138421Y-90805296D01*
X91138417Y-90805298D01*
X90947256Y-90892598D01*
X90947251Y-90892601D01*
X90776046Y-91014515D01*
X90776040Y-91014520D01*
X90631014Y-91166620D01*
X90517388Y-91343425D01*
X90439274Y-91538544D01*
X90399500Y-91744914D01*
X90399500Y-91744915D01*
X90399500Y-92202425D01*
X90414472Y-92359218D01*
X90433197Y-92422989D01*
X90471505Y-92553456D01*
X90473684Y-92560875D01*
X90523019Y-92656572D01*
X90569990Y-92747684D01*
X90570908Y-92748851D01*
X90571186Y-92749546D01*
X90573184Y-92752655D01*
X90572584Y-92753039D01*
X90596874Y-92813716D01*
X90583649Y-92882323D01*
X90535432Y-92932889D01*
X90473435Y-92949500D01*
X84996543Y-92949500D01*
X84929504Y-92929815D01*
X84908862Y-92913181D01*
X84636818Y-92641137D01*
X84603333Y-92579814D01*
X84600499Y-92553456D01*
X84600499Y-91202129D01*
X84600498Y-91202123D01*
X84600497Y-91202116D01*
X84594564Y-91146915D01*
X84594091Y-91142516D01*
X84543797Y-91007671D01*
X84543793Y-91007664D01*
X84457547Y-90892455D01*
X84457544Y-90892452D01*
X84342335Y-90806206D01*
X84342328Y-90806202D01*
X84207482Y-90755908D01*
X84207483Y-90755908D01*
X84147883Y-90749501D01*
X84147881Y-90749500D01*
X84147873Y-90749500D01*
X84147864Y-90749500D01*
X82852129Y-90749500D01*
X82852123Y-90749501D01*
X82792516Y-90755908D01*
X82657671Y-90806202D01*
X82657664Y-90806206D01*
X82542455Y-90892452D01*
X82542452Y-90892455D01*
X82456206Y-91007664D01*
X82456202Y-91007671D01*
X82405908Y-91142517D01*
X82399501Y-91202116D01*
X82399501Y-91202123D01*
X82399500Y-91202135D01*
X82399500Y-92553455D01*
X82379815Y-92620494D01*
X82363181Y-92641136D01*
X82141488Y-92862829D01*
X82080165Y-92896314D01*
X82010473Y-92891330D01*
X81954540Y-92849458D01*
X81930123Y-92783994D01*
X81944975Y-92715721D01*
X81949476Y-92708132D01*
X81982613Y-92656572D01*
X82060725Y-92461457D01*
X82100500Y-92255085D01*
X82100500Y-91797575D01*
X82085528Y-91640782D01*
X82026316Y-91439125D01*
X81930011Y-91252318D01*
X81930009Y-91252316D01*
X81930008Y-91252313D01*
X81800094Y-91087116D01*
X81800090Y-91087112D01*
X81641253Y-90949478D01*
X81459249Y-90844398D01*
X81459245Y-90844396D01*
X81459244Y-90844396D01*
X81260633Y-90775656D01*
X81052602Y-90745746D01*
X81052598Y-90745746D01*
X80842672Y-90755745D01*
X80638421Y-90805296D01*
X80638417Y-90805298D01*
X80447256Y-90892598D01*
X80447251Y-90892601D01*
X80276046Y-91014515D01*
X80276040Y-91014520D01*
X80131014Y-91166620D01*
X80017388Y-91343425D01*
X79939274Y-91538544D01*
X79899500Y-91744914D01*
X79899500Y-91744915D01*
X79899500Y-92202425D01*
X79914472Y-92359218D01*
X79933197Y-92422989D01*
X79971505Y-92553456D01*
X79973684Y-92560875D01*
X80023019Y-92656572D01*
X80069990Y-92747684D01*
X80070908Y-92748851D01*
X80071186Y-92749546D01*
X80073184Y-92752655D01*
X80072584Y-92753039D01*
X80096874Y-92813716D01*
X80083649Y-92882323D01*
X80035432Y-92932889D01*
X79973435Y-92949500D01*
X74496543Y-92949500D01*
X74429504Y-92929815D01*
X74408862Y-92913181D01*
X74136818Y-92641137D01*
X74103333Y-92579814D01*
X74100499Y-92553456D01*
X74100499Y-91202129D01*
X74100498Y-91202123D01*
X74100497Y-91202116D01*
X74094564Y-91146915D01*
X74094091Y-91142516D01*
X74043797Y-91007671D01*
X74043793Y-91007664D01*
X73957547Y-90892455D01*
X73957544Y-90892452D01*
X73842335Y-90806206D01*
X73842328Y-90806202D01*
X73707482Y-90755908D01*
X73707483Y-90755908D01*
X73647883Y-90749501D01*
X73647881Y-90749500D01*
X73647873Y-90749500D01*
X73647864Y-90749500D01*
X72352129Y-90749500D01*
X72352123Y-90749501D01*
X72292516Y-90755908D01*
X72157671Y-90806202D01*
X72157664Y-90806206D01*
X72042455Y-90892452D01*
X72042452Y-90892455D01*
X71956206Y-91007664D01*
X71956202Y-91007671D01*
X71905908Y-91142517D01*
X71899501Y-91202116D01*
X71899501Y-91202123D01*
X71899500Y-91202135D01*
X71899500Y-92553455D01*
X71879815Y-92620494D01*
X71863181Y-92641136D01*
X71641489Y-92862827D01*
X71580166Y-92896312D01*
X71510474Y-92891328D01*
X71454541Y-92849456D01*
X71430124Y-92783992D01*
X71444976Y-92715719D01*
X71449474Y-92708136D01*
X71482613Y-92656572D01*
X71560725Y-92461457D01*
X71600500Y-92255085D01*
X71600500Y-91797575D01*
X71585528Y-91640782D01*
X71526316Y-91439125D01*
X71430011Y-91252318D01*
X71430009Y-91252316D01*
X71430008Y-91252313D01*
X71300094Y-91087116D01*
X71300090Y-91087112D01*
X71141253Y-90949478D01*
X70959249Y-90844398D01*
X70959245Y-90844396D01*
X70959244Y-90844396D01*
X70760633Y-90775656D01*
X70552602Y-90745746D01*
X70552598Y-90745746D01*
X70342672Y-90755745D01*
X70138421Y-90805296D01*
X70138417Y-90805298D01*
X69947256Y-90892598D01*
X69947251Y-90892601D01*
X69776046Y-91014515D01*
X69776040Y-91014520D01*
X69631014Y-91166620D01*
X69517388Y-91343425D01*
X69439274Y-91538544D01*
X69399500Y-91744914D01*
X69399500Y-91744915D01*
X69399500Y-92202425D01*
X69414472Y-92359218D01*
X69433197Y-92422989D01*
X69471505Y-92553456D01*
X69473684Y-92560875D01*
X69523019Y-92656572D01*
X69569991Y-92747686D01*
X69699905Y-92912883D01*
X69699909Y-92912887D01*
X69858746Y-93050521D01*
X70040752Y-93155602D01*
X70040753Y-93155602D01*
X70040756Y-93155604D01*
X70183462Y-93204995D01*
X70193069Y-93208320D01*
X70249984Y-93248848D01*
X70275952Y-93313713D01*
X70262729Y-93382320D01*
X70214513Y-93432887D01*
X70152513Y-93449500D01*
X68996544Y-93449500D01*
X68929505Y-93429815D01*
X68908863Y-93413181D01*
X68386819Y-92891137D01*
X68353334Y-92829814D01*
X68350500Y-92803456D01*
X68350500Y-91249206D01*
X68353139Y-91223760D01*
X68355042Y-91214685D01*
X68351451Y-91185883D01*
X68350603Y-91172208D01*
X68350500Y-91170970D01*
X68350500Y-91170960D01*
X68347328Y-91151959D01*
X68346594Y-91146915D01*
X68346046Y-91142516D01*
X68340573Y-91098607D01*
X68340572Y-91098604D01*
X68338477Y-91091566D01*
X68336092Y-91084618D01*
X68312928Y-91041817D01*
X68310579Y-91037254D01*
X68289199Y-90993518D01*
X68284926Y-90987534D01*
X68280420Y-90981745D01*
X68280419Y-90981744D01*
X68280418Y-90981742D01*
X68244587Y-90948757D01*
X68240914Y-90945232D01*
X62386819Y-85091137D01*
X62353334Y-85029814D01*
X62350500Y-85003456D01*
X62350500Y-83224499D01*
X62370185Y-83157460D01*
X62422989Y-83111705D01*
X62474500Y-83100499D01*
X62797871Y-83100499D01*
X62797872Y-83100499D01*
X62857483Y-83094091D01*
X62992331Y-83043796D01*
X63107546Y-82957546D01*
X63193796Y-82842331D01*
X63244091Y-82707483D01*
X63250500Y-82647873D01*
X63250499Y-81352128D01*
X63244091Y-81292517D01*
X63240448Y-81282750D01*
X63193797Y-81157671D01*
X63193793Y-81157664D01*
X63107547Y-81042455D01*
X63107544Y-81042452D01*
X62992335Y-80956206D01*
X62992328Y-80956202D01*
X62857482Y-80905908D01*
X62857483Y-80905908D01*
X62797883Y-80899501D01*
X62797881Y-80899500D01*
X62797873Y-80899500D01*
X62797865Y-80899500D01*
X61446544Y-80899500D01*
X61379505Y-80879815D01*
X61358863Y-80863181D01*
X61137170Y-80641488D01*
X61103685Y-80580165D01*
X61108669Y-80510473D01*
X61150541Y-80454540D01*
X61216005Y-80430123D01*
X61284278Y-80444975D01*
X61291891Y-80449492D01*
X61343428Y-80482613D01*
X61538543Y-80560725D01*
X61639407Y-80580165D01*
X61744914Y-80600500D01*
X61744915Y-80600500D01*
X62202419Y-80600500D01*
X62202425Y-80600500D01*
X62359218Y-80585528D01*
X62560875Y-80526316D01*
X62747682Y-80430011D01*
X62912886Y-80300092D01*
X62956291Y-80250000D01*
X71850001Y-80250000D01*
X71850001Y-80298322D01*
X71860144Y-80397607D01*
X71913452Y-80558481D01*
X71913457Y-80558492D01*
X72002424Y-80702728D01*
X72002427Y-80702732D01*
X72122267Y-80822572D01*
X72122271Y-80822575D01*
X72266507Y-80911542D01*
X72266518Y-80911547D01*
X72427393Y-80964855D01*
X72526683Y-80974999D01*
X72550000Y-80974998D01*
X72550000Y-80250000D01*
X71850001Y-80250000D01*
X62956291Y-80250000D01*
X63050519Y-80141256D01*
X63053564Y-80135983D01*
X63155601Y-79959249D01*
X63155600Y-79959249D01*
X63155604Y-79959244D01*
X63224344Y-79760633D01*
X63225873Y-79750000D01*
X71850000Y-79750000D01*
X72550000Y-79750000D01*
X72550000Y-79024999D01*
X72526693Y-79025000D01*
X72526674Y-79025001D01*
X72427392Y-79035144D01*
X72266518Y-79088452D01*
X72266507Y-79088457D01*
X72122271Y-79177424D01*
X72122267Y-79177427D01*
X72002427Y-79297267D01*
X72002424Y-79297271D01*
X71913457Y-79441507D01*
X71913452Y-79441518D01*
X71860144Y-79602393D01*
X71850000Y-79701677D01*
X71850000Y-79750000D01*
X63225873Y-79750000D01*
X63254254Y-79552602D01*
X63244254Y-79342670D01*
X63194704Y-79138424D01*
X63192916Y-79134508D01*
X63107401Y-78947256D01*
X63107398Y-78947251D01*
X63107397Y-78947250D01*
X63107396Y-78947247D01*
X62985486Y-78776048D01*
X62985484Y-78776046D01*
X62985479Y-78776040D01*
X62833379Y-78631014D01*
X62656574Y-78517388D01*
X62461455Y-78439274D01*
X62255086Y-78399500D01*
X62255085Y-78399500D01*
X61797575Y-78399500D01*
X61640782Y-78414472D01*
X61640778Y-78414473D01*
X61439127Y-78473683D01*
X61252315Y-78569990D01*
X61251149Y-78570908D01*
X61250453Y-78571186D01*
X61247345Y-78573184D01*
X61246960Y-78572584D01*
X61186284Y-78596874D01*
X61117677Y-78583649D01*
X61067111Y-78535432D01*
X61050500Y-78473435D01*
X61050500Y-72996543D01*
X61070185Y-72929504D01*
X61086815Y-72908866D01*
X61358863Y-72636817D01*
X61420186Y-72603333D01*
X61446544Y-72600499D01*
X62797871Y-72600499D01*
X62797872Y-72600499D01*
X62857483Y-72594091D01*
X62992331Y-72543796D01*
X63107546Y-72457546D01*
X63193796Y-72342331D01*
X63244091Y-72207483D01*
X63250500Y-72147873D01*
X63250499Y-70852128D01*
X63244091Y-70792517D01*
X63241444Y-70785421D01*
X63193797Y-70657671D01*
X63193793Y-70657664D01*
X63107547Y-70542455D01*
X63107544Y-70542452D01*
X62992335Y-70456206D01*
X62992328Y-70456202D01*
X62857482Y-70405908D01*
X62857483Y-70405908D01*
X62797883Y-70399501D01*
X62797881Y-70399500D01*
X62797873Y-70399500D01*
X62797865Y-70399500D01*
X61446544Y-70399500D01*
X61379505Y-70379815D01*
X61358863Y-70363181D01*
X61137170Y-70141488D01*
X61103685Y-70080165D01*
X61108669Y-70010473D01*
X61150541Y-69954540D01*
X61216005Y-69930123D01*
X61284278Y-69944975D01*
X61291891Y-69949492D01*
X61343428Y-69982613D01*
X61538543Y-70060725D01*
X61639407Y-70080165D01*
X61744914Y-70100500D01*
X61744915Y-70100500D01*
X62202419Y-70100500D01*
X62202425Y-70100500D01*
X62359218Y-70085528D01*
X62560875Y-70026316D01*
X62708908Y-69950000D01*
X73250001Y-69950000D01*
X73250001Y-69998322D01*
X73260144Y-70097607D01*
X73313452Y-70258481D01*
X73313457Y-70258492D01*
X73402424Y-70402728D01*
X73402427Y-70402732D01*
X73522267Y-70522572D01*
X73522271Y-70522575D01*
X73666507Y-70611542D01*
X73666518Y-70611547D01*
X73827393Y-70664855D01*
X73926683Y-70674999D01*
X73950000Y-70674998D01*
X73950000Y-69950000D01*
X73250001Y-69950000D01*
X62708908Y-69950000D01*
X62747682Y-69930011D01*
X62912886Y-69800092D01*
X63050519Y-69641256D01*
X63073243Y-69601898D01*
X63155601Y-69459249D01*
X63155600Y-69459249D01*
X63155604Y-69459244D01*
X63158803Y-69450000D01*
X73250000Y-69450000D01*
X73950000Y-69450000D01*
X73950000Y-68758362D01*
X73969685Y-68691323D01*
X73975000Y-68684727D01*
X73975000Y-68250000D01*
X73275001Y-68250000D01*
X73275001Y-68298322D01*
X73285144Y-68397607D01*
X73338452Y-68558481D01*
X73338457Y-68558492D01*
X73427424Y-68702728D01*
X73427427Y-68702732D01*
X73474513Y-68749818D01*
X73507998Y-68811141D01*
X73503014Y-68880833D01*
X73474514Y-68925179D01*
X73402427Y-68997266D01*
X73402424Y-68997271D01*
X73313457Y-69141507D01*
X73313452Y-69141518D01*
X73260144Y-69302393D01*
X73250000Y-69401677D01*
X73250000Y-69450000D01*
X63158803Y-69450000D01*
X63224344Y-69260633D01*
X63254254Y-69052602D01*
X63244254Y-68842670D01*
X63194704Y-68638424D01*
X63176246Y-68598006D01*
X63107401Y-68447256D01*
X63107398Y-68447251D01*
X63107397Y-68447250D01*
X63107396Y-68447247D01*
X62985486Y-68276048D01*
X62985484Y-68276046D01*
X62985479Y-68276040D01*
X62833379Y-68131014D01*
X62656574Y-68017388D01*
X62461455Y-67939274D01*
X62255086Y-67899500D01*
X62255085Y-67899500D01*
X61797575Y-67899500D01*
X61640782Y-67914472D01*
X61640778Y-67914473D01*
X61439127Y-67973683D01*
X61252315Y-68069990D01*
X61251149Y-68070908D01*
X61250453Y-68071186D01*
X61247345Y-68073184D01*
X61246960Y-68072584D01*
X61186284Y-68096874D01*
X61117677Y-68083649D01*
X61067111Y-68035432D01*
X61050500Y-67973435D01*
X61050500Y-61496543D01*
X61070185Y-61429504D01*
X61086815Y-61408866D01*
X61358863Y-61136817D01*
X61420186Y-61103333D01*
X61446544Y-61100499D01*
X62797871Y-61100499D01*
X62797872Y-61100499D01*
X62857483Y-61094091D01*
X62992331Y-61043796D01*
X63107546Y-60957546D01*
X63193796Y-60842331D01*
X63244091Y-60707483D01*
X63250500Y-60647873D01*
X63250499Y-59724678D01*
X68369500Y-59724678D01*
X68384032Y-59797735D01*
X68384033Y-59797739D01*
X68384034Y-59797740D01*
X68439399Y-59880601D01*
X68522260Y-59935966D01*
X68522264Y-59935967D01*
X68595321Y-59950499D01*
X68595324Y-59950500D01*
X68595326Y-59950500D01*
X69235500Y-59950500D01*
X69302539Y-59970185D01*
X69348294Y-60022989D01*
X69359500Y-60074500D01*
X69359500Y-64060788D01*
X69356861Y-64086232D01*
X69354957Y-64095311D01*
X69354957Y-64095316D01*
X69358548Y-64124121D01*
X69359396Y-64137795D01*
X69359499Y-64139032D01*
X69362666Y-64158015D01*
X69363403Y-64163077D01*
X69369426Y-64211390D01*
X69371524Y-64218435D01*
X69373907Y-64225379D01*
X69373908Y-64225381D01*
X69381741Y-64239855D01*
X69397082Y-64268203D01*
X69399421Y-64272747D01*
X69420802Y-64316484D01*
X69420804Y-64316486D01*
X69420805Y-64316488D01*
X69425062Y-64322451D01*
X69429583Y-64328259D01*
X69465398Y-64361230D01*
X69469096Y-64364778D01*
X72117362Y-67013044D01*
X72133489Y-67032902D01*
X72138563Y-67040669D01*
X72138565Y-67040671D01*
X72161466Y-67058495D01*
X72171728Y-67067559D01*
X72172691Y-67068374D01*
X72188347Y-67079552D01*
X72192457Y-67082616D01*
X72230874Y-67112517D01*
X72237340Y-67116015D01*
X72243930Y-67119237D01*
X72243933Y-67119239D01*
X72290588Y-67133129D01*
X72295439Y-67134682D01*
X72341512Y-67150500D01*
X72341516Y-67150500D01*
X72348732Y-67151705D01*
X72356044Y-67152616D01*
X72356046Y-67152617D01*
X72356047Y-67152616D01*
X72356048Y-67152617D01*
X72404668Y-67150606D01*
X72409793Y-67150500D01*
X73295779Y-67150500D01*
X73362818Y-67170185D01*
X73408573Y-67222989D01*
X73418517Y-67292147D01*
X73401318Y-67339597D01*
X73338454Y-67441513D01*
X73338452Y-67441518D01*
X73285144Y-67602393D01*
X73275000Y-67701677D01*
X73275000Y-67750000D01*
X74351000Y-67750000D01*
X74418039Y-67769685D01*
X74463794Y-67822489D01*
X74475000Y-67874000D01*
X74475000Y-68941638D01*
X74455315Y-69008677D01*
X74450000Y-69015272D01*
X74450000Y-70674999D01*
X74473308Y-70674999D01*
X74473322Y-70674998D01*
X74572607Y-70664855D01*
X74733481Y-70611547D01*
X74733492Y-70611542D01*
X74877728Y-70522575D01*
X74877732Y-70522572D01*
X74997573Y-70402731D01*
X75033348Y-70344731D01*
X75085296Y-70298006D01*
X75154258Y-70286783D01*
X75213194Y-70310558D01*
X75294774Y-70371628D01*
X75422886Y-70419412D01*
X75479515Y-70425500D01*
X76020484Y-70425499D01*
X76077114Y-70419412D01*
X76205226Y-70371628D01*
X76314687Y-70289687D01*
X76396628Y-70180226D01*
X76414927Y-70131166D01*
X76456798Y-70075232D01*
X76522263Y-70050816D01*
X76531108Y-70050500D01*
X76586153Y-70050500D01*
X76653192Y-70070185D01*
X76698947Y-70122989D01*
X76703187Y-70133528D01*
X76722207Y-70187882D01*
X76802850Y-70297150D01*
X76912118Y-70377793D01*
X76917897Y-70379815D01*
X76999756Y-70408459D01*
X77056532Y-70449180D01*
X77082279Y-70514133D01*
X77068823Y-70582695D01*
X77020435Y-70633098D01*
X76958802Y-70649500D01*
X76836868Y-70649500D01*
X76826341Y-70650885D01*
X76789455Y-70655741D01*
X76789453Y-70655742D01*
X76789451Y-70655742D01*
X76752403Y-70673018D01*
X76683325Y-70683509D01*
X76647596Y-70673018D01*
X76626592Y-70663224D01*
X76610545Y-70655741D01*
X76610541Y-70655740D01*
X76563140Y-70649500D01*
X76336867Y-70649500D01*
X76321839Y-70651478D01*
X76289455Y-70655741D01*
X76289453Y-70655742D01*
X76289451Y-70655742D01*
X76185420Y-70704253D01*
X76104253Y-70785420D01*
X76055740Y-70889456D01*
X76049500Y-70936860D01*
X76049500Y-72338132D01*
X76050053Y-72342331D01*
X76055741Y-72385545D01*
X76055742Y-72385547D01*
X76055742Y-72385548D01*
X76063597Y-72402392D01*
X76104253Y-72489579D01*
X76185421Y-72570747D01*
X76289455Y-72619259D01*
X76302421Y-72620966D01*
X76314726Y-72622586D01*
X76378623Y-72650851D01*
X76417095Y-72709175D01*
X76417927Y-72779040D01*
X76396918Y-72821011D01*
X76319139Y-72922374D01*
X76319137Y-72922376D01*
X76264060Y-73055348D01*
X76220219Y-73109752D01*
X76153925Y-73131817D01*
X76086226Y-73114538D01*
X76038615Y-73063401D01*
X76025499Y-73007896D01*
X76025499Y-72936867D01*
X76025499Y-72936862D01*
X76019259Y-72889455D01*
X75970747Y-72785421D01*
X75889579Y-72704253D01*
X75785545Y-72655741D01*
X75785543Y-72655740D01*
X75785544Y-72655740D01*
X75738139Y-72649500D01*
X74336867Y-72649500D01*
X74321839Y-72651478D01*
X74289455Y-72655741D01*
X74289453Y-72655742D01*
X74289451Y-72655742D01*
X74185420Y-72704253D01*
X74104253Y-72785420D01*
X74055740Y-72889456D01*
X74049500Y-72936859D01*
X74049500Y-73163131D01*
X74049501Y-73163138D01*
X74055741Y-73210545D01*
X74073018Y-73247596D01*
X74083509Y-73316673D01*
X74073018Y-73352402D01*
X74055742Y-73389451D01*
X74055740Y-73389458D01*
X74049500Y-73436859D01*
X74049500Y-73663131D01*
X74049501Y-73663138D01*
X74055741Y-73710545D01*
X74073018Y-73747596D01*
X74083509Y-73816673D01*
X74073018Y-73852402D01*
X74055742Y-73889451D01*
X74055740Y-73889458D01*
X74049500Y-73936859D01*
X74049500Y-74163131D01*
X74049501Y-74163137D01*
X74049501Y-74163138D01*
X74055741Y-74210545D01*
X74073018Y-74247596D01*
X74083509Y-74316673D01*
X74073018Y-74352402D01*
X74055742Y-74389451D01*
X74055740Y-74389458D01*
X74050021Y-74432902D01*
X74049500Y-74436861D01*
X74049500Y-74547655D01*
X74049501Y-74575499D01*
X74029817Y-74642539D01*
X73977013Y-74688294D01*
X73925501Y-74699500D01*
X72646544Y-74699500D01*
X72579505Y-74679815D01*
X72558863Y-74663181D01*
X71791560Y-73895878D01*
X71758075Y-73834555D01*
X71756983Y-73808129D01*
X71755250Y-73808129D01*
X71755250Y-73800000D01*
X71753317Y-73785315D01*
X71736330Y-73656291D01*
X71680861Y-73522375D01*
X71592621Y-73407379D01*
X71477625Y-73319139D01*
X71477624Y-73319138D01*
X71477622Y-73319137D01*
X71343712Y-73263671D01*
X71343710Y-73263670D01*
X71343709Y-73263670D01*
X71271854Y-73254210D01*
X71200001Y-73244750D01*
X71199999Y-73244750D01*
X71056291Y-73263670D01*
X71056287Y-73263671D01*
X70922377Y-73319137D01*
X70807379Y-73407379D01*
X70719137Y-73522377D01*
X70663671Y-73656287D01*
X70663670Y-73656291D01*
X70644750Y-73800000D01*
X70662768Y-73936861D01*
X70663670Y-73943708D01*
X70663671Y-73943712D01*
X70719137Y-74077622D01*
X70719138Y-74077624D01*
X70719139Y-74077625D01*
X70807379Y-74192621D01*
X70922375Y-74280861D01*
X70922376Y-74280861D01*
X70922377Y-74280862D01*
X70949120Y-74291939D01*
X71056291Y-74336330D01*
X71200000Y-74355250D01*
X71208129Y-74355250D01*
X71208129Y-74358828D01*
X71260970Y-74367031D01*
X71295878Y-74391560D01*
X71892137Y-74987819D01*
X71925622Y-75049142D01*
X71920638Y-75118834D01*
X71878766Y-75174767D01*
X71813302Y-75199184D01*
X71804456Y-75199500D01*
X71146543Y-75199500D01*
X71079504Y-75179815D01*
X71058862Y-75163181D01*
X70186819Y-74291137D01*
X70153334Y-74229814D01*
X70150500Y-74203456D01*
X70150500Y-73286092D01*
X70170185Y-73219053D01*
X70188114Y-73199609D01*
X70186874Y-73198369D01*
X70192619Y-73192623D01*
X70192621Y-73192621D01*
X70280861Y-73077625D01*
X70336330Y-72943709D01*
X70355250Y-72800000D01*
X70336330Y-72656291D01*
X70297055Y-72561472D01*
X70280862Y-72522377D01*
X70280861Y-72522376D01*
X70280861Y-72522375D01*
X70192621Y-72407379D01*
X70077625Y-72319139D01*
X70077624Y-72319138D01*
X70077622Y-72319137D01*
X69943712Y-72263671D01*
X69943710Y-72263670D01*
X69943709Y-72263670D01*
X69871854Y-72254210D01*
X69800001Y-72244750D01*
X69799999Y-72244750D01*
X69656291Y-72263670D01*
X69656287Y-72263671D01*
X69522377Y-72319137D01*
X69407379Y-72407379D01*
X69319137Y-72522377D01*
X69263671Y-72656287D01*
X69263670Y-72656291D01*
X69246670Y-72785420D01*
X69244750Y-72800000D01*
X69262768Y-72936861D01*
X69263670Y-72943708D01*
X69263671Y-72943712D01*
X69319138Y-73077623D01*
X69319139Y-73077625D01*
X69407380Y-73192623D01*
X69413126Y-73198369D01*
X69410574Y-73200920D01*
X69442091Y-73243873D01*
X69449500Y-73286092D01*
X69449500Y-74350788D01*
X69446861Y-74376232D01*
X69444957Y-74385311D01*
X69444957Y-74385316D01*
X69448548Y-74414121D01*
X69449396Y-74427795D01*
X69449499Y-74429032D01*
X69449500Y-74429037D01*
X69449500Y-74429040D01*
X69451477Y-74440890D01*
X69452666Y-74448015D01*
X69453403Y-74453077D01*
X69459426Y-74501390D01*
X69461524Y-74508435D01*
X69463907Y-74515379D01*
X69463908Y-74515381D01*
X69474358Y-74534690D01*
X69487082Y-74558203D01*
X69489421Y-74562747D01*
X69510802Y-74606484D01*
X69510804Y-74606486D01*
X69510805Y-74606488D01*
X69515062Y-74612451D01*
X69519583Y-74618259D01*
X69555398Y-74651230D01*
X69559096Y-74654778D01*
X70204048Y-75299730D01*
X70237533Y-75361053D01*
X70232549Y-75430745D01*
X70190677Y-75486678D01*
X70163820Y-75501972D01*
X70122376Y-75519138D01*
X70007379Y-75607379D01*
X69919137Y-75722377D01*
X69863671Y-75856287D01*
X69863670Y-75856291D01*
X69850642Y-75955250D01*
X69844750Y-76000000D01*
X69859316Y-76110641D01*
X69863670Y-76143708D01*
X69863671Y-76143712D01*
X69919137Y-76277622D01*
X69919138Y-76277624D01*
X69919139Y-76277625D01*
X70007379Y-76392621D01*
X70122375Y-76480861D01*
X70256291Y-76536330D01*
X70383280Y-76553048D01*
X70399999Y-76555250D01*
X70400000Y-76555250D01*
X70400001Y-76555250D01*
X70414977Y-76553278D01*
X70543709Y-76536330D01*
X70677625Y-76480861D01*
X70734959Y-76436867D01*
X70748960Y-76426124D01*
X70814129Y-76400930D01*
X70824446Y-76400500D01*
X73925500Y-76400500D01*
X73992539Y-76420185D01*
X74038294Y-76472989D01*
X74049500Y-76524499D01*
X74049500Y-76663131D01*
X74049501Y-76663138D01*
X74055741Y-76710545D01*
X74073018Y-76747596D01*
X74083509Y-76816673D01*
X74073018Y-76852402D01*
X74055742Y-76889451D01*
X74055740Y-76889458D01*
X74049500Y-76936859D01*
X74049500Y-77163131D01*
X74049501Y-77163138D01*
X74055741Y-77210545D01*
X74073018Y-77247596D01*
X74083509Y-77316673D01*
X74073018Y-77352402D01*
X74055742Y-77389451D01*
X74055740Y-77389458D01*
X74049500Y-77436860D01*
X74049500Y-77438842D01*
X74049332Y-77439413D01*
X74049234Y-77440912D01*
X74048898Y-77440890D01*
X74029815Y-77505881D01*
X74000987Y-77537217D01*
X73964908Y-77564901D01*
X73872736Y-77685021D01*
X73814801Y-77824891D01*
X73814800Y-77824896D01*
X73804911Y-77899999D01*
X73804912Y-77900000D01*
X74167052Y-77900000D01*
X74219452Y-77911616D01*
X74275215Y-77937618D01*
X74327652Y-77983789D01*
X74346804Y-78050982D01*
X74326589Y-78117863D01*
X74275215Y-78162380D01*
X74237828Y-78179815D01*
X74223225Y-78186625D01*
X74219459Y-78188381D01*
X74167052Y-78200000D01*
X73804912Y-78200000D01*
X73814800Y-78275103D01*
X73814801Y-78275107D01*
X73872736Y-78414978D01*
X73964907Y-78535096D01*
X74000987Y-78562782D01*
X74042189Y-78619210D01*
X74049143Y-78659091D01*
X74049235Y-78659086D01*
X74049290Y-78659935D01*
X74049500Y-78661136D01*
X74049500Y-78663127D01*
X74049500Y-78663134D01*
X74049501Y-78663138D01*
X74055741Y-78710545D01*
X74055742Y-78710547D01*
X74055742Y-78710548D01*
X74089740Y-78783456D01*
X74104253Y-78814579D01*
X74185421Y-78895747D01*
X74289455Y-78944259D01*
X74336861Y-78950500D01*
X74563000Y-78950499D01*
X74630039Y-78970183D01*
X74675794Y-79022987D01*
X74687000Y-79074499D01*
X74687000Y-79115954D01*
X74667315Y-79182993D01*
X74650681Y-79203635D01*
X74616135Y-79238181D01*
X74554812Y-79271666D01*
X74528454Y-79274500D01*
X74079518Y-79274500D01*
X74079509Y-79274501D01*
X74022885Y-79280587D01*
X73894771Y-79328373D01*
X73813195Y-79389439D01*
X73747730Y-79413855D01*
X73679458Y-79399002D01*
X73633347Y-79355268D01*
X73597571Y-79297266D01*
X73477732Y-79177427D01*
X73477728Y-79177424D01*
X73333492Y-79088457D01*
X73333481Y-79088452D01*
X73172606Y-79035144D01*
X73073322Y-79025000D01*
X73050000Y-79025000D01*
X73050000Y-80974999D01*
X73073308Y-80974999D01*
X73073322Y-80974998D01*
X73172607Y-80964855D01*
X73333481Y-80911547D01*
X73333492Y-80911542D01*
X73477728Y-80822575D01*
X73477732Y-80822572D01*
X73597573Y-80702731D01*
X73633348Y-80644731D01*
X73685296Y-80598006D01*
X73754258Y-80586783D01*
X73813194Y-80610558D01*
X73894774Y-80671628D01*
X74022886Y-80719412D01*
X74079515Y-80725500D01*
X74620484Y-80725499D01*
X74677114Y-80719412D01*
X74805226Y-80671628D01*
X74914687Y-80589687D01*
X74996628Y-80480226D01*
X75044412Y-80352114D01*
X75049042Y-80309047D01*
X75050499Y-80295501D01*
X75050499Y-80295494D01*
X75050500Y-80295485D01*
X75050499Y-79846542D01*
X75070183Y-79779504D01*
X75086809Y-79758871D01*
X75250548Y-79595131D01*
X75270396Y-79579014D01*
X75278169Y-79573937D01*
X75296000Y-79551025D01*
X75305028Y-79540804D01*
X75305866Y-79539814D01*
X75305875Y-79539806D01*
X75317070Y-79524124D01*
X75320081Y-79520086D01*
X75350017Y-79481626D01*
X75350018Y-79481622D01*
X75353513Y-79475163D01*
X75356736Y-79468570D01*
X75356740Y-79468566D01*
X75370638Y-79421882D01*
X75372174Y-79417083D01*
X75388000Y-79370988D01*
X75388000Y-79370981D01*
X75389206Y-79363754D01*
X75390117Y-79356450D01*
X75388106Y-79307814D01*
X75388000Y-79302691D01*
X75388000Y-79074499D01*
X75407685Y-79007460D01*
X75460489Y-78961705D01*
X75512000Y-78950499D01*
X75738133Y-78950499D01*
X75738138Y-78950499D01*
X75785545Y-78944259D01*
X75852585Y-78912997D01*
X75921660Y-78902506D01*
X75930432Y-78904019D01*
X75935315Y-78905043D01*
X75961057Y-78901834D01*
X75964123Y-78901452D01*
X75977764Y-78900605D01*
X75979026Y-78900500D01*
X75979040Y-78900500D01*
X75987071Y-78899159D01*
X75998014Y-78897334D01*
X76003069Y-78896596D01*
X76004509Y-78896417D01*
X76073468Y-78907658D01*
X76125403Y-78954397D01*
X76143824Y-79021795D01*
X76122883Y-79088453D01*
X76107531Y-79107142D01*
X76104254Y-79110419D01*
X76055740Y-79214456D01*
X76049500Y-79261860D01*
X76049500Y-80663132D01*
X76050716Y-80672373D01*
X76055741Y-80710545D01*
X76055742Y-80710547D01*
X76055742Y-80710548D01*
X76074391Y-80750540D01*
X76104253Y-80814579D01*
X76185421Y-80895747D01*
X76289455Y-80944259D01*
X76336861Y-80950500D01*
X76436865Y-80950499D01*
X76503903Y-80970183D01*
X76549659Y-81022986D01*
X76559603Y-81092145D01*
X76530579Y-81155701D01*
X76524546Y-81162180D01*
X75656911Y-82029815D01*
X75595588Y-82063300D01*
X75552089Y-82062271D01*
X75551766Y-82064731D01*
X75543709Y-82063670D01*
X75439877Y-82050000D01*
X75400001Y-82044750D01*
X75399999Y-82044750D01*
X75256291Y-82063670D01*
X75256287Y-82063671D01*
X75122377Y-82119137D01*
X75007379Y-82207379D01*
X74919137Y-82322377D01*
X74863671Y-82456287D01*
X74863670Y-82456291D01*
X74844750Y-82600000D01*
X74860028Y-82716049D01*
X74863670Y-82743708D01*
X74863671Y-82743712D01*
X74919137Y-82877622D01*
X74919138Y-82877624D01*
X74919139Y-82877625D01*
X75007379Y-82992621D01*
X75122375Y-83080861D01*
X75122376Y-83080861D01*
X75122377Y-83080862D01*
X75167013Y-83099350D01*
X75256291Y-83136330D01*
X75383280Y-83153048D01*
X75399999Y-83155250D01*
X75400000Y-83155250D01*
X75400001Y-83155250D01*
X75414977Y-83153278D01*
X75543709Y-83136330D01*
X75677625Y-83080861D01*
X75792621Y-82992621D01*
X75880861Y-82877625D01*
X75928269Y-82763169D01*
X75955146Y-82722944D01*
X77663046Y-81015044D01*
X77682902Y-80998921D01*
X77690669Y-80993847D01*
X77691232Y-80993123D01*
X77692256Y-80992386D01*
X77698229Y-80986888D01*
X77698892Y-80987609D01*
X77747937Y-80952308D01*
X77805272Y-80946341D01*
X77836861Y-80950500D01*
X77975500Y-80950499D01*
X78042539Y-80970183D01*
X78088294Y-81022987D01*
X78099500Y-81074499D01*
X78099500Y-81753455D01*
X78079815Y-81820494D01*
X78063181Y-81841136D01*
X77495877Y-82408439D01*
X77434554Y-82441924D01*
X77408128Y-82443208D01*
X77408128Y-82444750D01*
X77400000Y-82444750D01*
X77256291Y-82463670D01*
X77256287Y-82463671D01*
X77122377Y-82519137D01*
X77007379Y-82607379D01*
X76919137Y-82722377D01*
X76863671Y-82856287D01*
X76863670Y-82856291D01*
X76845722Y-82992620D01*
X76844750Y-83000000D01*
X76862698Y-83136329D01*
X76863670Y-83143708D01*
X76863671Y-83143712D01*
X76919137Y-83277622D01*
X76919138Y-83277624D01*
X76919139Y-83277625D01*
X77007379Y-83392621D01*
X77122375Y-83480861D01*
X77256291Y-83536330D01*
X77383280Y-83553048D01*
X77399999Y-83555250D01*
X77400000Y-83555250D01*
X77400001Y-83555250D01*
X77414977Y-83553278D01*
X77543709Y-83536330D01*
X77677625Y-83480861D01*
X77792621Y-83392621D01*
X77880861Y-83277625D01*
X77936330Y-83143709D01*
X77955250Y-83000000D01*
X77955250Y-82999999D01*
X77955250Y-82991871D01*
X77959049Y-82991871D01*
X77966388Y-82940418D01*
X77991556Y-82904124D01*
X78663046Y-82232634D01*
X78682902Y-82216511D01*
X78690669Y-82211437D01*
X78708496Y-82188531D01*
X78717551Y-82178279D01*
X78718365Y-82177316D01*
X78718375Y-82177307D01*
X78729576Y-82161616D01*
X78732572Y-82157597D01*
X78762517Y-82119126D01*
X78762519Y-82119118D01*
X78766013Y-82112661D01*
X78769235Y-82106070D01*
X78769239Y-82106066D01*
X78783133Y-82059393D01*
X78784679Y-82054567D01*
X78800500Y-82008488D01*
X78800500Y-82008482D01*
X78801706Y-82001256D01*
X78802617Y-81993952D01*
X78800606Y-81945332D01*
X78800500Y-81940207D01*
X78800500Y-81395544D01*
X78820185Y-81328505D01*
X78872989Y-81282750D01*
X78942147Y-81272806D01*
X79005703Y-81301831D01*
X79012181Y-81307863D01*
X79813181Y-82108863D01*
X79846666Y-82170186D01*
X79849500Y-82196544D01*
X79849500Y-82750788D01*
X79846861Y-82776232D01*
X79844957Y-82785311D01*
X79844957Y-82785316D01*
X79848548Y-82814121D01*
X79849396Y-82827795D01*
X79849499Y-82829032D01*
X79849500Y-82829037D01*
X79849500Y-82829040D01*
X79851718Y-82842335D01*
X79852666Y-82848015D01*
X79853403Y-82853077D01*
X79859426Y-82901390D01*
X79861524Y-82908435D01*
X79863907Y-82915379D01*
X79863908Y-82915381D01*
X79880270Y-82945616D01*
X79887082Y-82958203D01*
X79889421Y-82962747D01*
X79910802Y-83006484D01*
X79910804Y-83006486D01*
X79910805Y-83006488D01*
X79915062Y-83012451D01*
X79919583Y-83018259D01*
X79955398Y-83051230D01*
X79959096Y-83054778D01*
X81717362Y-84813044D01*
X81733489Y-84832902D01*
X81738563Y-84840669D01*
X81738565Y-84840671D01*
X81761466Y-84858495D01*
X81771728Y-84867559D01*
X81772691Y-84868374D01*
X81788347Y-84879552D01*
X81792457Y-84882616D01*
X81830874Y-84912517D01*
X81837340Y-84916015D01*
X81843930Y-84919237D01*
X81843933Y-84919239D01*
X81890588Y-84933129D01*
X81895439Y-84934682D01*
X81941512Y-84950500D01*
X81941516Y-84950500D01*
X81948732Y-84951705D01*
X81956044Y-84952616D01*
X81956046Y-84952617D01*
X81956047Y-84952616D01*
X81956048Y-84952617D01*
X82004668Y-84950606D01*
X82009793Y-84950500D01*
X82113908Y-84950500D01*
X82180947Y-84970185D01*
X82200412Y-84988086D01*
X82201628Y-84986871D01*
X82207372Y-84992615D01*
X82207377Y-84992619D01*
X82207379Y-84992621D01*
X82322375Y-85080861D01*
X82456291Y-85136330D01*
X82583280Y-85153048D01*
X82599999Y-85155250D01*
X82600000Y-85155250D01*
X82600001Y-85155250D01*
X82614977Y-85153278D01*
X82743709Y-85136330D01*
X82877625Y-85080861D01*
X82992621Y-84992621D01*
X83080861Y-84877625D01*
X83136330Y-84743709D01*
X83155250Y-84600000D01*
X83154940Y-84597649D01*
X83149046Y-84552879D01*
X83136330Y-84456291D01*
X83080861Y-84322375D01*
X82992621Y-84207379D01*
X82877625Y-84119139D01*
X82877624Y-84119138D01*
X82877622Y-84119137D01*
X82743712Y-84063671D01*
X82743710Y-84063670D01*
X82743709Y-84063670D01*
X82671854Y-84054210D01*
X82600001Y-84044750D01*
X82599999Y-84044750D01*
X82456291Y-84063670D01*
X82456287Y-84063671D01*
X82322376Y-84119138D01*
X82322374Y-84119139D01*
X82234625Y-84186471D01*
X82169455Y-84211665D01*
X82101011Y-84197626D01*
X82071458Y-84175776D01*
X80586819Y-82691137D01*
X80553334Y-82629814D01*
X80550500Y-82603456D01*
X80550500Y-82345544D01*
X80570185Y-82278505D01*
X80622989Y-82232750D01*
X80692147Y-82222806D01*
X80755703Y-82251831D01*
X80762181Y-82257863D01*
X81717362Y-83213044D01*
X81733489Y-83232902D01*
X81738563Y-83240669D01*
X81761469Y-83258497D01*
X81771750Y-83267577D01*
X81772684Y-83268368D01*
X81772690Y-83268372D01*
X81772693Y-83268375D01*
X81788388Y-83279580D01*
X81792422Y-83282588D01*
X81830847Y-83312496D01*
X81830877Y-83312519D01*
X81837308Y-83315999D01*
X81843931Y-83319237D01*
X81843934Y-83319239D01*
X81890626Y-83333139D01*
X81895438Y-83334681D01*
X81941512Y-83350500D01*
X81941515Y-83350500D01*
X81948751Y-83351707D01*
X81956044Y-83352616D01*
X81956046Y-83352617D01*
X81956047Y-83352616D01*
X81956048Y-83352617D01*
X82004668Y-83350606D01*
X82009793Y-83350500D01*
X84950789Y-83350500D01*
X84976234Y-83353138D01*
X84985315Y-83355043D01*
X85010673Y-83351881D01*
X85014123Y-83351452D01*
X85027764Y-83350605D01*
X85029026Y-83350500D01*
X85029040Y-83350500D01*
X85037071Y-83349159D01*
X85048014Y-83347334D01*
X85053063Y-83346597D01*
X85101393Y-83340573D01*
X85101399Y-83340569D01*
X85108456Y-83338468D01*
X85115377Y-83336092D01*
X85115381Y-83336092D01*
X85158216Y-83312909D01*
X85162729Y-83310586D01*
X85206484Y-83289198D01*
X85206486Y-83289195D01*
X85212461Y-83284929D01*
X85218256Y-83280419D01*
X85218255Y-83280419D01*
X85218258Y-83280418D01*
X85251254Y-83244572D01*
X85254756Y-83240924D01*
X86168863Y-82326819D01*
X86230186Y-82293334D01*
X86256544Y-82290500D01*
X87668365Y-82290500D01*
X87735404Y-82310185D01*
X87779365Y-82359228D01*
X87860327Y-82521821D01*
X87983237Y-82684581D01*
X88133958Y-82821980D01*
X88133960Y-82821982D01*
X88192918Y-82858487D01*
X88307363Y-82929348D01*
X88497544Y-83003024D01*
X88698024Y-83040500D01*
X88698026Y-83040500D01*
X88901974Y-83040500D01*
X88901976Y-83040500D01*
X89102456Y-83003024D01*
X89292637Y-82929348D01*
X89466041Y-82821981D01*
X89616764Y-82684579D01*
X89739673Y-82521821D01*
X89830582Y-82339250D01*
X89886397Y-82143083D01*
X89905215Y-81940000D01*
X89901379Y-81898607D01*
X89886397Y-81736917D01*
X89873656Y-81692137D01*
X89830582Y-81540750D01*
X89820634Y-81520772D01*
X89784972Y-81449152D01*
X89739673Y-81358179D01*
X89651575Y-81241518D01*
X89616762Y-81195418D01*
X89466041Y-81058019D01*
X89466039Y-81058017D01*
X89292642Y-80950655D01*
X89292635Y-80950651D01*
X89177141Y-80905909D01*
X89102456Y-80876976D01*
X88901976Y-80839500D01*
X88698024Y-80839500D01*
X88497544Y-80876976D01*
X88497541Y-80876976D01*
X88497541Y-80876977D01*
X88307364Y-80950651D01*
X88307357Y-80950655D01*
X88133960Y-81058017D01*
X88133958Y-81058019D01*
X87983237Y-81195418D01*
X87860327Y-81358178D01*
X87779365Y-81520772D01*
X87731862Y-81572009D01*
X87668365Y-81589500D01*
X86109206Y-81589500D01*
X86083761Y-81586861D01*
X86083016Y-81586704D01*
X86074685Y-81584958D01*
X86074684Y-81584958D01*
X86045884Y-81588548D01*
X86032181Y-81589398D01*
X86030962Y-81589499D01*
X86011990Y-81592665D01*
X86006923Y-81593403D01*
X85958605Y-81599426D01*
X85951584Y-81601516D01*
X85944617Y-81603908D01*
X85901812Y-81627072D01*
X85897261Y-81629415D01*
X85853513Y-81650803D01*
X85847566Y-81655047D01*
X85841738Y-81659584D01*
X85808780Y-81695386D01*
X85805233Y-81699083D01*
X84891137Y-82613181D01*
X84829814Y-82646666D01*
X84803456Y-82649500D01*
X84504221Y-82649500D01*
X84437182Y-82629815D01*
X84391427Y-82577011D01*
X84381483Y-82507853D01*
X84398682Y-82460403D01*
X84461545Y-82358486D01*
X84461547Y-82358481D01*
X84514855Y-82197606D01*
X84524999Y-82098322D01*
X84525000Y-82098309D01*
X84525000Y-82050000D01*
X83449000Y-82050000D01*
X83381961Y-82030315D01*
X83336206Y-81977511D01*
X83325000Y-81926000D01*
X83325000Y-80825000D01*
X83825000Y-80825000D01*
X83825000Y-81550000D01*
X84524999Y-81550000D01*
X84524999Y-81501692D01*
X84524998Y-81501677D01*
X84514855Y-81402392D01*
X84461547Y-81241518D01*
X84461542Y-81241507D01*
X84372575Y-81097271D01*
X84372572Y-81097267D01*
X84252732Y-80977427D01*
X84252728Y-80977424D01*
X84108492Y-80888457D01*
X84108481Y-80888452D01*
X83947606Y-80835144D01*
X83848322Y-80825000D01*
X83825000Y-80825000D01*
X83325000Y-80825000D01*
X83325000Y-80824999D01*
X83301693Y-80825000D01*
X83301674Y-80825001D01*
X83202392Y-80835144D01*
X83041518Y-80888452D01*
X83041507Y-80888457D01*
X82897271Y-80977424D01*
X82897267Y-80977427D01*
X82777424Y-81097270D01*
X82741649Y-81155270D01*
X82689701Y-81201993D01*
X82620738Y-81213214D01*
X82561802Y-81189438D01*
X82480228Y-81128373D01*
X82480228Y-81128372D01*
X82381165Y-81091423D01*
X82325232Y-81049551D01*
X82300816Y-80984087D01*
X82300500Y-80975242D01*
X82300500Y-80831876D01*
X82312118Y-80779471D01*
X82313372Y-80776781D01*
X82344259Y-80710545D01*
X82350500Y-80663139D01*
X82350499Y-79261862D01*
X82344259Y-79214455D01*
X82312118Y-79145528D01*
X82300500Y-79093123D01*
X82300500Y-78985188D01*
X82320185Y-78918149D01*
X82372989Y-78872394D01*
X82442147Y-78862450D01*
X82501510Y-78889560D01*
X82501535Y-78889525D01*
X82501726Y-78889658D01*
X82505703Y-78891475D01*
X82509896Y-78895380D01*
X82510419Y-78895745D01*
X82510421Y-78895747D01*
X82614455Y-78944259D01*
X82661861Y-78950500D01*
X84063138Y-78950499D01*
X84110545Y-78944259D01*
X84179471Y-78912117D01*
X84231876Y-78900500D01*
X87633739Y-78900500D01*
X87700778Y-78920185D01*
X87746533Y-78972989D01*
X87756477Y-79042147D01*
X87753005Y-79058434D01*
X87713603Y-79196915D01*
X87713602Y-79196917D01*
X87694785Y-79399999D01*
X87694785Y-79400000D01*
X87713602Y-79603082D01*
X87769417Y-79799247D01*
X87769422Y-79799260D01*
X87860327Y-79981821D01*
X87983237Y-80144581D01*
X88133958Y-80281980D01*
X88133960Y-80281982D01*
X88177672Y-80309047D01*
X88307363Y-80389348D01*
X88497544Y-80463024D01*
X88698024Y-80500500D01*
X88698026Y-80500500D01*
X88901974Y-80500500D01*
X88901976Y-80500500D01*
X89102456Y-80463024D01*
X89292637Y-80389348D01*
X89466041Y-80281981D01*
X89616764Y-80144579D01*
X89739673Y-79981821D01*
X89830582Y-79799250D01*
X89886397Y-79603083D01*
X89905215Y-79400000D01*
X89894762Y-79287197D01*
X89886397Y-79196917D01*
X89882435Y-79182993D01*
X89830582Y-79000750D01*
X89820619Y-78980742D01*
X89778297Y-78895747D01*
X89739673Y-78818179D01*
X89650359Y-78699908D01*
X89616762Y-78655418D01*
X89466041Y-78518019D01*
X89466039Y-78518017D01*
X89292642Y-78410655D01*
X89292635Y-78410651D01*
X89211715Y-78379303D01*
X89156313Y-78336730D01*
X89132723Y-78270963D01*
X89148434Y-78202883D01*
X89198458Y-78154104D01*
X89224417Y-78143901D01*
X89263481Y-78133434D01*
X89263492Y-78133429D01*
X89477578Y-78033600D01*
X89671082Y-77898105D01*
X89838105Y-77731082D01*
X89973600Y-77537578D01*
X90073429Y-77323492D01*
X90073432Y-77323486D01*
X90130636Y-77110000D01*
X89233686Y-77110000D01*
X89259493Y-77069844D01*
X89300000Y-76931889D01*
X89300000Y-76788111D01*
X89259493Y-76650156D01*
X89233686Y-76610000D01*
X90130636Y-76610000D01*
X90130635Y-76609999D01*
X90073432Y-76396513D01*
X90073429Y-76396507D01*
X89973600Y-76182422D01*
X89973599Y-76182420D01*
X89838113Y-75988926D01*
X89838108Y-75988920D01*
X89671082Y-75821894D01*
X89477578Y-75686399D01*
X89263492Y-75586570D01*
X89263486Y-75586567D01*
X89050000Y-75529364D01*
X89050000Y-76424498D01*
X88942315Y-76375320D01*
X88835763Y-76360000D01*
X88764237Y-76360000D01*
X88657685Y-76375320D01*
X88550000Y-76424498D01*
X88550000Y-75529364D01*
X88549999Y-75529364D01*
X88336513Y-75586567D01*
X88336507Y-75586570D01*
X88122422Y-75686399D01*
X88122420Y-75686400D01*
X87928926Y-75821886D01*
X87928920Y-75821891D01*
X87761891Y-75988920D01*
X87761886Y-75988926D01*
X87626400Y-76182420D01*
X87626399Y-76182422D01*
X87526570Y-76396507D01*
X87526567Y-76396513D01*
X87469364Y-76609999D01*
X87469364Y-76610000D01*
X88366314Y-76610000D01*
X88340507Y-76650156D01*
X88300000Y-76788111D01*
X88300000Y-76931889D01*
X88340507Y-77069844D01*
X88366314Y-77110000D01*
X87469364Y-77110000D01*
X87526567Y-77323486D01*
X87526570Y-77323492D01*
X87626399Y-77537578D01*
X87761894Y-77731082D01*
X87928917Y-77898105D01*
X88035754Y-77972914D01*
X88079379Y-78027492D01*
X88086571Y-78096990D01*
X88055049Y-78159345D01*
X87994819Y-78194758D01*
X87969759Y-78198383D01*
X87950122Y-78199195D01*
X87945327Y-78199394D01*
X87940207Y-78199500D01*
X84474500Y-78199500D01*
X84407461Y-78179815D01*
X84361706Y-78127011D01*
X84350500Y-78075501D01*
X84350499Y-77936867D01*
X84350499Y-77936862D01*
X84344259Y-77889455D01*
X84339462Y-77879169D01*
X84326982Y-77852404D01*
X84316490Y-77783326D01*
X84326980Y-77747599D01*
X84344259Y-77710545D01*
X84350500Y-77663139D01*
X84350499Y-77436862D01*
X84344259Y-77389455D01*
X84326982Y-77352404D01*
X84316490Y-77283326D01*
X84326980Y-77247599D01*
X84344259Y-77210545D01*
X84350500Y-77163139D01*
X84350499Y-76936862D01*
X84344259Y-76889455D01*
X84339462Y-76879169D01*
X84326982Y-76852404D01*
X84316490Y-76783326D01*
X84326980Y-76747599D01*
X84344259Y-76710545D01*
X84350500Y-76663139D01*
X84350499Y-76436862D01*
X84344259Y-76389455D01*
X84326982Y-76352404D01*
X84316490Y-76283326D01*
X84326980Y-76247599D01*
X84344259Y-76210545D01*
X84350500Y-76163139D01*
X84350499Y-75936862D01*
X84344259Y-75889455D01*
X84336727Y-75873302D01*
X84326982Y-75852404D01*
X84316490Y-75783326D01*
X84326980Y-75747599D01*
X84344259Y-75710545D01*
X84350500Y-75663139D01*
X84350499Y-75661174D01*
X84350665Y-75660611D01*
X84350765Y-75659088D01*
X84351105Y-75659110D01*
X84370172Y-75594135D01*
X84399015Y-75562780D01*
X84435094Y-75535096D01*
X84504274Y-75444938D01*
X84560701Y-75403735D01*
X84630447Y-75399580D01*
X84691368Y-75433792D01*
X84717210Y-75472969D01*
X84719137Y-75477622D01*
X84719138Y-75477624D01*
X84719139Y-75477625D01*
X84807379Y-75592621D01*
X84922375Y-75680861D01*
X84922376Y-75680861D01*
X84922377Y-75680862D01*
X84967013Y-75699350D01*
X85056291Y-75736330D01*
X85183280Y-75753048D01*
X85199999Y-75755250D01*
X85200000Y-75755250D01*
X85200001Y-75755250D01*
X85214977Y-75753278D01*
X85343709Y-75736330D01*
X85477625Y-75680861D01*
X85592621Y-75592621D01*
X85680861Y-75477625D01*
X85736330Y-75343709D01*
X85755250Y-75200000D01*
X85736330Y-75056291D01*
X85687174Y-74937616D01*
X85680862Y-74922377D01*
X85680861Y-74922376D01*
X85680861Y-74922375D01*
X85592621Y-74807379D01*
X85477625Y-74719139D01*
X85477624Y-74719138D01*
X85477622Y-74719137D01*
X85343712Y-74663671D01*
X85343710Y-74663670D01*
X85343709Y-74663670D01*
X85311085Y-74659374D01*
X85210040Y-74646071D01*
X85146143Y-74617804D01*
X85107673Y-74559479D01*
X85106842Y-74489614D01*
X85143915Y-74430391D01*
X85150709Y-74424780D01*
X85192621Y-74392621D01*
X85238674Y-74332603D01*
X85295100Y-74291403D01*
X85364846Y-74287248D01*
X85424729Y-74320411D01*
X85517362Y-74413044D01*
X85533486Y-74432899D01*
X85536075Y-74436861D01*
X85538563Y-74440669D01*
X85538565Y-74440671D01*
X85561466Y-74458495D01*
X85571728Y-74467559D01*
X85572691Y-74468374D01*
X85588347Y-74479552D01*
X85592457Y-74482616D01*
X85630874Y-74512517D01*
X85637340Y-74516015D01*
X85643930Y-74519237D01*
X85643933Y-74519239D01*
X85690588Y-74533129D01*
X85695439Y-74534682D01*
X85741512Y-74550500D01*
X85741516Y-74550500D01*
X85748732Y-74551705D01*
X85756044Y-74552616D01*
X85756046Y-74552617D01*
X85756047Y-74552616D01*
X85756048Y-74552617D01*
X85804668Y-74550606D01*
X85809793Y-74550500D01*
X90828456Y-74550500D01*
X90895495Y-74570185D01*
X90916137Y-74586819D01*
X92850681Y-76521362D01*
X92884166Y-76582685D01*
X92887000Y-76609043D01*
X92887000Y-77335370D01*
X92887001Y-77335376D01*
X92893408Y-77394983D01*
X92943702Y-77529828D01*
X92943706Y-77529835D01*
X93029952Y-77645044D01*
X93029955Y-77645047D01*
X93145164Y-77731293D01*
X93145173Y-77731298D01*
X93210988Y-77755845D01*
X93268832Y-77777419D01*
X93324766Y-77819289D01*
X93349184Y-77884753D01*
X93349500Y-77893601D01*
X93349500Y-78380374D01*
X93349077Y-78390612D01*
X93345868Y-78429345D01*
X93346029Y-78431303D01*
X93349500Y-78459143D01*
X93349500Y-78995245D01*
X93329815Y-79062284D01*
X93313181Y-79082926D01*
X93221954Y-79174152D01*
X93221951Y-79174157D01*
X93221950Y-79174158D01*
X93211785Y-79194108D01*
X93164352Y-79287198D01*
X93149500Y-79380975D01*
X93149500Y-80469017D01*
X93156066Y-80510473D01*
X93164354Y-80562804D01*
X93221950Y-80675842D01*
X93221952Y-80675844D01*
X93221954Y-80675847D01*
X93311652Y-80765545D01*
X93311654Y-80765546D01*
X93311658Y-80765550D01*
X93423575Y-80822575D01*
X93424698Y-80823147D01*
X93518475Y-80837999D01*
X93518481Y-80838000D01*
X93604457Y-80837999D01*
X93671494Y-80857683D01*
X93717250Y-80910486D01*
X93727194Y-80979645D01*
X93698170Y-81043201D01*
X93692137Y-81049680D01*
X93486955Y-81254862D01*
X93467106Y-81270983D01*
X93459330Y-81276064D01*
X93452041Y-81282774D01*
X93424357Y-81302026D01*
X93311659Y-81359449D01*
X93311652Y-81359454D01*
X93221954Y-81449152D01*
X93221951Y-81449157D01*
X93221950Y-81449158D01*
X93202860Y-81486625D01*
X93164352Y-81562198D01*
X93149500Y-81655975D01*
X93149500Y-82744017D01*
X93156041Y-82785315D01*
X93164354Y-82837804D01*
X93221950Y-82950842D01*
X93221951Y-82950843D01*
X93221953Y-82950846D01*
X93250680Y-82979572D01*
X93284166Y-83040894D01*
X93287000Y-83067254D01*
X93287000Y-84615716D01*
X93267315Y-84682755D01*
X93214511Y-84728510D01*
X93206335Y-84731897D01*
X93182276Y-84740870D01*
X93182273Y-84740872D01*
X93072813Y-84822813D01*
X92990873Y-84932271D01*
X92943087Y-85060389D01*
X92937000Y-85116998D01*
X92937000Y-85707981D01*
X92937001Y-85707990D01*
X92943087Y-85764614D01*
X92990872Y-85892726D01*
X93072813Y-86002187D01*
X93182274Y-86084128D01*
X93310386Y-86131912D01*
X93367015Y-86138000D01*
X93907984Y-86137999D01*
X93964614Y-86131912D01*
X94092726Y-86084128D01*
X94174304Y-86023059D01*
X94239764Y-85998643D01*
X94308038Y-86013494D01*
X94354150Y-86057230D01*
X94389924Y-86115228D01*
X94389927Y-86115232D01*
X94509767Y-86235072D01*
X94509771Y-86235075D01*
X94654007Y-86324042D01*
X94654018Y-86324047D01*
X94814893Y-86377355D01*
X94914183Y-86387499D01*
X94937500Y-86387498D01*
X94937500Y-85662500D01*
X95437500Y-85662500D01*
X95437500Y-86387499D01*
X95460808Y-86387499D01*
X95460822Y-86387498D01*
X95560107Y-86377355D01*
X95720981Y-86324047D01*
X95720992Y-86324042D01*
X95865228Y-86235075D01*
X95865232Y-86235072D01*
X95985072Y-86115232D01*
X95985075Y-86115228D01*
X96074042Y-85970992D01*
X96074047Y-85970981D01*
X96127355Y-85810106D01*
X96137499Y-85710822D01*
X96137500Y-85710809D01*
X96137500Y-85662500D01*
X95437500Y-85662500D01*
X94937500Y-85662500D01*
X94937500Y-84437499D01*
X94914193Y-84437500D01*
X94914174Y-84437501D01*
X94814892Y-84447644D01*
X94654018Y-84500952D01*
X94654007Y-84500957D01*
X94509771Y-84589924D01*
X94509767Y-84589927D01*
X94389924Y-84709770D01*
X94354149Y-84767770D01*
X94302201Y-84814493D01*
X94233238Y-84825714D01*
X94174302Y-84801938D01*
X94092730Y-84740874D01*
X94092723Y-84740870D01*
X94068665Y-84731897D01*
X94012732Y-84690025D01*
X93988316Y-84624560D01*
X93988000Y-84615716D01*
X93988000Y-83382261D01*
X94007685Y-83315222D01*
X94060489Y-83269467D01*
X94129647Y-83259523D01*
X94175122Y-83275529D01*
X94239803Y-83313782D01*
X94397514Y-83359600D01*
X94397511Y-83359600D01*
X94399998Y-83359795D01*
X94400000Y-83359795D01*
X94400000Y-82074000D01*
X94419685Y-82006961D01*
X94472489Y-81961206D01*
X94524000Y-81950000D01*
X94776000Y-81950000D01*
X94843039Y-81969685D01*
X94888794Y-82022489D01*
X94900000Y-82074000D01*
X94900000Y-83359795D01*
X94900001Y-83359795D01*
X94902486Y-83359600D01*
X95060197Y-83313781D01*
X95062371Y-83312496D01*
X95064301Y-83312005D01*
X95067354Y-83310685D01*
X95067567Y-83311177D01*
X95130093Y-83295308D01*
X95196358Y-83317462D01*
X95240125Y-83371925D01*
X95249500Y-83419223D01*
X95249500Y-83550788D01*
X95246861Y-83576232D01*
X95244957Y-83585311D01*
X95244957Y-83585316D01*
X95248548Y-83614121D01*
X95249396Y-83627795D01*
X95249499Y-83629032D01*
X95252666Y-83648015D01*
X95253403Y-83653077D01*
X95259426Y-83701390D01*
X95261524Y-83708435D01*
X95263907Y-83715379D01*
X95263908Y-83715381D01*
X95280270Y-83745616D01*
X95287082Y-83758203D01*
X95289421Y-83762747D01*
X95310802Y-83806484D01*
X95310804Y-83806486D01*
X95310805Y-83806488D01*
X95315062Y-83812451D01*
X95319583Y-83818259D01*
X95355398Y-83851230D01*
X95359096Y-83854778D01*
X95408440Y-83904122D01*
X95441925Y-83965445D01*
X95443067Y-83991873D01*
X95444750Y-83991873D01*
X95444750Y-83999999D01*
X95444750Y-84000000D01*
X95453132Y-84063670D01*
X95463670Y-84143708D01*
X95463671Y-84143712D01*
X95514343Y-84266048D01*
X95521812Y-84335518D01*
X95490536Y-84397997D01*
X95457259Y-84417740D01*
X95437500Y-84437500D01*
X95437500Y-85162500D01*
X96137499Y-85162500D01*
X96137499Y-85114192D01*
X96137498Y-85114177D01*
X96127355Y-85014892D01*
X96074047Y-84854018D01*
X96074042Y-84854007D01*
X95998605Y-84731705D01*
X95980164Y-84664313D01*
X96001086Y-84597649D01*
X96054728Y-84552879D01*
X96087953Y-84543670D01*
X96143709Y-84536330D01*
X96277625Y-84480861D01*
X96392621Y-84392621D01*
X96480861Y-84277625D01*
X96536330Y-84143709D01*
X96555250Y-84000000D01*
X96555250Y-83999999D01*
X96555250Y-83991871D01*
X96559049Y-83991871D01*
X96566388Y-83940418D01*
X96591556Y-83904124D01*
X97108863Y-83386819D01*
X97170186Y-83353334D01*
X97196544Y-83350500D01*
X99550789Y-83350500D01*
X99576234Y-83353138D01*
X99585315Y-83355043D01*
X99610673Y-83351881D01*
X99614123Y-83351452D01*
X99627764Y-83350605D01*
X99629026Y-83350500D01*
X99629040Y-83350500D01*
X99637071Y-83349159D01*
X99648014Y-83347334D01*
X99653063Y-83346597D01*
X99701393Y-83340573D01*
X99701399Y-83340569D01*
X99708456Y-83338468D01*
X99715377Y-83336092D01*
X99715381Y-83336092D01*
X99758216Y-83312909D01*
X99762729Y-83310586D01*
X99806484Y-83289198D01*
X99806486Y-83289195D01*
X99812461Y-83284929D01*
X99818256Y-83280419D01*
X99818255Y-83280419D01*
X99818258Y-83280418D01*
X99851254Y-83244572D01*
X99854756Y-83240924D01*
X100013046Y-83082634D01*
X100032902Y-83066511D01*
X100040669Y-83061437D01*
X100058496Y-83038531D01*
X100067545Y-83028285D01*
X100068362Y-83027319D01*
X100068376Y-83027306D01*
X100079570Y-83011626D01*
X100082615Y-83007543D01*
X100083437Y-83006488D01*
X100112517Y-82969126D01*
X100112518Y-82969121D01*
X100116017Y-82962655D01*
X100119236Y-82956070D01*
X100119240Y-82956066D01*
X100133138Y-82909382D01*
X100134674Y-82904583D01*
X100150500Y-82858488D01*
X100150500Y-82858481D01*
X100151706Y-82851254D01*
X100152617Y-82843951D01*
X100150606Y-82795321D01*
X100150500Y-82790197D01*
X100150500Y-81236625D01*
X110439364Y-81236625D01*
X110496567Y-81450111D01*
X110496570Y-81450117D01*
X110596399Y-81664202D01*
X110596400Y-81664204D01*
X110731886Y-81857698D01*
X110731891Y-81857704D01*
X110898920Y-82024733D01*
X110898926Y-82024738D01*
X111092420Y-82160224D01*
X111092422Y-82160225D01*
X111306507Y-82260054D01*
X111306516Y-82260058D01*
X111534673Y-82321192D01*
X111534684Y-82321194D01*
X111669999Y-82333032D01*
X111670000Y-82333032D01*
X111670000Y-81422126D01*
X111777685Y-81471305D01*
X111884237Y-81486625D01*
X111955763Y-81486625D01*
X112062315Y-81471305D01*
X112170000Y-81422126D01*
X112170000Y-82333032D01*
X112305315Y-82321194D01*
X112305326Y-82321192D01*
X112533483Y-82260058D01*
X112533492Y-82260054D01*
X112747577Y-82160225D01*
X112747579Y-82160224D01*
X112941073Y-82024738D01*
X112941079Y-82024733D01*
X113108105Y-81857707D01*
X113243600Y-81664203D01*
X113343429Y-81450117D01*
X113343432Y-81450111D01*
X113400636Y-81236625D01*
X112353686Y-81236625D01*
X112379493Y-81196469D01*
X112420000Y-81058514D01*
X112420000Y-80914736D01*
X112379493Y-80776781D01*
X112353686Y-80736625D01*
X113400636Y-80736625D01*
X113400635Y-80736624D01*
X113343432Y-80523138D01*
X113343429Y-80523132D01*
X113243600Y-80309047D01*
X113243599Y-80309045D01*
X113108113Y-80115551D01*
X113108108Y-80115545D01*
X112941079Y-79948516D01*
X112941073Y-79948511D01*
X112747579Y-79813025D01*
X112742888Y-79810317D01*
X112743923Y-79808523D01*
X112698237Y-79768307D01*
X112679077Y-79701116D01*
X112699284Y-79634232D01*
X112752444Y-79588891D01*
X112774560Y-79581407D01*
X112777479Y-79580716D01*
X112777483Y-79580716D01*
X112912331Y-79530421D01*
X113027546Y-79444171D01*
X113113796Y-79328956D01*
X113164091Y-79194108D01*
X113170500Y-79134498D01*
X113170499Y-77838753D01*
X113164091Y-77779142D01*
X113163448Y-77777419D01*
X113113797Y-77644296D01*
X113113793Y-77644289D01*
X113027547Y-77529080D01*
X113027544Y-77529077D01*
X112912335Y-77442831D01*
X112912328Y-77442827D01*
X112777482Y-77392533D01*
X112777483Y-77392533D01*
X112717883Y-77386126D01*
X112717881Y-77386125D01*
X112717873Y-77386125D01*
X112717864Y-77386125D01*
X111122129Y-77386125D01*
X111122123Y-77386126D01*
X111062516Y-77392533D01*
X110927671Y-77442827D01*
X110927664Y-77442831D01*
X110812455Y-77529077D01*
X110812452Y-77529080D01*
X110726206Y-77644289D01*
X110726202Y-77644296D01*
X110675908Y-77779142D01*
X110669600Y-77837819D01*
X110669501Y-77838748D01*
X110669500Y-77838760D01*
X110669500Y-79134495D01*
X110669501Y-79134501D01*
X110675908Y-79194108D01*
X110726202Y-79328953D01*
X110726206Y-79328960D01*
X110812452Y-79444169D01*
X110812455Y-79444172D01*
X110927664Y-79530418D01*
X110927671Y-79530422D01*
X110952837Y-79539808D01*
X111062517Y-79580716D01*
X111062525Y-79580716D01*
X111065431Y-79581404D01*
X111067463Y-79582561D01*
X111069785Y-79583427D01*
X111069644Y-79583802D01*
X111126150Y-79615972D01*
X111158541Y-79677880D01*
X111152320Y-79747472D01*
X111109463Y-79802654D01*
X111096934Y-79810008D01*
X111097112Y-79810317D01*
X111092420Y-79813025D01*
X110898926Y-79948511D01*
X110898920Y-79948516D01*
X110731894Y-80115542D01*
X110596399Y-80309046D01*
X110496570Y-80523132D01*
X110496567Y-80523138D01*
X110439364Y-80736624D01*
X110439364Y-80736625D01*
X111486314Y-80736625D01*
X111460507Y-80776781D01*
X111420000Y-80914736D01*
X111420000Y-81058514D01*
X111460507Y-81196469D01*
X111486314Y-81236625D01*
X110439364Y-81236625D01*
X100150500Y-81236625D01*
X100150500Y-80290142D01*
X102507000Y-80290142D01*
X102507001Y-80290151D01*
X102513328Y-80349016D01*
X102549120Y-80444975D01*
X102562997Y-80482179D01*
X102648169Y-80595956D01*
X102728148Y-80655827D01*
X102755405Y-80676232D01*
X102761946Y-80681128D01*
X102895109Y-80730796D01*
X102953979Y-80737125D01*
X103536020Y-80737124D01*
X103594891Y-80730796D01*
X103728054Y-80681128D01*
X103841831Y-80595956D01*
X103927003Y-80482179D01*
X103976671Y-80349016D01*
X103980968Y-80309046D01*
X103982999Y-80290162D01*
X103982999Y-80290151D01*
X103983000Y-80290146D01*
X103982999Y-79533167D01*
X104002683Y-79466129D01*
X104019313Y-79445492D01*
X104170321Y-79294484D01*
X104231642Y-79261001D01*
X104301334Y-79265985D01*
X104357267Y-79307857D01*
X104381684Y-79373321D01*
X104382000Y-79382167D01*
X104382000Y-80290142D01*
X104382001Y-80290151D01*
X104388328Y-80349016D01*
X104424120Y-80444975D01*
X104437997Y-80482179D01*
X104523169Y-80595956D01*
X104603148Y-80655827D01*
X104630405Y-80676232D01*
X104636946Y-80681128D01*
X104770109Y-80730796D01*
X104828979Y-80737125D01*
X105411020Y-80737124D01*
X105469891Y-80730796D01*
X105603054Y-80681128D01*
X105716831Y-80595956D01*
X105802003Y-80482179D01*
X105851671Y-80349016D01*
X105857242Y-80297199D01*
X105857999Y-80290161D01*
X105857999Y-80290151D01*
X105858000Y-80290146D01*
X105857999Y-80248776D01*
X105877682Y-80181739D01*
X105930485Y-80135983D01*
X105998183Y-80125837D01*
X106075247Y-80135983D01*
X106119999Y-80141875D01*
X106120000Y-80141875D01*
X106120001Y-80141875D01*
X106134977Y-80139903D01*
X106263709Y-80122955D01*
X106397625Y-80067486D01*
X106512621Y-79979246D01*
X106600861Y-79864250D01*
X106656330Y-79730334D01*
X106675250Y-79586625D01*
X106656330Y-79442916D01*
X106619350Y-79353638D01*
X106600862Y-79309002D01*
X106600861Y-79309001D01*
X106600861Y-79309000D01*
X106512621Y-79194004D01*
X106397625Y-79105764D01*
X106397624Y-79105763D01*
X106397622Y-79105762D01*
X106263712Y-79050296D01*
X106263710Y-79050295D01*
X106263709Y-79050295D01*
X106148628Y-79035144D01*
X106120001Y-79031375D01*
X106119999Y-79031375D01*
X105976291Y-79050295D01*
X105976287Y-79050296D01*
X105908947Y-79078189D01*
X105839477Y-79085658D01*
X105776998Y-79054382D01*
X105762228Y-79037938D01*
X105760136Y-79035144D01*
X105730269Y-78995245D01*
X105716832Y-78977295D01*
X105713257Y-78974619D01*
X105640542Y-78920185D01*
X105603056Y-78892123D01*
X105603054Y-78892122D01*
X105469891Y-78842454D01*
X105469889Y-78842453D01*
X105469887Y-78842453D01*
X105411037Y-78836125D01*
X105143141Y-78836125D01*
X105076102Y-78816440D01*
X105030347Y-78763636D01*
X105020403Y-78694478D01*
X105049428Y-78630922D01*
X105067650Y-78613753D01*
X105112621Y-78579246D01*
X105200861Y-78464250D01*
X105256330Y-78330334D01*
X105275250Y-78186625D01*
X105274353Y-78179815D01*
X105268246Y-78133429D01*
X105256330Y-78042916D01*
X105212401Y-77936861D01*
X105200862Y-77909002D01*
X105200861Y-77909001D01*
X105200861Y-77909000D01*
X105112621Y-77794004D01*
X104997625Y-77705764D01*
X104997624Y-77705763D01*
X104997622Y-77705762D01*
X104863712Y-77650296D01*
X104863710Y-77650295D01*
X104863709Y-77650295D01*
X104778403Y-77639064D01*
X104720001Y-77631375D01*
X104719999Y-77631375D01*
X104576291Y-77650295D01*
X104576287Y-77650296D01*
X104442377Y-77705762D01*
X104327379Y-77794004D01*
X104239137Y-77909002D01*
X104183671Y-78042912D01*
X104183670Y-78042916D01*
X104164750Y-78186624D01*
X104164750Y-78186626D01*
X104170969Y-78233864D01*
X104160203Y-78302899D01*
X104135711Y-78337730D01*
X103669434Y-78804007D01*
X103608111Y-78837492D01*
X103568500Y-78839616D01*
X103536023Y-78836125D01*
X102953982Y-78836125D01*
X102953973Y-78836126D01*
X102895108Y-78842453D01*
X102761945Y-78892122D01*
X102648169Y-78977294D01*
X102562998Y-79091068D01*
X102562997Y-79091071D01*
X102516977Y-79214455D01*
X102513328Y-79224237D01*
X102507000Y-79283087D01*
X102507000Y-80290142D01*
X100150500Y-80290142D01*
X100150500Y-74449206D01*
X100153139Y-74423760D01*
X100153559Y-74421758D01*
X100155042Y-74414685D01*
X100151451Y-74385883D01*
X100150603Y-74372208D01*
X100150500Y-74370970D01*
X100150500Y-74370960D01*
X100147328Y-74351959D01*
X100146594Y-74346915D01*
X100140573Y-74298607D01*
X100140572Y-74298604D01*
X100138477Y-74291566D01*
X100136092Y-74284618D01*
X100112928Y-74241817D01*
X100110579Y-74237254D01*
X100089199Y-74193518D01*
X100084926Y-74187534D01*
X100080420Y-74181745D01*
X100080419Y-74181744D01*
X100080418Y-74181742D01*
X100044587Y-74148757D01*
X100040914Y-74145232D01*
X99586819Y-73691137D01*
X99553334Y-73629814D01*
X99550500Y-73603456D01*
X99550500Y-71030000D01*
X110439364Y-71030000D01*
X110496567Y-71243486D01*
X110496570Y-71243492D01*
X110596399Y-71457577D01*
X110596400Y-71457579D01*
X110731886Y-71651073D01*
X110731891Y-71651079D01*
X110898920Y-71818108D01*
X110898926Y-71818113D01*
X111092420Y-71953599D01*
X111092422Y-71953600D01*
X111306507Y-72053429D01*
X111306516Y-72053433D01*
X111534673Y-72114567D01*
X111534684Y-72114569D01*
X111669999Y-72126407D01*
X111670000Y-72126407D01*
X111670000Y-71215501D01*
X111777685Y-71264680D01*
X111884237Y-71280000D01*
X111955763Y-71280000D01*
X112062315Y-71264680D01*
X112170000Y-71215501D01*
X112170000Y-72126407D01*
X112305315Y-72114569D01*
X112305326Y-72114567D01*
X112533483Y-72053433D01*
X112533492Y-72053429D01*
X112747577Y-71953600D01*
X112747579Y-71953599D01*
X112941073Y-71818113D01*
X112941079Y-71818108D01*
X113108105Y-71651082D01*
X113243600Y-71457578D01*
X113343429Y-71243492D01*
X113343432Y-71243486D01*
X113400636Y-71030000D01*
X112353686Y-71030000D01*
X112379493Y-70989844D01*
X112420000Y-70851889D01*
X112420000Y-70708111D01*
X112379493Y-70570156D01*
X112353686Y-70530000D01*
X113400636Y-70530000D01*
X113400635Y-70529999D01*
X113343432Y-70316513D01*
X113343429Y-70316507D01*
X113243600Y-70102422D01*
X113243599Y-70102420D01*
X113108113Y-69908926D01*
X113108108Y-69908920D01*
X112941079Y-69741891D01*
X112941073Y-69741886D01*
X112747579Y-69606400D01*
X112742888Y-69603692D01*
X112743923Y-69601898D01*
X112698237Y-69561682D01*
X112679077Y-69494491D01*
X112699284Y-69427607D01*
X112752444Y-69382266D01*
X112774560Y-69374782D01*
X112777479Y-69374091D01*
X112777483Y-69374091D01*
X112912331Y-69323796D01*
X113027546Y-69237546D01*
X113113796Y-69122331D01*
X113164091Y-68987483D01*
X113170500Y-68927873D01*
X113170499Y-67632128D01*
X113164091Y-67572517D01*
X113154904Y-67547886D01*
X113113797Y-67437671D01*
X113113793Y-67437664D01*
X113027547Y-67322455D01*
X113027544Y-67322452D01*
X112912335Y-67236206D01*
X112912328Y-67236202D01*
X112777482Y-67185908D01*
X112777483Y-67185908D01*
X112717883Y-67179501D01*
X112717881Y-67179500D01*
X112717873Y-67179500D01*
X112717864Y-67179500D01*
X111122129Y-67179500D01*
X111122123Y-67179501D01*
X111062516Y-67185908D01*
X110927671Y-67236202D01*
X110927664Y-67236206D01*
X110812455Y-67322452D01*
X110812452Y-67322455D01*
X110726206Y-67437664D01*
X110726202Y-67437671D01*
X110675908Y-67572517D01*
X110672468Y-67604518D01*
X110669501Y-67632123D01*
X110669500Y-67632135D01*
X110669500Y-68927870D01*
X110669501Y-68927876D01*
X110675908Y-68987483D01*
X110726202Y-69122328D01*
X110726206Y-69122335D01*
X110812452Y-69237544D01*
X110812455Y-69237547D01*
X110927664Y-69323793D01*
X110927671Y-69323797D01*
X110971921Y-69340301D01*
X111062517Y-69374091D01*
X111062525Y-69374091D01*
X111065431Y-69374779D01*
X111067463Y-69375936D01*
X111069785Y-69376802D01*
X111069644Y-69377177D01*
X111126150Y-69409347D01*
X111158541Y-69471255D01*
X111152320Y-69540847D01*
X111109463Y-69596029D01*
X111096934Y-69603383D01*
X111097112Y-69603692D01*
X111092420Y-69606400D01*
X110898926Y-69741886D01*
X110898920Y-69741891D01*
X110731894Y-69908917D01*
X110596399Y-70102421D01*
X110496570Y-70316507D01*
X110496567Y-70316513D01*
X110439364Y-70529999D01*
X110439364Y-70530000D01*
X111486314Y-70530000D01*
X111460507Y-70570156D01*
X111420000Y-70708111D01*
X111420000Y-70851889D01*
X111460507Y-70989844D01*
X111486314Y-71030000D01*
X110439364Y-71030000D01*
X99550500Y-71030000D01*
X99550500Y-69983517D01*
X102444500Y-69983517D01*
X102444501Y-69983526D01*
X102450828Y-70042391D01*
X102500497Y-70175554D01*
X102585669Y-70289331D01*
X102659675Y-70344731D01*
X102695602Y-70371626D01*
X102699446Y-70374503D01*
X102832609Y-70424171D01*
X102891479Y-70430500D01*
X103473520Y-70430499D01*
X103532391Y-70424171D01*
X103665554Y-70374503D01*
X103779331Y-70289331D01*
X103864503Y-70175554D01*
X103914171Y-70042391D01*
X103916874Y-70017250D01*
X103920499Y-69983537D01*
X103920499Y-69983526D01*
X103920500Y-69983521D01*
X103920499Y-69289042D01*
X103940183Y-69222004D01*
X103956813Y-69201367D01*
X104107821Y-69050359D01*
X104169142Y-69016876D01*
X104238834Y-69021860D01*
X104294767Y-69063732D01*
X104319184Y-69129196D01*
X104319500Y-69138042D01*
X104319500Y-69983517D01*
X104319501Y-69983526D01*
X104325828Y-70042391D01*
X104375497Y-70175554D01*
X104460669Y-70289331D01*
X104534675Y-70344731D01*
X104570602Y-70371626D01*
X104574446Y-70374503D01*
X104707609Y-70424171D01*
X104766479Y-70430500D01*
X105348520Y-70430499D01*
X105407391Y-70424171D01*
X105540554Y-70374503D01*
X105654331Y-70289331D01*
X105739503Y-70175554D01*
X105789171Y-70042391D01*
X105791874Y-70017250D01*
X105795499Y-69983536D01*
X105795499Y-69983526D01*
X105795500Y-69983521D01*
X105795499Y-69927021D01*
X105815182Y-69859984D01*
X105867986Y-69814228D01*
X105937144Y-69804284D01*
X105966950Y-69812460D01*
X105976291Y-69816330D01*
X106103280Y-69833048D01*
X106119999Y-69835250D01*
X106120000Y-69835250D01*
X106120001Y-69835250D01*
X106134977Y-69833278D01*
X106263709Y-69816330D01*
X106397625Y-69760861D01*
X106512621Y-69672621D01*
X106600861Y-69557625D01*
X106656330Y-69423709D01*
X106675250Y-69280000D01*
X106674856Y-69277011D01*
X106672700Y-69260631D01*
X106656330Y-69136291D01*
X106608932Y-69021860D01*
X106600862Y-69002377D01*
X106600861Y-69002376D01*
X106600861Y-69002375D01*
X106512621Y-68887379D01*
X106397625Y-68799139D01*
X106397624Y-68799138D01*
X106397622Y-68799137D01*
X106263712Y-68743671D01*
X106263710Y-68743670D01*
X106263709Y-68743670D01*
X106191854Y-68734210D01*
X106120001Y-68724750D01*
X106119999Y-68724750D01*
X105976291Y-68743670D01*
X105861238Y-68791325D01*
X105791769Y-68798792D01*
X105729290Y-68767517D01*
X105714520Y-68751073D01*
X105708978Y-68743670D01*
X105655049Y-68671628D01*
X105654332Y-68670670D01*
X105651457Y-68668518D01*
X105586955Y-68620232D01*
X105540556Y-68585498D01*
X105540554Y-68585497D01*
X105407391Y-68535829D01*
X105407389Y-68535828D01*
X105407387Y-68535828D01*
X105348537Y-68529500D01*
X105143141Y-68529500D01*
X105076102Y-68509815D01*
X105030347Y-68457011D01*
X105020403Y-68387853D01*
X105049428Y-68324297D01*
X105067650Y-68307128D01*
X105112621Y-68272621D01*
X105200861Y-68157625D01*
X105256330Y-68023709D01*
X105275250Y-67880000D01*
X105256330Y-67736291D01*
X105213185Y-67632128D01*
X105200862Y-67602377D01*
X105200861Y-67602376D01*
X105200861Y-67602375D01*
X105112621Y-67487379D01*
X104997625Y-67399139D01*
X104997624Y-67399138D01*
X104997622Y-67399137D01*
X104863712Y-67343671D01*
X104863710Y-67343670D01*
X104863709Y-67343670D01*
X104791854Y-67334210D01*
X104720001Y-67324750D01*
X104719999Y-67324750D01*
X104576291Y-67343670D01*
X104576287Y-67343671D01*
X104442377Y-67399137D01*
X104327379Y-67487379D01*
X104239137Y-67602377D01*
X104183671Y-67736287D01*
X104183670Y-67736291D01*
X104164750Y-67879999D01*
X104164750Y-67880001D01*
X104170969Y-67927239D01*
X104160203Y-67996274D01*
X104135711Y-68031105D01*
X103660552Y-68506264D01*
X103599229Y-68539749D01*
X103540428Y-68535545D01*
X103539940Y-68537613D01*
X103532389Y-68535828D01*
X103473529Y-68529500D01*
X102891482Y-68529500D01*
X102891473Y-68529501D01*
X102832608Y-68535828D01*
X102699445Y-68585497D01*
X102585669Y-68670669D01*
X102500498Y-68784443D01*
X102450828Y-68917612D01*
X102444500Y-68976462D01*
X102444500Y-69983517D01*
X99550500Y-69983517D01*
X99550500Y-67521783D01*
X99570185Y-67454744D01*
X99622989Y-67408989D01*
X99631142Y-67405610D01*
X99655226Y-67396628D01*
X99764687Y-67314687D01*
X99846628Y-67205226D01*
X99894412Y-67077114D01*
X99895583Y-67066220D01*
X99922319Y-67001671D01*
X99979711Y-66961822D01*
X100049536Y-66959327D01*
X100100440Y-66988314D01*
X100100932Y-66987673D01*
X100105586Y-66991244D01*
X100106553Y-66991795D01*
X100107374Y-66992616D01*
X100107376Y-66992618D01*
X100107379Y-66992621D01*
X100222375Y-67080861D01*
X100222376Y-67080861D01*
X100222377Y-67080862D01*
X100226612Y-67082616D01*
X100356291Y-67136330D01*
X100473074Y-67151705D01*
X100499999Y-67155250D01*
X100500000Y-67155250D01*
X100500001Y-67155250D01*
X100526926Y-67151705D01*
X100643709Y-67136330D01*
X100777625Y-67080861D01*
X100892621Y-66992621D01*
X100980861Y-66877625D01*
X101036330Y-66743709D01*
X101055250Y-66600000D01*
X101036330Y-66456291D01*
X100990309Y-66345185D01*
X100980862Y-66322377D01*
X100980861Y-66322376D01*
X100980861Y-66322375D01*
X100892621Y-66207379D01*
X100819147Y-66151000D01*
X100804013Y-66139387D01*
X100762811Y-66082959D01*
X100755500Y-66041012D01*
X100755500Y-65717252D01*
X100775185Y-65650213D01*
X100791819Y-65629570D01*
X100793339Y-65628049D01*
X100793342Y-65628048D01*
X100883050Y-65538340D01*
X100940646Y-65425302D01*
X100940646Y-65425300D01*
X100940647Y-65425299D01*
X100955499Y-65331522D01*
X100955500Y-65331517D01*
X100955499Y-63893042D01*
X100975184Y-63826004D01*
X101027987Y-63780249D01*
X101097146Y-63770305D01*
X101160702Y-63799330D01*
X101185037Y-63827946D01*
X101277424Y-63977728D01*
X101277427Y-63977732D01*
X101397267Y-64097572D01*
X101397271Y-64097575D01*
X101541507Y-64186542D01*
X101541518Y-64186547D01*
X101702393Y-64239855D01*
X101801683Y-64249999D01*
X101849999Y-64249998D01*
X101850000Y-64249998D01*
X101850000Y-63550000D01*
X102350000Y-63550000D01*
X102350000Y-64249999D01*
X102398308Y-64249999D01*
X102398322Y-64249998D01*
X102497607Y-64239855D01*
X102658481Y-64186547D01*
X102658492Y-64186542D01*
X102802728Y-64097575D01*
X102802732Y-64097572D01*
X102922572Y-63977732D01*
X102922575Y-63977728D01*
X103011542Y-63833492D01*
X103011547Y-63833481D01*
X103064855Y-63672606D01*
X103074999Y-63573322D01*
X103075000Y-63573309D01*
X103075000Y-63550000D01*
X102350000Y-63550000D01*
X101850000Y-63550000D01*
X101119102Y-63550000D01*
X101070772Y-63576389D01*
X101001080Y-63571403D01*
X100945148Y-63529531D01*
X100933936Y-63511525D01*
X100883050Y-63411656D01*
X100883048Y-63411654D01*
X100883045Y-63411650D01*
X100793347Y-63321952D01*
X100793344Y-63321950D01*
X100793342Y-63321948D01*
X100716517Y-63282803D01*
X100680301Y-63264350D01*
X100586524Y-63249498D01*
X100223482Y-63249498D01*
X100142519Y-63262321D01*
X100129696Y-63264352D01*
X100016658Y-63321948D01*
X100016657Y-63321949D01*
X100016652Y-63321952D01*
X99926954Y-63411650D01*
X99926949Y-63411657D01*
X99880483Y-63502850D01*
X99832508Y-63553646D01*
X99764687Y-63570440D01*
X99698552Y-63547902D01*
X99659516Y-63502850D01*
X99613050Y-63411656D01*
X99613047Y-63411653D01*
X99613045Y-63411650D01*
X99523347Y-63321952D01*
X99523344Y-63321950D01*
X99523342Y-63321948D01*
X99446517Y-63282803D01*
X99410301Y-63264350D01*
X99316524Y-63249498D01*
X99145545Y-63249498D01*
X99078506Y-63229813D01*
X99032751Y-63177009D01*
X99022807Y-63107851D01*
X99051832Y-63044295D01*
X99057851Y-63037830D01*
X100618046Y-61477634D01*
X100637902Y-61461511D01*
X100645669Y-61456437D01*
X100663496Y-61433531D01*
X100672542Y-61423289D01*
X100673362Y-61422319D01*
X100673375Y-61422307D01*
X100684588Y-61406601D01*
X100687592Y-61402572D01*
X100717517Y-61364126D01*
X100717520Y-61364115D01*
X100721021Y-61357648D01*
X100724235Y-61351071D01*
X100724239Y-61351067D01*
X100738127Y-61304417D01*
X100739686Y-61299550D01*
X100755500Y-61253488D01*
X100755500Y-61253483D01*
X100756706Y-61246252D01*
X100757617Y-61238952D01*
X100755606Y-61190332D01*
X100755500Y-61185207D01*
X100755500Y-60767252D01*
X100775185Y-60700213D01*
X100791819Y-60679570D01*
X100793339Y-60678049D01*
X100793342Y-60678048D01*
X100883050Y-60588340D01*
X100940646Y-60475302D01*
X100940646Y-60475300D01*
X100940647Y-60475299D01*
X100955500Y-60381522D01*
X100955500Y-60050544D01*
X100975185Y-59983505D01*
X101027989Y-59937750D01*
X101097147Y-59927806D01*
X101160703Y-59956831D01*
X101167181Y-59962863D01*
X101713181Y-60508863D01*
X101746666Y-60570186D01*
X101749500Y-60596544D01*
X101749500Y-60968892D01*
X101729815Y-61035931D01*
X101677011Y-61081686D01*
X101668834Y-61085073D01*
X101619774Y-61103371D01*
X101510313Y-61185313D01*
X101428373Y-61294771D01*
X101380587Y-61422889D01*
X101374500Y-61479498D01*
X101374500Y-62020481D01*
X101374501Y-62020490D01*
X101380587Y-62077114D01*
X101428373Y-62205228D01*
X101489438Y-62286802D01*
X101513855Y-62352266D01*
X101499003Y-62420539D01*
X101455270Y-62466649D01*
X101397270Y-62502424D01*
X101277427Y-62622267D01*
X101277424Y-62622271D01*
X101188457Y-62766507D01*
X101188452Y-62766518D01*
X101135144Y-62927393D01*
X101125000Y-63026677D01*
X101125000Y-63050000D01*
X103074999Y-63050000D01*
X103074999Y-63026692D01*
X103074998Y-63026677D01*
X103064855Y-62927392D01*
X103011547Y-62766518D01*
X103011542Y-62766507D01*
X102922575Y-62622271D01*
X102922572Y-62622267D01*
X102802732Y-62502427D01*
X102802728Y-62502424D01*
X102744730Y-62466650D01*
X102698005Y-62414702D01*
X102686784Y-62345739D01*
X102710558Y-62286805D01*
X102771628Y-62205226D01*
X102819412Y-62077114D01*
X102821687Y-62055944D01*
X102825499Y-62020501D01*
X102825499Y-62020490D01*
X102825500Y-62020485D01*
X102825499Y-61479516D01*
X102819412Y-61422886D01*
X102815804Y-61413214D01*
X102794192Y-61355270D01*
X102771628Y-61294774D01*
X102689687Y-61185313D01*
X102624647Y-61136625D01*
X110439364Y-61136625D01*
X110496567Y-61350111D01*
X110496570Y-61350117D01*
X110596399Y-61564202D01*
X110596400Y-61564204D01*
X110731886Y-61757698D01*
X110731891Y-61757704D01*
X110898920Y-61924733D01*
X110898926Y-61924738D01*
X111092420Y-62060224D01*
X111092422Y-62060225D01*
X111306507Y-62160054D01*
X111306516Y-62160058D01*
X111534673Y-62221192D01*
X111534684Y-62221194D01*
X111669999Y-62233032D01*
X111670000Y-62233032D01*
X111670000Y-61322126D01*
X111777685Y-61371305D01*
X111884237Y-61386625D01*
X111955763Y-61386625D01*
X112062315Y-61371305D01*
X112170000Y-61322126D01*
X112170000Y-62233032D01*
X112305315Y-62221194D01*
X112305326Y-62221192D01*
X112533483Y-62160058D01*
X112533492Y-62160054D01*
X112747577Y-62060225D01*
X112747579Y-62060224D01*
X112941073Y-61924738D01*
X112941079Y-61924733D01*
X113108105Y-61757707D01*
X113243600Y-61564203D01*
X113343429Y-61350117D01*
X113343432Y-61350111D01*
X113400636Y-61136625D01*
X112353686Y-61136625D01*
X112379493Y-61096469D01*
X112420000Y-60958514D01*
X112420000Y-60814736D01*
X112379493Y-60676781D01*
X112353686Y-60636625D01*
X113400636Y-60636625D01*
X113400635Y-60636624D01*
X113343432Y-60423138D01*
X113343429Y-60423132D01*
X113243600Y-60209047D01*
X113243599Y-60209045D01*
X113108113Y-60015551D01*
X113108108Y-60015545D01*
X112941079Y-59848516D01*
X112941073Y-59848511D01*
X112747579Y-59713025D01*
X112742888Y-59710317D01*
X112743923Y-59708523D01*
X112698237Y-59668307D01*
X112679077Y-59601116D01*
X112699284Y-59534232D01*
X112752444Y-59488891D01*
X112774560Y-59481407D01*
X112777479Y-59480716D01*
X112777483Y-59480716D01*
X112912331Y-59430421D01*
X113027546Y-59344171D01*
X113113796Y-59228956D01*
X113164091Y-59094108D01*
X113170500Y-59034498D01*
X113170499Y-57738753D01*
X113164091Y-57679142D01*
X113155700Y-57656645D01*
X113113797Y-57544296D01*
X113113793Y-57544289D01*
X113027547Y-57429080D01*
X113027544Y-57429077D01*
X112912335Y-57342831D01*
X112912328Y-57342827D01*
X112777482Y-57292533D01*
X112777483Y-57292533D01*
X112717883Y-57286126D01*
X112717881Y-57286125D01*
X112717873Y-57286125D01*
X112717864Y-57286125D01*
X111122129Y-57286125D01*
X111122123Y-57286126D01*
X111062516Y-57292533D01*
X110927671Y-57342827D01*
X110927664Y-57342831D01*
X110812455Y-57429077D01*
X110812452Y-57429080D01*
X110726206Y-57544289D01*
X110726202Y-57544296D01*
X110675908Y-57679142D01*
X110669501Y-57738741D01*
X110669501Y-57738748D01*
X110669500Y-57738760D01*
X110669500Y-59034495D01*
X110669501Y-59034501D01*
X110675908Y-59094108D01*
X110726202Y-59228953D01*
X110726206Y-59228960D01*
X110812452Y-59344169D01*
X110812455Y-59344172D01*
X110927664Y-59430418D01*
X110927671Y-59430422D01*
X110964899Y-59444307D01*
X111062517Y-59480716D01*
X111062525Y-59480716D01*
X111065431Y-59481404D01*
X111067463Y-59482561D01*
X111069785Y-59483427D01*
X111069644Y-59483802D01*
X111126150Y-59515972D01*
X111158541Y-59577880D01*
X111152320Y-59647472D01*
X111109463Y-59702654D01*
X111096934Y-59710008D01*
X111097112Y-59710317D01*
X111092420Y-59713025D01*
X110898926Y-59848511D01*
X110898920Y-59848516D01*
X110731894Y-60015542D01*
X110596399Y-60209046D01*
X110496570Y-60423132D01*
X110496567Y-60423138D01*
X110439364Y-60636624D01*
X110439364Y-60636625D01*
X111486314Y-60636625D01*
X111460507Y-60676781D01*
X111420000Y-60814736D01*
X111420000Y-60958514D01*
X111460507Y-61096469D01*
X111486314Y-61136625D01*
X110439364Y-61136625D01*
X102624647Y-61136625D01*
X102580226Y-61103372D01*
X102580225Y-61103371D01*
X102580226Y-61103371D01*
X102531166Y-61085073D01*
X102475232Y-61043202D01*
X102450816Y-60977737D01*
X102450500Y-60968892D01*
X102450500Y-60642489D01*
X102470185Y-60575450D01*
X102522989Y-60529695D01*
X102592147Y-60519751D01*
X102648808Y-60543221D01*
X102699446Y-60581128D01*
X102832609Y-60630796D01*
X102891479Y-60637125D01*
X103473520Y-60637124D01*
X103532391Y-60630796D01*
X103665554Y-60581128D01*
X103779331Y-60495956D01*
X103864503Y-60382179D01*
X103914171Y-60249016D01*
X103918468Y-60209046D01*
X103920499Y-60190162D01*
X103920499Y-60190151D01*
X103920500Y-60190146D01*
X103920499Y-59495667D01*
X103940183Y-59428629D01*
X103956813Y-59407992D01*
X104107821Y-59256984D01*
X104169142Y-59223501D01*
X104238834Y-59228485D01*
X104294767Y-59270357D01*
X104319184Y-59335821D01*
X104319500Y-59344667D01*
X104319500Y-60190142D01*
X104319501Y-60190151D01*
X104325828Y-60249016D01*
X104363293Y-60349459D01*
X104375497Y-60382179D01*
X104460669Y-60495956D01*
X104574446Y-60581128D01*
X104707609Y-60630796D01*
X104766479Y-60637125D01*
X105348520Y-60637124D01*
X105407391Y-60630796D01*
X105540554Y-60581128D01*
X105654331Y-60495956D01*
X105739503Y-60382179D01*
X105789171Y-60249016D01*
X105795129Y-60193598D01*
X105795499Y-60190161D01*
X105795499Y-60190151D01*
X105795500Y-60190146D01*
X105795499Y-60133646D01*
X105815182Y-60066609D01*
X105867986Y-60020853D01*
X105937144Y-60010909D01*
X105966950Y-60019085D01*
X105976291Y-60022955D01*
X106103280Y-60039673D01*
X106119999Y-60041875D01*
X106120000Y-60041875D01*
X106120001Y-60041875D01*
X106134977Y-60039903D01*
X106263709Y-60022955D01*
X106397625Y-59967486D01*
X106512621Y-59879246D01*
X106600861Y-59764250D01*
X106656330Y-59630334D01*
X106675250Y-59486625D01*
X106656330Y-59342916D01*
X106615339Y-59243953D01*
X106600862Y-59209002D01*
X106600861Y-59209001D01*
X106600861Y-59209000D01*
X106512621Y-59094004D01*
X106397625Y-59005764D01*
X106397624Y-59005763D01*
X106397622Y-59005762D01*
X106263712Y-58950296D01*
X106263710Y-58950295D01*
X106263709Y-58950295D01*
X106191854Y-58940835D01*
X106120001Y-58931375D01*
X106119999Y-58931375D01*
X105976291Y-58950295D01*
X105861238Y-58997950D01*
X105791769Y-59005417D01*
X105729290Y-58974142D01*
X105714520Y-58957698D01*
X105713403Y-58956206D01*
X105654331Y-58877294D01*
X105547558Y-58797365D01*
X105540556Y-58792123D01*
X105540554Y-58792122D01*
X105407391Y-58742454D01*
X105407389Y-58742453D01*
X105407387Y-58742453D01*
X105348537Y-58736125D01*
X105143141Y-58736125D01*
X105076102Y-58716440D01*
X105030347Y-58663636D01*
X105020403Y-58594478D01*
X105049428Y-58530922D01*
X105067650Y-58513753D01*
X105112621Y-58479246D01*
X105200861Y-58364250D01*
X105256330Y-58230334D01*
X105275250Y-58086625D01*
X105256330Y-57942916D01*
X105200861Y-57809000D01*
X105112621Y-57694004D01*
X104997625Y-57605764D01*
X104997624Y-57605763D01*
X104997622Y-57605762D01*
X104863712Y-57550296D01*
X104863710Y-57550295D01*
X104863709Y-57550295D01*
X104791854Y-57540835D01*
X104720001Y-57531375D01*
X104719999Y-57531375D01*
X104576291Y-57550295D01*
X104576287Y-57550296D01*
X104442377Y-57605762D01*
X104327379Y-57694004D01*
X104239137Y-57809002D01*
X104183671Y-57942912D01*
X104183670Y-57942916D01*
X104164750Y-58086624D01*
X104164750Y-58086626D01*
X104170969Y-58133864D01*
X104160203Y-58202899D01*
X104135711Y-58237730D01*
X103660552Y-58712889D01*
X103599229Y-58746374D01*
X103540428Y-58742170D01*
X103539940Y-58744238D01*
X103532389Y-58742453D01*
X103473529Y-58736125D01*
X102891482Y-58736125D01*
X102891473Y-58736126D01*
X102832608Y-58742453D01*
X102699445Y-58792122D01*
X102585669Y-58877294D01*
X102500498Y-58991068D01*
X102450828Y-59124237D01*
X102444500Y-59183087D01*
X102444500Y-59949457D01*
X102424815Y-60016496D01*
X102372011Y-60062251D01*
X102302853Y-60072195D01*
X102239297Y-60043170D01*
X102232819Y-60037138D01*
X101920359Y-59724678D01*
X101507635Y-59311953D01*
X101491509Y-59292096D01*
X101486435Y-59284329D01*
X101463522Y-59266495D01*
X101453246Y-59257420D01*
X101452307Y-59256625D01*
X101452305Y-59256623D01*
X101436649Y-59245445D01*
X101432542Y-59242383D01*
X101408282Y-59223501D01*
X101394124Y-59212481D01*
X101394122Y-59212480D01*
X101387638Y-59208971D01*
X101381065Y-59205757D01*
X101334407Y-59191866D01*
X101329530Y-59190304D01*
X101283482Y-59174496D01*
X101276285Y-59173295D01*
X101268949Y-59172380D01*
X101220330Y-59174392D01*
X101215205Y-59174498D01*
X101079499Y-59174498D01*
X101012460Y-59154813D01*
X100966705Y-59102009D01*
X100955499Y-59050498D01*
X100955499Y-58668480D01*
X100948289Y-58622955D01*
X100940646Y-58574694D01*
X100883050Y-58461656D01*
X100883046Y-58461652D01*
X100883045Y-58461650D01*
X100793347Y-58371952D01*
X100793344Y-58371950D01*
X100793342Y-58371948D01*
X100711366Y-58330179D01*
X100680301Y-58314350D01*
X100586524Y-58299498D01*
X100223482Y-58299498D01*
X100142519Y-58312321D01*
X100129696Y-58314352D01*
X100016658Y-58371948D01*
X100016657Y-58371949D01*
X100016652Y-58371952D01*
X99926954Y-58461650D01*
X99926949Y-58461657D01*
X99880483Y-58552850D01*
X99832508Y-58603646D01*
X99764687Y-58620440D01*
X99698552Y-58597902D01*
X99659516Y-58552850D01*
X99613050Y-58461656D01*
X99613046Y-58461652D01*
X99613045Y-58461650D01*
X99571218Y-58419823D01*
X99537733Y-58358500D01*
X99542717Y-58288808D01*
X99571218Y-58244461D01*
X100628862Y-57186817D01*
X100690185Y-57153332D01*
X100716543Y-57150498D01*
X101149270Y-57150498D01*
X101179699Y-57147644D01*
X101179701Y-57147644D01*
X101243790Y-57125217D01*
X101307882Y-57102791D01*
X101417150Y-57022148D01*
X101497793Y-56912880D01*
X101538977Y-56795183D01*
X101542646Y-56784699D01*
X101542646Y-56784697D01*
X101545500Y-56754267D01*
X101545500Y-56095728D01*
X101542646Y-56065298D01*
X101542646Y-56065296D01*
X101497793Y-55937117D01*
X101497792Y-55937115D01*
X101417150Y-55827848D01*
X101307882Y-55747205D01*
X101307881Y-55747204D01*
X101300405Y-55741687D01*
X101301862Y-55739712D01*
X101261485Y-55700418D01*
X101245500Y-55639518D01*
X101245500Y-49295378D01*
X101265185Y-49228339D01*
X101317989Y-49182584D01*
X101340263Y-49174874D01*
X101361576Y-49169704D01*
X101520841Y-49096970D01*
X101552743Y-49082401D01*
X101552746Y-49082399D01*
X101552753Y-49082396D01*
X101723952Y-48960486D01*
X101769338Y-48912887D01*
X101868985Y-48808379D01*
X101868986Y-48808378D01*
X101982613Y-48631572D01*
X102060725Y-48436457D01*
X102100500Y-48230085D01*
X102100500Y-47822575D01*
X102085528Y-47665782D01*
X102026316Y-47464125D01*
X101930011Y-47277318D01*
X101930009Y-47277315D01*
X101930008Y-47277313D01*
X101800094Y-47112116D01*
X101800090Y-47112112D01*
X101641253Y-46974478D01*
X101459249Y-46869398D01*
X101459245Y-46869396D01*
X101459244Y-46869396D01*
X101260633Y-46800656D01*
X101052602Y-46770746D01*
X101052598Y-46770746D01*
X100842672Y-46780745D01*
X100638421Y-46830296D01*
X100638417Y-46830298D01*
X100447256Y-46917598D01*
X100447251Y-46917601D01*
X100276046Y-47039515D01*
X100276040Y-47039520D01*
X100131014Y-47191620D01*
X100017388Y-47368425D01*
X99939274Y-47563544D01*
X99915723Y-47685742D01*
X99899500Y-47769915D01*
X99899500Y-48177425D01*
X99914472Y-48334218D01*
X99973684Y-48535875D01*
X100023019Y-48631572D01*
X100069991Y-48722686D01*
X100199905Y-48887883D01*
X100199909Y-48887887D01*
X100358746Y-49025521D01*
X100482500Y-49096970D01*
X100530716Y-49147537D01*
X100544500Y-49204357D01*
X100544500Y-55639518D01*
X100524815Y-55706557D01*
X100488371Y-55740029D01*
X100489595Y-55741687D01*
X100372850Y-55827848D01*
X100292207Y-55937115D01*
X100292206Y-55937117D01*
X100247353Y-56065296D01*
X100247353Y-56065298D01*
X100244500Y-56095728D01*
X100244500Y-56528453D01*
X100224815Y-56595492D01*
X100208181Y-56616134D01*
X100107181Y-56717134D01*
X100045858Y-56750619D01*
X99976166Y-56745635D01*
X99920233Y-56703763D01*
X99895816Y-56638299D01*
X99895500Y-56629453D01*
X99895500Y-56095728D01*
X99892646Y-56065298D01*
X99892646Y-56065296D01*
X99847793Y-55937117D01*
X99847792Y-55937115D01*
X99767150Y-55827848D01*
X99657882Y-55747205D01*
X99657880Y-55747204D01*
X99529700Y-55702351D01*
X99499270Y-55699498D01*
X99499266Y-55699498D01*
X98990734Y-55699498D01*
X98990730Y-55699498D01*
X98960300Y-55702351D01*
X98960299Y-55702351D01*
X98910453Y-55719793D01*
X98840674Y-55723354D01*
X98780047Y-55688624D01*
X98747821Y-55626630D01*
X98745500Y-55602751D01*
X98745500Y-55456106D01*
X98765185Y-55389067D01*
X98817989Y-55343312D01*
X98826166Y-55339925D01*
X98848039Y-55331766D01*
X98875226Y-55321626D01*
X98984687Y-55239685D01*
X99066628Y-55130224D01*
X99114412Y-55002112D01*
X99116687Y-54980942D01*
X99120499Y-54945499D01*
X99120499Y-54945488D01*
X99120500Y-54945483D01*
X99120499Y-54404514D01*
X99114412Y-54347884D01*
X99066628Y-54219772D01*
X99005558Y-54138192D01*
X98981143Y-54072732D01*
X98995994Y-54004459D01*
X99039731Y-53958346D01*
X99097731Y-53922571D01*
X99217572Y-53802730D01*
X99217575Y-53802726D01*
X99306542Y-53658490D01*
X99306547Y-53658479D01*
X99359855Y-53497604D01*
X99369999Y-53398320D01*
X99370000Y-53398307D01*
X99370000Y-53374998D01*
X97420001Y-53374998D01*
X97420001Y-53398320D01*
X97430144Y-53497605D01*
X97483452Y-53658479D01*
X97483457Y-53658490D01*
X97572424Y-53802726D01*
X97572427Y-53802730D01*
X97692266Y-53922569D01*
X97750268Y-53958345D01*
X97796992Y-54010293D01*
X97808215Y-54079256D01*
X97784439Y-54138193D01*
X97723374Y-54219767D01*
X97675587Y-54347887D01*
X97669500Y-54404496D01*
X97669500Y-54945479D01*
X97669501Y-54945488D01*
X97675587Y-55002112D01*
X97723372Y-55130224D01*
X97805313Y-55239685D01*
X97914774Y-55321626D01*
X97914773Y-55321626D01*
X97963834Y-55339925D01*
X98019768Y-55381796D01*
X98044184Y-55447261D01*
X98044500Y-55456106D01*
X98044500Y-55575498D01*
X98024815Y-55642537D01*
X97972011Y-55688292D01*
X97920500Y-55699498D01*
X97440730Y-55699498D01*
X97410300Y-55702351D01*
X97410298Y-55702351D01*
X97282119Y-55747204D01*
X97282117Y-55747205D01*
X97172850Y-55827848D01*
X97092207Y-55937115D01*
X97092206Y-55937117D01*
X97047353Y-56065296D01*
X97047353Y-56065298D01*
X97044500Y-56095728D01*
X97044500Y-56629454D01*
X97024815Y-56696493D01*
X96972011Y-56742248D01*
X96902853Y-56752192D01*
X96839297Y-56723167D01*
X96832819Y-56717135D01*
X96731819Y-56616135D01*
X96698334Y-56554812D01*
X96695500Y-56528454D01*
X96695500Y-56095728D01*
X96692646Y-56065298D01*
X96692646Y-56065296D01*
X96647793Y-55937117D01*
X96647792Y-55937115D01*
X96567150Y-55827848D01*
X96457882Y-55747205D01*
X96457881Y-55747204D01*
X96450405Y-55741687D01*
X96451862Y-55739712D01*
X96411485Y-55700418D01*
X96395500Y-55639518D01*
X96395500Y-52874998D01*
X97420000Y-52874998D01*
X98145000Y-52874998D01*
X98145000Y-52174998D01*
X98645000Y-52174998D01*
X98645000Y-52874998D01*
X99369999Y-52874998D01*
X99369999Y-52851690D01*
X99369998Y-52851675D01*
X99359855Y-52752390D01*
X99306547Y-52591516D01*
X99306542Y-52591505D01*
X99217575Y-52447269D01*
X99217572Y-52447265D01*
X99097732Y-52327425D01*
X99097728Y-52327422D01*
X98953492Y-52238455D01*
X98953481Y-52238450D01*
X98792606Y-52185142D01*
X98693322Y-52174998D01*
X98645000Y-52174998D01*
X98145000Y-52174998D01*
X98144999Y-52174997D01*
X98096693Y-52174998D01*
X98096675Y-52174999D01*
X97997392Y-52185142D01*
X97836518Y-52238450D01*
X97836507Y-52238455D01*
X97692271Y-52327422D01*
X97692267Y-52327425D01*
X97572427Y-52447265D01*
X97572424Y-52447269D01*
X97483457Y-52591505D01*
X97483452Y-52591516D01*
X97430144Y-52752391D01*
X97420000Y-52851675D01*
X97420000Y-52874998D01*
X96395500Y-52874998D01*
X96395500Y-49349499D01*
X96415185Y-49282460D01*
X96467989Y-49236705D01*
X96519500Y-49225499D01*
X96647871Y-49225499D01*
X96647872Y-49225499D01*
X96707483Y-49219091D01*
X96842331Y-49168796D01*
X96957546Y-49082546D01*
X97043796Y-48967331D01*
X97094091Y-48832483D01*
X97100500Y-48772873D01*
X97100500Y-48177425D01*
X97399500Y-48177425D01*
X97414472Y-48334218D01*
X97473684Y-48535875D01*
X97523019Y-48631572D01*
X97569991Y-48722686D01*
X97699905Y-48887883D01*
X97699909Y-48887887D01*
X97858746Y-49025521D01*
X98040750Y-49130601D01*
X98040752Y-49130601D01*
X98040756Y-49130604D01*
X98239367Y-49199344D01*
X98447398Y-49229254D01*
X98657330Y-49219254D01*
X98861576Y-49169704D01*
X99020841Y-49096970D01*
X99052743Y-49082401D01*
X99052746Y-49082399D01*
X99052753Y-49082396D01*
X99223952Y-48960486D01*
X99269338Y-48912887D01*
X99368985Y-48808379D01*
X99368986Y-48808378D01*
X99482613Y-48631572D01*
X99560725Y-48436457D01*
X99600500Y-48230085D01*
X99600500Y-47822575D01*
X99585528Y-47665782D01*
X99526316Y-47464125D01*
X99430011Y-47277318D01*
X99430009Y-47277315D01*
X99430008Y-47277313D01*
X99300094Y-47112116D01*
X99300090Y-47112112D01*
X99141253Y-46974478D01*
X98959249Y-46869398D01*
X98959245Y-46869396D01*
X98959244Y-46869396D01*
X98760633Y-46800656D01*
X98552602Y-46770746D01*
X98552598Y-46770746D01*
X98342672Y-46780745D01*
X98138421Y-46830296D01*
X98138417Y-46830298D01*
X97947256Y-46917598D01*
X97947251Y-46917601D01*
X97776046Y-47039515D01*
X97776040Y-47039520D01*
X97631014Y-47191620D01*
X97517388Y-47368425D01*
X97439274Y-47563544D01*
X97415723Y-47685742D01*
X97399500Y-47769915D01*
X97399500Y-48177425D01*
X97100500Y-48177425D01*
X97100499Y-47227128D01*
X97094091Y-47167517D01*
X97093757Y-47166622D01*
X97043797Y-47032671D01*
X97043793Y-47032664D01*
X96957547Y-46917455D01*
X96957544Y-46917452D01*
X96842335Y-46831206D01*
X96842328Y-46831202D01*
X96707482Y-46780908D01*
X96707483Y-46780908D01*
X96647883Y-46774501D01*
X96647881Y-46774500D01*
X96647873Y-46774500D01*
X96647864Y-46774500D01*
X95352129Y-46774500D01*
X95352123Y-46774501D01*
X95292516Y-46780908D01*
X95157671Y-46831202D01*
X95157664Y-46831206D01*
X95042455Y-46917452D01*
X95042452Y-46917455D01*
X94956206Y-47032664D01*
X94956202Y-47032671D01*
X94905908Y-47167517D01*
X94900462Y-47218180D01*
X94899501Y-47227123D01*
X94899500Y-47227135D01*
X94899500Y-48772870D01*
X94899501Y-48772876D01*
X94905908Y-48832483D01*
X94956202Y-48967328D01*
X94956206Y-48967335D01*
X95042452Y-49082544D01*
X95042455Y-49082547D01*
X95157664Y-49168793D01*
X95157671Y-49168797D01*
X95202618Y-49185561D01*
X95292517Y-49219091D01*
X95352127Y-49225500D01*
X95570500Y-49225499D01*
X95637539Y-49245183D01*
X95683294Y-49297987D01*
X95694500Y-49349499D01*
X95694500Y-55639518D01*
X95674815Y-55706557D01*
X95638371Y-55740029D01*
X95639595Y-55741687D01*
X95522850Y-55827848D01*
X95442207Y-55937115D01*
X95442206Y-55937117D01*
X95397353Y-56065296D01*
X95397353Y-56065298D01*
X95394500Y-56095728D01*
X95394500Y-56754267D01*
X95397353Y-56784697D01*
X95397353Y-56784699D01*
X95442206Y-56912878D01*
X95442207Y-56912880D01*
X95522850Y-57022148D01*
X95632118Y-57102791D01*
X95674845Y-57117742D01*
X95760299Y-57147644D01*
X95790730Y-57150498D01*
X95790734Y-57150498D01*
X96223456Y-57150498D01*
X96290495Y-57170183D01*
X96311137Y-57186817D01*
X97398781Y-58274461D01*
X97432266Y-58335784D01*
X97427282Y-58405476D01*
X97398784Y-58449821D01*
X97386952Y-58461652D01*
X97386949Y-58461657D01*
X97340483Y-58552850D01*
X97292508Y-58603646D01*
X97224687Y-58620440D01*
X97158552Y-58597902D01*
X97119516Y-58552850D01*
X97073050Y-58461656D01*
X97073046Y-58461652D01*
X97073045Y-58461650D01*
X96983347Y-58371952D01*
X96983344Y-58371950D01*
X96983342Y-58371948D01*
X96901366Y-58330179D01*
X96870301Y-58314350D01*
X96776524Y-58299498D01*
X96413482Y-58299498D01*
X96332519Y-58312321D01*
X96319696Y-58314352D01*
X96206658Y-58371948D01*
X96206657Y-58371949D01*
X96206652Y-58371952D01*
X96116954Y-58461650D01*
X96116951Y-58461655D01*
X96116950Y-58461656D01*
X96107987Y-58479247D01*
X96059352Y-58574696D01*
X96044500Y-58668473D01*
X96044500Y-60381515D01*
X96052109Y-60429555D01*
X96059354Y-60475302D01*
X96116950Y-60588340D01*
X96116952Y-60588342D01*
X96116954Y-60588345D01*
X96206652Y-60678043D01*
X96206654Y-60678044D01*
X96206658Y-60678048D01*
X96319694Y-60735643D01*
X96319698Y-60735645D01*
X96413475Y-60750497D01*
X96413481Y-60750498D01*
X96776518Y-60750497D01*
X96870304Y-60735644D01*
X96983342Y-60678048D01*
X97073050Y-60588340D01*
X97119516Y-60497143D01*
X97167490Y-60446350D01*
X97235311Y-60429555D01*
X97301445Y-60452092D01*
X97340482Y-60497143D01*
X97386950Y-60588340D01*
X97386951Y-60588341D01*
X97386954Y-60588345D01*
X97476652Y-60678043D01*
X97476654Y-60678044D01*
X97476658Y-60678048D01*
X97589694Y-60735643D01*
X97589698Y-60735645D01*
X97683475Y-60750497D01*
X97683481Y-60750498D01*
X98046518Y-60750497D01*
X98140304Y-60735644D01*
X98253342Y-60678048D01*
X98343050Y-60588340D01*
X98389516Y-60497143D01*
X98437490Y-60446350D01*
X98505311Y-60429555D01*
X98571445Y-60452092D01*
X98610482Y-60497143D01*
X98656950Y-60588340D01*
X98656951Y-60588341D01*
X98656954Y-60588345D01*
X98746652Y-60678043D01*
X98746654Y-60678044D01*
X98746658Y-60678048D01*
X98859694Y-60735643D01*
X98859698Y-60735645D01*
X98953475Y-60750497D01*
X98953481Y-60750498D01*
X99316518Y-60750497D01*
X99410304Y-60735644D01*
X99523342Y-60678048D01*
X99613050Y-60588340D01*
X99659516Y-60497143D01*
X99707490Y-60446350D01*
X99775311Y-60429555D01*
X99841445Y-60452092D01*
X99880482Y-60497143D01*
X99926950Y-60588340D01*
X100016658Y-60678048D01*
X100016660Y-60678049D01*
X100018181Y-60679570D01*
X100051666Y-60740893D01*
X100054500Y-60767252D01*
X100054500Y-60998455D01*
X100034815Y-61065494D01*
X100018181Y-61086136D01*
X98321955Y-62782361D01*
X98302106Y-62798482D01*
X98294331Y-62803562D01*
X98276499Y-62826472D01*
X98267394Y-62836784D01*
X98266624Y-62837694D01*
X98255439Y-62853359D01*
X98252378Y-62857463D01*
X98222482Y-62895873D01*
X98218980Y-62902344D01*
X98215759Y-62908935D01*
X98214789Y-62912194D01*
X98212258Y-62916099D01*
X98211255Y-62918152D01*
X98211006Y-62918030D01*
X98176792Y-62970828D01*
X98123342Y-62994992D01*
X98115000Y-63002701D01*
X98115000Y-65868998D01*
X98095315Y-65936037D01*
X98042511Y-65981792D01*
X97991000Y-65992998D01*
X97900000Y-65992998D01*
X97900000Y-67699999D01*
X97923308Y-67699999D01*
X97923320Y-67699998D01*
X97962897Y-67695955D01*
X98031590Y-67708724D01*
X98082475Y-67756604D01*
X98099500Y-67819313D01*
X98099500Y-75388000D01*
X98079815Y-75455039D01*
X98027011Y-75500794D01*
X97975500Y-75512000D01*
X97858230Y-75512000D01*
X97827800Y-75514853D01*
X97827798Y-75514853D01*
X97699619Y-75559706D01*
X97699617Y-75559707D01*
X97635024Y-75607379D01*
X97590350Y-75640350D01*
X97512980Y-75745184D01*
X97504189Y-75757095D01*
X97502246Y-75755661D01*
X97462836Y-75796141D01*
X97412210Y-75811689D01*
X97408457Y-75812000D01*
X97389490Y-75815165D01*
X97384423Y-75815903D01*
X97336105Y-75821926D01*
X97329084Y-75824016D01*
X97322117Y-75826408D01*
X97279312Y-75849572D01*
X97274761Y-75851915D01*
X97231013Y-75873303D01*
X97225066Y-75877547D01*
X97219238Y-75882084D01*
X97186280Y-75917886D01*
X97182733Y-75921583D01*
X96747905Y-76356411D01*
X96686582Y-76389896D01*
X96616890Y-76384912D01*
X96560957Y-76343040D01*
X96536866Y-76281331D01*
X96527005Y-76184803D01*
X96471858Y-76018380D01*
X96471856Y-76018375D01*
X96379815Y-75869154D01*
X96255845Y-75745184D01*
X96106624Y-75653143D01*
X96106619Y-75653141D01*
X95940197Y-75597994D01*
X95940190Y-75597993D01*
X95837486Y-75587500D01*
X95787500Y-75587500D01*
X95787500Y-76938500D01*
X95767815Y-77005539D01*
X95715011Y-77051294D01*
X95663500Y-77062500D01*
X95411500Y-77062500D01*
X95344461Y-77042815D01*
X95298706Y-76990011D01*
X95287500Y-76938500D01*
X95287500Y-75587500D01*
X95287499Y-75587499D01*
X95237529Y-75587500D01*
X95237511Y-75587501D01*
X95134802Y-75597994D01*
X94968380Y-75653141D01*
X94968375Y-75653143D01*
X94819154Y-75745184D01*
X94695184Y-75869154D01*
X94603143Y-76018375D01*
X94603142Y-76018378D01*
X94572569Y-76110641D01*
X94532796Y-76168085D01*
X94468280Y-76194908D01*
X94399504Y-76182593D01*
X94348304Y-76135049D01*
X94338681Y-76114968D01*
X94331298Y-76095173D01*
X94331293Y-76095164D01*
X94245047Y-75979955D01*
X94245044Y-75979952D01*
X94129835Y-75893706D01*
X94129828Y-75893702D01*
X93994986Y-75843410D01*
X93994985Y-75843409D01*
X93994983Y-75843409D01*
X93935373Y-75837000D01*
X93935363Y-75837000D01*
X93339629Y-75837000D01*
X93339623Y-75837001D01*
X93280015Y-75843409D01*
X93280012Y-75843409D01*
X93270240Y-75847054D01*
X93200548Y-75852035D01*
X93139233Y-75818551D01*
X91307637Y-73986955D01*
X91291511Y-73967098D01*
X91286437Y-73959331D01*
X91263524Y-73941497D01*
X91253248Y-73932422D01*
X91252309Y-73931627D01*
X91252307Y-73931625D01*
X91236651Y-73920447D01*
X91232544Y-73917385D01*
X91211997Y-73901393D01*
X91194126Y-73887483D01*
X91194124Y-73887482D01*
X91187640Y-73883973D01*
X91181067Y-73880759D01*
X91134409Y-73866868D01*
X91129532Y-73865306D01*
X91083484Y-73849498D01*
X91076287Y-73848297D01*
X91068951Y-73847382D01*
X91020332Y-73849394D01*
X91015207Y-73849500D01*
X89910702Y-73849500D01*
X89843663Y-73829815D01*
X89797908Y-73777011D01*
X89787964Y-73707853D01*
X89816989Y-73644297D01*
X89851676Y-73616450D01*
X89858194Y-73612922D01*
X89862729Y-73610586D01*
X89906484Y-73589198D01*
X89906486Y-73589195D01*
X89912461Y-73584929D01*
X89918256Y-73580419D01*
X89918255Y-73580419D01*
X89918258Y-73580418D01*
X89951254Y-73544572D01*
X89954756Y-73540924D01*
X96494386Y-67001294D01*
X96555705Y-66967812D01*
X96625397Y-66972796D01*
X96681330Y-67014668D01*
X96705421Y-67076376D01*
X96710144Y-67122607D01*
X96763452Y-67283481D01*
X96763457Y-67283492D01*
X96852424Y-67427728D01*
X96852427Y-67427732D01*
X96972267Y-67547572D01*
X96972271Y-67547575D01*
X97116507Y-67636542D01*
X97116518Y-67636547D01*
X97277393Y-67689855D01*
X97376683Y-67699999D01*
X97400000Y-67699998D01*
X97400000Y-65831000D01*
X97419685Y-65763961D01*
X97472489Y-65718206D01*
X97524000Y-65707000D01*
X97615000Y-65707000D01*
X97615000Y-63002701D01*
X97612503Y-63002898D01*
X97454806Y-63048714D01*
X97454803Y-63048715D01*
X97313447Y-63132312D01*
X97313438Y-63132319D01*
X97197321Y-63248436D01*
X97197317Y-63248442D01*
X97171858Y-63291491D01*
X97120788Y-63339174D01*
X97052047Y-63351677D01*
X96991853Y-63326844D01*
X96991241Y-63327687D01*
X96987753Y-63325153D01*
X96987457Y-63325031D01*
X96986911Y-63324541D01*
X96983345Y-63321951D01*
X96983342Y-63321948D01*
X96906517Y-63282803D01*
X96870301Y-63264350D01*
X96776524Y-63249498D01*
X96413482Y-63249498D01*
X96332519Y-63262321D01*
X96319696Y-63264352D01*
X96206658Y-63321948D01*
X96206657Y-63321949D01*
X96206652Y-63321952D01*
X96116954Y-63411650D01*
X96116952Y-63411654D01*
X96116950Y-63411656D01*
X96108932Y-63427393D01*
X96059352Y-63524696D01*
X96044500Y-63618473D01*
X96044500Y-65331515D01*
X96052109Y-65379555D01*
X96059354Y-65425302D01*
X96116950Y-65538340D01*
X96206658Y-65628048D01*
X96206660Y-65628049D01*
X96208181Y-65629570D01*
X96241666Y-65690893D01*
X96244500Y-65717252D01*
X96244500Y-66208456D01*
X96224815Y-66275495D01*
X96208181Y-66296137D01*
X89591137Y-72913181D01*
X89529814Y-72946666D01*
X89503456Y-72949500D01*
X88886092Y-72949500D01*
X88819053Y-72929815D01*
X88799587Y-72911913D01*
X88798372Y-72913129D01*
X88792627Y-72907384D01*
X88792621Y-72907379D01*
X88677625Y-72819139D01*
X88677624Y-72819138D01*
X88677622Y-72819137D01*
X88543712Y-72763671D01*
X88543710Y-72763670D01*
X88543709Y-72763670D01*
X88430132Y-72748717D01*
X88400001Y-72744750D01*
X88399999Y-72744750D01*
X88256291Y-72763670D01*
X88256287Y-72763671D01*
X88122377Y-72819137D01*
X88007379Y-72907379D01*
X87919132Y-73022384D01*
X87918762Y-73023026D01*
X87918308Y-73023458D01*
X87914192Y-73028823D01*
X87913355Y-73028180D01*
X87868192Y-73071238D01*
X87799583Y-73084456D01*
X87734721Y-73058483D01*
X87725165Y-73050000D01*
X86649000Y-73050000D01*
X86581961Y-73030315D01*
X86536206Y-72977511D01*
X86525000Y-72926000D01*
X86525000Y-71825000D01*
X87025000Y-71825000D01*
X87025000Y-72550000D01*
X87724999Y-72550000D01*
X87724999Y-72501692D01*
X87724998Y-72501677D01*
X87714855Y-72402392D01*
X87661547Y-72241518D01*
X87661542Y-72241507D01*
X87572575Y-72097271D01*
X87572572Y-72097267D01*
X87452732Y-71977427D01*
X87452728Y-71977424D01*
X87308492Y-71888457D01*
X87308481Y-71888452D01*
X87147606Y-71835144D01*
X87048322Y-71825000D01*
X87025000Y-71825000D01*
X86525000Y-71825000D01*
X86525000Y-71824999D01*
X86501693Y-71825000D01*
X86501674Y-71825001D01*
X86402392Y-71835144D01*
X86241518Y-71888452D01*
X86241507Y-71888457D01*
X86097271Y-71977424D01*
X86097267Y-71977427D01*
X85977424Y-72097270D01*
X85941649Y-72155270D01*
X85889701Y-72201993D01*
X85820738Y-72213214D01*
X85761802Y-72189438D01*
X85678200Y-72126855D01*
X85636328Y-72070922D01*
X85631344Y-72001231D01*
X85664828Y-71939907D01*
X85702818Y-71916478D01*
X85701941Y-71914597D01*
X85708492Y-71911542D01*
X85852728Y-71822575D01*
X85852732Y-71822572D01*
X85972572Y-71702732D01*
X85972575Y-71702728D01*
X86061542Y-71558492D01*
X86061547Y-71558481D01*
X86114855Y-71397606D01*
X86124999Y-71298322D01*
X86125000Y-71298309D01*
X86125000Y-71250000D01*
X85049000Y-71250000D01*
X84981961Y-71230315D01*
X84936206Y-71177511D01*
X84925000Y-71126000D01*
X84925000Y-70025000D01*
X85425000Y-70025000D01*
X85425000Y-70750000D01*
X86124999Y-70750000D01*
X86124999Y-70701692D01*
X86124998Y-70701677D01*
X86114855Y-70602392D01*
X86061547Y-70441518D01*
X86061542Y-70441507D01*
X85972575Y-70297271D01*
X85972572Y-70297267D01*
X85852732Y-70177427D01*
X85852728Y-70177424D01*
X85708492Y-70088457D01*
X85708481Y-70088452D01*
X85547606Y-70035144D01*
X85448322Y-70025000D01*
X85425000Y-70025000D01*
X84925000Y-70025000D01*
X84925000Y-70024999D01*
X84901693Y-70025000D01*
X84901674Y-70025001D01*
X84802392Y-70035144D01*
X84641518Y-70088452D01*
X84641507Y-70088457D01*
X84497271Y-70177424D01*
X84497267Y-70177427D01*
X84377424Y-70297270D01*
X84341649Y-70355270D01*
X84289701Y-70401993D01*
X84220738Y-70413214D01*
X84161802Y-70389438D01*
X84080230Y-70328374D01*
X84080227Y-70328373D01*
X84080226Y-70328372D01*
X83952114Y-70280588D01*
X83952112Y-70280587D01*
X83952110Y-70280587D01*
X83895493Y-70274500D01*
X83354518Y-70274500D01*
X83354509Y-70274501D01*
X83297885Y-70280587D01*
X83169773Y-70328372D01*
X83060313Y-70410313D01*
X82978371Y-70519774D01*
X82960073Y-70568834D01*
X82918202Y-70624768D01*
X82852737Y-70649184D01*
X82843892Y-70649500D01*
X81969624Y-70649500D01*
X81959386Y-70649077D01*
X81920656Y-70645868D01*
X81920655Y-70645868D01*
X81920654Y-70645868D01*
X81918712Y-70646028D01*
X81890858Y-70649500D01*
X81836860Y-70649500D01*
X81789459Y-70655740D01*
X81789451Y-70655742D01*
X81752403Y-70673018D01*
X81683325Y-70683509D01*
X81647597Y-70673018D01*
X81626593Y-70663224D01*
X81574153Y-70617052D01*
X81555000Y-70549859D01*
X81575215Y-70482977D01*
X81591310Y-70463166D01*
X82842658Y-69211819D01*
X82903981Y-69178334D01*
X82930339Y-69175500D01*
X83724676Y-69175500D01*
X83724677Y-69175499D01*
X83797740Y-69160966D01*
X83880601Y-69105601D01*
X83935966Y-69022740D01*
X83950500Y-68949674D01*
X83950500Y-68349500D01*
X83970185Y-68282461D01*
X84022989Y-68236706D01*
X84074500Y-68225500D01*
X84203217Y-68225500D01*
X84270256Y-68245185D01*
X84316011Y-68297989D01*
X84319389Y-68306142D01*
X84328372Y-68330226D01*
X84410313Y-68439687D01*
X84464470Y-68480228D01*
X84503993Y-68509815D01*
X84519774Y-68521628D01*
X84647886Y-68569412D01*
X84704515Y-68575500D01*
X85295484Y-68575499D01*
X85352114Y-68569412D01*
X85480226Y-68521628D01*
X85589687Y-68439687D01*
X85671628Y-68330226D01*
X85719412Y-68202114D01*
X85724195Y-68157625D01*
X85725499Y-68145501D01*
X85725499Y-68145494D01*
X85725500Y-68145485D01*
X85725499Y-67604516D01*
X85719412Y-67547886D01*
X85710689Y-67524500D01*
X85678303Y-67437671D01*
X85671628Y-67419774D01*
X85610558Y-67338194D01*
X85586143Y-67272734D01*
X85600994Y-67204461D01*
X85644731Y-67158348D01*
X85702731Y-67122573D01*
X85822572Y-67002732D01*
X85822575Y-67002728D01*
X85911542Y-66858492D01*
X85911547Y-66858481D01*
X85964855Y-66697606D01*
X85974999Y-66598322D01*
X85975000Y-66598309D01*
X85975000Y-66575000D01*
X84874000Y-66575000D01*
X84806961Y-66555315D01*
X84761206Y-66502511D01*
X84750000Y-66451000D01*
X84750000Y-65375000D01*
X85250000Y-65375000D01*
X85250000Y-66075000D01*
X85974999Y-66075000D01*
X85974999Y-66051692D01*
X85974998Y-66051677D01*
X85964855Y-65952392D01*
X85911547Y-65791518D01*
X85911542Y-65791507D01*
X85822575Y-65647271D01*
X85822572Y-65647267D01*
X85702732Y-65527427D01*
X85702728Y-65527424D01*
X85558492Y-65438457D01*
X85558481Y-65438452D01*
X85397606Y-65385144D01*
X85298322Y-65375000D01*
X85250000Y-65375000D01*
X84750000Y-65375000D01*
X84749999Y-65374999D01*
X84701693Y-65375000D01*
X84701675Y-65375001D01*
X84602392Y-65385144D01*
X84441518Y-65438452D01*
X84441513Y-65438454D01*
X84389097Y-65470786D01*
X84321705Y-65489226D01*
X84255041Y-65468304D01*
X84210271Y-65414662D01*
X84200000Y-65365247D01*
X84200000Y-65277172D01*
X84199999Y-65277155D01*
X84193598Y-65217627D01*
X84193596Y-65217620D01*
X84143354Y-65082913D01*
X84143350Y-65082906D01*
X84057190Y-64967812D01*
X83962500Y-64896926D01*
X83920630Y-64840992D01*
X83915646Y-64771300D01*
X83931274Y-64732561D01*
X83961546Y-64683483D01*
X83961547Y-64683481D01*
X84014855Y-64522606D01*
X84024999Y-64423322D01*
X84025000Y-64423309D01*
X84025000Y-64375000D01*
X83325000Y-64375000D01*
X83325000Y-64791410D01*
X83347166Y-64832004D01*
X83350000Y-64858362D01*
X83350000Y-66151000D01*
X83330315Y-66218039D01*
X83277511Y-66263794D01*
X83226000Y-66275000D01*
X82974000Y-66275000D01*
X82906961Y-66255315D01*
X82861206Y-66202511D01*
X82850000Y-66151000D01*
X82850000Y-65133589D01*
X82827834Y-65092996D01*
X82825000Y-65066638D01*
X82825000Y-63150000D01*
X83325000Y-63150000D01*
X83325000Y-63875000D01*
X84024999Y-63875000D01*
X84024999Y-63826692D01*
X84024998Y-63826677D01*
X84014855Y-63727392D01*
X83961547Y-63566518D01*
X83961542Y-63566507D01*
X83872575Y-63422271D01*
X83872572Y-63422267D01*
X83752732Y-63302427D01*
X83752728Y-63302424D01*
X83608492Y-63213457D01*
X83608481Y-63213452D01*
X83447606Y-63160144D01*
X83348322Y-63150000D01*
X83325000Y-63150000D01*
X82825000Y-63150000D01*
X82825000Y-63149999D01*
X82801693Y-63150000D01*
X82801674Y-63150001D01*
X82702392Y-63160144D01*
X82541518Y-63213452D01*
X82541507Y-63213457D01*
X82397271Y-63302424D01*
X82397267Y-63302427D01*
X82277424Y-63422270D01*
X82241649Y-63480270D01*
X82189701Y-63526993D01*
X82120738Y-63538214D01*
X82061802Y-63514438D01*
X81980230Y-63453374D01*
X81980227Y-63453373D01*
X81980226Y-63453372D01*
X81852114Y-63405588D01*
X81852112Y-63405587D01*
X81852110Y-63405587D01*
X81795493Y-63399500D01*
X81254518Y-63399500D01*
X81254509Y-63399501D01*
X81197885Y-63405587D01*
X81069773Y-63453372D01*
X80960313Y-63535313D01*
X80878373Y-63644771D01*
X80830587Y-63772889D01*
X80824500Y-63829498D01*
X80824500Y-64420481D01*
X80824501Y-64420490D01*
X80830587Y-64477114D01*
X80878372Y-64605226D01*
X80960314Y-64714688D01*
X81069774Y-64796628D01*
X81077562Y-64800881D01*
X81076813Y-64802252D01*
X81124763Y-64838143D01*
X81149184Y-64903606D01*
X81149500Y-64912459D01*
X81149500Y-64950500D01*
X81129815Y-65017539D01*
X81077011Y-65063294D01*
X81025500Y-65074500D01*
X80875323Y-65074500D01*
X80802264Y-65089032D01*
X80802260Y-65089033D01*
X80792890Y-65095295D01*
X80726212Y-65116172D01*
X80658832Y-65097687D01*
X80612143Y-65045708D01*
X80600000Y-64992192D01*
X80600000Y-64827172D01*
X80599999Y-64827155D01*
X80593598Y-64767627D01*
X80593596Y-64767620D01*
X80543354Y-64632913D01*
X80543350Y-64632906D01*
X80457191Y-64517814D01*
X80457185Y-64517807D01*
X80400188Y-64475139D01*
X80358318Y-64419205D01*
X80350500Y-64375873D01*
X80350500Y-63250323D01*
X80350499Y-63250321D01*
X80335967Y-63177264D01*
X80335966Y-63177262D01*
X80335966Y-63177260D01*
X80306901Y-63133760D01*
X80286024Y-63067086D01*
X80304508Y-62999705D01*
X80356487Y-62953015D01*
X80425457Y-62941839D01*
X80449008Y-62947166D01*
X80502392Y-62964855D01*
X80601683Y-62974999D01*
X80625000Y-62974998D01*
X80625000Y-62250000D01*
X81125000Y-62250000D01*
X81125000Y-62974999D01*
X81148308Y-62974999D01*
X81148322Y-62974998D01*
X81247607Y-62964855D01*
X81408481Y-62911547D01*
X81408492Y-62911542D01*
X81552728Y-62822575D01*
X81552732Y-62822572D01*
X81672572Y-62702732D01*
X81672575Y-62702728D01*
X81761542Y-62558492D01*
X81761547Y-62558481D01*
X81814855Y-62397606D01*
X81824999Y-62298322D01*
X81825000Y-62298309D01*
X81825000Y-62250000D01*
X81125000Y-62250000D01*
X80625000Y-62250000D01*
X80625000Y-61025000D01*
X81125000Y-61025000D01*
X81125000Y-61750000D01*
X81824999Y-61750000D01*
X81824999Y-61701692D01*
X81824998Y-61701677D01*
X81814855Y-61602392D01*
X81761547Y-61441518D01*
X81761542Y-61441507D01*
X81672575Y-61297271D01*
X81672572Y-61297267D01*
X81552732Y-61177427D01*
X81552728Y-61177424D01*
X81408492Y-61088457D01*
X81408481Y-61088452D01*
X81247606Y-61035144D01*
X81148322Y-61025000D01*
X81125000Y-61025000D01*
X80625000Y-61025000D01*
X80625000Y-61024999D01*
X80601693Y-61025000D01*
X80601674Y-61025001D01*
X80502392Y-61035144D01*
X80341518Y-61088452D01*
X80341507Y-61088457D01*
X80197271Y-61177424D01*
X80197267Y-61177427D01*
X80077424Y-61297270D01*
X80041649Y-61355270D01*
X79989701Y-61401993D01*
X79920738Y-61413214D01*
X79861802Y-61389438D01*
X79780230Y-61328374D01*
X79780227Y-61328373D01*
X79780226Y-61328372D01*
X79652114Y-61280588D01*
X79652112Y-61280587D01*
X79652110Y-61280587D01*
X79595493Y-61274500D01*
X79054518Y-61274500D01*
X79054509Y-61274501D01*
X78997885Y-61280587D01*
X78869773Y-61328372D01*
X78760313Y-61410313D01*
X78678373Y-61519771D01*
X78630587Y-61647889D01*
X78624500Y-61704498D01*
X78624500Y-62295481D01*
X78624501Y-62295490D01*
X78630587Y-62352114D01*
X78673308Y-62466649D01*
X78678372Y-62480226D01*
X78760313Y-62589687D01*
X78869774Y-62671628D01*
X78968836Y-62708577D01*
X79024767Y-62750447D01*
X79049184Y-62815911D01*
X79049500Y-62824757D01*
X79049500Y-62900500D01*
X79029815Y-62967539D01*
X78977011Y-63013294D01*
X78925500Y-63024500D01*
X78675323Y-63024500D01*
X78602264Y-63039032D01*
X78602257Y-63039035D01*
X78527136Y-63089228D01*
X78460458Y-63110105D01*
X78393078Y-63091619D01*
X78346389Y-63039640D01*
X78344157Y-63034383D01*
X78343350Y-63032906D01*
X78257190Y-62917812D01*
X78257187Y-62917809D01*
X78142093Y-62831649D01*
X78142086Y-62831645D01*
X78007379Y-62781403D01*
X78007372Y-62781401D01*
X77947844Y-62775000D01*
X77450000Y-62775000D01*
X77450000Y-64001000D01*
X77430315Y-64068039D01*
X77377511Y-64113794D01*
X77326000Y-64125000D01*
X76081000Y-64125000D01*
X76013961Y-64105315D01*
X75995559Y-64084078D01*
X75993319Y-64086319D01*
X75957000Y-64050000D01*
X74025001Y-64050000D01*
X74025001Y-64073322D01*
X74035144Y-64172607D01*
X74088452Y-64333481D01*
X74088457Y-64333492D01*
X74177424Y-64477728D01*
X74177427Y-64477732D01*
X74297266Y-64597571D01*
X74355268Y-64633347D01*
X74401992Y-64685295D01*
X74413215Y-64754258D01*
X74389439Y-64813195D01*
X74328374Y-64894769D01*
X74328372Y-64894773D01*
X74328372Y-64894774D01*
X74289311Y-64999500D01*
X74280587Y-65022889D01*
X74274500Y-65079498D01*
X74274500Y-65620481D01*
X74274501Y-65620490D01*
X74280587Y-65677114D01*
X74316348Y-65772989D01*
X74328372Y-65805226D01*
X74410313Y-65914687D01*
X74519774Y-65996628D01*
X74647886Y-66044412D01*
X74704515Y-66050500D01*
X75295484Y-66050499D01*
X75352114Y-66044412D01*
X75480226Y-65996628D01*
X75589687Y-65914687D01*
X75671628Y-65805226D01*
X75680602Y-65781163D01*
X75722473Y-65725233D01*
X75787937Y-65700816D01*
X75796783Y-65700500D01*
X76125500Y-65700500D01*
X76192539Y-65720185D01*
X76238294Y-65772989D01*
X76249500Y-65824500D01*
X76249500Y-66099678D01*
X76264032Y-66172735D01*
X76264033Y-66172739D01*
X76264034Y-66172740D01*
X76319399Y-66255601D01*
X76319400Y-66255601D01*
X76319401Y-66255603D01*
X76328035Y-66264237D01*
X76326266Y-66266005D01*
X76360061Y-66306440D01*
X76360693Y-66311473D01*
X76400762Y-66310668D01*
X76475324Y-66325500D01*
X76475326Y-66325500D01*
X76725500Y-66325500D01*
X76792539Y-66345185D01*
X76838294Y-66397989D01*
X76849500Y-66449500D01*
X76849500Y-66550788D01*
X76846861Y-66576232D01*
X76844957Y-66585311D01*
X76844957Y-66585316D01*
X76848548Y-66614121D01*
X76849396Y-66627795D01*
X76849499Y-66629032D01*
X76849500Y-66629037D01*
X76849500Y-66629040D01*
X76852666Y-66648015D01*
X76853403Y-66653077D01*
X76859426Y-66701390D01*
X76861524Y-66708435D01*
X76863907Y-66715379D01*
X76863908Y-66715381D01*
X76879238Y-66743708D01*
X76887082Y-66758203D01*
X76889421Y-66762747D01*
X76903547Y-66791643D01*
X76915306Y-66860515D01*
X76887962Y-66924812D01*
X76830198Y-66964119D01*
X76760352Y-66965957D01*
X76704465Y-66933783D01*
X76357637Y-66586955D01*
X76341511Y-66567098D01*
X76336437Y-66559331D01*
X76313524Y-66541497D01*
X76303248Y-66532422D01*
X76298392Y-66528309D01*
X76299576Y-66526910D01*
X76261388Y-66478210D01*
X76261116Y-66475321D01*
X76210985Y-66474781D01*
X76184410Y-66466869D01*
X76179532Y-66465306D01*
X76133484Y-66449498D01*
X76126287Y-66448297D01*
X76118951Y-66447382D01*
X76070332Y-66449394D01*
X76065207Y-66449500D01*
X72596544Y-66449500D01*
X72529505Y-66429815D01*
X72508863Y-66413181D01*
X70096819Y-64001137D01*
X70063334Y-63939814D01*
X70060500Y-63913456D01*
X70060500Y-63550000D01*
X74025000Y-63550000D01*
X74750000Y-63550000D01*
X75250000Y-63550000D01*
X75894000Y-63550000D01*
X75961039Y-63569685D01*
X75979440Y-63590921D01*
X75981681Y-63588681D01*
X76018000Y-63625000D01*
X76950000Y-63625000D01*
X76950000Y-62775000D01*
X76452155Y-62775000D01*
X76392627Y-62781401D01*
X76392620Y-62781403D01*
X76257913Y-62831645D01*
X76257906Y-62831649D01*
X76142812Y-62917809D01*
X76142809Y-62917812D01*
X76056649Y-63032906D01*
X76056643Y-63032917D01*
X76035898Y-63088537D01*
X75994027Y-63144471D01*
X75928562Y-63168887D01*
X75860289Y-63154035D01*
X75828140Y-63126914D01*
X75827680Y-63127375D01*
X75702732Y-63002427D01*
X75702728Y-63002424D01*
X75558492Y-62913457D01*
X75558481Y-62913452D01*
X75397606Y-62860144D01*
X75298322Y-62850000D01*
X75250000Y-62850000D01*
X75250000Y-63550000D01*
X74750000Y-63550000D01*
X74750000Y-62850000D01*
X74749999Y-62849999D01*
X74701693Y-62850000D01*
X74701675Y-62850001D01*
X74602392Y-62860144D01*
X74441518Y-62913452D01*
X74441507Y-62913457D01*
X74297271Y-63002424D01*
X74297267Y-63002427D01*
X74177427Y-63122267D01*
X74177424Y-63122271D01*
X74088457Y-63266507D01*
X74088452Y-63266518D01*
X74035144Y-63427393D01*
X74025000Y-63526677D01*
X74025000Y-63550000D01*
X70060500Y-63550000D01*
X70060500Y-60074500D01*
X70080185Y-60007461D01*
X70132989Y-59961706D01*
X70184500Y-59950500D01*
X70824676Y-59950500D01*
X70824677Y-59950499D01*
X70897740Y-59935966D01*
X70980601Y-59880601D01*
X71035966Y-59797740D01*
X71050500Y-59724674D01*
X71050500Y-59150000D01*
X77300000Y-59150000D01*
X77300000Y-59747844D01*
X77306401Y-59807372D01*
X77306403Y-59807379D01*
X77356645Y-59942086D01*
X77356649Y-59942093D01*
X77442809Y-60057187D01*
X77442812Y-60057190D01*
X77557906Y-60143350D01*
X77557913Y-60143354D01*
X77692620Y-60193596D01*
X77692627Y-60193598D01*
X77752155Y-60199999D01*
X77752172Y-60200000D01*
X78640000Y-60200000D01*
X78640000Y-59150000D01*
X79140000Y-59150000D01*
X79140000Y-60200000D01*
X80027828Y-60200000D01*
X80027844Y-60199999D01*
X80087372Y-60193598D01*
X80087379Y-60193596D01*
X80222086Y-60143354D01*
X80222093Y-60143350D01*
X80337187Y-60057190D01*
X80337190Y-60057187D01*
X80423350Y-59942093D01*
X80423354Y-59942086D01*
X80473596Y-59807379D01*
X80473598Y-59807372D01*
X80479999Y-59747844D01*
X80480000Y-59747827D01*
X80480000Y-59150000D01*
X79140000Y-59150000D01*
X78640000Y-59150000D01*
X77300000Y-59150000D01*
X71050500Y-59150000D01*
X71050500Y-58650000D01*
X77300000Y-58650000D01*
X78640000Y-58650000D01*
X78640000Y-57600000D01*
X79140000Y-57600000D01*
X79140000Y-58650000D01*
X80480000Y-58650000D01*
X80480000Y-58052172D01*
X80479999Y-58052155D01*
X80473598Y-57992627D01*
X80473596Y-57992620D01*
X80423354Y-57857913D01*
X80423350Y-57857906D01*
X80337190Y-57742812D01*
X80337187Y-57742809D01*
X80222093Y-57656649D01*
X80222086Y-57656645D01*
X80087379Y-57606403D01*
X80087372Y-57606401D01*
X80027844Y-57600000D01*
X79140000Y-57600000D01*
X78640000Y-57600000D01*
X77752155Y-57600000D01*
X77692627Y-57606401D01*
X77692620Y-57606403D01*
X77557913Y-57656645D01*
X77557906Y-57656649D01*
X77442812Y-57742809D01*
X77442809Y-57742812D01*
X77356649Y-57857906D01*
X77356645Y-57857913D01*
X77306403Y-57992620D01*
X77306401Y-57992627D01*
X77300000Y-58052155D01*
X77300000Y-58650000D01*
X71050500Y-58650000D01*
X71050500Y-58075326D01*
X71050500Y-58075323D01*
X71050499Y-58075321D01*
X71035967Y-58002264D01*
X71035966Y-58002260D01*
X71030283Y-57993755D01*
X70980601Y-57919399D01*
X70897740Y-57864034D01*
X70897739Y-57864033D01*
X70897735Y-57864032D01*
X70824677Y-57849500D01*
X70824674Y-57849500D01*
X68595326Y-57849500D01*
X68595323Y-57849500D01*
X68522264Y-57864032D01*
X68522260Y-57864033D01*
X68439399Y-57919399D01*
X68384033Y-58002260D01*
X68384032Y-58002264D01*
X68369500Y-58075321D01*
X68369500Y-59724678D01*
X63250499Y-59724678D01*
X63250499Y-59352128D01*
X63244091Y-59292517D01*
X63243932Y-59292092D01*
X63193797Y-59157671D01*
X63193793Y-59157664D01*
X63107547Y-59042455D01*
X63107544Y-59042452D01*
X62992335Y-58956206D01*
X62992328Y-58956202D01*
X62857482Y-58905908D01*
X62857483Y-58905908D01*
X62797883Y-58899501D01*
X62797881Y-58899500D01*
X62797873Y-58899500D01*
X62797864Y-58899500D01*
X61202129Y-58899500D01*
X61202123Y-58899501D01*
X61142516Y-58905908D01*
X61007671Y-58956202D01*
X61007664Y-58956206D01*
X60892455Y-59042452D01*
X60892452Y-59042455D01*
X60806206Y-59157664D01*
X60806202Y-59157671D01*
X60755908Y-59292517D01*
X60750355Y-59344171D01*
X60749501Y-59352123D01*
X60749500Y-59352135D01*
X60749500Y-60647870D01*
X60749501Y-60647879D01*
X60753540Y-60685452D01*
X60741133Y-60754211D01*
X60717931Y-60786385D01*
X60486955Y-61017361D01*
X60467106Y-61033482D01*
X60459331Y-61038562D01*
X60441499Y-61061472D01*
X60432394Y-61071784D01*
X60431624Y-61072694D01*
X60420439Y-61088359D01*
X60417378Y-61092463D01*
X60387482Y-61130873D01*
X60383980Y-61137344D01*
X60380760Y-61143932D01*
X60366871Y-61190582D01*
X60365309Y-61195457D01*
X60349499Y-61241513D01*
X60348296Y-61248717D01*
X60347382Y-61256048D01*
X60349394Y-61304667D01*
X60349500Y-61309792D01*
X60349500Y-70150788D01*
X60346861Y-70176232D01*
X60344957Y-70185311D01*
X60344957Y-70185316D01*
X60348548Y-70214121D01*
X60349396Y-70227795D01*
X60349499Y-70229032D01*
X60352666Y-70248015D01*
X60353403Y-70253077D01*
X60359426Y-70301390D01*
X60361524Y-70308435D01*
X60363907Y-70315379D01*
X60363908Y-70315381D01*
X60377061Y-70339685D01*
X60387082Y-70358203D01*
X60389421Y-70362747D01*
X60410802Y-70406484D01*
X60410804Y-70406486D01*
X60410805Y-70406488D01*
X60415062Y-70412451D01*
X60419583Y-70418259D01*
X60455398Y-70451230D01*
X60459096Y-70454778D01*
X60717931Y-70713613D01*
X60751416Y-70774936D01*
X60753540Y-70814546D01*
X60749500Y-70852127D01*
X60749500Y-72147870D01*
X60749501Y-72147879D01*
X60753540Y-72185452D01*
X60741133Y-72254211D01*
X60717931Y-72286385D01*
X60486955Y-72517361D01*
X60467106Y-72533482D01*
X60459331Y-72538562D01*
X60441499Y-72561472D01*
X60432394Y-72571784D01*
X60431624Y-72572694D01*
X60420439Y-72588359D01*
X60417378Y-72592463D01*
X60387482Y-72630873D01*
X60383980Y-72637344D01*
X60380760Y-72643932D01*
X60366871Y-72690582D01*
X60365309Y-72695457D01*
X60349499Y-72741513D01*
X60348296Y-72748717D01*
X60347382Y-72756048D01*
X60349394Y-72804667D01*
X60349500Y-72809792D01*
X60349500Y-80650788D01*
X60346861Y-80676232D01*
X60344957Y-80685311D01*
X60344957Y-80685316D01*
X59500500Y-80685316D01*
X59500500Y-57447401D01*
X60745746Y-57447401D01*
X60755745Y-57657327D01*
X60805296Y-57861578D01*
X60805298Y-57861582D01*
X60892598Y-58052743D01*
X60892601Y-58052748D01*
X60892602Y-58052750D01*
X60892604Y-58052753D01*
X61014514Y-58223952D01*
X61014515Y-58223953D01*
X61014520Y-58223959D01*
X61166620Y-58368985D01*
X61261578Y-58430011D01*
X61343428Y-58482613D01*
X61538543Y-58560725D01*
X61641729Y-58580612D01*
X61744914Y-58600500D01*
X61744915Y-58600500D01*
X62202419Y-58600500D01*
X62202425Y-58600500D01*
X62359218Y-58585528D01*
X62560875Y-58526316D01*
X62747682Y-58430011D01*
X62912886Y-58300092D01*
X63050519Y-58141256D01*
X63050641Y-58141046D01*
X63136334Y-57992620D01*
X63155604Y-57959244D01*
X63224344Y-57760633D01*
X63254254Y-57552602D01*
X63244254Y-57342670D01*
X63194704Y-57138424D01*
X63178431Y-57102791D01*
X63107401Y-56947256D01*
X63107398Y-56947251D01*
X63107397Y-56947250D01*
X63107396Y-56947247D01*
X62985486Y-56776048D01*
X62985484Y-56776046D01*
X62985479Y-56776040D01*
X62833379Y-56631014D01*
X62656574Y-56517388D01*
X62461455Y-56439274D01*
X62255086Y-56399500D01*
X62255085Y-56399500D01*
X61797575Y-56399500D01*
X61640782Y-56414472D01*
X61640778Y-56414473D01*
X61439127Y-56473683D01*
X61252313Y-56569991D01*
X61087116Y-56699905D01*
X61087112Y-56699909D01*
X60949478Y-56858746D01*
X60844398Y-57040750D01*
X60775656Y-57239365D01*
X60775656Y-57239367D01*
X60748381Y-57429077D01*
X60745746Y-57447401D01*
X59500500Y-57447401D01*
X59500500Y-50271209D01*
X59520185Y-50204170D01*
X59572989Y-50158415D01*
X59642147Y-50148471D01*
X59705703Y-50177496D01*
X59727133Y-50201622D01*
X59908896Y-50469702D01*
X60031914Y-50614532D01*
X61202266Y-49444179D01*
X61365130Y-49634870D01*
X61555819Y-49797733D01*
X60382625Y-50970926D01*
X60382625Y-50970928D01*
X60392900Y-50980660D01*
X60673460Y-51193938D01*
X60673464Y-51193941D01*
X60975445Y-51375635D01*
X61295273Y-51523603D01*
X61629256Y-51636136D01*
X61973437Y-51711896D01*
X62323788Y-51749999D01*
X62323795Y-51750000D01*
X62676205Y-51750000D01*
X62676211Y-51749999D01*
X63026562Y-51711896D01*
X63370743Y-51636136D01*
X63704726Y-51523603D01*
X64024554Y-51375635D01*
X64326535Y-51193941D01*
X64326539Y-51193938D01*
X64607093Y-50980665D01*
X64607105Y-50980654D01*
X64617373Y-50970927D01*
X64617373Y-50970926D01*
X63444180Y-49797733D01*
X63634870Y-49634870D01*
X63797733Y-49444181D01*
X64968084Y-50614532D01*
X64968085Y-50614531D01*
X65091102Y-50469704D01*
X65288875Y-50178011D01*
X65453947Y-49866652D01*
X65453956Y-49866634D01*
X65584397Y-49539250D01*
X65584399Y-49539243D01*
X65678674Y-49199693D01*
X65678680Y-49199667D01*
X65735691Y-48851917D01*
X65735693Y-48851900D01*
X65754773Y-48500002D01*
X65754773Y-48499997D01*
X65735693Y-48148099D01*
X65735691Y-48148082D01*
X65678680Y-47800332D01*
X65678674Y-47800306D01*
X65664707Y-47750000D01*
X70650000Y-47750000D01*
X71566314Y-47750000D01*
X71540507Y-47790156D01*
X71500000Y-47928111D01*
X71500000Y-48071889D01*
X71540507Y-48209844D01*
X71566314Y-48250000D01*
X70650001Y-48250000D01*
X70650001Y-48799986D01*
X70660494Y-48902697D01*
X70715641Y-49069119D01*
X70715643Y-49069124D01*
X70807684Y-49218345D01*
X70931654Y-49342315D01*
X71080875Y-49434356D01*
X71080880Y-49434358D01*
X71247302Y-49489505D01*
X71247309Y-49489506D01*
X71350019Y-49499999D01*
X71749999Y-49499999D01*
X71750000Y-49499998D01*
X71750000Y-48435501D01*
X71857685Y-48484680D01*
X71964237Y-48500000D01*
X72035763Y-48500000D01*
X72142315Y-48484680D01*
X72250000Y-48435501D01*
X72250000Y-49499999D01*
X72649972Y-49499999D01*
X72649986Y-49499998D01*
X72752697Y-49489505D01*
X72919119Y-49434358D01*
X72919124Y-49434356D01*
X73068345Y-49342315D01*
X73192315Y-49218345D01*
X73284356Y-49069124D01*
X73284358Y-49069119D01*
X73339505Y-48902697D01*
X73339506Y-48902689D01*
X73348840Y-48811326D01*
X73375236Y-48746634D01*
X73432416Y-48706482D01*
X73502227Y-48703618D01*
X73562504Y-48738951D01*
X73569668Y-48747275D01*
X73699905Y-48912883D01*
X73699909Y-48912887D01*
X73858746Y-49050521D01*
X74040750Y-49155601D01*
X74040752Y-49155601D01*
X74040756Y-49155604D01*
X74239367Y-49224344D01*
X74447398Y-49254254D01*
X74657330Y-49244254D01*
X74861576Y-49194704D01*
X74869283Y-49191183D01*
X74938441Y-49181237D01*
X75001998Y-49210259D01*
X75008481Y-49216295D01*
X75548614Y-49756428D01*
X75565246Y-49777066D01*
X75567854Y-49781125D01*
X75567857Y-49781128D01*
X75605400Y-49813658D01*
X75611861Y-49819675D01*
X75621407Y-49829221D01*
X75621413Y-49829226D01*
X75621416Y-49829228D01*
X75632207Y-49837306D01*
X75639100Y-49842860D01*
X75676627Y-49875377D01*
X75681010Y-49877379D01*
X75703807Y-49890905D01*
X75707669Y-49893796D01*
X75754212Y-49911155D01*
X75762360Y-49914530D01*
X75789673Y-49927004D01*
X75807540Y-49935164D01*
X75807541Y-49935164D01*
X75807543Y-49935165D01*
X75812312Y-49935850D01*
X75838002Y-49942407D01*
X75842517Y-49944091D01*
X75892049Y-49947633D01*
X75900843Y-49948579D01*
X75914201Y-49950500D01*
X75927692Y-49950500D01*
X75936538Y-49950815D01*
X75986073Y-49954359D01*
X75990785Y-49953334D01*
X76017143Y-49950500D01*
X82982857Y-49950500D01*
X83009215Y-49953334D01*
X83013927Y-49954359D01*
X83063461Y-49950815D01*
X83072308Y-49950500D01*
X83085799Y-49950500D01*
X83099156Y-49948579D01*
X83107951Y-49947633D01*
X83157483Y-49944091D01*
X83161992Y-49942408D01*
X83187685Y-49935850D01*
X83192457Y-49935165D01*
X83237637Y-49914530D01*
X83245801Y-49911149D01*
X83292331Y-49893796D01*
X83296189Y-49890907D01*
X83318995Y-49877375D01*
X83323373Y-49875377D01*
X83360899Y-49842859D01*
X83367778Y-49837316D01*
X83378593Y-49829221D01*
X83388155Y-49819658D01*
X83394617Y-49813643D01*
X83432143Y-49781128D01*
X83434751Y-49777068D01*
X83451381Y-49756431D01*
X84012952Y-49194860D01*
X84074273Y-49161377D01*
X84141186Y-49165362D01*
X84239367Y-49199344D01*
X84447398Y-49229254D01*
X84657330Y-49219254D01*
X84861576Y-49169704D01*
X85020841Y-49096970D01*
X85052743Y-49082401D01*
X85052746Y-49082399D01*
X85052753Y-49082396D01*
X85223952Y-48960486D01*
X85269338Y-48912887D01*
X85368985Y-48808379D01*
X85368986Y-48808378D01*
X85482613Y-48631572D01*
X85498134Y-48592801D01*
X85541323Y-48537881D01*
X85607349Y-48515029D01*
X85675250Y-48531500D01*
X85723466Y-48582067D01*
X85725633Y-48586483D01*
X85826399Y-48802577D01*
X85826400Y-48802579D01*
X85961886Y-48996073D01*
X85961891Y-48996079D01*
X86128917Y-49163105D01*
X86322421Y-49298600D01*
X86536507Y-49398429D01*
X86536516Y-49398433D01*
X86750000Y-49455634D01*
X86750000Y-48408018D01*
X86864801Y-48460446D01*
X86966025Y-48475000D01*
X87033975Y-48475000D01*
X87135199Y-48460446D01*
X87250000Y-48408018D01*
X87250000Y-49455633D01*
X87463483Y-49398433D01*
X87463492Y-49398429D01*
X87677577Y-49298600D01*
X87677579Y-49298599D01*
X87871073Y-49163113D01*
X87871079Y-49163108D01*
X88038108Y-48996079D01*
X88038113Y-48996073D01*
X88173599Y-48802579D01*
X88173600Y-48802577D01*
X88273429Y-48588492D01*
X88273433Y-48588483D01*
X88334567Y-48360326D01*
X88334569Y-48360316D01*
X88344221Y-48250000D01*
X87403969Y-48250000D01*
X87436519Y-48199351D01*
X87475000Y-48068295D01*
X87475000Y-47931705D01*
X87436519Y-47800649D01*
X87403969Y-47750000D01*
X88344221Y-47750000D01*
X88334569Y-47639683D01*
X88334567Y-47639673D01*
X88273433Y-47411516D01*
X88273429Y-47411507D01*
X88173600Y-47197422D01*
X88173599Y-47197420D01*
X88038113Y-47003926D01*
X88038108Y-47003920D01*
X87871082Y-46836894D01*
X87677578Y-46701399D01*
X87463492Y-46601570D01*
X87463486Y-46601567D01*
X87250000Y-46544364D01*
X87250000Y-47591981D01*
X87135199Y-47539554D01*
X87033975Y-47525000D01*
X86966025Y-47525000D01*
X86864801Y-47539554D01*
X86750000Y-47591981D01*
X86750000Y-46544364D01*
X86749999Y-46544364D01*
X86536513Y-46601567D01*
X86536507Y-46601570D01*
X86322422Y-46701399D01*
X86322420Y-46701400D01*
X86128926Y-46836886D01*
X86128920Y-46836891D01*
X85961891Y-47003920D01*
X85961886Y-47003926D01*
X85826400Y-47197420D01*
X85826399Y-47197422D01*
X85725379Y-47414060D01*
X85679206Y-47466499D01*
X85612013Y-47485651D01*
X85545132Y-47465435D01*
X85502781Y-47418474D01*
X85430011Y-47277318D01*
X85408753Y-47250286D01*
X85300094Y-47112116D01*
X85300090Y-47112112D01*
X85141253Y-46974478D01*
X84959249Y-46869398D01*
X84959245Y-46869396D01*
X84959244Y-46869396D01*
X84760633Y-46800656D01*
X84552602Y-46770746D01*
X84552598Y-46770746D01*
X84342672Y-46780745D01*
X84138421Y-46830296D01*
X84138417Y-46830298D01*
X83947256Y-46917598D01*
X83947251Y-46917601D01*
X83776046Y-47039515D01*
X83776040Y-47039520D01*
X83631014Y-47191620D01*
X83517388Y-47368425D01*
X83439274Y-47563544D01*
X83415723Y-47685742D01*
X83399500Y-47769915D01*
X83399500Y-48177425D01*
X83412566Y-48314258D01*
X83412710Y-48315764D01*
X83399486Y-48384371D01*
X83376953Y-48415232D01*
X83312178Y-48480006D01*
X83250858Y-48513490D01*
X83181166Y-48508506D01*
X83125232Y-48466635D01*
X83100815Y-48401171D01*
X83100499Y-48392324D01*
X83100499Y-47227129D01*
X83100498Y-47227123D01*
X83100497Y-47227116D01*
X83094091Y-47167517D01*
X83093757Y-47166622D01*
X83043797Y-47032671D01*
X83043793Y-47032664D01*
X82957547Y-46917455D01*
X82957544Y-46917452D01*
X82842335Y-46831206D01*
X82842328Y-46831202D01*
X82707482Y-46780908D01*
X82707483Y-46780908D01*
X82647883Y-46774501D01*
X82647881Y-46774500D01*
X82647873Y-46774500D01*
X82647864Y-46774500D01*
X81352129Y-46774500D01*
X81352123Y-46774501D01*
X81292516Y-46780908D01*
X81157671Y-46831202D01*
X81157664Y-46831206D01*
X81042455Y-46917452D01*
X81042452Y-46917455D01*
X80956206Y-47032664D01*
X80956202Y-47032671D01*
X80905908Y-47167517D01*
X80900462Y-47218180D01*
X80899501Y-47227123D01*
X80899500Y-47227135D01*
X80899500Y-48772870D01*
X80899501Y-48772872D01*
X80903733Y-48812246D01*
X80891328Y-48881005D01*
X80843717Y-48932142D01*
X80780444Y-48949500D01*
X76208676Y-48949500D01*
X76141637Y-48929815D01*
X76120995Y-48913181D01*
X75624796Y-48416982D01*
X75591311Y-48355659D01*
X75590718Y-48305835D01*
X75600500Y-48255085D01*
X75600500Y-47797575D01*
X75585528Y-47640782D01*
X75526316Y-47439125D01*
X75430011Y-47252318D01*
X75430009Y-47252316D01*
X75430008Y-47252313D01*
X75300094Y-47087116D01*
X75300090Y-47087112D01*
X75141253Y-46949478D01*
X74959249Y-46844398D01*
X74959245Y-46844396D01*
X74959244Y-46844396D01*
X74760633Y-46775656D01*
X74552602Y-46745746D01*
X74552598Y-46745746D01*
X74342672Y-46755745D01*
X74138421Y-46805296D01*
X74138417Y-46805298D01*
X73947256Y-46892598D01*
X73947251Y-46892601D01*
X73776046Y-47014515D01*
X73776040Y-47014520D01*
X73631014Y-47166620D01*
X73577245Y-47250286D01*
X73524441Y-47296041D01*
X73455282Y-47305984D01*
X73391726Y-47276958D01*
X73353953Y-47218180D01*
X73349572Y-47195847D01*
X73339505Y-47097303D01*
X73284358Y-46930880D01*
X73284356Y-46930875D01*
X73192315Y-46781654D01*
X73068345Y-46657684D01*
X72919124Y-46565643D01*
X72919119Y-46565641D01*
X72752697Y-46510494D01*
X72752690Y-46510493D01*
X72649986Y-46500000D01*
X72250000Y-46500000D01*
X72250000Y-47564498D01*
X72142315Y-47515320D01*
X72035763Y-47500000D01*
X71964237Y-47500000D01*
X71857685Y-47515320D01*
X71750000Y-47564498D01*
X71750000Y-46500000D01*
X71350028Y-46500000D01*
X71350012Y-46500001D01*
X71247302Y-46510494D01*
X71080880Y-46565641D01*
X71080875Y-46565643D01*
X70931654Y-46657684D01*
X70807684Y-46781654D01*
X70715643Y-46930875D01*
X70715641Y-46930880D01*
X70660494Y-47097302D01*
X70660493Y-47097309D01*
X70650000Y-47200013D01*
X70650000Y-47750000D01*
X65664707Y-47750000D01*
X65584399Y-47460756D01*
X65584397Y-47460749D01*
X65453956Y-47133365D01*
X65453947Y-47133347D01*
X65288875Y-46821988D01*
X65091099Y-46530291D01*
X64968085Y-46385467D01*
X64968084Y-46385466D01*
X63797732Y-47555818D01*
X63634870Y-47365130D01*
X63444179Y-47202266D01*
X64617374Y-46029072D01*
X64607099Y-46019340D01*
X64607087Y-46019330D01*
X64326539Y-45806061D01*
X64326522Y-45806049D01*
X64201372Y-45730750D01*
X64154077Y-45679321D01*
X64142094Y-45610487D01*
X64169229Y-45546101D01*
X64226865Y-45506607D01*
X64265300Y-45500500D01*
X109734700Y-45500500D01*
X109801739Y-45520185D01*
G37*
%TD.AperFunction*%
%TD*%
M02*
