%TF.GenerationSoftware,KiCad,Pcbnew,7.0.11-rc3*%
%TF.CreationDate,2025-03-16T23:26:39+08:00*%
%TF.ProjectId,dashboard,64617368-626f-4617-9264-2e6b69636164,rev?*%
%TF.SameCoordinates,Original*%
%TF.FileFunction,Paste,Bot*%
%TF.FilePolarity,Positive*%
%FSLAX46Y46*%
G04 Gerber Fmt 4.6, Leading zero omitted, Abs format (unit mm)*
G04 Created by KiCad (PCBNEW 7.0.11-rc3) date 2025-03-16 23:26:39*
%MOMM*%
%LPD*%
G01*
G04 APERTURE LIST*
G04 Aperture macros list*
%AMRoundRect*
0 Rectangle with rounded corners*
0 $1 Rounding radius*
0 $2 $3 $4 $5 $6 $7 $8 $9 X,Y pos of 4 corners*
0 Add a 4 corners polygon primitive as box body*
4,1,4,$2,$3,$4,$5,$6,$7,$8,$9,$2,$3,0*
0 Add four circle primitives for the rounded corners*
1,1,$1+$1,$2,$3*
1,1,$1+$1,$4,$5*
1,1,$1+$1,$6,$7*
1,1,$1+$1,$8,$9*
0 Add four rect primitives between the rounded corners*
20,1,$1+$1,$2,$3,$4,$5,0*
20,1,$1+$1,$4,$5,$6,$7,0*
20,1,$1+$1,$6,$7,$8,$9,0*
20,1,$1+$1,$8,$9,$2,$3,0*%
G04 Aperture macros list end*
%ADD10RoundRect,0.225000X-0.250000X0.225000X-0.250000X-0.225000X0.250000X-0.225000X0.250000X0.225000X0*%
%ADD11RoundRect,0.150000X0.587500X0.150000X-0.587500X0.150000X-0.587500X-0.150000X0.587500X-0.150000X0*%
%ADD12RoundRect,0.150000X-0.150000X0.587500X-0.150000X-0.587500X0.150000X-0.587500X0.150000X0.587500X0*%
%ADD13RoundRect,0.200000X-0.200000X-0.275000X0.200000X-0.275000X0.200000X0.275000X-0.200000X0.275000X0*%
%ADD14RoundRect,0.137500X0.587500X0.137500X-0.587500X0.137500X-0.587500X-0.137500X0.587500X-0.137500X0*%
%ADD15RoundRect,0.150000X0.512500X0.150000X-0.512500X0.150000X-0.512500X-0.150000X0.512500X-0.150000X0*%
%ADD16RoundRect,0.200000X0.275000X-0.200000X0.275000X0.200000X-0.275000X0.200000X-0.275000X-0.200000X0*%
%ADD17RoundRect,0.200000X0.200000X0.275000X-0.200000X0.275000X-0.200000X-0.275000X0.200000X-0.275000X0*%
%ADD18RoundRect,0.250000X-0.475000X0.250000X-0.475000X-0.250000X0.475000X-0.250000X0.475000X0.250000X0*%
%ADD19RoundRect,0.200000X-0.275000X0.200000X-0.275000X-0.200000X0.275000X-0.200000X0.275000X0.200000X0*%
G04 APERTURE END LIST*
D10*
%TO.C,C11*%
X106810000Y-84560000D03*
X106810000Y-86110000D03*
%TD*%
D11*
%TO.C,Q6*%
X66012500Y-75250000D03*
X66012500Y-77150000D03*
X64137500Y-76200000D03*
%TD*%
D12*
%TO.C,Q3*%
X66500000Y-87162500D03*
X68400000Y-87162500D03*
X67450000Y-89037500D03*
%TD*%
D13*
%TO.C,R6*%
X77150000Y-84962500D03*
X78800000Y-84962500D03*
%TD*%
D12*
%TO.C,Q2*%
X77050000Y-87225000D03*
X78950000Y-87225000D03*
X78000000Y-89100000D03*
%TD*%
D14*
%TO.C,U2*%
X108445000Y-68260000D03*
X108445000Y-70800000D03*
X102945000Y-70800000D03*
X102945000Y-68260000D03*
%TD*%
D13*
%TO.C,R17*%
X97985000Y-88935000D03*
X99635000Y-88935000D03*
%TD*%
D14*
%TO.C,U1*%
X108445000Y-58366625D03*
X108445000Y-60906625D03*
X102945000Y-60906625D03*
X102945000Y-58366625D03*
%TD*%
D15*
%TO.C,U5*%
X104137500Y-84650000D03*
X104137500Y-85600000D03*
X104137500Y-86550000D03*
X101862500Y-86550000D03*
X101862500Y-84650000D03*
%TD*%
D13*
%TO.C,R9*%
X66600000Y-84900000D03*
X68250000Y-84900000D03*
%TD*%
D11*
%TO.C,Q4*%
X66037500Y-53250000D03*
X66037500Y-55150000D03*
X64162500Y-54200000D03*
%TD*%
D13*
%TO.C,R4*%
X87550000Y-84800000D03*
X89200000Y-84800000D03*
%TD*%
%TO.C,R12*%
X60575000Y-54200000D03*
X62225000Y-54200000D03*
%TD*%
D16*
%TO.C,R5*%
X88400000Y-92525000D03*
X88400000Y-90875000D03*
%TD*%
D17*
%TO.C,R18*%
X103235000Y-88935000D03*
X101585000Y-88935000D03*
%TD*%
D14*
%TO.C,U3*%
X108445000Y-78566625D03*
X108445000Y-81106625D03*
X102945000Y-81106625D03*
X102945000Y-78566625D03*
%TD*%
D18*
%TO.C,C12*%
X98410000Y-84635000D03*
X98410000Y-86535000D03*
%TD*%
D13*
%TO.C,R3*%
X103470000Y-76036625D03*
X105120000Y-76036625D03*
%TD*%
%TO.C,R16*%
X60550000Y-76200000D03*
X62200000Y-76200000D03*
%TD*%
D19*
%TO.C,R15*%
X68275000Y-75350000D03*
X68275000Y-77000000D03*
%TD*%
D12*
%TO.C,Q1*%
X87450000Y-87062500D03*
X89350000Y-87062500D03*
X88400000Y-88937500D03*
%TD*%
D11*
%TO.C,Q5*%
X66037500Y-64750000D03*
X66037500Y-66650000D03*
X64162500Y-65700000D03*
%TD*%
D13*
%TO.C,R14*%
X60575000Y-65700000D03*
X62225000Y-65700000D03*
%TD*%
D16*
%TO.C,R10*%
X67450000Y-92625000D03*
X67450000Y-90975000D03*
%TD*%
D19*
%TO.C,R11*%
X68300000Y-53350000D03*
X68300000Y-55000000D03*
%TD*%
D16*
%TO.C,R8*%
X78000000Y-92687500D03*
X78000000Y-91037500D03*
%TD*%
D13*
%TO.C,R2*%
X103420000Y-65800000D03*
X105070000Y-65800000D03*
%TD*%
%TO.C,R1*%
X103545000Y-55936625D03*
X105195000Y-55936625D03*
%TD*%
D19*
%TO.C,R13*%
X68300000Y-64850000D03*
X68300000Y-66500000D03*
%TD*%
M02*
