%TF.GenerationSoftware,KiCad,Pcbnew,7.0.11-rc3*%
%TF.CreationDate,2025-03-16T23:26:39+08:00*%
%TF.ProjectId,dashboard,64617368-626f-4617-9264-2e6b69636164,rev?*%
%TF.SameCoordinates,Original*%
%TF.FileFunction,Paste,Top*%
%TF.FilePolarity,Positive*%
%FSLAX46Y46*%
G04 Gerber Fmt 4.6, Leading zero omitted, Abs format (unit mm)*
G04 Created by KiCad (PCBNEW 7.0.11-rc3) date 2025-03-16 23:26:39*
%MOMM*%
%LPD*%
G01*
G04 APERTURE LIST*
G04 Aperture macros list*
%AMRoundRect*
0 Rectangle with rounded corners*
0 $1 Rounding radius*
0 $2 $3 $4 $5 $6 $7 $8 $9 X,Y pos of 4 corners*
0 Add a 4 corners polygon primitive as box body*
4,1,4,$2,$3,$4,$5,$6,$7,$8,$9,$2,$3,0*
0 Add four circle primitives for the rounded corners*
1,1,$1+$1,$2,$3*
1,1,$1+$1,$4,$5*
1,1,$1+$1,$6,$7*
1,1,$1+$1,$8,$9*
0 Add four rect primitives between the rounded corners*
20,1,$1+$1,$2,$3,$4,$5,0*
20,1,$1+$1,$4,$5,$6,$7,0*
20,1,$1+$1,$6,$7,$8,$9,0*
20,1,$1+$1,$8,$9,$2,$3,0*%
G04 Aperture macros list end*
%ADD10RoundRect,0.225000X0.225000X0.250000X-0.225000X0.250000X-0.225000X-0.250000X0.225000X-0.250000X0*%
%ADD11RoundRect,0.150000X0.150000X-0.825000X0.150000X0.825000X-0.150000X0.825000X-0.150000X-0.825000X0*%
%ADD12RoundRect,0.243750X0.243750X0.456250X-0.243750X0.456250X-0.243750X-0.456250X0.243750X-0.456250X0*%
%ADD13RoundRect,0.225000X-0.225000X-0.250000X0.225000X-0.250000X0.225000X0.250000X-0.225000X0.250000X0*%
%ADD14RoundRect,0.250000X-0.250000X-0.475000X0.250000X-0.475000X0.250000X0.475000X-0.250000X0.475000X0*%
%ADD15R,2.180000X1.600000*%
%ADD16RoundRect,0.225000X0.250000X-0.225000X0.250000X0.225000X-0.250000X0.225000X-0.250000X-0.225000X0*%
%ADD17RoundRect,0.150000X0.150000X-0.512500X0.150000X0.512500X-0.150000X0.512500X-0.150000X-0.512500X0*%
%ADD18RoundRect,0.075000X-0.075000X0.662500X-0.075000X-0.662500X0.075000X-0.662500X0.075000X0.662500X0*%
%ADD19RoundRect,0.075000X-0.662500X0.075000X-0.662500X-0.075000X0.662500X-0.075000X0.662500X0.075000X0*%
%ADD20RoundRect,0.200000X0.275000X-0.200000X0.275000X0.200000X-0.275000X0.200000X-0.275000X-0.200000X0*%
%ADD21RoundRect,0.200000X-0.200000X-0.275000X0.200000X-0.275000X0.200000X0.275000X-0.200000X0.275000X0*%
%ADD22R,1.400000X1.200000*%
%ADD23R,1.200000X1.400000*%
%ADD24RoundRect,0.200000X-0.275000X0.200000X-0.275000X-0.200000X0.275000X-0.200000X0.275000X0.200000X0*%
%ADD25RoundRect,0.225000X-0.250000X0.225000X-0.250000X-0.225000X0.250000X-0.225000X0.250000X0.225000X0*%
G04 APERTURE END LIST*
D10*
%TO.C,C8*%
X75750000Y-69700000D03*
X74200000Y-69700000D03*
%TD*%
D11*
%TO.C,U6*%
X96595000Y-64474998D03*
X97865000Y-64474998D03*
X99135000Y-64474998D03*
X100405000Y-64474998D03*
X100405000Y-59524998D03*
X99135000Y-59524998D03*
X97865000Y-59524998D03*
X96595000Y-59524998D03*
%TD*%
D12*
%TO.C,D3*%
X105120000Y-79786625D03*
X103245000Y-79786625D03*
%TD*%
D10*
%TO.C,C17*%
X99200000Y-66725000D03*
X97650000Y-66725000D03*
%TD*%
D13*
%TO.C,C4*%
X81525000Y-64125000D03*
X83075000Y-64125000D03*
%TD*%
D14*
%TO.C,C14*%
X93637500Y-76812500D03*
X95537500Y-76812500D03*
%TD*%
D15*
%TO.C,SW1*%
X78890000Y-58900000D03*
X69710000Y-58900000D03*
%TD*%
D13*
%TO.C,C7*%
X83625000Y-71000000D03*
X85175000Y-71000000D03*
%TD*%
D16*
%TO.C,C15*%
X98395000Y-54674998D03*
X98395000Y-53124998D03*
%TD*%
D12*
%TO.C,D1*%
X105057500Y-59686625D03*
X103182500Y-59686625D03*
%TD*%
D17*
%TO.C,U7*%
X93700000Y-82200000D03*
X94650000Y-82200000D03*
X95600000Y-82200000D03*
X95600000Y-79925000D03*
X93700000Y-79925000D03*
%TD*%
D18*
%TO.C,U4*%
X81950000Y-71637500D03*
X81450000Y-71637500D03*
X80950000Y-71637500D03*
X80450000Y-71637500D03*
X79950000Y-71637500D03*
X79450000Y-71637500D03*
X78950000Y-71637500D03*
X78450000Y-71637500D03*
X77950000Y-71637500D03*
X77450000Y-71637500D03*
X76950000Y-71637500D03*
X76450000Y-71637500D03*
D19*
X75037500Y-73050000D03*
X75037500Y-73550000D03*
X75037500Y-74050000D03*
X75037500Y-74550000D03*
X75037500Y-75050000D03*
X75037500Y-75550000D03*
X75037500Y-76050000D03*
X75037500Y-76550000D03*
X75037500Y-77050000D03*
X75037500Y-77550000D03*
X75037500Y-78050000D03*
X75037500Y-78550000D03*
D18*
X76450000Y-79962500D03*
X76950000Y-79962500D03*
X77450000Y-79962500D03*
X77950000Y-79962500D03*
X78450000Y-79962500D03*
X78950000Y-79962500D03*
X79450000Y-79962500D03*
X79950000Y-79962500D03*
X80450000Y-79962500D03*
X80950000Y-79962500D03*
X81450000Y-79962500D03*
X81950000Y-79962500D03*
D19*
X83362500Y-78550000D03*
X83362500Y-78050000D03*
X83362500Y-77550000D03*
X83362500Y-77050000D03*
X83362500Y-76550000D03*
X83362500Y-76050000D03*
X83362500Y-75550000D03*
X83362500Y-75050000D03*
X83362500Y-74550000D03*
X83362500Y-74050000D03*
X83362500Y-73550000D03*
X83362500Y-73050000D03*
%TD*%
D20*
%TO.C,R19*%
X98187500Y-81662500D03*
X98187500Y-80012500D03*
%TD*%
D12*
%TO.C,D2*%
X105057500Y-69480000D03*
X103182500Y-69480000D03*
%TD*%
D16*
%TO.C,C3*%
X85000000Y-67875000D03*
X85000000Y-66325000D03*
%TD*%
D13*
%TO.C,C1*%
X79325000Y-62000000D03*
X80875000Y-62000000D03*
%TD*%
D21*
%TO.C,R21*%
X96045000Y-56424998D03*
X97695000Y-56424998D03*
%TD*%
D10*
%TO.C,C5*%
X75775000Y-68000000D03*
X74225000Y-68000000D03*
%TD*%
%TO.C,C10*%
X74350000Y-80000000D03*
X72800000Y-80000000D03*
%TD*%
D21*
%TO.C,R7*%
X77325000Y-69700000D03*
X78975000Y-69700000D03*
%TD*%
D22*
%TO.C,Y1*%
X79400000Y-63875000D03*
X77200000Y-63875000D03*
X77200000Y-65475000D03*
X79400000Y-65475000D03*
%TD*%
D13*
%TO.C,C13*%
X93637500Y-85412500D03*
X95187500Y-85412500D03*
%TD*%
D21*
%TO.C,R22*%
X99245000Y-56424998D03*
X100895000Y-56424998D03*
%TD*%
D23*
%TO.C,Y2*%
X83100000Y-68225000D03*
X83100000Y-66025000D03*
X81500000Y-66025000D03*
X81500000Y-68225000D03*
%TD*%
D24*
%TO.C,R20*%
X98187500Y-76162500D03*
X98187500Y-77812500D03*
%TD*%
D13*
%TO.C,C9*%
X85225000Y-72800000D03*
X86775000Y-72800000D03*
%TD*%
D16*
%TO.C,C2*%
X75000000Y-65350000D03*
X75000000Y-63800000D03*
%TD*%
D25*
%TO.C,C16*%
X102100000Y-61750000D03*
X102100000Y-63300000D03*
%TD*%
D13*
%TO.C,C6*%
X82025000Y-81800000D03*
X83575000Y-81800000D03*
%TD*%
M02*
