%TF.GenerationSoftware,KiCad,Pcbnew,7.0.11-rc3*%
%TF.CreationDate,2025-03-16T23:29:25+08:00*%
%TF.ProjectId,miniAIR,6d696e69-4149-4522-9e6b-696361645f70,rev?*%
%TF.SameCoordinates,Original*%
%TF.FileFunction,Legend,Top*%
%TF.FilePolarity,Positive*%
%FSLAX46Y46*%
G04 Gerber Fmt 4.6, Leading zero omitted, Abs format (unit mm)*
G04 Created by KiCad (PCBNEW 7.0.11-rc3) date 2025-03-16 23:29:25*
%MOMM*%
%LPD*%
G01*
G04 APERTURE LIST*
%ADD10C,0.100000*%
%ADD11C,0.150000*%
%ADD12C,0.300000*%
%ADD13C,0.120000*%
%ADD14C,0.050000*%
G04 APERTURE END LIST*
D10*
X116000000Y-63000000D02*
G75*
G03*
X110000000Y-63000000I-3000000J0D01*
G01*
X110000000Y-63000000D02*
G75*
G03*
X116000000Y-63000000I3000000J0D01*
G01*
X116000000Y-107000000D02*
G75*
G03*
X110000000Y-107000000I-3000000J0D01*
G01*
X110000000Y-107000000D02*
G75*
G03*
X116000000Y-107000000I3000000J0D01*
G01*
X190000000Y-107000000D02*
G75*
G03*
X184000000Y-107000000I-3000000J0D01*
G01*
X184000000Y-107000000D02*
G75*
G03*
X190000000Y-107000000I3000000J0D01*
G01*
X190000000Y-63000000D02*
G75*
G03*
X184000000Y-63000000I-3000000J0D01*
G01*
X184000000Y-63000000D02*
G75*
G03*
X190000000Y-63000000I3000000J0D01*
G01*
D11*
X179318295Y-108710839D02*
X178518295Y-108710839D01*
X178518295Y-108710839D02*
X179089723Y-108444173D01*
X179089723Y-108444173D02*
X178518295Y-108177506D01*
X178518295Y-108177506D02*
X179318295Y-108177506D01*
X179318295Y-107796553D02*
X178518295Y-107796553D01*
X179318295Y-107415601D02*
X178518295Y-107415601D01*
X178518295Y-107415601D02*
X179318295Y-106958458D01*
X179318295Y-106958458D02*
X178518295Y-106958458D01*
X179318295Y-106577506D02*
X178518295Y-106577506D01*
X179089723Y-105625126D02*
X179089723Y-105244173D01*
X179318295Y-105701316D02*
X178518295Y-105434649D01*
X178518295Y-105434649D02*
X179318295Y-105167983D01*
X179318295Y-104901316D02*
X178518295Y-104901316D01*
X179318295Y-104063221D02*
X178937342Y-104329888D01*
X179318295Y-104520364D02*
X178518295Y-104520364D01*
X178518295Y-104520364D02*
X178518295Y-104215602D01*
X178518295Y-104215602D02*
X178556390Y-104139412D01*
X178556390Y-104139412D02*
X178594485Y-104101317D01*
X178594485Y-104101317D02*
X178670676Y-104063221D01*
X178670676Y-104063221D02*
X178784961Y-104063221D01*
X178784961Y-104063221D02*
X178861152Y-104101317D01*
X178861152Y-104101317D02*
X178899247Y-104139412D01*
X178899247Y-104139412D02*
X178937342Y-104215602D01*
X178937342Y-104215602D02*
X178937342Y-104520364D01*
X180606295Y-108710839D02*
X180072961Y-108710839D01*
X180225342Y-108710839D02*
X180149152Y-108672744D01*
X180149152Y-108672744D02*
X180111057Y-108634649D01*
X180111057Y-108634649D02*
X180072961Y-108558458D01*
X180072961Y-108558458D02*
X180072961Y-108482268D01*
X180568200Y-107910839D02*
X180606295Y-107987030D01*
X180606295Y-107987030D02*
X180606295Y-108139411D01*
X180606295Y-108139411D02*
X180568200Y-108215601D01*
X180568200Y-108215601D02*
X180492009Y-108253697D01*
X180492009Y-108253697D02*
X180187247Y-108253697D01*
X180187247Y-108253697D02*
X180111057Y-108215601D01*
X180111057Y-108215601D02*
X180072961Y-108139411D01*
X180072961Y-108139411D02*
X180072961Y-107987030D01*
X180072961Y-107987030D02*
X180111057Y-107910839D01*
X180111057Y-107910839D02*
X180187247Y-107872744D01*
X180187247Y-107872744D02*
X180263438Y-107872744D01*
X180263438Y-107872744D02*
X180339628Y-108253697D01*
X180072961Y-107606078D02*
X180606295Y-107415602D01*
X180606295Y-107415602D02*
X180072961Y-107225125D01*
X180530104Y-106920363D02*
X180568200Y-106882268D01*
X180568200Y-106882268D02*
X180606295Y-106920363D01*
X180606295Y-106920363D02*
X180568200Y-106958459D01*
X180568200Y-106958459D02*
X180530104Y-106920363D01*
X180530104Y-106920363D02*
X180606295Y-106920363D01*
X179882485Y-105967983D02*
X179844390Y-105929887D01*
X179844390Y-105929887D02*
X179806295Y-105853697D01*
X179806295Y-105853697D02*
X179806295Y-105663221D01*
X179806295Y-105663221D02*
X179844390Y-105587030D01*
X179844390Y-105587030D02*
X179882485Y-105548935D01*
X179882485Y-105548935D02*
X179958676Y-105510840D01*
X179958676Y-105510840D02*
X180034866Y-105510840D01*
X180034866Y-105510840D02*
X180149152Y-105548935D01*
X180149152Y-105548935D02*
X180606295Y-106006078D01*
X180606295Y-106006078D02*
X180606295Y-105510840D01*
X179806295Y-105015601D02*
X179806295Y-104939411D01*
X179806295Y-104939411D02*
X179844390Y-104863220D01*
X179844390Y-104863220D02*
X179882485Y-104825125D01*
X179882485Y-104825125D02*
X179958676Y-104787030D01*
X179958676Y-104787030D02*
X180111057Y-104748935D01*
X180111057Y-104748935D02*
X180301533Y-104748935D01*
X180301533Y-104748935D02*
X180453914Y-104787030D01*
X180453914Y-104787030D02*
X180530104Y-104825125D01*
X180530104Y-104825125D02*
X180568200Y-104863220D01*
X180568200Y-104863220D02*
X180606295Y-104939411D01*
X180606295Y-104939411D02*
X180606295Y-105015601D01*
X180606295Y-105015601D02*
X180568200Y-105091792D01*
X180568200Y-105091792D02*
X180530104Y-105129887D01*
X180530104Y-105129887D02*
X180453914Y-105167982D01*
X180453914Y-105167982D02*
X180301533Y-105206078D01*
X180301533Y-105206078D02*
X180111057Y-105206078D01*
X180111057Y-105206078D02*
X179958676Y-105167982D01*
X179958676Y-105167982D02*
X179882485Y-105129887D01*
X179882485Y-105129887D02*
X179844390Y-105091792D01*
X179844390Y-105091792D02*
X179806295Y-105015601D01*
X179882485Y-104444173D02*
X179844390Y-104406077D01*
X179844390Y-104406077D02*
X179806295Y-104329887D01*
X179806295Y-104329887D02*
X179806295Y-104139411D01*
X179806295Y-104139411D02*
X179844390Y-104063220D01*
X179844390Y-104063220D02*
X179882485Y-104025125D01*
X179882485Y-104025125D02*
X179958676Y-103987030D01*
X179958676Y-103987030D02*
X180034866Y-103987030D01*
X180034866Y-103987030D02*
X180149152Y-104025125D01*
X180149152Y-104025125D02*
X180606295Y-104482268D01*
X180606295Y-104482268D02*
X180606295Y-103987030D01*
X179806295Y-103263220D02*
X179806295Y-103644172D01*
X179806295Y-103644172D02*
X180187247Y-103682268D01*
X180187247Y-103682268D02*
X180149152Y-103644172D01*
X180149152Y-103644172D02*
X180111057Y-103567982D01*
X180111057Y-103567982D02*
X180111057Y-103377506D01*
X180111057Y-103377506D02*
X180149152Y-103301315D01*
X180149152Y-103301315D02*
X180187247Y-103263220D01*
X180187247Y-103263220D02*
X180263438Y-103225125D01*
X180263438Y-103225125D02*
X180453914Y-103225125D01*
X180453914Y-103225125D02*
X180530104Y-103263220D01*
X180530104Y-103263220D02*
X180568200Y-103301315D01*
X180568200Y-103301315D02*
X180606295Y-103377506D01*
X180606295Y-103377506D02*
X180606295Y-103567982D01*
X180606295Y-103567982D02*
X180568200Y-103644172D01*
X180568200Y-103644172D02*
X180530104Y-103682268D01*
X180530104Y-102882267D02*
X180568200Y-102844172D01*
X180568200Y-102844172D02*
X180606295Y-102882267D01*
X180606295Y-102882267D02*
X180568200Y-102920363D01*
X180568200Y-102920363D02*
X180530104Y-102882267D01*
X180530104Y-102882267D02*
X180606295Y-102882267D01*
X180606295Y-102501315D02*
X180072961Y-102501315D01*
X179806295Y-102501315D02*
X179844390Y-102539411D01*
X179844390Y-102539411D02*
X179882485Y-102501315D01*
X179882485Y-102501315D02*
X179844390Y-102463220D01*
X179844390Y-102463220D02*
X179806295Y-102501315D01*
X179806295Y-102501315D02*
X179882485Y-102501315D01*
X180568200Y-101777506D02*
X180606295Y-101853697D01*
X180606295Y-101853697D02*
X180606295Y-102006078D01*
X180606295Y-102006078D02*
X180568200Y-102082268D01*
X180568200Y-102082268D02*
X180530104Y-102120363D01*
X180530104Y-102120363D02*
X180453914Y-102158459D01*
X180453914Y-102158459D02*
X180225342Y-102158459D01*
X180225342Y-102158459D02*
X180149152Y-102120363D01*
X180149152Y-102120363D02*
X180111057Y-102082268D01*
X180111057Y-102082268D02*
X180072961Y-102006078D01*
X180072961Y-102006078D02*
X180072961Y-101853697D01*
X180072961Y-101853697D02*
X180111057Y-101777506D01*
X180606295Y-101434649D02*
X179806295Y-101434649D01*
X180606295Y-101091792D02*
X180187247Y-101091792D01*
X180187247Y-101091792D02*
X180111057Y-101129887D01*
X180111057Y-101129887D02*
X180072961Y-101206078D01*
X180072961Y-101206078D02*
X180072961Y-101320364D01*
X180072961Y-101320364D02*
X180111057Y-101396554D01*
X180111057Y-101396554D02*
X180149152Y-101434649D01*
X180606295Y-100710839D02*
X180072961Y-100710839D01*
X179806295Y-100710839D02*
X179844390Y-100748935D01*
X179844390Y-100748935D02*
X179882485Y-100710839D01*
X179882485Y-100710839D02*
X179844390Y-100672744D01*
X179844390Y-100672744D02*
X179806295Y-100710839D01*
X179806295Y-100710839D02*
X179882485Y-100710839D01*
X181360961Y-108787030D02*
X181894295Y-108596554D01*
X181360961Y-108406077D02*
X181894295Y-108596554D01*
X181894295Y-108596554D02*
X182084771Y-108672744D01*
X182084771Y-108672744D02*
X182122866Y-108710839D01*
X182122866Y-108710839D02*
X182160961Y-108787030D01*
X181894295Y-108101315D02*
X181360961Y-108101315D01*
X181094295Y-108101315D02*
X181132390Y-108139411D01*
X181132390Y-108139411D02*
X181170485Y-108101315D01*
X181170485Y-108101315D02*
X181132390Y-108063220D01*
X181132390Y-108063220D02*
X181094295Y-108101315D01*
X181094295Y-108101315D02*
X181170485Y-108101315D01*
X181894295Y-107377506D02*
X181475247Y-107377506D01*
X181475247Y-107377506D02*
X181399057Y-107415601D01*
X181399057Y-107415601D02*
X181360961Y-107491792D01*
X181360961Y-107491792D02*
X181360961Y-107644173D01*
X181360961Y-107644173D02*
X181399057Y-107720363D01*
X181856200Y-107377506D02*
X181894295Y-107453697D01*
X181894295Y-107453697D02*
X181894295Y-107644173D01*
X181894295Y-107644173D02*
X181856200Y-107720363D01*
X181856200Y-107720363D02*
X181780009Y-107758459D01*
X181780009Y-107758459D02*
X181703819Y-107758459D01*
X181703819Y-107758459D02*
X181627628Y-107720363D01*
X181627628Y-107720363D02*
X181589533Y-107644173D01*
X181589533Y-107644173D02*
X181589533Y-107453697D01*
X181589533Y-107453697D02*
X181551438Y-107377506D01*
X181360961Y-106996553D02*
X181894295Y-106996553D01*
X181437152Y-106996553D02*
X181399057Y-106958458D01*
X181399057Y-106958458D02*
X181360961Y-106882268D01*
X181360961Y-106882268D02*
X181360961Y-106767982D01*
X181360961Y-106767982D02*
X181399057Y-106691791D01*
X181399057Y-106691791D02*
X181475247Y-106653696D01*
X181475247Y-106653696D02*
X181894295Y-106653696D01*
X181818104Y-106272743D02*
X181856200Y-106234648D01*
X181856200Y-106234648D02*
X181894295Y-106272743D01*
X181894295Y-106272743D02*
X181856200Y-106310839D01*
X181856200Y-106310839D02*
X181818104Y-106272743D01*
X181818104Y-106272743D02*
X181894295Y-106272743D01*
X181856200Y-105548934D02*
X181894295Y-105625125D01*
X181894295Y-105625125D02*
X181894295Y-105777506D01*
X181894295Y-105777506D02*
X181856200Y-105853696D01*
X181856200Y-105853696D02*
X181818104Y-105891791D01*
X181818104Y-105891791D02*
X181741914Y-105929887D01*
X181741914Y-105929887D02*
X181513342Y-105929887D01*
X181513342Y-105929887D02*
X181437152Y-105891791D01*
X181437152Y-105891791D02*
X181399057Y-105853696D01*
X181399057Y-105853696D02*
X181360961Y-105777506D01*
X181360961Y-105777506D02*
X181360961Y-105625125D01*
X181360961Y-105625125D02*
X181399057Y-105548934D01*
D10*
X113703884Y-70091466D02*
X114465789Y-70091466D01*
X114084836Y-70472419D02*
X114084836Y-69710514D01*
D12*
X175249757Y-76321427D02*
X175178328Y-76464285D01*
X175178328Y-76464285D02*
X175178328Y-76678570D01*
X175178328Y-76678570D02*
X175249757Y-76892856D01*
X175249757Y-76892856D02*
X175392614Y-77035713D01*
X175392614Y-77035713D02*
X175535471Y-77107142D01*
X175535471Y-77107142D02*
X175821185Y-77178570D01*
X175821185Y-77178570D02*
X176035471Y-77178570D01*
X176035471Y-77178570D02*
X176321185Y-77107142D01*
X176321185Y-77107142D02*
X176464042Y-77035713D01*
X176464042Y-77035713D02*
X176606900Y-76892856D01*
X176606900Y-76892856D02*
X176678328Y-76678570D01*
X176678328Y-76678570D02*
X176678328Y-76535713D01*
X176678328Y-76535713D02*
X176606900Y-76321427D01*
X176606900Y-76321427D02*
X176535471Y-76249999D01*
X176535471Y-76249999D02*
X176035471Y-76249999D01*
X176035471Y-76249999D02*
X176035471Y-76535713D01*
X175178328Y-75392856D02*
X175535471Y-75392856D01*
X175392614Y-75749999D02*
X175535471Y-75392856D01*
X175535471Y-75392856D02*
X175392614Y-75035713D01*
X175821185Y-75607142D02*
X175535471Y-75392856D01*
X175535471Y-75392856D02*
X175821185Y-75178570D01*
X175178328Y-74249999D02*
X175535471Y-74249999D01*
X175392614Y-74607142D02*
X175535471Y-74249999D01*
X175535471Y-74249999D02*
X175392614Y-73892856D01*
X175821185Y-74464285D02*
X175535471Y-74249999D01*
X175535471Y-74249999D02*
X175821185Y-74035713D01*
X175178328Y-73107142D02*
X175535471Y-73107142D01*
X175392614Y-73464285D02*
X175535471Y-73107142D01*
X175535471Y-73107142D02*
X175392614Y-72749999D01*
X175821185Y-73321428D02*
X175535471Y-73107142D01*
X175535471Y-73107142D02*
X175821185Y-72892856D01*
D10*
X155857419Y-96011904D02*
X156666942Y-96011904D01*
X156666942Y-96011904D02*
X156762180Y-95964285D01*
X156762180Y-95964285D02*
X156809800Y-95916666D01*
X156809800Y-95916666D02*
X156857419Y-95821428D01*
X156857419Y-95821428D02*
X156857419Y-95630952D01*
X156857419Y-95630952D02*
X156809800Y-95535714D01*
X156809800Y-95535714D02*
X156762180Y-95488095D01*
X156762180Y-95488095D02*
X156666942Y-95440476D01*
X156666942Y-95440476D02*
X155857419Y-95440476D01*
X155952657Y-95011904D02*
X155905038Y-94964285D01*
X155905038Y-94964285D02*
X155857419Y-94869047D01*
X155857419Y-94869047D02*
X155857419Y-94630952D01*
X155857419Y-94630952D02*
X155905038Y-94535714D01*
X155905038Y-94535714D02*
X155952657Y-94488095D01*
X155952657Y-94488095D02*
X156047895Y-94440476D01*
X156047895Y-94440476D02*
X156143133Y-94440476D01*
X156143133Y-94440476D02*
X156285990Y-94488095D01*
X156285990Y-94488095D02*
X156857419Y-95059523D01*
X156857419Y-95059523D02*
X156857419Y-94440476D01*
D11*
X115359580Y-79566666D02*
X115407200Y-79614285D01*
X115407200Y-79614285D02*
X115454819Y-79757142D01*
X115454819Y-79757142D02*
X115454819Y-79852380D01*
X115454819Y-79852380D02*
X115407200Y-79995237D01*
X115407200Y-79995237D02*
X115311961Y-80090475D01*
X115311961Y-80090475D02*
X115216723Y-80138094D01*
X115216723Y-80138094D02*
X115026247Y-80185713D01*
X115026247Y-80185713D02*
X114883390Y-80185713D01*
X114883390Y-80185713D02*
X114692914Y-80138094D01*
X114692914Y-80138094D02*
X114597676Y-80090475D01*
X114597676Y-80090475D02*
X114502438Y-79995237D01*
X114502438Y-79995237D02*
X114454819Y-79852380D01*
X114454819Y-79852380D02*
X114454819Y-79757142D01*
X114454819Y-79757142D02*
X114502438Y-79614285D01*
X114502438Y-79614285D02*
X114550057Y-79566666D01*
X115454819Y-78614285D02*
X115454819Y-79185713D01*
X115454819Y-78899999D02*
X114454819Y-78899999D01*
X114454819Y-78899999D02*
X114597676Y-78995237D01*
X114597676Y-78995237D02*
X114692914Y-79090475D01*
X114692914Y-79090475D02*
X114740533Y-79185713D01*
D10*
X133007419Y-86238094D02*
X132007419Y-86238094D01*
X133007419Y-85666666D02*
X132435990Y-86095237D01*
X132007419Y-85666666D02*
X132578847Y-86238094D01*
X133007419Y-84714285D02*
X133007419Y-85285713D01*
X133007419Y-84999999D02*
X132007419Y-84999999D01*
X132007419Y-84999999D02*
X132150276Y-85095237D01*
X132150276Y-85095237D02*
X132245514Y-85190475D01*
X132245514Y-85190475D02*
X132293133Y-85285713D01*
D11*
X121054819Y-80138094D02*
X120054819Y-80138094D01*
X120054819Y-80138094D02*
X120054819Y-79899999D01*
X120054819Y-79899999D02*
X120102438Y-79757142D01*
X120102438Y-79757142D02*
X120197676Y-79661904D01*
X120197676Y-79661904D02*
X120292914Y-79614285D01*
X120292914Y-79614285D02*
X120483390Y-79566666D01*
X120483390Y-79566666D02*
X120626247Y-79566666D01*
X120626247Y-79566666D02*
X120816723Y-79614285D01*
X120816723Y-79614285D02*
X120911961Y-79661904D01*
X120911961Y-79661904D02*
X121007200Y-79757142D01*
X121007200Y-79757142D02*
X121054819Y-79899999D01*
X121054819Y-79899999D02*
X121054819Y-80138094D01*
X120150057Y-79185713D02*
X120102438Y-79138094D01*
X120102438Y-79138094D02*
X120054819Y-79042856D01*
X120054819Y-79042856D02*
X120054819Y-78804761D01*
X120054819Y-78804761D02*
X120102438Y-78709523D01*
X120102438Y-78709523D02*
X120150057Y-78661904D01*
X120150057Y-78661904D02*
X120245295Y-78614285D01*
X120245295Y-78614285D02*
X120340533Y-78614285D01*
X120340533Y-78614285D02*
X120483390Y-78661904D01*
X120483390Y-78661904D02*
X121054819Y-79233332D01*
X121054819Y-79233332D02*
X121054819Y-78614285D01*
X117804819Y-82966666D02*
X117328628Y-83299999D01*
X117804819Y-83538094D02*
X116804819Y-83538094D01*
X116804819Y-83538094D02*
X116804819Y-83157142D01*
X116804819Y-83157142D02*
X116852438Y-83061904D01*
X116852438Y-83061904D02*
X116900057Y-83014285D01*
X116900057Y-83014285D02*
X116995295Y-82966666D01*
X116995295Y-82966666D02*
X117138152Y-82966666D01*
X117138152Y-82966666D02*
X117233390Y-83014285D01*
X117233390Y-83014285D02*
X117281009Y-83061904D01*
X117281009Y-83061904D02*
X117328628Y-83157142D01*
X117328628Y-83157142D02*
X117328628Y-83538094D01*
X117138152Y-82109523D02*
X117804819Y-82109523D01*
X116757200Y-82347618D02*
X117471485Y-82585713D01*
X117471485Y-82585713D02*
X117471485Y-81966666D01*
X122459819Y-87261094D02*
X121459819Y-87261094D01*
X121459819Y-87261094D02*
X121459819Y-87022999D01*
X121459819Y-87022999D02*
X121507438Y-86880142D01*
X121507438Y-86880142D02*
X121602676Y-86784904D01*
X121602676Y-86784904D02*
X121697914Y-86737285D01*
X121697914Y-86737285D02*
X121888390Y-86689666D01*
X121888390Y-86689666D02*
X122031247Y-86689666D01*
X122031247Y-86689666D02*
X122221723Y-86737285D01*
X122221723Y-86737285D02*
X122316961Y-86784904D01*
X122316961Y-86784904D02*
X122412200Y-86880142D01*
X122412200Y-86880142D02*
X122459819Y-87022999D01*
X122459819Y-87022999D02*
X122459819Y-87261094D01*
X122459819Y-85737285D02*
X122459819Y-86308713D01*
X122459819Y-86022999D02*
X121459819Y-86022999D01*
X121459819Y-86022999D02*
X121602676Y-86118237D01*
X121602676Y-86118237D02*
X121697914Y-86213475D01*
X121697914Y-86213475D02*
X121745533Y-86308713D01*
X120433333Y-77154819D02*
X120100000Y-76678628D01*
X119861905Y-77154819D02*
X119861905Y-76154819D01*
X119861905Y-76154819D02*
X120242857Y-76154819D01*
X120242857Y-76154819D02*
X120338095Y-76202438D01*
X120338095Y-76202438D02*
X120385714Y-76250057D01*
X120385714Y-76250057D02*
X120433333Y-76345295D01*
X120433333Y-76345295D02*
X120433333Y-76488152D01*
X120433333Y-76488152D02*
X120385714Y-76583390D01*
X120385714Y-76583390D02*
X120338095Y-76631009D01*
X120338095Y-76631009D02*
X120242857Y-76678628D01*
X120242857Y-76678628D02*
X119861905Y-76678628D01*
X121338095Y-76154819D02*
X120861905Y-76154819D01*
X120861905Y-76154819D02*
X120814286Y-76631009D01*
X120814286Y-76631009D02*
X120861905Y-76583390D01*
X120861905Y-76583390D02*
X120957143Y-76535771D01*
X120957143Y-76535771D02*
X121195238Y-76535771D01*
X121195238Y-76535771D02*
X121290476Y-76583390D01*
X121290476Y-76583390D02*
X121338095Y-76631009D01*
X121338095Y-76631009D02*
X121385714Y-76726247D01*
X121385714Y-76726247D02*
X121385714Y-76964342D01*
X121385714Y-76964342D02*
X121338095Y-77059580D01*
X121338095Y-77059580D02*
X121290476Y-77107200D01*
X121290476Y-77107200D02*
X121195238Y-77154819D01*
X121195238Y-77154819D02*
X120957143Y-77154819D01*
X120957143Y-77154819D02*
X120861905Y-77107200D01*
X120861905Y-77107200D02*
X120814286Y-77059580D01*
X122854819Y-82966666D02*
X122378628Y-83299999D01*
X122854819Y-83538094D02*
X121854819Y-83538094D01*
X121854819Y-83538094D02*
X121854819Y-83157142D01*
X121854819Y-83157142D02*
X121902438Y-83061904D01*
X121902438Y-83061904D02*
X121950057Y-83014285D01*
X121950057Y-83014285D02*
X122045295Y-82966666D01*
X122045295Y-82966666D02*
X122188152Y-82966666D01*
X122188152Y-82966666D02*
X122283390Y-83014285D01*
X122283390Y-83014285D02*
X122331009Y-83061904D01*
X122331009Y-83061904D02*
X122378628Y-83157142D01*
X122378628Y-83157142D02*
X122378628Y-83538094D01*
X121854819Y-82633332D02*
X121854819Y-82014285D01*
X121854819Y-82014285D02*
X122235771Y-82347618D01*
X122235771Y-82347618D02*
X122235771Y-82204761D01*
X122235771Y-82204761D02*
X122283390Y-82109523D01*
X122283390Y-82109523D02*
X122331009Y-82061904D01*
X122331009Y-82061904D02*
X122426247Y-82014285D01*
X122426247Y-82014285D02*
X122664342Y-82014285D01*
X122664342Y-82014285D02*
X122759580Y-82061904D01*
X122759580Y-82061904D02*
X122807200Y-82109523D01*
X122807200Y-82109523D02*
X122854819Y-82204761D01*
X122854819Y-82204761D02*
X122854819Y-82490475D01*
X122854819Y-82490475D02*
X122807200Y-82585713D01*
X122807200Y-82585713D02*
X122759580Y-82633332D01*
X115904761Y-91550057D02*
X115809523Y-91502438D01*
X115809523Y-91502438D02*
X115714285Y-91407200D01*
X115714285Y-91407200D02*
X115571428Y-91264342D01*
X115571428Y-91264342D02*
X115476190Y-91216723D01*
X115476190Y-91216723D02*
X115380952Y-91216723D01*
X115428571Y-91454819D02*
X115333333Y-91407200D01*
X115333333Y-91407200D02*
X115238095Y-91311961D01*
X115238095Y-91311961D02*
X115190476Y-91121485D01*
X115190476Y-91121485D02*
X115190476Y-90788152D01*
X115190476Y-90788152D02*
X115238095Y-90597676D01*
X115238095Y-90597676D02*
X115333333Y-90502438D01*
X115333333Y-90502438D02*
X115428571Y-90454819D01*
X115428571Y-90454819D02*
X115619047Y-90454819D01*
X115619047Y-90454819D02*
X115714285Y-90502438D01*
X115714285Y-90502438D02*
X115809523Y-90597676D01*
X115809523Y-90597676D02*
X115857142Y-90788152D01*
X115857142Y-90788152D02*
X115857142Y-91121485D01*
X115857142Y-91121485D02*
X115809523Y-91311961D01*
X115809523Y-91311961D02*
X115714285Y-91407200D01*
X115714285Y-91407200D02*
X115619047Y-91454819D01*
X115619047Y-91454819D02*
X115428571Y-91454819D01*
X116809523Y-91454819D02*
X116238095Y-91454819D01*
X116523809Y-91454819D02*
X116523809Y-90454819D01*
X116523809Y-90454819D02*
X116428571Y-90597676D01*
X116428571Y-90597676D02*
X116333333Y-90692914D01*
X116333333Y-90692914D02*
X116238095Y-90740533D01*
D10*
X155857419Y-75611904D02*
X156666942Y-75611904D01*
X156666942Y-75611904D02*
X156762180Y-75564285D01*
X156762180Y-75564285D02*
X156809800Y-75516666D01*
X156809800Y-75516666D02*
X156857419Y-75421428D01*
X156857419Y-75421428D02*
X156857419Y-75230952D01*
X156857419Y-75230952D02*
X156809800Y-75135714D01*
X156809800Y-75135714D02*
X156762180Y-75088095D01*
X156762180Y-75088095D02*
X156666942Y-75040476D01*
X156666942Y-75040476D02*
X155857419Y-75040476D01*
X156857419Y-74040476D02*
X156857419Y-74611904D01*
X156857419Y-74326190D02*
X155857419Y-74326190D01*
X155857419Y-74326190D02*
X156000276Y-74421428D01*
X156000276Y-74421428D02*
X156095514Y-74516666D01*
X156095514Y-74516666D02*
X156143133Y-74611904D01*
%TO.C,G\u002A\u002A\u002A*%
G36*
X175500311Y-74983125D02*
G01*
X175688300Y-74983136D01*
X175860758Y-74983162D01*
X176018360Y-74983209D01*
X176161778Y-74983283D01*
X176291685Y-74983390D01*
X176408755Y-74983537D01*
X176513662Y-74983729D01*
X176607079Y-74983973D01*
X176689678Y-74984274D01*
X176762134Y-74984640D01*
X176825120Y-74985075D01*
X176879308Y-74985587D01*
X176925374Y-74986181D01*
X176963988Y-74986863D01*
X176995827Y-74987640D01*
X177021561Y-74988518D01*
X177041865Y-74989502D01*
X177057413Y-74990600D01*
X177068877Y-74991816D01*
X177076931Y-74993158D01*
X177082248Y-74994631D01*
X177085501Y-74996242D01*
X177087365Y-74997996D01*
X177088274Y-74999445D01*
X177090578Y-75011989D01*
X177092541Y-75038608D01*
X177094154Y-75076629D01*
X177095409Y-75123379D01*
X177096294Y-75176184D01*
X177096802Y-75232373D01*
X177096922Y-75289270D01*
X177096645Y-75344205D01*
X177095961Y-75394503D01*
X177094861Y-75437491D01*
X177093335Y-75470496D01*
X177091375Y-75490845D01*
X177090042Y-75495784D01*
X177086262Y-75497030D01*
X177076192Y-75498173D01*
X177059257Y-75499215D01*
X177034883Y-75500159D01*
X177002495Y-75501006D01*
X176961521Y-75501761D01*
X176911385Y-75502426D01*
X176851514Y-75503002D01*
X176781333Y-75503494D01*
X176700270Y-75503904D01*
X176607748Y-75504234D01*
X176503196Y-75504487D01*
X176386038Y-75504666D01*
X176255700Y-75504773D01*
X176111608Y-75504812D01*
X175953189Y-75504784D01*
X175779869Y-75504694D01*
X175591072Y-75504542D01*
X175386226Y-75504332D01*
X175290653Y-75504222D01*
X173497973Y-75502093D01*
X173495735Y-75254176D01*
X173495255Y-75174203D01*
X173495427Y-75110160D01*
X173496278Y-75061114D01*
X173497835Y-75026129D01*
X173500123Y-75004272D01*
X173503097Y-74994691D01*
X173506286Y-74993341D01*
X173513942Y-74992096D01*
X173526691Y-74990953D01*
X173545160Y-74989908D01*
X173569977Y-74988955D01*
X173601769Y-74988092D01*
X173641162Y-74987315D01*
X173688785Y-74986619D01*
X173745264Y-74986000D01*
X173811226Y-74985454D01*
X173887298Y-74984977D01*
X173974108Y-74984566D01*
X174072283Y-74984215D01*
X174182450Y-74983922D01*
X174305236Y-74983681D01*
X174441268Y-74983489D01*
X174591173Y-74983343D01*
X174755579Y-74983237D01*
X174935113Y-74983168D01*
X175130401Y-74983131D01*
X175296118Y-74983123D01*
X175500311Y-74983125D01*
G37*
G36*
X176056836Y-72748987D02*
G01*
X177092791Y-72751130D01*
X177095158Y-72987409D01*
X177095614Y-73049776D01*
X177095717Y-73107337D01*
X177095486Y-73157721D01*
X177094943Y-73198560D01*
X177094108Y-73227483D01*
X177093003Y-73242121D01*
X177092887Y-73242674D01*
X177084110Y-73257388D01*
X177064880Y-73261660D01*
X177064501Y-73261661D01*
X177045722Y-73263068D01*
X177036356Y-73266058D01*
X177036652Y-73275632D01*
X177041560Y-73296702D01*
X177050039Y-73324865D01*
X177050822Y-73327237D01*
X177062343Y-73363733D01*
X177073173Y-73401043D01*
X177079755Y-73426213D01*
X177084294Y-73454451D01*
X177088038Y-73495293D01*
X177090875Y-73544479D01*
X177092689Y-73597748D01*
X177093367Y-73650840D01*
X177092795Y-73699496D01*
X177090857Y-73739456D01*
X177088694Y-73759535D01*
X177073289Y-73841720D01*
X177053773Y-73914014D01*
X177037695Y-73957841D01*
X177007731Y-74024744D01*
X176976477Y-74087114D01*
X176945571Y-74142026D01*
X176916655Y-74186558D01*
X176892671Y-74216427D01*
X176881100Y-74230041D01*
X176864847Y-74250717D01*
X176858322Y-74259347D01*
X176827218Y-74294563D01*
X176784312Y-74334112D01*
X176733158Y-74375327D01*
X176677310Y-74415541D01*
X176620323Y-74452087D01*
X176565753Y-74482299D01*
X176552724Y-74488634D01*
X176524239Y-74502126D01*
X176500320Y-74513610D01*
X176487440Y-74519951D01*
X176468334Y-74526429D01*
X176459900Y-74527442D01*
X176441499Y-74531241D01*
X176432361Y-74535090D01*
X176403102Y-74546449D01*
X176361106Y-74557597D01*
X176310505Y-74567833D01*
X176255429Y-74576455D01*
X176200013Y-74582760D01*
X176148388Y-74586045D01*
X176130797Y-74586355D01*
X176118019Y-74585536D01*
X176027619Y-74579742D01*
X175918753Y-74559956D01*
X175827010Y-74534050D01*
X175714937Y-74488536D01*
X175609167Y-74428287D01*
X175511259Y-74354763D01*
X175422770Y-74269426D01*
X175345258Y-74173737D01*
X175280279Y-74069157D01*
X175239631Y-73983156D01*
X175230104Y-73956571D01*
X175218406Y-73919011D01*
X175206077Y-73875964D01*
X175194662Y-73832918D01*
X175185701Y-73795362D01*
X175182579Y-73780123D01*
X175173785Y-73706787D01*
X175172027Y-73623565D01*
X175173924Y-73589278D01*
X175775550Y-73589278D01*
X175776263Y-73656513D01*
X175780967Y-73683038D01*
X175806722Y-73761533D01*
X175845461Y-73829477D01*
X175896843Y-73886429D01*
X175960528Y-73931947D01*
X175981352Y-73942996D01*
X176010999Y-73957238D01*
X176034134Y-73966412D01*
X176056111Y-73971620D01*
X176082288Y-73973964D01*
X176118019Y-73974547D01*
X176134579Y-73974537D01*
X176175412Y-73974127D01*
X176204764Y-73972361D01*
X176228029Y-73968143D01*
X176250601Y-73960376D01*
X176277874Y-73947962D01*
X176287004Y-73943545D01*
X176354613Y-73901783D01*
X176410446Y-73847943D01*
X176454530Y-73781994D01*
X176477880Y-73730032D01*
X176483285Y-73705634D01*
X176486723Y-73669947D01*
X176488143Y-73628453D01*
X176487494Y-73586629D01*
X176484728Y-73549957D01*
X176479793Y-73523915D01*
X176479774Y-73523855D01*
X176452310Y-73458793D01*
X176414798Y-73400037D01*
X176388911Y-73370320D01*
X176365649Y-73348856D01*
X176339823Y-73329733D01*
X176307596Y-73310537D01*
X176265135Y-73288854D01*
X176241850Y-73277728D01*
X176218239Y-73271400D01*
X176183009Y-73267594D01*
X176141231Y-73266303D01*
X176097973Y-73267520D01*
X176058302Y-73271236D01*
X176027289Y-73277444D01*
X176025316Y-73278054D01*
X175960777Y-73306799D01*
X175903447Y-73348035D01*
X175854793Y-73399331D01*
X175816281Y-73458257D01*
X175789378Y-73522383D01*
X175775550Y-73589278D01*
X175173924Y-73589278D01*
X175176888Y-73535712D01*
X175187949Y-73448481D01*
X175204792Y-73367130D01*
X175219415Y-73317611D01*
X175226124Y-73292952D01*
X175227943Y-73274803D01*
X175226315Y-73269384D01*
X175215474Y-73266354D01*
X175191425Y-73263515D01*
X175157837Y-73261203D01*
X175122265Y-73259846D01*
X175025349Y-73257442D01*
X175023115Y-73002143D01*
X175020882Y-72746844D01*
X176056836Y-72748987D01*
G37*
G36*
X177092879Y-75997824D02*
G01*
X177094010Y-76011017D01*
X177094872Y-76038715D01*
X177095445Y-76078550D01*
X177095708Y-76128149D01*
X177095638Y-76185145D01*
X177095216Y-76247167D01*
X177095158Y-76253123D01*
X177092791Y-76489402D01*
X177060455Y-76492062D01*
X177039708Y-76495119D01*
X177032425Y-76501020D01*
X177033882Y-76508939D01*
X177042314Y-76532424D01*
X177053175Y-76566274D01*
X177064648Y-76604522D01*
X177074916Y-76641200D01*
X177079301Y-76658173D01*
X177083286Y-76682560D01*
X177086892Y-76719685D01*
X177089950Y-76765410D01*
X177092291Y-76815595D01*
X177093746Y-76866104D01*
X177094146Y-76912797D01*
X177093321Y-76951537D01*
X177092058Y-76970399D01*
X177078222Y-77055425D01*
X177053982Y-77145046D01*
X177021440Y-77233089D01*
X176982702Y-77313383D01*
X176964677Y-77343968D01*
X176949953Y-77368596D01*
X176939811Y-77387940D01*
X176936678Y-77396709D01*
X176931518Y-77404779D01*
X176930059Y-77404983D01*
X176921820Y-77411541D01*
X176910095Y-77427676D01*
X176907936Y-77431229D01*
X176890267Y-77455908D01*
X176863003Y-77487857D01*
X176829538Y-77523569D01*
X176793266Y-77559536D01*
X176757580Y-77592251D01*
X176730210Y-77614907D01*
X176689299Y-77644414D01*
X176642703Y-77674750D01*
X176596623Y-77702061D01*
X176557257Y-77722493D01*
X176556856Y-77722678D01*
X176499962Y-77748174D01*
X176451727Y-77767620D01*
X176407267Y-77782397D01*
X176361695Y-77793889D01*
X176310128Y-77803479D01*
X176247680Y-77812547D01*
X176232060Y-77814602D01*
X176121824Y-77820903D01*
X176083106Y-77817982D01*
X176007821Y-77812302D01*
X175893028Y-77789367D01*
X175780421Y-77752667D01*
X175687774Y-77710621D01*
X175656555Y-77693807D01*
X175631575Y-77679208D01*
X175616285Y-77668903D01*
X175613234Y-77665761D01*
X175603581Y-77658344D01*
X175601445Y-77658140D01*
X175587424Y-77652284D01*
X175564470Y-77636224D01*
X175535031Y-77612214D01*
X175501554Y-77582511D01*
X175466488Y-77549373D01*
X175432281Y-77515055D01*
X175401380Y-77481814D01*
X175376233Y-77451908D01*
X175372600Y-77447176D01*
X175342828Y-77405413D01*
X175313574Y-77360255D01*
X175286479Y-77314685D01*
X175263184Y-77271689D01*
X175245327Y-77234249D01*
X175234549Y-77205350D01*
X175232093Y-77191523D01*
X175227988Y-77177027D01*
X175224662Y-77173546D01*
X175217065Y-77162429D01*
X175212858Y-77149842D01*
X175199251Y-77089574D01*
X175189136Y-77041938D01*
X175182002Y-77003170D01*
X175177336Y-76969509D01*
X175174627Y-76937191D01*
X175173363Y-76902452D01*
X175173032Y-76861530D01*
X175173030Y-76857074D01*
X175173987Y-76826826D01*
X175774916Y-76826826D01*
X175775937Y-76893470D01*
X175784017Y-76934935D01*
X175806985Y-77002176D01*
X175839122Y-77059529D01*
X175882166Y-77108833D01*
X175937856Y-77151931D01*
X176007928Y-77190662D01*
X176038528Y-77204549D01*
X176054681Y-77207424D01*
X176083106Y-77208782D01*
X176119281Y-77208760D01*
X176158683Y-77207496D01*
X176196788Y-77205125D01*
X176229073Y-77201786D01*
X176248937Y-77198190D01*
X176279722Y-77185743D01*
X176316693Y-77164319D01*
X176354779Y-77137516D01*
X176388912Y-77108931D01*
X176414019Y-77082162D01*
X176415806Y-77079769D01*
X176448076Y-77031318D01*
X176469467Y-76987698D01*
X176481990Y-76942849D01*
X176487655Y-76890710D01*
X176488537Y-76860579D01*
X176487412Y-76810533D01*
X176482205Y-76771367D01*
X176473343Y-76740485D01*
X176454534Y-76695711D01*
X176432356Y-76658525D01*
X176402683Y-76622798D01*
X176376381Y-76596460D01*
X176328236Y-76558833D01*
X176271504Y-76527786D01*
X176211496Y-76505578D01*
X176153523Y-76494469D01*
X176134726Y-76493621D01*
X176070611Y-76501341D01*
X176005654Y-76522989D01*
X175943552Y-76556300D01*
X175887997Y-76599011D01*
X175842687Y-76648855D01*
X175818786Y-76687284D01*
X175789093Y-76758850D01*
X175774916Y-76826826D01*
X175173987Y-76826826D01*
X175175870Y-76767269D01*
X175184848Y-76688679D01*
X175200669Y-76616538D01*
X175215599Y-76569006D01*
X175226078Y-76538836D01*
X175231220Y-76518074D01*
X175228959Y-76504885D01*
X175217232Y-76497434D01*
X175193972Y-76493886D01*
X175157118Y-76492406D01*
X175128721Y-76491771D01*
X175025349Y-76489402D01*
X175025349Y-76236246D01*
X175025349Y-75983090D01*
X176056791Y-75980947D01*
X177088233Y-75978804D01*
X177092879Y-75997824D01*
G37*
G36*
X176983235Y-70207056D02*
G01*
X177017360Y-70241567D01*
X177046875Y-70272309D01*
X177069848Y-70297198D01*
X177084349Y-70314148D01*
X177088571Y-70320778D01*
X177082814Y-70328686D01*
X177066515Y-70346931D01*
X177041137Y-70373982D01*
X177008141Y-70408309D01*
X176968987Y-70448384D01*
X176925137Y-70492676D01*
X176907143Y-70510698D01*
X176861838Y-70556298D01*
X176820666Y-70598377D01*
X176785093Y-70635386D01*
X176756580Y-70665780D01*
X176736591Y-70688011D01*
X176726591Y-70700532D01*
X176725714Y-70702437D01*
X176730008Y-70714563D01*
X176741210Y-70735853D01*
X176755249Y-70759065D01*
X176770484Y-70784056D01*
X176781150Y-70803795D01*
X176784784Y-70813377D01*
X176790275Y-70823793D01*
X176791288Y-70824330D01*
X176798446Y-70833916D01*
X176809280Y-70856152D01*
X176822445Y-70887575D01*
X176836594Y-70924723D01*
X176850382Y-70964133D01*
X176862463Y-71002341D01*
X176867798Y-71021229D01*
X176887067Y-71124747D01*
X176891497Y-71232750D01*
X176881539Y-71342579D01*
X176857645Y-71451573D01*
X176820265Y-71557072D01*
X176769850Y-71656416D01*
X176756435Y-71678150D01*
X176740815Y-71704032D01*
X176729753Y-71725151D01*
X176725714Y-71736633D01*
X176731478Y-71745003D01*
X176747794Y-71763679D01*
X176773197Y-71791113D01*
X176806226Y-71825758D01*
X176845415Y-71866067D01*
X176889302Y-71910495D01*
X176907143Y-71928372D01*
X176952424Y-71973890D01*
X176993576Y-72015786D01*
X177029139Y-72052528D01*
X177057651Y-72082588D01*
X177077652Y-72104437D01*
X177087679Y-72116544D01*
X177088571Y-72118292D01*
X177082864Y-72126782D01*
X177067029Y-72144998D01*
X177042995Y-72170859D01*
X177012692Y-72202280D01*
X176983060Y-72232189D01*
X176877549Y-72337447D01*
X176681382Y-72141423D01*
X176485216Y-71945398D01*
X176447242Y-71964512D01*
X176400170Y-71987159D01*
X176356614Y-72006169D01*
X176319723Y-72020297D01*
X176292648Y-72028295D01*
X176282633Y-72029635D01*
X176265320Y-72032354D01*
X176258121Y-72036867D01*
X176246550Y-72042497D01*
X176221158Y-72047512D01*
X176184993Y-72051785D01*
X176141104Y-72055188D01*
X176092538Y-72057594D01*
X176042344Y-72058875D01*
X175993570Y-72058904D01*
X175949266Y-72057554D01*
X175912480Y-72054697D01*
X175894518Y-72052063D01*
X175813056Y-72032069D01*
X175731516Y-72003843D01*
X175655157Y-71969526D01*
X175589235Y-71931258D01*
X175576942Y-71922729D01*
X175554427Y-71907393D01*
X175537173Y-71897183D01*
X175530589Y-71894618D01*
X175523177Y-71900385D01*
X175505232Y-71916809D01*
X175478119Y-71942571D01*
X175443197Y-71976352D01*
X175401830Y-72016836D01*
X175355379Y-72062703D01*
X175305206Y-72112636D01*
X175301803Y-72116036D01*
X175080266Y-72337455D01*
X174974751Y-72232193D01*
X174940600Y-72197672D01*
X174911056Y-72166945D01*
X174888048Y-72142087D01*
X174873504Y-72125177D01*
X174869236Y-72118569D01*
X174875002Y-72110908D01*
X174891429Y-72092707D01*
X174917208Y-72065326D01*
X174951033Y-72030125D01*
X174991595Y-71988463D01*
X175037586Y-71941700D01*
X175087700Y-71891196D01*
X175093832Y-71885045D01*
X175144188Y-71834283D01*
X175190408Y-71787151D01*
X175231212Y-71744995D01*
X175265318Y-71709164D01*
X175291447Y-71681004D01*
X175308317Y-71661862D01*
X175314648Y-71653087D01*
X175314632Y-71652782D01*
X175306066Y-71635215D01*
X175293241Y-71607198D01*
X175278411Y-71573852D01*
X175263829Y-71540298D01*
X175251746Y-71511657D01*
X175244682Y-71493787D01*
X175231233Y-71448555D01*
X175218890Y-71392599D01*
X175208684Y-71332074D01*
X175201644Y-71273132D01*
X175198799Y-71221928D01*
X175198785Y-71219535D01*
X175200316Y-71184610D01*
X175204510Y-71141332D01*
X175210537Y-71097862D01*
X175212088Y-71088738D01*
X175218661Y-71051225D01*
X175224553Y-71016866D01*
X175228795Y-70991342D01*
X175229750Y-70985287D01*
X175234734Y-70965035D01*
X175241085Y-70953410D01*
X175241464Y-70953145D01*
X175248137Y-70941616D01*
X175248970Y-70934879D01*
X175252574Y-70921653D01*
X175262232Y-70897602D01*
X175276212Y-70866877D01*
X175284218Y-70850434D01*
X175319466Y-70779616D01*
X175094351Y-70554385D01*
X175043750Y-70503540D01*
X174997121Y-70456265D01*
X174955770Y-70413917D01*
X174921007Y-70377855D01*
X174894140Y-70349438D01*
X174876476Y-70330024D01*
X174869325Y-70320972D01*
X174869236Y-70320641D01*
X174875061Y-70311221D01*
X174890887Y-70292854D01*
X174914242Y-70267964D01*
X174942653Y-70238971D01*
X174973647Y-70208299D01*
X175004751Y-70178369D01*
X175033493Y-70151604D01*
X175057400Y-70130424D01*
X175073999Y-70117253D01*
X175080115Y-70114086D01*
X175088730Y-70119860D01*
X175107801Y-70136291D01*
X175135914Y-70162041D01*
X175171651Y-70195774D01*
X175213595Y-70236152D01*
X175260330Y-70281840D01*
X175309293Y-70330357D01*
X175526150Y-70546627D01*
X175558440Y-70527179D01*
X175584030Y-70511393D01*
X175607291Y-70496453D01*
X175611827Y-70493420D01*
X175664061Y-70463370D01*
X175728574Y-70434897D01*
X175800773Y-70409819D01*
X175869203Y-70391501D01*
X175911225Y-70384673D01*
X175962863Y-70380596D01*
X176020590Y-70379114D01*
X176080875Y-70380071D01*
X176140189Y-70383308D01*
X176195003Y-70388668D01*
X176241788Y-70395996D01*
X176277014Y-70405133D01*
X176288905Y-70410180D01*
X176307937Y-70416818D01*
X176316445Y-70417874D01*
X176334941Y-70421581D01*
X176343985Y-70425274D01*
X176358207Y-70432330D01*
X176382894Y-70444461D01*
X176413338Y-70459355D01*
X176421570Y-70463372D01*
X176484502Y-70494070D01*
X176681201Y-70298021D01*
X176877899Y-70101973D01*
X176983235Y-70207056D01*
G37*
G36*
X177550244Y-68055930D02*
G01*
X177658961Y-68056059D01*
X177756052Y-68056297D01*
X177842269Y-68056656D01*
X177918360Y-68057145D01*
X177985077Y-68057777D01*
X178043169Y-68058561D01*
X178093386Y-68059510D01*
X178136480Y-68060633D01*
X178173199Y-68061942D01*
X178204295Y-68063447D01*
X178230518Y-68065160D01*
X178252617Y-68067092D01*
X178271343Y-68069253D01*
X178287447Y-68071654D01*
X178301678Y-68074307D01*
X178314786Y-68077222D01*
X178327523Y-68080410D01*
X178333256Y-68081917D01*
X178368517Y-68092501D01*
X178406475Y-68105901D01*
X178443495Y-68120580D01*
X178475946Y-68135001D01*
X178500195Y-68147629D01*
X178512609Y-68156927D01*
X178513278Y-68158057D01*
X178522937Y-68164672D01*
X178524516Y-68164784D01*
X178539183Y-68170752D01*
X178562238Y-68187000D01*
X178591023Y-68211042D01*
X178622886Y-68240393D01*
X178655172Y-68272569D01*
X178685225Y-68305085D01*
X178710391Y-68335455D01*
X178718330Y-68346213D01*
X178746895Y-68390486D01*
X178771535Y-68437785D01*
X178793712Y-68491623D01*
X178814890Y-68555514D01*
X178834617Y-68625702D01*
X178838343Y-68647833D01*
X178841789Y-68682622D01*
X178844771Y-68725851D01*
X178847108Y-68773301D01*
X178848618Y-68820755D01*
X178849119Y-68863993D01*
X178848427Y-68898797D01*
X178847145Y-68915814D01*
X178826927Y-69015233D01*
X178791302Y-69113200D01*
X178741681Y-69206880D01*
X178679477Y-69293435D01*
X178634468Y-69343026D01*
X178548670Y-69417422D01*
X178452219Y-69479045D01*
X178368089Y-69518642D01*
X178342607Y-69528302D01*
X178323630Y-69532103D01*
X178307557Y-69528516D01*
X178290787Y-69516011D01*
X178269720Y-69493057D01*
X178248870Y-69467989D01*
X178223703Y-69437716D01*
X178195321Y-69404021D01*
X178178657Y-69384465D01*
X178157324Y-69359589D01*
X178138472Y-69337598D01*
X178127751Y-69325083D01*
X178115371Y-69310426D01*
X178096140Y-69287446D01*
X178073970Y-69260820D01*
X178071386Y-69257709D01*
X178049043Y-69230962D01*
X178029069Y-69207348D01*
X178015422Y-69191541D01*
X178014442Y-69190441D01*
X178003944Y-69173923D01*
X178001784Y-69162340D01*
X178009894Y-69153417D01*
X178029441Y-69139494D01*
X178056756Y-69123093D01*
X178067442Y-69117250D01*
X178122089Y-69085071D01*
X178176804Y-69047472D01*
X178227159Y-69007830D01*
X178268725Y-68969521D01*
X178285716Y-68950864D01*
X178314322Y-68909154D01*
X178333904Y-68864976D01*
X178342761Y-68822974D01*
X178341754Y-68797812D01*
X178335848Y-68771328D01*
X178327850Y-68743310D01*
X178319586Y-68719502D01*
X178312882Y-68705650D01*
X178312191Y-68704851D01*
X178305726Y-68695056D01*
X178295886Y-68677065D01*
X178295269Y-68675860D01*
X178280820Y-68656323D01*
X178258464Y-68634787D01*
X178246157Y-68625229D01*
X178232984Y-68615761D01*
X178221198Y-68607543D01*
X178209564Y-68600481D01*
X178196849Y-68594484D01*
X178181818Y-68589456D01*
X178163236Y-68585307D01*
X178139871Y-68581942D01*
X178110488Y-68579269D01*
X178073852Y-68577194D01*
X178028730Y-68575624D01*
X177973888Y-68574467D01*
X177908091Y-68573629D01*
X177830106Y-68573017D01*
X177738698Y-68572538D01*
X177632633Y-68572099D01*
X177536553Y-68571715D01*
X177436489Y-68571393D01*
X177341364Y-68571261D01*
X177252522Y-68571311D01*
X177171307Y-68571534D01*
X177099066Y-68571919D01*
X177037143Y-68572460D01*
X176986883Y-68573145D01*
X176949630Y-68573967D01*
X176926731Y-68574916D01*
X176919523Y-68575846D01*
X176918041Y-68587013D01*
X176920212Y-68609338D01*
X176924572Y-68633123D01*
X176929575Y-68666869D01*
X176933156Y-68712601D01*
X176935270Y-68765614D01*
X176935874Y-68821202D01*
X176934925Y-68874660D01*
X176932378Y-68921283D01*
X176928190Y-68956365D01*
X176927596Y-68959473D01*
X176917965Y-69003867D01*
X176907190Y-69048310D01*
X176896535Y-69087960D01*
X176887260Y-69117976D01*
X176883985Y-69126777D01*
X176874837Y-69149771D01*
X176869132Y-69164751D01*
X176832664Y-69246644D01*
X176783825Y-69330505D01*
X176725756Y-69411658D01*
X176661600Y-69485426D01*
X176637635Y-69509259D01*
X176570371Y-69566263D01*
X176493426Y-69619461D01*
X176411609Y-69666065D01*
X176329730Y-69703285D01*
X176265814Y-69724876D01*
X176240988Y-69731721D01*
X176218758Y-69737604D01*
X176197677Y-69742598D01*
X176176299Y-69746775D01*
X176153177Y-69750209D01*
X176126864Y-69752972D01*
X176095913Y-69755137D01*
X176058877Y-69756777D01*
X176014310Y-69757964D01*
X175960765Y-69758773D01*
X175896795Y-69759274D01*
X175820953Y-69759542D01*
X175731793Y-69759650D01*
X175627868Y-69759669D01*
X175574745Y-69759668D01*
X175021130Y-69759668D01*
X175021130Y-69511421D01*
X175021298Y-69447844D01*
X175021776Y-69389379D01*
X175022519Y-69338261D01*
X175023482Y-69296725D01*
X175024623Y-69267005D01*
X175025898Y-69251338D01*
X175026252Y-69249826D01*
X175028591Y-69247102D01*
X175034169Y-69244770D01*
X175044195Y-69242801D01*
X175059883Y-69241163D01*
X175082442Y-69239826D01*
X175113086Y-69238761D01*
X175153024Y-69237937D01*
X175203469Y-69237323D01*
X175265632Y-69236889D01*
X175340725Y-69236605D01*
X175429959Y-69236440D01*
X175534546Y-69236364D01*
X175564208Y-69236356D01*
X175674915Y-69236330D01*
X175770107Y-69236245D01*
X175851149Y-69236005D01*
X175919404Y-69235515D01*
X175976235Y-69234680D01*
X176023005Y-69233405D01*
X176061078Y-69231594D01*
X176091817Y-69229153D01*
X176116585Y-69225986D01*
X176136746Y-69221998D01*
X176153663Y-69217094D01*
X176168698Y-69211178D01*
X176183216Y-69204157D01*
X176198580Y-69195933D01*
X176206696Y-69191509D01*
X176276780Y-69144019D01*
X176335867Y-69083884D01*
X176383583Y-69011573D01*
X176419556Y-68927557D01*
X176421611Y-68921292D01*
X176426729Y-68894792D01*
X176429882Y-68856590D01*
X176431092Y-68811746D01*
X176430376Y-68765318D01*
X176427755Y-68722366D01*
X176423246Y-68687947D01*
X176420691Y-68676885D01*
X176409337Y-68648037D01*
X176392489Y-68617363D01*
X176373927Y-68591032D01*
X176359084Y-68576292D01*
X176349438Y-68575316D01*
X176324210Y-68574385D01*
X176284697Y-68573509D01*
X176232194Y-68572702D01*
X176167997Y-68571976D01*
X176093402Y-68571342D01*
X176009704Y-68570813D01*
X175918200Y-68570401D01*
X175820184Y-68570118D01*
X175716954Y-68569976D01*
X175685541Y-68569963D01*
X175020882Y-68569834D01*
X175023115Y-68314568D01*
X175025349Y-68059302D01*
X176611794Y-68056837D01*
X176806019Y-68056540D01*
X176984116Y-68056287D01*
X177146838Y-68056088D01*
X177294932Y-68055955D01*
X177429151Y-68055899D01*
X177550244Y-68055930D01*
G37*
G36*
X176034537Y-78223002D02*
G01*
X176153322Y-78223166D01*
X176270197Y-78223434D01*
X176383956Y-78223806D01*
X176493394Y-78224281D01*
X176597304Y-78224858D01*
X176694481Y-78225537D01*
X176783718Y-78226316D01*
X176863809Y-78227195D01*
X176933550Y-78228173D01*
X176991732Y-78229250D01*
X177037152Y-78230423D01*
X177068602Y-78231693D01*
X177084876Y-78233059D01*
X177086884Y-78233648D01*
X177089748Y-78241319D01*
X177092079Y-78258809D01*
X177093911Y-78287264D01*
X177095284Y-78327828D01*
X177096232Y-78381648D01*
X177096794Y-78449869D01*
X177097006Y-78533638D01*
X177097010Y-78548405D01*
X177096850Y-78634741D01*
X177096346Y-78705348D01*
X177095461Y-78761373D01*
X177094158Y-78803960D01*
X177092401Y-78834255D01*
X177090152Y-78853405D01*
X177087374Y-78862555D01*
X177086884Y-78863163D01*
X177078966Y-78866144D01*
X177061001Y-78868545D01*
X177031817Y-78870407D01*
X176990241Y-78871772D01*
X176935100Y-78872679D01*
X176865224Y-78873169D01*
X176795754Y-78873289D01*
X176728804Y-78873438D01*
X176667561Y-78873861D01*
X176613985Y-78874521D01*
X176570032Y-78875383D01*
X176537661Y-78876412D01*
X176518829Y-78877570D01*
X176514751Y-78878446D01*
X176519697Y-78886741D01*
X176533105Y-78905272D01*
X176552826Y-78931147D01*
X176572747Y-78956502D01*
X176643402Y-79050942D01*
X176706090Y-79147446D01*
X176764220Y-79251536D01*
X176802646Y-79328970D01*
X176823361Y-79372643D01*
X176838253Y-79404472D01*
X176848801Y-79427828D01*
X176856480Y-79446083D01*
X176862768Y-79462612D01*
X176869142Y-79480785D01*
X176869169Y-79480864D01*
X176878002Y-79505646D01*
X176885806Y-79526082D01*
X176886296Y-79527276D01*
X176895087Y-79552195D01*
X176907097Y-79591893D01*
X176921842Y-79644683D01*
X176938842Y-79708877D01*
X176944770Y-79731910D01*
X176953091Y-79770721D01*
X176961830Y-79822239D01*
X176970497Y-79882319D01*
X176978600Y-79946817D01*
X176985647Y-80011588D01*
X176991146Y-80072486D01*
X176994605Y-80125367D01*
X176995575Y-80160166D01*
X176992015Y-80258916D01*
X176981826Y-80365727D01*
X176965814Y-80476234D01*
X176944782Y-80586069D01*
X176919533Y-80690865D01*
X176890871Y-80786256D01*
X176869775Y-80843688D01*
X176817940Y-80964799D01*
X176764233Y-81073644D01*
X176706013Y-81174817D01*
X176640638Y-81272909D01*
X176566596Y-81371096D01*
X176454577Y-81499320D01*
X176329614Y-81618645D01*
X176194178Y-81727040D01*
X176050739Y-81822478D01*
X175945401Y-81881256D01*
X175825710Y-81938765D01*
X175708812Y-81986126D01*
X175591095Y-82024330D01*
X175468949Y-82054373D01*
X175338764Y-82077245D01*
X175196927Y-82093941D01*
X175160365Y-82097172D01*
X175117319Y-82100314D01*
X175108962Y-82100924D01*
X175064766Y-82102651D01*
X175022148Y-82102269D01*
X174975478Y-82099690D01*
X174919126Y-82094830D01*
X174902990Y-82093261D01*
X174816773Y-82084063D01*
X174743180Y-82074487D01*
X174677962Y-82063728D01*
X174616871Y-82050985D01*
X174555659Y-82035456D01*
X174490077Y-82016337D01*
X174481063Y-82013563D01*
X174410670Y-81990520D01*
X174345296Y-81966687D01*
X174288621Y-81943489D01*
X174244321Y-81922354D01*
X174240195Y-81920124D01*
X174214688Y-81906691D01*
X174194982Y-81897347D01*
X174186105Y-81894286D01*
X174173588Y-81889908D01*
X174149823Y-81877892D01*
X174117633Y-81859910D01*
X174079845Y-81837635D01*
X174039285Y-81812743D01*
X173998777Y-81786905D01*
X173961149Y-81761795D01*
X173953654Y-81756616D01*
X173807652Y-81645120D01*
X173674548Y-81522942D01*
X173554601Y-81390380D01*
X173448067Y-81247732D01*
X173355204Y-81095297D01*
X173312498Y-81012459D01*
X173291882Y-80969927D01*
X173276847Y-80938450D01*
X173265628Y-80913888D01*
X173256458Y-80892100D01*
X173247571Y-80868947D01*
X173237203Y-80840289D01*
X173227910Y-80814153D01*
X173202569Y-80739996D01*
X173181827Y-80672141D01*
X173164642Y-80606100D01*
X173149970Y-80537388D01*
X173136766Y-80461516D01*
X173123986Y-80373997D01*
X173121892Y-80358472D01*
X173118210Y-80317377D01*
X173116095Y-80262742D01*
X173115618Y-80197838D01*
X173116053Y-80172306D01*
X174700851Y-80172306D01*
X174702365Y-80214454D01*
X174706106Y-80249405D01*
X174710018Y-80266498D01*
X174745681Y-80350719D01*
X174792313Y-80422565D01*
X174849575Y-80481633D01*
X174917129Y-80527518D01*
X174937691Y-80537878D01*
X174982006Y-80555779D01*
X175029929Y-80570361D01*
X175076641Y-80580549D01*
X175117319Y-80585268D01*
X175144418Y-80584018D01*
X175169450Y-80579501D01*
X175198735Y-80574422D01*
X175202558Y-80573775D01*
X175271745Y-80553956D01*
X175338151Y-80519469D01*
X175399306Y-80472521D01*
X175452739Y-80415317D01*
X175495980Y-80350065D01*
X175523980Y-80286744D01*
X175530173Y-80260627D01*
X175534768Y-80225535D01*
X175537686Y-80185493D01*
X175538847Y-80144522D01*
X175538171Y-80106647D01*
X175535579Y-80075889D01*
X175530991Y-80056273D01*
X175528624Y-80052491D01*
X175520570Y-80036483D01*
X175519003Y-80025379D01*
X175514426Y-80008483D01*
X175502369Y-79982363D01*
X175485342Y-79951398D01*
X175465856Y-79919967D01*
X175446422Y-79892449D01*
X175434793Y-79878505D01*
X175404545Y-79849643D01*
X175368115Y-79820425D01*
X175331693Y-79795522D01*
X175306848Y-79781905D01*
X175285853Y-79769695D01*
X175272389Y-79757073D01*
X175270984Y-79754466D01*
X175269975Y-79743548D01*
X175269078Y-79717543D01*
X175268295Y-79678240D01*
X175267623Y-79627427D01*
X175267065Y-79566895D01*
X175266620Y-79498431D01*
X175266288Y-79423826D01*
X175266068Y-79344868D01*
X175265961Y-79263347D01*
X175265968Y-79181052D01*
X175266087Y-79099772D01*
X175266320Y-79021296D01*
X175266665Y-78947413D01*
X175267124Y-78879913D01*
X175267695Y-78820584D01*
X175268380Y-78771216D01*
X175269178Y-78733598D01*
X175270089Y-78709519D01*
X175270969Y-78700989D01*
X175273015Y-78698754D01*
X175277986Y-78696780D01*
X175286862Y-78695051D01*
X175300623Y-78693553D01*
X175320250Y-78692268D01*
X175346723Y-78691180D01*
X175381021Y-78690274D01*
X175424125Y-78689534D01*
X175477016Y-78688943D01*
X175540673Y-78688486D01*
X175616076Y-78688146D01*
X175704207Y-78687908D01*
X175806044Y-78687755D01*
X175922568Y-78687672D01*
X176054759Y-78687642D01*
X176088101Y-78687641D01*
X176203736Y-78687582D01*
X176314573Y-78687409D01*
X176419449Y-78687132D01*
X176517203Y-78686758D01*
X176606670Y-78686296D01*
X176686688Y-78685754D01*
X176756095Y-78685141D01*
X176813728Y-78684464D01*
X176858423Y-78683732D01*
X176889019Y-78682953D01*
X176904352Y-78682136D01*
X176905942Y-78681809D01*
X176907805Y-78671770D01*
X176909120Y-78647895D01*
X176909812Y-78613218D01*
X176909801Y-78570774D01*
X176909459Y-78544683D01*
X176907143Y-78413389D01*
X175930382Y-78411244D01*
X174953621Y-78409099D01*
X174953621Y-79086947D01*
X174953621Y-79764795D01*
X174894368Y-79805281D01*
X174825167Y-79861582D01*
X174770635Y-79926057D01*
X174730419Y-79999195D01*
X174709741Y-80058904D01*
X174704531Y-80088908D01*
X174701570Y-80128583D01*
X174700851Y-80172306D01*
X173116053Y-80172306D01*
X173116836Y-80126412D01*
X173119749Y-80044325D01*
X173123653Y-79975456D01*
X173128914Y-79916156D01*
X173135898Y-79862776D01*
X173144973Y-79811670D01*
X173151607Y-79780432D01*
X173159182Y-79745391D01*
X173165938Y-79712083D01*
X173170097Y-79689512D01*
X173175266Y-79667783D01*
X173181381Y-79654342D01*
X173182667Y-79653150D01*
X173188582Y-79642011D01*
X173190090Y-79630150D01*
X173193882Y-79606832D01*
X173204248Y-79571313D01*
X173219994Y-79526376D01*
X173239930Y-79474804D01*
X173262861Y-79419381D01*
X173287596Y-79362890D01*
X173312943Y-79308114D01*
X173337708Y-79257836D01*
X173360700Y-79214839D01*
X173380725Y-79181906D01*
X173384427Y-79176551D01*
X173395772Y-79158073D01*
X173400904Y-79144684D01*
X173400930Y-79144129D01*
X173406885Y-79135295D01*
X173409369Y-79134884D01*
X173417467Y-79128384D01*
X173417807Y-79125848D01*
X173422886Y-79113678D01*
X173437017Y-79090786D01*
X173458543Y-79059495D01*
X173485808Y-79022125D01*
X173517155Y-78980998D01*
X173550927Y-78938438D01*
X173555867Y-78932359D01*
X173587980Y-78894768D01*
X173626927Y-78851960D01*
X173669602Y-78807093D01*
X173712898Y-78763326D01*
X173753706Y-78723817D01*
X173788920Y-78691726D01*
X173809068Y-78674983D01*
X173834046Y-78655177D01*
X173857532Y-78635939D01*
X173863892Y-78630557D01*
X173898104Y-78603993D01*
X173944307Y-78572162D01*
X173999217Y-78536977D01*
X174059552Y-78500353D01*
X174122030Y-78464204D01*
X174183368Y-78430444D01*
X174240283Y-78400987D01*
X174289492Y-78377749D01*
X174316512Y-78366613D01*
X174335660Y-78358980D01*
X174360069Y-78348757D01*
X174362924Y-78347530D01*
X174427182Y-78323304D01*
X174505126Y-78299705D01*
X174593565Y-78277495D01*
X174689307Y-78257434D01*
X174789161Y-78240286D01*
X174846375Y-78232148D01*
X174865268Y-78230762D01*
X174899136Y-78229493D01*
X174946772Y-78228338D01*
X175006969Y-78227297D01*
X175078523Y-78226370D01*
X175160226Y-78225556D01*
X175250873Y-78224854D01*
X175349259Y-78224262D01*
X175454177Y-78223781D01*
X175564420Y-78223410D01*
X175678784Y-78223147D01*
X175796062Y-78222992D01*
X175915048Y-78222944D01*
X176034537Y-78223002D01*
G37*
D13*
%TO.C,J1*%
X114575000Y-101100000D02*
X115825000Y-101100000D01*
X114865000Y-100810000D02*
X120835000Y-100810000D01*
X120835000Y-100810000D02*
X120835000Y-93190000D01*
X114875000Y-100800000D02*
X115625000Y-100800000D01*
X115625000Y-100800000D02*
X115625000Y-99000000D01*
X117125000Y-100800000D02*
X117125000Y-100050000D01*
X117125000Y-100050000D02*
X120075000Y-100050000D01*
X120075000Y-100050000D02*
X120075000Y-97000000D01*
X114575000Y-99850000D02*
X114575000Y-101100000D01*
X114875000Y-99000000D02*
X114875000Y-100800000D01*
X115625000Y-99000000D02*
X114875000Y-99000000D01*
X114875000Y-97500000D02*
X115625000Y-97500000D01*
X115625000Y-97500000D02*
X115625000Y-96500000D01*
X114875000Y-96500000D02*
X114875000Y-97500000D01*
X115625000Y-96500000D02*
X114875000Y-96500000D01*
X114875000Y-95000000D02*
X115625000Y-95000000D01*
X115625000Y-95000000D02*
X115625000Y-93200000D01*
X117125000Y-93950000D02*
X120075000Y-93950000D01*
X120075000Y-93950000D02*
X120075000Y-97000000D01*
X114875000Y-93200000D02*
X114875000Y-95000000D01*
X115625000Y-93200000D02*
X114875000Y-93200000D01*
X117125000Y-93200000D02*
X117125000Y-93950000D01*
X114865000Y-93190000D02*
X114865000Y-100810000D01*
X120835000Y-93190000D02*
X114865000Y-93190000D01*
D14*
%TO.C,U2*%
X141500000Y-99050000D02*
X141500000Y-91250000D01*
X162300000Y-99050000D02*
X162300000Y-91250000D01*
D13*
X141660000Y-102870000D02*
X161980000Y-102870000D01*
X161980000Y-102870000D02*
X161980000Y-87630000D01*
X161980000Y-87630000D02*
X141660000Y-87630000D01*
X141660000Y-87630000D02*
X141660000Y-102870000D01*
%TO.C,C1*%
X115765000Y-79661252D02*
X115765000Y-79138748D01*
X117235000Y-79661252D02*
X117235000Y-79138748D01*
%TO.C,J2*%
X189030000Y-69565000D02*
X190030000Y-70565000D01*
X179910000Y-69565000D02*
X189030000Y-69565000D01*
X179910000Y-69565000D02*
X179910000Y-71990000D01*
X190030000Y-70565000D02*
X190030000Y-78435000D01*
X179910000Y-74010000D02*
X179910000Y-75348233D01*
X190030000Y-78435000D02*
X189030000Y-79435000D01*
X189030000Y-79435000D02*
X179910000Y-79435000D01*
X179910000Y-79435000D02*
X179910000Y-76651767D01*
%TO.C,J4*%
X114825000Y-75400000D02*
X116075000Y-75400000D01*
X115115000Y-75110000D02*
X121085000Y-75110000D01*
X121085000Y-75110000D02*
X121085000Y-67490000D01*
X115125000Y-75100000D02*
X115875000Y-75100000D01*
X115875000Y-75100000D02*
X115875000Y-73300000D01*
X117375000Y-75100000D02*
X117375000Y-74350000D01*
X117375000Y-74350000D02*
X120325000Y-74350000D01*
X120325000Y-74350000D02*
X120325000Y-71300000D01*
X114825000Y-74150000D02*
X114825000Y-75400000D01*
X115125000Y-73300000D02*
X115125000Y-75100000D01*
X115875000Y-73300000D02*
X115125000Y-73300000D01*
X115125000Y-71800000D02*
X115875000Y-71800000D01*
X115875000Y-71800000D02*
X115875000Y-70800000D01*
X115125000Y-70800000D02*
X115125000Y-71800000D01*
X115875000Y-70800000D02*
X115125000Y-70800000D01*
X115125000Y-69300000D02*
X115875000Y-69300000D01*
X115875000Y-69300000D02*
X115875000Y-67500000D01*
X117375000Y-68250000D02*
X120325000Y-68250000D01*
X120325000Y-68250000D02*
X120325000Y-71300000D01*
X115125000Y-67500000D02*
X115125000Y-69300000D01*
X115875000Y-67500000D02*
X115125000Y-67500000D01*
X117375000Y-67500000D02*
X117375000Y-68250000D01*
X115115000Y-67490000D02*
X115115000Y-75110000D01*
X121085000Y-67490000D02*
X115115000Y-67490000D01*
%TO.C,G\u002A\u002A\u002A*%
G36*
X177095068Y-88238949D02*
G01*
X177141203Y-88239749D01*
X177174110Y-88241213D01*
X177194670Y-88243366D01*
X177203681Y-88246163D01*
X177209419Y-88258446D01*
X177213264Y-88280324D01*
X177214862Y-88305687D01*
X177213863Y-88328431D01*
X177209914Y-88342448D01*
X177209271Y-88343208D01*
X177200298Y-88344529D01*
X177177434Y-88345729D01*
X177142666Y-88346767D01*
X177097977Y-88347598D01*
X177045352Y-88348182D01*
X176986777Y-88348474D01*
X176962846Y-88348500D01*
X176721712Y-88348500D01*
X176724059Y-88294922D01*
X176726406Y-88241344D01*
X176959603Y-88239238D01*
X177034828Y-88238787D01*
X177095068Y-88238949D01*
G37*
G36*
X177186200Y-92001379D02*
G01*
X177204010Y-92005793D01*
X177207752Y-92009239D01*
X177210017Y-92020734D01*
X177211693Y-92045205D01*
X177212797Y-92079762D01*
X177213347Y-92121517D01*
X177213360Y-92167581D01*
X177212855Y-92215066D01*
X177211848Y-92261084D01*
X177210358Y-92302746D01*
X177208402Y-92337163D01*
X177205997Y-92361447D01*
X177205586Y-92364118D01*
X177191673Y-92413415D01*
X177167905Y-92450864D01*
X177133544Y-92477615D01*
X177132403Y-92478231D01*
X177121174Y-92483836D01*
X177109666Y-92488107D01*
X177095632Y-92491226D01*
X177076826Y-92493373D01*
X177050999Y-92494728D01*
X177015906Y-92495471D01*
X176969298Y-92495783D01*
X176912938Y-92495844D01*
X176726406Y-92495844D01*
X176724059Y-92442266D01*
X176721712Y-92388687D01*
X176881080Y-92388687D01*
X176941107Y-92388381D01*
X176987300Y-92387378D01*
X177021692Y-92385554D01*
X177046313Y-92382783D01*
X177063195Y-92378941D01*
X177067974Y-92377186D01*
X177086179Y-92369168D01*
X177096440Y-92363861D01*
X177097101Y-92363296D01*
X177097746Y-92355024D01*
X177098673Y-92333160D01*
X177099806Y-92299985D01*
X177101070Y-92257778D01*
X177102391Y-92208818D01*
X177103054Y-92182312D01*
X177107406Y-92003719D01*
X177154295Y-92001301D01*
X177186200Y-92001379D01*
G37*
G36*
X176898684Y-97103607D02*
G01*
X176957917Y-97104028D01*
X177010613Y-97105194D01*
X177054467Y-97107011D01*
X177087178Y-97109380D01*
X177106441Y-97112204D01*
X177107034Y-97112362D01*
X177142677Y-97129644D01*
X177173651Y-97158189D01*
X177195294Y-97193389D01*
X177198847Y-97203154D01*
X177202413Y-97222709D01*
X177205510Y-97254816D01*
X177208060Y-97296156D01*
X177209990Y-97343411D01*
X177211221Y-97393262D01*
X177211679Y-97442392D01*
X177211287Y-97487482D01*
X177209970Y-97525212D01*
X177207651Y-97552266D01*
X177206943Y-97556770D01*
X177193809Y-97604504D01*
X177172888Y-97640089D01*
X177142270Y-97666124D01*
X177117293Y-97678729D01*
X177104368Y-97682856D01*
X177086547Y-97685987D01*
X177061757Y-97688239D01*
X177027924Y-97689733D01*
X176982977Y-97690587D01*
X176924843Y-97690921D01*
X176904892Y-97690937D01*
X176721712Y-97690937D01*
X176724059Y-97637359D01*
X176726406Y-97583781D01*
X176899764Y-97579812D01*
X176961886Y-97578642D01*
X177009978Y-97577259D01*
X177045821Y-97574063D01*
X177071201Y-97567456D01*
X177087900Y-97555841D01*
X177097701Y-97537618D01*
X177102388Y-97511188D01*
X177103746Y-97474954D01*
X177103556Y-97427316D01*
X177103438Y-97397250D01*
X177103726Y-97342996D01*
X177103402Y-97300983D01*
X177100683Y-97269612D01*
X177093785Y-97247287D01*
X177080924Y-97232407D01*
X177060318Y-97223374D01*
X177030182Y-97218590D01*
X176988733Y-97216455D01*
X176934189Y-97215372D01*
X176899764Y-97214687D01*
X176726406Y-97210719D01*
X176724059Y-97157141D01*
X176721712Y-97103562D01*
X176898684Y-97103607D01*
G37*
G36*
X176906622Y-92722237D02*
G01*
X176967006Y-92722422D01*
X177013754Y-92722952D01*
X177049106Y-92723979D01*
X177075298Y-92725655D01*
X177094570Y-92728132D01*
X177109160Y-92731564D01*
X177121306Y-92736102D01*
X177123281Y-92736991D01*
X177149536Y-92750971D01*
X177169982Y-92767304D01*
X177185354Y-92788084D01*
X177196388Y-92815409D01*
X177203820Y-92851375D01*
X177208387Y-92898077D01*
X177210824Y-92957612D01*
X177211405Y-92987969D01*
X177211744Y-93037244D01*
X177211358Y-93083968D01*
X177210328Y-93124611D01*
X177208738Y-93155646D01*
X177207172Y-93170838D01*
X177193796Y-93221562D01*
X177171927Y-93260187D01*
X177160338Y-93272508D01*
X177146387Y-93283508D01*
X177130356Y-93292082D01*
X177110166Y-93298526D01*
X177083735Y-93303133D01*
X177048984Y-93306200D01*
X177003833Y-93308022D01*
X176946202Y-93308895D01*
X176902653Y-93309089D01*
X176721712Y-93309437D01*
X176724059Y-93255859D01*
X176726406Y-93202281D01*
X176899764Y-93198312D01*
X176961886Y-93197142D01*
X177009978Y-93195759D01*
X177045821Y-93192563D01*
X177071201Y-93185956D01*
X177087900Y-93174341D01*
X177097701Y-93156118D01*
X177102388Y-93129688D01*
X177103746Y-93093454D01*
X177103556Y-93045816D01*
X177103438Y-93015750D01*
X177103726Y-92961496D01*
X177103402Y-92919483D01*
X177100683Y-92888112D01*
X177093785Y-92865787D01*
X177080924Y-92850907D01*
X177060318Y-92841874D01*
X177030182Y-92837089D01*
X176988733Y-92834955D01*
X176934189Y-92833872D01*
X176899764Y-92833187D01*
X176726406Y-92829219D01*
X176724059Y-92775641D01*
X176721712Y-92722062D01*
X176906622Y-92722237D01*
G37*
G36*
X176772047Y-98629168D02*
G01*
X176821656Y-98631531D01*
X176825625Y-98819781D01*
X176827006Y-98880069D01*
X176828406Y-98926479D01*
X176830003Y-98961007D01*
X176831977Y-98985648D01*
X176834505Y-99002398D01*
X176837767Y-99013253D01*
X176841940Y-99020209D01*
X176843745Y-99022187D01*
X176852264Y-99028291D01*
X176865449Y-99032612D01*
X176886130Y-99035560D01*
X176917140Y-99037546D01*
X176959205Y-99038927D01*
X177000208Y-99040161D01*
X177032325Y-99040398D01*
X177056677Y-99037943D01*
X177074384Y-99031102D01*
X177086567Y-99018178D01*
X177094345Y-98997478D01*
X177098840Y-98967307D01*
X177101172Y-98925970D01*
X177102462Y-98871773D01*
X177103438Y-98820762D01*
X177107406Y-98631531D01*
X177154295Y-98629114D01*
X177186200Y-98629191D01*
X177204010Y-98633605D01*
X177207752Y-98637051D01*
X177209803Y-98648132D01*
X177211383Y-98672302D01*
X177212501Y-98706784D01*
X177213166Y-98748798D01*
X177213387Y-98795568D01*
X177213172Y-98844313D01*
X177212532Y-98892257D01*
X177211474Y-98936621D01*
X177210008Y-98974627D01*
X177208143Y-99003496D01*
X177206523Y-99017270D01*
X177196972Y-99058310D01*
X177182650Y-99090371D01*
X177161782Y-99114453D01*
X177132593Y-99131560D01*
X177093307Y-99142694D01*
X177042149Y-99148855D01*
X176977343Y-99151048D01*
X176969421Y-99151089D01*
X176911160Y-99150477D01*
X176866080Y-99147864D01*
X176831551Y-99142685D01*
X176804942Y-99134376D01*
X176783624Y-99122373D01*
X176766358Y-99107517D01*
X176753729Y-99093575D01*
X176743754Y-99078542D01*
X176736128Y-99060427D01*
X176730544Y-99037238D01*
X176726693Y-99006984D01*
X176724269Y-98967676D01*
X176722966Y-98917320D01*
X176722475Y-98853927D01*
X176722438Y-98822716D01*
X176722438Y-98626805D01*
X176772047Y-98629168D01*
G37*
G36*
X176772047Y-96057418D02*
G01*
X176821656Y-96059781D01*
X176825625Y-96245044D01*
X176826928Y-96303905D01*
X176828144Y-96348948D01*
X176829506Y-96382229D01*
X176831248Y-96405801D01*
X176833601Y-96421720D01*
X176836799Y-96432040D01*
X176841074Y-96438815D01*
X176846660Y-96444101D01*
X176848332Y-96445466D01*
X176869755Y-96456267D01*
X176893973Y-96460625D01*
X176920875Y-96460625D01*
X176920875Y-96267744D01*
X176921135Y-96200974D01*
X176921953Y-96148914D01*
X176923381Y-96110405D01*
X176925476Y-96084289D01*
X176928291Y-96069408D01*
X176930400Y-96065337D01*
X176944629Y-96058611D01*
X176965465Y-96055813D01*
X176965470Y-96055812D01*
X176980793Y-96055748D01*
X176992673Y-96056746D01*
X177001547Y-96060595D01*
X177007851Y-96069082D01*
X177012023Y-96083996D01*
X177014500Y-96107124D01*
X177015719Y-96140254D01*
X177016117Y-96185173D01*
X177016130Y-96243671D01*
X177016125Y-96263037D01*
X177016125Y-96460625D01*
X177105819Y-96460625D01*
X177153386Y-96461550D01*
X177185988Y-96464301D01*
X177203259Y-96468843D01*
X177205038Y-96470150D01*
X177210093Y-96482705D01*
X177213370Y-96504610D01*
X177214602Y-96529798D01*
X177213521Y-96552201D01*
X177209862Y-96565749D01*
X177209271Y-96566458D01*
X177199373Y-96568590D01*
X177176324Y-96570167D01*
X177142835Y-96571213D01*
X177101619Y-96571755D01*
X177055389Y-96571817D01*
X177006856Y-96571424D01*
X176958735Y-96570602D01*
X176913736Y-96569375D01*
X176874573Y-96567769D01*
X176843959Y-96565809D01*
X176824604Y-96563520D01*
X176821749Y-96562873D01*
X176786875Y-96545708D01*
X176756749Y-96516997D01*
X176735580Y-96481058D01*
X176731968Y-96470750D01*
X176728293Y-96449165D01*
X176725496Y-96412069D01*
X176723591Y-96359804D01*
X176722594Y-96292710D01*
X176722438Y-96246997D01*
X176722438Y-96055055D01*
X176772047Y-96057418D01*
G37*
G36*
X177186710Y-88556894D02*
G01*
X177203117Y-88562807D01*
X177205037Y-88564400D01*
X177208511Y-88573255D01*
X177211040Y-88592720D01*
X177212685Y-88624045D01*
X177213504Y-88668480D01*
X177213558Y-88727272D01*
X177213482Y-88741009D01*
X177213014Y-88792129D01*
X177212330Y-88838864D01*
X177211489Y-88878517D01*
X177210552Y-88908392D01*
X177209578Y-88925790D01*
X177209326Y-88927937D01*
X177195496Y-88984123D01*
X177173432Y-89026850D01*
X177143001Y-89056314D01*
X177110913Y-89070945D01*
X177087653Y-89074965D01*
X177053203Y-89077632D01*
X177011236Y-89079000D01*
X176965421Y-89079123D01*
X176919430Y-89078058D01*
X176876933Y-89075859D01*
X176841601Y-89072581D01*
X176817106Y-89068279D01*
X176811588Y-89066465D01*
X176787245Y-89055033D01*
X176767711Y-89042044D01*
X176752493Y-89025729D01*
X176741098Y-89004315D01*
X176733033Y-88976033D01*
X176727805Y-88939110D01*
X176724921Y-88891777D01*
X176723888Y-88832262D01*
X176724214Y-88758795D01*
X176724277Y-88752814D01*
X176726406Y-88558844D01*
X176774031Y-88558844D01*
X176821656Y-88558844D01*
X176825625Y-88748075D01*
X176826853Y-88812841D01*
X176828246Y-88863488D01*
X176830925Y-88901744D01*
X176836009Y-88929335D01*
X176844620Y-88947989D01*
X176857876Y-88959433D01*
X176876898Y-88965395D01*
X176902806Y-88967603D01*
X176936721Y-88967782D01*
X176967996Y-88967625D01*
X177008550Y-88967750D01*
X177040102Y-88966948D01*
X177063779Y-88963457D01*
X177080705Y-88955512D01*
X177092006Y-88941351D01*
X177098808Y-88919209D01*
X177102237Y-88887323D01*
X177103418Y-88843930D01*
X177103477Y-88787267D01*
X177103438Y-88755434D01*
X177103648Y-88703642D01*
X177104239Y-88656761D01*
X177105145Y-88617273D01*
X177106303Y-88587657D01*
X177107650Y-88570396D01*
X177108255Y-88567430D01*
X177118531Y-88560020D01*
X177138786Y-88555677D01*
X177163389Y-88554576D01*
X177186710Y-88556894D01*
G37*
G36*
X177208436Y-89251365D02*
G01*
X177212691Y-89259814D01*
X177214222Y-89272938D01*
X177214433Y-89290375D01*
X177214441Y-89294398D01*
X177213303Y-89324309D01*
X177207642Y-89344525D01*
X177194450Y-89359657D01*
X177170714Y-89374319D01*
X177158001Y-89380879D01*
X177111375Y-89404416D01*
X177111430Y-89565036D01*
X177111486Y-89725656D01*
X177161040Y-89753680D01*
X177210594Y-89781704D01*
X177212943Y-89835149D01*
X177213257Y-89866974D01*
X177210535Y-89885417D01*
X177204836Y-89892606D01*
X177195588Y-89889893D01*
X177174565Y-89880422D01*
X177143788Y-89865291D01*
X177105279Y-89845595D01*
X177061059Y-89822430D01*
X177018109Y-89799535D01*
X177013150Y-89796892D01*
X176963573Y-89770078D01*
X176914350Y-89743085D01*
X176867501Y-89717007D01*
X176825048Y-89692941D01*
X176789013Y-89671984D01*
X176761417Y-89655231D01*
X176744282Y-89643780D01*
X176740896Y-89641012D01*
X176730832Y-89629311D01*
X176725216Y-89614885D01*
X176722834Y-89592967D01*
X176722438Y-89568707D01*
X176722468Y-89567193D01*
X176830300Y-89567193D01*
X176837025Y-89573131D01*
X176854641Y-89584703D01*
X176880003Y-89600123D01*
X176909968Y-89617604D01*
X176941391Y-89635360D01*
X176971130Y-89651602D01*
X176996040Y-89664546D01*
X177012978Y-89672403D01*
X177018109Y-89673937D01*
X177020257Y-89666523D01*
X177022060Y-89646081D01*
X177023364Y-89615459D01*
X177024017Y-89577505D01*
X177024063Y-89563830D01*
X177024063Y-89453597D01*
X176926828Y-89506570D01*
X176891773Y-89526212D01*
X176862439Y-89543689D01*
X176841329Y-89557427D01*
X176830946Y-89565855D01*
X176830300Y-89567193D01*
X176722468Y-89567193D01*
X176723021Y-89538819D01*
X176725789Y-89519770D01*
X176732264Y-89506541D01*
X176743970Y-89494109D01*
X176745505Y-89492700D01*
X176758134Y-89483677D01*
X176782804Y-89468243D01*
X176817582Y-89447525D01*
X176860540Y-89422650D01*
X176909744Y-89394743D01*
X176963265Y-89364933D01*
X176984369Y-89353321D01*
X177047029Y-89318976D01*
X177097131Y-89291825D01*
X177136079Y-89271506D01*
X177165279Y-89257661D01*
X177186135Y-89249929D01*
X177200053Y-89247950D01*
X177208436Y-89251365D01*
G37*
G36*
X173847272Y-97998923D02*
G01*
X173847756Y-98018140D01*
X173847462Y-98048539D01*
X173846423Y-98087786D01*
X173844676Y-98133545D01*
X173843494Y-98159250D01*
X173838716Y-98234877D01*
X173831254Y-98323274D01*
X173821445Y-98421625D01*
X173809628Y-98527115D01*
X173796140Y-98636929D01*
X173781320Y-98748252D01*
X173765506Y-98858269D01*
X173749035Y-98964164D01*
X173741025Y-99012531D01*
X173729719Y-99077259D01*
X173716778Y-99147813D01*
X173702572Y-99222438D01*
X173687476Y-99299381D01*
X173671860Y-99376889D01*
X173656098Y-99453209D01*
X173640561Y-99526586D01*
X173625623Y-99595267D01*
X173611655Y-99657498D01*
X173599029Y-99711527D01*
X173588119Y-99755599D01*
X173579296Y-99787961D01*
X173572932Y-99806860D01*
X173571894Y-99809047D01*
X173564245Y-99815021D01*
X173544621Y-99828022D01*
X173514546Y-99847134D01*
X173475544Y-99871443D01*
X173429138Y-99900033D01*
X173376853Y-99931989D01*
X173320213Y-99966396D01*
X173260740Y-100002339D01*
X173199960Y-100038902D01*
X173139396Y-100075171D01*
X173080573Y-100110230D01*
X173025012Y-100143163D01*
X172974240Y-100173057D01*
X172929779Y-100198995D01*
X172893154Y-100220062D01*
X172865888Y-100235344D01*
X172849505Y-100243925D01*
X172845284Y-100245422D01*
X172848041Y-100237919D01*
X172856738Y-100217162D01*
X172870834Y-100184388D01*
X172889787Y-100140834D01*
X172913053Y-100087736D01*
X172940091Y-100026333D01*
X172970359Y-99957859D01*
X173003315Y-99883553D01*
X173038415Y-99804651D01*
X173044763Y-99790406D01*
X173080129Y-99711045D01*
X173120981Y-99619335D01*
X173166361Y-99517433D01*
X173215307Y-99407497D01*
X173266860Y-99291684D01*
X173320058Y-99172152D01*
X173373942Y-99051058D01*
X173427551Y-98930560D01*
X173479926Y-98812816D01*
X173530106Y-98699982D01*
X173544660Y-98667250D01*
X173587969Y-98569886D01*
X173629454Y-98476695D01*
X173668663Y-98388693D01*
X173705139Y-98306898D01*
X173738430Y-98232325D01*
X173768080Y-98165992D01*
X173793634Y-98108915D01*
X173814639Y-98062111D01*
X173830639Y-98026597D01*
X173841181Y-98003389D01*
X173845809Y-97993504D01*
X173845974Y-97993224D01*
X173847272Y-97998923D01*
G37*
G36*
X177209158Y-97894173D02*
G01*
X177213318Y-97914486D01*
X177215104Y-97940149D01*
X177214180Y-97965944D01*
X177210208Y-97986652D01*
X177209670Y-97988140D01*
X177201809Y-97997572D01*
X177183788Y-98014305D01*
X177158145Y-98036114D01*
X177127419Y-98060775D01*
X177121727Y-98065204D01*
X177081708Y-98096194D01*
X177052385Y-98119712D01*
X177032098Y-98138254D01*
X177019190Y-98154317D01*
X177012002Y-98170399D01*
X177008875Y-98188996D01*
X177008151Y-98212606D01*
X177008188Y-98236153D01*
X177008188Y-98310062D01*
X177106557Y-98310062D01*
X177148670Y-98310361D01*
X177177483Y-98311466D01*
X177195562Y-98313690D01*
X177205476Y-98317344D01*
X177209745Y-98322618D01*
X177213307Y-98341051D01*
X177214301Y-98366215D01*
X177212867Y-98391170D01*
X177209146Y-98408975D01*
X177207945Y-98411386D01*
X177202600Y-98414361D01*
X177189863Y-98416647D01*
X177168325Y-98418290D01*
X177136581Y-98419335D01*
X177093224Y-98419828D01*
X177036847Y-98419815D01*
X176966044Y-98419342D01*
X176963988Y-98419323D01*
X176726406Y-98417219D01*
X176724059Y-98363641D01*
X176721712Y-98310062D01*
X176821294Y-98310062D01*
X176920875Y-98310062D01*
X176920875Y-98244360D01*
X176919315Y-98201875D01*
X176914518Y-98173733D01*
X176909243Y-98162051D01*
X176898738Y-98151286D01*
X176878143Y-98133479D01*
X176850220Y-98110910D01*
X176817728Y-98085859D01*
X176810025Y-98080080D01*
X176722438Y-98014715D01*
X176722438Y-97960451D01*
X176723375Y-97932635D01*
X176725833Y-97911637D01*
X176729284Y-97901957D01*
X176729329Y-97901928D01*
X176737499Y-97905195D01*
X176755990Y-97916871D01*
X176782694Y-97935487D01*
X176815500Y-97959578D01*
X176849618Y-97985594D01*
X176891704Y-98017841D01*
X176923055Y-98040859D01*
X176945133Y-98055579D01*
X176959399Y-98062931D01*
X176967316Y-98063846D01*
X176969506Y-98061920D01*
X176979126Y-98050954D01*
X176998414Y-98033464D01*
X177024891Y-98011335D01*
X177056079Y-97986451D01*
X177089501Y-97960695D01*
X177122678Y-97935952D01*
X177153132Y-97914105D01*
X177178386Y-97897040D01*
X177195961Y-97886639D01*
X177202963Y-97884426D01*
X177209158Y-97894173D01*
G37*
G36*
X177204583Y-91187842D02*
G01*
X177211774Y-91204741D01*
X177213912Y-91236310D01*
X177213073Y-91257455D01*
X177211249Y-91277729D01*
X177206882Y-91291213D01*
X177196804Y-91301905D01*
X177177844Y-91313802D01*
X177160984Y-91323126D01*
X177111375Y-91350301D01*
X177111587Y-91510322D01*
X177111799Y-91670344D01*
X177161196Y-91698189D01*
X177210594Y-91726034D01*
X177212925Y-91778865D01*
X177212987Y-91808731D01*
X177210490Y-91829392D01*
X177206852Y-91836891D01*
X177198165Y-91834475D01*
X177177662Y-91825344D01*
X177147357Y-91810578D01*
X177109261Y-91791259D01*
X177065388Y-91768469D01*
X177019489Y-91744208D01*
X177017750Y-91743289D01*
X176968360Y-91716801D01*
X176919230Y-91690086D01*
X176872373Y-91664227D01*
X176829802Y-91640304D01*
X176793529Y-91619399D01*
X176765566Y-91602594D01*
X176747927Y-91590971D01*
X176744949Y-91588656D01*
X176732893Y-91577115D01*
X176726124Y-91564810D01*
X176723141Y-91546846D01*
X176722440Y-91518326D01*
X176722438Y-91515300D01*
X176722470Y-91514202D01*
X176828865Y-91514202D01*
X176829431Y-91515299D01*
X176837456Y-91521105D01*
X176856332Y-91532439D01*
X176882812Y-91547531D01*
X176913648Y-91564614D01*
X176945591Y-91581921D01*
X176975394Y-91597683D01*
X176999808Y-91610132D01*
X177015586Y-91617501D01*
X177019489Y-91618750D01*
X177021137Y-91611288D01*
X177022521Y-91590799D01*
X177023524Y-91560132D01*
X177024026Y-91522136D01*
X177024063Y-91508267D01*
X177024063Y-91397783D01*
X176942703Y-91441613D01*
X176899047Y-91465277D01*
X176867661Y-91482755D01*
X176846747Y-91495217D01*
X176834509Y-91503833D01*
X176829147Y-91509771D01*
X176828865Y-91514202D01*
X176722470Y-91514202D01*
X176723355Y-91483917D01*
X176726914Y-91463333D01*
X176734323Y-91448536D01*
X176740297Y-91441247D01*
X176750428Y-91433794D01*
X176772402Y-91419944D01*
X176804115Y-91400885D01*
X176843464Y-91377805D01*
X176888345Y-91351892D01*
X176936656Y-91324336D01*
X176986293Y-91296324D01*
X177035154Y-91269044D01*
X177081134Y-91243684D01*
X177122131Y-91221433D01*
X177156042Y-91203480D01*
X177180763Y-91191011D01*
X177192402Y-91185824D01*
X177204583Y-91187842D01*
G37*
G36*
X177018725Y-99373708D02*
G01*
X177075434Y-99374088D01*
X177119537Y-99375303D01*
X177152669Y-99377832D01*
X177176465Y-99382150D01*
X177192560Y-99388736D01*
X177202587Y-99398065D01*
X177208182Y-99410615D01*
X177210978Y-99426862D01*
X177212612Y-99447285D01*
X177212879Y-99451041D01*
X177214389Y-99475368D01*
X177214218Y-99495820D01*
X177211124Y-99513936D01*
X177203865Y-99531253D01*
X177191199Y-99549309D01*
X177171885Y-99569640D01*
X177144681Y-99593785D01*
X177108345Y-99623281D01*
X177061636Y-99659665D01*
X177016174Y-99694606D01*
X176969454Y-99730596D01*
X176926846Y-99763689D01*
X176889981Y-99792594D01*
X176860495Y-99816021D01*
X176840019Y-99832681D01*
X176830188Y-99841282D01*
X176829624Y-99841951D01*
X176835549Y-99844834D01*
X176857154Y-99847082D01*
X176894257Y-99848687D01*
X176946677Y-99849641D01*
X177010100Y-99849937D01*
X177075620Y-99850213D01*
X177126430Y-99851079D01*
X177163689Y-99852591D01*
X177188552Y-99854805D01*
X177202179Y-99857779D01*
X177205038Y-99859462D01*
X177210791Y-99873253D01*
X177213837Y-99896183D01*
X177213979Y-99921719D01*
X177211021Y-99943327D01*
X177207800Y-99951495D01*
X177202665Y-99954575D01*
X177190657Y-99956923D01*
X177170284Y-99958590D01*
X177140053Y-99959626D01*
X177098472Y-99960082D01*
X177044050Y-99960008D01*
X176975293Y-99959455D01*
X176973116Y-99959433D01*
X176903351Y-99958819D01*
X176847831Y-99958122D01*
X176804940Y-99956679D01*
X176773058Y-99953828D01*
X176750568Y-99948906D01*
X176735852Y-99941250D01*
X176727290Y-99930196D01*
X176723266Y-99915084D01*
X176722161Y-99895248D01*
X176722356Y-99870028D01*
X176722438Y-99856753D01*
X176722438Y-99787228D01*
X176756172Y-99759419D01*
X176772064Y-99746715D01*
X176798353Y-99726155D01*
X176832786Y-99699480D01*
X176873112Y-99668430D01*
X176917082Y-99634747D01*
X176944159Y-99614085D01*
X176986815Y-99581233D01*
X177024830Y-99551281D01*
X177056500Y-99525627D01*
X177080119Y-99505670D01*
X177093983Y-99492809D01*
X177096964Y-99488701D01*
X177088711Y-99486020D01*
X177065789Y-99483632D01*
X177029401Y-99481601D01*
X176980752Y-99479990D01*
X176921045Y-99478865D01*
X176908977Y-99478716D01*
X176722438Y-99476588D01*
X176722438Y-99425138D01*
X176722438Y-99373687D01*
X176947777Y-99373687D01*
X177018725Y-99373708D01*
G37*
G36*
X177210389Y-90074754D02*
G01*
X177214032Y-90095357D01*
X177214563Y-90113695D01*
X177213719Y-90140365D01*
X177211559Y-90161674D01*
X177209788Y-90169394D01*
X177201847Y-90178909D01*
X177183839Y-90195448D01*
X177158492Y-90216631D01*
X177130413Y-90238650D01*
X177055813Y-90295463D01*
X177055813Y-90405163D01*
X177055813Y-90514863D01*
X177133203Y-90517134D01*
X177210594Y-90519406D01*
X177212917Y-90563121D01*
X177212496Y-90593553D01*
X177207863Y-90613101D01*
X177205376Y-90616699D01*
X177197994Y-90619801D01*
X177181873Y-90622243D01*
X177155698Y-90624082D01*
X177118157Y-90625372D01*
X177067937Y-90626169D01*
X177003722Y-90626529D01*
X176971530Y-90626562D01*
X176912971Y-90626397D01*
X176859235Y-90625929D01*
X176825625Y-90625408D01*
X176812476Y-90625204D01*
X176774846Y-90624264D01*
X176748498Y-90623154D01*
X176735585Y-90621917D01*
X176734993Y-90621745D01*
X176731251Y-90618754D01*
X176728326Y-90611841D01*
X176726125Y-90599278D01*
X176724551Y-90579334D01*
X176723508Y-90550283D01*
X176722979Y-90515437D01*
X176825625Y-90515437D01*
X176897063Y-90515437D01*
X176968500Y-90515437D01*
X176968500Y-90368594D01*
X176968389Y-90316553D01*
X176967900Y-90278017D01*
X176966803Y-90250617D01*
X176964867Y-90231981D01*
X176961861Y-90219742D01*
X176957552Y-90211529D01*
X176952625Y-90205875D01*
X176936137Y-90195146D01*
X176911777Y-90190491D01*
X176895703Y-90190000D01*
X176872949Y-90190396D01*
X176855744Y-90192880D01*
X176843314Y-90199401D01*
X176834883Y-90211904D01*
X176829674Y-90232338D01*
X176826912Y-90262648D01*
X176825821Y-90304783D01*
X176825625Y-90360688D01*
X176825625Y-90365855D01*
X176825625Y-90515437D01*
X176722979Y-90515437D01*
X176722902Y-90510395D01*
X176722637Y-90457942D01*
X176722612Y-90397510D01*
X176722745Y-90331882D01*
X176723111Y-90280098D01*
X176723836Y-90240125D01*
X176725044Y-90209933D01*
X176726860Y-90187491D01*
X176729411Y-90170766D01*
X176732820Y-90157728D01*
X176737212Y-90146346D01*
X176738219Y-90144091D01*
X176756641Y-90115723D01*
X176783264Y-90096083D01*
X176820090Y-90084287D01*
X176869123Y-90079451D01*
X176885156Y-90079224D01*
X176938999Y-90082566D01*
X176979859Y-90093016D01*
X177009249Y-90111210D01*
X177028683Y-90137783D01*
X177029708Y-90139970D01*
X177038648Y-90159376D01*
X177044478Y-90171562D01*
X177045310Y-90173119D01*
X177051839Y-90169660D01*
X177068195Y-90158043D01*
X177091878Y-90140111D01*
X177119091Y-90118739D01*
X177152741Y-90093104D01*
X177179327Y-90075302D01*
X177197077Y-90066453D01*
X177202780Y-90065918D01*
X177210389Y-90074754D01*
G37*
G36*
X177018725Y-87427771D02*
G01*
X177075434Y-87428150D01*
X177119537Y-87429366D01*
X177152669Y-87431894D01*
X177176465Y-87436213D01*
X177192560Y-87442798D01*
X177202587Y-87452127D01*
X177208182Y-87464677D01*
X177210978Y-87480925D01*
X177212612Y-87501347D01*
X177212879Y-87505103D01*
X177214393Y-87529724D01*
X177214172Y-87550388D01*
X177210959Y-87568663D01*
X177203496Y-87586115D01*
X177190527Y-87604311D01*
X177170794Y-87624820D01*
X177143040Y-87649209D01*
X177106007Y-87679043D01*
X177058439Y-87715892D01*
X177020444Y-87744982D01*
X176973963Y-87780672D01*
X176931341Y-87813681D01*
X176894297Y-87842655D01*
X176864546Y-87866244D01*
X176843805Y-87883094D01*
X176833793Y-87891853D01*
X176833405Y-87892283D01*
X176831916Y-87895983D01*
X176835488Y-87898824D01*
X176845811Y-87900917D01*
X176864573Y-87902370D01*
X176893464Y-87903293D01*
X176934174Y-87903795D01*
X176988391Y-87903986D01*
X177014304Y-87904000D01*
X177074912Y-87904109D01*
X177121501Y-87904515D01*
X177155925Y-87905337D01*
X177180039Y-87906694D01*
X177195697Y-87908706D01*
X177204754Y-87911491D01*
X177209064Y-87915170D01*
X177209745Y-87916555D01*
X177213335Y-87935137D01*
X177214299Y-87960424D01*
X177212789Y-87985455D01*
X177208958Y-88003270D01*
X177207800Y-88005558D01*
X177202665Y-88008638D01*
X177190657Y-88010986D01*
X177170284Y-88012652D01*
X177140053Y-88013689D01*
X177098472Y-88014145D01*
X177044050Y-88014071D01*
X176975293Y-88013518D01*
X176973116Y-88013495D01*
X176903355Y-88012878D01*
X176847839Y-88012175D01*
X176804951Y-88010732D01*
X176773072Y-88007892D01*
X176750585Y-88002999D01*
X176735869Y-87995398D01*
X176727307Y-87984433D01*
X176723281Y-87969447D01*
X176722171Y-87949784D01*
X176722360Y-87924790D01*
X176722438Y-87911905D01*
X176722159Y-87891806D01*
X176722137Y-87875501D01*
X176723591Y-87861627D01*
X176727740Y-87848820D01*
X176735805Y-87835719D01*
X176749004Y-87820959D01*
X176768557Y-87803177D01*
X176795685Y-87781009D01*
X176831605Y-87753093D01*
X176877539Y-87718065D01*
X176934705Y-87674562D01*
X176934885Y-87674425D01*
X176979415Y-87640072D01*
X177019205Y-87608628D01*
X177052663Y-87581412D01*
X177078197Y-87559743D01*
X177094216Y-87544940D01*
X177099127Y-87538323D01*
X177099120Y-87538310D01*
X177090099Y-87536127D01*
X177067229Y-87534227D01*
X177032533Y-87532688D01*
X176988034Y-87531590D01*
X176935757Y-87531009D01*
X176908500Y-87530937D01*
X176722438Y-87530937D01*
X176722438Y-87479344D01*
X176722438Y-87427750D01*
X176947777Y-87427750D01*
X177018725Y-87427771D01*
G37*
G36*
X177205955Y-94486725D02*
G01*
X177211349Y-94506169D01*
X177214235Y-94531538D01*
X177213979Y-94557881D01*
X177211201Y-94575875D01*
X177203180Y-94587657D01*
X177184642Y-94606144D01*
X177158113Y-94628994D01*
X177131110Y-94650139D01*
X177055369Y-94707070D01*
X177057575Y-94815146D01*
X177059781Y-94923223D01*
X177125812Y-94921468D01*
X177164535Y-94921717D01*
X177191335Y-94924668D01*
X177203202Y-94929141D01*
X177209283Y-94941476D01*
X177213235Y-94962962D01*
X177214796Y-94987881D01*
X177213700Y-95010518D01*
X177209682Y-95025158D01*
X177207745Y-95027214D01*
X177198941Y-95028006D01*
X177176623Y-95028808D01*
X177143154Y-95029596D01*
X177100895Y-95030346D01*
X177052207Y-95031032D01*
X176999453Y-95031631D01*
X176944994Y-95032119D01*
X176891191Y-95032472D01*
X176840407Y-95032664D01*
X176829594Y-95032666D01*
X176795003Y-95032672D01*
X176757340Y-95032472D01*
X176732359Y-95032102D01*
X176729300Y-95028564D01*
X176726892Y-95017182D01*
X176725073Y-94996565D01*
X176723782Y-94965323D01*
X176722955Y-94922067D01*
X176722530Y-94865407D01*
X176722438Y-94811307D01*
X176722485Y-94746182D01*
X176722656Y-94708826D01*
X176826635Y-94708826D01*
X176827275Y-94762291D01*
X176827427Y-94772711D01*
X176829594Y-94922274D01*
X176895078Y-94921890D01*
X176925707Y-94921670D01*
X176949730Y-94921422D01*
X176963144Y-94921191D01*
X176964531Y-94921128D01*
X176965807Y-94913485D01*
X176966912Y-94892496D01*
X176967777Y-94860692D01*
X176968329Y-94820601D01*
X176968500Y-94779641D01*
X176968257Y-94726529D01*
X176967407Y-94686989D01*
X176965773Y-94658723D01*
X176963175Y-94639435D01*
X176959434Y-94626826D01*
X176956144Y-94620891D01*
X176946162Y-94610500D01*
X176931716Y-94605145D01*
X176907882Y-94603329D01*
X176898130Y-94603250D01*
X176873987Y-94603422D01*
X176855866Y-94605261D01*
X176842939Y-94610747D01*
X176834380Y-94621865D01*
X176829361Y-94640596D01*
X176827055Y-94668922D01*
X176826635Y-94708826D01*
X176722656Y-94708826D01*
X176722720Y-94694905D01*
X176723286Y-94655450D01*
X176724323Y-94625789D01*
X176725975Y-94603897D01*
X176728382Y-94587746D01*
X176731685Y-94575309D01*
X176736028Y-94564561D01*
X176740297Y-94555910D01*
X176756802Y-94529402D01*
X176776488Y-94511093D01*
X176802309Y-94499792D01*
X176837219Y-94494308D01*
X176884170Y-94493449D01*
X176894522Y-94493706D01*
X176940955Y-94496432D01*
X176974806Y-94502407D01*
X176999268Y-94513095D01*
X177017534Y-94529962D01*
X177032797Y-94554471D01*
X177034547Y-94557931D01*
X177049000Y-94586994D01*
X177117891Y-94531473D01*
X177146673Y-94509283D01*
X177171839Y-94491730D01*
X177190394Y-94480790D01*
X177198688Y-94478157D01*
X177205955Y-94486725D01*
G37*
G36*
X177090237Y-86642946D02*
G01*
X177131352Y-86646410D01*
X177161146Y-86653077D01*
X177181849Y-86663680D01*
X177195691Y-86678955D01*
X177204193Y-86697500D01*
X177207756Y-86716620D01*
X177210461Y-86748465D01*
X177212314Y-86789909D01*
X177213322Y-86837826D01*
X177213490Y-86889090D01*
X177212827Y-86940574D01*
X177211338Y-86989153D01*
X177209029Y-87031700D01*
X177205909Y-87065089D01*
X177203385Y-87080693D01*
X177189203Y-87125788D01*
X177167510Y-87159304D01*
X177136076Y-87184632D01*
X177134358Y-87185656D01*
X177121715Y-87191944D01*
X177106544Y-87196507D01*
X177085957Y-87199706D01*
X177057062Y-87201901D01*
X177016970Y-87203453D01*
X176985292Y-87204248D01*
X176924648Y-87204840D01*
X176877273Y-87203252D01*
X176840646Y-87198987D01*
X176812252Y-87191550D01*
X176789571Y-87180442D01*
X176770085Y-87165166D01*
X176765686Y-87160906D01*
X176753287Y-87146864D01*
X176743418Y-87130994D01*
X176735830Y-87111447D01*
X176730278Y-87086375D01*
X176726515Y-87053929D01*
X176724294Y-87012259D01*
X176723367Y-86959517D01*
X176723488Y-86893852D01*
X176723950Y-86848312D01*
X176726406Y-86645906D01*
X176774031Y-86645906D01*
X176821656Y-86645906D01*
X176825625Y-86853998D01*
X176826931Y-86917609D01*
X176828233Y-86967234D01*
X176829686Y-87004763D01*
X176831444Y-87032085D01*
X176833661Y-87051088D01*
X176836490Y-87063661D01*
X176840086Y-87071694D01*
X176843745Y-87076248D01*
X176852274Y-87082358D01*
X176865473Y-87086682D01*
X176886179Y-87089630D01*
X176917224Y-87091615D01*
X176958997Y-87092985D01*
X177001272Y-87093864D01*
X177030854Y-87093717D01*
X177050915Y-87092171D01*
X177064622Y-87088852D01*
X177075147Y-87083387D01*
X177081768Y-87078518D01*
X177103438Y-87061473D01*
X177103438Y-86908117D01*
X177103455Y-86853342D01*
X177103011Y-86812426D01*
X177101363Y-86783352D01*
X177097765Y-86764106D01*
X177091474Y-86752673D01*
X177081747Y-86747038D01*
X177067839Y-86745187D01*
X177049006Y-86745105D01*
X177043257Y-86745125D01*
X177008188Y-86745125D01*
X177008188Y-86855401D01*
X177008054Y-86901295D01*
X177006989Y-86933671D01*
X177003997Y-86954888D01*
X176998081Y-86967304D01*
X176988246Y-86973276D01*
X176973496Y-86975162D01*
X176957532Y-86975312D01*
X176936695Y-86972515D01*
X176922464Y-86965789D01*
X176922463Y-86965788D01*
X176918895Y-86954423D01*
X176916105Y-86930317D01*
X176914092Y-86896582D01*
X176912855Y-86856335D01*
X176912396Y-86812687D01*
X176912713Y-86768754D01*
X176913807Y-86727650D01*
X176915678Y-86692489D01*
X176918326Y-86666384D01*
X176921750Y-86652451D01*
X176922463Y-86651462D01*
X176935133Y-86646822D01*
X176962559Y-86643738D01*
X177005153Y-86642174D01*
X177035572Y-86641950D01*
X177090237Y-86642946D01*
G37*
G36*
X177014586Y-95254936D02*
G01*
X177056058Y-95256699D01*
X177089189Y-95259665D01*
X177107034Y-95262925D01*
X177142691Y-95280213D01*
X177173638Y-95308751D01*
X177195203Y-95343914D01*
X177198741Y-95353716D01*
X177202185Y-95372950D01*
X177205205Y-95404835D01*
X177207732Y-95446152D01*
X177209692Y-95493682D01*
X177211013Y-95544205D01*
X177211625Y-95594502D01*
X177211456Y-95641353D01*
X177210433Y-95681538D01*
X177208484Y-95711839D01*
X177206977Y-95723208D01*
X177193814Y-95770935D01*
X177172906Y-95806504D01*
X177142333Y-95832523D01*
X177117293Y-95845166D01*
X177096941Y-95850051D01*
X177064485Y-95853769D01*
X177023654Y-95856276D01*
X176978180Y-95857532D01*
X176959828Y-95857517D01*
X176931792Y-95857494D01*
X176888221Y-95856120D01*
X176851198Y-95853367D01*
X176824452Y-95849195D01*
X176821749Y-95848498D01*
X176786875Y-95831333D01*
X176756749Y-95802622D01*
X176735580Y-95766683D01*
X176731968Y-95756375D01*
X176728491Y-95736086D01*
X176725780Y-95703071D01*
X176723834Y-95660462D01*
X176722652Y-95611391D01*
X176722234Y-95558988D01*
X176722578Y-95506385D01*
X176722636Y-95503780D01*
X176825555Y-95503780D01*
X176825625Y-95556990D01*
X176825680Y-95609310D01*
X176826026Y-95648138D01*
X176826938Y-95675858D01*
X176828688Y-95694852D01*
X176831550Y-95707504D01*
X176835798Y-95716197D01*
X176841706Y-95723314D01*
X176845108Y-95726767D01*
X176854254Y-95735026D01*
X176864223Y-95740550D01*
X176878242Y-95743885D01*
X176899539Y-95745580D01*
X176931340Y-95746184D01*
X176959828Y-95746250D01*
X177010656Y-95745359D01*
X177047803Y-95742295D01*
X177073383Y-95736470D01*
X177089511Y-95727295D01*
X177098302Y-95714184D01*
X177100353Y-95707186D01*
X177104854Y-95688732D01*
X177107874Y-95678781D01*
X177108788Y-95668539D01*
X177109381Y-95645233D01*
X177109627Y-95611673D01*
X177109501Y-95570669D01*
X177109165Y-95538106D01*
X177108408Y-95489119D01*
X177107410Y-95453443D01*
X177105835Y-95428514D01*
X177103343Y-95411769D01*
X177099599Y-95400644D01*
X177094265Y-95392574D01*
X177089326Y-95387293D01*
X177081094Y-95380006D01*
X177071572Y-95374992D01*
X177057823Y-95371828D01*
X177036910Y-95370093D01*
X177005896Y-95369364D01*
X176963609Y-95369219D01*
X176920019Y-95369134D01*
X176886708Y-95370128D01*
X176862299Y-95374078D01*
X176845414Y-95382857D01*
X176834676Y-95398342D01*
X176828705Y-95422408D01*
X176826124Y-95456929D01*
X176825555Y-95503780D01*
X176722636Y-95503780D01*
X176723685Y-95456712D01*
X176725553Y-95413102D01*
X176728183Y-95378686D01*
X176731572Y-95356594D01*
X176732056Y-95354833D01*
X176751016Y-95317103D01*
X176781309Y-95285766D01*
X176818516Y-95265243D01*
X176823145Y-95263743D01*
X176845881Y-95259670D01*
X176880422Y-95256742D01*
X176922739Y-95254969D01*
X176968804Y-95254363D01*
X177014586Y-95254936D01*
G37*
G36*
X177098647Y-93532858D02*
G01*
X177142594Y-93533595D01*
X177173937Y-93535018D01*
X177193761Y-93537159D01*
X177203152Y-93540050D01*
X177203397Y-93540240D01*
X177210490Y-93554235D01*
X177214030Y-93577229D01*
X177213901Y-93602720D01*
X177209988Y-93624208D01*
X177205038Y-93633288D01*
X177196340Y-93636629D01*
X177176977Y-93639189D01*
X177145792Y-93641025D01*
X177101626Y-93642192D01*
X177043322Y-93642747D01*
X177008981Y-93642812D01*
X176947336Y-93643116D01*
X176897666Y-93644000D01*
X176860896Y-93645426D01*
X176837953Y-93647355D01*
X176829765Y-93649750D01*
X176829991Y-93650293D01*
X176839116Y-93655613D01*
X176860566Y-93666430D01*
X176892193Y-93681711D01*
X176931848Y-93700428D01*
X176977385Y-93721550D01*
X177003425Y-93733483D01*
X177051759Y-93755816D01*
X177095824Y-93776694D01*
X177133350Y-93795000D01*
X177162070Y-93809618D01*
X177179716Y-93819433D01*
X177183704Y-93822213D01*
X177200990Y-93847344D01*
X177210367Y-93880822D01*
X177211684Y-93917307D01*
X177204791Y-93951458D01*
X177189537Y-93977935D01*
X177188130Y-93979385D01*
X177176177Y-93987422D01*
X177151963Y-94000728D01*
X177117755Y-94018165D01*
X177075816Y-94038595D01*
X177028414Y-94060882D01*
X176997894Y-94074854D01*
X176949955Y-94096954D01*
X176907656Y-94117184D01*
X176872891Y-94134580D01*
X176847551Y-94148174D01*
X176833530Y-94157000D01*
X176831453Y-94159815D01*
X176840941Y-94161761D01*
X176864006Y-94163660D01*
X176898351Y-94165411D01*
X176941676Y-94166908D01*
X176991685Y-94168048D01*
X177024309Y-94168521D01*
X177210594Y-94170656D01*
X177212924Y-94214628D01*
X177213268Y-94239850D01*
X177211684Y-94258250D01*
X177209617Y-94264237D01*
X177200522Y-94265684D01*
X177177603Y-94266994D01*
X177142910Y-94268116D01*
X177098493Y-94269002D01*
X177046403Y-94269602D01*
X176988690Y-94269867D01*
X176976345Y-94269875D01*
X176906090Y-94269967D01*
X176850095Y-94269818D01*
X176806751Y-94268794D01*
X176774448Y-94266257D01*
X176751576Y-94261572D01*
X176736526Y-94254103D01*
X176727689Y-94243214D01*
X176723453Y-94228269D01*
X176722211Y-94208632D01*
X176722351Y-94183668D01*
X176722438Y-94169564D01*
X176723650Y-94129289D01*
X176727108Y-94100308D01*
X176732359Y-94085136D01*
X176738467Y-94079206D01*
X176749564Y-94071794D01*
X176767071Y-94062227D01*
X176792405Y-94049831D01*
X176826988Y-94033931D01*
X176872238Y-94013852D01*
X176929575Y-93988922D01*
X176986359Y-93964491D01*
X177027305Y-93946594D01*
X177062623Y-93930516D01*
X177089940Y-93917390D01*
X177106884Y-93908348D01*
X177111375Y-93904815D01*
X177110108Y-93900347D01*
X177105232Y-93895206D01*
X177095134Y-93888589D01*
X177078201Y-93879694D01*
X177052820Y-93867718D01*
X177017378Y-93851857D01*
X176970263Y-93831310D01*
X176920875Y-93810009D01*
X176871627Y-93788407D01*
X176826740Y-93767925D01*
X176788472Y-93749657D01*
X176759083Y-93734698D01*
X176740830Y-93724142D01*
X176736328Y-93720579D01*
X176729123Y-93708574D01*
X176724810Y-93690557D01*
X176722796Y-93662906D01*
X176722438Y-93635513D01*
X176722198Y-93607567D01*
X176722567Y-93585374D01*
X176725179Y-93568256D01*
X176731667Y-93555534D01*
X176743664Y-93546531D01*
X176762805Y-93540569D01*
X176790722Y-93536968D01*
X176829049Y-93535052D01*
X176879419Y-93534141D01*
X176943466Y-93533558D01*
X176968591Y-93533315D01*
X177041008Y-93532775D01*
X177098647Y-93532858D01*
G37*
G36*
X174379773Y-91940768D02*
G01*
X174377972Y-91952893D01*
X174373810Y-91974782D01*
X174366996Y-92008669D01*
X174361555Y-92035482D01*
X174336566Y-92165385D01*
X174311723Y-92307428D01*
X174287606Y-92457879D01*
X174264796Y-92613008D01*
X174243873Y-92769085D01*
X174230667Y-92876844D01*
X174196825Y-93203332D01*
X174172178Y-93527711D01*
X174156705Y-93848704D01*
X174150382Y-94165032D01*
X174153187Y-94475417D01*
X174165098Y-94778582D01*
X174186091Y-95073250D01*
X174216145Y-95358141D01*
X174255236Y-95631978D01*
X174282172Y-95785937D01*
X174347697Y-96093741D01*
X174427783Y-96396537D01*
X174522174Y-96693734D01*
X174630612Y-96984741D01*
X174752840Y-97268967D01*
X174888602Y-97545821D01*
X175037641Y-97814711D01*
X175199698Y-98075047D01*
X175374518Y-98326237D01*
X175403721Y-98365625D01*
X175518212Y-98513180D01*
X175638399Y-98657634D01*
X175762513Y-98797156D01*
X175888788Y-98929913D01*
X176015454Y-99054071D01*
X176140746Y-99167798D01*
X176262895Y-99269262D01*
X176311361Y-99306669D01*
X176388442Y-99364770D01*
X176347080Y-99390275D01*
X176333874Y-99398340D01*
X176307708Y-99414242D01*
X176269205Y-99437606D01*
X176218989Y-99468053D01*
X176157683Y-99505206D01*
X176085911Y-99548689D01*
X176004296Y-99598123D01*
X175913463Y-99653131D01*
X175814033Y-99713335D01*
X175706632Y-99778360D01*
X175591882Y-99847826D01*
X175470406Y-99921357D01*
X175342830Y-99998575D01*
X175209775Y-100079103D01*
X175071865Y-100162564D01*
X174929725Y-100248579D01*
X174783977Y-100336773D01*
X174635245Y-100426767D01*
X174484153Y-100518184D01*
X174331323Y-100610647D01*
X174177380Y-100703779D01*
X174022947Y-100797201D01*
X173868648Y-100890537D01*
X173715106Y-100983409D01*
X173562944Y-101075440D01*
X173412786Y-101166252D01*
X173303661Y-101232245D01*
X173251852Y-101263497D01*
X173204487Y-101291920D01*
X173163249Y-101316515D01*
X173129822Y-101336283D01*
X173105889Y-101350226D01*
X173093133Y-101357347D01*
X173091513Y-101358062D01*
X173093946Y-101351881D01*
X173103607Y-101335060D01*
X173118946Y-101310190D01*
X173137881Y-101280672D01*
X173178138Y-101217447D01*
X173216240Y-101154258D01*
X173253996Y-101087874D01*
X173293214Y-101015067D01*
X173335702Y-100932605D01*
X173361196Y-100881812D01*
X173482329Y-100621761D01*
X173591904Y-100351386D01*
X173689701Y-100071476D01*
X173775496Y-99782820D01*
X173849070Y-99486207D01*
X173910200Y-99182426D01*
X173958666Y-98872268D01*
X173983731Y-98663281D01*
X173991893Y-98583796D01*
X173998755Y-98511170D01*
X174004421Y-98442983D01*
X174008998Y-98376813D01*
X174012591Y-98310241D01*
X174015305Y-98240844D01*
X174017246Y-98166203D01*
X174018518Y-98083898D01*
X174019227Y-97991506D01*
X174019479Y-97886608D01*
X174019475Y-97841750D01*
X174019249Y-97732759D01*
X174018615Y-97636821D01*
X174017431Y-97551119D01*
X174015553Y-97472833D01*
X174012840Y-97399144D01*
X174009147Y-97327233D01*
X174004331Y-97254283D01*
X173998251Y-97177473D01*
X173990762Y-97093985D01*
X173981722Y-97001000D01*
X173971962Y-96905125D01*
X173949733Y-96677740D01*
X173931311Y-96461715D01*
X173916488Y-96253051D01*
X173905056Y-96047749D01*
X173896808Y-95841811D01*
X173891535Y-95631237D01*
X173889030Y-95412029D01*
X173888750Y-95303960D01*
X173889312Y-95143013D01*
X173891069Y-94994498D01*
X173894124Y-94855010D01*
X173898581Y-94721144D01*
X173904544Y-94589493D01*
X173912116Y-94456654D01*
X173916793Y-94384969D01*
X173944060Y-94049418D01*
X173979775Y-93720507D01*
X174023715Y-93399679D01*
X174075659Y-93088374D01*
X174135384Y-92788036D01*
X174202668Y-92500107D01*
X174214922Y-92452187D01*
X174229808Y-92396273D01*
X174246505Y-92336191D01*
X174264387Y-92273953D01*
X174282829Y-92211572D01*
X174301206Y-92151062D01*
X174318891Y-92094433D01*
X174335260Y-92043700D01*
X174349687Y-92000875D01*
X174361546Y-91967970D01*
X174370211Y-91946998D01*
X174373928Y-91940616D01*
X174377459Y-91936864D01*
X174379505Y-91936170D01*
X174379773Y-91940768D01*
G37*
G36*
X176396451Y-86753062D02*
G01*
X176392485Y-86760917D01*
X176381556Y-86779218D01*
X176365395Y-86805128D01*
X176348187Y-86832028D01*
X176297368Y-86913857D01*
X176242897Y-87007394D01*
X176186483Y-87109408D01*
X176129839Y-87216665D01*
X176074675Y-87325934D01*
X176022702Y-87433982D01*
X175980309Y-87526969D01*
X175864105Y-87808504D01*
X175760976Y-88098005D01*
X175671366Y-88393822D01*
X175595719Y-88694302D01*
X175534481Y-88997793D01*
X175488096Y-89302644D01*
X175476905Y-89396250D01*
X175466132Y-89498275D01*
X175457557Y-89593420D01*
X175450986Y-89685471D01*
X175446224Y-89778213D01*
X175443078Y-89875431D01*
X175441353Y-89980912D01*
X175440854Y-90098440D01*
X175440854Y-90098719D01*
X175441667Y-90226163D01*
X175444167Y-90343677D01*
X175448618Y-90454929D01*
X175455281Y-90563588D01*
X175464420Y-90673322D01*
X175476296Y-90787801D01*
X175491172Y-90910693D01*
X175507874Y-91035344D01*
X175517265Y-91105518D01*
X175526409Y-91179396D01*
X175535567Y-91259342D01*
X175544998Y-91347720D01*
X175554962Y-91446895D01*
X175565719Y-91559233D01*
X175567205Y-91575094D01*
X175568267Y-91593185D01*
X175569464Y-91625215D01*
X175570751Y-91669247D01*
X175572081Y-91723345D01*
X175573409Y-91785574D01*
X175574689Y-91853997D01*
X175575875Y-91926680D01*
X175576418Y-91964031D01*
X175577540Y-92134786D01*
X175575808Y-92293153D01*
X175571028Y-92442396D01*
X175563005Y-92585778D01*
X175551547Y-92726564D01*
X175536458Y-92868015D01*
X175517545Y-93013396D01*
X175511510Y-93055437D01*
X175461381Y-93351512D01*
X175398286Y-93644073D01*
X175322694Y-93931519D01*
X175235075Y-94212245D01*
X175135899Y-94484648D01*
X175025634Y-94747124D01*
X174998878Y-94805656D01*
X174972725Y-94860769D01*
X174944391Y-94918355D01*
X174914784Y-94976764D01*
X174884811Y-95034343D01*
X174855382Y-95089443D01*
X174827403Y-95140410D01*
X174801783Y-95185595D01*
X174779431Y-95223346D01*
X174761254Y-95252011D01*
X174748160Y-95269940D01*
X174741058Y-95275481D01*
X174740642Y-95275225D01*
X174740594Y-95266631D01*
X174742603Y-95244931D01*
X174746369Y-95212718D01*
X174751593Y-95172584D01*
X174756985Y-95133960D01*
X174792223Y-94870048D01*
X174823927Y-94593967D01*
X174851761Y-94309097D01*
X174875387Y-94018820D01*
X174890507Y-93793625D01*
X174893073Y-93741552D01*
X174895256Y-93677307D01*
X174897054Y-93602984D01*
X174898469Y-93520682D01*
X174899500Y-93432496D01*
X174900147Y-93340522D01*
X174900410Y-93246859D01*
X174900290Y-93153601D01*
X174899786Y-93062846D01*
X174898898Y-92976691D01*
X174897626Y-92897231D01*
X174895971Y-92826564D01*
X174893932Y-92766786D01*
X174891509Y-92719993D01*
X174890499Y-92706187D01*
X174872299Y-92516845D01*
X174849788Y-92342520D01*
X174822847Y-92182923D01*
X174791357Y-92037759D01*
X174755199Y-91906736D01*
X174714255Y-91789562D01*
X174668406Y-91685945D01*
X174617533Y-91595592D01*
X174561517Y-91518210D01*
X174500240Y-91453506D01*
X174433583Y-91401190D01*
X174361427Y-91360967D01*
X174340841Y-91352083D01*
X174260873Y-91327505D01*
X174181035Y-91318734D01*
X174101452Y-91325702D01*
X174022248Y-91348340D01*
X173943549Y-91386580D01*
X173865478Y-91440354D01*
X173788161Y-91509593D01*
X173711721Y-91594229D01*
X173636284Y-91694194D01*
X173590380Y-91763352D01*
X173555235Y-91821528D01*
X173518720Y-91886828D01*
X173482785Y-91955382D01*
X173449381Y-92023320D01*
X173420457Y-92086774D01*
X173397964Y-92141874D01*
X173393648Y-92153683D01*
X173387648Y-92164024D01*
X173384071Y-92164467D01*
X173384471Y-92155337D01*
X173388923Y-92132418D01*
X173397053Y-92097165D01*
X173408488Y-92051036D01*
X173422858Y-91995486D01*
X173439788Y-91931973D01*
X173458908Y-91861953D01*
X173479843Y-91786882D01*
X173488105Y-91757656D01*
X173598683Y-91394645D01*
X173724557Y-91030552D01*
X173865267Y-90666228D01*
X174020350Y-90302523D01*
X174189347Y-89940287D01*
X174371796Y-89580369D01*
X174567236Y-89223620D01*
X174775206Y-88870889D01*
X174995246Y-88523027D01*
X175226894Y-88180883D01*
X175469689Y-87845308D01*
X175723170Y-87517150D01*
X175916252Y-87280906D01*
X175956520Y-87233282D01*
X176000383Y-87182250D01*
X176046707Y-87129058D01*
X176094357Y-87074951D01*
X176142201Y-87021177D01*
X176189102Y-86968983D01*
X176233928Y-86919616D01*
X176275543Y-86874322D01*
X176312814Y-86834348D01*
X176344606Y-86800940D01*
X176369785Y-86775347D01*
X176387217Y-86758813D01*
X176395767Y-86752587D01*
X176396451Y-86753062D01*
G37*
%TO.C,D2*%
X119610000Y-77715000D02*
X117690000Y-77715000D01*
X117690000Y-77715000D02*
X117690000Y-80400000D01*
X119610000Y-80400000D02*
X119610000Y-77715000D01*
%TO.C,R4*%
X119172500Y-82562742D02*
X119172500Y-83037258D01*
X118127500Y-82562742D02*
X118127500Y-83037258D01*
%TO.C,D1*%
X121100000Y-84440000D02*
X119100000Y-84440000D01*
X121100000Y-84440000D02*
X121100000Y-88300000D01*
X119100000Y-84440000D02*
X119100000Y-88300000D01*
%TO.C,J3*%
X189030000Y-88565000D02*
X190030000Y-89565000D01*
X179910000Y-88565000D02*
X189030000Y-88565000D01*
X179910000Y-88565000D02*
X179910000Y-90990000D01*
X190030000Y-89565000D02*
X190030000Y-97435000D01*
X179910000Y-93010000D02*
X179910000Y-94348233D01*
X190030000Y-97435000D02*
X189030000Y-98435000D01*
X189030000Y-98435000D02*
X179910000Y-98435000D01*
X179910000Y-98435000D02*
X179910000Y-95651767D01*
%TO.C,R5*%
X118237258Y-77222500D02*
X117762742Y-77222500D01*
X118237258Y-76177500D02*
X117762742Y-76177500D01*
%TO.C,R3*%
X119927500Y-83062258D02*
X119927500Y-82587742D01*
X120972500Y-83062258D02*
X120972500Y-82587742D01*
%TO.C,Q1*%
X119450000Y-89040000D02*
X118800000Y-89040000D01*
X119450000Y-89040000D02*
X120100000Y-89040000D01*
X119450000Y-92160000D02*
X118800000Y-92160000D01*
X119450000Y-92160000D02*
X120100000Y-92160000D01*
X118287500Y-89090000D02*
X118047500Y-88760000D01*
X118527500Y-88760000D01*
X118287500Y-89090000D01*
G36*
X118287500Y-89090000D02*
G01*
X118047500Y-88760000D01*
X118527500Y-88760000D01*
X118287500Y-89090000D01*
G37*
%TO.C,kibuzzard-67D18FC2*%
G36*
X117727259Y-66018524D02*
G01*
X117793457Y-66051385D01*
X117836320Y-66107583D01*
X117850607Y-66188545D01*
X117797267Y-66320942D01*
X117727259Y-66355947D01*
X117623912Y-66367615D01*
X117572477Y-66367615D01*
X117572477Y-66013285D01*
X117610578Y-66008522D01*
X117642962Y-66007570D01*
X117727259Y-66018524D01*
G37*
G36*
X115867741Y-66018286D02*
G01*
X115933225Y-66050432D01*
X115975373Y-66108297D01*
X115989422Y-66196165D01*
X115975135Y-66288796D01*
X115932272Y-66349518D01*
X115861311Y-66383093D01*
X115762727Y-66394285D01*
X115667477Y-66394285D01*
X115667477Y-66013285D01*
X115725580Y-66008522D01*
X115783682Y-66007570D01*
X115867741Y-66018286D01*
G37*
G36*
X118563713Y-67393140D02*
G01*
X118166838Y-67393140D01*
X117124802Y-67393140D01*
X115667477Y-67393140D01*
X115433162Y-67393140D01*
X115036287Y-67393140D01*
X115036287Y-66996265D01*
X115433162Y-66996265D01*
X115667477Y-66996265D01*
X115667477Y-66598120D01*
X115751297Y-66598120D01*
X115892162Y-66587643D01*
X116009954Y-66556210D01*
X116104675Y-66503822D01*
X116173996Y-66427940D01*
X116215588Y-66326022D01*
X116229452Y-66198070D01*
X116215694Y-66071388D01*
X116174419Y-65970740D01*
X116105627Y-65896128D01*
X116011859Y-65844798D01*
X115907234Y-65817070D01*
X116326607Y-65817070D01*
X116330894Y-65962564D01*
X116336132Y-66113297D01*
X116342562Y-66266174D01*
X116350420Y-66418098D01*
X116359707Y-66568593D01*
X116370422Y-66717183D01*
X116382805Y-66860772D01*
X116397092Y-66996265D01*
X116591402Y-66996265D01*
X116631407Y-66871011D01*
X116675222Y-66735280D01*
X116719990Y-66599549D01*
X116762852Y-66474295D01*
X116804762Y-66603121D01*
X116846672Y-66738138D01*
X116888582Y-66871726D01*
X116930492Y-66996265D01*
X117124802Y-66996265D01*
X117338162Y-66996265D01*
X117572477Y-66996265D01*
X117572477Y-66561925D01*
X117694397Y-66561925D01*
X117758929Y-66669796D01*
X117819175Y-66776238D01*
X117873706Y-66884108D01*
X117921092Y-66996265D01*
X118166838Y-66996265D01*
X118112545Y-66871488D01*
X118046823Y-66740042D01*
X117976337Y-66614312D01*
X117907758Y-66504775D01*
X117991101Y-66450959D01*
X118046823Y-66377140D01*
X118078255Y-66288557D01*
X118088733Y-66190450D01*
X118080874Y-66097819D01*
X118057300Y-66018047D01*
X117966813Y-65897080D01*
X117902043Y-65855646D01*
X117825843Y-65826595D01*
X117739165Y-65809450D01*
X117642962Y-65803735D01*
X117576287Y-65805640D01*
X117496277Y-65810403D01*
X117413410Y-65819927D01*
X117338162Y-65834215D01*
X117338162Y-66996265D01*
X117124802Y-66996265D01*
X117137423Y-66861010D01*
X117148615Y-66718135D01*
X117158378Y-66570259D01*
X117166713Y-66420003D01*
X117173856Y-66268079D01*
X117180048Y-66115203D01*
X117185762Y-65963993D01*
X117191477Y-65817070D01*
X116974307Y-65817070D01*
X116974784Y-65931608D01*
X116976212Y-66050432D01*
X116978117Y-66170686D01*
X116980022Y-66289510D01*
X116981927Y-66406429D01*
X116983832Y-66520968D01*
X116985261Y-66630743D01*
X116985738Y-66733375D01*
X116942875Y-66580975D01*
X116902870Y-66441910D01*
X116869532Y-66323800D01*
X116846672Y-66234265D01*
X116675222Y-66234265D01*
X116648552Y-66327610D01*
X116611405Y-66457150D01*
X116569495Y-66600025D01*
X116530442Y-66733375D01*
X116530919Y-66630743D01*
X116532347Y-66520968D01*
X116534252Y-66406191D01*
X116536157Y-66288557D01*
X116538062Y-66169257D01*
X116539967Y-66049480D01*
X116541872Y-65931370D01*
X116543777Y-65817070D01*
X116326607Y-65817070D01*
X115907234Y-65817070D01*
X115895654Y-65814001D01*
X115757012Y-65803735D01*
X115682717Y-65805640D01*
X115596992Y-65810403D01*
X115510315Y-65818975D01*
X115433162Y-65832310D01*
X115433162Y-66996265D01*
X115036287Y-66996265D01*
X115036287Y-65406860D01*
X115433162Y-65406860D01*
X118166838Y-65406860D01*
X118563713Y-65406860D01*
X118563713Y-67393140D01*
G37*
D14*
%TO.C,U1*%
X141500000Y-78650000D02*
X141500000Y-70850000D01*
X162300000Y-78650000D02*
X162300000Y-70850000D01*
D13*
X141660000Y-82470000D02*
X161980000Y-82470000D01*
X161980000Y-82470000D02*
X161980000Y-67230000D01*
X161980000Y-67230000D02*
X141660000Y-67230000D01*
X141660000Y-67230000D02*
X141660000Y-82470000D01*
%TO.C,kibuzzard-67D18FBA*%
G36*
X117181928Y-102139967D02*
G01*
X117235268Y-102182830D01*
X117265747Y-102242837D01*
X117275273Y-102312370D01*
X116917133Y-102312370D01*
X116933325Y-102241885D01*
X116967615Y-102180925D01*
X117022860Y-102139015D01*
X117101918Y-102123775D01*
X117181928Y-102139967D01*
G37*
G36*
X115258830Y-102150683D02*
G01*
X115318837Y-102208547D01*
X115354556Y-102296416D01*
X115366463Y-102405715D01*
X115356461Y-102515491D01*
X115326457Y-102597167D01*
X115275499Y-102647888D01*
X115202633Y-102664795D01*
X115126432Y-102655270D01*
X115065472Y-102630505D01*
X115065472Y-102139015D01*
X115116908Y-102134252D01*
X115174058Y-102131395D01*
X115258830Y-102150683D01*
G37*
G36*
X119565718Y-103556970D02*
G01*
X119168843Y-103556970D01*
X118999298Y-103556970D01*
X118132523Y-103556970D01*
X117166688Y-103556970D01*
X116069408Y-103556970D01*
X115065472Y-103556970D01*
X114831157Y-103556970D01*
X114434282Y-103556970D01*
X114434282Y-103160095D01*
X114831157Y-103160095D01*
X115065472Y-103160095D01*
X115065472Y-102822910D01*
X115159294Y-102855771D01*
X115250258Y-102866725D01*
X115332649Y-102858152D01*
X115367274Y-102845770D01*
X115833187Y-102845770D01*
X116069408Y-102845770D01*
X116069408Y-102405715D01*
X116675198Y-102405715D01*
X116683770Y-102512871D01*
X116709487Y-102605740D01*
X116751159Y-102684559D01*
X116807595Y-102749568D01*
X116878080Y-102800526D01*
X116961900Y-102837197D01*
X117058341Y-102859343D01*
X117166688Y-102866725D01*
X117320993Y-102852437D01*
X117450533Y-102817195D01*
X117418148Y-102617170D01*
X117310515Y-102647650D01*
X117176213Y-102662890D01*
X117072390Y-102650269D01*
X116989523Y-102612407D01*
X116935230Y-102552638D01*
X116917133Y-102474295D01*
X117498158Y-102474295D01*
X117501015Y-102434290D01*
X117501967Y-102386665D01*
X117491072Y-102255220D01*
X117620078Y-102255220D01*
X117628293Y-102394404D01*
X117652939Y-102516681D01*
X117694015Y-102622052D01*
X117751523Y-102710515D01*
X117852276Y-102799415D01*
X117979276Y-102852755D01*
X118132523Y-102870535D01*
X118236583Y-102864106D01*
X118327785Y-102844817D01*
X118462088Y-102788620D01*
X118432256Y-102695275D01*
X118827847Y-102695275D01*
X118842135Y-102768617D01*
X118880235Y-102821957D01*
X118934528Y-102855295D01*
X118999298Y-102866725D01*
X119117408Y-102822910D01*
X119168843Y-102695275D01*
X119117408Y-102571450D01*
X118999298Y-102527635D01*
X118934528Y-102539065D01*
X118880235Y-102571450D01*
X118842135Y-102623838D01*
X118827847Y-102695275D01*
X118432256Y-102695275D01*
X118403033Y-102603835D01*
X118306830Y-102645745D01*
X118155383Y-102666700D01*
X118019413Y-102639792D01*
X117927735Y-102559067D01*
X117889106Y-102476835D01*
X117865928Y-102373647D01*
X117858203Y-102249505D01*
X117864632Y-102142825D01*
X117883920Y-102055195D01*
X117950595Y-101930417D01*
X118043940Y-101863742D01*
X118151573Y-101843740D01*
X118293495Y-101863742D01*
X118399223Y-101912320D01*
X118460183Y-101725630D01*
X118421130Y-101702770D01*
X118357313Y-101674195D01*
X118268730Y-101650382D01*
X118155383Y-101639905D01*
X118043702Y-101650144D01*
X117941070Y-101680862D01*
X117849630Y-101731345D01*
X117771525Y-101800877D01*
X117707946Y-101888746D01*
X117660083Y-101994235D01*
X117630079Y-102116631D01*
X117620078Y-102255220D01*
X117491072Y-102255220D01*
X117490537Y-102248764D01*
X117456247Y-102134782D01*
X117399098Y-102044717D01*
X117319934Y-101979630D01*
X117219604Y-101940577D01*
X117098108Y-101927560D01*
X117019050Y-101935180D01*
X116941898Y-101958040D01*
X116869984Y-101995902D01*
X116806642Y-102048527D01*
X116753302Y-102115917D01*
X116711393Y-102198070D01*
X116684246Y-102294749D01*
X116675198Y-102405715D01*
X116069408Y-102405715D01*
X116069408Y-102180925D01*
X116166562Y-102162827D01*
X116263718Y-102158065D01*
X116315152Y-102159970D01*
X116378018Y-102166637D01*
X116441835Y-102177115D01*
X116496128Y-102188545D01*
X116538037Y-101971375D01*
X116464695Y-101953277D01*
X116383733Y-101941847D01*
X116308485Y-101935180D01*
X116254193Y-101933275D01*
X116131082Y-101938514D01*
X116024640Y-101954230D01*
X115927723Y-101978519D01*
X115833187Y-102009475D01*
X115833187Y-102845770D01*
X115367274Y-102845770D01*
X115404563Y-102832435D01*
X115515053Y-102736233D01*
X115553629Y-102668129D01*
X115581728Y-102587643D01*
X115598873Y-102496917D01*
X115604587Y-102398095D01*
X115592311Y-102264533D01*
X115555481Y-102150868D01*
X115494097Y-102057100D01*
X115409643Y-101987250D01*
X115303597Y-101945340D01*
X115175963Y-101931370D01*
X115083808Y-101934704D01*
X114990225Y-101944705D01*
X114903309Y-101959945D01*
X114831157Y-101978995D01*
X114831157Y-103160095D01*
X114434282Y-103160095D01*
X114434282Y-101243030D01*
X114831157Y-101243030D01*
X119168843Y-101243030D01*
X119565718Y-101243030D01*
X119565718Y-103556970D01*
G37*
%TD*%
M02*
