%TF.GenerationSoftware,KiCad,Pcbnew,7.0.11-rc3*%
%TF.CreationDate,2025-03-16T23:28:07+08:00*%
%TF.ProjectId,imu-base,696d752d-6261-4736-952e-6b696361645f,rev?*%
%TF.SameCoordinates,Original*%
%TF.FileFunction,Legend,Top*%
%TF.FilePolarity,Positive*%
%FSLAX46Y46*%
G04 Gerber Fmt 4.6, Leading zero omitted, Abs format (unit mm)*
G04 Created by KiCad (PCBNEW 7.0.11-rc3) date 2025-03-16 23:28:07*
%MOMM*%
%LPD*%
G01*
G04 APERTURE LIST*
%ADD10C,0.100000*%
%ADD11C,0.300000*%
%ADD12C,0.150000*%
%ADD13C,0.120000*%
%ADD14C,0.200000*%
G04 APERTURE END LIST*
D10*
X82450000Y-37800000D02*
X79250000Y-37800000D01*
X79850000Y-37800000D02*
X79250000Y-37800000D01*
X79850000Y-37600000D01*
X79850000Y-37800000D01*
G36*
X79850000Y-37800000D02*
G01*
X79250000Y-37800000D01*
X79850000Y-37600000D01*
X79850000Y-37800000D01*
G37*
D11*
X83400000Y-37800000D02*
G75*
G03*
X83100000Y-37800000I-150000J0D01*
G01*
X83100000Y-37800000D02*
G75*
G03*
X83400000Y-37800000I150000J0D01*
G01*
D10*
X84050000Y-37800000D02*
G75*
G03*
X82450000Y-37800000I-800000J0D01*
G01*
X82450000Y-37800000D02*
G75*
G03*
X84050000Y-37800000I800000J0D01*
G01*
D12*
X93600000Y-76600000D02*
X92400000Y-76600000D01*
D10*
X83250000Y-38600000D02*
X83250000Y-41800000D01*
X83250000Y-41800000D02*
X83050000Y-41200000D01*
X83250000Y-41200000D01*
X83250000Y-41800000D01*
G36*
X83250000Y-41800000D02*
G01*
X83050000Y-41200000D01*
X83250000Y-41200000D01*
X83250000Y-41800000D01*
G37*
X84788095Y-37390752D02*
X85311904Y-37390752D01*
X85311904Y-37390752D02*
X84788095Y-38057419D01*
X84788095Y-38057419D02*
X85311904Y-38057419D01*
X80288095Y-37457419D02*
X80811904Y-36790752D01*
X80288095Y-36790752D02*
X80811904Y-37457419D01*
D13*
X76664661Y-43731855D02*
X76764661Y-42931855D01*
X76764661Y-42931855D02*
X77121804Y-43731855D01*
X77121804Y-43731855D02*
X77221804Y-42931855D01*
X77969422Y-43655664D02*
X77926565Y-43693760D01*
X77926565Y-43693760D02*
X77807518Y-43731855D01*
X77807518Y-43731855D02*
X77731327Y-43731855D01*
X77731327Y-43731855D02*
X77621803Y-43693760D01*
X77621803Y-43693760D02*
X77555137Y-43617569D01*
X77555137Y-43617569D02*
X77526565Y-43541379D01*
X77526565Y-43541379D02*
X77507518Y-43388998D01*
X77507518Y-43388998D02*
X77521803Y-43274712D01*
X77521803Y-43274712D02*
X77578946Y-43122331D01*
X77578946Y-43122331D02*
X77626565Y-43046140D01*
X77626565Y-43046140D02*
X77712280Y-42969950D01*
X77712280Y-42969950D02*
X77831327Y-42931855D01*
X77831327Y-42931855D02*
X77907518Y-42931855D01*
X77907518Y-42931855D02*
X78017042Y-42969950D01*
X78017042Y-42969950D02*
X78050375Y-43008045D01*
X78302756Y-43731855D02*
X78402756Y-42931855D01*
X78759899Y-43731855D02*
X78474184Y-43274712D01*
X78859899Y-42931855D02*
X78345613Y-43388998D01*
X79202756Y-42931855D02*
X79121803Y-43579474D01*
X79121803Y-43579474D02*
X79150375Y-43655664D01*
X79150375Y-43655664D02*
X79183708Y-43693760D01*
X79183708Y-43693760D02*
X79255137Y-43731855D01*
X79255137Y-43731855D02*
X79407518Y-43731855D01*
X79407518Y-43731855D02*
X79488470Y-43693760D01*
X79488470Y-43693760D02*
X79531327Y-43655664D01*
X79531327Y-43655664D02*
X79578946Y-43579474D01*
X79578946Y-43579474D02*
X79659899Y-42931855D01*
X76983708Y-44600807D02*
X76717042Y-44600807D01*
X76664661Y-45019855D02*
X76764661Y-44219855D01*
X76764661Y-44219855D02*
X77145613Y-44219855D01*
X77464661Y-45019855D02*
X77393232Y-44981760D01*
X77393232Y-44981760D02*
X77359899Y-44943664D01*
X77359899Y-44943664D02*
X77331327Y-44867474D01*
X77331327Y-44867474D02*
X77359899Y-44638902D01*
X77359899Y-44638902D02*
X77407518Y-44562712D01*
X77407518Y-44562712D02*
X77450375Y-44524617D01*
X77450375Y-44524617D02*
X77531327Y-44486521D01*
X77531327Y-44486521D02*
X77645613Y-44486521D01*
X77645613Y-44486521D02*
X77717041Y-44524617D01*
X77717041Y-44524617D02*
X77750375Y-44562712D01*
X77750375Y-44562712D02*
X77778946Y-44638902D01*
X77778946Y-44638902D02*
X77750375Y-44867474D01*
X77750375Y-44867474D02*
X77702756Y-44943664D01*
X77702756Y-44943664D02*
X77659899Y-44981760D01*
X77659899Y-44981760D02*
X77578946Y-45019855D01*
X77578946Y-45019855D02*
X77464661Y-45019855D01*
X78074185Y-45019855D02*
X78140851Y-44486521D01*
X78121804Y-44638902D02*
X78169423Y-44562712D01*
X78169423Y-44562712D02*
X78212280Y-44524617D01*
X78212280Y-44524617D02*
X78293232Y-44486521D01*
X78293232Y-44486521D02*
X78369423Y-44486521D01*
X78569423Y-45019855D02*
X78636089Y-44486521D01*
X78626566Y-44562712D02*
X78669423Y-44524617D01*
X78669423Y-44524617D02*
X78750375Y-44486521D01*
X78750375Y-44486521D02*
X78864661Y-44486521D01*
X78864661Y-44486521D02*
X78936089Y-44524617D01*
X78936089Y-44524617D02*
X78964661Y-44600807D01*
X78964661Y-44600807D02*
X78912280Y-45019855D01*
X78964661Y-44600807D02*
X79012280Y-44524617D01*
X79012280Y-44524617D02*
X79093232Y-44486521D01*
X79093232Y-44486521D02*
X79207518Y-44486521D01*
X79207518Y-44486521D02*
X79278947Y-44524617D01*
X79278947Y-44524617D02*
X79307518Y-44600807D01*
X79307518Y-44600807D02*
X79255137Y-45019855D01*
X80045614Y-44486521D02*
X79978947Y-45019855D01*
X79702756Y-44486521D02*
X79650376Y-44905569D01*
X79650376Y-44905569D02*
X79678947Y-44981760D01*
X79678947Y-44981760D02*
X79750376Y-45019855D01*
X79750376Y-45019855D02*
X79864661Y-45019855D01*
X79864661Y-45019855D02*
X79945614Y-44981760D01*
X79945614Y-44981760D02*
X79988471Y-44943664D01*
X80474186Y-45019855D02*
X80402757Y-44981760D01*
X80402757Y-44981760D02*
X80374186Y-44905569D01*
X80374186Y-44905569D02*
X80459900Y-44219855D01*
X81121805Y-45019855D02*
X81174186Y-44600807D01*
X81174186Y-44600807D02*
X81145614Y-44524617D01*
X81145614Y-44524617D02*
X81074186Y-44486521D01*
X81074186Y-44486521D02*
X80921805Y-44486521D01*
X80921805Y-44486521D02*
X80840853Y-44524617D01*
X81126567Y-44981760D02*
X81045614Y-45019855D01*
X81045614Y-45019855D02*
X80855138Y-45019855D01*
X80855138Y-45019855D02*
X80783710Y-44981760D01*
X80783710Y-44981760D02*
X80755138Y-44905569D01*
X80755138Y-44905569D02*
X80764662Y-44829379D01*
X80764662Y-44829379D02*
X80812281Y-44753188D01*
X80812281Y-44753188D02*
X80893234Y-44715093D01*
X80893234Y-44715093D02*
X81083710Y-44715093D01*
X81083710Y-44715093D02*
X81164662Y-44676998D01*
X82569425Y-45019855D02*
X82350377Y-44638902D01*
X82112282Y-45019855D02*
X82212282Y-44219855D01*
X82212282Y-44219855D02*
X82517044Y-44219855D01*
X82517044Y-44219855D02*
X82588472Y-44257950D01*
X82588472Y-44257950D02*
X82621806Y-44296045D01*
X82621806Y-44296045D02*
X82650377Y-44372236D01*
X82650377Y-44372236D02*
X82636091Y-44486521D01*
X82636091Y-44486521D02*
X82588472Y-44562712D01*
X82588472Y-44562712D02*
X82545615Y-44600807D01*
X82545615Y-44600807D02*
X82464663Y-44638902D01*
X82464663Y-44638902D02*
X82159901Y-44638902D01*
X83255139Y-45019855D02*
X83307520Y-44600807D01*
X83307520Y-44600807D02*
X83278948Y-44524617D01*
X83278948Y-44524617D02*
X83207520Y-44486521D01*
X83207520Y-44486521D02*
X83055139Y-44486521D01*
X83055139Y-44486521D02*
X82974187Y-44524617D01*
X83259901Y-44981760D02*
X83178948Y-45019855D01*
X83178948Y-45019855D02*
X82988472Y-45019855D01*
X82988472Y-45019855D02*
X82917044Y-44981760D01*
X82917044Y-44981760D02*
X82888472Y-44905569D01*
X82888472Y-44905569D02*
X82897996Y-44829379D01*
X82897996Y-44829379D02*
X82945615Y-44753188D01*
X82945615Y-44753188D02*
X83026568Y-44715093D01*
X83026568Y-44715093D02*
X83217044Y-44715093D01*
X83217044Y-44715093D02*
X83297996Y-44676998D01*
X83983711Y-44981760D02*
X83902758Y-45019855D01*
X83902758Y-45019855D02*
X83750378Y-45019855D01*
X83750378Y-45019855D02*
X83678949Y-44981760D01*
X83678949Y-44981760D02*
X83645616Y-44943664D01*
X83645616Y-44943664D02*
X83617044Y-44867474D01*
X83617044Y-44867474D02*
X83645616Y-44638902D01*
X83645616Y-44638902D02*
X83693235Y-44562712D01*
X83693235Y-44562712D02*
X83736092Y-44524617D01*
X83736092Y-44524617D02*
X83817044Y-44486521D01*
X83817044Y-44486521D02*
X83969425Y-44486521D01*
X83969425Y-44486521D02*
X84040854Y-44524617D01*
X84321806Y-45019855D02*
X84388472Y-44486521D01*
X84421806Y-44219855D02*
X84378949Y-44257950D01*
X84378949Y-44257950D02*
X84412282Y-44296045D01*
X84412282Y-44296045D02*
X84455139Y-44257950D01*
X84455139Y-44257950D02*
X84421806Y-44219855D01*
X84421806Y-44219855D02*
X84412282Y-44296045D01*
X84769424Y-44486521D02*
X84702758Y-45019855D01*
X84759901Y-44562712D02*
X84802758Y-44524617D01*
X84802758Y-44524617D02*
X84883710Y-44486521D01*
X84883710Y-44486521D02*
X84997996Y-44486521D01*
X84997996Y-44486521D02*
X85069424Y-44524617D01*
X85069424Y-44524617D02*
X85097996Y-44600807D01*
X85097996Y-44600807D02*
X85045615Y-45019855D01*
X85836092Y-44486521D02*
X85755139Y-45134140D01*
X85755139Y-45134140D02*
X85707520Y-45210331D01*
X85707520Y-45210331D02*
X85664663Y-45248426D01*
X85664663Y-45248426D02*
X85583711Y-45286521D01*
X85583711Y-45286521D02*
X85469425Y-45286521D01*
X85469425Y-45286521D02*
X85397996Y-45248426D01*
X85774187Y-44981760D02*
X85693234Y-45019855D01*
X85693234Y-45019855D02*
X85540854Y-45019855D01*
X85540854Y-45019855D02*
X85469425Y-44981760D01*
X85469425Y-44981760D02*
X85436092Y-44943664D01*
X85436092Y-44943664D02*
X85407520Y-44867474D01*
X85407520Y-44867474D02*
X85436092Y-44638902D01*
X85436092Y-44638902D02*
X85483711Y-44562712D01*
X85483711Y-44562712D02*
X85526568Y-44524617D01*
X85526568Y-44524617D02*
X85607520Y-44486521D01*
X85607520Y-44486521D02*
X85759901Y-44486521D01*
X85759901Y-44486521D02*
X85831330Y-44524617D01*
X76664661Y-46307855D02*
X76764661Y-45507855D01*
X77045613Y-46307855D02*
X77145613Y-45507855D01*
X77145613Y-45507855D02*
X77340851Y-46079283D01*
X77340851Y-46079283D02*
X77678946Y-45507855D01*
X77678946Y-45507855D02*
X77578946Y-46307855D01*
X78059899Y-45507855D02*
X77978946Y-46155474D01*
X77978946Y-46155474D02*
X78007518Y-46231664D01*
X78007518Y-46231664D02*
X78040851Y-46269760D01*
X78040851Y-46269760D02*
X78112280Y-46307855D01*
X78112280Y-46307855D02*
X78264661Y-46307855D01*
X78264661Y-46307855D02*
X78345613Y-46269760D01*
X78345613Y-46269760D02*
X78388470Y-46231664D01*
X78388470Y-46231664D02*
X78436089Y-46155474D01*
X78436089Y-46155474D02*
X78517042Y-45507855D01*
X79726565Y-45888807D02*
X79836089Y-45926902D01*
X79836089Y-45926902D02*
X79869423Y-45964998D01*
X79869423Y-45964998D02*
X79897994Y-46041188D01*
X79897994Y-46041188D02*
X79883708Y-46155474D01*
X79883708Y-46155474D02*
X79836089Y-46231664D01*
X79836089Y-46231664D02*
X79793232Y-46269760D01*
X79793232Y-46269760D02*
X79712280Y-46307855D01*
X79712280Y-46307855D02*
X79407518Y-46307855D01*
X79407518Y-46307855D02*
X79507518Y-45507855D01*
X79507518Y-45507855D02*
X79774184Y-45507855D01*
X79774184Y-45507855D02*
X79845613Y-45545950D01*
X79845613Y-45545950D02*
X79878946Y-45584045D01*
X79878946Y-45584045D02*
X79907518Y-45660236D01*
X79907518Y-45660236D02*
X79897994Y-45736426D01*
X79897994Y-45736426D02*
X79850375Y-45812617D01*
X79850375Y-45812617D02*
X79807518Y-45850712D01*
X79807518Y-45850712D02*
X79726565Y-45888807D01*
X79726565Y-45888807D02*
X79459899Y-45888807D01*
X80550375Y-46307855D02*
X80602756Y-45888807D01*
X80602756Y-45888807D02*
X80574184Y-45812617D01*
X80574184Y-45812617D02*
X80502756Y-45774521D01*
X80502756Y-45774521D02*
X80350375Y-45774521D01*
X80350375Y-45774521D02*
X80269423Y-45812617D01*
X80555137Y-46269760D02*
X80474184Y-46307855D01*
X80474184Y-46307855D02*
X80283708Y-46307855D01*
X80283708Y-46307855D02*
X80212280Y-46269760D01*
X80212280Y-46269760D02*
X80183708Y-46193569D01*
X80183708Y-46193569D02*
X80193232Y-46117379D01*
X80193232Y-46117379D02*
X80240851Y-46041188D01*
X80240851Y-46041188D02*
X80321804Y-46003093D01*
X80321804Y-46003093D02*
X80512280Y-46003093D01*
X80512280Y-46003093D02*
X80593232Y-45964998D01*
X80897994Y-46269760D02*
X80969423Y-46307855D01*
X80969423Y-46307855D02*
X81121804Y-46307855D01*
X81121804Y-46307855D02*
X81202756Y-46269760D01*
X81202756Y-46269760D02*
X81250375Y-46193569D01*
X81250375Y-46193569D02*
X81255137Y-46155474D01*
X81255137Y-46155474D02*
X81226566Y-46079283D01*
X81226566Y-46079283D02*
X81155137Y-46041188D01*
X81155137Y-46041188D02*
X81040852Y-46041188D01*
X81040852Y-46041188D02*
X80969423Y-46003093D01*
X80969423Y-46003093D02*
X80940852Y-45926902D01*
X80940852Y-45926902D02*
X80945614Y-45888807D01*
X80945614Y-45888807D02*
X80993233Y-45812617D01*
X80993233Y-45812617D02*
X81074185Y-45774521D01*
X81074185Y-45774521D02*
X81188471Y-45774521D01*
X81188471Y-45774521D02*
X81259899Y-45812617D01*
X81888471Y-46269760D02*
X81807518Y-46307855D01*
X81807518Y-46307855D02*
X81655137Y-46307855D01*
X81655137Y-46307855D02*
X81583709Y-46269760D01*
X81583709Y-46269760D02*
X81555137Y-46193569D01*
X81555137Y-46193569D02*
X81593233Y-45888807D01*
X81593233Y-45888807D02*
X81640852Y-45812617D01*
X81640852Y-45812617D02*
X81721804Y-45774521D01*
X81721804Y-45774521D02*
X81874185Y-45774521D01*
X81874185Y-45774521D02*
X81945613Y-45812617D01*
X81945613Y-45812617D02*
X81974185Y-45888807D01*
X81974185Y-45888807D02*
X81964661Y-45964998D01*
X81964661Y-45964998D02*
X81574185Y-46041188D01*
X77121804Y-47595855D02*
X76902756Y-47214902D01*
X76664661Y-47595855D02*
X76764661Y-46795855D01*
X76764661Y-46795855D02*
X77069423Y-46795855D01*
X77069423Y-46795855D02*
X77140851Y-46833950D01*
X77140851Y-46833950D02*
X77174185Y-46872045D01*
X77174185Y-46872045D02*
X77202756Y-46948236D01*
X77202756Y-46948236D02*
X77188470Y-47062521D01*
X77188470Y-47062521D02*
X77140851Y-47138712D01*
X77140851Y-47138712D02*
X77097994Y-47176807D01*
X77097994Y-47176807D02*
X77017042Y-47214902D01*
X77017042Y-47214902D02*
X76712280Y-47214902D01*
X77774185Y-47557760D02*
X77693232Y-47595855D01*
X77693232Y-47595855D02*
X77540851Y-47595855D01*
X77540851Y-47595855D02*
X77469423Y-47557760D01*
X77469423Y-47557760D02*
X77440851Y-47481569D01*
X77440851Y-47481569D02*
X77478947Y-47176807D01*
X77478947Y-47176807D02*
X77526566Y-47100617D01*
X77526566Y-47100617D02*
X77607518Y-47062521D01*
X77607518Y-47062521D02*
X77759899Y-47062521D01*
X77759899Y-47062521D02*
X77831327Y-47100617D01*
X77831327Y-47100617D02*
X77859899Y-47176807D01*
X77859899Y-47176807D02*
X77850375Y-47252998D01*
X77850375Y-47252998D02*
X77459899Y-47329188D01*
X78140851Y-47062521D02*
X78264661Y-47595855D01*
X78264661Y-47595855D02*
X78521803Y-47062521D01*
X78769423Y-47519664D02*
X78802756Y-47557760D01*
X78802756Y-47557760D02*
X78759899Y-47595855D01*
X78759899Y-47595855D02*
X78726565Y-47557760D01*
X78726565Y-47557760D02*
X78769423Y-47519664D01*
X78769423Y-47519664D02*
X78759899Y-47595855D01*
X79193232Y-46872045D02*
X79236089Y-46833950D01*
X79236089Y-46833950D02*
X79317041Y-46795855D01*
X79317041Y-46795855D02*
X79507517Y-46795855D01*
X79507517Y-46795855D02*
X79578946Y-46833950D01*
X79578946Y-46833950D02*
X79612279Y-46872045D01*
X79612279Y-46872045D02*
X79640851Y-46948236D01*
X79640851Y-46948236D02*
X79631327Y-47024426D01*
X79631327Y-47024426D02*
X79578946Y-47138712D01*
X79578946Y-47138712D02*
X79064660Y-47595855D01*
X79064660Y-47595855D02*
X79559898Y-47595855D01*
X80155137Y-46795855D02*
X80231327Y-46795855D01*
X80231327Y-46795855D02*
X80302756Y-46833950D01*
X80302756Y-46833950D02*
X80336089Y-46872045D01*
X80336089Y-46872045D02*
X80364661Y-46948236D01*
X80364661Y-46948236D02*
X80383708Y-47100617D01*
X80383708Y-47100617D02*
X80359899Y-47291093D01*
X80359899Y-47291093D02*
X80302756Y-47443474D01*
X80302756Y-47443474D02*
X80255137Y-47519664D01*
X80255137Y-47519664D02*
X80212280Y-47557760D01*
X80212280Y-47557760D02*
X80131327Y-47595855D01*
X80131327Y-47595855D02*
X80055137Y-47595855D01*
X80055137Y-47595855D02*
X79983708Y-47557760D01*
X79983708Y-47557760D02*
X79950375Y-47519664D01*
X79950375Y-47519664D02*
X79921803Y-47443474D01*
X79921803Y-47443474D02*
X79902756Y-47291093D01*
X79902756Y-47291093D02*
X79926565Y-47100617D01*
X79926565Y-47100617D02*
X79983708Y-46948236D01*
X79983708Y-46948236D02*
X80031327Y-46872045D01*
X80031327Y-46872045D02*
X80074184Y-46833950D01*
X80074184Y-46833950D02*
X80155137Y-46795855D01*
X80717042Y-46872045D02*
X80759899Y-46833950D01*
X80759899Y-46833950D02*
X80840851Y-46795855D01*
X80840851Y-46795855D02*
X81031327Y-46795855D01*
X81031327Y-46795855D02*
X81102756Y-46833950D01*
X81102756Y-46833950D02*
X81136089Y-46872045D01*
X81136089Y-46872045D02*
X81164661Y-46948236D01*
X81164661Y-46948236D02*
X81155137Y-47024426D01*
X81155137Y-47024426D02*
X81102756Y-47138712D01*
X81102756Y-47138712D02*
X80588470Y-47595855D01*
X80588470Y-47595855D02*
X81083708Y-47595855D01*
X81907518Y-46795855D02*
X81526566Y-46795855D01*
X81526566Y-46795855D02*
X81440852Y-47176807D01*
X81440852Y-47176807D02*
X81483709Y-47138712D01*
X81483709Y-47138712D02*
X81564661Y-47100617D01*
X81564661Y-47100617D02*
X81755137Y-47100617D01*
X81755137Y-47100617D02*
X81826566Y-47138712D01*
X81826566Y-47138712D02*
X81859899Y-47176807D01*
X81859899Y-47176807D02*
X81888471Y-47252998D01*
X81888471Y-47252998D02*
X81864661Y-47443474D01*
X81864661Y-47443474D02*
X81817042Y-47519664D01*
X81817042Y-47519664D02*
X81774185Y-47557760D01*
X81774185Y-47557760D02*
X81693232Y-47595855D01*
X81693232Y-47595855D02*
X81502756Y-47595855D01*
X81502756Y-47595855D02*
X81431328Y-47557760D01*
X81431328Y-47557760D02*
X81397994Y-47519664D01*
X82197995Y-47519664D02*
X82231328Y-47557760D01*
X82231328Y-47557760D02*
X82188471Y-47595855D01*
X82188471Y-47595855D02*
X82155137Y-47557760D01*
X82155137Y-47557760D02*
X82197995Y-47519664D01*
X82197995Y-47519664D02*
X82188471Y-47595855D01*
X82821804Y-46795855D02*
X82897994Y-46795855D01*
X82897994Y-46795855D02*
X82969423Y-46833950D01*
X82969423Y-46833950D02*
X83002756Y-46872045D01*
X83002756Y-46872045D02*
X83031328Y-46948236D01*
X83031328Y-46948236D02*
X83050375Y-47100617D01*
X83050375Y-47100617D02*
X83026566Y-47291093D01*
X83026566Y-47291093D02*
X82969423Y-47443474D01*
X82969423Y-47443474D02*
X82921804Y-47519664D01*
X82921804Y-47519664D02*
X82878947Y-47557760D01*
X82878947Y-47557760D02*
X82797994Y-47595855D01*
X82797994Y-47595855D02*
X82721804Y-47595855D01*
X82721804Y-47595855D02*
X82650375Y-47557760D01*
X82650375Y-47557760D02*
X82617042Y-47519664D01*
X82617042Y-47519664D02*
X82588470Y-47443474D01*
X82588470Y-47443474D02*
X82569423Y-47291093D01*
X82569423Y-47291093D02*
X82593232Y-47100617D01*
X82593232Y-47100617D02*
X82650375Y-46948236D01*
X82650375Y-46948236D02*
X82697994Y-46872045D01*
X82697994Y-46872045D02*
X82740851Y-46833950D01*
X82740851Y-46833950D02*
X82821804Y-46795855D01*
X83383709Y-46872045D02*
X83426566Y-46833950D01*
X83426566Y-46833950D02*
X83507518Y-46795855D01*
X83507518Y-46795855D02*
X83697994Y-46795855D01*
X83697994Y-46795855D02*
X83769423Y-46833950D01*
X83769423Y-46833950D02*
X83802756Y-46872045D01*
X83802756Y-46872045D02*
X83831328Y-46948236D01*
X83831328Y-46948236D02*
X83821804Y-47024426D01*
X83821804Y-47024426D02*
X83769423Y-47138712D01*
X83769423Y-47138712D02*
X83255137Y-47595855D01*
X83255137Y-47595855D02*
X83750375Y-47595855D01*
D10*
X82311905Y-40190752D02*
X82550000Y-40857419D01*
X82788095Y-40190752D02*
X82550000Y-40857419D01*
X82550000Y-40857419D02*
X82454762Y-41095514D01*
X82454762Y-41095514D02*
X82407143Y-41143133D01*
X82407143Y-41143133D02*
X82311905Y-41190752D01*
D12*
X96743773Y-75167319D02*
X96410440Y-74691128D01*
X96172345Y-75167319D02*
X96172345Y-74167319D01*
X96172345Y-74167319D02*
X96553297Y-74167319D01*
X96553297Y-74167319D02*
X96648535Y-74214938D01*
X96648535Y-74214938D02*
X96696154Y-74262557D01*
X96696154Y-74262557D02*
X96743773Y-74357795D01*
X96743773Y-74357795D02*
X96743773Y-74500652D01*
X96743773Y-74500652D02*
X96696154Y-74595890D01*
X96696154Y-74595890D02*
X96648535Y-74643509D01*
X96648535Y-74643509D02*
X96553297Y-74691128D01*
X96553297Y-74691128D02*
X96172345Y-74691128D01*
X97600916Y-74500652D02*
X97600916Y-75167319D01*
X97362821Y-74119700D02*
X97124726Y-74833985D01*
X97124726Y-74833985D02*
X97743773Y-74833985D01*
X80533333Y-77054819D02*
X80200000Y-76578628D01*
X79961905Y-77054819D02*
X79961905Y-76054819D01*
X79961905Y-76054819D02*
X80342857Y-76054819D01*
X80342857Y-76054819D02*
X80438095Y-76102438D01*
X80438095Y-76102438D02*
X80485714Y-76150057D01*
X80485714Y-76150057D02*
X80533333Y-76245295D01*
X80533333Y-76245295D02*
X80533333Y-76388152D01*
X80533333Y-76388152D02*
X80485714Y-76483390D01*
X80485714Y-76483390D02*
X80438095Y-76531009D01*
X80438095Y-76531009D02*
X80342857Y-76578628D01*
X80342857Y-76578628D02*
X79961905Y-76578628D01*
X81485714Y-77054819D02*
X80914286Y-77054819D01*
X81200000Y-77054819D02*
X81200000Y-76054819D01*
X81200000Y-76054819D02*
X81104762Y-76197676D01*
X81104762Y-76197676D02*
X81009524Y-76292914D01*
X81009524Y-76292914D02*
X80914286Y-76340533D01*
X105606273Y-75167319D02*
X105272940Y-74691128D01*
X105034845Y-75167319D02*
X105034845Y-74167319D01*
X105034845Y-74167319D02*
X105415797Y-74167319D01*
X105415797Y-74167319D02*
X105511035Y-74214938D01*
X105511035Y-74214938D02*
X105558654Y-74262557D01*
X105558654Y-74262557D02*
X105606273Y-74357795D01*
X105606273Y-74357795D02*
X105606273Y-74500652D01*
X105606273Y-74500652D02*
X105558654Y-74595890D01*
X105558654Y-74595890D02*
X105511035Y-74643509D01*
X105511035Y-74643509D02*
X105415797Y-74691128D01*
X105415797Y-74691128D02*
X105034845Y-74691128D01*
X105987226Y-74262557D02*
X106034845Y-74214938D01*
X106034845Y-74214938D02*
X106130083Y-74167319D01*
X106130083Y-74167319D02*
X106368178Y-74167319D01*
X106368178Y-74167319D02*
X106463416Y-74214938D01*
X106463416Y-74214938D02*
X106511035Y-74262557D01*
X106511035Y-74262557D02*
X106558654Y-74357795D01*
X106558654Y-74357795D02*
X106558654Y-74453033D01*
X106558654Y-74453033D02*
X106511035Y-74595890D01*
X106511035Y-74595890D02*
X105939607Y-75167319D01*
X105939607Y-75167319D02*
X106558654Y-75167319D01*
X96833333Y-79359580D02*
X96785714Y-79407200D01*
X96785714Y-79407200D02*
X96642857Y-79454819D01*
X96642857Y-79454819D02*
X96547619Y-79454819D01*
X96547619Y-79454819D02*
X96404762Y-79407200D01*
X96404762Y-79407200D02*
X96309524Y-79311961D01*
X96309524Y-79311961D02*
X96261905Y-79216723D01*
X96261905Y-79216723D02*
X96214286Y-79026247D01*
X96214286Y-79026247D02*
X96214286Y-78883390D01*
X96214286Y-78883390D02*
X96261905Y-78692914D01*
X96261905Y-78692914D02*
X96309524Y-78597676D01*
X96309524Y-78597676D02*
X96404762Y-78502438D01*
X96404762Y-78502438D02*
X96547619Y-78454819D01*
X96547619Y-78454819D02*
X96642857Y-78454819D01*
X96642857Y-78454819D02*
X96785714Y-78502438D01*
X96785714Y-78502438D02*
X96833333Y-78550057D01*
X97166667Y-78454819D02*
X97785714Y-78454819D01*
X97785714Y-78454819D02*
X97452381Y-78835771D01*
X97452381Y-78835771D02*
X97595238Y-78835771D01*
X97595238Y-78835771D02*
X97690476Y-78883390D01*
X97690476Y-78883390D02*
X97738095Y-78931009D01*
X97738095Y-78931009D02*
X97785714Y-79026247D01*
X97785714Y-79026247D02*
X97785714Y-79264342D01*
X97785714Y-79264342D02*
X97738095Y-79359580D01*
X97738095Y-79359580D02*
X97690476Y-79407200D01*
X97690476Y-79407200D02*
X97595238Y-79454819D01*
X97595238Y-79454819D02*
X97309524Y-79454819D01*
X97309524Y-79454819D02*
X97214286Y-79407200D01*
X97214286Y-79407200D02*
X97166667Y-79359580D01*
X108133333Y-78059580D02*
X108085714Y-78107200D01*
X108085714Y-78107200D02*
X107942857Y-78154819D01*
X107942857Y-78154819D02*
X107847619Y-78154819D01*
X107847619Y-78154819D02*
X107704762Y-78107200D01*
X107704762Y-78107200D02*
X107609524Y-78011961D01*
X107609524Y-78011961D02*
X107561905Y-77916723D01*
X107561905Y-77916723D02*
X107514286Y-77726247D01*
X107514286Y-77726247D02*
X107514286Y-77583390D01*
X107514286Y-77583390D02*
X107561905Y-77392914D01*
X107561905Y-77392914D02*
X107609524Y-77297676D01*
X107609524Y-77297676D02*
X107704762Y-77202438D01*
X107704762Y-77202438D02*
X107847619Y-77154819D01*
X107847619Y-77154819D02*
X107942857Y-77154819D01*
X107942857Y-77154819D02*
X108085714Y-77202438D01*
X108085714Y-77202438D02*
X108133333Y-77250057D01*
X109085714Y-78154819D02*
X108514286Y-78154819D01*
X108800000Y-78154819D02*
X108800000Y-77154819D01*
X108800000Y-77154819D02*
X108704762Y-77297676D01*
X108704762Y-77297676D02*
X108609524Y-77392914D01*
X108609524Y-77392914D02*
X108514286Y-77440533D01*
D13*
%TO.C,R4*%
X99273182Y-74190000D02*
X99747698Y-74190000D01*
X99273182Y-75235000D02*
X99747698Y-75235000D01*
%TO.C,R1*%
X83145276Y-76077500D02*
X83654724Y-76077500D01*
X83145276Y-77122500D02*
X83654724Y-77122500D01*
%TO.C,kibuzzard-679C6BCB*%
G36*
X92568475Y-77599808D02*
G01*
X92171600Y-77599808D01*
X91596290Y-77599808D01*
X91169570Y-77599808D01*
X90211355Y-77599808D01*
X89428400Y-77599808D01*
X89031525Y-77599808D01*
X89031525Y-76269483D01*
X89428400Y-76269483D01*
X89504600Y-76463793D01*
X89620805Y-76417120D01*
X89742725Y-76349492D01*
X89742725Y-77008623D01*
X89495075Y-77008623D01*
X89495075Y-77202933D01*
X90211355Y-77202933D01*
X90211355Y-77008623D01*
X89977040Y-77008623D01*
X89977040Y-76153277D01*
X90371375Y-76153277D01*
X90487580Y-76317107D01*
X90607595Y-76227572D01*
X90723800Y-76200902D01*
X90834290Y-76239955D01*
X90878105Y-76351398D01*
X90842862Y-76452363D01*
X90753327Y-76555232D01*
X90697130Y-76609763D01*
X90637122Y-76666675D01*
X90577115Y-76727159D01*
X90520917Y-76792405D01*
X90471387Y-76863128D01*
X90431382Y-76940042D01*
X90404951Y-77023863D01*
X90396140Y-77115303D01*
X90395187Y-77155308D01*
X90399950Y-77202933D01*
X91169570Y-77202933D01*
X91169570Y-77008623D01*
X90662840Y-77008623D01*
X90682842Y-76945757D01*
X90731420Y-76878130D01*
X90792380Y-76813360D01*
X90849530Y-76759068D01*
X90946685Y-76663817D01*
X91032410Y-76560947D01*
X91093370Y-76451410D01*
X91116230Y-76334252D01*
X91085750Y-76186615D01*
X91003835Y-76080887D01*
X90896462Y-76023737D01*
X91266725Y-76023737D01*
X91288632Y-76130417D01*
X91320065Y-76263767D01*
X91345253Y-76363568D01*
X91372558Y-76467391D01*
X91401980Y-76575235D01*
X91433095Y-76685196D01*
X91465480Y-76795368D01*
X91499135Y-76905753D01*
X91549141Y-77062915D01*
X91596290Y-77202933D01*
X91838225Y-77202933D01*
X91874632Y-77101438D01*
X91910192Y-76997616D01*
X91944905Y-76891465D01*
X91978243Y-76784785D01*
X92009675Y-76679375D01*
X92039202Y-76575235D01*
X92079684Y-76423549D01*
X92115402Y-76279007D01*
X92146121Y-76144705D01*
X92171600Y-76023737D01*
X91925855Y-76023737D01*
X91908710Y-76122797D01*
X91887755Y-76237097D01*
X91863942Y-76360684D01*
X91838225Y-76487605D01*
X91810603Y-76615240D01*
X91781075Y-76740970D01*
X91750595Y-76858842D01*
X91720115Y-76962902D01*
X91689397Y-76857413D01*
X91658202Y-76739065D01*
X91627722Y-76613335D01*
X91599147Y-76485700D01*
X91572716Y-76359018D01*
X91548665Y-76236145D01*
X91528662Y-76122559D01*
X91514375Y-76023737D01*
X91266725Y-76023737D01*
X90896462Y-76023737D01*
X90885725Y-76018022D01*
X90746660Y-75997067D01*
X90647362Y-76006592D01*
X90547587Y-76035167D01*
X90453528Y-76083745D01*
X90371375Y-76153277D01*
X89977040Y-76153277D01*
X89977040Y-76023737D01*
X89817020Y-76023737D01*
X89735105Y-76098032D01*
X89634140Y-76166612D01*
X89527460Y-76225668D01*
X89428400Y-76269483D01*
X89031525Y-76269483D01*
X89031525Y-75600192D01*
X89428400Y-75600192D01*
X92171600Y-75600192D01*
X92568475Y-75600192D01*
X92568475Y-77599808D01*
G37*
%TO.C,R2*%
X103410198Y-75235000D02*
X102935682Y-75235000D01*
X103410198Y-74190000D02*
X102935682Y-74190000D01*
%TO.C,C3*%
X98375440Y-78011252D02*
X98375440Y-77488748D01*
X99845440Y-78011252D02*
X99845440Y-77488748D01*
%TO.C,TP1*%
X96000000Y-76600000D02*
G75*
G03*
X93600000Y-76600000I-1200000J0D01*
G01*
X93600000Y-76600000D02*
G75*
G03*
X96000000Y-76600000I1200000J0D01*
G01*
%TO.C,J2*%
X105300000Y-73475000D02*
X105300000Y-42505000D01*
X117640000Y-73475000D02*
X105300000Y-73475000D01*
X104405662Y-52700000D02*
X104405662Y-52200000D01*
X104838675Y-52450000D02*
X104405662Y-52700000D01*
X104405662Y-52200000D02*
X104838675Y-52450000D01*
X105300000Y-42505000D02*
X117640000Y-42505000D01*
D14*
%TO.C,J1*%
X93900000Y-65925000D02*
X98100000Y-65925000D01*
X98100000Y-65925000D02*
X98100000Y-65800000D01*
X93900000Y-65800000D02*
X93900000Y-65925000D01*
X93900000Y-64000000D02*
X93900000Y-63200000D01*
X98100000Y-64000000D02*
X98100000Y-63200000D01*
D10*
X99600000Y-62445000D02*
X99600000Y-62445000D01*
X99700000Y-62445000D02*
X99700000Y-62445000D01*
D14*
X93900000Y-52800000D02*
X93900000Y-52000000D01*
X98100000Y-52800000D02*
X98100000Y-52000000D01*
X98100000Y-50200000D02*
X98100000Y-50075000D01*
X93900000Y-50075000D02*
X93900000Y-50200000D01*
X98100000Y-50075000D02*
X93900000Y-50075000D01*
D10*
X99700000Y-62445000D02*
G75*
G03*
X99600000Y-62445000I-50000J0D01*
G01*
X99600000Y-62445000D02*
G75*
G03*
X99700000Y-62445000I50000J0D01*
G01*
%TO.C,G\u002A\u002A\u002A*%
G36*
X109715484Y-40659193D02*
G01*
X109715484Y-40864032D01*
X109664274Y-40864032D01*
X109613064Y-40864032D01*
X109613064Y-40659193D01*
X109613064Y-40454355D01*
X109664274Y-40454355D01*
X109715484Y-40454355D01*
X109715484Y-40659193D01*
G37*
G36*
X106289096Y-40456729D02*
G01*
X106304658Y-40469690D01*
X106313061Y-40501991D01*
X106317625Y-40562387D01*
X106319385Y-40602863D01*
X106325403Y-40751371D01*
X106473911Y-40757389D01*
X106550495Y-40761297D01*
X106594880Y-40767487D01*
X106615819Y-40779279D01*
X106622067Y-40799993D01*
X106622419Y-40813720D01*
X106620697Y-40838167D01*
X106610103Y-40853049D01*
X106582494Y-40860738D01*
X106529726Y-40863608D01*
X106449769Y-40864032D01*
X106354510Y-40861747D01*
X106292120Y-40854066D01*
X106254710Y-40839749D01*
X106244931Y-40831843D01*
X106227596Y-40802253D01*
X106217396Y-40750853D01*
X106213091Y-40669756D01*
X106212742Y-40627004D01*
X106213243Y-40543113D01*
X106216331Y-40492045D01*
X106224376Y-40465659D01*
X106239754Y-40455810D01*
X106263054Y-40454355D01*
X106289096Y-40456729D01*
G37*
G36*
X110370967Y-40659193D02*
G01*
X110370967Y-40864032D01*
X110293048Y-40864032D01*
X110253957Y-40861655D01*
X110222264Y-40850249D01*
X110189700Y-40823404D01*
X110147997Y-40774709D01*
X110103572Y-40717126D01*
X109992016Y-40570220D01*
X109985997Y-40717126D01*
X109982078Y-40793188D01*
X109975829Y-40837103D01*
X109963830Y-40857676D01*
X109942660Y-40863712D01*
X109928925Y-40864032D01*
X109877871Y-40864032D01*
X109883734Y-40664314D01*
X109889596Y-40464597D01*
X109970645Y-40464597D01*
X110011760Y-40466863D01*
X110044386Y-40477997D01*
X110077304Y-40504506D01*
X110119291Y-40552894D01*
X110160121Y-40605005D01*
X110268548Y-40745414D01*
X110268548Y-40599884D01*
X110269275Y-40524288D01*
X110273534Y-40480795D01*
X110284445Y-40460543D01*
X110305126Y-40454669D01*
X110319758Y-40454355D01*
X110370967Y-40454355D01*
X110370967Y-40659193D01*
G37*
G36*
X106045852Y-40630119D02*
G01*
X106039542Y-40728602D01*
X106025514Y-40794726D01*
X105996720Y-40834907D01*
X105946110Y-40855564D01*
X105866636Y-40863112D01*
X105788907Y-40864032D01*
X105700453Y-40862467D01*
X105642619Y-40856442D01*
X105605132Y-40843964D01*
X105577742Y-40823064D01*
X105556425Y-40794892D01*
X105543901Y-40756177D01*
X105538060Y-40696376D01*
X105536774Y-40618226D01*
X105537320Y-40536952D01*
X105540698Y-40488288D01*
X105549521Y-40463873D01*
X105566402Y-40455349D01*
X105587984Y-40454355D01*
X105617839Y-40457485D01*
X105633107Y-40473705D01*
X105638693Y-40513259D01*
X105639473Y-40561895D01*
X105641311Y-40653518D01*
X105650174Y-40711743D01*
X105671954Y-40744124D01*
X105712541Y-40758214D01*
X105777824Y-40761566D01*
X105795211Y-40761613D01*
X105925967Y-40761613D01*
X105925967Y-40607984D01*
X105925967Y-40454355D01*
X105989521Y-40454355D01*
X106053075Y-40454355D01*
X106045852Y-40630119D01*
G37*
G36*
X100533588Y-40458115D02*
G01*
X100562334Y-40463274D01*
X100579582Y-40476547D01*
X100588850Y-40506942D01*
X100593657Y-40563467D01*
X100596036Y-40617984D01*
X100598639Y-40722174D01*
X100594914Y-40792202D01*
X100582335Y-40834698D01*
X100558375Y-40856292D01*
X100520508Y-40863613D01*
X100502262Y-40864032D01*
X100463743Y-40861542D01*
X100432154Y-40849816D01*
X100399314Y-40822465D01*
X100357044Y-40773105D01*
X100313176Y-40716415D01*
X100200726Y-40568797D01*
X100194707Y-40716415D01*
X100190803Y-40792701D01*
X100184597Y-40836820D01*
X100172692Y-40857555D01*
X100151693Y-40863692D01*
X100137635Y-40864032D01*
X100086581Y-40864032D01*
X100092443Y-40664314D01*
X100098306Y-40464597D01*
X100179355Y-40464597D01*
X100220469Y-40466863D01*
X100253096Y-40477997D01*
X100286013Y-40504506D01*
X100328000Y-40552894D01*
X100368831Y-40605005D01*
X100477258Y-40745414D01*
X100477258Y-40598524D01*
X100477258Y-40451634D01*
X100533588Y-40458115D01*
G37*
G36*
X102417844Y-40456076D02*
G01*
X102432726Y-40466670D01*
X102440415Y-40494280D01*
X102443285Y-40547048D01*
X102443709Y-40627004D01*
X102441711Y-40727211D01*
X102431166Y-40794297D01*
X102405249Y-40834890D01*
X102357134Y-40855619D01*
X102279995Y-40863112D01*
X102199615Y-40864032D01*
X102108179Y-40862542D01*
X102048368Y-40856986D01*
X102010915Y-40845740D01*
X101986550Y-40827179D01*
X101985997Y-40826572D01*
X101967532Y-40794371D01*
X101956825Y-40742355D01*
X101952420Y-40661733D01*
X101952096Y-40621734D01*
X101952637Y-40539401D01*
X101955915Y-40489766D01*
X101964417Y-40464561D01*
X101980627Y-40455515D01*
X102002409Y-40454355D01*
X102028451Y-40456729D01*
X102044013Y-40469690D01*
X102052416Y-40501991D01*
X102056980Y-40562387D01*
X102058739Y-40602863D01*
X102064758Y-40751371D01*
X102197903Y-40751371D01*
X102331048Y-40751371D01*
X102337066Y-40602863D01*
X102340975Y-40526278D01*
X102347164Y-40481894D01*
X102358956Y-40460955D01*
X102379670Y-40454706D01*
X102393397Y-40454355D01*
X102417844Y-40456076D01*
G37*
G36*
X101105585Y-40454857D02*
G01*
X101156595Y-40457950D01*
X101182934Y-40466013D01*
X101192750Y-40481425D01*
X101194193Y-40504703D01*
X101192030Y-40530077D01*
X101179892Y-40545527D01*
X101149302Y-40554060D01*
X101091785Y-40558682D01*
X101035443Y-40561033D01*
X100876693Y-40567016D01*
X100870450Y-40664314D01*
X100864207Y-40761613D01*
X101029200Y-40761613D01*
X101110811Y-40762149D01*
X101159785Y-40765483D01*
X101184452Y-40774200D01*
X101193144Y-40790884D01*
X101194193Y-40812822D01*
X101192708Y-40837141D01*
X101182974Y-40852205D01*
X101157077Y-40860231D01*
X101107103Y-40863434D01*
X101025136Y-40864030D01*
X101011302Y-40864032D01*
X100911312Y-40861747D01*
X100845389Y-40854258D01*
X100806852Y-40840616D01*
X100798090Y-40833712D01*
X100769939Y-40784283D01*
X100755124Y-40714089D01*
X100753018Y-40635191D01*
X100762996Y-40559650D01*
X100784432Y-40499524D01*
X100816699Y-40466875D01*
X100817139Y-40466703D01*
X100851715Y-40460990D01*
X100915303Y-40456679D01*
X100995956Y-40454490D01*
X101021756Y-40454355D01*
X101105585Y-40454857D01*
G37*
G36*
X109355766Y-40454973D02*
G01*
X109408599Y-40457742D01*
X109436452Y-40465206D01*
X109447318Y-40479598D01*
X109449192Y-40503148D01*
X109449193Y-40504703D01*
X109447030Y-40530077D01*
X109434892Y-40545527D01*
X109404302Y-40554060D01*
X109346785Y-40558682D01*
X109290443Y-40561033D01*
X109131693Y-40567016D01*
X109125450Y-40664314D01*
X109119207Y-40761613D01*
X109284200Y-40761613D01*
X109365811Y-40762149D01*
X109414785Y-40765483D01*
X109439452Y-40774200D01*
X109448144Y-40790884D01*
X109449193Y-40812822D01*
X109447672Y-40837334D01*
X109437778Y-40852411D01*
X109411515Y-40860323D01*
X109360891Y-40863340D01*
X109277908Y-40863732D01*
X109269959Y-40863718D01*
X109186539Y-40861943D01*
X109118071Y-40857475D01*
X109075444Y-40851143D01*
X109068187Y-40848356D01*
X109029666Y-40800961D01*
X109007202Y-40729576D01*
X109000856Y-40647198D01*
X109010690Y-40566820D01*
X109036766Y-40501438D01*
X109066402Y-40470448D01*
X109096902Y-40463420D01*
X109157342Y-40457981D01*
X109236700Y-40454988D01*
X109269959Y-40454668D01*
X109355766Y-40454973D01*
G37*
G36*
X100197943Y-37168211D02*
G01*
X100250928Y-37189158D01*
X100332492Y-37223095D01*
X100438255Y-37268087D01*
X100563840Y-37322199D01*
X100704867Y-37383493D01*
X100856958Y-37450034D01*
X101015733Y-37519887D01*
X101176814Y-37591114D01*
X101335822Y-37661780D01*
X101488379Y-37729950D01*
X101630105Y-37793686D01*
X101756622Y-37851054D01*
X101863551Y-37900116D01*
X101946513Y-37938938D01*
X102001130Y-37965583D01*
X102022766Y-37977848D01*
X102020721Y-37988252D01*
X101984682Y-37992518D01*
X101912492Y-37990690D01*
X101801992Y-37982813D01*
X101798467Y-37982517D01*
X101652800Y-37967413D01*
X101479684Y-37944876D01*
X101290242Y-37916742D01*
X101095595Y-37884843D01*
X100906865Y-37851014D01*
X100735173Y-37817088D01*
X100591640Y-37784899D01*
X100574955Y-37780769D01*
X100549681Y-37768940D01*
X100520957Y-37742672D01*
X100485189Y-37697154D01*
X100438782Y-37627573D01*
X100378141Y-37529119D01*
X100342853Y-37470075D01*
X100285352Y-37371553D01*
X100237054Y-37285526D01*
X100201167Y-37217979D01*
X100180895Y-37174898D01*
X100177916Y-37162191D01*
X100197943Y-37168211D01*
G37*
G36*
X103217456Y-40454878D02*
G01*
X103267684Y-40458074D01*
X103293378Y-40466382D01*
X103302754Y-40482242D01*
X103304032Y-40504703D01*
X103301838Y-40530183D01*
X103289577Y-40545652D01*
X103258732Y-40554164D01*
X103200782Y-40558774D01*
X103146926Y-40561033D01*
X103053215Y-40568004D01*
X102997405Y-40580172D01*
X102981348Y-40592621D01*
X102988180Y-40606047D01*
X103022950Y-40614163D01*
X103090825Y-40617813D01*
X103138454Y-40618226D01*
X103220609Y-40619064D01*
X103270010Y-40622933D01*
X103294858Y-40631861D01*
X103303353Y-40647876D01*
X103304032Y-40659193D01*
X103300611Y-40679605D01*
X103284853Y-40691839D01*
X103248519Y-40697954D01*
X103183367Y-40700010D01*
X103140161Y-40700161D01*
X102976290Y-40700161D01*
X102976290Y-40782097D01*
X102973495Y-40834886D01*
X102960311Y-40858349D01*
X102929540Y-40864003D01*
X102925080Y-40864032D01*
X102900216Y-40862418D01*
X102885073Y-40852149D01*
X102877241Y-40825088D01*
X102874310Y-40773097D01*
X102873871Y-40691081D01*
X102876531Y-40593544D01*
X102888881Y-40527180D01*
X102917470Y-40486037D01*
X102968852Y-40464164D01*
X103049577Y-40455610D01*
X103134477Y-40454355D01*
X103217456Y-40454878D01*
G37*
G36*
X105284737Y-40458173D02*
G01*
X105362661Y-40464597D01*
X105368524Y-40664314D01*
X105374386Y-40864032D01*
X105322435Y-40864032D01*
X105294889Y-40861843D01*
X105279218Y-40849217D01*
X105271918Y-40817063D01*
X105269483Y-40756293D01*
X105269124Y-40725766D01*
X105267765Y-40587500D01*
X105202552Y-40720645D01*
X105167396Y-40789741D01*
X105141068Y-40829590D01*
X105115337Y-40848196D01*
X105081976Y-40853559D01*
X105065645Y-40853790D01*
X105027246Y-40851345D01*
X104999558Y-40838681D01*
X104974347Y-40807805D01*
X104943375Y-40750723D01*
X104928455Y-40720645D01*
X104862958Y-40587500D01*
X104861882Y-40725766D01*
X104860494Y-40799019D01*
X104855442Y-40840395D01*
X104843239Y-40858984D01*
X104820400Y-40863874D01*
X104808855Y-40864032D01*
X104756903Y-40864032D01*
X104762766Y-40664314D01*
X104768629Y-40464597D01*
X104846553Y-40458173D01*
X104924478Y-40451749D01*
X104988766Y-40596439D01*
X105020692Y-40664899D01*
X105047336Y-40715870D01*
X105063857Y-40740242D01*
X105065645Y-40741129D01*
X105079304Y-40723795D01*
X105104146Y-40677868D01*
X105135330Y-40612457D01*
X105142524Y-40596439D01*
X105206812Y-40451749D01*
X105284737Y-40458173D01*
G37*
G36*
X101442267Y-40458827D02*
G01*
X101456932Y-40479921D01*
X101460465Y-40529155D01*
X101460484Y-40536290D01*
X101463360Y-40589158D01*
X101476597Y-40612650D01*
X101507110Y-40618212D01*
X101509972Y-40618226D01*
X101561723Y-40599013D01*
X101620785Y-40540751D01*
X101624355Y-40536290D01*
X101683867Y-40475802D01*
X101735995Y-40454415D01*
X101738737Y-40454355D01*
X101775942Y-40460926D01*
X101784582Y-40483438D01*
X101764157Y-40526088D01*
X101723538Y-40581343D01*
X101689784Y-40630750D01*
X101675627Y-40666213D01*
X101678532Y-40676469D01*
X101703057Y-40700876D01*
X101737893Y-40743444D01*
X101773453Y-40791346D01*
X101800149Y-40831756D01*
X101808709Y-40850603D01*
X101791056Y-40860486D01*
X101754344Y-40864032D01*
X101703197Y-40848917D01*
X101646428Y-40800698D01*
X101629844Y-40782097D01*
X101567218Y-40722572D01*
X101513833Y-40700282D01*
X101510097Y-40700161D01*
X101478088Y-40704901D01*
X101463865Y-40726755D01*
X101460492Y-40777175D01*
X101460484Y-40782097D01*
X101457688Y-40834886D01*
X101444504Y-40858349D01*
X101413734Y-40864003D01*
X101409274Y-40864032D01*
X101358064Y-40864032D01*
X101358064Y-40659193D01*
X101358064Y-40454355D01*
X101409274Y-40454355D01*
X101442267Y-40458827D01*
G37*
G36*
X103810512Y-40457423D02*
G01*
X103882740Y-40469625D01*
X103927206Y-40496464D01*
X103950401Y-40543129D01*
X103958819Y-40614811D01*
X103959516Y-40658892D01*
X103956942Y-40745262D01*
X103944726Y-40803296D01*
X103916127Y-40838586D01*
X103864403Y-40856725D01*
X103782815Y-40863304D01*
X103712246Y-40864032D01*
X103620793Y-40862709D01*
X103560477Y-40857547D01*
X103521516Y-40846756D01*
X103494132Y-40828546D01*
X103488387Y-40823064D01*
X103458345Y-40768386D01*
X103446233Y-40692527D01*
X103447536Y-40669392D01*
X103556914Y-40669392D01*
X103562132Y-40711283D01*
X103571512Y-40738997D01*
X103588748Y-40754007D01*
X103623918Y-40759431D01*
X103687099Y-40758391D01*
X103711030Y-40757372D01*
X103846855Y-40751371D01*
X103846855Y-40659193D01*
X103846855Y-40567016D01*
X103711030Y-40561015D01*
X103638260Y-40558729D01*
X103596305Y-40562041D01*
X103575089Y-40574070D01*
X103564534Y-40597934D01*
X103562132Y-40607104D01*
X103556914Y-40669392D01*
X103447536Y-40669392D01*
X103450903Y-40609593D01*
X103471211Y-40533687D01*
X103506010Y-40478915D01*
X103517058Y-40470031D01*
X103547089Y-40462919D01*
X103606555Y-40457532D01*
X103683930Y-40454817D01*
X103704031Y-40454668D01*
X103810512Y-40457423D01*
G37*
G36*
X108660907Y-40466709D02*
G01*
X108695031Y-40490202D01*
X108716204Y-40521047D01*
X108748953Y-40575220D01*
X108787842Y-40642921D01*
X108827438Y-40714350D01*
X108862307Y-40779710D01*
X108887013Y-40829199D01*
X108896129Y-40852825D01*
X108878328Y-40860769D01*
X108836057Y-40864032D01*
X108784552Y-40852751D01*
X108762984Y-40823064D01*
X108750291Y-40800393D01*
X108723746Y-40787944D01*
X108673283Y-40782839D01*
X108619596Y-40782097D01*
X108546895Y-40783824D01*
X108505019Y-40790923D01*
X108483903Y-40806270D01*
X108476209Y-40823064D01*
X108450385Y-40855171D01*
X108400944Y-40864032D01*
X108358592Y-40859821D01*
X108348249Y-40843023D01*
X108352348Y-40828185D01*
X108367855Y-40794969D01*
X108397919Y-40736083D01*
X108416934Y-40700161D01*
X108548566Y-40700161D01*
X108620454Y-40700161D01*
X108692342Y-40700161D01*
X108658485Y-40633589D01*
X108635313Y-40588748D01*
X108621605Y-40563577D01*
X108620663Y-40562152D01*
X108610390Y-40575344D01*
X108589698Y-40614187D01*
X108582631Y-40628725D01*
X108548566Y-40700161D01*
X108416934Y-40700161D01*
X108437285Y-40661717D01*
X108458031Y-40623347D01*
X108502975Y-40543237D01*
X108535777Y-40493095D01*
X108562419Y-40466144D01*
X108588883Y-40455612D01*
X108607253Y-40454355D01*
X108660907Y-40466709D01*
G37*
G36*
X107052523Y-40456789D02*
G01*
X107077682Y-40468354D01*
X107103473Y-40495441D01*
X107135611Y-40544445D01*
X107179809Y-40621756D01*
X107192745Y-40645050D01*
X107236098Y-40724560D01*
X107270830Y-40790646D01*
X107292792Y-40835258D01*
X107298387Y-40849889D01*
X107280594Y-40859912D01*
X107238316Y-40864032D01*
X107186811Y-40852751D01*
X107165242Y-40823064D01*
X107151799Y-40799639D01*
X107123530Y-40787191D01*
X107069975Y-40782518D01*
X107031437Y-40782097D01*
X106959836Y-40784563D01*
X106917835Y-40794103D01*
X106894247Y-40813927D01*
X106888709Y-40823064D01*
X106848272Y-40857308D01*
X106806053Y-40864032D01*
X106763186Y-40860771D01*
X106745322Y-40852927D01*
X106745322Y-40852914D01*
X106754579Y-40831478D01*
X106779634Y-40782078D01*
X106816418Y-40712573D01*
X106823148Y-40700161D01*
X106950824Y-40700161D01*
X107022712Y-40700161D01*
X107094600Y-40700161D01*
X107060743Y-40633589D01*
X107037571Y-40588748D01*
X107023863Y-40563577D01*
X107022921Y-40562152D01*
X107012648Y-40575344D01*
X106991956Y-40614187D01*
X106984889Y-40628725D01*
X106950824Y-40700161D01*
X106823148Y-40700161D01*
X106851391Y-40648075D01*
X106899190Y-40562228D01*
X106933609Y-40506312D01*
X106960264Y-40473962D01*
X106984771Y-40458810D01*
X107012746Y-40454490D01*
X107022282Y-40454355D01*
X107052523Y-40456789D01*
G37*
G36*
X104428275Y-40455946D02*
G01*
X104496546Y-40461413D01*
X104539201Y-40471799D01*
X104562327Y-40486544D01*
X104586948Y-40535519D01*
X104593184Y-40602096D01*
X104581185Y-40667339D01*
X104560615Y-40703669D01*
X104538225Y-40735733D01*
X104546065Y-40762726D01*
X104557500Y-40776976D01*
X104595456Y-40825493D01*
X104603154Y-40851978D01*
X104580036Y-40862619D01*
X104549636Y-40863973D01*
X104492999Y-40853921D01*
X104451003Y-40816875D01*
X104440887Y-40802581D01*
X104406901Y-40762091D01*
X104366120Y-40744560D01*
X104312863Y-40741188D01*
X104258228Y-40743219D01*
X104233114Y-40754782D01*
X104226101Y-40783930D01*
X104225806Y-40802581D01*
X104220295Y-40846498D01*
X104196866Y-40862565D01*
X104174596Y-40864032D01*
X104123387Y-40864032D01*
X104123387Y-40659193D01*
X104123387Y-40607984D01*
X104225806Y-40607984D01*
X104228879Y-40637723D01*
X104244897Y-40652958D01*
X104284061Y-40658502D01*
X104334371Y-40659193D01*
X104400122Y-40655100D01*
X104449933Y-40644623D01*
X104465915Y-40636214D01*
X104485462Y-40601162D01*
X104466730Y-40575468D01*
X104411595Y-40560379D01*
X104346518Y-40556774D01*
X104279160Y-40557905D01*
X104243057Y-40564042D01*
X104228507Y-40579302D01*
X104225806Y-40607801D01*
X104225806Y-40607984D01*
X104123387Y-40607984D01*
X104123387Y-40454355D01*
X104326762Y-40454355D01*
X104428275Y-40455946D01*
G37*
G36*
X110915637Y-40454689D02*
G01*
X110974738Y-40456932D01*
X111007883Y-40462944D01*
X111022579Y-40474587D01*
X111026332Y-40493720D01*
X111026451Y-40504767D01*
X111024634Y-40528963D01*
X111013858Y-40544182D01*
X110986138Y-40552934D01*
X110933489Y-40557728D01*
X110847926Y-40561074D01*
X110847217Y-40561098D01*
X110667984Y-40567016D01*
X110661740Y-40664314D01*
X110655497Y-40761613D01*
X110789764Y-40761613D01*
X110864805Y-40759591D01*
X110906657Y-40752361D01*
X110922952Y-40738177D01*
X110924032Y-40730887D01*
X110911969Y-40710635D01*
X110870951Y-40701411D01*
X110831855Y-40700161D01*
X110774251Y-40697481D01*
X110747012Y-40686350D01*
X110739712Y-40662136D01*
X110739677Y-40659193D01*
X110743546Y-40637664D01*
X110760991Y-40625330D01*
X110800773Y-40619688D01*
X110871651Y-40618237D01*
X110883064Y-40618226D01*
X111026451Y-40618226D01*
X111026451Y-40708728D01*
X111025111Y-40777736D01*
X111016231Y-40822505D01*
X110992527Y-40848281D01*
X110946710Y-40860306D01*
X110871496Y-40863823D01*
X110810642Y-40864032D01*
X110710731Y-40862111D01*
X110644247Y-40855653D01*
X110603802Y-40843615D01*
X110588316Y-40832648D01*
X110557509Y-40778848D01*
X110540331Y-40701280D01*
X110539665Y-40615708D01*
X110543605Y-40588158D01*
X110557976Y-40531903D01*
X110580989Y-40493924D01*
X110619960Y-40470720D01*
X110682203Y-40458789D01*
X110775033Y-40454628D01*
X110823076Y-40454355D01*
X110915637Y-40454689D01*
G37*
G36*
X108059066Y-40457054D02*
G01*
X108134779Y-40464903D01*
X108173495Y-40477529D01*
X108175096Y-40478935D01*
X108192613Y-40517220D01*
X108199829Y-40575941D01*
X108197208Y-40639364D01*
X108185216Y-40691752D01*
X108168108Y-40715793D01*
X108149741Y-40732160D01*
X108156152Y-40756049D01*
X108178350Y-40786614D01*
X108211150Y-40832382D01*
X108214545Y-40855453D01*
X108186754Y-40863383D01*
X108160104Y-40864032D01*
X108103862Y-40849985D01*
X108056435Y-40802785D01*
X108056290Y-40802581D01*
X108017220Y-40759967D01*
X107970268Y-40743080D01*
X107931992Y-40741129D01*
X107880035Y-40743666D01*
X107857164Y-40757296D01*
X107851547Y-40791045D01*
X107851451Y-40802581D01*
X107845940Y-40846498D01*
X107822511Y-40862565D01*
X107800242Y-40864032D01*
X107749032Y-40864032D01*
X107749032Y-40659193D01*
X107749032Y-40609006D01*
X107851451Y-40609006D01*
X107853749Y-40638253D01*
X107867188Y-40653144D01*
X107901582Y-40657521D01*
X107966749Y-40655224D01*
X107969234Y-40655095D01*
X108036599Y-40649768D01*
X108073223Y-40639909D01*
X108089329Y-40621222D01*
X108093561Y-40602863D01*
X108094272Y-40577439D01*
X108081207Y-40563629D01*
X108045374Y-40557913D01*
X107977784Y-40556774D01*
X107975779Y-40556774D01*
X107907195Y-40557798D01*
X107869997Y-40563551D01*
X107854611Y-40578056D01*
X107851462Y-40605335D01*
X107851451Y-40609006D01*
X107749032Y-40609006D01*
X107749032Y-40454355D01*
X107949774Y-40454355D01*
X108059066Y-40457054D01*
G37*
G36*
X99271110Y-37358076D02*
G01*
X99315957Y-37382194D01*
X99377594Y-37418586D01*
X99391613Y-37427194D01*
X99631582Y-37560495D01*
X99904090Y-37685292D01*
X100201103Y-37798745D01*
X100514585Y-37898019D01*
X100836501Y-37980273D01*
X101112258Y-38034945D01*
X101486633Y-38084632D01*
X101886576Y-38111036D01*
X102303842Y-38114004D01*
X102730184Y-38093383D01*
X102986532Y-38069667D01*
X103440564Y-38030399D01*
X103903494Y-38010210D01*
X104369268Y-38008674D01*
X104831831Y-38025367D01*
X105285131Y-38059863D01*
X105723110Y-38111736D01*
X106139717Y-38180561D01*
X106528895Y-38265913D01*
X106786290Y-38336627D01*
X106862488Y-38361404D01*
X106926041Y-38385296D01*
X106972008Y-38405736D01*
X106995447Y-38420155D01*
X106991417Y-38425986D01*
X106954975Y-38420661D01*
X106942586Y-38417848D01*
X106885542Y-38406466D01*
X106796069Y-38391128D01*
X106682381Y-38373041D01*
X106552691Y-38353413D01*
X106415210Y-38333448D01*
X106278153Y-38314354D01*
X106149732Y-38297337D01*
X106038160Y-38283603D01*
X105997661Y-38279035D01*
X105866764Y-38268132D01*
X105705151Y-38259930D01*
X105520550Y-38254384D01*
X105320688Y-38251448D01*
X105113291Y-38251076D01*
X104906087Y-38253222D01*
X104706803Y-38257841D01*
X104523165Y-38264888D01*
X104362901Y-38274315D01*
X104233738Y-38286079D01*
X104205322Y-38289633D01*
X103754872Y-38365711D01*
X103331790Y-38469508D01*
X102931794Y-38602725D01*
X102550604Y-38767067D01*
X102183940Y-38964237D01*
X101827520Y-39195939D01*
X101706290Y-39284096D01*
X101605218Y-39363736D01*
X101493328Y-39458846D01*
X101377090Y-39563238D01*
X101262977Y-39670725D01*
X101157461Y-39775122D01*
X101067012Y-39870240D01*
X100998103Y-39949894D01*
X100968871Y-39989044D01*
X100931442Y-40040785D01*
X100906474Y-40061417D01*
X100885746Y-40055196D01*
X100871287Y-40039556D01*
X100855662Y-40015880D01*
X100821392Y-39961025D01*
X100770450Y-39878266D01*
X100704809Y-39770881D01*
X100626444Y-39642144D01*
X100537326Y-39495333D01*
X100439431Y-39333724D01*
X100334730Y-39160592D01*
X100225197Y-38979214D01*
X100112806Y-38792867D01*
X99999530Y-38604826D01*
X99887342Y-38418367D01*
X99778215Y-38236767D01*
X99674124Y-38063303D01*
X99577041Y-37901249D01*
X99488939Y-37753883D01*
X99411793Y-37624480D01*
X99347575Y-37516318D01*
X99298258Y-37432671D01*
X99265817Y-37376817D01*
X99252223Y-37352031D01*
X99251949Y-37351079D01*
X99271110Y-37358076D01*
G37*
G36*
X106813911Y-37596896D02*
G01*
X106869215Y-37608631D01*
X106950217Y-37628899D01*
X107050222Y-37655838D01*
X107162534Y-37687584D01*
X107280455Y-37722276D01*
X107397291Y-37758049D01*
X107506345Y-37793042D01*
X107533951Y-37802238D01*
X108049023Y-37994285D01*
X108566192Y-38224167D01*
X109080694Y-38489330D01*
X109587763Y-38787221D01*
X110082635Y-39115285D01*
X110360726Y-39317279D01*
X110486290Y-39413229D01*
X110613169Y-39513239D01*
X110737772Y-39614177D01*
X110856511Y-39712911D01*
X110965797Y-39806308D01*
X111062040Y-39891238D01*
X111141653Y-39964567D01*
X111201045Y-40023164D01*
X111236628Y-40063896D01*
X111244814Y-40083632D01*
X111240429Y-40084996D01*
X111211731Y-40073250D01*
X111169530Y-40045839D01*
X111168744Y-40045253D01*
X111111197Y-40007886D01*
X111024236Y-39958480D01*
X110916087Y-39901164D01*
X110794976Y-39840070D01*
X110669132Y-39779329D01*
X110546781Y-39723070D01*
X110436150Y-39675424D01*
X110415161Y-39666893D01*
X109985738Y-39516481D01*
X109545358Y-39405076D01*
X109096457Y-39332967D01*
X108641473Y-39300447D01*
X108182845Y-39307806D01*
X107759274Y-39350118D01*
X107640910Y-39365933D01*
X107534514Y-39377968D01*
X107431314Y-39386693D01*
X107322541Y-39392578D01*
X107199426Y-39396092D01*
X107053197Y-39397707D01*
X106875087Y-39397892D01*
X106868226Y-39397879D01*
X106572980Y-39393139D01*
X106307970Y-39379183D01*
X106063192Y-39354476D01*
X105828642Y-39317484D01*
X105594315Y-39266673D01*
X105350207Y-39200508D01*
X105127096Y-39130903D01*
X105033095Y-39097640D01*
X104924105Y-39055028D01*
X104806071Y-39005837D01*
X104684937Y-38952837D01*
X104566649Y-38898798D01*
X104457152Y-38846490D01*
X104362389Y-38798682D01*
X104288305Y-38758145D01*
X104240845Y-38727649D01*
X104225806Y-38710938D01*
X104241528Y-38698500D01*
X104261653Y-38701107D01*
X104299876Y-38708816D01*
X104371857Y-38719607D01*
X104470574Y-38732670D01*
X104589003Y-38747197D01*
X104720119Y-38762378D01*
X104856900Y-38777403D01*
X104992322Y-38791464D01*
X105119361Y-38803752D01*
X105230993Y-38813456D01*
X105248973Y-38814871D01*
X105404703Y-38824376D01*
X105581026Y-38830936D01*
X105768477Y-38834553D01*
X105957591Y-38835230D01*
X106138903Y-38832970D01*
X106302947Y-38827773D01*
X106440259Y-38819644D01*
X106495202Y-38814560D01*
X106750402Y-38777599D01*
X106967305Y-38726202D01*
X107145963Y-38660348D01*
X107286429Y-38580013D01*
X107388754Y-38485173D01*
X107444540Y-38395901D01*
X107476967Y-38281196D01*
X107469060Y-38168353D01*
X107420706Y-38057214D01*
X107331791Y-37947621D01*
X107202203Y-37839416D01*
X107031828Y-37732440D01*
X106932699Y-37680060D01*
X106864783Y-37644479D01*
X106815091Y-37615562D01*
X106791598Y-37598065D01*
X106791002Y-37595557D01*
X106813911Y-37596896D01*
G37*
D13*
%TO.C,C1*%
X106000440Y-77796267D02*
X106000440Y-77503733D01*
X107020440Y-77796267D02*
X107020440Y-77503733D01*
%TO.C,U1*%
X102972940Y-79272500D02*
X103772940Y-79272500D01*
X102972940Y-79272500D02*
X102172940Y-79272500D01*
X102972940Y-76152500D02*
X103772940Y-76152500D01*
X102972940Y-76152500D02*
X102172940Y-76152500D01*
X104512940Y-79552500D02*
X104032940Y-79552500D01*
X104272940Y-79222500D01*
X104512940Y-79552500D01*
G36*
X104512940Y-79552500D02*
G01*
X104032940Y-79552500D01*
X104272940Y-79222500D01*
X104512940Y-79552500D01*
G37*
%TO.C,G\u002A\u002A\u002A*%
G36*
X92295115Y-38413499D02*
G01*
X92295115Y-39902309D01*
X92092096Y-39902309D01*
X91889076Y-39902309D01*
X91889076Y-38413499D01*
X91889076Y-36924689D01*
X92092096Y-36924689D01*
X92295115Y-36924689D01*
X92295115Y-38413499D01*
G37*
G36*
X91483037Y-39041737D02*
G01*
X91483037Y-39895553D01*
X90995333Y-39896882D01*
X90760172Y-39894443D01*
X90594881Y-39883876D01*
X90479270Y-39862571D01*
X90393145Y-39827913D01*
X90373073Y-39816382D01*
X90159535Y-39641355D01*
X90020048Y-39428951D01*
X89958001Y-39193112D01*
X89962674Y-39132072D01*
X90445382Y-39132072D01*
X90486999Y-39275389D01*
X90564254Y-39357649D01*
X90707766Y-39437811D01*
X90836544Y-39432320D01*
X90966170Y-39340506D01*
X90966260Y-39340417D01*
X91058131Y-39210785D01*
X91063680Y-39082011D01*
X90983574Y-38938515D01*
X90983493Y-38938411D01*
X90862851Y-38844713D01*
X90725228Y-38823123D01*
X90594211Y-38865152D01*
X90493387Y-38962313D01*
X90446343Y-39106117D01*
X90445382Y-39132072D01*
X89962674Y-39132072D01*
X89976782Y-38947780D01*
X90079780Y-38706899D01*
X90096989Y-38680394D01*
X90260854Y-38500215D01*
X90466451Y-38391931D01*
X90725455Y-38350003D01*
X90795026Y-38349176D01*
X90950875Y-38347564D01*
X91036501Y-38334521D01*
X91071722Y-38304492D01*
X91076998Y-38270157D01*
X91093303Y-38218226D01*
X91156771Y-38193767D01*
X91280018Y-38187922D01*
X91483037Y-38187922D01*
X91483037Y-39041737D01*
G37*
G36*
X94189964Y-39042749D02*
G01*
X94189964Y-39897577D01*
X93727531Y-39896334D01*
X93519858Y-39891571D01*
X93335626Y-39879761D01*
X93200341Y-39862919D01*
X93152332Y-39850874D01*
X92978888Y-39744928D01*
X92825769Y-39584309D01*
X92764541Y-39487232D01*
X92719057Y-39335635D01*
X92703381Y-39140962D01*
X92707638Y-39081923D01*
X93165652Y-39081923D01*
X93171144Y-39210701D01*
X93262957Y-39340327D01*
X93263047Y-39340417D01*
X93392678Y-39432287D01*
X93521452Y-39437836D01*
X93664949Y-39357731D01*
X93665052Y-39357649D01*
X93758751Y-39237007D01*
X93780341Y-39099385D01*
X93738311Y-38968368D01*
X93641150Y-38867544D01*
X93497347Y-38820499D01*
X93471391Y-38819538D01*
X93328075Y-38861155D01*
X93245814Y-38938411D01*
X93165652Y-39081923D01*
X92707638Y-39081923D01*
X92717500Y-38945169D01*
X92761396Y-38790207D01*
X92764800Y-38783461D01*
X92917307Y-38578937D01*
X93121588Y-38430349D01*
X93356369Y-38348780D01*
X93600376Y-38345317D01*
X93604399Y-38345984D01*
X93719325Y-38360388D01*
X93770947Y-38345486D01*
X93783818Y-38292543D01*
X93783925Y-38282118D01*
X93796051Y-38223462D01*
X93847974Y-38195700D01*
X93963015Y-38188012D01*
X93986945Y-38187922D01*
X94189964Y-38187922D01*
X94189964Y-39042749D01*
G37*
G36*
X96953286Y-38196607D02*
G01*
X97145026Y-38210480D01*
X97167584Y-38706750D01*
X97179591Y-38912617D01*
X97194673Y-39086622D01*
X97210728Y-39208014D01*
X97223010Y-39253539D01*
X97319530Y-39333301D01*
X97459658Y-39380134D01*
X97599218Y-39381990D01*
X97643329Y-39368206D01*
X97689212Y-39344109D01*
X97720270Y-39310551D01*
X97739394Y-39251466D01*
X97749477Y-39150788D01*
X97753410Y-38992452D01*
X97754085Y-38760393D01*
X97754085Y-38752832D01*
X97754085Y-38187922D01*
X97959480Y-38187922D01*
X98164875Y-38187922D01*
X98151220Y-39597780D01*
X98146854Y-40017490D01*
X98141416Y-40356513D01*
X98132934Y-40624389D01*
X98119439Y-40830656D01*
X98098960Y-40984854D01*
X98069528Y-41096523D01*
X98029173Y-41175201D01*
X97975923Y-41230428D01*
X97907809Y-41271743D01*
X97822861Y-41308686D01*
X97795605Y-41319620D01*
X97605347Y-41378754D01*
X97447812Y-41380499D01*
X97285665Y-41324331D01*
X97261022Y-41312097D01*
X97129628Y-41223605D01*
X97020280Y-41115654D01*
X97014672Y-41108230D01*
X96923019Y-40983245D01*
X97064684Y-40841581D01*
X97206348Y-40699916D01*
X97326323Y-40842498D01*
X97449742Y-40954092D01*
X97561602Y-40978029D01*
X97667438Y-40915253D01*
X97679419Y-40902575D01*
X97713107Y-40848292D01*
X97735295Y-40762930D01*
X97748060Y-40629692D01*
X97753480Y-40431781D01*
X97754085Y-40298939D01*
X97754085Y-39777808D01*
X97482786Y-39758184D01*
X97243400Y-39717169D01*
X97059257Y-39623817D01*
X96903296Y-39462773D01*
X96863055Y-39406498D01*
X96819204Y-39333543D01*
X96790076Y-39254793D01*
X96772730Y-39150360D01*
X96764224Y-39000358D01*
X96761619Y-38784900D01*
X96761545Y-38720041D01*
X96761545Y-38182734D01*
X96953286Y-38196607D01*
G37*
G36*
X96340298Y-38153386D02*
G01*
X96342616Y-38155696D01*
X96381043Y-38203234D01*
X96380749Y-38250306D01*
X96333021Y-38318257D01*
X96232840Y-38424640D01*
X96130006Y-38533452D01*
X96081261Y-38604056D01*
X96077278Y-38662429D01*
X96108726Y-38734547D01*
X96116361Y-38748981D01*
X96156826Y-38861031D01*
X96169874Y-39008249D01*
X96161046Y-39187722D01*
X96149348Y-39351083D01*
X96153111Y-39450848D01*
X96179339Y-39513256D01*
X96235033Y-39564543D01*
X96267995Y-39588438D01*
X96373848Y-39687328D01*
X96393083Y-39775850D01*
X96330938Y-39858862D01*
X96278869Y-39884021D01*
X96216906Y-39862622D01*
X96122730Y-39785198D01*
X96094082Y-39758390D01*
X95991136Y-39666602D01*
X95922418Y-39629895D01*
X95859585Y-39638337D01*
X95814121Y-39660301D01*
X95661210Y-39706435D01*
X95469144Y-39718296D01*
X95282191Y-39695994D01*
X95175389Y-39658732D01*
X95097674Y-39625729D01*
X95036699Y-39634008D01*
X94961989Y-39693848D01*
X94907125Y-39749240D01*
X94802699Y-39851594D01*
X94736418Y-39893349D01*
X94686455Y-39881321D01*
X94639585Y-39832787D01*
X94613369Y-39778675D01*
X94637170Y-39715956D01*
X94720458Y-39620301D01*
X94723521Y-39617136D01*
X94799318Y-39533491D01*
X94839038Y-39461080D01*
X94850673Y-39369001D01*
X94842218Y-39226351D01*
X94837613Y-39176064D01*
X94827823Y-38979702D01*
X94844305Y-38841266D01*
X94880348Y-38748820D01*
X94916506Y-38672205D01*
X94918708Y-38613394D01*
X94877619Y-38546422D01*
X94783903Y-38445322D01*
X94763785Y-38424640D01*
X94661576Y-38315916D01*
X94615272Y-38248827D01*
X94616161Y-38202028D01*
X94654009Y-38155696D01*
X94700920Y-38117807D01*
X94747610Y-38117866D01*
X94814782Y-38164699D01*
X94923136Y-38267131D01*
X94929084Y-38272965D01*
X95044261Y-38379824D01*
X95121173Y-38429843D01*
X95181344Y-38433760D01*
X95219507Y-38417841D01*
X95350296Y-38380412D01*
X95521103Y-38370298D01*
X95685947Y-38387496D01*
X95777118Y-38417841D01*
X95837701Y-38437023D01*
X95901736Y-38416731D01*
X95990748Y-38346229D01*
X96067541Y-38272965D01*
X96178149Y-38167923D01*
X96246676Y-38118863D01*
X96293825Y-38116959D01*
X96340298Y-38153386D01*
G37*
G36*
X88178855Y-36638638D02*
G01*
X88339695Y-36658848D01*
X88482419Y-36700726D01*
X88605486Y-36753327D01*
X88921539Y-36944531D01*
X89191572Y-37196419D01*
X89396859Y-37490614D01*
X89435719Y-37568292D01*
X89477464Y-37660633D01*
X89509318Y-37742556D01*
X89532819Y-37827999D01*
X89549504Y-37930902D01*
X89560911Y-38065201D01*
X89568577Y-38244835D01*
X89574040Y-38483741D01*
X89578837Y-38795859D01*
X89579959Y-38875932D01*
X89594287Y-39902309D01*
X89320545Y-39902309D01*
X89046803Y-39902309D01*
X89046803Y-39680874D01*
X89046803Y-39459439D01*
X88725206Y-39624480D01*
X88363130Y-39762778D01*
X87992672Y-39814910D01*
X87625289Y-39781848D01*
X87272441Y-39664561D01*
X86959952Y-39475105D01*
X86724271Y-39242059D01*
X86538022Y-38950915D01*
X86410915Y-38624589D01*
X86359063Y-38323224D01*
X87611935Y-38323224D01*
X87661725Y-38467411D01*
X87766362Y-38579216D01*
X87916607Y-38636073D01*
X87964032Y-38639076D01*
X88122952Y-38596449D01*
X88216268Y-38526288D01*
X88276229Y-38473251D01*
X88341776Y-38440044D01*
X88434846Y-38422077D01*
X88577376Y-38414765D01*
X88755603Y-38413499D01*
X89182149Y-38413499D01*
X89182149Y-39082712D01*
X89184201Y-39320041D01*
X89189850Y-39524768D01*
X89198333Y-39680194D01*
X89208890Y-39769625D01*
X89214129Y-39783904D01*
X89280373Y-39804506D01*
X89338196Y-39802702D01*
X89370817Y-39794012D01*
X89394941Y-39770398D01*
X89412113Y-39719495D01*
X89423876Y-39628936D01*
X89431772Y-39486354D01*
X89437345Y-39279384D01*
X89442138Y-38995658D01*
X89442581Y-38966163D01*
X89454877Y-38142806D01*
X88907708Y-38142806D01*
X88675073Y-38141717D01*
X88513721Y-38136357D01*
X88404712Y-38123592D01*
X88329105Y-38100285D01*
X88267959Y-38063299D01*
X88226497Y-38030018D01*
X88059805Y-37935788D01*
X87893648Y-37926706D01*
X87741215Y-38002825D01*
X87713846Y-38027967D01*
X87626229Y-38169221D01*
X87611935Y-38323224D01*
X86359063Y-38323224D01*
X86352658Y-38286000D01*
X86358014Y-38054213D01*
X86440930Y-37709063D01*
X86602693Y-37386172D01*
X86832218Y-37100472D01*
X87118419Y-36866894D01*
X87324514Y-36752441D01*
X87477605Y-36689172D01*
X87621370Y-36652711D01*
X87791563Y-36636404D01*
X87964032Y-36633392D01*
X88178855Y-36638638D01*
G37*
%TO.C,D1*%
X89035000Y-77560000D02*
X89035000Y-75640000D01*
X89035000Y-75640000D02*
X86175000Y-75640000D01*
X86175000Y-77560000D02*
X89035000Y-77560000D01*
%TD*%
M02*
