%TF.GenerationSoftware,KiCad,Pcbnew,7.0.11-rc3*%
%TF.CreationDate,2025-03-16T23:28:07+08:00*%
%TF.ProjectId,imu-base,696d752d-6261-4736-952e-6b696361645f,rev?*%
%TF.SameCoordinates,Original*%
%TF.FileFunction,Soldermask,Top*%
%TF.FilePolarity,Negative*%
%FSLAX46Y46*%
G04 Gerber Fmt 4.6, Leading zero omitted, Abs format (unit mm)*
G04 Created by KiCad (PCBNEW 7.0.11-rc3) date 2025-03-16 23:28:07*
%MOMM*%
%LPD*%
G01*
G04 APERTURE LIST*
G04 Aperture macros list*
%AMRoundRect*
0 Rectangle with rounded corners*
0 $1 Rounding radius*
0 $2 $3 $4 $5 $6 $7 $8 $9 X,Y pos of 4 corners*
0 Add a 4 corners polygon primitive as box body*
4,1,4,$2,$3,$4,$5,$6,$7,$8,$9,$2,$3,0*
0 Add four circle primitives for the rounded corners*
1,1,$1+$1,$2,$3*
1,1,$1+$1,$4,$5*
1,1,$1+$1,$6,$7*
1,1,$1+$1,$8,$9*
0 Add four rect primitives between the rounded corners*
20,1,$1+$1,$2,$3,$4,$5,0*
20,1,$1+$1,$4,$5,$6,$7,0*
20,1,$1+$1,$6,$7,$8,$9,0*
20,1,$1+$1,$8,$9,$2,$3,0*%
G04 Aperture macros list end*
%ADD10RoundRect,0.200000X-0.200000X-0.275000X0.200000X-0.275000X0.200000X0.275000X-0.200000X0.275000X0*%
%ADD11RoundRect,0.237500X-0.250000X-0.237500X0.250000X-0.237500X0.250000X0.237500X-0.250000X0.237500X0*%
%ADD12C,4.400000*%
%ADD13RoundRect,0.200000X0.200000X0.275000X-0.200000X0.275000X-0.200000X-0.275000X0.200000X-0.275000X0*%
%ADD14RoundRect,0.250000X0.475000X-0.337500X0.475000X0.337500X-0.475000X0.337500X-0.475000X-0.337500X0*%
%ADD15C,2.000000*%
%ADD16C,4.000000*%
%ADD17R,1.600000X1.600000*%
%ADD18C,1.600000*%
%ADD19R,1.100000X0.800000*%
%ADD20R,2.750000X1.200000*%
%ADD21RoundRect,0.237500X0.237500X-0.300000X0.237500X0.300000X-0.237500X0.300000X-0.237500X-0.300000X0*%
%ADD22RoundRect,0.150000X0.512500X0.150000X-0.512500X0.150000X-0.512500X-0.150000X0.512500X-0.150000X0*%
%ADD23RoundRect,0.250000X0.325000X0.450000X-0.325000X0.450000X-0.325000X-0.450000X0.325000X-0.450000X0*%
G04 APERTURE END LIST*
D10*
%TO.C,R4*%
X98685440Y-74712500D03*
X100335440Y-74712500D03*
%TD*%
D11*
%TO.C,R1*%
X82487500Y-76600000D03*
X84312500Y-76600000D03*
%TD*%
D12*
%TO.C,H7*%
X75999999Y-39000000D03*
%TD*%
%TO.C,H1*%
X79500000Y-58000000D03*
%TD*%
%TO.C,H4*%
X75999999Y-77000000D03*
%TD*%
D13*
%TO.C,R2*%
X103997940Y-74712500D03*
X102347940Y-74712500D03*
%TD*%
D14*
%TO.C,C3*%
X99110440Y-78787500D03*
X99110440Y-76712500D03*
%TD*%
D15*
%TO.C,TP1*%
X94800000Y-76600000D03*
%TD*%
D16*
%TO.C,J2*%
X108580000Y-70490000D03*
X108580000Y-45490000D03*
D17*
X107160000Y-52450000D03*
D18*
X107160000Y-55220000D03*
X107160000Y-57990000D03*
X107160000Y-60760000D03*
X107160000Y-63530000D03*
X110000000Y-53835000D03*
X110000000Y-56605000D03*
X110000000Y-59375000D03*
X110000000Y-62145000D03*
%TD*%
D12*
%TO.C,H3*%
X100500000Y-45300000D03*
%TD*%
%TO.C,H5*%
X114000000Y-77000000D03*
%TD*%
%TO.C,H2*%
X100500000Y-70700000D03*
%TD*%
D18*
%TO.C,J1*%
X96000000Y-64655000D03*
X96000000Y-51345000D03*
D19*
X98750000Y-62445000D03*
X98750000Y-61175000D03*
X98750000Y-59905000D03*
X98750000Y-58635000D03*
X98750000Y-57365000D03*
X98750000Y-56095000D03*
X98750000Y-54825000D03*
X98750000Y-53555000D03*
X93250000Y-62445000D03*
X93250000Y-61175000D03*
X93250000Y-59905000D03*
X93250000Y-58635000D03*
X93250000Y-57365000D03*
X93250000Y-56095000D03*
X93250000Y-54825000D03*
X93250000Y-53555000D03*
D20*
X93575000Y-64955000D03*
X98425000Y-64955000D03*
X98425000Y-51045000D03*
X93575000Y-51045000D03*
%TD*%
D21*
%TO.C,C1*%
X106510440Y-78512500D03*
X106510440Y-76787500D03*
%TD*%
D22*
%TO.C,U1*%
X104110440Y-78662500D03*
X104110440Y-77712500D03*
X104110440Y-76762500D03*
X101835440Y-76762500D03*
X101835440Y-78662500D03*
%TD*%
D12*
%TO.C,H6*%
X114000000Y-39000000D03*
%TD*%
D23*
%TO.C,D1*%
X88200000Y-76600000D03*
X86150000Y-76600000D03*
%TD*%
M02*
