%TF.GenerationSoftware,KiCad,Pcbnew,7.0.11-rc3*%
%TF.CreationDate,2025-03-16T23:24:32+08:00*%
%TF.ProjectId,BQ79616_BMS_14Ch,42513739-3631-4365-9f42-4d535f313443,V1.2*%
%TF.SameCoordinates,Original*%
%TF.FileFunction,Profile,NP*%
%FSLAX46Y46*%
G04 Gerber Fmt 4.6, Leading zero omitted, Abs format (unit mm)*
G04 Created by KiCad (PCBNEW 7.0.11-rc3) date 2025-03-16 23:24:32*
%MOMM*%
%LPD*%
G01*
G04 APERTURE LIST*
%TA.AperFunction,Profile*%
%ADD10C,0.050000*%
%TD*%
G04 APERTURE END LIST*
D10*
X80004163Y-126595837D02*
G75*
G03*
X83404163Y-129995837I3400037J37D01*
G01*
X96000000Y-81000000D02*
G75*
G03*
X97000000Y-80000000I0J1000000D01*
G01*
X219995837Y-63404163D02*
G75*
G03*
X216595837Y-60004163I-3400037J-37D01*
G01*
X83400000Y-60000000D02*
G75*
G03*
X80000000Y-63400000I0J-3400000D01*
G01*
X216595837Y-129995837D02*
G75*
G03*
X219995837Y-126595837I-37J3400037D01*
G01*
X204000000Y-109000000D02*
G75*
G03*
X203000000Y-110000000I0J-1000000D01*
G01*
X219995837Y-63404163D02*
X219995837Y-126595837D01*
X216595837Y-129995837D02*
X83404163Y-129995837D01*
X87000000Y-81000000D02*
X96000000Y-81000000D01*
X87000000Y-81000000D02*
G75*
G03*
X87000000Y-83000000I0J-1000000D01*
G01*
X213000000Y-109000000D02*
G75*
G03*
X213000000Y-107000000I0J1000000D01*
G01*
X80004163Y-126595837D02*
X80000000Y-63400000D01*
X201000000Y-109000000D02*
X201000000Y-124000000D01*
X99000000Y-66000000D02*
G75*
G03*
X97000000Y-66000000I-1000000J0D01*
G01*
X203000000Y-110000000D02*
X203000000Y-124000000D01*
X201000000Y-124000000D02*
G75*
G03*
X203000000Y-124000000I1000000J0D01*
G01*
X99000000Y-81000000D02*
X99000000Y-66000000D01*
X97000000Y-83000000D02*
G75*
G03*
X99000000Y-81000000I0J2000000D01*
G01*
X97000000Y-80000000D02*
X97000000Y-66000000D01*
X203000000Y-107000000D02*
G75*
G03*
X201000000Y-109000000I0J-2000000D01*
G01*
X213000000Y-109000000D02*
X204000000Y-109000000D01*
X83400000Y-60000000D02*
X216595837Y-60004163D01*
X87000000Y-83000000D02*
X97000000Y-83000000D01*
X213000000Y-107000000D02*
X203000000Y-107000000D01*
M02*
