%TF.GenerationSoftware,KiCad,Pcbnew,7.0.11-rc3*%
%TF.CreationDate,2025-03-16T23:24:32+08:00*%
%TF.ProjectId,BQ79616_BMS_14Ch,42513739-3631-4365-9f42-4d535f313443,V1.2*%
%TF.SameCoordinates,Original*%
%TF.FileFunction,Soldermask,Top*%
%TF.FilePolarity,Negative*%
%FSLAX46Y46*%
G04 Gerber Fmt 4.6, Leading zero omitted, Abs format (unit mm)*
G04 Created by KiCad (PCBNEW 7.0.11-rc3) date 2025-03-16 23:24:32*
%MOMM*%
%LPD*%
G01*
G04 APERTURE LIST*
G04 Aperture macros list*
%AMRoundRect*
0 Rectangle with rounded corners*
0 $1 Rounding radius*
0 $2 $3 $4 $5 $6 $7 $8 $9 X,Y pos of 4 corners*
0 Add a 4 corners polygon primitive as box body*
4,1,4,$2,$3,$4,$5,$6,$7,$8,$9,$2,$3,0*
0 Add four circle primitives for the rounded corners*
1,1,$1+$1,$2,$3*
1,1,$1+$1,$4,$5*
1,1,$1+$1,$6,$7*
1,1,$1+$1,$8,$9*
0 Add four rect primitives between the rounded corners*
20,1,$1+$1,$2,$3,$4,$5,0*
20,1,$1+$1,$4,$5,$6,$7,0*
20,1,$1+$1,$6,$7,$8,$9,0*
20,1,$1+$1,$8,$9,$2,$3,0*%
%AMFreePoly0*
4,1,19,0.500000,-0.750000,0.000000,-0.750000,0.000000,-0.744911,-0.071157,-0.744911,-0.207708,-0.704816,-0.327430,-0.627875,-0.420627,-0.520320,-0.479746,-0.390866,-0.500000,-0.250000,-0.500000,0.250000,-0.479746,0.390866,-0.420627,0.520320,-0.327430,0.627875,-0.207708,0.704816,-0.071157,0.744911,0.000000,0.744911,0.000000,0.750000,0.500000,0.750000,0.500000,-0.750000,0.500000,-0.750000,
$1*%
%AMFreePoly1*
4,1,19,0.000000,0.744911,0.071157,0.744911,0.207708,0.704816,0.327430,0.627875,0.420627,0.520320,0.479746,0.390866,0.500000,0.250000,0.500000,-0.250000,0.479746,-0.390866,0.420627,-0.520320,0.327430,-0.627875,0.207708,-0.704816,0.071157,-0.744911,0.000000,-0.744911,0.000000,-0.750000,-0.500000,-0.750000,-0.500000,0.750000,0.000000,0.750000,0.000000,0.744911,0.000000,0.744911,
$1*%
G04 Aperture macros list end*
%ADD10RoundRect,0.150000X0.150000X-0.587500X0.150000X0.587500X-0.150000X0.587500X-0.150000X-0.587500X0*%
%ADD11RoundRect,0.200000X-0.275000X0.200000X-0.275000X-0.200000X0.275000X-0.200000X0.275000X0.200000X0*%
%ADD12RoundRect,0.150000X-0.150000X0.587500X-0.150000X-0.587500X0.150000X-0.587500X0.150000X0.587500X0*%
%ADD13RoundRect,0.243750X-0.456250X0.243750X-0.456250X-0.243750X0.456250X-0.243750X0.456250X0.243750X0*%
%ADD14RoundRect,0.250000X-1.000000X-0.900000X1.000000X-0.900000X1.000000X0.900000X-1.000000X0.900000X0*%
%ADD15RoundRect,0.225000X0.250000X-0.225000X0.250000X0.225000X-0.250000X0.225000X-0.250000X-0.225000X0*%
%ADD16C,3.200000*%
%ADD17RoundRect,0.200000X0.275000X-0.200000X0.275000X0.200000X-0.275000X0.200000X-0.275000X-0.200000X0*%
%ADD18RoundRect,0.200000X-0.200000X-0.275000X0.200000X-0.275000X0.200000X0.275000X-0.200000X0.275000X0*%
%ADD19RoundRect,0.225000X0.225000X0.250000X-0.225000X0.250000X-0.225000X-0.250000X0.225000X-0.250000X0*%
%ADD20RoundRect,0.225000X-0.250000X0.225000X-0.250000X-0.225000X0.250000X-0.225000X0.250000X0.225000X0*%
%ADD21RoundRect,0.225000X-0.225000X-0.250000X0.225000X-0.250000X0.225000X0.250000X-0.225000X0.250000X0*%
%ADD22RoundRect,0.250000X-0.325000X-2.350000X0.325000X-2.350000X0.325000X2.350000X-0.325000X2.350000X0*%
%ADD23RoundRect,0.243750X0.456250X-0.243750X0.456250X0.243750X-0.456250X0.243750X-0.456250X-0.243750X0*%
%ADD24RoundRect,0.250000X0.325000X2.350000X-0.325000X2.350000X-0.325000X-2.350000X0.325000X-2.350000X0*%
%ADD25R,1.500000X0.300000*%
%ADD26R,0.300000X1.500000*%
%ADD27R,8.000000X8.000000*%
%ADD28RoundRect,0.250000X0.475000X-0.250000X0.475000X0.250000X-0.475000X0.250000X-0.475000X-0.250000X0*%
%ADD29RoundRect,0.250000X1.000000X0.900000X-1.000000X0.900000X-1.000000X-0.900000X1.000000X-0.900000X0*%
%ADD30RoundRect,0.150000X-0.587500X-0.150000X0.587500X-0.150000X0.587500X0.150000X-0.587500X0.150000X0*%
%ADD31RoundRect,0.200000X0.200000X0.275000X-0.200000X0.275000X-0.200000X-0.275000X0.200000X-0.275000X0*%
%ADD32C,1.000000*%
%ADD33R,1.830000X1.090000*%
%ADD34RoundRect,0.054500X0.860500X0.490500X-0.860500X0.490500X-0.860500X-0.490500X0.860500X-0.490500X0*%
%ADD35C,3.000000*%
%ADD36RoundRect,0.250001X0.759999X-0.499999X0.759999X0.499999X-0.759999X0.499999X-0.759999X-0.499999X0*%
%ADD37O,2.020000X1.500000*%
%ADD38FreePoly0,180.000000*%
%ADD39FreePoly1,180.000000*%
%ADD40RoundRect,0.054500X-0.860500X-0.490500X0.860500X-0.490500X0.860500X0.490500X-0.860500X0.490500X0*%
%ADD41R,1.700000X1.700000*%
%ADD42O,1.700000X1.700000*%
%ADD43RoundRect,0.218750X-0.218750X-0.256250X0.218750X-0.256250X0.218750X0.256250X-0.218750X0.256250X0*%
%ADD44RoundRect,0.250001X-0.759999X0.499999X-0.759999X-0.499999X0.759999X-0.499999X0.759999X0.499999X0*%
G04 APERTURE END LIST*
D10*
%TO.C,Q8*%
X115550000Y-73937500D03*
X117450000Y-73937500D03*
X116500000Y-72062500D03*
%TD*%
D11*
%TO.C,R49*%
X201560000Y-87425000D03*
X201560000Y-89075000D03*
%TD*%
D12*
%TO.C,Q11*%
X146200000Y-116062500D03*
X144300000Y-116062500D03*
X145250000Y-117937500D03*
%TD*%
D13*
%TO.C,F8*%
X115500000Y-64062500D03*
X115500000Y-65937500D03*
%TD*%
D12*
%TO.C,Q13*%
X165200000Y-116062500D03*
X163300000Y-116062500D03*
X164250000Y-117937500D03*
%TD*%
D14*
%TO.C,D3*%
X156100000Y-65750000D03*
X160400000Y-65750000D03*
%TD*%
D15*
%TO.C,C36*%
X108800000Y-70375000D03*
X108800000Y-68825000D03*
%TD*%
D10*
%TO.C,Q6*%
X134550000Y-73687500D03*
X136450000Y-73687500D03*
X135500000Y-71812500D03*
%TD*%
D16*
%TO.C,H1*%
X83400000Y-63400000D03*
%TD*%
D17*
%TO.C,R41*%
X128750000Y-117825000D03*
X128750000Y-116175000D03*
%TD*%
D18*
%TO.C,R66*%
X192775000Y-114600000D03*
X194425000Y-114600000D03*
%TD*%
D19*
%TO.C,C22*%
X140775000Y-88000000D03*
X139225000Y-88000000D03*
%TD*%
%TO.C,C9*%
X127775000Y-76500000D03*
X126225000Y-76500000D03*
%TD*%
D20*
%TO.C,C35*%
X108800000Y-75425000D03*
X108800000Y-76975000D03*
%TD*%
D21*
%TO.C,C11*%
X124475000Y-113500000D03*
X126025000Y-113500000D03*
%TD*%
D22*
%TO.C,R28*%
X140125000Y-117500000D03*
X142375000Y-117500000D03*
%TD*%
D17*
%TO.C,R44*%
X157250000Y-117825000D03*
X157250000Y-116175000D03*
%TD*%
D23*
%TO.C,F14*%
X174750000Y-125937500D03*
X174750000Y-124062500D03*
%TD*%
D14*
%TO.C,D1*%
X175100000Y-65750000D03*
X179400000Y-65750000D03*
%TD*%
D11*
%TO.C,R39*%
X123500000Y-72175000D03*
X123500000Y-73825000D03*
%TD*%
D21*
%TO.C,C31*%
X158500000Y-96400000D03*
X160050000Y-96400000D03*
%TD*%
D19*
%TO.C,C24*%
X142025000Y-85000000D03*
X140475000Y-85000000D03*
%TD*%
D10*
%TO.C,Q3*%
X163050000Y-73687500D03*
X164950000Y-73687500D03*
X164000000Y-71812500D03*
%TD*%
D24*
%TO.C,R25*%
X121625000Y-72500000D03*
X119375000Y-72500000D03*
%TD*%
D19*
%TO.C,C25*%
X145025000Y-84000000D03*
X143475000Y-84000000D03*
%TD*%
%TO.C,C1*%
X168375000Y-89050000D03*
X166825000Y-89050000D03*
%TD*%
D25*
%TO.C,U1*%
X144300000Y-91250000D03*
X144300000Y-91750000D03*
X144300000Y-92250000D03*
X144300000Y-92750000D03*
X144300000Y-93250000D03*
X144300000Y-93750000D03*
X144300000Y-94250000D03*
X144300000Y-94750000D03*
X144300000Y-95250000D03*
X144300000Y-95750000D03*
X144300000Y-96250000D03*
X144300000Y-96750000D03*
X144300000Y-97250000D03*
X144300000Y-97750000D03*
X144300000Y-98250000D03*
X144300000Y-98750000D03*
D26*
X146250000Y-100700000D03*
X146750000Y-100700000D03*
X147250000Y-100700000D03*
X147750000Y-100700000D03*
X148250000Y-100700000D03*
X148750000Y-100700000D03*
X149250000Y-100700000D03*
X149750000Y-100700000D03*
X150250000Y-100700000D03*
X150750000Y-100700000D03*
X151250000Y-100700000D03*
X151750000Y-100700000D03*
X152250000Y-100700000D03*
X152750000Y-100700000D03*
X153250000Y-100700000D03*
X153750000Y-100700000D03*
D25*
X155700000Y-98750000D03*
X155700000Y-98250000D03*
X155700000Y-97750000D03*
X155700000Y-97250000D03*
X155700000Y-96750000D03*
X155700000Y-96250000D03*
X155700000Y-95750000D03*
X155700000Y-95250000D03*
X155700000Y-94750000D03*
X155700000Y-94250000D03*
X155700000Y-93750000D03*
X155700000Y-93250000D03*
X155700000Y-92750000D03*
X155700000Y-92250000D03*
X155700000Y-91750000D03*
X155700000Y-91250000D03*
D26*
X153750000Y-89300000D03*
X153250000Y-89300000D03*
X152750000Y-89300000D03*
X152250000Y-89300000D03*
X151750000Y-89300000D03*
X151250000Y-89300000D03*
X150750000Y-89300000D03*
X150250000Y-89300000D03*
X149750000Y-89300000D03*
X149250000Y-89300000D03*
X148750000Y-89300000D03*
X148250000Y-89300000D03*
X147750000Y-89300000D03*
X147250000Y-89300000D03*
X146750000Y-89300000D03*
X146250000Y-89300000D03*
D27*
X150000000Y-95000000D03*
%TD*%
D28*
%TO.C,C3*%
X141750000Y-92950000D03*
X141750000Y-91050000D03*
%TD*%
D13*
%TO.C,F5*%
X144000000Y-64062500D03*
X144000000Y-65937500D03*
%TD*%
D23*
%TO.C,F12*%
X155750000Y-125937500D03*
X155750000Y-124062500D03*
%TD*%
D15*
%TO.C,C27*%
X149750000Y-83975000D03*
X149750000Y-82425000D03*
%TD*%
D14*
%TO.C,D7*%
X118100000Y-66000000D03*
X122400000Y-66000000D03*
%TD*%
D16*
%TO.C,H2*%
X216600000Y-63400000D03*
%TD*%
D29*
%TO.C,D10*%
X143600000Y-124000000D03*
X139300000Y-124000000D03*
%TD*%
D21*
%TO.C,C16*%
X171975000Y-113500000D03*
X173525000Y-113500000D03*
%TD*%
D11*
%TO.C,R34*%
X171000000Y-72175000D03*
X171000000Y-73825000D03*
%TD*%
D29*
%TO.C,D13*%
X172150000Y-124050000D03*
X167850000Y-124050000D03*
%TD*%
D18*
%TO.C,R11*%
X121425000Y-113500000D03*
X123075000Y-113500000D03*
%TD*%
D30*
%TO.C,Q1*%
X159662500Y-88250000D03*
X159662500Y-90150000D03*
X161537500Y-89200000D03*
%TD*%
D31*
%TO.C,R5*%
X168825000Y-76500000D03*
X167175000Y-76500000D03*
%TD*%
D32*
%TO.C,TP2*%
X161750000Y-83250000D03*
%TD*%
D17*
%TO.C,R57*%
X201500000Y-100075000D03*
X201500000Y-98425000D03*
%TD*%
D29*
%TO.C,D11*%
X153150000Y-124000000D03*
X148850000Y-124000000D03*
%TD*%
D17*
%TO.C,R59*%
X196500000Y-100075000D03*
X196500000Y-98425000D03*
%TD*%
D15*
%TO.C,C33*%
X191200000Y-114575000D03*
X191200000Y-113025000D03*
%TD*%
D24*
%TO.C,R19*%
X178625000Y-72500000D03*
X176375000Y-72500000D03*
%TD*%
D17*
%TO.C,R47*%
X185750000Y-117825000D03*
X185750000Y-116175000D03*
%TD*%
D10*
%TO.C,Q4*%
X153550000Y-73687500D03*
X155450000Y-73687500D03*
X154500000Y-71812500D03*
%TD*%
D33*
%TO.C,TR2*%
X103620000Y-75540000D03*
D34*
X103620000Y-73000000D03*
X103620000Y-70460000D03*
X92380000Y-70460000D03*
X92380000Y-73000000D03*
X92380000Y-75540000D03*
%TD*%
D23*
%TO.C,F15*%
X184250000Y-125937500D03*
X184250000Y-124062500D03*
%TD*%
D21*
%TO.C,C30*%
X161225000Y-99000000D03*
X162775000Y-99000000D03*
%TD*%
D17*
%TO.C,R60*%
X194000000Y-100075000D03*
X194000000Y-98425000D03*
%TD*%
D19*
%TO.C,C4*%
X175275000Y-76500000D03*
X173725000Y-76500000D03*
%TD*%
D11*
%TO.C,R37*%
X142500000Y-72175000D03*
X142500000Y-73825000D03*
%TD*%
D24*
%TO.C,R24*%
X131125000Y-72500000D03*
X128875000Y-72500000D03*
%TD*%
D23*
%TO.C,F10*%
X136750000Y-125937500D03*
X136750000Y-124062500D03*
%TD*%
D22*
%TO.C,R29*%
X149625000Y-117500000D03*
X151875000Y-117500000D03*
%TD*%
D19*
%TO.C,C7*%
X146775000Y-76500000D03*
X145225000Y-76500000D03*
%TD*%
D11*
%TO.C,R33*%
X180500000Y-72175000D03*
X180500000Y-73825000D03*
%TD*%
D17*
%TO.C,R65*%
X108800000Y-73825000D03*
X108800000Y-72175000D03*
%TD*%
D11*
%TO.C,R40*%
X114000000Y-72175000D03*
X114000000Y-73825000D03*
%TD*%
D17*
%TO.C,R43*%
X147750000Y-117825000D03*
X147750000Y-116175000D03*
%TD*%
D24*
%TO.C,R22*%
X150125000Y-72500000D03*
X147875000Y-72500000D03*
%TD*%
D29*
%TO.C,D9*%
X134050000Y-124000000D03*
X129750000Y-124000000D03*
%TD*%
D11*
%TO.C,R53*%
X191520000Y-87425000D03*
X191520000Y-89075000D03*
%TD*%
D14*
%TO.C,D2*%
X165600000Y-65750000D03*
X169900000Y-65750000D03*
%TD*%
D17*
%TO.C,R61*%
X191500000Y-100075000D03*
X191500000Y-98425000D03*
%TD*%
D10*
%TO.C,D16*%
X190250000Y-109937500D03*
X192150000Y-109937500D03*
X191200000Y-108062500D03*
%TD*%
D31*
%TO.C,R4*%
X178325000Y-76500000D03*
X176675000Y-76500000D03*
%TD*%
D13*
%TO.C,F4*%
X153500000Y-64062500D03*
X153500000Y-65937500D03*
%TD*%
D11*
%TO.C,R48*%
X204070000Y-87425000D03*
X204070000Y-89075000D03*
%TD*%
%TO.C,R52*%
X194030000Y-87425000D03*
X194030000Y-89075000D03*
%TD*%
D22*
%TO.C,R32*%
X178125000Y-117500000D03*
X180375000Y-117500000D03*
%TD*%
D31*
%TO.C,R6*%
X159325000Y-76500000D03*
X157675000Y-76500000D03*
%TD*%
D32*
%TO.C,TP3*%
X214750000Y-94000000D03*
%TD*%
D17*
%TO.C,R62*%
X189000000Y-100075000D03*
X189000000Y-98425000D03*
%TD*%
D13*
%TO.C,F1*%
X182000000Y-64062500D03*
X182000000Y-65937500D03*
%TD*%
D19*
%TO.C,C2*%
X165275000Y-90550000D03*
X163725000Y-90550000D03*
%TD*%
D17*
%TO.C,R42*%
X138250000Y-117825000D03*
X138250000Y-116175000D03*
%TD*%
D31*
%TO.C,R69*%
X107225000Y-70400000D03*
X105575000Y-70400000D03*
%TD*%
D21*
%TO.C,C15*%
X162475000Y-113500000D03*
X164025000Y-113500000D03*
%TD*%
D19*
%TO.C,C8*%
X137275000Y-76500000D03*
X135725000Y-76500000D03*
%TD*%
D13*
%TO.C,F7*%
X125000000Y-64062500D03*
X125000000Y-65937500D03*
%TD*%
D14*
%TO.C,D6*%
X127600000Y-66050000D03*
X131900000Y-66050000D03*
%TD*%
D29*
%TO.C,D14*%
X181650000Y-124000000D03*
X177350000Y-124000000D03*
%TD*%
D18*
%TO.C,R67*%
X192775000Y-119600000D03*
X194425000Y-119600000D03*
%TD*%
D35*
%TO.C,J5*%
X85250000Y-73000000D03*
D36*
X89570000Y-74500000D03*
D37*
X89570000Y-71500000D03*
%TD*%
D12*
%TO.C,Q15*%
X184200000Y-116062500D03*
X182300000Y-116062500D03*
X183250000Y-117937500D03*
%TD*%
D38*
%TO.C,JP1*%
X165150000Y-86000000D03*
D39*
X163850000Y-86000000D03*
%TD*%
D10*
%TO.C,Q2*%
X172550000Y-73687500D03*
X174450000Y-73687500D03*
X173500000Y-71812500D03*
%TD*%
D32*
%TO.C,TP4*%
X208000000Y-100000000D03*
%TD*%
D29*
%TO.C,D8*%
X124400000Y-124000000D03*
X120100000Y-124000000D03*
%TD*%
D19*
%TO.C,C21*%
X140775000Y-89500000D03*
X139225000Y-89500000D03*
%TD*%
D18*
%TO.C,R15*%
X159425000Y-113500000D03*
X161075000Y-113500000D03*
%TD*%
D21*
%TO.C,C38*%
X105625000Y-73000000D03*
X107175000Y-73000000D03*
%TD*%
D31*
%TO.C,R1*%
X171425000Y-90550000D03*
X169775000Y-90550000D03*
%TD*%
D33*
%TO.C,TR1*%
X196380000Y-114460000D03*
D40*
X196380000Y-117000000D03*
X196380000Y-119540000D03*
X207620000Y-119540000D03*
X207620000Y-117000000D03*
X207620000Y-114460000D03*
%TD*%
D10*
%TO.C,Q5*%
X144050000Y-73687500D03*
X145950000Y-73687500D03*
X145000000Y-71812500D03*
%TD*%
D12*
%TO.C,Q10*%
X136700000Y-116062500D03*
X134800000Y-116062500D03*
X135750000Y-117937500D03*
%TD*%
D23*
%TO.C,F11*%
X146250000Y-125937500D03*
X146250000Y-124062500D03*
%TD*%
D14*
%TO.C,D5*%
X137150000Y-66000000D03*
X141450000Y-66000000D03*
%TD*%
D11*
%TO.C,R35*%
X161500000Y-72175000D03*
X161500000Y-73825000D03*
%TD*%
D16*
%TO.C,H4*%
X216600000Y-126600000D03*
%TD*%
D13*
%TO.C,F2*%
X172500000Y-64062500D03*
X172500000Y-65937500D03*
%TD*%
D31*
%TO.C,R8*%
X140325000Y-76500000D03*
X138675000Y-76500000D03*
%TD*%
D18*
%TO.C,R17*%
X178425000Y-113500000D03*
X180075000Y-113500000D03*
%TD*%
D21*
%TO.C,C14*%
X152975000Y-113500000D03*
X154525000Y-113500000D03*
%TD*%
D38*
%TO.C,JP2*%
X159050000Y-84500000D03*
D39*
X157750000Y-84500000D03*
%TD*%
D18*
%TO.C,R12*%
X130925000Y-113500000D03*
X132575000Y-113500000D03*
%TD*%
D23*
%TO.C,F9*%
X127250000Y-125937500D03*
X127250000Y-124062500D03*
%TD*%
D12*
%TO.C,Q14*%
X174700000Y-116062500D03*
X172800000Y-116062500D03*
X173750000Y-117937500D03*
%TD*%
D17*
%TO.C,R45*%
X166750000Y-117825000D03*
X166750000Y-116175000D03*
%TD*%
D11*
%TO.C,R54*%
X189010000Y-87425000D03*
X189010000Y-89075000D03*
%TD*%
D23*
%TO.C,F13*%
X165250000Y-125937500D03*
X165250000Y-124062500D03*
%TD*%
D20*
%TO.C,C18*%
X187700000Y-124750000D03*
X187700000Y-126300000D03*
%TD*%
D21*
%TO.C,C32*%
X160025000Y-93300000D03*
X161575000Y-93300000D03*
%TD*%
D20*
%TO.C,C34*%
X191200000Y-119625000D03*
X191200000Y-121175000D03*
%TD*%
D11*
%TO.C,R64*%
X191200000Y-116175000D03*
X191200000Y-117825000D03*
%TD*%
D17*
%TO.C,R58*%
X199000000Y-100075000D03*
X199000000Y-98425000D03*
%TD*%
D22*
%TO.C,R27*%
X130625000Y-117500000D03*
X132875000Y-117500000D03*
%TD*%
D10*
%TO.C,Q7*%
X125050000Y-73687500D03*
X126950000Y-73687500D03*
X126000000Y-71812500D03*
%TD*%
D18*
%TO.C,R16*%
X168925000Y-113500000D03*
X170575000Y-113500000D03*
%TD*%
D11*
%TO.C,R36*%
X152000000Y-72175000D03*
X152000000Y-73825000D03*
%TD*%
D17*
%TO.C,R18*%
X187750000Y-120325000D03*
X187750000Y-118675000D03*
%TD*%
D18*
%TO.C,R14*%
X149925000Y-113500000D03*
X151575000Y-113500000D03*
%TD*%
D11*
%TO.C,R50*%
X199050000Y-87425000D03*
X199050000Y-89075000D03*
%TD*%
D15*
%TO.C,C29*%
X153250000Y-83975000D03*
X153250000Y-82425000D03*
%TD*%
D19*
%TO.C,C5*%
X165775000Y-76500000D03*
X164225000Y-76500000D03*
%TD*%
D22*
%TO.C,R26*%
X121125000Y-117500000D03*
X123375000Y-117500000D03*
%TD*%
D17*
%TO.C,R46*%
X176250000Y-117825000D03*
X176250000Y-116175000D03*
%TD*%
D24*
%TO.C,R20*%
X169125000Y-72500000D03*
X166875000Y-72500000D03*
%TD*%
D12*
%TO.C,D17*%
X109750000Y-80062500D03*
X107850000Y-80062500D03*
X108800000Y-81937500D03*
%TD*%
D13*
%TO.C,F3*%
X163000000Y-64062500D03*
X163000000Y-65937500D03*
%TD*%
D14*
%TO.C,D4*%
X146650000Y-66000000D03*
X150950000Y-66000000D03*
%TD*%
D41*
%TO.C,J1*%
X206660000Y-92960000D03*
D42*
X206660000Y-95500000D03*
X204120000Y-92960000D03*
X204120000Y-95500000D03*
X201580000Y-92960000D03*
X201580000Y-95500000D03*
X199040000Y-92960000D03*
X199040000Y-95500000D03*
X196500000Y-92960000D03*
X196500000Y-95500000D03*
X193960000Y-92960000D03*
X193960000Y-95500000D03*
X191420000Y-92960000D03*
X191420000Y-95500000D03*
X188880000Y-92960000D03*
X188880000Y-95500000D03*
X186340000Y-92960000D03*
X186340000Y-95500000D03*
X183800000Y-92960000D03*
X183800000Y-95500000D03*
%TD*%
D21*
%TO.C,C13*%
X143475000Y-113500000D03*
X145025000Y-113500000D03*
%TD*%
D31*
%TO.C,R7*%
X149825000Y-76500000D03*
X148175000Y-76500000D03*
%TD*%
D22*
%TO.C,R31*%
X168625000Y-117500000D03*
X170875000Y-117500000D03*
%TD*%
D11*
%TO.C,R38*%
X133000000Y-72175000D03*
X133000000Y-73825000D03*
%TD*%
D43*
%TO.C,D15*%
X163712500Y-89050000D03*
X165287500Y-89050000D03*
%TD*%
D35*
%TO.C,J4*%
X214750000Y-117000000D03*
D44*
X210430000Y-115500000D03*
D37*
X210430000Y-118500000D03*
%TD*%
D17*
%TO.C,R2*%
X173000000Y-90575000D03*
X173000000Y-88925000D03*
%TD*%
D31*
%TO.C,R9*%
X130825000Y-76500000D03*
X129175000Y-76500000D03*
%TD*%
D19*
%TO.C,C10*%
X118275000Y-76500000D03*
X116725000Y-76500000D03*
%TD*%
D17*
%TO.C,R56*%
X204250000Y-100075000D03*
X204250000Y-98425000D03*
%TD*%
D31*
%TO.C,R3*%
X168425000Y-90550000D03*
X166775000Y-90550000D03*
%TD*%
D15*
%TO.C,C20*%
X155000000Y-83975000D03*
X155000000Y-82425000D03*
%TD*%
D19*
%TO.C,C23*%
X141275000Y-86500000D03*
X139725000Y-86500000D03*
%TD*%
D16*
%TO.C,H3*%
X83400000Y-126600000D03*
%TD*%
D12*
%TO.C,Q12*%
X155700000Y-116062500D03*
X153800000Y-116062500D03*
X154750000Y-117937500D03*
%TD*%
D19*
%TO.C,C26*%
X146775000Y-82500000D03*
X145225000Y-82500000D03*
%TD*%
D24*
%TO.C,R23*%
X140625000Y-72500000D03*
X138375000Y-72500000D03*
%TD*%
D11*
%TO.C,R51*%
X196540000Y-87425000D03*
X196540000Y-89075000D03*
%TD*%
D29*
%TO.C,D12*%
X162650000Y-124000000D03*
X158350000Y-124000000D03*
%TD*%
D21*
%TO.C,C12*%
X133975000Y-113500000D03*
X135525000Y-113500000D03*
%TD*%
D31*
%TO.C,R10*%
X121325000Y-76500000D03*
X119675000Y-76500000D03*
%TD*%
D18*
%TO.C,R13*%
X140425000Y-113500000D03*
X142075000Y-113500000D03*
%TD*%
D31*
%TO.C,R68*%
X107225000Y-75400000D03*
X105575000Y-75400000D03*
%TD*%
D19*
%TO.C,C6*%
X156275000Y-76500000D03*
X154725000Y-76500000D03*
%TD*%
D12*
%TO.C,Q9*%
X127200000Y-116062500D03*
X125300000Y-116062500D03*
X126250000Y-117937500D03*
%TD*%
D21*
%TO.C,C19*%
X160025000Y-91800000D03*
X161575000Y-91800000D03*
%TD*%
%TO.C,C17*%
X181475000Y-113500000D03*
X183025000Y-113500000D03*
%TD*%
D13*
%TO.C,F6*%
X134500000Y-63812500D03*
X134500000Y-65687500D03*
%TD*%
D22*
%TO.C,R30*%
X159125000Y-117500000D03*
X161375000Y-117500000D03*
%TD*%
D19*
%TO.C,C37*%
X194375000Y-117000000D03*
X192825000Y-117000000D03*
%TD*%
D15*
%TO.C,C28*%
X151500000Y-83975000D03*
X151500000Y-82425000D03*
%TD*%
D24*
%TO.C,R21*%
X159625000Y-72500000D03*
X157375000Y-72500000D03*
%TD*%
M02*
