%TF.GenerationSoftware,KiCad,Pcbnew,7.0.11-rc3*%
%TF.CreationDate,2025-03-16T23:24:32+08:00*%
%TF.ProjectId,BQ79616_BMS_14Ch,42513739-3631-4365-9f42-4d535f313443,V1.2*%
%TF.SameCoordinates,Original*%
%TF.FileFunction,Paste,Bot*%
%TF.FilePolarity,Positive*%
%FSLAX46Y46*%
G04 Gerber Fmt 4.6, Leading zero omitted, Abs format (unit mm)*
G04 Created by KiCad (PCBNEW 7.0.11-rc3) date 2025-03-16 23:24:32*
%MOMM*%
%LPD*%
G01*
G04 APERTURE LIST*
G04 Aperture macros list*
%AMRoundRect*
0 Rectangle with rounded corners*
0 $1 Rounding radius*
0 $2 $3 $4 $5 $6 $7 $8 $9 X,Y pos of 4 corners*
0 Add a 4 corners polygon primitive as box body*
4,1,4,$2,$3,$4,$5,$6,$7,$8,$9,$2,$3,0*
0 Add four circle primitives for the rounded corners*
1,1,$1+$1,$2,$3*
1,1,$1+$1,$4,$5*
1,1,$1+$1,$6,$7*
1,1,$1+$1,$8,$9*
0 Add four rect primitives between the rounded corners*
20,1,$1+$1,$2,$3,$4,$5,0*
20,1,$1+$1,$4,$5,$6,$7,0*
20,1,$1+$1,$6,$7,$8,$9,0*
20,1,$1+$1,$8,$9,$2,$3,0*%
G04 Aperture macros list end*
%ADD10R,2.580000X1.000000*%
%ADD11RoundRect,0.200000X0.200000X0.275000X-0.200000X0.275000X-0.200000X-0.275000X0.200000X-0.275000X0*%
%ADD12RoundRect,0.200000X-0.200000X-0.275000X0.200000X-0.275000X0.200000X0.275000X-0.200000X0.275000X0*%
G04 APERTURE END LIST*
D10*
%TO.C,J2*%
X217085000Y-69750000D03*
X212915000Y-69750000D03*
X217085000Y-71750000D03*
X212915000Y-71750000D03*
X217085000Y-73750000D03*
X212915000Y-73750000D03*
X217085000Y-75750000D03*
X212915000Y-75750000D03*
X217085000Y-77750000D03*
X212915000Y-77750000D03*
X217085000Y-79750000D03*
X212915000Y-79750000D03*
X217085000Y-81750000D03*
X212915000Y-81750000D03*
X217085000Y-83750000D03*
X212915000Y-83750000D03*
X217085000Y-85750000D03*
X212915000Y-85750000D03*
X217085000Y-87750000D03*
X212915000Y-87750000D03*
%TD*%
D11*
%TO.C,TH8*%
X150825000Y-95000000D03*
X149175000Y-95000000D03*
%TD*%
D12*
%TO.C,R55*%
X149175000Y-91750000D03*
X150825000Y-91750000D03*
%TD*%
D11*
%TO.C,R63*%
X154025000Y-91000000D03*
X152375000Y-91000000D03*
%TD*%
D10*
%TO.C,J3*%
X87085000Y-101000000D03*
X82915000Y-101000000D03*
X87085000Y-103000000D03*
X82915000Y-103000000D03*
X87085000Y-105000000D03*
X82915000Y-105000000D03*
X87085000Y-107000000D03*
X82915000Y-107000000D03*
X87085000Y-109000000D03*
X82915000Y-109000000D03*
X87085000Y-111000000D03*
X82915000Y-111000000D03*
X87085000Y-113000000D03*
X82915000Y-113000000D03*
X87085000Y-115000000D03*
X82915000Y-115000000D03*
X87085000Y-117000000D03*
X82915000Y-117000000D03*
X87085000Y-119000000D03*
X82915000Y-119000000D03*
%TD*%
M02*
