%TF.GenerationSoftware,KiCad,Pcbnew,7.0.11-rc3*%
%TF.CreationDate,2025-03-16T23:30:25+08:00*%
%TF.ProjectId,SDC 2,53444320-322e-46b6-9963-61645f706362,rev?*%
%TF.SameCoordinates,Original*%
%TF.FileFunction,Plated,1,2,PTH,Drill*%
%TF.FilePolarity,Positive*%
%FSLAX46Y46*%
G04 Gerber Fmt 4.6, Leading zero omitted, Abs format (unit mm)*
G04 Created by KiCad (PCBNEW 7.0.11-rc3) date 2025-03-16 23:30:25*
%MOMM*%
%LPD*%
G01*
G04 APERTURE LIST*
%TA.AperFunction,ViaDrill*%
%ADD10C,0.300000*%
%TD*%
%TA.AperFunction,ComponentDrill*%
%ADD11C,0.600000*%
%TD*%
%TA.AperFunction,ComponentDrill*%
%ADD12C,0.800000*%
%TD*%
%TA.AperFunction,ComponentDrill*%
%ADD13C,1.000000*%
%TD*%
%TA.AperFunction,ComponentDrill*%
%ADD14C,1.300000*%
%TD*%
%TA.AperFunction,ComponentDrill*%
%ADD15C,3.200000*%
%TD*%
G04 APERTURE END LIST*
D10*
X62100000Y-65000000D03*
X66500000Y-61837500D03*
X69200000Y-78400000D03*
X70900000Y-83900000D03*
X72000000Y-65100000D03*
X72800000Y-82800000D03*
X72900000Y-73300000D03*
X73100000Y-70700000D03*
X73700000Y-68700000D03*
X75000000Y-66200000D03*
X75900000Y-57000000D03*
X76000000Y-63900000D03*
X79400000Y-68800000D03*
X85000000Y-78300000D03*
X85500000Y-64900000D03*
X85600000Y-84900000D03*
X86400000Y-73300000D03*
X86600000Y-70800000D03*
X88600000Y-65800000D03*
X89500000Y-56800000D03*
X89500000Y-63700000D03*
X92800000Y-68700000D03*
X96100000Y-78300000D03*
X98300000Y-83500000D03*
X99200000Y-64900000D03*
X100400000Y-73300000D03*
X100500000Y-70700000D03*
X102300000Y-66000000D03*
X103200000Y-56800000D03*
X103300000Y-63700000D03*
X106600000Y-68600000D03*
X107900000Y-76900000D03*
X110100000Y-84400000D03*
D11*
%TO.C,C5*%
X56750000Y-58862500D03*
X58750000Y-58862500D03*
D12*
%TO.C,C12*%
X77000000Y-80500000D03*
X79500000Y-80500000D03*
%TO.C,C11*%
X91000000Y-80500000D03*
X93500000Y-80500000D03*
%TO.C,C13*%
X104500000Y-80500000D03*
X107000000Y-80500000D03*
%TO.C,JP1*%
X110710000Y-53000000D03*
X113250000Y-53000000D03*
D13*
%TO.C,J1*%
X76564999Y-87860000D03*
X76564999Y-90400000D03*
X79104999Y-87860000D03*
X79104999Y-90400000D03*
X81644999Y-87860000D03*
X81644999Y-90400000D03*
X84184999Y-87860000D03*
X84184999Y-90400000D03*
X86724999Y-87860000D03*
X86724999Y-90400000D03*
X89264999Y-87860000D03*
X89264999Y-90400000D03*
X91804999Y-87860000D03*
X91804999Y-90400000D03*
X94344999Y-87860000D03*
X94344999Y-90400000D03*
X96884999Y-87860000D03*
X96884999Y-90400000D03*
X99424999Y-87860000D03*
X99424999Y-90400000D03*
D14*
%TO.C,K1*%
X70871320Y-50621320D03*
X70871320Y-55621320D03*
X70871320Y-75621320D03*
X78371320Y-50621320D03*
X78371320Y-55621320D03*
X78371320Y-75621320D03*
%TO.C,K4*%
X84371320Y-50621320D03*
X84371320Y-55621320D03*
X84371320Y-75621320D03*
X91871320Y-50621320D03*
X91871320Y-55621320D03*
X91871320Y-75621320D03*
%TO.C,K2*%
X98058820Y-50621320D03*
X98058820Y-55621320D03*
X98058820Y-75621320D03*
X105558820Y-50621320D03*
X105558820Y-55621320D03*
X105558820Y-75621320D03*
%TO.C,K3*%
X112000000Y-57000000D03*
X112000000Y-62000000D03*
X112000000Y-82000000D03*
X119500000Y-57000000D03*
X119500000Y-62000000D03*
X119500000Y-82000000D03*
D15*
%TO.C,H1*%
X56500000Y-51500000D03*
%TO.C,H4*%
X56500000Y-89500000D03*
%TO.C,H3*%
X119500000Y-51500000D03*
%TO.C,H2*%
X119500000Y-89500000D03*
M02*
