%TF.GenerationSoftware,KiCad,Pcbnew,7.0.11-rc3*%
%TF.CreationDate,2025-03-16T23:30:22+08:00*%
%TF.ProjectId,SDC 2,53444320-322e-46b6-9963-61645f706362,rev?*%
%TF.SameCoordinates,Original*%
%TF.FileFunction,Copper,L1,Top*%
%TF.FilePolarity,Positive*%
%FSLAX46Y46*%
G04 Gerber Fmt 4.6, Leading zero omitted, Abs format (unit mm)*
G04 Created by KiCad (PCBNEW 7.0.11-rc3) date 2025-03-16 23:30:22*
%MOMM*%
%LPD*%
G01*
G04 APERTURE LIST*
G04 Aperture macros list*
%AMRoundRect*
0 Rectangle with rounded corners*
0 $1 Rounding radius*
0 $2 $3 $4 $5 $6 $7 $8 $9 X,Y pos of 4 corners*
0 Add a 4 corners polygon primitive as box body*
4,1,4,$2,$3,$4,$5,$6,$7,$8,$9,$2,$3,0*
0 Add four circle primitives for the rounded corners*
1,1,$1+$1,$2,$3*
1,1,$1+$1,$4,$5*
1,1,$1+$1,$6,$7*
1,1,$1+$1,$8,$9*
0 Add four rect primitives between the rounded corners*
20,1,$1+$1,$2,$3,$4,$5,0*
20,1,$1+$1,$4,$5,$6,$7,0*
20,1,$1+$1,$6,$7,$8,$9,0*
20,1,$1+$1,$8,$9,$2,$3,0*%
G04 Aperture macros list end*
%TA.AperFunction,ComponentPad*%
%ADD10C,5.700000*%
%TD*%
%TA.AperFunction,SMDPad,CuDef*%
%ADD11RoundRect,0.243750X-0.243750X-0.456250X0.243750X-0.456250X0.243750X0.456250X-0.243750X0.456250X0*%
%TD*%
%TA.AperFunction,SMDPad,CuDef*%
%ADD12RoundRect,0.150000X-0.150000X0.512500X-0.150000X-0.512500X0.150000X-0.512500X0.150000X0.512500X0*%
%TD*%
%TA.AperFunction,SMDPad,CuDef*%
%ADD13RoundRect,0.237500X-0.300000X-0.237500X0.300000X-0.237500X0.300000X0.237500X-0.300000X0.237500X0*%
%TD*%
%TA.AperFunction,ComponentPad*%
%ADD14C,1.400000*%
%TD*%
%TA.AperFunction,ComponentPad*%
%ADD15C,2.000000*%
%TD*%
%TA.AperFunction,ComponentPad*%
%ADD16R,2.000000X2.000000*%
%TD*%
%TA.AperFunction,SMDPad,CuDef*%
%ADD17RoundRect,0.200000X0.275000X-0.200000X0.275000X0.200000X-0.275000X0.200000X-0.275000X-0.200000X0*%
%TD*%
%TA.AperFunction,SMDPad,CuDef*%
%ADD18RoundRect,0.200000X0.200000X0.275000X-0.200000X0.275000X-0.200000X-0.275000X0.200000X-0.275000X0*%
%TD*%
%TA.AperFunction,ComponentPad*%
%ADD19C,1.600000*%
%TD*%
%TA.AperFunction,ComponentPad*%
%ADD20O,1.700000X1.700000*%
%TD*%
%TA.AperFunction,SMDPad,CuDef*%
%ADD21RoundRect,0.250000X0.475000X-0.337500X0.475000X0.337500X-0.475000X0.337500X-0.475000X-0.337500X0*%
%TD*%
%TA.AperFunction,ComponentPad*%
%ADD22C,1.200000*%
%TD*%
%TA.AperFunction,SMDPad,CuDef*%
%ADD23RoundRect,0.243750X-0.456250X0.243750X-0.456250X-0.243750X0.456250X-0.243750X0.456250X0.243750X0*%
%TD*%
%TA.AperFunction,SMDPad,CuDef*%
%ADD24RoundRect,0.200000X-0.275000X0.200000X-0.275000X-0.200000X0.275000X-0.200000X0.275000X0.200000X0*%
%TD*%
%TA.AperFunction,ViaPad*%
%ADD25C,0.600000*%
%TD*%
%TA.AperFunction,Conductor*%
%ADD26C,0.500000*%
%TD*%
%TA.AperFunction,Conductor*%
%ADD27C,0.300000*%
%TD*%
G04 APERTURE END LIST*
D10*
%TO.P,H3,1,1*%
%TO.N,GND*%
X119500000Y-51500000D03*
%TD*%
D11*
%TO.P,D5,1,K*%
%TO.N,Net-(D5-K)*%
X111062500Y-86000000D03*
%TO.P,D5,2,A*%
%TO.N,SW_Fault*%
X112937500Y-86000000D03*
%TD*%
D12*
%TO.P,U10,1,VIN*%
%TO.N,+12V*%
X59650000Y-66087500D03*
%TO.P,U10,2,GND*%
%TO.N,GND*%
X58700000Y-66087500D03*
%TO.P,U10,3,EN*%
%TO.N,+12V*%
X57750000Y-66087500D03*
%TO.P,U10,4,ADJ*%
%TO.N,Net-(U10-ADJ)*%
X57750000Y-68362500D03*
%TO.P,U10,5,VOUT*%
%TO.N,+5V*%
X59650000Y-68362500D03*
%TD*%
D13*
%TO.P,C16,1*%
%TO.N,+12V*%
X57775000Y-64112500D03*
%TO.P,C16,2*%
%TO.N,GND*%
X59500000Y-64112500D03*
%TD*%
D14*
%TO.P,JP1,1,A*%
%TO.N,BMS_OUT*%
X110710000Y-53000000D03*
%TO.P,JP1,2,B*%
%TO.N,SW_OUT*%
X113250000Y-53000000D03*
%TD*%
D10*
%TO.P,H4,1,1*%
%TO.N,GND*%
X56500000Y-89500000D03*
%TD*%
D15*
%TO.P,K4,13*%
%TO.N,IMD_FAULT_OUT*%
X91871320Y-55621320D03*
%TO.P,K4,14*%
%TO.N,Net-(Q4-D)*%
X91871320Y-50621320D03*
%TO.P,K4,23*%
%TO.N,BMS_IN*%
X84371320Y-55621320D03*
%TO.P,K4,24*%
%TO.N,BSPD_OUT*%
X84371320Y-50621320D03*
D16*
%TO.P,K4,A1*%
%TO.N,+12V*%
X91871320Y-75621320D03*
D15*
%TO.P,K4,A2*%
%TO.N,IMD_FAULT_OUT*%
X84371320Y-75621320D03*
%TD*%
D17*
%TO.P,R18,1*%
%TO.N,+12V*%
X63100000Y-61837500D03*
%TO.P,R18,2*%
%TO.N,Net-(D8-A)*%
X63100000Y-60187500D03*
%TD*%
D18*
%TO.P,R33,1*%
%TO.N,+5V*%
X59500000Y-70362500D03*
%TO.P,R33,2*%
%TO.N,Net-(U10-ADJ)*%
X57850000Y-70362500D03*
%TD*%
D19*
%TO.P,C11,1*%
%TO.N,Net-(Q4-D)*%
X91000000Y-80500000D03*
%TO.P,C11,2*%
%TO.N,GND*%
X93500000Y-80500000D03*
%TD*%
D15*
%TO.P,K2,13*%
%TO.N,BMS_FAULT_OUT*%
X105558820Y-55621320D03*
%TO.P,K2,14*%
%TO.N,Net-(Q2-D)*%
X105558820Y-50621320D03*
%TO.P,K2,23*%
%TO.N,BMS_OUT*%
X98058820Y-55621320D03*
%TO.P,K2,24*%
%TO.N,BMS_IN*%
X98058820Y-50621320D03*
D16*
%TO.P,K2,A1*%
%TO.N,+12V*%
X105558820Y-75621320D03*
D15*
%TO.P,K2,A2*%
%TO.N,BMS_FAULT_OUT*%
X98058820Y-75621320D03*
%TD*%
D11*
%TO.P,D10,1,K*%
%TO.N,Net-(D10-K)*%
X85875000Y-80500000D03*
%TO.P,D10,2,A*%
%TO.N,+12V*%
X87750000Y-80500000D03*
%TD*%
D20*
%TO.P,J1,1,Pin_1*%
%TO.N,GND*%
X99424999Y-87860000D03*
%TO.P,J1,2,Pin_2*%
%TO.N,VDC*%
X99424999Y-90400000D03*
%TO.P,J1,3,Pin_3*%
%TO.N,SW_OUT*%
X96884999Y-87860000D03*
%TO.P,J1,4,Pin_4*%
%TO.N,VDC*%
X96884999Y-90400000D03*
%TO.P,J1,5,Pin_5*%
%TO.N,GND*%
X94344999Y-87860000D03*
%TO.P,J1,6,Pin_6*%
%TO.N,unconnected-(J1-Pin_6-Pad6)*%
X94344999Y-90400000D03*
%TO.P,J1,7,Pin_7*%
%TO.N,GND*%
X91804999Y-87860000D03*
%TO.P,J1,8,Pin_8*%
%TO.N,SW_Fault*%
X91804999Y-90400000D03*
%TO.P,J1,9,Pin_9*%
%TO.N,BMS_FAULT*%
X89264999Y-87860000D03*
%TO.P,J1,10,Pin_10*%
%TO.N,BMS_LED*%
X89264999Y-90400000D03*
%TO.P,J1,11,Pin_11*%
%TO.N,IMD_RST*%
X86724999Y-87860000D03*
%TO.P,J1,12,Pin_12*%
%TO.N,BMS_RST*%
X86724999Y-90400000D03*
%TO.P,J1,13,Pin_13*%
%TO.N,IMD_LED*%
X84184999Y-87860000D03*
%TO.P,J1,14,Pin_14*%
%TO.N,IMD_FAULT*%
X84184999Y-90400000D03*
%TO.P,J1,15,Pin_15*%
%TO.N,BSPD_FAULT*%
X81644999Y-87860000D03*
%TO.P,J1,16,Pin_16*%
%TO.N,GND*%
X81644999Y-90400000D03*
%TO.P,J1,17,Pin_17*%
%TO.N,BSPD_RST*%
X79104999Y-87860000D03*
%TO.P,J1,18,Pin_18*%
%TO.N,BSPD_IN*%
X79104999Y-90400000D03*
%TO.P,J1,19,Pin_19*%
%TO.N,BSPD_LED*%
X76564999Y-87860000D03*
%TO.P,J1,20,Pin_20*%
%TO.N,GND*%
X76564999Y-90400000D03*
%TD*%
D10*
%TO.P,H1,1,1*%
%TO.N,GND*%
X56500000Y-51500000D03*
%TD*%
D17*
%TO.P,R19,1*%
%TO.N,+5V*%
X65500000Y-61837500D03*
%TO.P,R19,2*%
%TO.N,Net-(D9-A)*%
X65500000Y-60187500D03*
%TD*%
D21*
%TO.P,C17,1*%
%TO.N,+5V*%
X62100000Y-68337500D03*
%TO.P,C17,2*%
%TO.N,GND*%
X62100000Y-66262500D03*
%TD*%
D15*
%TO.P,K3,13*%
%TO.N,unconnected-(K3-Pad13)*%
X119500000Y-62000000D03*
%TO.P,K3,14*%
%TO.N,unconnected-(K3-Pad14)*%
X119500000Y-57000000D03*
%TO.P,K3,23*%
%TO.N,SW_OUT*%
X112000000Y-62000000D03*
%TO.P,K3,24*%
%TO.N,BMS_OUT*%
X112000000Y-57000000D03*
D16*
%TO.P,K3,A1*%
%TO.N,+12V*%
X119500000Y-82000000D03*
D15*
%TO.P,K3,A2*%
%TO.N,Net-(D11-A)*%
X112000000Y-82000000D03*
%TD*%
D19*
%TO.P,C12,1*%
%TO.N,Net-(Q1-D)*%
X77000000Y-80500000D03*
%TO.P,C12,2*%
%TO.N,GND*%
X79500000Y-80500000D03*
%TD*%
D22*
%TO.P,C5,1*%
%TO.N,+12V*%
X56750000Y-58862500D03*
%TO.P,C5,2*%
%TO.N,GND*%
X58750000Y-58862500D03*
%TD*%
D23*
%TO.P,D9,1,K*%
%TO.N,GND*%
X65500000Y-56475000D03*
%TO.P,D9,2,A*%
%TO.N,Net-(D9-A)*%
X65500000Y-58350000D03*
%TD*%
%TO.P,D8,1,K*%
%TO.N,GND*%
X63100000Y-56475000D03*
%TO.P,D8,2,A*%
%TO.N,Net-(D8-A)*%
X63100000Y-58350000D03*
%TD*%
D19*
%TO.P,C13,1*%
%TO.N,Net-(Q2-D)*%
X104500000Y-80500000D03*
%TO.P,C13,2*%
%TO.N,GND*%
X107000000Y-80500000D03*
%TD*%
D11*
%TO.P,D1,1,K*%
%TO.N,Net-(D1-K)*%
X71875000Y-80500000D03*
%TO.P,D1,2,A*%
%TO.N,+12V*%
X73750000Y-80500000D03*
%TD*%
D24*
%TO.P,R34,1*%
%TO.N,GND*%
X55800000Y-66675000D03*
%TO.P,R34,2*%
%TO.N,Net-(U10-ADJ)*%
X55800000Y-68325000D03*
%TD*%
D15*
%TO.P,K1,13*%
%TO.N,BSPD_FAULT_OUT*%
X78371320Y-55621320D03*
%TO.P,K1,14*%
%TO.N,Net-(Q1-D)*%
X78371320Y-50621320D03*
%TO.P,K1,23*%
%TO.N,BSPD_OUT*%
X70871320Y-55621320D03*
%TO.P,K1,24*%
%TO.N,BSPD_IN*%
X70871320Y-50621320D03*
D16*
%TO.P,K1,A1*%
%TO.N,+12V*%
X78371320Y-75621320D03*
D15*
%TO.P,K1,A2*%
%TO.N,BSPD_FAULT_OUT*%
X70871320Y-75621320D03*
%TD*%
D10*
%TO.P,H2,1,1*%
%TO.N,GND*%
X119500000Y-89500000D03*
%TD*%
D11*
%TO.P,D2,1,K*%
%TO.N,Net-(D2-K)*%
X99312500Y-80500000D03*
%TO.P,D2,2,A*%
%TO.N,+12V*%
X101187500Y-80500000D03*
%TD*%
D25*
%TO.N,+5V*%
X66500000Y-61837500D03*
%TO.N,+12V*%
X72800000Y-82800000D03*
%TO.N,Net-(D1-K)*%
X79400000Y-68800000D03*
%TO.N,Net-(D2-K)*%
X106600000Y-68600000D03*
%TO.N,BSPD_FAULT_OUT*%
X70900000Y-83900000D03*
X73100000Y-70700000D03*
%TO.N,BMS_FAULT_OUT*%
X100500000Y-70700000D03*
%TO.N,Net-(D5-K)*%
X110100000Y-84400000D03*
%TO.N,Net-(D6-A)*%
X88600000Y-65800000D03*
X85000000Y-78300000D03*
%TO.N,Net-(D10-K)*%
X92800000Y-68700000D03*
%TO.N,IMD_FAULT_OUT*%
X86600000Y-70800000D03*
%TO.N,BMS_RST*%
X107900000Y-76900000D03*
%TO.N,Net-(Q1-D)*%
X72900000Y-73300000D03*
X75900000Y-57000000D03*
%TO.N,Net-(Q2-D)*%
X103200000Y-56800000D03*
X100400000Y-73300000D03*
%TO.N,Net-(Q4-D)*%
X86400000Y-73300000D03*
X89500000Y-56800000D03*
%TO.N,Net-(U3-+)*%
X69200000Y-78400000D03*
X75000000Y-66200000D03*
%TO.N,Net-(U4-+)*%
X102300000Y-66000000D03*
X96100000Y-78300000D03*
%TO.N,GND*%
X62100000Y-65000000D03*
X76000000Y-63900000D03*
X85600000Y-84900000D03*
X99200000Y-64900000D03*
X98300000Y-83500000D03*
X72000000Y-65100000D03*
X89500000Y-63700000D03*
X73700000Y-68700000D03*
X85500000Y-64900000D03*
X103300000Y-63700000D03*
%TD*%
D26*
%TO.N,+5V*%
X62100000Y-68337500D02*
X59675000Y-68337500D01*
X63262500Y-68337500D02*
X65500000Y-66100000D01*
X65500000Y-66100000D02*
X65500000Y-61837500D01*
X59675000Y-68337500D02*
X59650000Y-68362500D01*
X59650000Y-68362500D02*
X59650000Y-70212500D01*
X59650000Y-70212500D02*
X59500000Y-70362500D01*
D27*
X66500000Y-61837500D02*
X65500000Y-61837500D01*
D26*
X62100000Y-68337500D02*
X63262500Y-68337500D01*
%TO.N,+12V*%
X59650000Y-66652684D02*
X59052684Y-67250000D01*
D27*
X97850000Y-81600000D02*
X100087500Y-81600000D01*
X84300000Y-81550000D02*
X78371320Y-75621320D01*
X73750000Y-81850000D02*
X72800000Y-82800000D01*
X113121320Y-75621320D02*
X105558820Y-75621320D01*
X88500000Y-80500000D02*
X91871320Y-77128680D01*
D26*
X56750000Y-58862500D02*
X56750000Y-63087500D01*
D27*
X100087500Y-81600000D02*
X101187500Y-80500000D01*
X119500000Y-82000000D02*
X113121320Y-75621320D01*
D26*
X57775000Y-64112500D02*
X57775000Y-66062500D01*
D27*
X101187500Y-80500000D02*
X105558820Y-76128680D01*
X91871320Y-75621320D02*
X97850000Y-81600000D01*
D26*
X57775000Y-66062500D02*
X57750000Y-66087500D01*
X59650000Y-66087500D02*
X59650000Y-66652684D01*
X60050000Y-61837500D02*
X63100000Y-61837500D01*
X56750000Y-63087500D02*
X57775000Y-64112500D01*
X58250000Y-67250000D02*
X57750000Y-66749999D01*
X57775000Y-64112500D02*
X60050000Y-61837500D01*
D27*
X73750000Y-80500000D02*
X73750000Y-81850000D01*
X73750000Y-80500000D02*
X78371320Y-75878680D01*
X78371320Y-75878680D02*
X78371320Y-75621320D01*
X87750000Y-80500000D02*
X88500000Y-80500000D01*
X86700000Y-81550000D02*
X84300000Y-81550000D01*
D26*
X57750000Y-66749999D02*
X57750000Y-66087500D01*
D27*
X87750000Y-80500000D02*
X86700000Y-81550000D01*
D26*
X59052684Y-67250000D02*
X58250000Y-67250000D01*
D27*
X91871320Y-77128680D02*
X91871320Y-75621320D01*
X105558820Y-76128680D02*
X105558820Y-75621320D01*
%TO.N,Net-(D1-K)*%
X72361297Y-75838703D02*
X79400000Y-68800000D01*
X72361297Y-80013703D02*
X72361297Y-75838703D01*
X71875000Y-80500000D02*
X72361297Y-80013703D01*
%TO.N,Net-(D2-K)*%
X99312500Y-80500000D02*
X99750000Y-80062500D01*
X99750000Y-75450000D02*
X106600000Y-68600000D01*
X99750000Y-80062500D02*
X99750000Y-75450000D01*
%TO.N,BSPD_FAULT_OUT*%
X70871320Y-75621320D02*
X70871320Y-83871320D01*
X70871320Y-83871320D02*
X70900000Y-83900000D01*
X78371320Y-55621320D02*
X78371320Y-65428680D01*
X78371320Y-65428680D02*
X73100000Y-70700000D01*
%TO.N,BMS_FAULT_OUT*%
X105558820Y-55621320D02*
X105558820Y-65641180D01*
X105558820Y-65641180D02*
X100500000Y-70700000D01*
%TO.N,Net-(D5-K)*%
X110100000Y-84400000D02*
X110100000Y-85037500D01*
X110100000Y-85037500D02*
X111062500Y-86000000D01*
%TO.N,SW_Fault*%
X112937500Y-86000000D02*
X109737500Y-89200000D01*
X93004999Y-89200000D02*
X91804999Y-90400000D01*
X109737500Y-89200000D02*
X93004999Y-89200000D01*
%TO.N,Net-(D6-A)*%
X83021320Y-71378680D02*
X83021320Y-77099876D01*
X84221444Y-78300000D02*
X85000000Y-78300000D01*
X83021320Y-77099876D02*
X84221444Y-78300000D01*
X88600000Y-65800000D02*
X83021320Y-71378680D01*
D26*
%TO.N,Net-(D8-A)*%
X63100000Y-60187500D02*
X63100000Y-58350000D01*
%TO.N,Net-(D9-A)*%
X65500000Y-60187500D02*
X65500000Y-58350000D01*
D27*
%TO.N,Net-(D10-K)*%
X85875000Y-75625000D02*
X92800000Y-68700000D01*
X85875000Y-80500000D02*
X85875000Y-75625000D01*
%TO.N,IMD_FAULT_OUT*%
X91871320Y-65528680D02*
X86600000Y-70800000D01*
X91871320Y-55621320D02*
X91871320Y-65528680D01*
%TO.N,BMS_RST*%
X93144999Y-88352894D02*
X93144999Y-87362943D01*
X93144999Y-87362943D02*
X98407942Y-82100000D01*
X105700000Y-79100000D02*
X107900000Y-76900000D01*
X105700000Y-80926346D02*
X105700000Y-79100000D01*
X92297893Y-89200000D02*
X93144999Y-88352894D01*
X86724999Y-90400000D02*
X87924999Y-89200000D01*
X98407942Y-82100000D02*
X104526346Y-82100000D01*
X87924999Y-89200000D02*
X92297893Y-89200000D01*
X104526346Y-82100000D02*
X105700000Y-80926346D01*
%TO.N,BSPD_IN*%
X72500000Y-91900000D02*
X77604999Y-91900000D01*
X67300000Y-52778427D02*
X67300000Y-86700000D01*
X77604999Y-91900000D02*
X79104999Y-90400000D01*
X67300000Y-86700000D02*
X72500000Y-91900000D01*
X70871320Y-50621320D02*
X69457107Y-50621320D01*
X69457107Y-50621320D02*
X67300000Y-52778427D01*
%TO.N,Net-(Q1-D)*%
X79900000Y-66300000D02*
X79900000Y-52150000D01*
X79900000Y-52150000D02*
X78371320Y-50621320D01*
X75900000Y-57000000D02*
X75900000Y-53092640D01*
X72900000Y-73300000D02*
X79900000Y-66300000D01*
X75900000Y-53092640D02*
X78371320Y-50621320D01*
%TO.N,Net-(Q2-D)*%
X107300000Y-66400000D02*
X107300000Y-52362500D01*
X103200000Y-52980140D02*
X105558820Y-50621320D01*
X100400000Y-73300000D02*
X107300000Y-66400000D01*
X103200000Y-56800000D02*
X103200000Y-52980140D01*
X107300000Y-52362500D02*
X105558820Y-50621320D01*
%TO.N,Net-(Q4-D)*%
X93700000Y-66000000D02*
X93700000Y-52450000D01*
X86400000Y-73300000D02*
X93700000Y-66000000D01*
X89500000Y-56800000D02*
X89500000Y-52992640D01*
X93700000Y-52450000D02*
X91871320Y-50621320D01*
X89500000Y-52992640D02*
X91871320Y-50621320D01*
%TO.N,Net-(U3-+)*%
X69200000Y-72000000D02*
X69200000Y-74800000D01*
X69200000Y-74800000D02*
X69200000Y-78400000D01*
X75000000Y-66200000D02*
X69200000Y-72000000D01*
%TO.N,Net-(U4-+)*%
X96100000Y-78300000D02*
X96100000Y-72200000D01*
X96100000Y-72200000D02*
X102300000Y-66000000D01*
D26*
%TO.N,GND*%
X62100000Y-66262500D02*
X62100000Y-65000000D01*
X58700000Y-66087500D02*
X58700000Y-64912500D01*
X58700000Y-64912500D02*
X59500000Y-64112500D01*
%TO.N,Net-(U10-ADJ)*%
X57750000Y-68362500D02*
X57750000Y-70262500D01*
X57750000Y-68362500D02*
X55837500Y-68362500D01*
X55837500Y-68362500D02*
X55800000Y-68325000D01*
X57750000Y-70262500D02*
X57850000Y-70362500D01*
%TD*%
%TA.AperFunction,Conductor*%
%TO.N,GND*%
G36*
X92687538Y-87629685D02*
G01*
X92733293Y-87682489D01*
X92744499Y-87734000D01*
X92744499Y-87986000D01*
X92724814Y-88053039D01*
X92672010Y-88098794D01*
X92620499Y-88110000D01*
X92238685Y-88110000D01*
X92264492Y-88069844D01*
X92304999Y-87931889D01*
X92304999Y-87788111D01*
X92264492Y-87650156D01*
X92238685Y-87610000D01*
X92620499Y-87610000D01*
X92687538Y-87629685D01*
G37*
%TD.AperFunction*%
%TA.AperFunction,Conductor*%
G36*
X93885506Y-87650156D02*
G01*
X93844999Y-87788111D01*
X93844999Y-87931889D01*
X93885506Y-88069844D01*
X93911313Y-88110000D01*
X93669499Y-88110000D01*
X93602460Y-88090315D01*
X93556705Y-88037511D01*
X93545499Y-87986000D01*
X93545499Y-87734000D01*
X93565184Y-87666961D01*
X93617988Y-87621206D01*
X93669499Y-87610000D01*
X93911313Y-87610000D01*
X93885506Y-87650156D01*
G37*
%TD.AperFunction*%
%TA.AperFunction,Conductor*%
G36*
X117609200Y-48520185D02*
G01*
X117654955Y-48572989D01*
X117664899Y-48642147D01*
X117635874Y-48705703D01*
X117617202Y-48723216D01*
X117328075Y-48943002D01*
X117311888Y-48958335D01*
X117311887Y-48958335D01*
X118555819Y-50202266D01*
X118365130Y-50365130D01*
X118202266Y-50555818D01*
X116960970Y-49314522D01*
X116960969Y-49314523D01*
X116829177Y-49469680D01*
X116829170Y-49469690D01*
X116625318Y-49770348D01*
X116625316Y-49770352D01*
X116455161Y-50091297D01*
X116455152Y-50091315D01*
X116320697Y-50428772D01*
X116320695Y-50428779D01*
X116223519Y-50778777D01*
X116223517Y-50778785D01*
X116164746Y-51137271D01*
X116145080Y-51499997D01*
X116145080Y-51500002D01*
X116164746Y-51862728D01*
X116223517Y-52221214D01*
X116223519Y-52221222D01*
X116320695Y-52571220D01*
X116320697Y-52571227D01*
X116455152Y-52908684D01*
X116455161Y-52908702D01*
X116625316Y-53229647D01*
X116625318Y-53229651D01*
X116829170Y-53530309D01*
X116829177Y-53530319D01*
X116960969Y-53685475D01*
X116960970Y-53685475D01*
X118202266Y-52444180D01*
X118365130Y-52634870D01*
X118555818Y-52797732D01*
X117311888Y-54041662D01*
X117311888Y-54041664D01*
X117328070Y-54056992D01*
X117328071Y-54056993D01*
X117617266Y-54276832D01*
X117617282Y-54276843D01*
X117928522Y-54464109D01*
X117928535Y-54464116D01*
X118258205Y-54616639D01*
X118258210Y-54616640D01*
X118602461Y-54732632D01*
X118957235Y-54810724D01*
X119318366Y-54849999D01*
X119318374Y-54850000D01*
X119681626Y-54850000D01*
X119681633Y-54849999D01*
X120042764Y-54810724D01*
X120397538Y-54732632D01*
X120741789Y-54616640D01*
X120741794Y-54616639D01*
X121071464Y-54464116D01*
X121071477Y-54464109D01*
X121382717Y-54276843D01*
X121382733Y-54276832D01*
X121671929Y-54056992D01*
X121688110Y-54041664D01*
X121688110Y-54041663D01*
X120444180Y-52797733D01*
X120634870Y-52634870D01*
X120797733Y-52444180D01*
X122039028Y-53685475D01*
X122039029Y-53685475D01*
X122170827Y-53530311D01*
X122170829Y-53530309D01*
X122272865Y-53379818D01*
X122326780Y-53335377D01*
X122396162Y-53327139D01*
X122458984Y-53357719D01*
X122495300Y-53417410D01*
X122499499Y-53449405D01*
X122499499Y-87550595D01*
X122479814Y-87617634D01*
X122427010Y-87663389D01*
X122357852Y-87673333D01*
X122294296Y-87644308D01*
X122272866Y-87620182D01*
X122170829Y-87469690D01*
X122170822Y-87469680D01*
X122039029Y-87314523D01*
X122039028Y-87314523D01*
X120797733Y-88555818D01*
X120634870Y-88365130D01*
X120444180Y-88202266D01*
X121688110Y-86958336D01*
X121688110Y-86958334D01*
X121671929Y-86943007D01*
X121671928Y-86943006D01*
X121382733Y-86723167D01*
X121382717Y-86723156D01*
X121071477Y-86535890D01*
X121071464Y-86535883D01*
X120741794Y-86383360D01*
X120741789Y-86383359D01*
X120397538Y-86267367D01*
X120042764Y-86189275D01*
X119681633Y-86150000D01*
X119318366Y-86150000D01*
X118957235Y-86189275D01*
X118602461Y-86267367D01*
X118258210Y-86383359D01*
X118258205Y-86383360D01*
X117928535Y-86535883D01*
X117928522Y-86535890D01*
X117617282Y-86723156D01*
X117617266Y-86723167D01*
X117328075Y-86943002D01*
X117311888Y-86958335D01*
X117311887Y-86958335D01*
X118555819Y-88202266D01*
X118365130Y-88365130D01*
X118202266Y-88555818D01*
X116960970Y-87314522D01*
X116960969Y-87314523D01*
X116829177Y-87469680D01*
X116829170Y-87469690D01*
X116625318Y-87770348D01*
X116625316Y-87770352D01*
X116455161Y-88091297D01*
X116455152Y-88091315D01*
X116320697Y-88428772D01*
X116320695Y-88428779D01*
X116223519Y-88778777D01*
X116223517Y-88778785D01*
X116164746Y-89137271D01*
X116145080Y-89499997D01*
X116145080Y-89500002D01*
X116164746Y-89862728D01*
X116223517Y-90221214D01*
X116223519Y-90221222D01*
X116320695Y-90571220D01*
X116320697Y-90571227D01*
X116455152Y-90908684D01*
X116455161Y-90908702D01*
X116625316Y-91229647D01*
X116625318Y-91229651D01*
X116829170Y-91530309D01*
X116829177Y-91530319D01*
X116960969Y-91685475D01*
X116960970Y-91685475D01*
X118202266Y-90444180D01*
X118365130Y-90634870D01*
X118555818Y-90797732D01*
X117311888Y-92041662D01*
X117311888Y-92041664D01*
X117328070Y-92056992D01*
X117328071Y-92056993D01*
X117617201Y-92276783D01*
X117658659Y-92333025D01*
X117663128Y-92402751D01*
X117629191Y-92463825D01*
X117567623Y-92496857D01*
X117542160Y-92499499D01*
X77838085Y-92499499D01*
X77771046Y-92479814D01*
X77725291Y-92427010D01*
X77715347Y-92357852D01*
X77744372Y-92294296D01*
X77781792Y-92265013D01*
X77789083Y-92261297D01*
X77789089Y-92261296D01*
X77807025Y-92248263D01*
X77823587Y-92238114D01*
X77843341Y-92228050D01*
X77858833Y-92212557D01*
X77858840Y-92212552D01*
X77973750Y-92097642D01*
X78605455Y-91465934D01*
X78666776Y-91432451D01*
X78736467Y-91437435D01*
X78737755Y-91437925D01*
X78802543Y-91463024D01*
X79003023Y-91500500D01*
X79003025Y-91500500D01*
X79206973Y-91500500D01*
X79206975Y-91500500D01*
X79407455Y-91463024D01*
X79597636Y-91389348D01*
X79771040Y-91281981D01*
X79921763Y-91144579D01*
X80044672Y-90981821D01*
X80106597Y-90857456D01*
X80131816Y-90806812D01*
X80179318Y-90755575D01*
X80246981Y-90738153D01*
X80313322Y-90760078D01*
X80357277Y-90814389D01*
X80362591Y-90829989D01*
X80371566Y-90863485D01*
X80371569Y-90863492D01*
X80471398Y-91077578D01*
X80606893Y-91271082D01*
X80773916Y-91438105D01*
X80967420Y-91573600D01*
X81181506Y-91673429D01*
X81181515Y-91673433D01*
X81394999Y-91730634D01*
X81394999Y-90835501D01*
X81502684Y-90884680D01*
X81609236Y-90900000D01*
X81680762Y-90900000D01*
X81787314Y-90884680D01*
X81894999Y-90835501D01*
X81894999Y-91730633D01*
X82108482Y-91673433D01*
X82108491Y-91673429D01*
X82322577Y-91573600D01*
X82516081Y-91438105D01*
X82683104Y-91271082D01*
X82818599Y-91077578D01*
X82918428Y-90863492D01*
X82918430Y-90863489D01*
X82927405Y-90829992D01*
X82963769Y-90770331D01*
X83026615Y-90739800D01*
X83095991Y-90748094D01*
X83149870Y-90792578D01*
X83158181Y-90806811D01*
X83245326Y-90981821D01*
X83368236Y-91144581D01*
X83518957Y-91281980D01*
X83518959Y-91281982D01*
X83618140Y-91343392D01*
X83692362Y-91389348D01*
X83882543Y-91463024D01*
X84083023Y-91500500D01*
X84083025Y-91500500D01*
X84286973Y-91500500D01*
X84286975Y-91500500D01*
X84487455Y-91463024D01*
X84677636Y-91389348D01*
X84851040Y-91281981D01*
X85001763Y-91144579D01*
X85124672Y-90981821D01*
X85215581Y-90799250D01*
X85271396Y-90603083D01*
X85290214Y-90400000D01*
X85271396Y-90196917D01*
X85215581Y-90000750D01*
X85200273Y-89970008D01*
X85164750Y-89898667D01*
X85124672Y-89818179D01*
X85001763Y-89655421D01*
X85001761Y-89655418D01*
X84851040Y-89518019D01*
X84851038Y-89518017D01*
X84677641Y-89410655D01*
X84677634Y-89410651D01*
X84566366Y-89367546D01*
X84487455Y-89336976D01*
X84286975Y-89299500D01*
X84083023Y-89299500D01*
X83882543Y-89336976D01*
X83882540Y-89336976D01*
X83882540Y-89336977D01*
X83692363Y-89410651D01*
X83692356Y-89410655D01*
X83518959Y-89518017D01*
X83518957Y-89518019D01*
X83368236Y-89655418D01*
X83245326Y-89818178D01*
X83158181Y-89993188D01*
X83110678Y-90044425D01*
X83043015Y-90061846D01*
X82976675Y-90039920D01*
X82932720Y-89985609D01*
X82927406Y-89970008D01*
X82918433Y-89936518D01*
X82918428Y-89936507D01*
X82818599Y-89722422D01*
X82818598Y-89722420D01*
X82683112Y-89528926D01*
X82683107Y-89528920D01*
X82516081Y-89361894D01*
X82322577Y-89226399D01*
X82108491Y-89126570D01*
X82108476Y-89126564D01*
X82069413Y-89116097D01*
X82009753Y-89079732D01*
X81979225Y-89016885D01*
X81987520Y-88947509D01*
X82032006Y-88893632D01*
X82056709Y-88880698D01*
X82137636Y-88849348D01*
X82311040Y-88741981D01*
X82461763Y-88604579D01*
X82584672Y-88441821D01*
X82675581Y-88259250D01*
X82731396Y-88063083D01*
X82750214Y-87860000D01*
X83079784Y-87860000D01*
X83098601Y-88063082D01*
X83154416Y-88259247D01*
X83154421Y-88259260D01*
X83245326Y-88441821D01*
X83368236Y-88604581D01*
X83518957Y-88741980D01*
X83518959Y-88741982D01*
X83590313Y-88786162D01*
X83692362Y-88849348D01*
X83882543Y-88923024D01*
X84083023Y-88960500D01*
X84083025Y-88960500D01*
X84286973Y-88960500D01*
X84286975Y-88960500D01*
X84487455Y-88923024D01*
X84677636Y-88849348D01*
X84851040Y-88741981D01*
X85001763Y-88604579D01*
X85124672Y-88441821D01*
X85215581Y-88259250D01*
X85271396Y-88063083D01*
X85290214Y-87860000D01*
X85619784Y-87860000D01*
X85638601Y-88063082D01*
X85694416Y-88259247D01*
X85694421Y-88259260D01*
X85785326Y-88441821D01*
X85908236Y-88604581D01*
X86058957Y-88741980D01*
X86058959Y-88741982D01*
X86130313Y-88786162D01*
X86232362Y-88849348D01*
X86422543Y-88923024D01*
X86623023Y-88960500D01*
X86623025Y-88960500D01*
X86826973Y-88960500D01*
X86826975Y-88960500D01*
X87027455Y-88923024D01*
X87217636Y-88849348D01*
X87391040Y-88741981D01*
X87541763Y-88604579D01*
X87664672Y-88441821D01*
X87755581Y-88259250D01*
X87811396Y-88063083D01*
X87830214Y-87860000D01*
X87811396Y-87656917D01*
X87755581Y-87460750D01*
X87740273Y-87430008D01*
X87705414Y-87360000D01*
X87664672Y-87278179D01*
X87570166Y-87153033D01*
X87541761Y-87115418D01*
X87391040Y-86978019D01*
X87391038Y-86978017D01*
X87217641Y-86870655D01*
X87217634Y-86870651D01*
X87100586Y-86825307D01*
X87027455Y-86796976D01*
X86826975Y-86759500D01*
X86623023Y-86759500D01*
X86422543Y-86796976D01*
X86422540Y-86796976D01*
X86422540Y-86796977D01*
X86232363Y-86870651D01*
X86232356Y-86870655D01*
X86058959Y-86978017D01*
X86058957Y-86978019D01*
X85908236Y-87115418D01*
X85785326Y-87278178D01*
X85694421Y-87460739D01*
X85694416Y-87460752D01*
X85638601Y-87656917D01*
X85619784Y-87859999D01*
X85619784Y-87860000D01*
X85290214Y-87860000D01*
X85271396Y-87656917D01*
X85215581Y-87460750D01*
X85200273Y-87430008D01*
X85165414Y-87360000D01*
X85124672Y-87278179D01*
X85030166Y-87153033D01*
X85001761Y-87115418D01*
X84851040Y-86978019D01*
X84851038Y-86978017D01*
X84677641Y-86870655D01*
X84677634Y-86870651D01*
X84560586Y-86825307D01*
X84487455Y-86796976D01*
X84286975Y-86759500D01*
X84083023Y-86759500D01*
X83882543Y-86796976D01*
X83882540Y-86796976D01*
X83882540Y-86796977D01*
X83692363Y-86870651D01*
X83692356Y-86870655D01*
X83518959Y-86978017D01*
X83518957Y-86978019D01*
X83368236Y-87115418D01*
X83245326Y-87278178D01*
X83154421Y-87460739D01*
X83154416Y-87460752D01*
X83098601Y-87656917D01*
X83079784Y-87859999D01*
X83079784Y-87860000D01*
X82750214Y-87860000D01*
X82731396Y-87656917D01*
X82675581Y-87460750D01*
X82660273Y-87430008D01*
X82625414Y-87360000D01*
X82584672Y-87278179D01*
X82490166Y-87153033D01*
X82461761Y-87115418D01*
X82311040Y-86978019D01*
X82311038Y-86978017D01*
X82137641Y-86870655D01*
X82137634Y-86870651D01*
X82020586Y-86825307D01*
X81947455Y-86796976D01*
X81746975Y-86759500D01*
X81543023Y-86759500D01*
X81342543Y-86796976D01*
X81342540Y-86796976D01*
X81342540Y-86796977D01*
X81152363Y-86870651D01*
X81152356Y-86870655D01*
X80978959Y-86978017D01*
X80978957Y-86978019D01*
X80828236Y-87115418D01*
X80705326Y-87278178D01*
X80614421Y-87460739D01*
X80614416Y-87460752D01*
X80558601Y-87656917D01*
X80539784Y-87859999D01*
X80539784Y-87860000D01*
X80558601Y-88063082D01*
X80614416Y-88259247D01*
X80614421Y-88259260D01*
X80705326Y-88441821D01*
X80828236Y-88604581D01*
X80978957Y-88741980D01*
X80978959Y-88741982D01*
X81050313Y-88786162D01*
X81152362Y-88849348D01*
X81233282Y-88880696D01*
X81288684Y-88923269D01*
X81312275Y-88989035D01*
X81296564Y-89057116D01*
X81246541Y-89105895D01*
X81220585Y-89116097D01*
X81181518Y-89126565D01*
X81181506Y-89126570D01*
X80967421Y-89226399D01*
X80967419Y-89226400D01*
X80773925Y-89361886D01*
X80773919Y-89361891D01*
X80606890Y-89528920D01*
X80606885Y-89528926D01*
X80471399Y-89722420D01*
X80471398Y-89722422D01*
X80371569Y-89936507D01*
X80371567Y-89936511D01*
X80362591Y-89970011D01*
X80326225Y-90029671D01*
X80263378Y-90060199D01*
X80194002Y-90051904D01*
X80140125Y-90007418D01*
X80131816Y-89993188D01*
X80084750Y-89898667D01*
X80044672Y-89818179D01*
X79921763Y-89655421D01*
X79921761Y-89655418D01*
X79771040Y-89518019D01*
X79771038Y-89518017D01*
X79597641Y-89410655D01*
X79597634Y-89410651D01*
X79486366Y-89367546D01*
X79407455Y-89336976D01*
X79206975Y-89299500D01*
X79003023Y-89299500D01*
X78802543Y-89336976D01*
X78802540Y-89336976D01*
X78802540Y-89336977D01*
X78612363Y-89410651D01*
X78612356Y-89410655D01*
X78438959Y-89518017D01*
X78438957Y-89518019D01*
X78288236Y-89655418D01*
X78165326Y-89818178D01*
X78078181Y-89993188D01*
X78030678Y-90044425D01*
X77963015Y-90061846D01*
X77896675Y-90039920D01*
X77852720Y-89985609D01*
X77847406Y-89970008D01*
X77838433Y-89936518D01*
X77838428Y-89936507D01*
X77738599Y-89722422D01*
X77738598Y-89722420D01*
X77603112Y-89528926D01*
X77603107Y-89528920D01*
X77436081Y-89361894D01*
X77242577Y-89226399D01*
X77028491Y-89126570D01*
X77028476Y-89126564D01*
X76989413Y-89116097D01*
X76929753Y-89079732D01*
X76899225Y-89016885D01*
X76907520Y-88947509D01*
X76952006Y-88893632D01*
X76976709Y-88880698D01*
X77057636Y-88849348D01*
X77231040Y-88741981D01*
X77381763Y-88604579D01*
X77504672Y-88441821D01*
X77595581Y-88259250D01*
X77651396Y-88063083D01*
X77670214Y-87860000D01*
X77999784Y-87860000D01*
X78018601Y-88063082D01*
X78074416Y-88259247D01*
X78074421Y-88259260D01*
X78165326Y-88441821D01*
X78288236Y-88604581D01*
X78438957Y-88741980D01*
X78438959Y-88741982D01*
X78510313Y-88786162D01*
X78612362Y-88849348D01*
X78802543Y-88923024D01*
X79003023Y-88960500D01*
X79003025Y-88960500D01*
X79206973Y-88960500D01*
X79206975Y-88960500D01*
X79407455Y-88923024D01*
X79597636Y-88849348D01*
X79771040Y-88741981D01*
X79921763Y-88604579D01*
X80044672Y-88441821D01*
X80135581Y-88259250D01*
X80191396Y-88063083D01*
X80210214Y-87860000D01*
X80191396Y-87656917D01*
X80135581Y-87460750D01*
X80120273Y-87430008D01*
X80085414Y-87360000D01*
X80044672Y-87278179D01*
X79950166Y-87153033D01*
X79921761Y-87115418D01*
X79771040Y-86978019D01*
X79771038Y-86978017D01*
X79597641Y-86870655D01*
X79597634Y-86870651D01*
X79480586Y-86825307D01*
X79407455Y-86796976D01*
X79206975Y-86759500D01*
X79003023Y-86759500D01*
X78802543Y-86796976D01*
X78802540Y-86796976D01*
X78802540Y-86796977D01*
X78612363Y-86870651D01*
X78612356Y-86870655D01*
X78438959Y-86978017D01*
X78438957Y-86978019D01*
X78288236Y-87115418D01*
X78165326Y-87278178D01*
X78074421Y-87460739D01*
X78074416Y-87460752D01*
X78018601Y-87656917D01*
X77999784Y-87859999D01*
X77999784Y-87860000D01*
X77670214Y-87860000D01*
X77651396Y-87656917D01*
X77595581Y-87460750D01*
X77580273Y-87430008D01*
X77545414Y-87360000D01*
X77504672Y-87278179D01*
X77410166Y-87153033D01*
X77381761Y-87115418D01*
X77231040Y-86978019D01*
X77231038Y-86978017D01*
X77057641Y-86870655D01*
X77057634Y-86870651D01*
X76940586Y-86825307D01*
X76867455Y-86796976D01*
X76666975Y-86759500D01*
X76463023Y-86759500D01*
X76262543Y-86796976D01*
X76262540Y-86796976D01*
X76262540Y-86796977D01*
X76072363Y-86870651D01*
X76072356Y-86870655D01*
X75898959Y-86978017D01*
X75898957Y-86978019D01*
X75748236Y-87115418D01*
X75625326Y-87278178D01*
X75534421Y-87460739D01*
X75534416Y-87460752D01*
X75478601Y-87656917D01*
X75459784Y-87859999D01*
X75459784Y-87860000D01*
X75478601Y-88063082D01*
X75534416Y-88259247D01*
X75534421Y-88259260D01*
X75625326Y-88441821D01*
X75748236Y-88604581D01*
X75898957Y-88741980D01*
X75898959Y-88741982D01*
X75970313Y-88786162D01*
X76072362Y-88849348D01*
X76153282Y-88880696D01*
X76208684Y-88923269D01*
X76232275Y-88989035D01*
X76216564Y-89057116D01*
X76166541Y-89105895D01*
X76140585Y-89116097D01*
X76101518Y-89126565D01*
X76101506Y-89126570D01*
X75887421Y-89226399D01*
X75887419Y-89226400D01*
X75693925Y-89361886D01*
X75693919Y-89361891D01*
X75526890Y-89528920D01*
X75526885Y-89528926D01*
X75391399Y-89722420D01*
X75391398Y-89722422D01*
X75291569Y-89936507D01*
X75291566Y-89936513D01*
X75234363Y-90149999D01*
X75234363Y-90150000D01*
X76131313Y-90150000D01*
X76105506Y-90190156D01*
X76064999Y-90328111D01*
X76064999Y-90471889D01*
X76105506Y-90609844D01*
X76131313Y-90650000D01*
X75234363Y-90650000D01*
X75291566Y-90863486D01*
X75291569Y-90863492D01*
X75391398Y-91077578D01*
X75526893Y-91271082D01*
X75543630Y-91287819D01*
X75577115Y-91349142D01*
X75572131Y-91418834D01*
X75530259Y-91474767D01*
X75464795Y-91499184D01*
X75455949Y-91499500D01*
X72717255Y-91499500D01*
X72650216Y-91479815D01*
X72629574Y-91463181D01*
X67736819Y-86570426D01*
X67703334Y-86509103D01*
X67700500Y-86482745D01*
X67700500Y-78400000D01*
X68644750Y-78400000D01*
X68663670Y-78543708D01*
X68663671Y-78543712D01*
X68719137Y-78677622D01*
X68719138Y-78677624D01*
X68719139Y-78677625D01*
X68807379Y-78792621D01*
X68922375Y-78880861D01*
X69056291Y-78936330D01*
X69183280Y-78953048D01*
X69199999Y-78955250D01*
X69200000Y-78955250D01*
X69200001Y-78955250D01*
X69214977Y-78953278D01*
X69343709Y-78936330D01*
X69477625Y-78880861D01*
X69592621Y-78792621D01*
X69680861Y-78677625D01*
X69736330Y-78543709D01*
X69755250Y-78400000D01*
X69736330Y-78256291D01*
X69680861Y-78122375D01*
X69672530Y-78111518D01*
X69626124Y-78051039D01*
X69600930Y-77985869D01*
X69600500Y-77975553D01*
X69600500Y-76379859D01*
X69620185Y-76312820D01*
X69672989Y-76267065D01*
X69742147Y-76257121D01*
X69805703Y-76286146D01*
X69826069Y-76308728D01*
X69909722Y-76428197D01*
X70064443Y-76582918D01*
X70243681Y-76708422D01*
X70399225Y-76780953D01*
X70451664Y-76827125D01*
X70470820Y-76893335D01*
X70470820Y-83512930D01*
X70451135Y-83579969D01*
X70445196Y-83588416D01*
X70419138Y-83622374D01*
X70363671Y-83756287D01*
X70363670Y-83756291D01*
X70344750Y-83899999D01*
X70344750Y-83900000D01*
X70363670Y-84043708D01*
X70363671Y-84043712D01*
X70419137Y-84177622D01*
X70419138Y-84177624D01*
X70419139Y-84177625D01*
X70507379Y-84292621D01*
X70622375Y-84380861D01*
X70756291Y-84436330D01*
X70883280Y-84453048D01*
X70899999Y-84455250D01*
X70900000Y-84455250D01*
X70900001Y-84455250D01*
X70914977Y-84453278D01*
X71043709Y-84436330D01*
X71177625Y-84380861D01*
X71292621Y-84292621D01*
X71380861Y-84177625D01*
X71436330Y-84043709D01*
X71455250Y-83900000D01*
X71436330Y-83756291D01*
X71380861Y-83622375D01*
X71297443Y-83513663D01*
X71272250Y-83448495D01*
X71271820Y-83438178D01*
X71271820Y-82800000D01*
X72244750Y-82800000D01*
X72263670Y-82943708D01*
X72263671Y-82943712D01*
X72319137Y-83077622D01*
X72319138Y-83077624D01*
X72319139Y-83077625D01*
X72407379Y-83192621D01*
X72522375Y-83280861D01*
X72656291Y-83336330D01*
X72783280Y-83353048D01*
X72799999Y-83355250D01*
X72800000Y-83355250D01*
X72800001Y-83355250D01*
X72814977Y-83353278D01*
X72943709Y-83336330D01*
X73077625Y-83280861D01*
X73192621Y-83192621D01*
X73280861Y-83077625D01*
X73336330Y-82943709D01*
X73348066Y-82854562D01*
X73376331Y-82790668D01*
X73383311Y-82783081D01*
X74055484Y-82110909D01*
X74055484Y-82110908D01*
X74062552Y-82103841D01*
X74062557Y-82103834D01*
X74078050Y-82088342D01*
X74088114Y-82068588D01*
X74098263Y-82052026D01*
X74111296Y-82034090D01*
X74118144Y-82013011D01*
X74125586Y-81995044D01*
X74135646Y-81975304D01*
X74139112Y-81953417D01*
X74143655Y-81934498D01*
X74145750Y-81928050D01*
X74150500Y-81913433D01*
X74150500Y-81786567D01*
X74150500Y-81511389D01*
X74170185Y-81444350D01*
X74222989Y-81398595D01*
X74231169Y-81395206D01*
X74233054Y-81394503D01*
X74346831Y-81309331D01*
X74432003Y-81195554D01*
X74481671Y-81062391D01*
X74487062Y-81012248D01*
X74487999Y-81003537D01*
X74487999Y-81003526D01*
X74488000Y-81003521D01*
X74487999Y-80500000D01*
X75944417Y-80500000D01*
X75964699Y-80705932D01*
X75982324Y-80764033D01*
X76024768Y-80903954D01*
X76122315Y-81086450D01*
X76156703Y-81128352D01*
X76253589Y-81246410D01*
X76330260Y-81309331D01*
X76413550Y-81377685D01*
X76596046Y-81475232D01*
X76794066Y-81535300D01*
X76794065Y-81535300D01*
X76812529Y-81537118D01*
X77000000Y-81555583D01*
X77205934Y-81535300D01*
X77403954Y-81475232D01*
X77586450Y-81377685D01*
X77746410Y-81246410D01*
X77877685Y-81086450D01*
X77975232Y-80903954D01*
X78001652Y-80816855D01*
X78039948Y-80758419D01*
X78103760Y-80729962D01*
X78172827Y-80740521D01*
X78225221Y-80786745D01*
X78240087Y-80820758D01*
X78273731Y-80946319D01*
X78273735Y-80946331D01*
X78369863Y-81152478D01*
X78420974Y-81225472D01*
X79102046Y-80544400D01*
X79114835Y-80625148D01*
X79172359Y-80738045D01*
X79261955Y-80827641D01*
X79374852Y-80885165D01*
X79455599Y-80897953D01*
X78774526Y-81579025D01*
X78847513Y-81630132D01*
X78847521Y-81630136D01*
X79053668Y-81726264D01*
X79053682Y-81726269D01*
X79273389Y-81785139D01*
X79273400Y-81785141D01*
X79499998Y-81804966D01*
X79500002Y-81804966D01*
X79726599Y-81785141D01*
X79726610Y-81785139D01*
X79946317Y-81726269D01*
X79946331Y-81726264D01*
X80152478Y-81630136D01*
X80225471Y-81579024D01*
X79544400Y-80897953D01*
X79625148Y-80885165D01*
X79738045Y-80827641D01*
X79827641Y-80738045D01*
X79885165Y-80625148D01*
X79897953Y-80544400D01*
X80579024Y-81225471D01*
X80630136Y-81152478D01*
X80726264Y-80946331D01*
X80726269Y-80946317D01*
X80785139Y-80726610D01*
X80785141Y-80726599D01*
X80804966Y-80500002D01*
X80804966Y-80499997D01*
X80785141Y-80273400D01*
X80785139Y-80273389D01*
X80726269Y-80053682D01*
X80726264Y-80053668D01*
X80630136Y-79847521D01*
X80630132Y-79847513D01*
X80579025Y-79774526D01*
X79897953Y-80455598D01*
X79885165Y-80374852D01*
X79827641Y-80261955D01*
X79738045Y-80172359D01*
X79625148Y-80114835D01*
X79544401Y-80102046D01*
X80225472Y-79420974D01*
X80152478Y-79369863D01*
X79946331Y-79273735D01*
X79946317Y-79273730D01*
X79726610Y-79214860D01*
X79726599Y-79214858D01*
X79500002Y-79195034D01*
X79499998Y-79195034D01*
X79273400Y-79214858D01*
X79273389Y-79214860D01*
X79053682Y-79273730D01*
X79053673Y-79273734D01*
X78847516Y-79369866D01*
X78847512Y-79369868D01*
X78774526Y-79420973D01*
X78774526Y-79420974D01*
X79455599Y-80102046D01*
X79374852Y-80114835D01*
X79261955Y-80172359D01*
X79172359Y-80261955D01*
X79114835Y-80374852D01*
X79102046Y-80455598D01*
X78420974Y-79774526D01*
X78420973Y-79774526D01*
X78369868Y-79847512D01*
X78369866Y-79847516D01*
X78273734Y-80053673D01*
X78273731Y-80053680D01*
X78240087Y-80179241D01*
X78203722Y-80238901D01*
X78140874Y-80269430D01*
X78071499Y-80261135D01*
X78017621Y-80216650D01*
X78001652Y-80183144D01*
X77975232Y-80096046D01*
X77877685Y-79913550D01*
X77821025Y-79844509D01*
X77746410Y-79753589D01*
X77586452Y-79622317D01*
X77586453Y-79622317D01*
X77586450Y-79622315D01*
X77403954Y-79524768D01*
X77205934Y-79464700D01*
X77205932Y-79464699D01*
X77205934Y-79464699D01*
X77000000Y-79444417D01*
X76794067Y-79464699D01*
X76596043Y-79524769D01*
X76502621Y-79574705D01*
X76413550Y-79622315D01*
X76413548Y-79622316D01*
X76413547Y-79622317D01*
X76253589Y-79753589D01*
X76122317Y-79913547D01*
X76122315Y-79913550D01*
X76102688Y-79950270D01*
X76024769Y-80096043D01*
X76024769Y-80096044D01*
X76024768Y-80096046D01*
X76018374Y-80117125D01*
X75964699Y-80294067D01*
X75944417Y-80500000D01*
X74487999Y-80500000D01*
X74487999Y-80379753D01*
X74507683Y-80312715D01*
X74524313Y-80292078D01*
X77908253Y-76908139D01*
X77969576Y-76874654D01*
X77995934Y-76871820D01*
X79004065Y-76871820D01*
X79071104Y-76891505D01*
X79091746Y-76908139D01*
X84043413Y-81859807D01*
X84043433Y-81859825D01*
X84061658Y-81878050D01*
X84081390Y-81888104D01*
X84081398Y-81888108D01*
X84097987Y-81898274D01*
X84115909Y-81911295D01*
X84115910Y-81911295D01*
X84115911Y-81911296D01*
X84136980Y-81918142D01*
X84154949Y-81925584D01*
X84174696Y-81935646D01*
X84196582Y-81939112D01*
X84215497Y-81943653D01*
X84236567Y-81950500D01*
X84236569Y-81950500D01*
X86763431Y-81950500D01*
X86763433Y-81950500D01*
X86784501Y-81943654D01*
X86803417Y-81939112D01*
X86825304Y-81935646D01*
X86845044Y-81925586D01*
X86863011Y-81918144D01*
X86884090Y-81911296D01*
X86902026Y-81898263D01*
X86918588Y-81888114D01*
X86938342Y-81878050D01*
X86953834Y-81862557D01*
X86953841Y-81862552D01*
X87034373Y-81782020D01*
X87332980Y-81483411D01*
X87394301Y-81449928D01*
X87433913Y-81447805D01*
X87458979Y-81450500D01*
X88041020Y-81450499D01*
X88099891Y-81444171D01*
X88233054Y-81394503D01*
X88346831Y-81309331D01*
X88432003Y-81195554D01*
X88481671Y-81062391D01*
X88488000Y-81003521D01*
X88488000Y-81003512D01*
X88488160Y-81002024D01*
X88514898Y-80937473D01*
X88572290Y-80897625D01*
X88573014Y-80897386D01*
X88584504Y-80893653D01*
X88603417Y-80889112D01*
X88625304Y-80885646D01*
X88645044Y-80875586D01*
X88663011Y-80868144D01*
X88684090Y-80861296D01*
X88702026Y-80848263D01*
X88718588Y-80838114D01*
X88738342Y-80828050D01*
X88753834Y-80812557D01*
X88753841Y-80812552D01*
X89066393Y-80500000D01*
X89944417Y-80500000D01*
X89964699Y-80705932D01*
X89982324Y-80764033D01*
X90024768Y-80903954D01*
X90122315Y-81086450D01*
X90156703Y-81128352D01*
X90253589Y-81246410D01*
X90330260Y-81309331D01*
X90413550Y-81377685D01*
X90596046Y-81475232D01*
X90794066Y-81535300D01*
X90794065Y-81535300D01*
X90812529Y-81537118D01*
X91000000Y-81555583D01*
X91205934Y-81535300D01*
X91403954Y-81475232D01*
X91586450Y-81377685D01*
X91746410Y-81246410D01*
X91877685Y-81086450D01*
X91975232Y-80903954D01*
X92001652Y-80816855D01*
X92039948Y-80758419D01*
X92103760Y-80729962D01*
X92172827Y-80740521D01*
X92225221Y-80786745D01*
X92240087Y-80820758D01*
X92273731Y-80946319D01*
X92273735Y-80946331D01*
X92369863Y-81152478D01*
X92420974Y-81225472D01*
X93102046Y-80544400D01*
X93114835Y-80625148D01*
X93172359Y-80738045D01*
X93261955Y-80827641D01*
X93374852Y-80885165D01*
X93455599Y-80897953D01*
X92774526Y-81579025D01*
X92847513Y-81630132D01*
X92847521Y-81630136D01*
X93053668Y-81726264D01*
X93053682Y-81726269D01*
X93273389Y-81785139D01*
X93273400Y-81785141D01*
X93499998Y-81804966D01*
X93500002Y-81804966D01*
X93726599Y-81785141D01*
X93726610Y-81785139D01*
X93946317Y-81726269D01*
X93946331Y-81726264D01*
X94152478Y-81630136D01*
X94225471Y-81579024D01*
X93544400Y-80897953D01*
X93625148Y-80885165D01*
X93738045Y-80827641D01*
X93827641Y-80738045D01*
X93885165Y-80625148D01*
X93897953Y-80544400D01*
X94579024Y-81225471D01*
X94630136Y-81152478D01*
X94726264Y-80946331D01*
X94726269Y-80946317D01*
X94785139Y-80726610D01*
X94785141Y-80726599D01*
X94804966Y-80500002D01*
X94804966Y-80499997D01*
X94785141Y-80273400D01*
X94785139Y-80273389D01*
X94726269Y-80053682D01*
X94726264Y-80053668D01*
X94630136Y-79847521D01*
X94630132Y-79847513D01*
X94579025Y-79774526D01*
X93897953Y-80455598D01*
X93885165Y-80374852D01*
X93827641Y-80261955D01*
X93738045Y-80172359D01*
X93625148Y-80114835D01*
X93544401Y-80102046D01*
X94225472Y-79420974D01*
X94152478Y-79369863D01*
X93946331Y-79273735D01*
X93946317Y-79273730D01*
X93726610Y-79214860D01*
X93726599Y-79214858D01*
X93500002Y-79195034D01*
X93499998Y-79195034D01*
X93273400Y-79214858D01*
X93273389Y-79214860D01*
X93053682Y-79273730D01*
X93053673Y-79273734D01*
X92847516Y-79369866D01*
X92847512Y-79369868D01*
X92774526Y-79420973D01*
X92774526Y-79420974D01*
X93455599Y-80102046D01*
X93374852Y-80114835D01*
X93261955Y-80172359D01*
X93172359Y-80261955D01*
X93114835Y-80374852D01*
X93102046Y-80455598D01*
X92420974Y-79774526D01*
X92420973Y-79774526D01*
X92369868Y-79847512D01*
X92369866Y-79847516D01*
X92273734Y-80053673D01*
X92273731Y-80053680D01*
X92240087Y-80179241D01*
X92203722Y-80238901D01*
X92140874Y-80269430D01*
X92071499Y-80261135D01*
X92017621Y-80216650D01*
X92001652Y-80183144D01*
X91975232Y-80096046D01*
X91877685Y-79913550D01*
X91821025Y-79844509D01*
X91746410Y-79753589D01*
X91586452Y-79622317D01*
X91586453Y-79622317D01*
X91586450Y-79622315D01*
X91403954Y-79524768D01*
X91205934Y-79464700D01*
X91205932Y-79464699D01*
X91205934Y-79464699D01*
X91000000Y-79444417D01*
X90794067Y-79464699D01*
X90596043Y-79524769D01*
X90502621Y-79574705D01*
X90413550Y-79622315D01*
X90413548Y-79622316D01*
X90413547Y-79622317D01*
X90253589Y-79753589D01*
X90122317Y-79913547D01*
X90122315Y-79913550D01*
X90102688Y-79950270D01*
X90024769Y-80096043D01*
X90024769Y-80096044D01*
X90024768Y-80096046D01*
X90018374Y-80117125D01*
X89964699Y-80294067D01*
X89944417Y-80500000D01*
X89066393Y-80500000D01*
X92176803Y-77389589D01*
X92199370Y-77367022D01*
X92209429Y-77347277D01*
X92219591Y-77330694D01*
X92232616Y-77312770D01*
X92239461Y-77291702D01*
X92246906Y-77273725D01*
X92256966Y-77253984D01*
X92260432Y-77232095D01*
X92264972Y-77213181D01*
X92271819Y-77192113D01*
X92271819Y-77165334D01*
X92271820Y-77165309D01*
X92271820Y-76995820D01*
X92291505Y-76928781D01*
X92344309Y-76883026D01*
X92395820Y-76871820D01*
X92504065Y-76871820D01*
X92571104Y-76891505D01*
X92591746Y-76908139D01*
X95060319Y-79376711D01*
X97521950Y-81838342D01*
X97611658Y-81928050D01*
X97631395Y-81938106D01*
X97647981Y-81948269D01*
X97665910Y-81961296D01*
X97665912Y-81961296D01*
X97665913Y-81961297D01*
X97686974Y-81968140D01*
X97704954Y-81975587D01*
X97725794Y-81986206D01*
X97776589Y-82034182D01*
X97793383Y-82102003D01*
X97770844Y-82168137D01*
X97757178Y-82184371D01*
X92985548Y-86955999D01*
X92924225Y-86989484D01*
X92854533Y-86984500D01*
X92810186Y-86955999D01*
X92676081Y-86821894D01*
X92482577Y-86686399D01*
X92268491Y-86586570D01*
X92268485Y-86586567D01*
X92054999Y-86529364D01*
X92054999Y-87424498D01*
X91947314Y-87375320D01*
X91840762Y-87360000D01*
X91769236Y-87360000D01*
X91662684Y-87375320D01*
X91554999Y-87424498D01*
X91554999Y-86529364D01*
X91554998Y-86529364D01*
X91341512Y-86586567D01*
X91341506Y-86586570D01*
X91127421Y-86686399D01*
X91127419Y-86686400D01*
X90933925Y-86821886D01*
X90933919Y-86821891D01*
X90766890Y-86988920D01*
X90766885Y-86988926D01*
X90631399Y-87182420D01*
X90631398Y-87182422D01*
X90531569Y-87396507D01*
X90531567Y-87396511D01*
X90522591Y-87430011D01*
X90486225Y-87489671D01*
X90423378Y-87520199D01*
X90354002Y-87511904D01*
X90300125Y-87467418D01*
X90291816Y-87453188D01*
X90245414Y-87360000D01*
X90204672Y-87278179D01*
X90110166Y-87153033D01*
X90081761Y-87115418D01*
X89931040Y-86978019D01*
X89931038Y-86978017D01*
X89757641Y-86870655D01*
X89757634Y-86870651D01*
X89640586Y-86825307D01*
X89567455Y-86796976D01*
X89366975Y-86759500D01*
X89163023Y-86759500D01*
X88962543Y-86796976D01*
X88962540Y-86796976D01*
X88962540Y-86796977D01*
X88772363Y-86870651D01*
X88772356Y-86870655D01*
X88598959Y-86978017D01*
X88598957Y-86978019D01*
X88448236Y-87115418D01*
X88325326Y-87278178D01*
X88234421Y-87460739D01*
X88234416Y-87460752D01*
X88178601Y-87656917D01*
X88159784Y-87859999D01*
X88159784Y-87860000D01*
X88178601Y-88063082D01*
X88234416Y-88259247D01*
X88234421Y-88259260D01*
X88318828Y-88428772D01*
X88325326Y-88441821D01*
X88412029Y-88556635D01*
X88445361Y-88600773D01*
X88470053Y-88666134D01*
X88455488Y-88734469D01*
X88406291Y-88784082D01*
X88346407Y-88799500D01*
X87888369Y-88799500D01*
X87888345Y-88799501D01*
X87861563Y-88799501D01*
X87840498Y-88806346D01*
X87821581Y-88810887D01*
X87799699Y-88814352D01*
X87799694Y-88814354D01*
X87779949Y-88824414D01*
X87761985Y-88831855D01*
X87740906Y-88838705D01*
X87722983Y-88851727D01*
X87706398Y-88861890D01*
X87686658Y-88871948D01*
X87677911Y-88880696D01*
X87664090Y-88894517D01*
X87224544Y-89334061D01*
X87163221Y-89367546D01*
X87093529Y-89362562D01*
X87092070Y-89362007D01*
X87027460Y-89336977D01*
X87011861Y-89334061D01*
X86826975Y-89299500D01*
X86623023Y-89299500D01*
X86422543Y-89336976D01*
X86422540Y-89336976D01*
X86422540Y-89336977D01*
X86232363Y-89410651D01*
X86232356Y-89410655D01*
X86058959Y-89518017D01*
X86058957Y-89518019D01*
X85908236Y-89655418D01*
X85785326Y-89818178D01*
X85694421Y-90000739D01*
X85694416Y-90000752D01*
X85638601Y-90196917D01*
X85619784Y-90399999D01*
X85619784Y-90400000D01*
X85638601Y-90603082D01*
X85694416Y-90799247D01*
X85694421Y-90799260D01*
X85785326Y-90981821D01*
X85908236Y-91144581D01*
X86058957Y-91281980D01*
X86058959Y-91281982D01*
X86158140Y-91343392D01*
X86232362Y-91389348D01*
X86422543Y-91463024D01*
X86623023Y-91500500D01*
X86623025Y-91500500D01*
X86826973Y-91500500D01*
X86826975Y-91500500D01*
X87027455Y-91463024D01*
X87217636Y-91389348D01*
X87391040Y-91281981D01*
X87541763Y-91144579D01*
X87664672Y-90981821D01*
X87755581Y-90799250D01*
X87811396Y-90603083D01*
X87830214Y-90400000D01*
X87811396Y-90196917D01*
X87761138Y-90020280D01*
X87761724Y-89950416D01*
X87792721Y-89898669D01*
X88054572Y-89636819D01*
X88115895Y-89603334D01*
X88142253Y-89600500D01*
X88240684Y-89600500D01*
X88307723Y-89620185D01*
X88353478Y-89672989D01*
X88363422Y-89742147D01*
X88339638Y-89799227D01*
X88325326Y-89818178D01*
X88234421Y-90000739D01*
X88234416Y-90000752D01*
X88178601Y-90196917D01*
X88159784Y-90399999D01*
X88159784Y-90400000D01*
X88178601Y-90603082D01*
X88234416Y-90799247D01*
X88234421Y-90799260D01*
X88325326Y-90981821D01*
X88448236Y-91144581D01*
X88598957Y-91281980D01*
X88598959Y-91281982D01*
X88698140Y-91343392D01*
X88772362Y-91389348D01*
X88962543Y-91463024D01*
X89163023Y-91500500D01*
X89163025Y-91500500D01*
X89366973Y-91500500D01*
X89366975Y-91500500D01*
X89567455Y-91463024D01*
X89757636Y-91389348D01*
X89931040Y-91281981D01*
X90081763Y-91144579D01*
X90204672Y-90981821D01*
X90295581Y-90799250D01*
X90351396Y-90603083D01*
X90370214Y-90400000D01*
X90351396Y-90196917D01*
X90295581Y-90000750D01*
X90280273Y-89970008D01*
X90244750Y-89898667D01*
X90204672Y-89818179D01*
X90190359Y-89799226D01*
X90165668Y-89733866D01*
X90180233Y-89665531D01*
X90229430Y-89615919D01*
X90289314Y-89600500D01*
X90780684Y-89600500D01*
X90847723Y-89620185D01*
X90893478Y-89672989D01*
X90903422Y-89742147D01*
X90879638Y-89799227D01*
X90865326Y-89818178D01*
X90774421Y-90000739D01*
X90774416Y-90000752D01*
X90718601Y-90196917D01*
X90699784Y-90399999D01*
X90699784Y-90400000D01*
X90718601Y-90603082D01*
X90774416Y-90799247D01*
X90774421Y-90799260D01*
X90865326Y-90981821D01*
X90988236Y-91144581D01*
X91138957Y-91281980D01*
X91138959Y-91281982D01*
X91238140Y-91343392D01*
X91312362Y-91389348D01*
X91502543Y-91463024D01*
X91703023Y-91500500D01*
X91703025Y-91500500D01*
X91906973Y-91500500D01*
X91906975Y-91500500D01*
X92107455Y-91463024D01*
X92297636Y-91389348D01*
X92471040Y-91281981D01*
X92621763Y-91144579D01*
X92744672Y-90981821D01*
X92835581Y-90799250D01*
X92891396Y-90603083D01*
X92910214Y-90400000D01*
X92891396Y-90196917D01*
X92841138Y-90020280D01*
X92841724Y-89950416D01*
X92872721Y-89898669D01*
X93134572Y-89636819D01*
X93195895Y-89603334D01*
X93222253Y-89600500D01*
X93320684Y-89600500D01*
X93387723Y-89620185D01*
X93433478Y-89672989D01*
X93443422Y-89742147D01*
X93419638Y-89799227D01*
X93405326Y-89818178D01*
X93314421Y-90000739D01*
X93314416Y-90000752D01*
X93258601Y-90196917D01*
X93239784Y-90399999D01*
X93239784Y-90400000D01*
X93258601Y-90603082D01*
X93314416Y-90799247D01*
X93314421Y-90799260D01*
X93405326Y-90981821D01*
X93528236Y-91144581D01*
X93678957Y-91281980D01*
X93678959Y-91281982D01*
X93778140Y-91343392D01*
X93852362Y-91389348D01*
X94042543Y-91463024D01*
X94243023Y-91500500D01*
X94243025Y-91500500D01*
X94446973Y-91500500D01*
X94446975Y-91500500D01*
X94647455Y-91463024D01*
X94837636Y-91389348D01*
X95011040Y-91281981D01*
X95161763Y-91144579D01*
X95284672Y-90981821D01*
X95375581Y-90799250D01*
X95431396Y-90603083D01*
X95450214Y-90400000D01*
X95431396Y-90196917D01*
X95375581Y-90000750D01*
X95360273Y-89970008D01*
X95324750Y-89898667D01*
X95284672Y-89818179D01*
X95270359Y-89799226D01*
X95245668Y-89733866D01*
X95260233Y-89665531D01*
X95309430Y-89615919D01*
X95369314Y-89600500D01*
X95860684Y-89600500D01*
X95927723Y-89620185D01*
X95973478Y-89672989D01*
X95983422Y-89742147D01*
X95959638Y-89799227D01*
X95945326Y-89818178D01*
X95854421Y-90000739D01*
X95854416Y-90000752D01*
X95798601Y-90196917D01*
X95779784Y-90399999D01*
X95779784Y-90400000D01*
X95798601Y-90603082D01*
X95854416Y-90799247D01*
X95854421Y-90799260D01*
X95945326Y-90981821D01*
X96068236Y-91144581D01*
X96218957Y-91281980D01*
X96218959Y-91281982D01*
X96318140Y-91343392D01*
X96392362Y-91389348D01*
X96582543Y-91463024D01*
X96783023Y-91500500D01*
X96783025Y-91500500D01*
X96986973Y-91500500D01*
X96986975Y-91500500D01*
X97187455Y-91463024D01*
X97377636Y-91389348D01*
X97551040Y-91281981D01*
X97701763Y-91144579D01*
X97824672Y-90981821D01*
X97915581Y-90799250D01*
X97971396Y-90603083D01*
X97990214Y-90400000D01*
X97971396Y-90196917D01*
X97915581Y-90000750D01*
X97900273Y-89970008D01*
X97864750Y-89898667D01*
X97824672Y-89818179D01*
X97810359Y-89799226D01*
X97785668Y-89733866D01*
X97800233Y-89665531D01*
X97849430Y-89615919D01*
X97909314Y-89600500D01*
X98400684Y-89600500D01*
X98467723Y-89620185D01*
X98513478Y-89672989D01*
X98523422Y-89742147D01*
X98499638Y-89799227D01*
X98485326Y-89818178D01*
X98394421Y-90000739D01*
X98394416Y-90000752D01*
X98338601Y-90196917D01*
X98319784Y-90399999D01*
X98319784Y-90400000D01*
X98338601Y-90603082D01*
X98394416Y-90799247D01*
X98394421Y-90799260D01*
X98485326Y-90981821D01*
X98608236Y-91144581D01*
X98758957Y-91281980D01*
X98758959Y-91281982D01*
X98858140Y-91343392D01*
X98932362Y-91389348D01*
X99122543Y-91463024D01*
X99323023Y-91500500D01*
X99323025Y-91500500D01*
X99526973Y-91500500D01*
X99526975Y-91500500D01*
X99727455Y-91463024D01*
X99917636Y-91389348D01*
X100091040Y-91281981D01*
X100241763Y-91144579D01*
X100364672Y-90981821D01*
X100455581Y-90799250D01*
X100511396Y-90603083D01*
X100530214Y-90400000D01*
X100511396Y-90196917D01*
X100455581Y-90000750D01*
X100440273Y-89970008D01*
X100404750Y-89898667D01*
X100364672Y-89818179D01*
X100350359Y-89799226D01*
X100325668Y-89733866D01*
X100340233Y-89665531D01*
X100389430Y-89615919D01*
X100449314Y-89600500D01*
X109800931Y-89600500D01*
X109800933Y-89600500D01*
X109822001Y-89593654D01*
X109840917Y-89589112D01*
X109862804Y-89585646D01*
X109882544Y-89575586D01*
X109900511Y-89568144D01*
X109921590Y-89561296D01*
X109939526Y-89548263D01*
X109956088Y-89538114D01*
X109975842Y-89528050D01*
X109991334Y-89512557D01*
X109991341Y-89512552D01*
X110397998Y-89105895D01*
X112520479Y-86983411D01*
X112581800Y-86949928D01*
X112621413Y-86947805D01*
X112646479Y-86950500D01*
X113228520Y-86950499D01*
X113287391Y-86944171D01*
X113420554Y-86894503D01*
X113534331Y-86809331D01*
X113619503Y-86695554D01*
X113669171Y-86562391D01*
X113672722Y-86529364D01*
X113675499Y-86503537D01*
X113675499Y-86503526D01*
X113675500Y-86503521D01*
X113675499Y-85496480D01*
X113669171Y-85437609D01*
X113619503Y-85304446D01*
X113534331Y-85190669D01*
X113442609Y-85122007D01*
X113420556Y-85105498D01*
X113420554Y-85105497D01*
X113287391Y-85055829D01*
X113287389Y-85055828D01*
X113287387Y-85055828D01*
X113228529Y-85049500D01*
X112646482Y-85049500D01*
X112646473Y-85049501D01*
X112587608Y-85055828D01*
X112454445Y-85105497D01*
X112340669Y-85190669D01*
X112255498Y-85304443D01*
X112205828Y-85437612D01*
X112199500Y-85496462D01*
X112199500Y-86120245D01*
X112179815Y-86187284D01*
X112163185Y-86207921D01*
X112025552Y-86345555D01*
X112012180Y-86358927D01*
X111950857Y-86392411D01*
X111881165Y-86387427D01*
X111825232Y-86345555D01*
X111800815Y-86280091D01*
X111800499Y-86271266D01*
X111800499Y-85496480D01*
X111794171Y-85437609D01*
X111744503Y-85304446D01*
X111659331Y-85190669D01*
X111567609Y-85122007D01*
X111545556Y-85105498D01*
X111545554Y-85105497D01*
X111412391Y-85055829D01*
X111412389Y-85055828D01*
X111412387Y-85055828D01*
X111353529Y-85049500D01*
X110771482Y-85049500D01*
X110771471Y-85049501D01*
X110746411Y-85052195D01*
X110677652Y-85039787D01*
X110645479Y-85016586D01*
X110538642Y-84909749D01*
X110505157Y-84848426D01*
X110510141Y-84778734D01*
X110527944Y-84746585D01*
X110580861Y-84677625D01*
X110636330Y-84543709D01*
X110655250Y-84400000D01*
X110636330Y-84256291D01*
X110580861Y-84122375D01*
X110492621Y-84007379D01*
X110377625Y-83919139D01*
X110377624Y-83919138D01*
X110377622Y-83919137D01*
X110243712Y-83863671D01*
X110243710Y-83863670D01*
X110243709Y-83863670D01*
X110171854Y-83854210D01*
X110100001Y-83844750D01*
X110099999Y-83844750D01*
X109956291Y-83863670D01*
X109956287Y-83863671D01*
X109822377Y-83919137D01*
X109707379Y-84007379D01*
X109619137Y-84122377D01*
X109563671Y-84256287D01*
X109563670Y-84256291D01*
X109544750Y-84399999D01*
X109544750Y-84400000D01*
X109563670Y-84543708D01*
X109563671Y-84543712D01*
X109619138Y-84677623D01*
X109619139Y-84677625D01*
X109673875Y-84748957D01*
X109699070Y-84814125D01*
X109699500Y-84824444D01*
X109699500Y-85100929D01*
X109699501Y-85100939D01*
X109706346Y-85122007D01*
X109710887Y-85140918D01*
X109714354Y-85162804D01*
X109714355Y-85162807D01*
X109724412Y-85182545D01*
X109731857Y-85200518D01*
X109738704Y-85221590D01*
X109751726Y-85239514D01*
X109761890Y-85256100D01*
X109771949Y-85275840D01*
X109771950Y-85275842D01*
X109791390Y-85295282D01*
X109791419Y-85295313D01*
X110288181Y-85792074D01*
X110321666Y-85853397D01*
X110324500Y-85879755D01*
X110324500Y-86503517D01*
X110324501Y-86503526D01*
X110330828Y-86562391D01*
X110377082Y-86686399D01*
X110380497Y-86695554D01*
X110465669Y-86809331D01*
X110579446Y-86894503D01*
X110712609Y-86944171D01*
X110771479Y-86950500D01*
X111121246Y-86950499D01*
X111188284Y-86970183D01*
X111234039Y-87022987D01*
X111243983Y-87092146D01*
X111214958Y-87155701D01*
X111208926Y-87162180D01*
X109607926Y-88763181D01*
X109546603Y-88796666D01*
X109520245Y-88799500D01*
X100653401Y-88799500D01*
X100586362Y-88779815D01*
X100540607Y-88727011D01*
X100530663Y-88657853D01*
X100551827Y-88604376D01*
X100598594Y-88537585D01*
X100598598Y-88537579D01*
X100698428Y-88323492D01*
X100698431Y-88323486D01*
X100755635Y-88110000D01*
X99858685Y-88110000D01*
X99884492Y-88069844D01*
X99924999Y-87931889D01*
X99924999Y-87788111D01*
X99884492Y-87650156D01*
X99858685Y-87610000D01*
X100755635Y-87610000D01*
X100755634Y-87609999D01*
X100698431Y-87396513D01*
X100698428Y-87396507D01*
X100598599Y-87182422D01*
X100598598Y-87182420D01*
X100463112Y-86988926D01*
X100463107Y-86988920D01*
X100296081Y-86821894D01*
X100102577Y-86686399D01*
X99888491Y-86586570D01*
X99888485Y-86586567D01*
X99674999Y-86529364D01*
X99674999Y-87424498D01*
X99567314Y-87375320D01*
X99460762Y-87360000D01*
X99389236Y-87360000D01*
X99282684Y-87375320D01*
X99174999Y-87424498D01*
X99174999Y-86529364D01*
X99174998Y-86529364D01*
X98961512Y-86586567D01*
X98961506Y-86586570D01*
X98747421Y-86686399D01*
X98747419Y-86686400D01*
X98553925Y-86821886D01*
X98553919Y-86821891D01*
X98386890Y-86988920D01*
X98386885Y-86988926D01*
X98251399Y-87182420D01*
X98251398Y-87182422D01*
X98151569Y-87396507D01*
X98151567Y-87396511D01*
X98142591Y-87430011D01*
X98106225Y-87489671D01*
X98043378Y-87520199D01*
X97974002Y-87511904D01*
X97920125Y-87467418D01*
X97911816Y-87453188D01*
X97865414Y-87360000D01*
X97824672Y-87278179D01*
X97730166Y-87153033D01*
X97701761Y-87115418D01*
X97551040Y-86978019D01*
X97551038Y-86978017D01*
X97377641Y-86870655D01*
X97377634Y-86870651D01*
X97260586Y-86825307D01*
X97187455Y-86796976D01*
X96986975Y-86759500D01*
X96783023Y-86759500D01*
X96582543Y-86796976D01*
X96582540Y-86796976D01*
X96582540Y-86796977D01*
X96392363Y-86870651D01*
X96392356Y-86870655D01*
X96218959Y-86978017D01*
X96218957Y-86978019D01*
X96068236Y-87115418D01*
X95945326Y-87278178D01*
X95858181Y-87453188D01*
X95810678Y-87504425D01*
X95743015Y-87521846D01*
X95676675Y-87499920D01*
X95632720Y-87445609D01*
X95627406Y-87430008D01*
X95618433Y-87396518D01*
X95618428Y-87396507D01*
X95518599Y-87182422D01*
X95518598Y-87182420D01*
X95383112Y-86988926D01*
X95383107Y-86988920D01*
X95216081Y-86821894D01*
X95022577Y-86686399D01*
X94808491Y-86586570D01*
X94808482Y-86586566D01*
X94762997Y-86574379D01*
X94703336Y-86538014D01*
X94672807Y-86475167D01*
X94681102Y-86405792D01*
X94707404Y-86366929D01*
X98537515Y-82536819D01*
X98598838Y-82503334D01*
X98625196Y-82500500D01*
X104589777Y-82500500D01*
X104589779Y-82500500D01*
X104610847Y-82493654D01*
X104629763Y-82489112D01*
X104651650Y-82485646D01*
X104671390Y-82475586D01*
X104689357Y-82468144D01*
X104710436Y-82461296D01*
X104728372Y-82448263D01*
X104744934Y-82438114D01*
X104764688Y-82428050D01*
X104780180Y-82412557D01*
X104780187Y-82412552D01*
X105192737Y-82000002D01*
X110744723Y-82000002D01*
X110763793Y-82217975D01*
X110763793Y-82217979D01*
X110820422Y-82429322D01*
X110820424Y-82429326D01*
X110820425Y-82429330D01*
X110850420Y-82493655D01*
X110912897Y-82627638D01*
X110912898Y-82627639D01*
X111038402Y-82806877D01*
X111193123Y-82961598D01*
X111372361Y-83087102D01*
X111570670Y-83179575D01*
X111782023Y-83236207D01*
X111964926Y-83252208D01*
X111999998Y-83255277D01*
X112000000Y-83255277D01*
X112000002Y-83255277D01*
X112028254Y-83252805D01*
X112217977Y-83236207D01*
X112429330Y-83179575D01*
X112627639Y-83087102D01*
X112806877Y-82961598D01*
X112961598Y-82806877D01*
X113087102Y-82627639D01*
X113179575Y-82429330D01*
X113236207Y-82217977D01*
X113255233Y-82000500D01*
X113255277Y-82000002D01*
X113255277Y-81999997D01*
X113250359Y-81943784D01*
X113236207Y-81782023D01*
X113181814Y-81579025D01*
X113179577Y-81570677D01*
X113179576Y-81570676D01*
X113179575Y-81570670D01*
X113087102Y-81372362D01*
X113087100Y-81372359D01*
X113087099Y-81372357D01*
X112961599Y-81193124D01*
X112896827Y-81128352D01*
X112806877Y-81038402D01*
X112627639Y-80912898D01*
X112627640Y-80912898D01*
X112627638Y-80912897D01*
X112516976Y-80861295D01*
X112429330Y-80820425D01*
X112429326Y-80820424D01*
X112429322Y-80820422D01*
X112217977Y-80763793D01*
X112000002Y-80744723D01*
X111999998Y-80744723D01*
X111854682Y-80757436D01*
X111782023Y-80763793D01*
X111782020Y-80763793D01*
X111570677Y-80820422D01*
X111570668Y-80820426D01*
X111372361Y-80912898D01*
X111372357Y-80912900D01*
X111193121Y-81038402D01*
X111038402Y-81193121D01*
X110912900Y-81372357D01*
X110912898Y-81372361D01*
X110820426Y-81570668D01*
X110820422Y-81570677D01*
X110763793Y-81782020D01*
X110763793Y-81782023D01*
X110761786Y-81804966D01*
X110744723Y-81999997D01*
X110744723Y-82000002D01*
X105192737Y-82000002D01*
X106005483Y-81187255D01*
X106028050Y-81164688D01*
X106038109Y-81144943D01*
X106048271Y-81128360D01*
X106061296Y-81110436D01*
X106064265Y-81101296D01*
X106094517Y-81051928D01*
X106602046Y-80544400D01*
X106614835Y-80625148D01*
X106672359Y-80738045D01*
X106761955Y-80827641D01*
X106874852Y-80885165D01*
X106955599Y-80897953D01*
X106274526Y-81579025D01*
X106347513Y-81630132D01*
X106347521Y-81630136D01*
X106553668Y-81726264D01*
X106553682Y-81726269D01*
X106773389Y-81785139D01*
X106773400Y-81785141D01*
X106999998Y-81804966D01*
X107000002Y-81804966D01*
X107226599Y-81785141D01*
X107226610Y-81785139D01*
X107446317Y-81726269D01*
X107446331Y-81726264D01*
X107652478Y-81630136D01*
X107725471Y-81579024D01*
X107044400Y-80897953D01*
X107125148Y-80885165D01*
X107238045Y-80827641D01*
X107327641Y-80738045D01*
X107385165Y-80625148D01*
X107397953Y-80544400D01*
X108079024Y-81225471D01*
X108130136Y-81152478D01*
X108226264Y-80946331D01*
X108226269Y-80946317D01*
X108285139Y-80726610D01*
X108285141Y-80726599D01*
X108304966Y-80500002D01*
X108304966Y-80499997D01*
X108285141Y-80273400D01*
X108285139Y-80273389D01*
X108226269Y-80053682D01*
X108226264Y-80053668D01*
X108130136Y-79847521D01*
X108130132Y-79847513D01*
X108079025Y-79774526D01*
X107397953Y-80455598D01*
X107385165Y-80374852D01*
X107327641Y-80261955D01*
X107238045Y-80172359D01*
X107125148Y-80114835D01*
X107044400Y-80102046D01*
X107725472Y-79420974D01*
X107652478Y-79369863D01*
X107446331Y-79273735D01*
X107446317Y-79273730D01*
X107226610Y-79214860D01*
X107226599Y-79214858D01*
X107000002Y-79195034D01*
X106999998Y-79195034D01*
X106773400Y-79214858D01*
X106773389Y-79214860D01*
X106553682Y-79273730D01*
X106553673Y-79273734D01*
X106347516Y-79369866D01*
X106347512Y-79369869D01*
X106337740Y-79376711D01*
X106271533Y-79399036D01*
X106203767Y-79382022D01*
X106155956Y-79331072D01*
X106143280Y-79262362D01*
X106169765Y-79197707D01*
X106178931Y-79187461D01*
X107883070Y-77483321D01*
X107944391Y-77449838D01*
X107954545Y-77448068D01*
X108043709Y-77436330D01*
X108177625Y-77380861D01*
X108292621Y-77292621D01*
X108380861Y-77177625D01*
X108436330Y-77043709D01*
X108455250Y-76900000D01*
X108453560Y-76887167D01*
X108449658Y-76857526D01*
X108436330Y-76756291D01*
X108380861Y-76622375D01*
X108292621Y-76507379D01*
X108177625Y-76419139D01*
X108177624Y-76419138D01*
X108177622Y-76419137D01*
X108043712Y-76363671D01*
X108043710Y-76363670D01*
X108043709Y-76363670D01*
X107951248Y-76351497D01*
X107900001Y-76344750D01*
X107899999Y-76344750D01*
X107756291Y-76363670D01*
X107756287Y-76363671D01*
X107622377Y-76419137D01*
X107507379Y-76507379D01*
X107419137Y-76622377D01*
X107363670Y-76756289D01*
X107351933Y-76845436D01*
X107323666Y-76909332D01*
X107316675Y-76916930D01*
X105394516Y-78839091D01*
X105394513Y-78839093D01*
X105394513Y-78839094D01*
X105383231Y-78850376D01*
X105371948Y-78861659D01*
X105371948Y-78861660D01*
X105361891Y-78881397D01*
X105351731Y-78897977D01*
X105338706Y-78915905D01*
X105338703Y-78915910D01*
X105331854Y-78936988D01*
X105324413Y-78954952D01*
X105314354Y-78974695D01*
X105310887Y-78996582D01*
X105306347Y-79015491D01*
X105299500Y-79036567D01*
X105299500Y-79534984D01*
X105279815Y-79602023D01*
X105227011Y-79647778D01*
X105157853Y-79657722D01*
X105096836Y-79630838D01*
X105086453Y-79622317D01*
X105086451Y-79622316D01*
X105086450Y-79622315D01*
X104903954Y-79524768D01*
X104705934Y-79464700D01*
X104705932Y-79464699D01*
X104705934Y-79464699D01*
X104500000Y-79444417D01*
X104294067Y-79464699D01*
X104096043Y-79524769D01*
X104002621Y-79574705D01*
X103913550Y-79622315D01*
X103913548Y-79622316D01*
X103913547Y-79622317D01*
X103753589Y-79753589D01*
X103622317Y-79913547D01*
X103622315Y-79913550D01*
X103602688Y-79950270D01*
X103524769Y-80096043D01*
X103524769Y-80096044D01*
X103524768Y-80096046D01*
X103518374Y-80117125D01*
X103464699Y-80294067D01*
X103444417Y-80500000D01*
X103464699Y-80705932D01*
X103482324Y-80764033D01*
X103524768Y-80903954D01*
X103622315Y-81086450D01*
X103656703Y-81128352D01*
X103753589Y-81246410D01*
X103830260Y-81309331D01*
X103913550Y-81377685D01*
X104079040Y-81466142D01*
X104128884Y-81515105D01*
X104144344Y-81583243D01*
X104120512Y-81648922D01*
X104064954Y-81691291D01*
X104020586Y-81699500D01*
X100853754Y-81699500D01*
X100786715Y-81679815D01*
X100740960Y-81627011D01*
X100731016Y-81557853D01*
X100760041Y-81494297D01*
X100766063Y-81487829D01*
X100770470Y-81483421D01*
X100831787Y-81449931D01*
X100871413Y-81447805D01*
X100896479Y-81450500D01*
X101478520Y-81450499D01*
X101537391Y-81444171D01*
X101670554Y-81394503D01*
X101784331Y-81309331D01*
X101869503Y-81195554D01*
X101919171Y-81062391D01*
X101924562Y-81012248D01*
X101925499Y-81003537D01*
X101925499Y-81003526D01*
X101925500Y-81003521D01*
X101925499Y-80379753D01*
X101945183Y-80312715D01*
X101961813Y-80292078D01*
X105345754Y-76908139D01*
X105407077Y-76874654D01*
X105433435Y-76871820D01*
X106583496Y-76871820D01*
X106583497Y-76871819D01*
X106656560Y-76857286D01*
X106739421Y-76801921D01*
X106794786Y-76719060D01*
X106809320Y-76645994D01*
X106809320Y-76145820D01*
X106829005Y-76078781D01*
X106881809Y-76033026D01*
X106933320Y-76021820D01*
X112904065Y-76021820D01*
X112971104Y-76041505D01*
X112991746Y-76058139D01*
X118213181Y-81279574D01*
X118246666Y-81340897D01*
X118249500Y-81367255D01*
X118249500Y-83024678D01*
X118264032Y-83097735D01*
X118264033Y-83097739D01*
X118264034Y-83097740D01*
X118319399Y-83180601D01*
X118402260Y-83235966D01*
X118402264Y-83235967D01*
X118475321Y-83250499D01*
X118475324Y-83250500D01*
X118475326Y-83250500D01*
X120524676Y-83250500D01*
X120524677Y-83250499D01*
X120597740Y-83235966D01*
X120680601Y-83180601D01*
X120735966Y-83097740D01*
X120750500Y-83024674D01*
X120750500Y-80975326D01*
X120750500Y-80975323D01*
X120750499Y-80975321D01*
X120735967Y-80902264D01*
X120735966Y-80902260D01*
X120730216Y-80893655D01*
X120680601Y-80819399D01*
X120597740Y-80764034D01*
X120597739Y-80764033D01*
X120597735Y-80764032D01*
X120524677Y-80749500D01*
X120524674Y-80749500D01*
X118867255Y-80749500D01*
X118800216Y-80729815D01*
X118779574Y-80713181D01*
X113379133Y-75312739D01*
X113379102Y-75312710D01*
X113359662Y-75293270D01*
X113359660Y-75293269D01*
X113339920Y-75283210D01*
X113323334Y-75273046D01*
X113305410Y-75260024D01*
X113305411Y-75260024D01*
X113284338Y-75253177D01*
X113266365Y-75245732D01*
X113246627Y-75235675D01*
X113246624Y-75235674D01*
X113224738Y-75232207D01*
X113205827Y-75227666D01*
X113184759Y-75220821D01*
X113184754Y-75220820D01*
X113184753Y-75220820D01*
X113184749Y-75220820D01*
X106933320Y-75220820D01*
X106866281Y-75201135D01*
X106820526Y-75148331D01*
X106809320Y-75096820D01*
X106809320Y-74596643D01*
X106809319Y-74596641D01*
X106794787Y-74523584D01*
X106794786Y-74523580D01*
X106793319Y-74521385D01*
X106739421Y-74440719D01*
X106656560Y-74385354D01*
X106656559Y-74385353D01*
X106656555Y-74385352D01*
X106583497Y-74370820D01*
X106583494Y-74370820D01*
X104534146Y-74370820D01*
X104534143Y-74370820D01*
X104461084Y-74385352D01*
X104461080Y-74385353D01*
X104378219Y-74440719D01*
X104322853Y-74523580D01*
X104322852Y-74523584D01*
X104308320Y-74596641D01*
X104308320Y-74596646D01*
X104308320Y-76645994D01*
X104308321Y-76645998D01*
X104323062Y-76720109D01*
X104316834Y-76789700D01*
X104289125Y-76831980D01*
X101604520Y-79516585D01*
X101543197Y-79550070D01*
X101503586Y-79552194D01*
X101478523Y-79549500D01*
X100896482Y-79549500D01*
X100896473Y-79549501D01*
X100837608Y-79555828D01*
X100704445Y-79605497D01*
X100590669Y-79690669D01*
X100505498Y-79804443D01*
X100455828Y-79937612D01*
X100449500Y-79996462D01*
X100449500Y-80620244D01*
X100429815Y-80687283D01*
X100413185Y-80707920D01*
X100334361Y-80786745D01*
X100262180Y-80858926D01*
X100200857Y-80892410D01*
X100131165Y-80887426D01*
X100075232Y-80845554D01*
X100050815Y-80780090D01*
X100050499Y-80771262D01*
X100050499Y-80379052D01*
X100070184Y-80312014D01*
X100074178Y-80306172D01*
X100078047Y-80300845D01*
X100078050Y-80300842D01*
X100088109Y-80281097D01*
X100098271Y-80264514D01*
X100111296Y-80246590D01*
X100118141Y-80225522D01*
X100125586Y-80207545D01*
X100135646Y-80187804D01*
X100139112Y-80165915D01*
X100143652Y-80147001D01*
X100150499Y-80125933D01*
X100150499Y-80099154D01*
X100150500Y-80099129D01*
X100150500Y-75667254D01*
X100170185Y-75600215D01*
X100186814Y-75579578D01*
X106583070Y-69183321D01*
X106644391Y-69149838D01*
X106654545Y-69148068D01*
X106743709Y-69136330D01*
X106877625Y-69080861D01*
X106992621Y-68992621D01*
X107080861Y-68877625D01*
X107136330Y-68743709D01*
X107155250Y-68600000D01*
X107153560Y-68587167D01*
X107145566Y-68526446D01*
X107136330Y-68456291D01*
X107080861Y-68322375D01*
X106992621Y-68207379D01*
X106877625Y-68119139D01*
X106877624Y-68119138D01*
X106877622Y-68119137D01*
X106743712Y-68063671D01*
X106743710Y-68063670D01*
X106743709Y-68063670D01*
X106671854Y-68054210D01*
X106600001Y-68044750D01*
X106599998Y-68044750D01*
X106526445Y-68054433D01*
X106457409Y-68043667D01*
X106405154Y-67997287D01*
X106386269Y-67930018D01*
X106406750Y-67863217D01*
X106422575Y-67843817D01*
X107605484Y-66660909D01*
X107605484Y-66660908D01*
X107612552Y-66653841D01*
X107612557Y-66653834D01*
X107628050Y-66638342D01*
X107638109Y-66618598D01*
X107648272Y-66602015D01*
X107661297Y-66584089D01*
X107668144Y-66563014D01*
X107675589Y-66545040D01*
X107685646Y-66525304D01*
X107689111Y-66503421D01*
X107693654Y-66484502D01*
X107693789Y-66484088D01*
X107700500Y-66463433D01*
X107700500Y-66336567D01*
X107700500Y-62000002D01*
X110744723Y-62000002D01*
X110763793Y-62217975D01*
X110763793Y-62217979D01*
X110820422Y-62429322D01*
X110820424Y-62429326D01*
X110820425Y-62429330D01*
X110866661Y-62528484D01*
X110912897Y-62627638D01*
X110912898Y-62627639D01*
X111038402Y-62806877D01*
X111193123Y-62961598D01*
X111372361Y-63087102D01*
X111570670Y-63179575D01*
X111782023Y-63236207D01*
X111964926Y-63252208D01*
X111999998Y-63255277D01*
X112000000Y-63255277D01*
X112000002Y-63255277D01*
X112028254Y-63252805D01*
X112217977Y-63236207D01*
X112429330Y-63179575D01*
X112627639Y-63087102D01*
X112806877Y-62961598D01*
X112961598Y-62806877D01*
X113087102Y-62627639D01*
X113179575Y-62429330D01*
X113236207Y-62217977D01*
X113255277Y-62000002D01*
X118244723Y-62000002D01*
X118263793Y-62217975D01*
X118263793Y-62217979D01*
X118320422Y-62429322D01*
X118320424Y-62429326D01*
X118320425Y-62429330D01*
X118366661Y-62528484D01*
X118412897Y-62627638D01*
X118412898Y-62627639D01*
X118538402Y-62806877D01*
X118693123Y-62961598D01*
X118872361Y-63087102D01*
X119070670Y-63179575D01*
X119282023Y-63236207D01*
X119464926Y-63252208D01*
X119499998Y-63255277D01*
X119500000Y-63255277D01*
X119500002Y-63255277D01*
X119528254Y-63252805D01*
X119717977Y-63236207D01*
X119929330Y-63179575D01*
X120127639Y-63087102D01*
X120306877Y-62961598D01*
X120461598Y-62806877D01*
X120587102Y-62627639D01*
X120679575Y-62429330D01*
X120736207Y-62217977D01*
X120755277Y-62000000D01*
X120736207Y-61782023D01*
X120682942Y-61583234D01*
X120679577Y-61570677D01*
X120679576Y-61570676D01*
X120679575Y-61570670D01*
X120587102Y-61372362D01*
X120587100Y-61372359D01*
X120587099Y-61372357D01*
X120461599Y-61193124D01*
X120455475Y-61187000D01*
X120306877Y-61038402D01*
X120127639Y-60912898D01*
X120127640Y-60912898D01*
X120127638Y-60912897D01*
X120028484Y-60866661D01*
X119929330Y-60820425D01*
X119929326Y-60820424D01*
X119929322Y-60820422D01*
X119717977Y-60763793D01*
X119500002Y-60744723D01*
X119499998Y-60744723D01*
X119354682Y-60757436D01*
X119282023Y-60763793D01*
X119282020Y-60763793D01*
X119070677Y-60820422D01*
X119070668Y-60820426D01*
X118872361Y-60912898D01*
X118872357Y-60912900D01*
X118693121Y-61038402D01*
X118538402Y-61193121D01*
X118412900Y-61372357D01*
X118412898Y-61372361D01*
X118368381Y-61467829D01*
X118328758Y-61552801D01*
X118320426Y-61570668D01*
X118320422Y-61570677D01*
X118263793Y-61782020D01*
X118263793Y-61782024D01*
X118244723Y-61999997D01*
X118244723Y-62000002D01*
X113255277Y-62000002D01*
X113255277Y-62000000D01*
X113236207Y-61782023D01*
X113182942Y-61583234D01*
X113179577Y-61570677D01*
X113179576Y-61570676D01*
X113179575Y-61570670D01*
X113087102Y-61372362D01*
X113087100Y-61372359D01*
X113087099Y-61372357D01*
X112961599Y-61193124D01*
X112955475Y-61187000D01*
X112806877Y-61038402D01*
X112627639Y-60912898D01*
X112627640Y-60912898D01*
X112627638Y-60912897D01*
X112528484Y-60866661D01*
X112429330Y-60820425D01*
X112429326Y-60820424D01*
X112429322Y-60820422D01*
X112217977Y-60763793D01*
X112000002Y-60744723D01*
X111999998Y-60744723D01*
X111854682Y-60757436D01*
X111782023Y-60763793D01*
X111782020Y-60763793D01*
X111570677Y-60820422D01*
X111570668Y-60820426D01*
X111372361Y-60912898D01*
X111372357Y-60912900D01*
X111193121Y-61038402D01*
X111038402Y-61193121D01*
X110912900Y-61372357D01*
X110912898Y-61372361D01*
X110868381Y-61467829D01*
X110828758Y-61552801D01*
X110820426Y-61570668D01*
X110820422Y-61570677D01*
X110763793Y-61782020D01*
X110763793Y-61782024D01*
X110744723Y-61999997D01*
X110744723Y-62000002D01*
X107700500Y-62000002D01*
X107700500Y-57000000D01*
X110744723Y-57000000D01*
X110757295Y-57143708D01*
X110763793Y-57217975D01*
X110763793Y-57217979D01*
X110820422Y-57429322D01*
X110820424Y-57429326D01*
X110820425Y-57429330D01*
X110844455Y-57480862D01*
X110912897Y-57627638D01*
X110912898Y-57627639D01*
X111038402Y-57806877D01*
X111193123Y-57961598D01*
X111372361Y-58087102D01*
X111570670Y-58179575D01*
X111782023Y-58236207D01*
X111964926Y-58252208D01*
X111999998Y-58255277D01*
X112000000Y-58255277D01*
X112000002Y-58255277D01*
X112028254Y-58252805D01*
X112217977Y-58236207D01*
X112429330Y-58179575D01*
X112627639Y-58087102D01*
X112806877Y-57961598D01*
X112961598Y-57806877D01*
X113087102Y-57627639D01*
X113179575Y-57429330D01*
X113236207Y-57217977D01*
X113255277Y-57000000D01*
X118244723Y-57000000D01*
X118257295Y-57143708D01*
X118263793Y-57217975D01*
X118263793Y-57217979D01*
X118320422Y-57429322D01*
X118320424Y-57429326D01*
X118320425Y-57429330D01*
X118344455Y-57480862D01*
X118412897Y-57627638D01*
X118412898Y-57627639D01*
X118538402Y-57806877D01*
X118693123Y-57961598D01*
X118872361Y-58087102D01*
X119070670Y-58179575D01*
X119282023Y-58236207D01*
X119464926Y-58252208D01*
X119499998Y-58255277D01*
X119500000Y-58255277D01*
X119500002Y-58255277D01*
X119528254Y-58252805D01*
X119717977Y-58236207D01*
X119929330Y-58179575D01*
X120127639Y-58087102D01*
X120306877Y-57961598D01*
X120461598Y-57806877D01*
X120587102Y-57627639D01*
X120679575Y-57429330D01*
X120736207Y-57217977D01*
X120755277Y-57000000D01*
X120736207Y-56782023D01*
X120701110Y-56651039D01*
X120679577Y-56570677D01*
X120679576Y-56570676D01*
X120679575Y-56570670D01*
X120587102Y-56372362D01*
X120587100Y-56372359D01*
X120587099Y-56372357D01*
X120461599Y-56193124D01*
X120408965Y-56140490D01*
X120306877Y-56038402D01*
X120127639Y-55912898D01*
X120127640Y-55912898D01*
X120127638Y-55912897D01*
X120028484Y-55866661D01*
X119929330Y-55820425D01*
X119929326Y-55820424D01*
X119929322Y-55820422D01*
X119717977Y-55763793D01*
X119500002Y-55744723D01*
X119499998Y-55744723D01*
X119354682Y-55757436D01*
X119282023Y-55763793D01*
X119282020Y-55763793D01*
X119070677Y-55820422D01*
X119070668Y-55820426D01*
X118872361Y-55912898D01*
X118872357Y-55912900D01*
X118693121Y-56038402D01*
X118538402Y-56193121D01*
X118412900Y-56372357D01*
X118412898Y-56372361D01*
X118320426Y-56570668D01*
X118320422Y-56570677D01*
X118263793Y-56782020D01*
X118263793Y-56782024D01*
X118247686Y-56966136D01*
X118244723Y-57000000D01*
X113255277Y-57000000D01*
X113236207Y-56782023D01*
X113201110Y-56651039D01*
X113179577Y-56570677D01*
X113179576Y-56570676D01*
X113179575Y-56570670D01*
X113087102Y-56372362D01*
X113087100Y-56372359D01*
X113087099Y-56372357D01*
X112961599Y-56193124D01*
X112908965Y-56140490D01*
X112806877Y-56038402D01*
X112627639Y-55912898D01*
X112627640Y-55912898D01*
X112627638Y-55912897D01*
X112528484Y-55866661D01*
X112429330Y-55820425D01*
X112429326Y-55820424D01*
X112429322Y-55820422D01*
X112217977Y-55763793D01*
X112000002Y-55744723D01*
X111999998Y-55744723D01*
X111854682Y-55757436D01*
X111782023Y-55763793D01*
X111782020Y-55763793D01*
X111570677Y-55820422D01*
X111570668Y-55820426D01*
X111372361Y-55912898D01*
X111372357Y-55912900D01*
X111193121Y-56038402D01*
X111038402Y-56193121D01*
X110912900Y-56372357D01*
X110912898Y-56372361D01*
X110820426Y-56570668D01*
X110820422Y-56570677D01*
X110763793Y-56782020D01*
X110763793Y-56782024D01*
X110747686Y-56966136D01*
X110744723Y-57000000D01*
X107700500Y-57000000D01*
X107700500Y-53000000D01*
X109754901Y-53000000D01*
X109773252Y-53186331D01*
X109773253Y-53186333D01*
X109827604Y-53365502D01*
X109915862Y-53530623D01*
X109915864Y-53530626D01*
X110034642Y-53675357D01*
X110179373Y-53794135D01*
X110179376Y-53794137D01*
X110344497Y-53882395D01*
X110344499Y-53882396D01*
X110523666Y-53936746D01*
X110523668Y-53936747D01*
X110540374Y-53938392D01*
X110710000Y-53955099D01*
X110896331Y-53936747D01*
X111075501Y-53882396D01*
X111240625Y-53794136D01*
X111385357Y-53675357D01*
X111504136Y-53530625D01*
X111592396Y-53365501D01*
X111646747Y-53186331D01*
X111665099Y-53000000D01*
X112294901Y-53000000D01*
X112313252Y-53186331D01*
X112313253Y-53186333D01*
X112367604Y-53365502D01*
X112455862Y-53530623D01*
X112455864Y-53530626D01*
X112574642Y-53675357D01*
X112719373Y-53794135D01*
X112719376Y-53794137D01*
X112884497Y-53882395D01*
X112884499Y-53882396D01*
X113063666Y-53936746D01*
X113063668Y-53936747D01*
X113080374Y-53938392D01*
X113250000Y-53955099D01*
X113436331Y-53936747D01*
X113615501Y-53882396D01*
X113780625Y-53794136D01*
X113925357Y-53675357D01*
X114044136Y-53530625D01*
X114132396Y-53365501D01*
X114186747Y-53186331D01*
X114205099Y-53000000D01*
X114186747Y-52813669D01*
X114132396Y-52634499D01*
X114122451Y-52615893D01*
X114044137Y-52469376D01*
X114044135Y-52469373D01*
X113925357Y-52324642D01*
X113780626Y-52205864D01*
X113780623Y-52205862D01*
X113615502Y-52117604D01*
X113436333Y-52063253D01*
X113436331Y-52063252D01*
X113250000Y-52044901D01*
X113063668Y-52063252D01*
X113063666Y-52063253D01*
X112884497Y-52117604D01*
X112719376Y-52205862D01*
X112719373Y-52205864D01*
X112574642Y-52324642D01*
X112455864Y-52469373D01*
X112455862Y-52469376D01*
X112367604Y-52634497D01*
X112313253Y-52813666D01*
X112313252Y-52813668D01*
X112294901Y-53000000D01*
X111665099Y-53000000D01*
X111646747Y-52813669D01*
X111592396Y-52634499D01*
X111582451Y-52615893D01*
X111504137Y-52469376D01*
X111504135Y-52469373D01*
X111385357Y-52324642D01*
X111240626Y-52205864D01*
X111240623Y-52205862D01*
X111075502Y-52117604D01*
X110896333Y-52063253D01*
X110896331Y-52063252D01*
X110710000Y-52044901D01*
X110523668Y-52063252D01*
X110523666Y-52063253D01*
X110344497Y-52117604D01*
X110179376Y-52205862D01*
X110179373Y-52205864D01*
X110034642Y-52324642D01*
X109915864Y-52469373D01*
X109915862Y-52469376D01*
X109827604Y-52634497D01*
X109773253Y-52813666D01*
X109773252Y-52813668D01*
X109754901Y-53000000D01*
X107700500Y-53000000D01*
X107700500Y-52330981D01*
X107700500Y-52326580D01*
X107700499Y-52326565D01*
X107700499Y-52299068D01*
X107700499Y-52299067D01*
X107693653Y-52278001D01*
X107689111Y-52259080D01*
X107685646Y-52237196D01*
X107675586Y-52217452D01*
X107668140Y-52199474D01*
X107661297Y-52178413D01*
X107661296Y-52178412D01*
X107661296Y-52178410D01*
X107648269Y-52160481D01*
X107638104Y-52143892D01*
X107628050Y-52124158D01*
X107538342Y-52034450D01*
X106741322Y-51237429D01*
X106707837Y-51176106D01*
X106712821Y-51106414D01*
X106716612Y-51097362D01*
X106738395Y-51050650D01*
X106795027Y-50839297D01*
X106814097Y-50621320D01*
X106795027Y-50403343D01*
X106738395Y-50191990D01*
X106645922Y-49993682D01*
X106645920Y-49993679D01*
X106645919Y-49993677D01*
X106520419Y-49814444D01*
X106476323Y-49770348D01*
X106365697Y-49659722D01*
X106227798Y-49563164D01*
X106186458Y-49534217D01*
X106048078Y-49469690D01*
X105988150Y-49441745D01*
X105988146Y-49441744D01*
X105988142Y-49441742D01*
X105776797Y-49385113D01*
X105558822Y-49366043D01*
X105558818Y-49366043D01*
X105413502Y-49378756D01*
X105340843Y-49385113D01*
X105340840Y-49385113D01*
X105129497Y-49441742D01*
X105129488Y-49441746D01*
X104931181Y-49534218D01*
X104931177Y-49534220D01*
X104751941Y-49659722D01*
X104597222Y-49814441D01*
X104471720Y-49993677D01*
X104471718Y-49993681D01*
X104379246Y-50191988D01*
X104379242Y-50191997D01*
X104322613Y-50403340D01*
X104322613Y-50403344D01*
X104303543Y-50621317D01*
X104303543Y-50621322D01*
X104322613Y-50839295D01*
X104322613Y-50839299D01*
X104379242Y-51050642D01*
X104379244Y-51050646D01*
X104379245Y-51050650D01*
X104390992Y-51075841D01*
X104401018Y-51097342D01*
X104411510Y-51166420D01*
X104382990Y-51230204D01*
X104376317Y-51237428D01*
X102894516Y-52719231D01*
X102894513Y-52719233D01*
X102894513Y-52719234D01*
X102883231Y-52730516D01*
X102871948Y-52741799D01*
X102861893Y-52761534D01*
X102851731Y-52778117D01*
X102838706Y-52796044D01*
X102838703Y-52796050D01*
X102831854Y-52817128D01*
X102824413Y-52835092D01*
X102814354Y-52854835D01*
X102810887Y-52876722D01*
X102806347Y-52895631D01*
X102799500Y-52916707D01*
X102799500Y-56375553D01*
X102779815Y-56442592D01*
X102773876Y-56451039D01*
X102719139Y-56522374D01*
X102719138Y-56522376D01*
X102663671Y-56656287D01*
X102663670Y-56656291D01*
X102644750Y-56800000D01*
X102652160Y-56856287D01*
X102663670Y-56943708D01*
X102663671Y-56943712D01*
X102719137Y-57077622D01*
X102719138Y-57077624D01*
X102719139Y-57077625D01*
X102807379Y-57192621D01*
X102922375Y-57280861D01*
X103056291Y-57336330D01*
X103183280Y-57353048D01*
X103199999Y-57355250D01*
X103200000Y-57355250D01*
X103200001Y-57355250D01*
X103214977Y-57353278D01*
X103343709Y-57336330D01*
X103477625Y-57280861D01*
X103592621Y-57192621D01*
X103680861Y-57077625D01*
X103736330Y-56943709D01*
X103755250Y-56800000D01*
X103736330Y-56656291D01*
X103680861Y-56522375D01*
X103672530Y-56511518D01*
X103626124Y-56451039D01*
X103600930Y-56385869D01*
X103600500Y-56375553D01*
X103600500Y-53197394D01*
X103620185Y-53130355D01*
X103636819Y-53109713D01*
X104277159Y-52469373D01*
X104942711Y-51803820D01*
X105004032Y-51770337D01*
X105073724Y-51775321D01*
X105082787Y-51779117D01*
X105129490Y-51800895D01*
X105129496Y-51800896D01*
X105129497Y-51800897D01*
X105160184Y-51809119D01*
X105340843Y-51857527D01*
X105523746Y-51873528D01*
X105558818Y-51876597D01*
X105558820Y-51876597D01*
X105558822Y-51876597D01*
X105587074Y-51874125D01*
X105776797Y-51857527D01*
X105988150Y-51800895D01*
X106034845Y-51779120D01*
X106103920Y-51768629D01*
X106167704Y-51797148D01*
X106174929Y-51803822D01*
X106863181Y-52492073D01*
X106896666Y-52553396D01*
X106899500Y-52579754D01*
X106899500Y-54978154D01*
X106879815Y-55045193D01*
X106827011Y-55090948D01*
X106757853Y-55100892D01*
X106694297Y-55071867D01*
X106663118Y-55030559D01*
X106645922Y-54993682D01*
X106645919Y-54993678D01*
X106645919Y-54993677D01*
X106520419Y-54814444D01*
X106454676Y-54748701D01*
X106365697Y-54659722D01*
X106186459Y-54534218D01*
X106186460Y-54534218D01*
X106186458Y-54534217D01*
X106087304Y-54487981D01*
X105988150Y-54441745D01*
X105988146Y-54441744D01*
X105988142Y-54441742D01*
X105776797Y-54385113D01*
X105558822Y-54366043D01*
X105558818Y-54366043D01*
X105413502Y-54378756D01*
X105340843Y-54385113D01*
X105340840Y-54385113D01*
X105129497Y-54441742D01*
X105129488Y-54441746D01*
X104931181Y-54534218D01*
X104931177Y-54534220D01*
X104751941Y-54659722D01*
X104597222Y-54814441D01*
X104471720Y-54993677D01*
X104471718Y-54993681D01*
X104379246Y-55191988D01*
X104379242Y-55191997D01*
X104322613Y-55403340D01*
X104322613Y-55403344D01*
X104303543Y-55621317D01*
X104303543Y-55621322D01*
X104322613Y-55839295D01*
X104322613Y-55839299D01*
X104379242Y-56050642D01*
X104379244Y-56050646D01*
X104379245Y-56050650D01*
X104385805Y-56064718D01*
X104471717Y-56248958D01*
X104471718Y-56248959D01*
X104597222Y-56428197D01*
X104751943Y-56582918D01*
X104931181Y-56708422D01*
X105086725Y-56780953D01*
X105139164Y-56827125D01*
X105158320Y-56893335D01*
X105158320Y-65423924D01*
X105138635Y-65490963D01*
X105122001Y-65511605D01*
X100516930Y-70116675D01*
X100455607Y-70150160D01*
X100445436Y-70151933D01*
X100356289Y-70163670D01*
X100222377Y-70219137D01*
X100107379Y-70307379D01*
X100019137Y-70422377D01*
X99963671Y-70556287D01*
X99963670Y-70556291D01*
X99945979Y-70690668D01*
X99944750Y-70700000D01*
X99957915Y-70800000D01*
X99963670Y-70843708D01*
X99963671Y-70843712D01*
X100019137Y-70977622D01*
X100019138Y-70977624D01*
X100019139Y-70977625D01*
X100107379Y-71092621D01*
X100222375Y-71180861D01*
X100222376Y-71180861D01*
X100222377Y-71180862D01*
X100255508Y-71194585D01*
X100356291Y-71236330D01*
X100483280Y-71253048D01*
X100499999Y-71255250D01*
X100500000Y-71255250D01*
X100500001Y-71255250D01*
X100514977Y-71253278D01*
X100643709Y-71236330D01*
X100777625Y-71180861D01*
X100892621Y-71092621D01*
X100980861Y-70977625D01*
X101036330Y-70843709D01*
X101048066Y-70754562D01*
X101076331Y-70690668D01*
X101083311Y-70683080D01*
X105864304Y-65902089D01*
X105864304Y-65902088D01*
X105871372Y-65895021D01*
X105871377Y-65895014D01*
X105886870Y-65879522D01*
X105896929Y-65859778D01*
X105907089Y-65843198D01*
X105920116Y-65825269D01*
X105926962Y-65804197D01*
X105934408Y-65786223D01*
X105936861Y-65781409D01*
X105944466Y-65766484D01*
X105947932Y-65744596D01*
X105952471Y-65725690D01*
X105959320Y-65704613D01*
X105959320Y-65577747D01*
X105959320Y-56893335D01*
X105979005Y-56826296D01*
X106030914Y-56780953D01*
X106186459Y-56708422D01*
X106365697Y-56582918D01*
X106520418Y-56428197D01*
X106645922Y-56248959D01*
X106663118Y-56212081D01*
X106709290Y-56159642D01*
X106776483Y-56140490D01*
X106843365Y-56160705D01*
X106888699Y-56213871D01*
X106899500Y-56264486D01*
X106899500Y-66182744D01*
X106879815Y-66249783D01*
X106863181Y-66270425D01*
X100416930Y-72716675D01*
X100355607Y-72750160D01*
X100345436Y-72751933D01*
X100256289Y-72763670D01*
X100122377Y-72819137D01*
X100007379Y-72907379D01*
X99919137Y-73022377D01*
X99863671Y-73156287D01*
X99863670Y-73156291D01*
X99844750Y-73299999D01*
X99844750Y-73300000D01*
X99863670Y-73443708D01*
X99863671Y-73443712D01*
X99919137Y-73577622D01*
X99919138Y-73577624D01*
X99919139Y-73577625D01*
X100007379Y-73692621D01*
X100122375Y-73780861D01*
X100256291Y-73836330D01*
X100383280Y-73853048D01*
X100399999Y-73855250D01*
X100400000Y-73855250D01*
X100400001Y-73855250D01*
X100418777Y-73852777D01*
X100473554Y-73845566D01*
X100542588Y-73856331D01*
X100594844Y-73902711D01*
X100613730Y-73969980D01*
X100593250Y-74036780D01*
X100577420Y-74056186D01*
X99444516Y-75189091D01*
X99428244Y-75205363D01*
X99366921Y-75238848D01*
X99297229Y-75233864D01*
X99241296Y-75191992D01*
X99228181Y-75170087D01*
X99145922Y-74993682D01*
X99145920Y-74993679D01*
X99145919Y-74993677D01*
X99020419Y-74814444D01*
X98974456Y-74768481D01*
X98865697Y-74659722D01*
X98727798Y-74563164D01*
X98686458Y-74534217D01*
X98587304Y-74487981D01*
X98488150Y-74441745D01*
X98488146Y-74441744D01*
X98488142Y-74441742D01*
X98276797Y-74385113D01*
X98058822Y-74366043D01*
X98058818Y-74366043D01*
X97913502Y-74378756D01*
X97840843Y-74385113D01*
X97840840Y-74385113D01*
X97629497Y-74441742D01*
X97629488Y-74441746D01*
X97431181Y-74534218D01*
X97431177Y-74534220D01*
X97251941Y-74659722D01*
X97097222Y-74814441D01*
X96971720Y-74993677D01*
X96971718Y-74993681D01*
X96879246Y-75191988D01*
X96879242Y-75191997D01*
X96822613Y-75403340D01*
X96822613Y-75403344D01*
X96803543Y-75621317D01*
X96803543Y-75621322D01*
X96822613Y-75839295D01*
X96822613Y-75839299D01*
X96879242Y-76050642D01*
X96879244Y-76050646D01*
X96879245Y-76050650D01*
X96925481Y-76149804D01*
X96971717Y-76248958D01*
X96971718Y-76248959D01*
X97097222Y-76428197D01*
X97251943Y-76582918D01*
X97431181Y-76708422D01*
X97629490Y-76800895D01*
X97840843Y-76857527D01*
X98023746Y-76873528D01*
X98058818Y-76876597D01*
X98058820Y-76876597D01*
X98058822Y-76876597D01*
X98087074Y-76874125D01*
X98276797Y-76857527D01*
X98488150Y-76800895D01*
X98686459Y-76708422D01*
X98865697Y-76582918D01*
X99020418Y-76428197D01*
X99123926Y-76280371D01*
X99178502Y-76236748D01*
X99248001Y-76229556D01*
X99310355Y-76261078D01*
X99345769Y-76321308D01*
X99349500Y-76351497D01*
X99349500Y-79425500D01*
X99329815Y-79492539D01*
X99277011Y-79538294D01*
X99225501Y-79549500D01*
X99021483Y-79549500D01*
X99021473Y-79549501D01*
X98962608Y-79555828D01*
X98829445Y-79605497D01*
X98715669Y-79690669D01*
X98630498Y-79804443D01*
X98580828Y-79937612D01*
X98574500Y-79996462D01*
X98574500Y-81003517D01*
X98574501Y-81003528D01*
X98580813Y-81062249D01*
X98568405Y-81131008D01*
X98520793Y-81182144D01*
X98457523Y-81199500D01*
X98067254Y-81199500D01*
X98000215Y-81179815D01*
X97979573Y-81163181D01*
X95864997Y-79048605D01*
X95831512Y-78987282D01*
X95836496Y-78917590D01*
X95878368Y-78861657D01*
X95943832Y-78837240D01*
X95968861Y-78837984D01*
X96059777Y-78849954D01*
X96099999Y-78855250D01*
X96100000Y-78855250D01*
X96100001Y-78855250D01*
X96114977Y-78853278D01*
X96243709Y-78836330D01*
X96377625Y-78780861D01*
X96492621Y-78692621D01*
X96580861Y-78577625D01*
X96636330Y-78443709D01*
X96655250Y-78300000D01*
X96636330Y-78156291D01*
X96580861Y-78022375D01*
X96552849Y-77985869D01*
X96526124Y-77951039D01*
X96500930Y-77885869D01*
X96500500Y-77875553D01*
X96500500Y-72417254D01*
X96520185Y-72350215D01*
X96536814Y-72329578D01*
X102283070Y-66583321D01*
X102344391Y-66549838D01*
X102354545Y-66548068D01*
X102443709Y-66536330D01*
X102577625Y-66480861D01*
X102692621Y-66392621D01*
X102780861Y-66277625D01*
X102836330Y-66143709D01*
X102855250Y-66000000D01*
X102853560Y-65987167D01*
X102847839Y-65943708D01*
X102836330Y-65856291D01*
X102786075Y-65734963D01*
X102780862Y-65722377D01*
X102780861Y-65722376D01*
X102780861Y-65722375D01*
X102692621Y-65607379D01*
X102577625Y-65519139D01*
X102577624Y-65519138D01*
X102577622Y-65519137D01*
X102443712Y-65463671D01*
X102443710Y-65463670D01*
X102443709Y-65463670D01*
X102371854Y-65454210D01*
X102300001Y-65444750D01*
X102299999Y-65444750D01*
X102156291Y-65463670D01*
X102156287Y-65463671D01*
X102022377Y-65519137D01*
X101907379Y-65607379D01*
X101819137Y-65722377D01*
X101763670Y-65856289D01*
X101751933Y-65945436D01*
X101723666Y-66009332D01*
X101716675Y-66016930D01*
X95794516Y-71939091D01*
X95794513Y-71939093D01*
X95794513Y-71939094D01*
X95783231Y-71950376D01*
X95771948Y-71961659D01*
X95771948Y-71961660D01*
X95761891Y-71981397D01*
X95751731Y-71997977D01*
X95738706Y-72015905D01*
X95738703Y-72015910D01*
X95731854Y-72036988D01*
X95724413Y-72054952D01*
X95714354Y-72074695D01*
X95710887Y-72096582D01*
X95706347Y-72115491D01*
X95699500Y-72136567D01*
X95699500Y-77875553D01*
X95679815Y-77942592D01*
X95673876Y-77951039D01*
X95619139Y-78022374D01*
X95619138Y-78022376D01*
X95563671Y-78156287D01*
X95563670Y-78156291D01*
X95544750Y-78299999D01*
X95544750Y-78300002D01*
X95562014Y-78431136D01*
X95551248Y-78500171D01*
X95504868Y-78552427D01*
X95437599Y-78571312D01*
X95370799Y-78550831D01*
X95351396Y-78535004D01*
X93158139Y-76341746D01*
X93124654Y-76280423D01*
X93121820Y-76254065D01*
X93121820Y-74596643D01*
X93121819Y-74596641D01*
X93107287Y-74523584D01*
X93107286Y-74523580D01*
X93105819Y-74521385D01*
X93051921Y-74440719D01*
X92969060Y-74385354D01*
X92969059Y-74385353D01*
X92969055Y-74385352D01*
X92895997Y-74370820D01*
X92895994Y-74370820D01*
X90846646Y-74370820D01*
X90846643Y-74370820D01*
X90773584Y-74385352D01*
X90773580Y-74385353D01*
X90690719Y-74440719D01*
X90635353Y-74523580D01*
X90635352Y-74523584D01*
X90620820Y-74596641D01*
X90620820Y-76645998D01*
X90635352Y-76719055D01*
X90635353Y-76719059D01*
X90635354Y-76719060D01*
X90690719Y-76801921D01*
X90755845Y-76845436D01*
X90773580Y-76857286D01*
X90773584Y-76857287D01*
X90846641Y-76871819D01*
X90846644Y-76871820D01*
X90846646Y-76871820D01*
X91262425Y-76871820D01*
X91329464Y-76891505D01*
X91375219Y-76944309D01*
X91385163Y-77013467D01*
X91356138Y-77077023D01*
X91350106Y-77083501D01*
X88617597Y-79816008D01*
X88556274Y-79849493D01*
X88486582Y-79844509D01*
X88430649Y-79802637D01*
X88346832Y-79690670D01*
X88233056Y-79605498D01*
X88233054Y-79605497D01*
X88099891Y-79555829D01*
X88099889Y-79555828D01*
X88099887Y-79555828D01*
X88041029Y-79549500D01*
X87458982Y-79549500D01*
X87458973Y-79549501D01*
X87400108Y-79555828D01*
X87266945Y-79605497D01*
X87153169Y-79690669D01*
X87067998Y-79804443D01*
X87018328Y-79937612D01*
X87012000Y-79996462D01*
X87012000Y-80620244D01*
X86992315Y-80687283D01*
X86975685Y-80707920D01*
X86896861Y-80786745D01*
X86824680Y-80858926D01*
X86763357Y-80892410D01*
X86693665Y-80887426D01*
X86637732Y-80845554D01*
X86613315Y-80780090D01*
X86612999Y-80771265D01*
X86612999Y-79996480D01*
X86608586Y-79955428D01*
X86606671Y-79937608D01*
X86573069Y-79847521D01*
X86557003Y-79804446D01*
X86471831Y-79690669D01*
X86358054Y-79605497D01*
X86358049Y-79605494D01*
X86356163Y-79604791D01*
X86354552Y-79603585D01*
X86350272Y-79601248D01*
X86350608Y-79600632D01*
X86300231Y-79562919D01*
X86275816Y-79497453D01*
X86275500Y-79488611D01*
X86275500Y-75842254D01*
X86295185Y-75775215D01*
X86311814Y-75754578D01*
X92783070Y-69283321D01*
X92844391Y-69249838D01*
X92854545Y-69248068D01*
X92943709Y-69236330D01*
X93077625Y-69180861D01*
X93192621Y-69092621D01*
X93280861Y-68977625D01*
X93336330Y-68843709D01*
X93355250Y-68700000D01*
X93353560Y-68687167D01*
X93348066Y-68645436D01*
X93336330Y-68556291D01*
X93286484Y-68435950D01*
X93280862Y-68422377D01*
X93280861Y-68422376D01*
X93280861Y-68422375D01*
X93192621Y-68307379D01*
X93077625Y-68219139D01*
X93077624Y-68219138D01*
X93077622Y-68219137D01*
X92943712Y-68163671D01*
X92943710Y-68163670D01*
X92943709Y-68163670D01*
X92871854Y-68154210D01*
X92800001Y-68144750D01*
X92799999Y-68144750D01*
X92656291Y-68163670D01*
X92656287Y-68163671D01*
X92522377Y-68219137D01*
X92407379Y-68307379D01*
X92319137Y-68422377D01*
X92263670Y-68556289D01*
X92251933Y-68645436D01*
X92223666Y-68709332D01*
X92216675Y-68716930D01*
X85736768Y-75196837D01*
X85675445Y-75230322D01*
X85605753Y-75225338D01*
X85549820Y-75183466D01*
X85536707Y-75161565D01*
X85458422Y-74993682D01*
X85458420Y-74993679D01*
X85458419Y-74993677D01*
X85332919Y-74814444D01*
X85286956Y-74768481D01*
X85178197Y-74659722D01*
X85040298Y-74563164D01*
X84998958Y-74534217D01*
X84899804Y-74487981D01*
X84800650Y-74441745D01*
X84800646Y-74441744D01*
X84800642Y-74441742D01*
X84589297Y-74385113D01*
X84371322Y-74366043D01*
X84371318Y-74366043D01*
X84226002Y-74378756D01*
X84153343Y-74385113D01*
X84153340Y-74385113D01*
X83941997Y-74441742D01*
X83941988Y-74441746D01*
X83743681Y-74534218D01*
X83743677Y-74534221D01*
X83616943Y-74622960D01*
X83550737Y-74645287D01*
X83482969Y-74628276D01*
X83435157Y-74577328D01*
X83421820Y-74521385D01*
X83421820Y-73300000D01*
X85844750Y-73300000D01*
X85863670Y-73443708D01*
X85863671Y-73443712D01*
X85919137Y-73577622D01*
X85919138Y-73577624D01*
X85919139Y-73577625D01*
X86007379Y-73692621D01*
X86122375Y-73780861D01*
X86256291Y-73836330D01*
X86383280Y-73853048D01*
X86399999Y-73855250D01*
X86400000Y-73855250D01*
X86400001Y-73855250D01*
X86414977Y-73853278D01*
X86543709Y-73836330D01*
X86677625Y-73780861D01*
X86792621Y-73692621D01*
X86880861Y-73577625D01*
X86936330Y-73443709D01*
X86948066Y-73354562D01*
X86976331Y-73290668D01*
X86983311Y-73283080D01*
X94005484Y-66260909D01*
X94005484Y-66260908D01*
X94012552Y-66253841D01*
X94012557Y-66253834D01*
X94028050Y-66238342D01*
X94038114Y-66218588D01*
X94048263Y-66202026D01*
X94061296Y-66184090D01*
X94068144Y-66163011D01*
X94075586Y-66145044D01*
X94085646Y-66125304D01*
X94089112Y-66103417D01*
X94093655Y-66084498D01*
X94094225Y-66082744D01*
X94100500Y-66063433D01*
X94100500Y-65936567D01*
X94100500Y-55621322D01*
X96803543Y-55621322D01*
X96822613Y-55839295D01*
X96822613Y-55839299D01*
X96879242Y-56050642D01*
X96879244Y-56050646D01*
X96879245Y-56050650D01*
X96885805Y-56064718D01*
X96971717Y-56248958D01*
X96971718Y-56248959D01*
X97097222Y-56428197D01*
X97251943Y-56582918D01*
X97431181Y-56708422D01*
X97629490Y-56800895D01*
X97840843Y-56857527D01*
X98023746Y-56873528D01*
X98058818Y-56876597D01*
X98058820Y-56876597D01*
X98058822Y-56876597D01*
X98087074Y-56874125D01*
X98276797Y-56857527D01*
X98488150Y-56800895D01*
X98686459Y-56708422D01*
X98865697Y-56582918D01*
X99020418Y-56428197D01*
X99145922Y-56248959D01*
X99238395Y-56050650D01*
X99295027Y-55839297D01*
X99314097Y-55621320D01*
X99295027Y-55403343D01*
X99238395Y-55191990D01*
X99145922Y-54993682D01*
X99145920Y-54993679D01*
X99145919Y-54993677D01*
X99020419Y-54814444D01*
X98954676Y-54748701D01*
X98865697Y-54659722D01*
X98686459Y-54534218D01*
X98686460Y-54534218D01*
X98686458Y-54534217D01*
X98587304Y-54487981D01*
X98488150Y-54441745D01*
X98488146Y-54441744D01*
X98488142Y-54441742D01*
X98276797Y-54385113D01*
X98058822Y-54366043D01*
X98058818Y-54366043D01*
X97913502Y-54378756D01*
X97840843Y-54385113D01*
X97840840Y-54385113D01*
X97629497Y-54441742D01*
X97629488Y-54441746D01*
X97431181Y-54534218D01*
X97431177Y-54534220D01*
X97251941Y-54659722D01*
X97097222Y-54814441D01*
X96971720Y-54993677D01*
X96971718Y-54993681D01*
X96879246Y-55191988D01*
X96879242Y-55191997D01*
X96822613Y-55403340D01*
X96822613Y-55403344D01*
X96803543Y-55621317D01*
X96803543Y-55621322D01*
X94100500Y-55621322D01*
X94100500Y-52418481D01*
X94100500Y-52386567D01*
X94093652Y-52365491D01*
X94089111Y-52346578D01*
X94085646Y-52324696D01*
X94085618Y-52324642D01*
X94075589Y-52304959D01*
X94068140Y-52286976D01*
X94065735Y-52279574D01*
X94061296Y-52265910D01*
X94048271Y-52247982D01*
X94038106Y-52231394D01*
X94028049Y-52211656D01*
X94009825Y-52193433D01*
X94009807Y-52193413D01*
X93053822Y-51237429D01*
X93020337Y-51176106D01*
X93025321Y-51106415D01*
X93029112Y-51097362D01*
X93050895Y-51050650D01*
X93107527Y-50839297D01*
X93126597Y-50621322D01*
X96803543Y-50621322D01*
X96822613Y-50839295D01*
X96822613Y-50839299D01*
X96879242Y-51050642D01*
X96879244Y-51050646D01*
X96879245Y-51050650D01*
X96890992Y-51075841D01*
X96971717Y-51248958D01*
X96971718Y-51248959D01*
X97097222Y-51428197D01*
X97251943Y-51582918D01*
X97431181Y-51708422D01*
X97629490Y-51800895D01*
X97629496Y-51800896D01*
X97629497Y-51800897D01*
X97660184Y-51809119D01*
X97840843Y-51857527D01*
X98023746Y-51873528D01*
X98058818Y-51876597D01*
X98058820Y-51876597D01*
X98058822Y-51876597D01*
X98087074Y-51874125D01*
X98276797Y-51857527D01*
X98488150Y-51800895D01*
X98686459Y-51708422D01*
X98865697Y-51582918D01*
X99020418Y-51428197D01*
X99145922Y-51248959D01*
X99238395Y-51050650D01*
X99295027Y-50839297D01*
X99314097Y-50621320D01*
X99295027Y-50403343D01*
X99238395Y-50191990D01*
X99145922Y-49993682D01*
X99145920Y-49993679D01*
X99145919Y-49993677D01*
X99020419Y-49814444D01*
X98976323Y-49770348D01*
X98865697Y-49659722D01*
X98727798Y-49563164D01*
X98686458Y-49534217D01*
X98548078Y-49469690D01*
X98488150Y-49441745D01*
X98488146Y-49441744D01*
X98488142Y-49441742D01*
X98276797Y-49385113D01*
X98058822Y-49366043D01*
X98058818Y-49366043D01*
X97913502Y-49378756D01*
X97840843Y-49385113D01*
X97840840Y-49385113D01*
X97629497Y-49441742D01*
X97629488Y-49441746D01*
X97431181Y-49534218D01*
X97431177Y-49534220D01*
X97251941Y-49659722D01*
X97097222Y-49814441D01*
X96971720Y-49993677D01*
X96971718Y-49993681D01*
X96879246Y-50191988D01*
X96879242Y-50191997D01*
X96822613Y-50403340D01*
X96822613Y-50403344D01*
X96803543Y-50621317D01*
X96803543Y-50621322D01*
X93126597Y-50621322D01*
X93126597Y-50621320D01*
X93107527Y-50403343D01*
X93050895Y-50191990D01*
X92958422Y-49993682D01*
X92958420Y-49993679D01*
X92958419Y-49993677D01*
X92832919Y-49814444D01*
X92788823Y-49770348D01*
X92678197Y-49659722D01*
X92540298Y-49563164D01*
X92498958Y-49534217D01*
X92360578Y-49469690D01*
X92300650Y-49441745D01*
X92300646Y-49441744D01*
X92300642Y-49441742D01*
X92089297Y-49385113D01*
X91871322Y-49366043D01*
X91871318Y-49366043D01*
X91726002Y-49378756D01*
X91653343Y-49385113D01*
X91653340Y-49385113D01*
X91441997Y-49441742D01*
X91441988Y-49441746D01*
X91243681Y-49534218D01*
X91243677Y-49534220D01*
X91064441Y-49659722D01*
X90909722Y-49814441D01*
X90784220Y-49993677D01*
X90784218Y-49993681D01*
X90691746Y-50191988D01*
X90691742Y-50191997D01*
X90635113Y-50403340D01*
X90635113Y-50403344D01*
X90616043Y-50621317D01*
X90616043Y-50621322D01*
X90635113Y-50839295D01*
X90635113Y-50839299D01*
X90691742Y-51050642D01*
X90691744Y-51050646D01*
X90691745Y-51050650D01*
X90703492Y-51075841D01*
X90713518Y-51097342D01*
X90724010Y-51166420D01*
X90695490Y-51230204D01*
X90688817Y-51237428D01*
X89194516Y-52731731D01*
X89194513Y-52731733D01*
X89194513Y-52731734D01*
X89183231Y-52743016D01*
X89171948Y-52754299D01*
X89171948Y-52754300D01*
X89161891Y-52774037D01*
X89151731Y-52790617D01*
X89138706Y-52808545D01*
X89138703Y-52808550D01*
X89131854Y-52829628D01*
X89124413Y-52847592D01*
X89114354Y-52867335D01*
X89110887Y-52889222D01*
X89106347Y-52908131D01*
X89099500Y-52929207D01*
X89099500Y-56375553D01*
X89079815Y-56442592D01*
X89073876Y-56451039D01*
X89019139Y-56522374D01*
X89019138Y-56522376D01*
X88963671Y-56656287D01*
X88963670Y-56656291D01*
X88944750Y-56800000D01*
X88952160Y-56856287D01*
X88963670Y-56943708D01*
X88963671Y-56943712D01*
X89019137Y-57077622D01*
X89019138Y-57077624D01*
X89019139Y-57077625D01*
X89107379Y-57192621D01*
X89222375Y-57280861D01*
X89356291Y-57336330D01*
X89483280Y-57353048D01*
X89499999Y-57355250D01*
X89500000Y-57355250D01*
X89500001Y-57355250D01*
X89514977Y-57353278D01*
X89643709Y-57336330D01*
X89777625Y-57280861D01*
X89892621Y-57192621D01*
X89980861Y-57077625D01*
X90036330Y-56943709D01*
X90055250Y-56800000D01*
X90036330Y-56656291D01*
X89980861Y-56522375D01*
X89972530Y-56511518D01*
X89926124Y-56451039D01*
X89900930Y-56385869D01*
X89900500Y-56375553D01*
X89900500Y-53209894D01*
X89920185Y-53142855D01*
X89936814Y-53122218D01*
X91255211Y-51803820D01*
X91316532Y-51770337D01*
X91386224Y-51775321D01*
X91395287Y-51779117D01*
X91441990Y-51800895D01*
X91441996Y-51800896D01*
X91441997Y-51800897D01*
X91472684Y-51809119D01*
X91653343Y-51857527D01*
X91836246Y-51873528D01*
X91871318Y-51876597D01*
X91871320Y-51876597D01*
X91871322Y-51876597D01*
X91899574Y-51874125D01*
X92089297Y-51857527D01*
X92300650Y-51800895D01*
X92347345Y-51779120D01*
X92416420Y-51768629D01*
X92480204Y-51797148D01*
X92487429Y-51803822D01*
X93263181Y-52579574D01*
X93296666Y-52640897D01*
X93299500Y-52667255D01*
X93299500Y-55177921D01*
X93279815Y-55244960D01*
X93227011Y-55290715D01*
X93157853Y-55300659D01*
X93094297Y-55271634D01*
X93056523Y-55212856D01*
X93055725Y-55210015D01*
X93050896Y-55191995D01*
X93050895Y-55191990D01*
X92958422Y-54993682D01*
X92958420Y-54993679D01*
X92958419Y-54993677D01*
X92832919Y-54814444D01*
X92767176Y-54748701D01*
X92678197Y-54659722D01*
X92498959Y-54534218D01*
X92498960Y-54534218D01*
X92498958Y-54534217D01*
X92399804Y-54487981D01*
X92300650Y-54441745D01*
X92300646Y-54441744D01*
X92300642Y-54441742D01*
X92089297Y-54385113D01*
X91871322Y-54366043D01*
X91871318Y-54366043D01*
X91726002Y-54378756D01*
X91653343Y-54385113D01*
X91653340Y-54385113D01*
X91441997Y-54441742D01*
X91441988Y-54441746D01*
X91243681Y-54534218D01*
X91243677Y-54534220D01*
X91064441Y-54659722D01*
X90909722Y-54814441D01*
X90784220Y-54993677D01*
X90784218Y-54993681D01*
X90691746Y-55191988D01*
X90691742Y-55191997D01*
X90635113Y-55403340D01*
X90635113Y-55403344D01*
X90616043Y-55621317D01*
X90616043Y-55621322D01*
X90635113Y-55839295D01*
X90635113Y-55839299D01*
X90691742Y-56050642D01*
X90691744Y-56050646D01*
X90691745Y-56050650D01*
X90698305Y-56064718D01*
X90784217Y-56248958D01*
X90784218Y-56248959D01*
X90909722Y-56428197D01*
X91064443Y-56582918D01*
X91243681Y-56708422D01*
X91399225Y-56780953D01*
X91451664Y-56827125D01*
X91470820Y-56893335D01*
X91470820Y-65311424D01*
X91451135Y-65378463D01*
X91434501Y-65399105D01*
X86616930Y-70216675D01*
X86555607Y-70250160D01*
X86545436Y-70251933D01*
X86456289Y-70263670D01*
X86322377Y-70319137D01*
X86207379Y-70407379D01*
X86119137Y-70522377D01*
X86063671Y-70656287D01*
X86063670Y-70656291D01*
X86044750Y-70799999D01*
X86044750Y-70800000D01*
X86063670Y-70943708D01*
X86063671Y-70943712D01*
X86119137Y-71077622D01*
X86119138Y-71077624D01*
X86119139Y-71077625D01*
X86207379Y-71192621D01*
X86322375Y-71280861D01*
X86456291Y-71336330D01*
X86583280Y-71353048D01*
X86599999Y-71355250D01*
X86600000Y-71355250D01*
X86600001Y-71355250D01*
X86614977Y-71353278D01*
X86743709Y-71336330D01*
X86877625Y-71280861D01*
X86992621Y-71192621D01*
X87080861Y-71077625D01*
X87136330Y-70943709D01*
X87148066Y-70854562D01*
X87176331Y-70790668D01*
X87183311Y-70783080D01*
X92176803Y-65789589D01*
X92199370Y-65767022D01*
X92209429Y-65747277D01*
X92219591Y-65730694D01*
X92232616Y-65712770D01*
X92239461Y-65691702D01*
X92246906Y-65673725D01*
X92256966Y-65653984D01*
X92260432Y-65632095D01*
X92264972Y-65613181D01*
X92271819Y-65592113D01*
X92271819Y-65565334D01*
X92271820Y-65565309D01*
X92271820Y-56893335D01*
X92291505Y-56826296D01*
X92343414Y-56780953D01*
X92498959Y-56708422D01*
X92678197Y-56582918D01*
X92832918Y-56428197D01*
X92958422Y-56248959D01*
X93050895Y-56050650D01*
X93055725Y-56032625D01*
X93092090Y-55972965D01*
X93154936Y-55942435D01*
X93224312Y-55950729D01*
X93278190Y-55995214D01*
X93299465Y-56061766D01*
X93299500Y-56064718D01*
X93299500Y-65782744D01*
X93279815Y-65849783D01*
X93263181Y-65870425D01*
X86416930Y-72716675D01*
X86355607Y-72750160D01*
X86345436Y-72751933D01*
X86256289Y-72763670D01*
X86122377Y-72819137D01*
X86007379Y-72907379D01*
X85919137Y-73022377D01*
X85863671Y-73156287D01*
X85863670Y-73156291D01*
X85844750Y-73299999D01*
X85844750Y-73300000D01*
X83421820Y-73300000D01*
X83421820Y-71595934D01*
X83441505Y-71528895D01*
X83458134Y-71508258D01*
X88583070Y-66383321D01*
X88644391Y-66349838D01*
X88654545Y-66348068D01*
X88743709Y-66336330D01*
X88877625Y-66280861D01*
X88992621Y-66192621D01*
X89080861Y-66077625D01*
X89136330Y-65943709D01*
X89155250Y-65800000D01*
X89153560Y-65787167D01*
X89150908Y-65767022D01*
X89136330Y-65656291D01*
X89080861Y-65522375D01*
X88992621Y-65407379D01*
X88877625Y-65319139D01*
X88877624Y-65319138D01*
X88877622Y-65319137D01*
X88743712Y-65263671D01*
X88743710Y-65263670D01*
X88743709Y-65263670D01*
X88671854Y-65254210D01*
X88600001Y-65244750D01*
X88599999Y-65244750D01*
X88456291Y-65263670D01*
X88456287Y-65263671D01*
X88322377Y-65319137D01*
X88207379Y-65407379D01*
X88119137Y-65522377D01*
X88063670Y-65656289D01*
X88051933Y-65745436D01*
X88023666Y-65809332D01*
X88016675Y-65816930D01*
X82715836Y-71117771D01*
X82715833Y-71117773D01*
X82715833Y-71117774D01*
X82704551Y-71129056D01*
X82693268Y-71140339D01*
X82693268Y-71140340D01*
X82683211Y-71160077D01*
X82673051Y-71176657D01*
X82660026Y-71194585D01*
X82660023Y-71194590D01*
X82653174Y-71215668D01*
X82645733Y-71233632D01*
X82635674Y-71253375D01*
X82632207Y-71275262D01*
X82627667Y-71294171D01*
X82620820Y-71315247D01*
X82620820Y-77163305D01*
X82620821Y-77163315D01*
X82627666Y-77184383D01*
X82632207Y-77203294D01*
X82635674Y-77225180D01*
X82635675Y-77225183D01*
X82645732Y-77244921D01*
X82653177Y-77262894D01*
X82660024Y-77283966D01*
X82673046Y-77301890D01*
X82683210Y-77318476D01*
X82693269Y-77338216D01*
X82693270Y-77338218D01*
X82712710Y-77357658D01*
X82712739Y-77357689D01*
X83964857Y-78609807D01*
X83964877Y-78609825D01*
X83983102Y-78628050D01*
X84002842Y-78638108D01*
X84019431Y-78648274D01*
X84037353Y-78661295D01*
X84037354Y-78661295D01*
X84037355Y-78661296D01*
X84058424Y-78668142D01*
X84076393Y-78675584D01*
X84096140Y-78685646D01*
X84118026Y-78689112D01*
X84136941Y-78693653D01*
X84158011Y-78700500D01*
X84189925Y-78700500D01*
X84575554Y-78700500D01*
X84642593Y-78720185D01*
X84651040Y-78726124D01*
X84692153Y-78757671D01*
X84722375Y-78780861D01*
X84856291Y-78836330D01*
X84983280Y-78853048D01*
X84999999Y-78855250D01*
X85000000Y-78855250D01*
X85000001Y-78855250D01*
X85014977Y-78853278D01*
X85143709Y-78836330D01*
X85277625Y-78780861D01*
X85277631Y-78780856D01*
X85284664Y-78776797D01*
X85285767Y-78778709D01*
X85340172Y-78757671D01*
X85408618Y-78771703D01*
X85458612Y-78820513D01*
X85474500Y-78881240D01*
X85474500Y-79488611D01*
X85454815Y-79555650D01*
X85402011Y-79601405D01*
X85393837Y-79604791D01*
X85391950Y-79605494D01*
X85391945Y-79605497D01*
X85278169Y-79690669D01*
X85192998Y-79804443D01*
X85143328Y-79937612D01*
X85137000Y-79996462D01*
X85137000Y-81003517D01*
X85137001Y-81003526D01*
X85137939Y-81012248D01*
X85125532Y-81081007D01*
X85077920Y-81132143D01*
X85014649Y-81149500D01*
X84517255Y-81149500D01*
X84450216Y-81129815D01*
X84429574Y-81113181D01*
X79658139Y-76341746D01*
X79624654Y-76280423D01*
X79621820Y-76254065D01*
X79621820Y-74596643D01*
X79621819Y-74596641D01*
X79607287Y-74523584D01*
X79607286Y-74523580D01*
X79605819Y-74521385D01*
X79551921Y-74440719D01*
X79469060Y-74385354D01*
X79469059Y-74385353D01*
X79469055Y-74385352D01*
X79395997Y-74370820D01*
X79395994Y-74370820D01*
X77346646Y-74370820D01*
X77346643Y-74370820D01*
X77273584Y-74385352D01*
X77273580Y-74385353D01*
X77190719Y-74440719D01*
X77135353Y-74523580D01*
X77135352Y-74523584D01*
X77120820Y-74596641D01*
X77120820Y-76511424D01*
X77101135Y-76578463D01*
X77084501Y-76599105D01*
X74167020Y-79516585D01*
X74105697Y-79550070D01*
X74066086Y-79552194D01*
X74041023Y-79549500D01*
X73458982Y-79549500D01*
X73458973Y-79549501D01*
X73400108Y-79555828D01*
X73266945Y-79605497D01*
X73153169Y-79690669D01*
X73067998Y-79804443D01*
X73018328Y-79937612D01*
X73012000Y-79996462D01*
X73012000Y-81003517D01*
X73012001Y-81003526D01*
X73018328Y-81062391D01*
X73062995Y-81182144D01*
X73067997Y-81195554D01*
X73153169Y-81309331D01*
X73244476Y-81377682D01*
X73266945Y-81394502D01*
X73266946Y-81394503D01*
X73268831Y-81395206D01*
X73270442Y-81396412D01*
X73274731Y-81398754D01*
X73274394Y-81399370D01*
X73324765Y-81437076D01*
X73349184Y-81502540D01*
X73349500Y-81511389D01*
X73349500Y-81632744D01*
X73329815Y-81699783D01*
X73313181Y-81720425D01*
X72816930Y-82216675D01*
X72755607Y-82250160D01*
X72745436Y-82251933D01*
X72656289Y-82263670D01*
X72522377Y-82319137D01*
X72407379Y-82407379D01*
X72319137Y-82522377D01*
X72263671Y-82656287D01*
X72263670Y-82656291D01*
X72244750Y-82799999D01*
X72244750Y-82800000D01*
X71271820Y-82800000D01*
X71271820Y-81528292D01*
X71291505Y-81461253D01*
X71344309Y-81415498D01*
X71413467Y-81405554D01*
X71439145Y-81412107D01*
X71525109Y-81444171D01*
X71583979Y-81450500D01*
X72166020Y-81450499D01*
X72224891Y-81444171D01*
X72358054Y-81394503D01*
X72471831Y-81309331D01*
X72557003Y-81195554D01*
X72606671Y-81062391D01*
X72612062Y-81012248D01*
X72612999Y-81003537D01*
X72612999Y-81003526D01*
X72613000Y-81003521D01*
X72612999Y-80379755D01*
X72632683Y-80312717D01*
X72649320Y-80292073D01*
X72673846Y-80267547D01*
X72673854Y-80267536D01*
X72689347Y-80252045D01*
X72699406Y-80232301D01*
X72709566Y-80215721D01*
X72722593Y-80197792D01*
X72729439Y-80176720D01*
X72736885Y-80158746D01*
X72746942Y-80139008D01*
X72746943Y-80139007D01*
X72750409Y-80117119D01*
X72754948Y-80098213D01*
X72761797Y-80077136D01*
X72761797Y-79950270D01*
X72761797Y-76055956D01*
X72781482Y-75988917D01*
X72798111Y-75968280D01*
X79383069Y-69383321D01*
X79444390Y-69349838D01*
X79454543Y-69348068D01*
X79543709Y-69336330D01*
X79677625Y-69280861D01*
X79792621Y-69192621D01*
X79880861Y-69077625D01*
X79936330Y-68943709D01*
X79955250Y-68800000D01*
X79936330Y-68656291D01*
X79880861Y-68522375D01*
X79792621Y-68407379D01*
X79677625Y-68319139D01*
X79677624Y-68319138D01*
X79677622Y-68319137D01*
X79543712Y-68263671D01*
X79543710Y-68263670D01*
X79543709Y-68263670D01*
X79471854Y-68254210D01*
X79400001Y-68244750D01*
X79399999Y-68244750D01*
X79256291Y-68263670D01*
X79256287Y-68263671D01*
X79122377Y-68319137D01*
X79007379Y-68407379D01*
X78919137Y-68522377D01*
X78863671Y-68656287D01*
X78863670Y-68656291D01*
X78851933Y-68745437D01*
X78823666Y-68809333D01*
X78816675Y-68816931D01*
X72285332Y-75348273D01*
X72224009Y-75381758D01*
X72154317Y-75376774D01*
X72098384Y-75334902D01*
X72077876Y-75292685D01*
X72050897Y-75191997D01*
X72050896Y-75191996D01*
X72050895Y-75191990D01*
X71958422Y-74993682D01*
X71958420Y-74993679D01*
X71958419Y-74993677D01*
X71832919Y-74814444D01*
X71786956Y-74768481D01*
X71678197Y-74659722D01*
X71540298Y-74563164D01*
X71498958Y-74534217D01*
X71399804Y-74487981D01*
X71300650Y-74441745D01*
X71300646Y-74441744D01*
X71300642Y-74441742D01*
X71089297Y-74385113D01*
X70871322Y-74366043D01*
X70871318Y-74366043D01*
X70726002Y-74378756D01*
X70653343Y-74385113D01*
X70653340Y-74385113D01*
X70441997Y-74441742D01*
X70441988Y-74441746D01*
X70243681Y-74534218D01*
X70243677Y-74534220D01*
X70064441Y-74659722D01*
X69909722Y-74814441D01*
X69826075Y-74933903D01*
X69771498Y-74977528D01*
X69702000Y-74984722D01*
X69639645Y-74953199D01*
X69604231Y-74892969D01*
X69600500Y-74862780D01*
X69600500Y-73300000D01*
X72344750Y-73300000D01*
X72363670Y-73443708D01*
X72363671Y-73443712D01*
X72419137Y-73577622D01*
X72419138Y-73577624D01*
X72419139Y-73577625D01*
X72507379Y-73692621D01*
X72622375Y-73780861D01*
X72756291Y-73836330D01*
X72883280Y-73853048D01*
X72899999Y-73855250D01*
X72900000Y-73855250D01*
X72900001Y-73855250D01*
X72914977Y-73853278D01*
X73043709Y-73836330D01*
X73177625Y-73780861D01*
X73292621Y-73692621D01*
X73380861Y-73577625D01*
X73436330Y-73443709D01*
X73448066Y-73354562D01*
X73476331Y-73290668D01*
X73483311Y-73283080D01*
X80205484Y-66560909D01*
X80205484Y-66560908D01*
X80212552Y-66553841D01*
X80212557Y-66553834D01*
X80228050Y-66538342D01*
X80238114Y-66518588D01*
X80248263Y-66502026D01*
X80261296Y-66484090D01*
X80268144Y-66463011D01*
X80275586Y-66445044D01*
X80285646Y-66425304D01*
X80289112Y-66403417D01*
X80293655Y-66384498D01*
X80297270Y-66373373D01*
X80300500Y-66363433D01*
X80300500Y-66236567D01*
X80300500Y-55621322D01*
X83116043Y-55621322D01*
X83135113Y-55839295D01*
X83135113Y-55839299D01*
X83191742Y-56050642D01*
X83191744Y-56050646D01*
X83191745Y-56050650D01*
X83198305Y-56064718D01*
X83284217Y-56248958D01*
X83284218Y-56248959D01*
X83409722Y-56428197D01*
X83564443Y-56582918D01*
X83743681Y-56708422D01*
X83941990Y-56800895D01*
X84153343Y-56857527D01*
X84336246Y-56873528D01*
X84371318Y-56876597D01*
X84371320Y-56876597D01*
X84371322Y-56876597D01*
X84399574Y-56874125D01*
X84589297Y-56857527D01*
X84800650Y-56800895D01*
X84998959Y-56708422D01*
X85178197Y-56582918D01*
X85332918Y-56428197D01*
X85458422Y-56248959D01*
X85550895Y-56050650D01*
X85607527Y-55839297D01*
X85626597Y-55621320D01*
X85607527Y-55403343D01*
X85550895Y-55191990D01*
X85458422Y-54993682D01*
X85458420Y-54993679D01*
X85458419Y-54993677D01*
X85332919Y-54814444D01*
X85267176Y-54748701D01*
X85178197Y-54659722D01*
X84998959Y-54534218D01*
X84998960Y-54534218D01*
X84998958Y-54534217D01*
X84899804Y-54487981D01*
X84800650Y-54441745D01*
X84800646Y-54441744D01*
X84800642Y-54441742D01*
X84589297Y-54385113D01*
X84371322Y-54366043D01*
X84371318Y-54366043D01*
X84226002Y-54378756D01*
X84153343Y-54385113D01*
X84153340Y-54385113D01*
X83941997Y-54441742D01*
X83941988Y-54441746D01*
X83743681Y-54534218D01*
X83743677Y-54534220D01*
X83564441Y-54659722D01*
X83409722Y-54814441D01*
X83284220Y-54993677D01*
X83284218Y-54993681D01*
X83191746Y-55191988D01*
X83191742Y-55191997D01*
X83135113Y-55403340D01*
X83135113Y-55403344D01*
X83116043Y-55621317D01*
X83116043Y-55621322D01*
X80300500Y-55621322D01*
X80300500Y-52118481D01*
X80300500Y-52086567D01*
X80293652Y-52065491D01*
X80289111Y-52046578D01*
X80285646Y-52024696D01*
X80275588Y-52004958D01*
X80268140Y-51986976D01*
X80261296Y-51965910D01*
X80248271Y-51947982D01*
X80238106Y-51931394D01*
X80228049Y-51911656D01*
X80209825Y-51893433D01*
X80209807Y-51893413D01*
X79553822Y-51237429D01*
X79520337Y-51176106D01*
X79525321Y-51106415D01*
X79529112Y-51097362D01*
X79550895Y-51050650D01*
X79607527Y-50839297D01*
X79626597Y-50621322D01*
X83116043Y-50621322D01*
X83135113Y-50839295D01*
X83135113Y-50839299D01*
X83191742Y-51050642D01*
X83191744Y-51050646D01*
X83191745Y-51050650D01*
X83203492Y-51075841D01*
X83284217Y-51248958D01*
X83284218Y-51248959D01*
X83409722Y-51428197D01*
X83564443Y-51582918D01*
X83743681Y-51708422D01*
X83941990Y-51800895D01*
X83941996Y-51800896D01*
X83941997Y-51800897D01*
X83972684Y-51809119D01*
X84153343Y-51857527D01*
X84336246Y-51873528D01*
X84371318Y-51876597D01*
X84371320Y-51876597D01*
X84371322Y-51876597D01*
X84399574Y-51874125D01*
X84589297Y-51857527D01*
X84800650Y-51800895D01*
X84998959Y-51708422D01*
X85178197Y-51582918D01*
X85332918Y-51428197D01*
X85458422Y-51248959D01*
X85550895Y-51050650D01*
X85607527Y-50839297D01*
X85626597Y-50621320D01*
X85607527Y-50403343D01*
X85550895Y-50191990D01*
X85458422Y-49993682D01*
X85458420Y-49993679D01*
X85458419Y-49993677D01*
X85332919Y-49814444D01*
X85288823Y-49770348D01*
X85178197Y-49659722D01*
X85040298Y-49563164D01*
X84998958Y-49534217D01*
X84860578Y-49469690D01*
X84800650Y-49441745D01*
X84800646Y-49441744D01*
X84800642Y-49441742D01*
X84589297Y-49385113D01*
X84371322Y-49366043D01*
X84371318Y-49366043D01*
X84226002Y-49378756D01*
X84153343Y-49385113D01*
X84153340Y-49385113D01*
X83941997Y-49441742D01*
X83941988Y-49441746D01*
X83743681Y-49534218D01*
X83743677Y-49534220D01*
X83564441Y-49659722D01*
X83409722Y-49814441D01*
X83284220Y-49993677D01*
X83284218Y-49993681D01*
X83191746Y-50191988D01*
X83191742Y-50191997D01*
X83135113Y-50403340D01*
X83135113Y-50403344D01*
X83116043Y-50621317D01*
X83116043Y-50621322D01*
X79626597Y-50621322D01*
X79626597Y-50621320D01*
X79607527Y-50403343D01*
X79550895Y-50191990D01*
X79458422Y-49993682D01*
X79458420Y-49993679D01*
X79458419Y-49993677D01*
X79332919Y-49814444D01*
X79288823Y-49770348D01*
X79178197Y-49659722D01*
X79040298Y-49563164D01*
X78998958Y-49534217D01*
X78860578Y-49469690D01*
X78800650Y-49441745D01*
X78800646Y-49441744D01*
X78800642Y-49441742D01*
X78589297Y-49385113D01*
X78371322Y-49366043D01*
X78371318Y-49366043D01*
X78226002Y-49378756D01*
X78153343Y-49385113D01*
X78153340Y-49385113D01*
X77941997Y-49441742D01*
X77941988Y-49441746D01*
X77743681Y-49534218D01*
X77743677Y-49534220D01*
X77564441Y-49659722D01*
X77409722Y-49814441D01*
X77284220Y-49993677D01*
X77284218Y-49993681D01*
X77191746Y-50191988D01*
X77191742Y-50191997D01*
X77135113Y-50403340D01*
X77135113Y-50403344D01*
X77116043Y-50621317D01*
X77116043Y-50621322D01*
X77135113Y-50839295D01*
X77135113Y-50839299D01*
X77191742Y-51050642D01*
X77191744Y-51050646D01*
X77191745Y-51050650D01*
X77203492Y-51075841D01*
X77213518Y-51097342D01*
X77224010Y-51166420D01*
X77195490Y-51230204D01*
X77188817Y-51237428D01*
X75594516Y-52831731D01*
X75594513Y-52831733D01*
X75594513Y-52831734D01*
X75583231Y-52843016D01*
X75571948Y-52854299D01*
X75571948Y-52854300D01*
X75561891Y-52874037D01*
X75551731Y-52890617D01*
X75538706Y-52908545D01*
X75538703Y-52908550D01*
X75531854Y-52929628D01*
X75524413Y-52947592D01*
X75514354Y-52967335D01*
X75510887Y-52989222D01*
X75506347Y-53008131D01*
X75499500Y-53029207D01*
X75499500Y-56575553D01*
X75479815Y-56642592D01*
X75473876Y-56651039D01*
X75419139Y-56722374D01*
X75419138Y-56722376D01*
X75363671Y-56856287D01*
X75363670Y-56856291D01*
X75344750Y-56999999D01*
X75344750Y-57000000D01*
X75363670Y-57143708D01*
X75363671Y-57143712D01*
X75419137Y-57277622D01*
X75419138Y-57277624D01*
X75419139Y-57277625D01*
X75507379Y-57392621D01*
X75622375Y-57480861D01*
X75756291Y-57536330D01*
X75883280Y-57553048D01*
X75899999Y-57555250D01*
X75900000Y-57555250D01*
X75900001Y-57555250D01*
X75914977Y-57553278D01*
X76043709Y-57536330D01*
X76177625Y-57480861D01*
X76292621Y-57392621D01*
X76380861Y-57277625D01*
X76436330Y-57143709D01*
X76455250Y-57000000D01*
X76436330Y-56856291D01*
X76380861Y-56722375D01*
X76372530Y-56711518D01*
X76326124Y-56651039D01*
X76300930Y-56585869D01*
X76300500Y-56575553D01*
X76300500Y-53309894D01*
X76320185Y-53242855D01*
X76336819Y-53222213D01*
X77041514Y-52517518D01*
X77755211Y-51803820D01*
X77816532Y-51770337D01*
X77886224Y-51775321D01*
X77895287Y-51779117D01*
X77941990Y-51800895D01*
X77941996Y-51800896D01*
X77941997Y-51800897D01*
X77972684Y-51809119D01*
X78153343Y-51857527D01*
X78336246Y-51873528D01*
X78371318Y-51876597D01*
X78371320Y-51876597D01*
X78371322Y-51876597D01*
X78399574Y-51874125D01*
X78589297Y-51857527D01*
X78800650Y-51800895D01*
X78847345Y-51779120D01*
X78916420Y-51768629D01*
X78980204Y-51797148D01*
X78987429Y-51803822D01*
X79463181Y-52279574D01*
X79496666Y-52340897D01*
X79499500Y-52367255D01*
X79499500Y-54681662D01*
X79479815Y-54748701D01*
X79427011Y-54794456D01*
X79357853Y-54804400D01*
X79294297Y-54775375D01*
X79287819Y-54769344D01*
X79251107Y-54732632D01*
X79178197Y-54659722D01*
X78998959Y-54534218D01*
X78998960Y-54534218D01*
X78998958Y-54534217D01*
X78899804Y-54487981D01*
X78800650Y-54441745D01*
X78800646Y-54441744D01*
X78800642Y-54441742D01*
X78589297Y-54385113D01*
X78371322Y-54366043D01*
X78371318Y-54366043D01*
X78226002Y-54378756D01*
X78153343Y-54385113D01*
X78153340Y-54385113D01*
X77941997Y-54441742D01*
X77941988Y-54441746D01*
X77743681Y-54534218D01*
X77743677Y-54534220D01*
X77564441Y-54659722D01*
X77409722Y-54814441D01*
X77284220Y-54993677D01*
X77284218Y-54993681D01*
X77191746Y-55191988D01*
X77191742Y-55191997D01*
X77135113Y-55403340D01*
X77135113Y-55403344D01*
X77116043Y-55621317D01*
X77116043Y-55621322D01*
X77135113Y-55839295D01*
X77135113Y-55839299D01*
X77191742Y-56050642D01*
X77191744Y-56050646D01*
X77191745Y-56050650D01*
X77198305Y-56064718D01*
X77284217Y-56248958D01*
X77284218Y-56248959D01*
X77409722Y-56428197D01*
X77564443Y-56582918D01*
X77743681Y-56708422D01*
X77899225Y-56780953D01*
X77951664Y-56827125D01*
X77970820Y-56893335D01*
X77970820Y-65211424D01*
X77951135Y-65278463D01*
X77934501Y-65299105D01*
X73116930Y-70116675D01*
X73055607Y-70150160D01*
X73045436Y-70151933D01*
X72956289Y-70163670D01*
X72822377Y-70219137D01*
X72707379Y-70307379D01*
X72619137Y-70422377D01*
X72563671Y-70556287D01*
X72563670Y-70556291D01*
X72545979Y-70690668D01*
X72544750Y-70700000D01*
X72557915Y-70800000D01*
X72563670Y-70843708D01*
X72563671Y-70843712D01*
X72619137Y-70977622D01*
X72619138Y-70977624D01*
X72619139Y-70977625D01*
X72707379Y-71092621D01*
X72822375Y-71180861D01*
X72822376Y-71180861D01*
X72822377Y-71180862D01*
X72855508Y-71194585D01*
X72956291Y-71236330D01*
X73083280Y-71253048D01*
X73099999Y-71255250D01*
X73100000Y-71255250D01*
X73100001Y-71255250D01*
X73114977Y-71253278D01*
X73243709Y-71236330D01*
X73377625Y-71180861D01*
X73492621Y-71092621D01*
X73580861Y-70977625D01*
X73636330Y-70843709D01*
X73648066Y-70754562D01*
X73676331Y-70690668D01*
X73683311Y-70683080D01*
X78676803Y-65689589D01*
X78699370Y-65667022D01*
X78709429Y-65647277D01*
X78719591Y-65630694D01*
X78732616Y-65612770D01*
X78739461Y-65591702D01*
X78746906Y-65573725D01*
X78756966Y-65553984D01*
X78760432Y-65532095D01*
X78764972Y-65513181D01*
X78771819Y-65492113D01*
X78771819Y-65465334D01*
X78771820Y-65465309D01*
X78771820Y-56893335D01*
X78791505Y-56826296D01*
X78843414Y-56780953D01*
X78998959Y-56708422D01*
X79178197Y-56582918D01*
X79287819Y-56473296D01*
X79349142Y-56439811D01*
X79418834Y-56444795D01*
X79474767Y-56486667D01*
X79499184Y-56552131D01*
X79499500Y-56560977D01*
X79499500Y-66082744D01*
X79479815Y-66149783D01*
X79463181Y-66170425D01*
X72916930Y-72716675D01*
X72855607Y-72750160D01*
X72845436Y-72751933D01*
X72756289Y-72763670D01*
X72622377Y-72819137D01*
X72507379Y-72907379D01*
X72419137Y-73022377D01*
X72363671Y-73156287D01*
X72363670Y-73156291D01*
X72344750Y-73299999D01*
X72344750Y-73300000D01*
X69600500Y-73300000D01*
X69600500Y-72217254D01*
X69620185Y-72150215D01*
X69636814Y-72129578D01*
X74983070Y-66783321D01*
X75044391Y-66749838D01*
X75054545Y-66748068D01*
X75143709Y-66736330D01*
X75277625Y-66680861D01*
X75392621Y-66592621D01*
X75480861Y-66477625D01*
X75536330Y-66343709D01*
X75555250Y-66200000D01*
X75553560Y-66187167D01*
X75550382Y-66163024D01*
X75536330Y-66056291D01*
X75489697Y-65943708D01*
X75480862Y-65922377D01*
X75480861Y-65922376D01*
X75480861Y-65922375D01*
X75392621Y-65807379D01*
X75277625Y-65719139D01*
X75277624Y-65719138D01*
X75277622Y-65719137D01*
X75143712Y-65663671D01*
X75143710Y-65663670D01*
X75143709Y-65663670D01*
X75019278Y-65647288D01*
X75000001Y-65644750D01*
X74999999Y-65644750D01*
X74856291Y-65663670D01*
X74856287Y-65663671D01*
X74722377Y-65719137D01*
X74607379Y-65807379D01*
X74519137Y-65922377D01*
X74463670Y-66056289D01*
X74451933Y-66145436D01*
X74423666Y-66209332D01*
X74416675Y-66216930D01*
X68894516Y-71739091D01*
X68894513Y-71739093D01*
X68894513Y-71739094D01*
X68883231Y-71750376D01*
X68871948Y-71761659D01*
X68871948Y-71761660D01*
X68861891Y-71781397D01*
X68851731Y-71797977D01*
X68838706Y-71815905D01*
X68838703Y-71815910D01*
X68831854Y-71836988D01*
X68824413Y-71854952D01*
X68814354Y-71874695D01*
X68810887Y-71896582D01*
X68806347Y-71915491D01*
X68799500Y-71936567D01*
X68799500Y-77975553D01*
X68779815Y-78042592D01*
X68773876Y-78051039D01*
X68719139Y-78122374D01*
X68719138Y-78122376D01*
X68663671Y-78256287D01*
X68663670Y-78256291D01*
X68644750Y-78399999D01*
X68644750Y-78400000D01*
X67700500Y-78400000D01*
X67700500Y-55621322D01*
X69616043Y-55621322D01*
X69635113Y-55839295D01*
X69635113Y-55839299D01*
X69691742Y-56050642D01*
X69691744Y-56050646D01*
X69691745Y-56050650D01*
X69698305Y-56064718D01*
X69784217Y-56248958D01*
X69784218Y-56248959D01*
X69909722Y-56428197D01*
X70064443Y-56582918D01*
X70243681Y-56708422D01*
X70441990Y-56800895D01*
X70653343Y-56857527D01*
X70836246Y-56873528D01*
X70871318Y-56876597D01*
X70871320Y-56876597D01*
X70871322Y-56876597D01*
X70899574Y-56874125D01*
X71089297Y-56857527D01*
X71300650Y-56800895D01*
X71498959Y-56708422D01*
X71678197Y-56582918D01*
X71832918Y-56428197D01*
X71958422Y-56248959D01*
X72050895Y-56050650D01*
X72107527Y-55839297D01*
X72126597Y-55621320D01*
X72107527Y-55403343D01*
X72050895Y-55191990D01*
X71958422Y-54993682D01*
X71958420Y-54993679D01*
X71958419Y-54993677D01*
X71832919Y-54814444D01*
X71767176Y-54748701D01*
X71678197Y-54659722D01*
X71498959Y-54534218D01*
X71498960Y-54534218D01*
X71498958Y-54534217D01*
X71399804Y-54487981D01*
X71300650Y-54441745D01*
X71300646Y-54441744D01*
X71300642Y-54441742D01*
X71089297Y-54385113D01*
X70871322Y-54366043D01*
X70871318Y-54366043D01*
X70726002Y-54378756D01*
X70653343Y-54385113D01*
X70653340Y-54385113D01*
X70441997Y-54441742D01*
X70441988Y-54441746D01*
X70243681Y-54534218D01*
X70243677Y-54534220D01*
X70064441Y-54659722D01*
X69909722Y-54814441D01*
X69784220Y-54993677D01*
X69784218Y-54993681D01*
X69691746Y-55191988D01*
X69691742Y-55191997D01*
X69635113Y-55403340D01*
X69635113Y-55403344D01*
X69616043Y-55621317D01*
X69616043Y-55621322D01*
X67700500Y-55621322D01*
X67700500Y-52995682D01*
X67720185Y-52928643D01*
X67736819Y-52908001D01*
X68620126Y-52024694D01*
X69535495Y-51109324D01*
X69596816Y-51075841D01*
X69666508Y-51080825D01*
X69722441Y-51122697D01*
X69735553Y-51144598D01*
X69784218Y-51248959D01*
X69909722Y-51428197D01*
X70064443Y-51582918D01*
X70243681Y-51708422D01*
X70441990Y-51800895D01*
X70441996Y-51800896D01*
X70441997Y-51800897D01*
X70472684Y-51809119D01*
X70653343Y-51857527D01*
X70836246Y-51873528D01*
X70871318Y-51876597D01*
X70871320Y-51876597D01*
X70871322Y-51876597D01*
X70899574Y-51874125D01*
X71089297Y-51857527D01*
X71300650Y-51800895D01*
X71498959Y-51708422D01*
X71678197Y-51582918D01*
X71832918Y-51428197D01*
X71958422Y-51248959D01*
X72050895Y-51050650D01*
X72107527Y-50839297D01*
X72126597Y-50621320D01*
X72107527Y-50403343D01*
X72050895Y-50191990D01*
X71958422Y-49993682D01*
X71958420Y-49993679D01*
X71958419Y-49993677D01*
X71832919Y-49814444D01*
X71788823Y-49770348D01*
X71678197Y-49659722D01*
X71540298Y-49563164D01*
X71498958Y-49534217D01*
X71360578Y-49469690D01*
X71300650Y-49441745D01*
X71300646Y-49441744D01*
X71300642Y-49441742D01*
X71089297Y-49385113D01*
X70871322Y-49366043D01*
X70871318Y-49366043D01*
X70726002Y-49378756D01*
X70653343Y-49385113D01*
X70653340Y-49385113D01*
X70441997Y-49441742D01*
X70441988Y-49441746D01*
X70243681Y-49534218D01*
X70243677Y-49534220D01*
X70064441Y-49659722D01*
X69909722Y-49814441D01*
X69784220Y-49993677D01*
X69784218Y-49993681D01*
X69711687Y-50149225D01*
X69665515Y-50201664D01*
X69599305Y-50220820D01*
X69393674Y-50220820D01*
X69372598Y-50227667D01*
X69353689Y-50232207D01*
X69331802Y-50235674D01*
X69312059Y-50245733D01*
X69294095Y-50253174D01*
X69273017Y-50260023D01*
X69273012Y-50260026D01*
X69255084Y-50273051D01*
X69238504Y-50283211D01*
X69218767Y-50293268D01*
X69218766Y-50293268D01*
X69207483Y-50304551D01*
X69196201Y-50315833D01*
X69196200Y-50315833D01*
X66994513Y-52517520D01*
X66994513Y-52517521D01*
X66983231Y-52528803D01*
X66971948Y-52540086D01*
X66971948Y-52540087D01*
X66961891Y-52559824D01*
X66951731Y-52576404D01*
X66938706Y-52594332D01*
X66938703Y-52594337D01*
X66931854Y-52615415D01*
X66924413Y-52633379D01*
X66914354Y-52653122D01*
X66910887Y-52675009D01*
X66906347Y-52693918D01*
X66899500Y-52714994D01*
X66899500Y-55944859D01*
X66879815Y-56011898D01*
X66827011Y-56057653D01*
X66757853Y-56067597D01*
X66694297Y-56038572D01*
X66657794Y-55983863D01*
X66634905Y-55914790D01*
X66634903Y-55914785D01*
X66543629Y-55766808D01*
X66420691Y-55643870D01*
X66272714Y-55552596D01*
X66272709Y-55552594D01*
X66107673Y-55497907D01*
X66005815Y-55487500D01*
X65750000Y-55487500D01*
X65750000Y-56601000D01*
X65730315Y-56668039D01*
X65677511Y-56713794D01*
X65626000Y-56725000D01*
X61900000Y-56725000D01*
X61900000Y-56768315D01*
X61910407Y-56870173D01*
X61965094Y-57035209D01*
X61965096Y-57035214D01*
X62056370Y-57183191D01*
X62179308Y-57306129D01*
X62327285Y-57397403D01*
X62327290Y-57397405D01*
X62417965Y-57427452D01*
X62475410Y-57467225D01*
X62502233Y-57531740D01*
X62489918Y-57600516D01*
X62442375Y-57651716D01*
X62422297Y-57661339D01*
X62404444Y-57667997D01*
X62290669Y-57753169D01*
X62205498Y-57866943D01*
X62155828Y-58000112D01*
X62149500Y-58058962D01*
X62149500Y-58641017D01*
X62149501Y-58641026D01*
X62155828Y-58699891D01*
X62205497Y-58833054D01*
X62290669Y-58946831D01*
X62404446Y-59032003D01*
X62518837Y-59074669D01*
X62574767Y-59116539D01*
X62599184Y-59182003D01*
X62599500Y-59190849D01*
X62599500Y-59531420D01*
X62579815Y-59598459D01*
X62549134Y-59631190D01*
X62502853Y-59665347D01*
X62502850Y-59665350D01*
X62422207Y-59774617D01*
X62422206Y-59774619D01*
X62377353Y-59902798D01*
X62377353Y-59902800D01*
X62374500Y-59933230D01*
X62374500Y-60441769D01*
X62377353Y-60472199D01*
X62377353Y-60472201D01*
X62422206Y-60600380D01*
X62422207Y-60600382D01*
X62502850Y-60709650D01*
X62612118Y-60790293D01*
X62654845Y-60805244D01*
X62740299Y-60835146D01*
X62770730Y-60838000D01*
X62770734Y-60838000D01*
X63429270Y-60838000D01*
X63459699Y-60835146D01*
X63459701Y-60835146D01*
X63523790Y-60812719D01*
X63587882Y-60790293D01*
X63697150Y-60709650D01*
X63777793Y-60600382D01*
X63800219Y-60536290D01*
X63822646Y-60472201D01*
X63822646Y-60472199D01*
X63825500Y-60441769D01*
X63825500Y-59933230D01*
X63822646Y-59902800D01*
X63822646Y-59902798D01*
X63777793Y-59774619D01*
X63777792Y-59774617D01*
X63697150Y-59665350D01*
X63697146Y-59665347D01*
X63650866Y-59631190D01*
X63608615Y-59575542D01*
X63600500Y-59531420D01*
X63600500Y-59190849D01*
X63620185Y-59123810D01*
X63672989Y-59078055D01*
X63681137Y-59074678D01*
X63795554Y-59032003D01*
X63909331Y-58946831D01*
X63994503Y-58833054D01*
X64044171Y-58699891D01*
X64046536Y-58677883D01*
X64050499Y-58641037D01*
X64050499Y-58641026D01*
X64050500Y-58641021D01*
X64050499Y-58058980D01*
X64044171Y-58000109D01*
X63994503Y-57866946D01*
X63909331Y-57753169D01*
X63795554Y-57667997D01*
X63795553Y-57667996D01*
X63795554Y-57667996D01*
X63777704Y-57661339D01*
X63721770Y-57619468D01*
X63697354Y-57554003D01*
X63712206Y-57485730D01*
X63761612Y-57436325D01*
X63782034Y-57427452D01*
X63872709Y-57397405D01*
X63872714Y-57397403D01*
X64020691Y-57306129D01*
X64143629Y-57183191D01*
X64194461Y-57100781D01*
X64246409Y-57054057D01*
X64315372Y-57042835D01*
X64379454Y-57070678D01*
X64405539Y-57100781D01*
X64456370Y-57183191D01*
X64579308Y-57306129D01*
X64727285Y-57397403D01*
X64727290Y-57397405D01*
X64817965Y-57427452D01*
X64875410Y-57467225D01*
X64902233Y-57531740D01*
X64889918Y-57600516D01*
X64842375Y-57651716D01*
X64822297Y-57661339D01*
X64804444Y-57667997D01*
X64690669Y-57753169D01*
X64605498Y-57866943D01*
X64555828Y-58000112D01*
X64549500Y-58058962D01*
X64549500Y-58641017D01*
X64549501Y-58641026D01*
X64555828Y-58699891D01*
X64605497Y-58833054D01*
X64690669Y-58946831D01*
X64804446Y-59032003D01*
X64918837Y-59074669D01*
X64974767Y-59116539D01*
X64999184Y-59182003D01*
X64999500Y-59190849D01*
X64999500Y-59531420D01*
X64979815Y-59598459D01*
X64949134Y-59631190D01*
X64902853Y-59665347D01*
X64902850Y-59665350D01*
X64822207Y-59774617D01*
X64822206Y-59774619D01*
X64777353Y-59902798D01*
X64777353Y-59902800D01*
X64774500Y-59933230D01*
X64774500Y-60441769D01*
X64777353Y-60472199D01*
X64777353Y-60472201D01*
X64822206Y-60600380D01*
X64822207Y-60600382D01*
X64902850Y-60709650D01*
X65012118Y-60790293D01*
X65054845Y-60805244D01*
X65140299Y-60835146D01*
X65170730Y-60838000D01*
X65170734Y-60838000D01*
X65829270Y-60838000D01*
X65859699Y-60835146D01*
X65859701Y-60835146D01*
X65923790Y-60812719D01*
X65987882Y-60790293D01*
X66097150Y-60709650D01*
X66177793Y-60600382D01*
X66200219Y-60536290D01*
X66222646Y-60472201D01*
X66222646Y-60472199D01*
X66225500Y-60441769D01*
X66225500Y-59933230D01*
X66222646Y-59902800D01*
X66222646Y-59902798D01*
X66177793Y-59774619D01*
X66177792Y-59774617D01*
X66097150Y-59665350D01*
X66097146Y-59665347D01*
X66050866Y-59631190D01*
X66008615Y-59575542D01*
X66000500Y-59531420D01*
X66000500Y-59190849D01*
X66020185Y-59123810D01*
X66072989Y-59078055D01*
X66081137Y-59074678D01*
X66195554Y-59032003D01*
X66309331Y-58946831D01*
X66394503Y-58833054D01*
X66444171Y-58699891D01*
X66446536Y-58677883D01*
X66450499Y-58641037D01*
X66450499Y-58641026D01*
X66450500Y-58641021D01*
X66450499Y-58058980D01*
X66444171Y-58000109D01*
X66394503Y-57866946D01*
X66309331Y-57753169D01*
X66195554Y-57667997D01*
X66195553Y-57667996D01*
X66195554Y-57667996D01*
X66177704Y-57661339D01*
X66121770Y-57619468D01*
X66097354Y-57554003D01*
X66112206Y-57485730D01*
X66161612Y-57436325D01*
X66182034Y-57427452D01*
X66272709Y-57397405D01*
X66272714Y-57397403D01*
X66420691Y-57306129D01*
X66543629Y-57183191D01*
X66634903Y-57035214D01*
X66634905Y-57035209D01*
X66657794Y-56966136D01*
X66697566Y-56908691D01*
X66762082Y-56881868D01*
X66830858Y-56894183D01*
X66882058Y-56941726D01*
X66899500Y-57005140D01*
X66899500Y-61221542D01*
X66879815Y-61288581D01*
X66827011Y-61334336D01*
X66757853Y-61344280D01*
X66728049Y-61336104D01*
X66671714Y-61312770D01*
X66643709Y-61301170D01*
X66548088Y-61288581D01*
X66500001Y-61282250D01*
X66499999Y-61282250D01*
X66356291Y-61301170D01*
X66239425Y-61349576D01*
X66169956Y-61357043D01*
X66107477Y-61325768D01*
X66103894Y-61321753D01*
X66103724Y-61321924D01*
X66097152Y-61315353D01*
X66097150Y-61315350D01*
X65987882Y-61234707D01*
X65987880Y-61234706D01*
X65859700Y-61189853D01*
X65829270Y-61187000D01*
X65829266Y-61187000D01*
X65170734Y-61187000D01*
X65170730Y-61187000D01*
X65140300Y-61189853D01*
X65140298Y-61189853D01*
X65012119Y-61234706D01*
X65012117Y-61234707D01*
X64902850Y-61315350D01*
X64822207Y-61424617D01*
X64822206Y-61424619D01*
X64777353Y-61552798D01*
X64777353Y-61552800D01*
X64774500Y-61583230D01*
X64774500Y-62091769D01*
X64777353Y-62122199D01*
X64777353Y-62122201D01*
X64811980Y-62221156D01*
X64822207Y-62250382D01*
X64902850Y-62359650D01*
X64949134Y-62393809D01*
X64991384Y-62449454D01*
X64999500Y-62493578D01*
X64999500Y-65841324D01*
X64979815Y-65908363D01*
X64963181Y-65929005D01*
X63169526Y-67722659D01*
X63108203Y-67756144D01*
X63038511Y-67751160D01*
X62982579Y-67709290D01*
X62932546Y-67642454D01*
X62891400Y-67611652D01*
X62817335Y-67556206D01*
X62817329Y-67556203D01*
X62797529Y-67548818D01*
X62741596Y-67506946D01*
X62717179Y-67441482D01*
X62732031Y-67373209D01*
X62781437Y-67323804D01*
X62801860Y-67314930D01*
X62894117Y-67284359D01*
X62894124Y-67284356D01*
X63043345Y-67192315D01*
X63167315Y-67068345D01*
X63259356Y-66919124D01*
X63259358Y-66919119D01*
X63314505Y-66752697D01*
X63314506Y-66752690D01*
X63324999Y-66649986D01*
X63325000Y-66649973D01*
X63325000Y-66512500D01*
X60875001Y-66512500D01*
X60875001Y-66649986D01*
X60885494Y-66752697D01*
X60940641Y-66919119D01*
X60940643Y-66919124D01*
X61032684Y-67068345D01*
X61156654Y-67192315D01*
X61305875Y-67284356D01*
X61305880Y-67284358D01*
X61398140Y-67314930D01*
X61455585Y-67354702D01*
X61482408Y-67419218D01*
X61470093Y-67487994D01*
X61422550Y-67539194D01*
X61402471Y-67548817D01*
X61382674Y-67556201D01*
X61382664Y-67556206D01*
X61267455Y-67642452D01*
X61267452Y-67642455D01*
X61181205Y-67757665D01*
X61176956Y-67765449D01*
X61175481Y-67764643D01*
X61139834Y-67812266D01*
X61074370Y-67836684D01*
X61065521Y-67837000D01*
X60309339Y-67837000D01*
X60242300Y-67817315D01*
X60196545Y-67764511D01*
X60186865Y-67732395D01*
X60185646Y-67724697D01*
X60185646Y-67724696D01*
X60128050Y-67611658D01*
X60128046Y-67611654D01*
X60128045Y-67611652D01*
X60038347Y-67521954D01*
X60038344Y-67521952D01*
X60038342Y-67521950D01*
X59925304Y-67464354D01*
X59925303Y-67464353D01*
X59925300Y-67464352D01*
X59838352Y-67450581D01*
X59775217Y-67420651D01*
X59738286Y-67361340D01*
X59739284Y-67291477D01*
X59770067Y-67240429D01*
X59956431Y-67054065D01*
X59977068Y-67037435D01*
X59981128Y-67034827D01*
X60013640Y-66997304D01*
X60019674Y-66990823D01*
X60029220Y-66981278D01*
X60037314Y-66970464D01*
X60042852Y-66963590D01*
X60075377Y-66926057D01*
X60077377Y-66921676D01*
X60090911Y-66898867D01*
X60093795Y-66895015D01*
X60097701Y-66884540D01*
X60122318Y-66846236D01*
X60122315Y-66846234D01*
X60122363Y-66846167D01*
X60126210Y-66840181D01*
X60128050Y-66838342D01*
X60185646Y-66725304D01*
X60185646Y-66725302D01*
X60185647Y-66725301D01*
X60200499Y-66631524D01*
X60200500Y-66631519D01*
X60200499Y-66012500D01*
X60875000Y-66012500D01*
X61850000Y-66012500D01*
X61850000Y-65175000D01*
X62350000Y-65175000D01*
X62350000Y-66012500D01*
X63324999Y-66012500D01*
X63324999Y-65875028D01*
X63324998Y-65875013D01*
X63314505Y-65772302D01*
X63259358Y-65605880D01*
X63259356Y-65605875D01*
X63167315Y-65456654D01*
X63043345Y-65332684D01*
X62894124Y-65240643D01*
X62894119Y-65240641D01*
X62727697Y-65185494D01*
X62727690Y-65185493D01*
X62624986Y-65175000D01*
X62350000Y-65175000D01*
X61850000Y-65175000D01*
X61575029Y-65175000D01*
X61575012Y-65175001D01*
X61472302Y-65185494D01*
X61305880Y-65240641D01*
X61305875Y-65240643D01*
X61156654Y-65332684D01*
X61032684Y-65456654D01*
X60940643Y-65605875D01*
X60940641Y-65605880D01*
X60885494Y-65772302D01*
X60885493Y-65772309D01*
X60875000Y-65875013D01*
X60875000Y-66012500D01*
X60200499Y-66012500D01*
X60200499Y-65543482D01*
X60185646Y-65449696D01*
X60128050Y-65336658D01*
X60128046Y-65336654D01*
X60128045Y-65336652D01*
X60031442Y-65240049D01*
X60034156Y-65237334D01*
X60003017Y-65196884D01*
X59997095Y-65127266D01*
X60029752Y-65065498D01*
X60079604Y-65034284D01*
X60113801Y-65022952D01*
X60113811Y-65022948D01*
X60260534Y-64932447D01*
X60260538Y-64932444D01*
X60382444Y-64810538D01*
X60382447Y-64810534D01*
X60472948Y-64663811D01*
X60472953Y-64663800D01*
X60527180Y-64500152D01*
X60537499Y-64399154D01*
X60537500Y-64399141D01*
X60537500Y-64362500D01*
X59374000Y-64362500D01*
X59306961Y-64342815D01*
X59261206Y-64290011D01*
X59250000Y-64238500D01*
X59250000Y-63986500D01*
X59269685Y-63919461D01*
X59322489Y-63873706D01*
X59374000Y-63862500D01*
X60537499Y-63862500D01*
X60537499Y-63825860D01*
X60537498Y-63825845D01*
X60527180Y-63724847D01*
X60472953Y-63561199D01*
X60472948Y-63561188D01*
X60382447Y-63414465D01*
X60382444Y-63414461D01*
X60260538Y-63292555D01*
X60260534Y-63292552D01*
X60113811Y-63202051D01*
X60113800Y-63202046D01*
X59950152Y-63147819D01*
X59849154Y-63137500D01*
X59757175Y-63137500D01*
X59690136Y-63117815D01*
X59644381Y-63065011D01*
X59634437Y-62995853D01*
X59663462Y-62932297D01*
X59669480Y-62925833D01*
X60220995Y-62374319D01*
X60282318Y-62340834D01*
X60308676Y-62338000D01*
X62432712Y-62338000D01*
X62499751Y-62357685D01*
X62506345Y-62362230D01*
X62612113Y-62440290D01*
X62612115Y-62440291D01*
X62612118Y-62440293D01*
X62638299Y-62449454D01*
X62740299Y-62485146D01*
X62770730Y-62488000D01*
X62770734Y-62488000D01*
X63429270Y-62488000D01*
X63459699Y-62485146D01*
X63459701Y-62485146D01*
X63523790Y-62462719D01*
X63587882Y-62440293D01*
X63697150Y-62359650D01*
X63777793Y-62250382D01*
X63800219Y-62186290D01*
X63822646Y-62122201D01*
X63822646Y-62122199D01*
X63825500Y-62091769D01*
X63825500Y-61583230D01*
X63822646Y-61552800D01*
X63822646Y-61552798D01*
X63785812Y-61447536D01*
X63777793Y-61424618D01*
X63697150Y-61315350D01*
X63587882Y-61234707D01*
X63587880Y-61234706D01*
X63459700Y-61189853D01*
X63429270Y-61187000D01*
X63429266Y-61187000D01*
X62770734Y-61187000D01*
X62770730Y-61187000D01*
X62740300Y-61189853D01*
X62740298Y-61189853D01*
X62612119Y-61234706D01*
X62612113Y-61234709D01*
X62506345Y-61312770D01*
X62440716Y-61336741D01*
X62432712Y-61337000D01*
X60117143Y-61337000D01*
X60090785Y-61334166D01*
X60086074Y-61333141D01*
X60086070Y-61333141D01*
X60036539Y-61336684D01*
X60027692Y-61337000D01*
X60014200Y-61337000D01*
X60008063Y-61337882D01*
X60000840Y-61338920D01*
X59992054Y-61339865D01*
X59942516Y-61343409D01*
X59942513Y-61343410D01*
X59937986Y-61345098D01*
X59912327Y-61351646D01*
X59907550Y-61352333D01*
X59907543Y-61352335D01*
X59862365Y-61372966D01*
X59854191Y-61376351D01*
X59807675Y-61393700D01*
X59807664Y-61393706D01*
X59803799Y-61396600D01*
X59781020Y-61410115D01*
X59776636Y-61412117D01*
X59776625Y-61412124D01*
X59739108Y-61444632D01*
X59732226Y-61450178D01*
X59721403Y-61458280D01*
X59711854Y-61467829D01*
X59705384Y-61473853D01*
X59667861Y-61506367D01*
X59667854Y-61506376D01*
X59665243Y-61510438D01*
X59648616Y-61531068D01*
X57862680Y-63317004D01*
X57801357Y-63350489D01*
X57731665Y-63345505D01*
X57687318Y-63317004D01*
X57286819Y-62916505D01*
X57253334Y-62855182D01*
X57250500Y-62828824D01*
X57250500Y-59796740D01*
X58169311Y-59796740D01*
X58257585Y-59851397D01*
X58447678Y-59925039D01*
X58648072Y-59962500D01*
X58851928Y-59962500D01*
X59052322Y-59925039D01*
X59242412Y-59851399D01*
X59242416Y-59851397D01*
X59330686Y-59796741D01*
X59330686Y-59796740D01*
X58750001Y-59216053D01*
X58750000Y-59216053D01*
X58169311Y-59796740D01*
X57250500Y-59796740D01*
X57250500Y-59613321D01*
X57270185Y-59546282D01*
X57301613Y-59513004D01*
X57322230Y-59498026D01*
X57441859Y-59365165D01*
X57503378Y-59258609D01*
X57553942Y-59210397D01*
X57622549Y-59197173D01*
X57687414Y-59223141D01*
X57721763Y-59265340D01*
X57810751Y-59444051D01*
X57812533Y-59446411D01*
X58396446Y-58862500D01*
X58368286Y-58834340D01*
X58446105Y-58834340D01*
X58456454Y-58946021D01*
X58506448Y-59046422D01*
X58589334Y-59121984D01*
X58693920Y-59162500D01*
X58777802Y-59162500D01*
X58860250Y-59147088D01*
X58955610Y-59088043D01*
X59023201Y-58998538D01*
X59053895Y-58890660D01*
X59051286Y-58862500D01*
X59103553Y-58862500D01*
X59687465Y-59446412D01*
X59689247Y-59444053D01*
X59689248Y-59444051D01*
X59780113Y-59261569D01*
X59780116Y-59261563D01*
X59835902Y-59065492D01*
X59835903Y-59065489D01*
X59854713Y-58862500D01*
X59854713Y-58862499D01*
X59835903Y-58659510D01*
X59835902Y-58659507D01*
X59780116Y-58463436D01*
X59780113Y-58463430D01*
X59689249Y-58280949D01*
X59689247Y-58280947D01*
X59687465Y-58278587D01*
X59103553Y-58862500D01*
X59051286Y-58862500D01*
X59043546Y-58778979D01*
X58993552Y-58678578D01*
X58910666Y-58603016D01*
X58806080Y-58562500D01*
X58722198Y-58562500D01*
X58639750Y-58577912D01*
X58544390Y-58636957D01*
X58476799Y-58726462D01*
X58446105Y-58834340D01*
X58368286Y-58834340D01*
X57812533Y-58278587D01*
X57810756Y-58280941D01*
X57721763Y-58459660D01*
X57674259Y-58510896D01*
X57606596Y-58528317D01*
X57540256Y-58506391D01*
X57503378Y-58466389D01*
X57441859Y-58359835D01*
X57433904Y-58351001D01*
X57322235Y-58226978D01*
X57322232Y-58226976D01*
X57322231Y-58226975D01*
X57322230Y-58226974D01*
X57177593Y-58121888D01*
X57014267Y-58049171D01*
X57014265Y-58049170D01*
X56886594Y-58022033D01*
X56839391Y-58012000D01*
X56660609Y-58012000D01*
X56629954Y-58018515D01*
X56485733Y-58049170D01*
X56485728Y-58049172D01*
X56322408Y-58121887D01*
X56177768Y-58226975D01*
X56058140Y-58359836D01*
X55968750Y-58514664D01*
X55968747Y-58514670D01*
X55913504Y-58684692D01*
X55913503Y-58684694D01*
X55894815Y-58862500D01*
X55913503Y-59040305D01*
X55913504Y-59040307D01*
X55968747Y-59210329D01*
X55968750Y-59210335D01*
X56058141Y-59365165D01*
X56177770Y-59498026D01*
X56198385Y-59513003D01*
X56241050Y-59568330D01*
X56249500Y-59613321D01*
X56249500Y-63020358D01*
X56246667Y-63046706D01*
X56245641Y-63051427D01*
X56245641Y-63051429D01*
X56245641Y-63051430D01*
X56249184Y-63100961D01*
X56249500Y-63109808D01*
X56249500Y-63123297D01*
X56251420Y-63136654D01*
X56252365Y-63145446D01*
X56255909Y-63194986D01*
X56257593Y-63199500D01*
X56264148Y-63225182D01*
X56264834Y-63229955D01*
X56285457Y-63275112D01*
X56288845Y-63283290D01*
X56306203Y-63329829D01*
X56309096Y-63333694D01*
X56322617Y-63356483D01*
X56324619Y-63360867D01*
X56324622Y-63360872D01*
X56324623Y-63360873D01*
X56357144Y-63398404D01*
X56362688Y-63405285D01*
X56370779Y-63416093D01*
X56380333Y-63425647D01*
X56386353Y-63432114D01*
X56418872Y-63469643D01*
X56418874Y-63469645D01*
X56422928Y-63472250D01*
X56443571Y-63488885D01*
X56950681Y-63995995D01*
X56984166Y-64057318D01*
X56987000Y-64083676D01*
X56987000Y-64396690D01*
X56993248Y-64454799D01*
X57032354Y-64559644D01*
X57042288Y-64586278D01*
X57126384Y-64698616D01*
X57224811Y-64772298D01*
X57266682Y-64828232D01*
X57274500Y-64871565D01*
X57274500Y-65301884D01*
X57260985Y-65358176D01*
X57258637Y-65362787D01*
X57214352Y-65449698D01*
X57199500Y-65543475D01*
X57199500Y-66631517D01*
X57210292Y-66699657D01*
X57214354Y-66725304D01*
X57240290Y-66776207D01*
X57253489Y-66823652D01*
X57255909Y-66857484D01*
X57257593Y-66861999D01*
X57264148Y-66887681D01*
X57264834Y-66892454D01*
X57264835Y-66892456D01*
X57282703Y-66931582D01*
X57285457Y-66937611D01*
X57288845Y-66945789D01*
X57306204Y-66992330D01*
X57309096Y-66996193D01*
X57322617Y-67018982D01*
X57324619Y-67023366D01*
X57324622Y-67023371D01*
X57324623Y-67023372D01*
X57357144Y-67060903D01*
X57362688Y-67067784D01*
X57370779Y-67078592D01*
X57380333Y-67088146D01*
X57386353Y-67094613D01*
X57418872Y-67132142D01*
X57422926Y-67134747D01*
X57443571Y-67151384D01*
X57545920Y-67253733D01*
X57579405Y-67315056D01*
X57574421Y-67384748D01*
X57532549Y-67440681D01*
X57483943Y-67461223D01*
X57483981Y-67461337D01*
X57482653Y-67461768D01*
X57477643Y-67463886D01*
X57474703Y-67464351D01*
X57474699Y-67464352D01*
X57428300Y-67487994D01*
X57361658Y-67521950D01*
X57361657Y-67521951D01*
X57361652Y-67521954D01*
X57271954Y-67611652D01*
X57271951Y-67611657D01*
X57271950Y-67611658D01*
X57264975Y-67625347D01*
X57214352Y-67724698D01*
X57214352Y-67724699D01*
X57209174Y-67757397D01*
X57179245Y-67820532D01*
X57119934Y-67857464D01*
X57086701Y-67862000D01*
X56503402Y-67862000D01*
X56436363Y-67842315D01*
X56403631Y-67811632D01*
X56397150Y-67802850D01*
X56312995Y-67740741D01*
X56270745Y-67685093D01*
X56265286Y-67615437D01*
X56298354Y-67553888D01*
X56349742Y-67522585D01*
X56364396Y-67518018D01*
X56509877Y-67430072D01*
X56630072Y-67309877D01*
X56718019Y-67164395D01*
X56768590Y-67002106D01*
X56775000Y-66931572D01*
X56775000Y-66925000D01*
X54825001Y-66925000D01*
X54825001Y-66931582D01*
X54831408Y-67002102D01*
X54831409Y-67002107D01*
X54881981Y-67164396D01*
X54969927Y-67309877D01*
X55090122Y-67430072D01*
X55235602Y-67518018D01*
X55250258Y-67522585D01*
X55308407Y-67561322D01*
X55336382Y-67625347D01*
X55325301Y-67694332D01*
X55287004Y-67740741D01*
X55202850Y-67802850D01*
X55122207Y-67912117D01*
X55122206Y-67912119D01*
X55077353Y-68040298D01*
X55077353Y-68040300D01*
X55074500Y-68070730D01*
X55074500Y-68579269D01*
X55077353Y-68609699D01*
X55077353Y-68609701D01*
X55118561Y-68727463D01*
X55122207Y-68737882D01*
X55202850Y-68847150D01*
X55312118Y-68927793D01*
X55334112Y-68935489D01*
X55440299Y-68972646D01*
X55470730Y-68975500D01*
X55470734Y-68975500D01*
X56129270Y-68975500D01*
X56159699Y-68972646D01*
X56159701Y-68972646D01*
X56223790Y-68950219D01*
X56287882Y-68927793D01*
X56302616Y-68916919D01*
X56342844Y-68887230D01*
X56408473Y-68863259D01*
X56416477Y-68863000D01*
X57086701Y-68863000D01*
X57153740Y-68882685D01*
X57199495Y-68935489D01*
X57209174Y-68967602D01*
X57214352Y-69000298D01*
X57214353Y-69000302D01*
X57214354Y-69000304D01*
X57230783Y-69032547D01*
X57235985Y-69042756D01*
X57249500Y-69099051D01*
X57249500Y-69846995D01*
X57242542Y-69887949D01*
X57202353Y-70002802D01*
X57199500Y-70033230D01*
X57199500Y-70691769D01*
X57202353Y-70722199D01*
X57202353Y-70722201D01*
X57244872Y-70843709D01*
X57247207Y-70850382D01*
X57327850Y-70959650D01*
X57437118Y-71040293D01*
X57479845Y-71055244D01*
X57565299Y-71085146D01*
X57595730Y-71088000D01*
X57595734Y-71088000D01*
X58104270Y-71088000D01*
X58134699Y-71085146D01*
X58134701Y-71085146D01*
X58198790Y-71062719D01*
X58262882Y-71040293D01*
X58372150Y-70959650D01*
X58452793Y-70850382D01*
X58486321Y-70754565D01*
X58497646Y-70722201D01*
X58497646Y-70722199D01*
X58500500Y-70691769D01*
X58500500Y-70033230D01*
X58497646Y-70002800D01*
X58497646Y-70002798D01*
X58464006Y-69906663D01*
X58452793Y-69874618D01*
X58372150Y-69765350D01*
X58300866Y-69712740D01*
X58258615Y-69657092D01*
X58250500Y-69612970D01*
X58250500Y-69099051D01*
X58264015Y-69042756D01*
X58269217Y-69032547D01*
X58285646Y-69000304D01*
X58285646Y-69000302D01*
X58285647Y-69000301D01*
X58298787Y-68917334D01*
X58300500Y-68906519D01*
X58300499Y-67874499D01*
X58320183Y-67807461D01*
X58372987Y-67761706D01*
X58424499Y-67750500D01*
X58975500Y-67750500D01*
X59042539Y-67770185D01*
X59088294Y-67822989D01*
X59099500Y-67874500D01*
X59099500Y-68906517D01*
X59105391Y-68943712D01*
X59114354Y-69000304D01*
X59130782Y-69032546D01*
X59135985Y-69042756D01*
X59149500Y-69099051D01*
X59149500Y-69577020D01*
X59129815Y-69644059D01*
X59093371Y-69677531D01*
X59094595Y-69679189D01*
X59087118Y-69684706D01*
X59087118Y-69684707D01*
X58977850Y-69765350D01*
X58897207Y-69874617D01*
X58897206Y-69874619D01*
X58852353Y-70002798D01*
X58852353Y-70002800D01*
X58849500Y-70033230D01*
X58849500Y-70691769D01*
X58852353Y-70722199D01*
X58852353Y-70722201D01*
X58894872Y-70843709D01*
X58897207Y-70850382D01*
X58977850Y-70959650D01*
X59087118Y-71040293D01*
X59129845Y-71055244D01*
X59215299Y-71085146D01*
X59245730Y-71088000D01*
X59245734Y-71088000D01*
X59754270Y-71088000D01*
X59784699Y-71085146D01*
X59784701Y-71085146D01*
X59848790Y-71062719D01*
X59912882Y-71040293D01*
X60022150Y-70959650D01*
X60102793Y-70850382D01*
X60136321Y-70754565D01*
X60147646Y-70722201D01*
X60147646Y-70722199D01*
X60150500Y-70691769D01*
X60150500Y-70234808D01*
X60150816Y-70225961D01*
X60151480Y-70216675D01*
X60154359Y-70176427D01*
X60153332Y-70171706D01*
X60150500Y-70145358D01*
X60150500Y-69099051D01*
X60164015Y-69042756D01*
X60169217Y-69032547D01*
X60185646Y-69000304D01*
X60186863Y-68992620D01*
X60194786Y-68942602D01*
X60224715Y-68879467D01*
X60284027Y-68842536D01*
X60317259Y-68838000D01*
X61065521Y-68838000D01*
X61132560Y-68857685D01*
X61178315Y-68910489D01*
X61180979Y-68916919D01*
X61181205Y-68917334D01*
X61267452Y-69032544D01*
X61267455Y-69032547D01*
X61382664Y-69118793D01*
X61382671Y-69118797D01*
X61517517Y-69169091D01*
X61517516Y-69169091D01*
X61524444Y-69169835D01*
X61577127Y-69175500D01*
X62622872Y-69175499D01*
X62682483Y-69169091D01*
X62817331Y-69118796D01*
X62932546Y-69032546D01*
X63010965Y-68927792D01*
X63018794Y-68917334D01*
X63023044Y-68909551D01*
X63024518Y-68910356D01*
X63060166Y-68862734D01*
X63125630Y-68838316D01*
X63134479Y-68838000D01*
X63195357Y-68838000D01*
X63221715Y-68840834D01*
X63226427Y-68841859D01*
X63275961Y-68838315D01*
X63284808Y-68838000D01*
X63298299Y-68838000D01*
X63311656Y-68836079D01*
X63320451Y-68835133D01*
X63369983Y-68831591D01*
X63374492Y-68829908D01*
X63400185Y-68823350D01*
X63404957Y-68822665D01*
X63450137Y-68802030D01*
X63458301Y-68798649D01*
X63504831Y-68781296D01*
X63508689Y-68778407D01*
X63531495Y-68764875D01*
X63535873Y-68762877D01*
X63573399Y-68730359D01*
X63580278Y-68724816D01*
X63591093Y-68716721D01*
X63600655Y-68707158D01*
X63607105Y-68701153D01*
X63644643Y-68668628D01*
X63647251Y-68664568D01*
X63663881Y-68643931D01*
X65806431Y-66501381D01*
X65827068Y-66484751D01*
X65831128Y-66482143D01*
X65863653Y-66444605D01*
X65869658Y-66438155D01*
X65879221Y-66428593D01*
X65887316Y-66417778D01*
X65892859Y-66410899D01*
X65925377Y-66373373D01*
X65927375Y-66368995D01*
X65940907Y-66346189D01*
X65943796Y-66342331D01*
X65961149Y-66295801D01*
X65964534Y-66287630D01*
X65967625Y-66280862D01*
X65985165Y-66242457D01*
X65985850Y-66237685D01*
X65992409Y-66211992D01*
X65993401Y-66209332D01*
X65994091Y-66207483D01*
X65997633Y-66157951D01*
X65998580Y-66149148D01*
X65999172Y-66145037D01*
X66000500Y-66135799D01*
X66000500Y-66122308D01*
X66000816Y-66113461D01*
X66002223Y-66093784D01*
X66004359Y-66063927D01*
X66003332Y-66059206D01*
X66000500Y-66032858D01*
X66000500Y-62493578D01*
X66020185Y-62426539D01*
X66050864Y-62393810D01*
X66097150Y-62359650D01*
X66097153Y-62359646D01*
X66103721Y-62353079D01*
X66106301Y-62355659D01*
X66147782Y-62324126D01*
X66217435Y-62318626D01*
X66239416Y-62325419D01*
X66356291Y-62373830D01*
X66483280Y-62390548D01*
X66499999Y-62392750D01*
X66500000Y-62392750D01*
X66500001Y-62392750D01*
X66514977Y-62390778D01*
X66643709Y-62373830D01*
X66728048Y-62338895D01*
X66797517Y-62331427D01*
X66859996Y-62362702D01*
X66895648Y-62422791D01*
X66899500Y-62453457D01*
X66899500Y-86763429D01*
X66899501Y-86763439D01*
X66906346Y-86784507D01*
X66910887Y-86803418D01*
X66914354Y-86825304D01*
X66914355Y-86825307D01*
X66924412Y-86845045D01*
X66931857Y-86863018D01*
X66938704Y-86884090D01*
X66951726Y-86902014D01*
X66961890Y-86918600D01*
X66971949Y-86938340D01*
X66971950Y-86938342D01*
X66991390Y-86957782D01*
X66991419Y-86957813D01*
X72243410Y-92209804D01*
X72243432Y-92209824D01*
X72261658Y-92228050D01*
X72281389Y-92238103D01*
X72297976Y-92248266D01*
X72315911Y-92261297D01*
X72315912Y-92261297D01*
X72315913Y-92261298D01*
X72323210Y-92265016D01*
X72374004Y-92312992D01*
X72390797Y-92380814D01*
X72368257Y-92446948D01*
X72313541Y-92490398D01*
X72266911Y-92499499D01*
X58457840Y-92499499D01*
X58390801Y-92479814D01*
X58345046Y-92427010D01*
X58335102Y-92357852D01*
X58364127Y-92294296D01*
X58382798Y-92276783D01*
X58671933Y-92056988D01*
X58688110Y-92041664D01*
X58688110Y-92041663D01*
X57444180Y-90797733D01*
X57634870Y-90634870D01*
X57797733Y-90444180D01*
X59039028Y-91685475D01*
X59039029Y-91685475D01*
X59170827Y-91530311D01*
X59170838Y-91530297D01*
X59374681Y-91229651D01*
X59374683Y-91229647D01*
X59544838Y-90908702D01*
X59544847Y-90908684D01*
X59679302Y-90571227D01*
X59679304Y-90571220D01*
X59776480Y-90221222D01*
X59776482Y-90221214D01*
X59835253Y-89862728D01*
X59854920Y-89500002D01*
X59854920Y-89499997D01*
X59835253Y-89137271D01*
X59776482Y-88778785D01*
X59776480Y-88778777D01*
X59679304Y-88428779D01*
X59679302Y-88428772D01*
X59544847Y-88091315D01*
X59544838Y-88091297D01*
X59374683Y-87770352D01*
X59374681Y-87770348D01*
X59170829Y-87469690D01*
X59170822Y-87469680D01*
X59039029Y-87314523D01*
X59039028Y-87314523D01*
X57797732Y-88555818D01*
X57634870Y-88365130D01*
X57444180Y-88202266D01*
X58688110Y-86958336D01*
X58688110Y-86958334D01*
X58671929Y-86943007D01*
X58671928Y-86943006D01*
X58382733Y-86723167D01*
X58382717Y-86723156D01*
X58071477Y-86535890D01*
X58071464Y-86535883D01*
X57741794Y-86383360D01*
X57741789Y-86383359D01*
X57397538Y-86267367D01*
X57042764Y-86189275D01*
X56681633Y-86150000D01*
X56318366Y-86150000D01*
X55957235Y-86189275D01*
X55602461Y-86267367D01*
X55258210Y-86383359D01*
X55258205Y-86383360D01*
X54928535Y-86535883D01*
X54928522Y-86535890D01*
X54617282Y-86723156D01*
X54617266Y-86723167D01*
X54328075Y-86943002D01*
X54311888Y-86958335D01*
X54311887Y-86958335D01*
X55555819Y-88202266D01*
X55365130Y-88365130D01*
X55202266Y-88555819D01*
X53960970Y-87314522D01*
X53960969Y-87314523D01*
X53829177Y-87469680D01*
X53829169Y-87469690D01*
X53727133Y-87620183D01*
X53673219Y-87664624D01*
X53603836Y-87672862D01*
X53541015Y-87642281D01*
X53504699Y-87582591D01*
X53500500Y-87550596D01*
X53500500Y-66425000D01*
X54825000Y-66425000D01*
X55550000Y-66425000D01*
X55550000Y-65775000D01*
X56050000Y-65775000D01*
X56050000Y-66425000D01*
X56774999Y-66425000D01*
X56774999Y-66418417D01*
X56768591Y-66347897D01*
X56768590Y-66347892D01*
X56718018Y-66185603D01*
X56630072Y-66040122D01*
X56509877Y-65919927D01*
X56364395Y-65831980D01*
X56364396Y-65831980D01*
X56202105Y-65781409D01*
X56202106Y-65781409D01*
X56131572Y-65775000D01*
X56050000Y-65775000D01*
X55550000Y-65775000D01*
X55549999Y-65774999D01*
X55468417Y-65775000D01*
X55397897Y-65781408D01*
X55397892Y-65781409D01*
X55235603Y-65831981D01*
X55090122Y-65919927D01*
X54969927Y-66040122D01*
X54881980Y-66185604D01*
X54831409Y-66347893D01*
X54825000Y-66418427D01*
X54825000Y-66425000D01*
X53500500Y-66425000D01*
X53500500Y-57928258D01*
X58169311Y-57928258D01*
X58750000Y-58508946D01*
X58750001Y-58508946D01*
X59330687Y-57928258D01*
X59242413Y-57873601D01*
X59242411Y-57873600D01*
X59052321Y-57799960D01*
X58851928Y-57762500D01*
X58648072Y-57762500D01*
X58447678Y-57799960D01*
X58257588Y-57873600D01*
X58257581Y-57873604D01*
X58169312Y-57928257D01*
X58169311Y-57928258D01*
X53500500Y-57928258D01*
X53500500Y-56225000D01*
X61900000Y-56225000D01*
X62850000Y-56225000D01*
X62850000Y-55487500D01*
X63350000Y-55487500D01*
X63350000Y-56225000D01*
X65250000Y-56225000D01*
X65250000Y-55487500D01*
X64994184Y-55487500D01*
X64892326Y-55497907D01*
X64727290Y-55552594D01*
X64727285Y-55552596D01*
X64579308Y-55643870D01*
X64456369Y-55766809D01*
X64456366Y-55766813D01*
X64405538Y-55849218D01*
X64353590Y-55895943D01*
X64284627Y-55907164D01*
X64220545Y-55879321D01*
X64194462Y-55849218D01*
X64143633Y-55766813D01*
X64143630Y-55766809D01*
X64020691Y-55643870D01*
X63872714Y-55552596D01*
X63872709Y-55552594D01*
X63707673Y-55497907D01*
X63605815Y-55487500D01*
X63350000Y-55487500D01*
X62850000Y-55487500D01*
X62594184Y-55487500D01*
X62492326Y-55497907D01*
X62327290Y-55552594D01*
X62327285Y-55552596D01*
X62179308Y-55643870D01*
X62056370Y-55766808D01*
X61965096Y-55914785D01*
X61965094Y-55914790D01*
X61910407Y-56079826D01*
X61900000Y-56181684D01*
X61900000Y-56225000D01*
X53500500Y-56225000D01*
X53500500Y-53449403D01*
X53520185Y-53382364D01*
X53572989Y-53336609D01*
X53642147Y-53326665D01*
X53705703Y-53355690D01*
X53727133Y-53379816D01*
X53829170Y-53530309D01*
X53829177Y-53530319D01*
X53960969Y-53685475D01*
X53960970Y-53685475D01*
X55202266Y-52444179D01*
X55365130Y-52634870D01*
X55555818Y-52797732D01*
X54311888Y-54041662D01*
X54311888Y-54041664D01*
X54328070Y-54056992D01*
X54328071Y-54056993D01*
X54617266Y-54276832D01*
X54617282Y-54276843D01*
X54928522Y-54464109D01*
X54928535Y-54464116D01*
X55258205Y-54616639D01*
X55258210Y-54616640D01*
X55602461Y-54732632D01*
X55957235Y-54810724D01*
X56318366Y-54849999D01*
X56318374Y-54850000D01*
X56681626Y-54850000D01*
X56681633Y-54849999D01*
X57042764Y-54810724D01*
X57397538Y-54732632D01*
X57741789Y-54616640D01*
X57741794Y-54616639D01*
X58071464Y-54464116D01*
X58071477Y-54464109D01*
X58382717Y-54276843D01*
X58382733Y-54276832D01*
X58671929Y-54056992D01*
X58688110Y-54041664D01*
X58688110Y-54041663D01*
X57444180Y-52797733D01*
X57634870Y-52634870D01*
X57797733Y-52444180D01*
X59039028Y-53685475D01*
X59039029Y-53685475D01*
X59170827Y-53530311D01*
X59170838Y-53530297D01*
X59374681Y-53229651D01*
X59374683Y-53229647D01*
X59544838Y-52908702D01*
X59544847Y-52908684D01*
X59679302Y-52571227D01*
X59679304Y-52571220D01*
X59776480Y-52221222D01*
X59776482Y-52221214D01*
X59835253Y-51862728D01*
X59854920Y-51500002D01*
X59854920Y-51499997D01*
X59835253Y-51137271D01*
X59776482Y-50778785D01*
X59776480Y-50778777D01*
X59679304Y-50428779D01*
X59679302Y-50428772D01*
X59544847Y-50091315D01*
X59544838Y-50091297D01*
X59374683Y-49770352D01*
X59374681Y-49770348D01*
X59170829Y-49469690D01*
X59170822Y-49469680D01*
X59039029Y-49314523D01*
X59039028Y-49314523D01*
X57797732Y-50555818D01*
X57634870Y-50365130D01*
X57444180Y-50202266D01*
X58688110Y-48958336D01*
X58688110Y-48958334D01*
X58671932Y-48943011D01*
X58382797Y-48723216D01*
X58341340Y-48666974D01*
X58336871Y-48597248D01*
X58370808Y-48536174D01*
X58432376Y-48503142D01*
X58457839Y-48500500D01*
X117542161Y-48500500D01*
X117609200Y-48520185D01*
G37*
%TD.AperFunction*%
%TD*%
M02*
