%TF.GenerationSoftware,KiCad,Pcbnew,7.0.11-rc3*%
%TF.CreationDate,2025-03-16T23:30:22+08:00*%
%TF.ProjectId,SDC 2,53444320-322e-46b6-9963-61645f706362,rev?*%
%TF.SameCoordinates,Original*%
%TF.FileFunction,Legend,Top*%
%TF.FilePolarity,Positive*%
%FSLAX46Y46*%
G04 Gerber Fmt 4.6, Leading zero omitted, Abs format (unit mm)*
G04 Created by KiCad (PCBNEW 7.0.11-rc3) date 2025-03-16 23:30:22*
%MOMM*%
%LPD*%
G01*
G04 APERTURE LIST*
%ADD10C,0.150000*%
%ADD11C,0.120000*%
%ADD12C,0.100000*%
G04 APERTURE END LIST*
D10*
X104451064Y-89368200D02*
X104565350Y-89406295D01*
X104565350Y-89406295D02*
X104755826Y-89406295D01*
X104755826Y-89406295D02*
X104832017Y-89368200D01*
X104832017Y-89368200D02*
X104870112Y-89330104D01*
X104870112Y-89330104D02*
X104908207Y-89253914D01*
X104908207Y-89253914D02*
X104908207Y-89177723D01*
X104908207Y-89177723D02*
X104870112Y-89101533D01*
X104870112Y-89101533D02*
X104832017Y-89063438D01*
X104832017Y-89063438D02*
X104755826Y-89025342D01*
X104755826Y-89025342D02*
X104603445Y-88987247D01*
X104603445Y-88987247D02*
X104527255Y-88949152D01*
X104527255Y-88949152D02*
X104489160Y-88911057D01*
X104489160Y-88911057D02*
X104451064Y-88834866D01*
X104451064Y-88834866D02*
X104451064Y-88758676D01*
X104451064Y-88758676D02*
X104489160Y-88682485D01*
X104489160Y-88682485D02*
X104527255Y-88644390D01*
X104527255Y-88644390D02*
X104603445Y-88606295D01*
X104603445Y-88606295D02*
X104793922Y-88606295D01*
X104793922Y-88606295D02*
X104908207Y-88644390D01*
X105251065Y-89406295D02*
X105251065Y-88606295D01*
X105251065Y-88606295D02*
X105441541Y-88606295D01*
X105441541Y-88606295D02*
X105555827Y-88644390D01*
X105555827Y-88644390D02*
X105632017Y-88720580D01*
X105632017Y-88720580D02*
X105670112Y-88796771D01*
X105670112Y-88796771D02*
X105708208Y-88949152D01*
X105708208Y-88949152D02*
X105708208Y-89063438D01*
X105708208Y-89063438D02*
X105670112Y-89215819D01*
X105670112Y-89215819D02*
X105632017Y-89292009D01*
X105632017Y-89292009D02*
X105555827Y-89368200D01*
X105555827Y-89368200D02*
X105441541Y-89406295D01*
X105441541Y-89406295D02*
X105251065Y-89406295D01*
X106508208Y-89330104D02*
X106470112Y-89368200D01*
X106470112Y-89368200D02*
X106355827Y-89406295D01*
X106355827Y-89406295D02*
X106279636Y-89406295D01*
X106279636Y-89406295D02*
X106165350Y-89368200D01*
X106165350Y-89368200D02*
X106089160Y-89292009D01*
X106089160Y-89292009D02*
X106051065Y-89215819D01*
X106051065Y-89215819D02*
X106012969Y-89063438D01*
X106012969Y-89063438D02*
X106012969Y-88949152D01*
X106012969Y-88949152D02*
X106051065Y-88796771D01*
X106051065Y-88796771D02*
X106089160Y-88720580D01*
X106089160Y-88720580D02*
X106165350Y-88644390D01*
X106165350Y-88644390D02*
X106279636Y-88606295D01*
X106279636Y-88606295D02*
X106355827Y-88606295D01*
X106355827Y-88606295D02*
X106470112Y-88644390D01*
X106470112Y-88644390D02*
X106508208Y-88682485D01*
X107422493Y-88682485D02*
X107460589Y-88644390D01*
X107460589Y-88644390D02*
X107536779Y-88606295D01*
X107536779Y-88606295D02*
X107727255Y-88606295D01*
X107727255Y-88606295D02*
X107803446Y-88644390D01*
X107803446Y-88644390D02*
X107841541Y-88682485D01*
X107841541Y-88682485D02*
X107879636Y-88758676D01*
X107879636Y-88758676D02*
X107879636Y-88834866D01*
X107879636Y-88834866D02*
X107841541Y-88949152D01*
X107841541Y-88949152D02*
X107384398Y-89406295D01*
X107384398Y-89406295D02*
X107879636Y-89406295D01*
X104946303Y-90694295D02*
X104679636Y-90313342D01*
X104489160Y-90694295D02*
X104489160Y-89894295D01*
X104489160Y-89894295D02*
X104793922Y-89894295D01*
X104793922Y-89894295D02*
X104870112Y-89932390D01*
X104870112Y-89932390D02*
X104908207Y-89970485D01*
X104908207Y-89970485D02*
X104946303Y-90046676D01*
X104946303Y-90046676D02*
X104946303Y-90160961D01*
X104946303Y-90160961D02*
X104908207Y-90237152D01*
X104908207Y-90237152D02*
X104870112Y-90275247D01*
X104870112Y-90275247D02*
X104793922Y-90313342D01*
X104793922Y-90313342D02*
X104489160Y-90313342D01*
X105593922Y-90656200D02*
X105517731Y-90694295D01*
X105517731Y-90694295D02*
X105365350Y-90694295D01*
X105365350Y-90694295D02*
X105289160Y-90656200D01*
X105289160Y-90656200D02*
X105251064Y-90580009D01*
X105251064Y-90580009D02*
X105251064Y-90275247D01*
X105251064Y-90275247D02*
X105289160Y-90199057D01*
X105289160Y-90199057D02*
X105365350Y-90160961D01*
X105365350Y-90160961D02*
X105517731Y-90160961D01*
X105517731Y-90160961D02*
X105593922Y-90199057D01*
X105593922Y-90199057D02*
X105632017Y-90275247D01*
X105632017Y-90275247D02*
X105632017Y-90351438D01*
X105632017Y-90351438D02*
X105251064Y-90427628D01*
X105898683Y-90160961D02*
X106089159Y-90694295D01*
X106089159Y-90694295D02*
X106279636Y-90160961D01*
X106584398Y-90618104D02*
X106622493Y-90656200D01*
X106622493Y-90656200D02*
X106584398Y-90694295D01*
X106584398Y-90694295D02*
X106546302Y-90656200D01*
X106546302Y-90656200D02*
X106584398Y-90618104D01*
X106584398Y-90618104D02*
X106584398Y-90694295D01*
X107536778Y-89970485D02*
X107574874Y-89932390D01*
X107574874Y-89932390D02*
X107651064Y-89894295D01*
X107651064Y-89894295D02*
X107841540Y-89894295D01*
X107841540Y-89894295D02*
X107917731Y-89932390D01*
X107917731Y-89932390D02*
X107955826Y-89970485D01*
X107955826Y-89970485D02*
X107993921Y-90046676D01*
X107993921Y-90046676D02*
X107993921Y-90122866D01*
X107993921Y-90122866D02*
X107955826Y-90237152D01*
X107955826Y-90237152D02*
X107498683Y-90694295D01*
X107498683Y-90694295D02*
X107993921Y-90694295D01*
X108489160Y-89894295D02*
X108565350Y-89894295D01*
X108565350Y-89894295D02*
X108641541Y-89932390D01*
X108641541Y-89932390D02*
X108679636Y-89970485D01*
X108679636Y-89970485D02*
X108717731Y-90046676D01*
X108717731Y-90046676D02*
X108755826Y-90199057D01*
X108755826Y-90199057D02*
X108755826Y-90389533D01*
X108755826Y-90389533D02*
X108717731Y-90541914D01*
X108717731Y-90541914D02*
X108679636Y-90618104D01*
X108679636Y-90618104D02*
X108641541Y-90656200D01*
X108641541Y-90656200D02*
X108565350Y-90694295D01*
X108565350Y-90694295D02*
X108489160Y-90694295D01*
X108489160Y-90694295D02*
X108412969Y-90656200D01*
X108412969Y-90656200D02*
X108374874Y-90618104D01*
X108374874Y-90618104D02*
X108336779Y-90541914D01*
X108336779Y-90541914D02*
X108298683Y-90389533D01*
X108298683Y-90389533D02*
X108298683Y-90199057D01*
X108298683Y-90199057D02*
X108336779Y-90046676D01*
X108336779Y-90046676D02*
X108374874Y-89970485D01*
X108374874Y-89970485D02*
X108412969Y-89932390D01*
X108412969Y-89932390D02*
X108489160Y-89894295D01*
X109060588Y-89970485D02*
X109098684Y-89932390D01*
X109098684Y-89932390D02*
X109174874Y-89894295D01*
X109174874Y-89894295D02*
X109365350Y-89894295D01*
X109365350Y-89894295D02*
X109441541Y-89932390D01*
X109441541Y-89932390D02*
X109479636Y-89970485D01*
X109479636Y-89970485D02*
X109517731Y-90046676D01*
X109517731Y-90046676D02*
X109517731Y-90122866D01*
X109517731Y-90122866D02*
X109479636Y-90237152D01*
X109479636Y-90237152D02*
X109022493Y-90694295D01*
X109022493Y-90694295D02*
X109517731Y-90694295D01*
X110241541Y-89894295D02*
X109860589Y-89894295D01*
X109860589Y-89894295D02*
X109822493Y-90275247D01*
X109822493Y-90275247D02*
X109860589Y-90237152D01*
X109860589Y-90237152D02*
X109936779Y-90199057D01*
X109936779Y-90199057D02*
X110127255Y-90199057D01*
X110127255Y-90199057D02*
X110203446Y-90237152D01*
X110203446Y-90237152D02*
X110241541Y-90275247D01*
X110241541Y-90275247D02*
X110279636Y-90351438D01*
X110279636Y-90351438D02*
X110279636Y-90541914D01*
X110279636Y-90541914D02*
X110241541Y-90618104D01*
X110241541Y-90618104D02*
X110203446Y-90656200D01*
X110203446Y-90656200D02*
X110127255Y-90694295D01*
X110127255Y-90694295D02*
X109936779Y-90694295D01*
X109936779Y-90694295D02*
X109860589Y-90656200D01*
X109860589Y-90656200D02*
X109822493Y-90618104D01*
X110622494Y-90618104D02*
X110660589Y-90656200D01*
X110660589Y-90656200D02*
X110622494Y-90694295D01*
X110622494Y-90694295D02*
X110584398Y-90656200D01*
X110584398Y-90656200D02*
X110622494Y-90618104D01*
X110622494Y-90618104D02*
X110622494Y-90694295D01*
X111155827Y-89894295D02*
X111232017Y-89894295D01*
X111232017Y-89894295D02*
X111308208Y-89932390D01*
X111308208Y-89932390D02*
X111346303Y-89970485D01*
X111346303Y-89970485D02*
X111384398Y-90046676D01*
X111384398Y-90046676D02*
X111422493Y-90199057D01*
X111422493Y-90199057D02*
X111422493Y-90389533D01*
X111422493Y-90389533D02*
X111384398Y-90541914D01*
X111384398Y-90541914D02*
X111346303Y-90618104D01*
X111346303Y-90618104D02*
X111308208Y-90656200D01*
X111308208Y-90656200D02*
X111232017Y-90694295D01*
X111232017Y-90694295D02*
X111155827Y-90694295D01*
X111155827Y-90694295D02*
X111079636Y-90656200D01*
X111079636Y-90656200D02*
X111041541Y-90618104D01*
X111041541Y-90618104D02*
X111003446Y-90541914D01*
X111003446Y-90541914D02*
X110965350Y-90389533D01*
X110965350Y-90389533D02*
X110965350Y-90199057D01*
X110965350Y-90199057D02*
X111003446Y-90046676D01*
X111003446Y-90046676D02*
X111041541Y-89970485D01*
X111041541Y-89970485D02*
X111079636Y-89932390D01*
X111079636Y-89932390D02*
X111155827Y-89894295D01*
X111689160Y-89894295D02*
X112184398Y-89894295D01*
X112184398Y-89894295D02*
X111917732Y-90199057D01*
X111917732Y-90199057D02*
X112032017Y-90199057D01*
X112032017Y-90199057D02*
X112108208Y-90237152D01*
X112108208Y-90237152D02*
X112146303Y-90275247D01*
X112146303Y-90275247D02*
X112184398Y-90351438D01*
X112184398Y-90351438D02*
X112184398Y-90541914D01*
X112184398Y-90541914D02*
X112146303Y-90618104D01*
X112146303Y-90618104D02*
X112108208Y-90656200D01*
X112108208Y-90656200D02*
X112032017Y-90694295D01*
X112032017Y-90694295D02*
X111803446Y-90694295D01*
X111803446Y-90694295D02*
X111727255Y-90656200D01*
X111727255Y-90656200D02*
X111689160Y-90618104D01*
X54061905Y-64754819D02*
X54061905Y-65564342D01*
X54061905Y-65564342D02*
X54109524Y-65659580D01*
X54109524Y-65659580D02*
X54157143Y-65707200D01*
X54157143Y-65707200D02*
X54252381Y-65754819D01*
X54252381Y-65754819D02*
X54442857Y-65754819D01*
X54442857Y-65754819D02*
X54538095Y-65707200D01*
X54538095Y-65707200D02*
X54585714Y-65659580D01*
X54585714Y-65659580D02*
X54633333Y-65564342D01*
X54633333Y-65564342D02*
X54633333Y-64754819D01*
X55633333Y-65754819D02*
X55061905Y-65754819D01*
X55347619Y-65754819D02*
X55347619Y-64754819D01*
X55347619Y-64754819D02*
X55252381Y-64897676D01*
X55252381Y-64897676D02*
X55157143Y-64992914D01*
X55157143Y-64992914D02*
X55061905Y-65040533D01*
X56252381Y-64754819D02*
X56347619Y-64754819D01*
X56347619Y-64754819D02*
X56442857Y-64802438D01*
X56442857Y-64802438D02*
X56490476Y-64850057D01*
X56490476Y-64850057D02*
X56538095Y-64945295D01*
X56538095Y-64945295D02*
X56585714Y-65135771D01*
X56585714Y-65135771D02*
X56585714Y-65373866D01*
X56585714Y-65373866D02*
X56538095Y-65564342D01*
X56538095Y-65564342D02*
X56490476Y-65659580D01*
X56490476Y-65659580D02*
X56442857Y-65707200D01*
X56442857Y-65707200D02*
X56347619Y-65754819D01*
X56347619Y-65754819D02*
X56252381Y-65754819D01*
X56252381Y-65754819D02*
X56157143Y-65707200D01*
X56157143Y-65707200D02*
X56109524Y-65659580D01*
X56109524Y-65659580D02*
X56061905Y-65564342D01*
X56061905Y-65564342D02*
X56014286Y-65373866D01*
X56014286Y-65373866D02*
X56014286Y-65135771D01*
X56014286Y-65135771D02*
X56061905Y-64945295D01*
X56061905Y-64945295D02*
X56109524Y-64850057D01*
X56109524Y-64850057D02*
X56157143Y-64802438D01*
X56157143Y-64802438D02*
X56252381Y-64754819D01*
X57994642Y-63042080D02*
X57947023Y-63089700D01*
X57947023Y-63089700D02*
X57804166Y-63137319D01*
X57804166Y-63137319D02*
X57708928Y-63137319D01*
X57708928Y-63137319D02*
X57566071Y-63089700D01*
X57566071Y-63089700D02*
X57470833Y-62994461D01*
X57470833Y-62994461D02*
X57423214Y-62899223D01*
X57423214Y-62899223D02*
X57375595Y-62708747D01*
X57375595Y-62708747D02*
X57375595Y-62565890D01*
X57375595Y-62565890D02*
X57423214Y-62375414D01*
X57423214Y-62375414D02*
X57470833Y-62280176D01*
X57470833Y-62280176D02*
X57566071Y-62184938D01*
X57566071Y-62184938D02*
X57708928Y-62137319D01*
X57708928Y-62137319D02*
X57804166Y-62137319D01*
X57804166Y-62137319D02*
X57947023Y-62184938D01*
X57947023Y-62184938D02*
X57994642Y-62232557D01*
X58947023Y-63137319D02*
X58375595Y-63137319D01*
X58661309Y-63137319D02*
X58661309Y-62137319D01*
X58661309Y-62137319D02*
X58566071Y-62280176D01*
X58566071Y-62280176D02*
X58470833Y-62375414D01*
X58470833Y-62375414D02*
X58375595Y-62423033D01*
X59804166Y-62137319D02*
X59613690Y-62137319D01*
X59613690Y-62137319D02*
X59518452Y-62184938D01*
X59518452Y-62184938D02*
X59470833Y-62232557D01*
X59470833Y-62232557D02*
X59375595Y-62375414D01*
X59375595Y-62375414D02*
X59327976Y-62565890D01*
X59327976Y-62565890D02*
X59327976Y-62946842D01*
X59327976Y-62946842D02*
X59375595Y-63042080D01*
X59375595Y-63042080D02*
X59423214Y-63089700D01*
X59423214Y-63089700D02*
X59518452Y-63137319D01*
X59518452Y-63137319D02*
X59708928Y-63137319D01*
X59708928Y-63137319D02*
X59804166Y-63089700D01*
X59804166Y-63089700D02*
X59851785Y-63042080D01*
X59851785Y-63042080D02*
X59899404Y-62946842D01*
X59899404Y-62946842D02*
X59899404Y-62708747D01*
X59899404Y-62708747D02*
X59851785Y-62613509D01*
X59851785Y-62613509D02*
X59804166Y-62565890D01*
X59804166Y-62565890D02*
X59708928Y-62518271D01*
X59708928Y-62518271D02*
X59518452Y-62518271D01*
X59518452Y-62518271D02*
X59423214Y-62565890D01*
X59423214Y-62565890D02*
X59375595Y-62613509D01*
X59375595Y-62613509D02*
X59327976Y-62708747D01*
X82111905Y-77754819D02*
X82111905Y-76754819D01*
X82683333Y-77754819D02*
X82254762Y-77183390D01*
X82683333Y-76754819D02*
X82111905Y-77326247D01*
X83540476Y-77088152D02*
X83540476Y-77754819D01*
X83302381Y-76707200D02*
X83064286Y-77421485D01*
X83064286Y-77421485D02*
X83683333Y-77421485D01*
X62054819Y-61655357D02*
X61578628Y-61988690D01*
X62054819Y-62226785D02*
X61054819Y-62226785D01*
X61054819Y-62226785D02*
X61054819Y-61845833D01*
X61054819Y-61845833D02*
X61102438Y-61750595D01*
X61102438Y-61750595D02*
X61150057Y-61702976D01*
X61150057Y-61702976D02*
X61245295Y-61655357D01*
X61245295Y-61655357D02*
X61388152Y-61655357D01*
X61388152Y-61655357D02*
X61483390Y-61702976D01*
X61483390Y-61702976D02*
X61531009Y-61750595D01*
X61531009Y-61750595D02*
X61578628Y-61845833D01*
X61578628Y-61845833D02*
X61578628Y-62226785D01*
X62054819Y-60702976D02*
X62054819Y-61274404D01*
X62054819Y-60988690D02*
X61054819Y-60988690D01*
X61054819Y-60988690D02*
X61197676Y-61083928D01*
X61197676Y-61083928D02*
X61292914Y-61179166D01*
X61292914Y-61179166D02*
X61340533Y-61274404D01*
X61483390Y-60131547D02*
X61435771Y-60226785D01*
X61435771Y-60226785D02*
X61388152Y-60274404D01*
X61388152Y-60274404D02*
X61292914Y-60322023D01*
X61292914Y-60322023D02*
X61245295Y-60322023D01*
X61245295Y-60322023D02*
X61150057Y-60274404D01*
X61150057Y-60274404D02*
X61102438Y-60226785D01*
X61102438Y-60226785D02*
X61054819Y-60131547D01*
X61054819Y-60131547D02*
X61054819Y-59941071D01*
X61054819Y-59941071D02*
X61102438Y-59845833D01*
X61102438Y-59845833D02*
X61150057Y-59798214D01*
X61150057Y-59798214D02*
X61245295Y-59750595D01*
X61245295Y-59750595D02*
X61292914Y-59750595D01*
X61292914Y-59750595D02*
X61388152Y-59798214D01*
X61388152Y-59798214D02*
X61435771Y-59845833D01*
X61435771Y-59845833D02*
X61483390Y-59941071D01*
X61483390Y-59941071D02*
X61483390Y-60131547D01*
X61483390Y-60131547D02*
X61531009Y-60226785D01*
X61531009Y-60226785D02*
X61578628Y-60274404D01*
X61578628Y-60274404D02*
X61673866Y-60322023D01*
X61673866Y-60322023D02*
X61864342Y-60322023D01*
X61864342Y-60322023D02*
X61959580Y-60274404D01*
X61959580Y-60274404D02*
X62007200Y-60226785D01*
X62007200Y-60226785D02*
X62054819Y-60131547D01*
X62054819Y-60131547D02*
X62054819Y-59941071D01*
X62054819Y-59941071D02*
X62007200Y-59845833D01*
X62007200Y-59845833D02*
X61959580Y-59798214D01*
X61959580Y-59798214D02*
X61864342Y-59750595D01*
X61864342Y-59750595D02*
X61673866Y-59750595D01*
X61673866Y-59750595D02*
X61578628Y-59798214D01*
X61578628Y-59798214D02*
X61531009Y-59845833D01*
X61531009Y-59845833D02*
X61483390Y-59941071D01*
X61357142Y-71067319D02*
X61023809Y-70591128D01*
X60785714Y-71067319D02*
X60785714Y-70067319D01*
X60785714Y-70067319D02*
X61166666Y-70067319D01*
X61166666Y-70067319D02*
X61261904Y-70114938D01*
X61261904Y-70114938D02*
X61309523Y-70162557D01*
X61309523Y-70162557D02*
X61357142Y-70257795D01*
X61357142Y-70257795D02*
X61357142Y-70400652D01*
X61357142Y-70400652D02*
X61309523Y-70495890D01*
X61309523Y-70495890D02*
X61261904Y-70543509D01*
X61261904Y-70543509D02*
X61166666Y-70591128D01*
X61166666Y-70591128D02*
X60785714Y-70591128D01*
X61690476Y-70067319D02*
X62309523Y-70067319D01*
X62309523Y-70067319D02*
X61976190Y-70448271D01*
X61976190Y-70448271D02*
X62119047Y-70448271D01*
X62119047Y-70448271D02*
X62214285Y-70495890D01*
X62214285Y-70495890D02*
X62261904Y-70543509D01*
X62261904Y-70543509D02*
X62309523Y-70638747D01*
X62309523Y-70638747D02*
X62309523Y-70876842D01*
X62309523Y-70876842D02*
X62261904Y-70972080D01*
X62261904Y-70972080D02*
X62214285Y-71019700D01*
X62214285Y-71019700D02*
X62119047Y-71067319D01*
X62119047Y-71067319D02*
X61833333Y-71067319D01*
X61833333Y-71067319D02*
X61738095Y-71019700D01*
X61738095Y-71019700D02*
X61690476Y-70972080D01*
X62642857Y-70067319D02*
X63261904Y-70067319D01*
X63261904Y-70067319D02*
X62928571Y-70448271D01*
X62928571Y-70448271D02*
X63071428Y-70448271D01*
X63071428Y-70448271D02*
X63166666Y-70495890D01*
X63166666Y-70495890D02*
X63214285Y-70543509D01*
X63214285Y-70543509D02*
X63261904Y-70638747D01*
X63261904Y-70638747D02*
X63261904Y-70876842D01*
X63261904Y-70876842D02*
X63214285Y-70972080D01*
X63214285Y-70972080D02*
X63166666Y-71019700D01*
X63166666Y-71019700D02*
X63071428Y-71067319D01*
X63071428Y-71067319D02*
X62785714Y-71067319D01*
X62785714Y-71067319D02*
X62690476Y-71019700D01*
X62690476Y-71019700D02*
X62642857Y-70972080D01*
X95811905Y-77754819D02*
X95811905Y-76754819D01*
X96383333Y-77754819D02*
X95954762Y-77183390D01*
X96383333Y-76754819D02*
X95811905Y-77326247D01*
X96764286Y-76850057D02*
X96811905Y-76802438D01*
X96811905Y-76802438D02*
X96907143Y-76754819D01*
X96907143Y-76754819D02*
X97145238Y-76754819D01*
X97145238Y-76754819D02*
X97240476Y-76802438D01*
X97240476Y-76802438D02*
X97288095Y-76850057D01*
X97288095Y-76850057D02*
X97335714Y-76945295D01*
X97335714Y-76945295D02*
X97335714Y-77040533D01*
X97335714Y-77040533D02*
X97288095Y-77183390D01*
X97288095Y-77183390D02*
X96716667Y-77754819D01*
X96716667Y-77754819D02*
X97335714Y-77754819D01*
X67554819Y-61655357D02*
X67078628Y-61988690D01*
X67554819Y-62226785D02*
X66554819Y-62226785D01*
X66554819Y-62226785D02*
X66554819Y-61845833D01*
X66554819Y-61845833D02*
X66602438Y-61750595D01*
X66602438Y-61750595D02*
X66650057Y-61702976D01*
X66650057Y-61702976D02*
X66745295Y-61655357D01*
X66745295Y-61655357D02*
X66888152Y-61655357D01*
X66888152Y-61655357D02*
X66983390Y-61702976D01*
X66983390Y-61702976D02*
X67031009Y-61750595D01*
X67031009Y-61750595D02*
X67078628Y-61845833D01*
X67078628Y-61845833D02*
X67078628Y-62226785D01*
X67554819Y-60702976D02*
X67554819Y-61274404D01*
X67554819Y-60988690D02*
X66554819Y-60988690D01*
X66554819Y-60988690D02*
X66697676Y-61083928D01*
X66697676Y-61083928D02*
X66792914Y-61179166D01*
X66792914Y-61179166D02*
X66840533Y-61274404D01*
X67554819Y-60226785D02*
X67554819Y-60036309D01*
X67554819Y-60036309D02*
X67507200Y-59941071D01*
X67507200Y-59941071D02*
X67459580Y-59893452D01*
X67459580Y-59893452D02*
X67316723Y-59798214D01*
X67316723Y-59798214D02*
X67126247Y-59750595D01*
X67126247Y-59750595D02*
X66745295Y-59750595D01*
X66745295Y-59750595D02*
X66650057Y-59798214D01*
X66650057Y-59798214D02*
X66602438Y-59845833D01*
X66602438Y-59845833D02*
X66554819Y-59941071D01*
X66554819Y-59941071D02*
X66554819Y-60131547D01*
X66554819Y-60131547D02*
X66602438Y-60226785D01*
X66602438Y-60226785D02*
X66650057Y-60274404D01*
X66650057Y-60274404D02*
X66745295Y-60322023D01*
X66745295Y-60322023D02*
X66983390Y-60322023D01*
X66983390Y-60322023D02*
X67078628Y-60274404D01*
X67078628Y-60274404D02*
X67126247Y-60226785D01*
X67126247Y-60226785D02*
X67173866Y-60131547D01*
X67173866Y-60131547D02*
X67173866Y-59941071D01*
X67173866Y-59941071D02*
X67126247Y-59845833D01*
X67126247Y-59845833D02*
X67078628Y-59798214D01*
X67078628Y-59798214D02*
X66983390Y-59750595D01*
X64209580Y-67942857D02*
X64257200Y-67990476D01*
X64257200Y-67990476D02*
X64304819Y-68133333D01*
X64304819Y-68133333D02*
X64304819Y-68228571D01*
X64304819Y-68228571D02*
X64257200Y-68371428D01*
X64257200Y-68371428D02*
X64161961Y-68466666D01*
X64161961Y-68466666D02*
X64066723Y-68514285D01*
X64066723Y-68514285D02*
X63876247Y-68561904D01*
X63876247Y-68561904D02*
X63733390Y-68561904D01*
X63733390Y-68561904D02*
X63542914Y-68514285D01*
X63542914Y-68514285D02*
X63447676Y-68466666D01*
X63447676Y-68466666D02*
X63352438Y-68371428D01*
X63352438Y-68371428D02*
X63304819Y-68228571D01*
X63304819Y-68228571D02*
X63304819Y-68133333D01*
X63304819Y-68133333D02*
X63352438Y-67990476D01*
X63352438Y-67990476D02*
X63400057Y-67942857D01*
X64304819Y-66990476D02*
X64304819Y-67561904D01*
X64304819Y-67276190D02*
X63304819Y-67276190D01*
X63304819Y-67276190D02*
X63447676Y-67371428D01*
X63447676Y-67371428D02*
X63542914Y-67466666D01*
X63542914Y-67466666D02*
X63590533Y-67561904D01*
X63304819Y-66657142D02*
X63304819Y-65990476D01*
X63304819Y-65990476D02*
X64304819Y-66419047D01*
X109753085Y-84095999D02*
X109753085Y-83095999D01*
X110324513Y-84095999D02*
X109895942Y-83524570D01*
X110324513Y-83095999D02*
X109753085Y-83667427D01*
X110657847Y-83095999D02*
X111276894Y-83095999D01*
X111276894Y-83095999D02*
X110943561Y-83476951D01*
X110943561Y-83476951D02*
X111086418Y-83476951D01*
X111086418Y-83476951D02*
X111181656Y-83524570D01*
X111181656Y-83524570D02*
X111229275Y-83572189D01*
X111229275Y-83572189D02*
X111276894Y-83667427D01*
X111276894Y-83667427D02*
X111276894Y-83905522D01*
X111276894Y-83905522D02*
X111229275Y-84000760D01*
X111229275Y-84000760D02*
X111181656Y-84048380D01*
X111181656Y-84048380D02*
X111086418Y-84095999D01*
X111086418Y-84095999D02*
X110800704Y-84095999D01*
X110800704Y-84095999D02*
X110705466Y-84048380D01*
X110705466Y-84048380D02*
X110657847Y-84000760D01*
X57583333Y-57722080D02*
X57535714Y-57769700D01*
X57535714Y-57769700D02*
X57392857Y-57817319D01*
X57392857Y-57817319D02*
X57297619Y-57817319D01*
X57297619Y-57817319D02*
X57154762Y-57769700D01*
X57154762Y-57769700D02*
X57059524Y-57674461D01*
X57059524Y-57674461D02*
X57011905Y-57579223D01*
X57011905Y-57579223D02*
X56964286Y-57388747D01*
X56964286Y-57388747D02*
X56964286Y-57245890D01*
X56964286Y-57245890D02*
X57011905Y-57055414D01*
X57011905Y-57055414D02*
X57059524Y-56960176D01*
X57059524Y-56960176D02*
X57154762Y-56864938D01*
X57154762Y-56864938D02*
X57297619Y-56817319D01*
X57297619Y-56817319D02*
X57392857Y-56817319D01*
X57392857Y-56817319D02*
X57535714Y-56864938D01*
X57535714Y-56864938D02*
X57583333Y-56912557D01*
X58488095Y-56817319D02*
X58011905Y-56817319D01*
X58011905Y-56817319D02*
X57964286Y-57293509D01*
X57964286Y-57293509D02*
X58011905Y-57245890D01*
X58011905Y-57245890D02*
X58107143Y-57198271D01*
X58107143Y-57198271D02*
X58345238Y-57198271D01*
X58345238Y-57198271D02*
X58440476Y-57245890D01*
X58440476Y-57245890D02*
X58488095Y-57293509D01*
X58488095Y-57293509D02*
X58535714Y-57388747D01*
X58535714Y-57388747D02*
X58535714Y-57626842D01*
X58535714Y-57626842D02*
X58488095Y-57722080D01*
X58488095Y-57722080D02*
X58440476Y-57769700D01*
X58440476Y-57769700D02*
X58345238Y-57817319D01*
X58345238Y-57817319D02*
X58107143Y-57817319D01*
X58107143Y-57817319D02*
X58011905Y-57769700D01*
X58011905Y-57769700D02*
X57964286Y-57722080D01*
X66761905Y-57867319D02*
X66761905Y-56867319D01*
X66761905Y-56867319D02*
X67000000Y-56867319D01*
X67000000Y-56867319D02*
X67142857Y-56914938D01*
X67142857Y-56914938D02*
X67238095Y-57010176D01*
X67238095Y-57010176D02*
X67285714Y-57105414D01*
X67285714Y-57105414D02*
X67333333Y-57295890D01*
X67333333Y-57295890D02*
X67333333Y-57438747D01*
X67333333Y-57438747D02*
X67285714Y-57629223D01*
X67285714Y-57629223D02*
X67238095Y-57724461D01*
X67238095Y-57724461D02*
X67142857Y-57819700D01*
X67142857Y-57819700D02*
X67000000Y-57867319D01*
X67000000Y-57867319D02*
X66761905Y-57867319D01*
X67809524Y-57867319D02*
X68000000Y-57867319D01*
X68000000Y-57867319D02*
X68095238Y-57819700D01*
X68095238Y-57819700D02*
X68142857Y-57772080D01*
X68142857Y-57772080D02*
X68238095Y-57629223D01*
X68238095Y-57629223D02*
X68285714Y-57438747D01*
X68285714Y-57438747D02*
X68285714Y-57057795D01*
X68285714Y-57057795D02*
X68238095Y-56962557D01*
X68238095Y-56962557D02*
X68190476Y-56914938D01*
X68190476Y-56914938D02*
X68095238Y-56867319D01*
X68095238Y-56867319D02*
X67904762Y-56867319D01*
X67904762Y-56867319D02*
X67809524Y-56914938D01*
X67809524Y-56914938D02*
X67761905Y-56962557D01*
X67761905Y-56962557D02*
X67714286Y-57057795D01*
X67714286Y-57057795D02*
X67714286Y-57295890D01*
X67714286Y-57295890D02*
X67761905Y-57391128D01*
X67761905Y-57391128D02*
X67809524Y-57438747D01*
X67809524Y-57438747D02*
X67904762Y-57486366D01*
X67904762Y-57486366D02*
X68095238Y-57486366D01*
X68095238Y-57486366D02*
X68190476Y-57438747D01*
X68190476Y-57438747D02*
X68238095Y-57391128D01*
X68238095Y-57391128D02*
X68285714Y-57295890D01*
X60261905Y-57867319D02*
X60261905Y-56867319D01*
X60261905Y-56867319D02*
X60500000Y-56867319D01*
X60500000Y-56867319D02*
X60642857Y-56914938D01*
X60642857Y-56914938D02*
X60738095Y-57010176D01*
X60738095Y-57010176D02*
X60785714Y-57105414D01*
X60785714Y-57105414D02*
X60833333Y-57295890D01*
X60833333Y-57295890D02*
X60833333Y-57438747D01*
X60833333Y-57438747D02*
X60785714Y-57629223D01*
X60785714Y-57629223D02*
X60738095Y-57724461D01*
X60738095Y-57724461D02*
X60642857Y-57819700D01*
X60642857Y-57819700D02*
X60500000Y-57867319D01*
X60500000Y-57867319D02*
X60261905Y-57867319D01*
X61404762Y-57295890D02*
X61309524Y-57248271D01*
X61309524Y-57248271D02*
X61261905Y-57200652D01*
X61261905Y-57200652D02*
X61214286Y-57105414D01*
X61214286Y-57105414D02*
X61214286Y-57057795D01*
X61214286Y-57057795D02*
X61261905Y-56962557D01*
X61261905Y-56962557D02*
X61309524Y-56914938D01*
X61309524Y-56914938D02*
X61404762Y-56867319D01*
X61404762Y-56867319D02*
X61595238Y-56867319D01*
X61595238Y-56867319D02*
X61690476Y-56914938D01*
X61690476Y-56914938D02*
X61738095Y-56962557D01*
X61738095Y-56962557D02*
X61785714Y-57057795D01*
X61785714Y-57057795D02*
X61785714Y-57105414D01*
X61785714Y-57105414D02*
X61738095Y-57200652D01*
X61738095Y-57200652D02*
X61690476Y-57248271D01*
X61690476Y-57248271D02*
X61595238Y-57295890D01*
X61595238Y-57295890D02*
X61404762Y-57295890D01*
X61404762Y-57295890D02*
X61309524Y-57343509D01*
X61309524Y-57343509D02*
X61261905Y-57391128D01*
X61261905Y-57391128D02*
X61214286Y-57486366D01*
X61214286Y-57486366D02*
X61214286Y-57676842D01*
X61214286Y-57676842D02*
X61261905Y-57772080D01*
X61261905Y-57772080D02*
X61309524Y-57819700D01*
X61309524Y-57819700D02*
X61404762Y-57867319D01*
X61404762Y-57867319D02*
X61595238Y-57867319D01*
X61595238Y-57867319D02*
X61690476Y-57819700D01*
X61690476Y-57819700D02*
X61738095Y-57772080D01*
X61738095Y-57772080D02*
X61785714Y-57676842D01*
X61785714Y-57676842D02*
X61785714Y-57486366D01*
X61785714Y-57486366D02*
X61738095Y-57391128D01*
X61738095Y-57391128D02*
X61690476Y-57343509D01*
X61690476Y-57343509D02*
X61595238Y-57295890D01*
X55157142Y-70279819D02*
X54823809Y-69803628D01*
X54585714Y-70279819D02*
X54585714Y-69279819D01*
X54585714Y-69279819D02*
X54966666Y-69279819D01*
X54966666Y-69279819D02*
X55061904Y-69327438D01*
X55061904Y-69327438D02*
X55109523Y-69375057D01*
X55109523Y-69375057D02*
X55157142Y-69470295D01*
X55157142Y-69470295D02*
X55157142Y-69613152D01*
X55157142Y-69613152D02*
X55109523Y-69708390D01*
X55109523Y-69708390D02*
X55061904Y-69756009D01*
X55061904Y-69756009D02*
X54966666Y-69803628D01*
X54966666Y-69803628D02*
X54585714Y-69803628D01*
X55490476Y-69279819D02*
X56109523Y-69279819D01*
X56109523Y-69279819D02*
X55776190Y-69660771D01*
X55776190Y-69660771D02*
X55919047Y-69660771D01*
X55919047Y-69660771D02*
X56014285Y-69708390D01*
X56014285Y-69708390D02*
X56061904Y-69756009D01*
X56061904Y-69756009D02*
X56109523Y-69851247D01*
X56109523Y-69851247D02*
X56109523Y-70089342D01*
X56109523Y-70089342D02*
X56061904Y-70184580D01*
X56061904Y-70184580D02*
X56014285Y-70232200D01*
X56014285Y-70232200D02*
X55919047Y-70279819D01*
X55919047Y-70279819D02*
X55633333Y-70279819D01*
X55633333Y-70279819D02*
X55538095Y-70232200D01*
X55538095Y-70232200D02*
X55490476Y-70184580D01*
X56966666Y-69613152D02*
X56966666Y-70279819D01*
X56728571Y-69232200D02*
X56490476Y-69946485D01*
X56490476Y-69946485D02*
X57109523Y-69946485D01*
X68611905Y-77654819D02*
X68611905Y-76654819D01*
X69183333Y-77654819D02*
X68754762Y-77083390D01*
X69183333Y-76654819D02*
X68611905Y-77226247D01*
X70135714Y-77654819D02*
X69564286Y-77654819D01*
X69850000Y-77654819D02*
X69850000Y-76654819D01*
X69850000Y-76654819D02*
X69754762Y-76797676D01*
X69754762Y-76797676D02*
X69659524Y-76892914D01*
X69659524Y-76892914D02*
X69564286Y-76940533D01*
D11*
%TO.C,D5*%
X110315000Y-85040000D02*
X110315000Y-86960000D01*
X110315000Y-86960000D02*
X113000000Y-86960000D01*
X113000000Y-85040000D02*
X110315000Y-85040000D01*
%TO.C,kibuzzard-67515DF6*%
G36*
X64068475Y-55712308D02*
G01*
X63671600Y-55712308D01*
X63096290Y-55712308D01*
X62669570Y-55712308D01*
X61711355Y-55712308D01*
X60928400Y-55712308D01*
X60531525Y-55712308D01*
X60531525Y-54381983D01*
X60928400Y-54381983D01*
X61004600Y-54576293D01*
X61120805Y-54529620D01*
X61242725Y-54461992D01*
X61242725Y-55121123D01*
X60995075Y-55121123D01*
X60995075Y-55315433D01*
X61711355Y-55315433D01*
X61711355Y-55121123D01*
X61477040Y-55121123D01*
X61477040Y-54265777D01*
X61871375Y-54265777D01*
X61987580Y-54429607D01*
X62107595Y-54340072D01*
X62223800Y-54313402D01*
X62334290Y-54352455D01*
X62378105Y-54463898D01*
X62342862Y-54564863D01*
X62253327Y-54667732D01*
X62197130Y-54722263D01*
X62137122Y-54779175D01*
X62077115Y-54839659D01*
X62020917Y-54904905D01*
X61971387Y-54975628D01*
X61931382Y-55052542D01*
X61904951Y-55136363D01*
X61896140Y-55227803D01*
X61895187Y-55267808D01*
X61899950Y-55315433D01*
X62669570Y-55315433D01*
X62669570Y-55121123D01*
X62162840Y-55121123D01*
X62182842Y-55058257D01*
X62231420Y-54990630D01*
X62292380Y-54925860D01*
X62349530Y-54871568D01*
X62446685Y-54776317D01*
X62532410Y-54673447D01*
X62593370Y-54563910D01*
X62616230Y-54446752D01*
X62585750Y-54299115D01*
X62503835Y-54193387D01*
X62396462Y-54136237D01*
X62766725Y-54136237D01*
X62788632Y-54242917D01*
X62820065Y-54376267D01*
X62845253Y-54476068D01*
X62872558Y-54579891D01*
X62901980Y-54687735D01*
X62933095Y-54797696D01*
X62965480Y-54907868D01*
X62999135Y-55018253D01*
X63049141Y-55175415D01*
X63096290Y-55315433D01*
X63338225Y-55315433D01*
X63374632Y-55213938D01*
X63410192Y-55110116D01*
X63444905Y-55003965D01*
X63478243Y-54897285D01*
X63509675Y-54791875D01*
X63539202Y-54687735D01*
X63579684Y-54536049D01*
X63615402Y-54391507D01*
X63646121Y-54257205D01*
X63671600Y-54136237D01*
X63425855Y-54136237D01*
X63408710Y-54235297D01*
X63387755Y-54349597D01*
X63363942Y-54473184D01*
X63338225Y-54600105D01*
X63310603Y-54727740D01*
X63281075Y-54853470D01*
X63250595Y-54971342D01*
X63220115Y-55075402D01*
X63189397Y-54969913D01*
X63158202Y-54851565D01*
X63127722Y-54725835D01*
X63099147Y-54598200D01*
X63072716Y-54471518D01*
X63048665Y-54348645D01*
X63028662Y-54235059D01*
X63014375Y-54136237D01*
X62766725Y-54136237D01*
X62396462Y-54136237D01*
X62385725Y-54130522D01*
X62246660Y-54109567D01*
X62147362Y-54119092D01*
X62047587Y-54147667D01*
X61953528Y-54196245D01*
X61871375Y-54265777D01*
X61477040Y-54265777D01*
X61477040Y-54136237D01*
X61317020Y-54136237D01*
X61235105Y-54210532D01*
X61134140Y-54279112D01*
X61027460Y-54338168D01*
X60928400Y-54381983D01*
X60531525Y-54381983D01*
X60531525Y-53712692D01*
X60928400Y-53712692D01*
X63671600Y-53712692D01*
X64068475Y-53712692D01*
X64068475Y-55712308D01*
G37*
%TO.C,U10*%
X60260000Y-67225000D02*
X60260000Y-65425000D01*
X60260000Y-67225000D02*
X60260000Y-68025000D01*
X57140000Y-67225000D02*
X57140000Y-66425000D01*
X57140000Y-67225000D02*
X57140000Y-68025000D01*
%TO.C,C16*%
X58491233Y-63602500D02*
X58783767Y-63602500D01*
X58491233Y-64622500D02*
X58783767Y-64622500D01*
D10*
%TO.C,JP1*%
X109680000Y-52600000D02*
X110180000Y-52100000D01*
X109680000Y-53400000D02*
X109680000Y-52600000D01*
X110180000Y-52100000D02*
X113780000Y-52100000D01*
X110180000Y-53900000D02*
X109680000Y-53400000D01*
X113780000Y-52100000D02*
X114280000Y-52600000D01*
X113780000Y-53900000D02*
X110180000Y-53900000D01*
X114280000Y-52600000D02*
X114280000Y-53400000D01*
X114280000Y-53400000D02*
X113780000Y-53900000D01*
D11*
%TO.C,K4*%
X94711320Y-78261320D02*
X92521320Y-78261320D01*
X94711320Y-75921320D02*
X94711320Y-78261320D01*
X94471320Y-78021320D02*
X94471320Y-49021320D01*
X94471320Y-49021320D02*
X81771320Y-49021320D01*
X88471320Y-76221320D02*
X88471320Y-75021320D01*
X88471320Y-75421320D02*
X87771320Y-75821320D01*
X88471320Y-75021320D02*
X87771320Y-75021320D01*
X87771320Y-76221320D02*
X88471320Y-76221320D01*
X87771320Y-75021320D02*
X87771320Y-76221320D01*
X81771320Y-78021320D02*
X94471320Y-78021320D01*
X81771320Y-49021320D02*
X81771320Y-78021320D01*
%TO.C,kibuzzard-67515B78*%
G36*
X67627930Y-80611442D02*
G01*
X67682222Y-80734315D01*
X67663172Y-80819087D01*
X67614595Y-80870522D01*
X67546967Y-80895287D01*
X67468862Y-80901955D01*
X67410760Y-80900050D01*
X67356467Y-80894335D01*
X67356467Y-80574295D01*
X67482197Y-80574295D01*
X67627930Y-80611442D01*
G37*
G36*
X67526012Y-80106617D02*
G01*
X67579352Y-80125667D01*
X67615547Y-80165672D01*
X67628882Y-80233300D01*
X67583162Y-80340932D01*
X67447907Y-80379985D01*
X67356467Y-80379985D01*
X67356467Y-80109475D01*
X67407902Y-80103760D01*
X67463147Y-80101855D01*
X67526012Y-80106617D01*
G37*
G36*
X69461731Y-80112571D02*
G01*
X69527215Y-80144717D01*
X69569363Y-80202582D01*
X69583413Y-80290450D01*
X69569125Y-80383081D01*
X69526262Y-80443802D01*
X69455301Y-80477378D01*
X69356717Y-80488570D01*
X69261467Y-80488570D01*
X69261467Y-80107570D01*
X69319570Y-80102807D01*
X69377672Y-80101855D01*
X69461731Y-80112571D01*
G37*
G36*
X70410182Y-80135192D02*
G01*
X70488288Y-80223775D01*
X70528292Y-80351410D01*
X70539723Y-80500000D01*
X70536151Y-80584058D01*
X70525435Y-80660972D01*
X70477810Y-80787655D01*
X70390180Y-80871475D01*
X70255877Y-80901955D01*
X70234923Y-80901955D01*
X70213967Y-80900050D01*
X70213967Y-80107570D01*
X70248257Y-80102807D01*
X70282548Y-80101855D01*
X70410182Y-80135192D01*
G37*
G36*
X71174723Y-81512190D02*
G01*
X70777848Y-81512190D01*
X70231112Y-81512190D01*
X69261467Y-81512190D01*
X68413742Y-81512190D01*
X67449812Y-81512190D01*
X67122152Y-81512190D01*
X66725277Y-81512190D01*
X66725277Y-81071500D01*
X67122152Y-81071500D01*
X67204544Y-81086502D01*
X67287887Y-81097217D01*
X67370279Y-81103647D01*
X67449812Y-81105790D01*
X67543872Y-81101266D01*
X67631740Y-81087692D01*
X67710797Y-81063404D01*
X67778425Y-81026732D01*
X67779242Y-81025780D01*
X68047982Y-81025780D01*
X68179427Y-81083882D01*
X68281821Y-81107457D01*
X68413742Y-81115315D01*
X68547410Y-81105261D01*
X68600523Y-81090550D01*
X69027152Y-81090550D01*
X69261467Y-81090550D01*
X69261467Y-81077215D01*
X69979652Y-81077215D01*
X70108240Y-81099122D01*
X70231112Y-81105790D01*
X70346127Y-81097456D01*
X70451140Y-81072452D01*
X70544247Y-81029352D01*
X70623543Y-80966725D01*
X70688074Y-80883619D01*
X70736890Y-80779082D01*
X70767608Y-80651686D01*
X70777848Y-80500000D01*
X70768561Y-80351648D01*
X70740700Y-80226632D01*
X70696171Y-80123286D01*
X70636878Y-80039942D01*
X70562821Y-79976363D01*
X70474000Y-79932310D01*
X70372797Y-79906592D01*
X70261592Y-79898020D01*
X70130148Y-79903735D01*
X69979652Y-79926595D01*
X69979652Y-81077215D01*
X69261467Y-81077215D01*
X69261467Y-80692405D01*
X69345288Y-80692405D01*
X69486152Y-80681927D01*
X69603944Y-80650495D01*
X69698665Y-80598107D01*
X69767986Y-80522225D01*
X69809578Y-80420307D01*
X69823443Y-80292355D01*
X69809684Y-80165672D01*
X69768409Y-80065025D01*
X69699617Y-79990412D01*
X69605849Y-79939083D01*
X69489644Y-79908286D01*
X69351003Y-79898020D01*
X69276708Y-79899925D01*
X69190982Y-79904687D01*
X69104305Y-79913260D01*
X69027152Y-79926595D01*
X69027152Y-81090550D01*
X68600523Y-81090550D01*
X68656312Y-81075098D01*
X68740450Y-81024827D01*
X68821174Y-80915528D01*
X68848082Y-80768605D01*
X68839986Y-80679784D01*
X68815697Y-80607632D01*
X68732830Y-80500952D01*
X68622340Y-80432372D01*
X68507087Y-80385700D01*
X68433745Y-80357125D01*
X68367070Y-80321882D01*
X68318492Y-80276162D01*
X68299442Y-80216155D01*
X68320186Y-80141013D01*
X68382416Y-80095928D01*
X68486132Y-80080900D01*
X68620435Y-80099950D01*
X68726162Y-80145670D01*
X68794743Y-79964695D01*
X68658535Y-79909450D01*
X68570667Y-79890876D01*
X68468987Y-79884685D01*
X68352253Y-79895057D01*
X68253511Y-79926172D01*
X68172760Y-79978030D01*
X68092036Y-80089472D01*
X68065127Y-80237110D01*
X68095607Y-80377127D01*
X68172760Y-80471425D01*
X68276582Y-80534290D01*
X68387072Y-80578105D01*
X68467082Y-80611442D01*
X68539472Y-80651447D01*
X68592812Y-80701930D01*
X68613767Y-80766700D01*
X68605195Y-80822897D01*
X68573762Y-80872427D01*
X68511850Y-80906717D01*
X68413742Y-80919100D01*
X68318731Y-80912432D01*
X68239435Y-80892430D01*
X68116562Y-80835280D01*
X68047982Y-81025780D01*
X67779242Y-81025780D01*
X67876532Y-80912432D01*
X67903679Y-80832184D01*
X67912727Y-80734315D01*
X67902012Y-80654305D01*
X67869865Y-80578105D01*
X67807714Y-80511430D01*
X67706987Y-80459995D01*
X67816525Y-80357125D01*
X67847243Y-80287592D01*
X67857482Y-80208535D01*
X67840337Y-80098045D01*
X67775567Y-79998032D01*
X67644122Y-79925642D01*
X67547920Y-79904926D01*
X67426952Y-79898020D01*
X67268837Y-79906592D01*
X67122152Y-79926595D01*
X67122152Y-81071500D01*
X66725277Y-81071500D01*
X66725277Y-79487810D01*
X67122152Y-79487810D01*
X70777848Y-79487810D01*
X71174723Y-79487810D01*
X71174723Y-81512190D01*
G37*
%TO.C,R18*%
X62577500Y-61249758D02*
X62577500Y-60775242D01*
X63622500Y-61249758D02*
X63622500Y-60775242D01*
%TO.C,R33*%
X58912258Y-70885000D02*
X58437742Y-70885000D01*
X58912258Y-69840000D02*
X58437742Y-69840000D01*
%TO.C,C11*%
X91621000Y-79580000D02*
X92879000Y-79580000D01*
X91621000Y-81420000D02*
X92879000Y-81420000D01*
%TO.C,K2*%
X108398820Y-78261320D02*
X106208820Y-78261320D01*
X108398820Y-75921320D02*
X108398820Y-78261320D01*
X108158820Y-78021320D02*
X108158820Y-49021320D01*
X108158820Y-49021320D02*
X95458820Y-49021320D01*
X102158820Y-76221320D02*
X102158820Y-75021320D01*
X102158820Y-75421320D02*
X101458820Y-75821320D01*
X102158820Y-75021320D02*
X101458820Y-75021320D01*
X101458820Y-76221320D02*
X102158820Y-76221320D01*
X101458820Y-75021320D02*
X101458820Y-76221320D01*
X95458820Y-78021320D02*
X108158820Y-78021320D01*
X95458820Y-49021320D02*
X95458820Y-78021320D01*
%TO.C,kibuzzard-67515B89*%
G36*
X96016562Y-80611442D02*
G01*
X96070855Y-80734315D01*
X96051805Y-80819087D01*
X96003228Y-80870522D01*
X95935600Y-80895287D01*
X95857495Y-80901955D01*
X95799392Y-80900050D01*
X95745100Y-80894335D01*
X95745100Y-80574295D01*
X95870830Y-80574295D01*
X96016562Y-80611442D01*
G37*
G36*
X95914645Y-80106617D02*
G01*
X95967985Y-80125667D01*
X96004180Y-80165672D01*
X96017515Y-80233300D01*
X95971795Y-80340932D01*
X95836540Y-80379985D01*
X95745100Y-80379985D01*
X95745100Y-80109475D01*
X95796535Y-80103760D01*
X95851780Y-80101855D01*
X95914645Y-80106617D01*
G37*
G36*
X98586090Y-81512190D02*
G01*
X98189215Y-81512190D01*
X97754875Y-81512190D01*
X97269100Y-81512190D01*
X95838445Y-81512190D01*
X95510785Y-81512190D01*
X95113910Y-81512190D01*
X95113910Y-81071500D01*
X95510785Y-81071500D01*
X95593176Y-81086502D01*
X95676520Y-81097217D01*
X95758911Y-81103647D01*
X95838445Y-81105790D01*
X95932504Y-81101266D01*
X96001872Y-81090550D01*
X96404230Y-81090550D01*
X96619495Y-81090550D01*
X96609970Y-80174245D01*
X96749035Y-80673355D01*
X96920485Y-80673355D01*
X97065265Y-80174245D01*
X97053835Y-81090550D01*
X97269100Y-81090550D01*
X97267258Y-81025780D01*
X97389115Y-81025780D01*
X97520560Y-81083882D01*
X97622954Y-81107457D01*
X97754875Y-81115315D01*
X97888543Y-81105261D01*
X97997445Y-81075098D01*
X98081582Y-81024827D01*
X98162307Y-80915528D01*
X98189215Y-80768605D01*
X98181119Y-80679784D01*
X98156830Y-80607632D01*
X98073963Y-80500952D01*
X97963472Y-80432372D01*
X97848220Y-80385700D01*
X97774878Y-80357125D01*
X97708203Y-80321882D01*
X97659625Y-80276162D01*
X97640575Y-80216155D01*
X97661318Y-80141013D01*
X97723548Y-80095928D01*
X97827265Y-80080900D01*
X97961567Y-80099950D01*
X98067295Y-80145670D01*
X98135875Y-79964695D01*
X97999668Y-79909450D01*
X97911799Y-79890876D01*
X97810120Y-79884685D01*
X97693386Y-79895057D01*
X97594643Y-79926172D01*
X97513893Y-79978030D01*
X97433168Y-80089472D01*
X97406260Y-80237110D01*
X97436740Y-80377127D01*
X97513893Y-80471425D01*
X97617715Y-80534290D01*
X97728205Y-80578105D01*
X97808215Y-80611442D01*
X97880605Y-80651447D01*
X97933945Y-80701930D01*
X97954900Y-80766700D01*
X97946328Y-80822897D01*
X97914895Y-80872427D01*
X97852983Y-80906717D01*
X97754875Y-80919100D01*
X97659863Y-80912432D01*
X97580568Y-80892430D01*
X97457695Y-80835280D01*
X97389115Y-81025780D01*
X97267258Y-81025780D01*
X97264814Y-80939817D01*
X97259575Y-80792417D01*
X97253146Y-80647161D01*
X97245288Y-80502857D01*
X97235762Y-80358316D01*
X97224333Y-80212345D01*
X97211712Y-80063755D01*
X97198615Y-79911355D01*
X97004305Y-79911355D01*
X96970015Y-80012320D01*
X96928105Y-80142812D01*
X96880480Y-80287592D01*
X96832855Y-80433325D01*
X96789040Y-80296165D01*
X96743320Y-80149480D01*
X96700457Y-80014225D01*
X96667120Y-79911355D01*
X96472810Y-79911355D01*
X96460189Y-80040419D01*
X96448997Y-80179960D01*
X96439234Y-80327121D01*
X96430900Y-80479045D01*
X96423518Y-80633826D01*
X96416613Y-80789560D01*
X96410183Y-80942912D01*
X96404230Y-81090550D01*
X96001872Y-81090550D01*
X96020373Y-81087692D01*
X96099430Y-81063404D01*
X96167058Y-81026732D01*
X96265165Y-80912432D01*
X96292311Y-80832184D01*
X96301360Y-80734315D01*
X96290644Y-80654305D01*
X96258498Y-80578105D01*
X96196347Y-80511430D01*
X96095620Y-80459995D01*
X96205158Y-80357125D01*
X96235876Y-80287592D01*
X96246115Y-80208535D01*
X96228970Y-80098045D01*
X96164200Y-79998032D01*
X96032755Y-79925642D01*
X95936552Y-79904926D01*
X95815585Y-79898020D01*
X95657470Y-79906592D01*
X95510785Y-79926595D01*
X95510785Y-81071500D01*
X95113910Y-81071500D01*
X95113910Y-79487810D01*
X95510785Y-79487810D01*
X98189215Y-79487810D01*
X98586090Y-79487810D01*
X98586090Y-81512190D01*
G37*
%TO.C,kibuzzard-67515DEB*%
G36*
X67104608Y-55711355D02*
G01*
X66707733Y-55711355D01*
X66132422Y-55711355D01*
X65210402Y-55711355D01*
X64892267Y-55711355D01*
X64495392Y-55711355D01*
X64495392Y-55253520D01*
X64892267Y-55253520D01*
X64946560Y-55274475D01*
X65025617Y-55294478D01*
X65117058Y-55308765D01*
X65210402Y-55314480D01*
X65319464Y-55307336D01*
X65414238Y-55285905D01*
X65494724Y-55251615D01*
X65560922Y-55205895D01*
X65648553Y-55084928D01*
X65677127Y-54933480D01*
X65664216Y-54822990D01*
X65625481Y-54730280D01*
X65560922Y-54655350D01*
X65470117Y-54598623D01*
X65352642Y-54560523D01*
X65208497Y-54541050D01*
X65218022Y-54432465D01*
X65227547Y-54304830D01*
X65633313Y-54304830D01*
X65633313Y-54110520D01*
X65802857Y-54110520D01*
X65824765Y-54217200D01*
X65856198Y-54350550D01*
X65881386Y-54450351D01*
X65908691Y-54554173D01*
X65938113Y-54662018D01*
X65969227Y-54771978D01*
X66001613Y-54882151D01*
X66035268Y-54992535D01*
X66085274Y-55149698D01*
X66132422Y-55289715D01*
X66374358Y-55289715D01*
X66410764Y-55188221D01*
X66446324Y-55084398D01*
X66481038Y-54978248D01*
X66514375Y-54871568D01*
X66545808Y-54766158D01*
X66575335Y-54662018D01*
X66615816Y-54510332D01*
X66651535Y-54365790D01*
X66682253Y-54231488D01*
X66707733Y-54110520D01*
X66461988Y-54110520D01*
X66444842Y-54209580D01*
X66423888Y-54323880D01*
X66400075Y-54447467D01*
X66374358Y-54574388D01*
X66346735Y-54702023D01*
X66317208Y-54827753D01*
X66286728Y-54945624D01*
X66256248Y-55049685D01*
X66225529Y-54944196D01*
X66194335Y-54825848D01*
X66163855Y-54700118D01*
X66135280Y-54572483D01*
X66108848Y-54445800D01*
X66084798Y-54322928D01*
X66064795Y-54209342D01*
X66050508Y-54110520D01*
X65802857Y-54110520D01*
X65633313Y-54110520D01*
X65031332Y-54110520D01*
X65024189Y-54256014D01*
X65014187Y-54406748D01*
X65000852Y-54561767D01*
X64983707Y-54720120D01*
X65114676Y-54724168D01*
X65218022Y-54736313D01*
X65356135Y-54782033D01*
X65420905Y-54852518D01*
X65437097Y-54943005D01*
X65427573Y-55005870D01*
X65392330Y-55060163D01*
X65321845Y-55099215D01*
X65208497Y-55114455D01*
X65119439Y-55110169D01*
X65046573Y-55097310D01*
X64939892Y-55059210D01*
X64892267Y-55253520D01*
X64495392Y-55253520D01*
X64495392Y-53713645D01*
X64892267Y-53713645D01*
X66707733Y-53713645D01*
X67104608Y-53713645D01*
X67104608Y-55711355D01*
G37*
%TO.C,D10*%
X85127500Y-79540000D02*
X85127500Y-81460000D01*
X85127500Y-81460000D02*
X87812500Y-81460000D01*
X87812500Y-79540000D02*
X85127500Y-79540000D01*
D12*
%TO.C,J1*%
X100694999Y-86590000D02*
X100694999Y-91670000D01*
X75294999Y-86590000D02*
X100694999Y-86590000D01*
X100694999Y-91670000D02*
X75294999Y-91670000D01*
X75294999Y-91670000D02*
X75294999Y-86590000D01*
D11*
%TO.C,R19*%
X64977500Y-61249758D02*
X64977500Y-60775242D01*
X66022500Y-61249758D02*
X66022500Y-60775242D01*
%TO.C,C17*%
X61365000Y-67561252D02*
X61365000Y-67038748D01*
X62835000Y-67561252D02*
X62835000Y-67038748D01*
%TO.C,K3*%
X122340000Y-84640000D02*
X120150000Y-84640000D01*
X122340000Y-82300000D02*
X122340000Y-84640000D01*
X122100000Y-84400000D02*
X122100000Y-55400000D01*
X122100000Y-55400000D02*
X109400000Y-55400000D01*
X116100000Y-82600000D02*
X116100000Y-81400000D01*
X116100000Y-81800000D02*
X115400000Y-82200000D01*
X116100000Y-81400000D02*
X115400000Y-81400000D01*
X115400000Y-82600000D02*
X116100000Y-82600000D01*
X115400000Y-81400000D02*
X115400000Y-82600000D01*
X109400000Y-84400000D02*
X122100000Y-84400000D01*
X109400000Y-55400000D02*
X109400000Y-84400000D01*
%TO.C,C12*%
X77621000Y-79580000D02*
X78879000Y-79580000D01*
X77621000Y-81420000D02*
X78879000Y-81420000D01*
%TO.C,C5*%
X60370000Y-58862500D02*
G75*
G03*
X55130000Y-58862500I-2620000J0D01*
G01*
X55130000Y-58862500D02*
G75*
G03*
X60370000Y-58862500I2620000J0D01*
G01*
%TO.C,G\u002A\u002A\u002A*%
G36*
X60545115Y-74413499D02*
G01*
X60545115Y-75902309D01*
X60342096Y-75902309D01*
X60139076Y-75902309D01*
X60139076Y-74413499D01*
X60139076Y-72924689D01*
X60342096Y-72924689D01*
X60545115Y-72924689D01*
X60545115Y-74413499D01*
G37*
G36*
X59733037Y-75041737D02*
G01*
X59733037Y-75895553D01*
X59245333Y-75896882D01*
X59010172Y-75894443D01*
X58844881Y-75883876D01*
X58729270Y-75862571D01*
X58643145Y-75827913D01*
X58623073Y-75816382D01*
X58409535Y-75641355D01*
X58270048Y-75428951D01*
X58208001Y-75193112D01*
X58212674Y-75132072D01*
X58695382Y-75132072D01*
X58736999Y-75275389D01*
X58814254Y-75357649D01*
X58957766Y-75437811D01*
X59086544Y-75432320D01*
X59216170Y-75340506D01*
X59216260Y-75340417D01*
X59308131Y-75210785D01*
X59313680Y-75082011D01*
X59233574Y-74938515D01*
X59233493Y-74938411D01*
X59112851Y-74844713D01*
X58975228Y-74823123D01*
X58844211Y-74865152D01*
X58743387Y-74962313D01*
X58696343Y-75106117D01*
X58695382Y-75132072D01*
X58212674Y-75132072D01*
X58226782Y-74947780D01*
X58329780Y-74706899D01*
X58346989Y-74680394D01*
X58510854Y-74500215D01*
X58716451Y-74391931D01*
X58975455Y-74350003D01*
X59045026Y-74349176D01*
X59200875Y-74347564D01*
X59286501Y-74334521D01*
X59321722Y-74304492D01*
X59326998Y-74270157D01*
X59343303Y-74218226D01*
X59406771Y-74193767D01*
X59530018Y-74187922D01*
X59733037Y-74187922D01*
X59733037Y-75041737D01*
G37*
G36*
X62439964Y-75042749D02*
G01*
X62439964Y-75897577D01*
X61977531Y-75896334D01*
X61769858Y-75891571D01*
X61585626Y-75879761D01*
X61450341Y-75862919D01*
X61402332Y-75850874D01*
X61228888Y-75744928D01*
X61075769Y-75584309D01*
X61014541Y-75487232D01*
X60969057Y-75335635D01*
X60953381Y-75140962D01*
X60957638Y-75081923D01*
X61415652Y-75081923D01*
X61421144Y-75210701D01*
X61512957Y-75340327D01*
X61513047Y-75340417D01*
X61642678Y-75432287D01*
X61771452Y-75437836D01*
X61914949Y-75357731D01*
X61915052Y-75357649D01*
X62008751Y-75237007D01*
X62030341Y-75099385D01*
X61988311Y-74968368D01*
X61891150Y-74867544D01*
X61747347Y-74820499D01*
X61721391Y-74819538D01*
X61578075Y-74861155D01*
X61495814Y-74938411D01*
X61415652Y-75081923D01*
X60957638Y-75081923D01*
X60967500Y-74945169D01*
X61011396Y-74790207D01*
X61014800Y-74783461D01*
X61167307Y-74578937D01*
X61371588Y-74430349D01*
X61606369Y-74348780D01*
X61850376Y-74345317D01*
X61854399Y-74345984D01*
X61969325Y-74360388D01*
X62020947Y-74345486D01*
X62033818Y-74292543D01*
X62033925Y-74282118D01*
X62046051Y-74223462D01*
X62097974Y-74195700D01*
X62213015Y-74188012D01*
X62236945Y-74187922D01*
X62439964Y-74187922D01*
X62439964Y-75042749D01*
G37*
G36*
X65203286Y-74196607D02*
G01*
X65395026Y-74210480D01*
X65417584Y-74706750D01*
X65429591Y-74912617D01*
X65444673Y-75086622D01*
X65460728Y-75208014D01*
X65473010Y-75253539D01*
X65569530Y-75333301D01*
X65709658Y-75380134D01*
X65849218Y-75381990D01*
X65893329Y-75368206D01*
X65939212Y-75344109D01*
X65970270Y-75310551D01*
X65989394Y-75251466D01*
X65999477Y-75150788D01*
X66003410Y-74992452D01*
X66004085Y-74760393D01*
X66004085Y-74752832D01*
X66004085Y-74187922D01*
X66209480Y-74187922D01*
X66414875Y-74187922D01*
X66401220Y-75597780D01*
X66396854Y-76017490D01*
X66391416Y-76356513D01*
X66382934Y-76624389D01*
X66369439Y-76830656D01*
X66348960Y-76984854D01*
X66319528Y-77096523D01*
X66279173Y-77175201D01*
X66225923Y-77230428D01*
X66157809Y-77271743D01*
X66072861Y-77308686D01*
X66045605Y-77319620D01*
X65855347Y-77378754D01*
X65697812Y-77380499D01*
X65535665Y-77324331D01*
X65511022Y-77312097D01*
X65379628Y-77223605D01*
X65270280Y-77115654D01*
X65264672Y-77108230D01*
X65173019Y-76983245D01*
X65314684Y-76841581D01*
X65456348Y-76699916D01*
X65576323Y-76842498D01*
X65699742Y-76954092D01*
X65811602Y-76978029D01*
X65917438Y-76915253D01*
X65929419Y-76902575D01*
X65963107Y-76848292D01*
X65985295Y-76762930D01*
X65998060Y-76629692D01*
X66003480Y-76431781D01*
X66004085Y-76298939D01*
X66004085Y-75777808D01*
X65732786Y-75758184D01*
X65493400Y-75717169D01*
X65309257Y-75623817D01*
X65153296Y-75462773D01*
X65113055Y-75406498D01*
X65069204Y-75333543D01*
X65040076Y-75254793D01*
X65022730Y-75150360D01*
X65014224Y-75000358D01*
X65011619Y-74784900D01*
X65011545Y-74720041D01*
X65011545Y-74182734D01*
X65203286Y-74196607D01*
G37*
G36*
X64590298Y-74153386D02*
G01*
X64592616Y-74155696D01*
X64631043Y-74203234D01*
X64630749Y-74250306D01*
X64583021Y-74318257D01*
X64482840Y-74424640D01*
X64380006Y-74533452D01*
X64331261Y-74604056D01*
X64327278Y-74662429D01*
X64358726Y-74734547D01*
X64366361Y-74748981D01*
X64406826Y-74861031D01*
X64419874Y-75008249D01*
X64411046Y-75187722D01*
X64399348Y-75351083D01*
X64403111Y-75450848D01*
X64429339Y-75513256D01*
X64485033Y-75564543D01*
X64517995Y-75588438D01*
X64623848Y-75687328D01*
X64643083Y-75775850D01*
X64580938Y-75858862D01*
X64528869Y-75884021D01*
X64466906Y-75862622D01*
X64372730Y-75785198D01*
X64344082Y-75758390D01*
X64241136Y-75666602D01*
X64172418Y-75629895D01*
X64109585Y-75638337D01*
X64064121Y-75660301D01*
X63911210Y-75706435D01*
X63719144Y-75718296D01*
X63532191Y-75695994D01*
X63425389Y-75658732D01*
X63347674Y-75625729D01*
X63286699Y-75634008D01*
X63211989Y-75693848D01*
X63157125Y-75749240D01*
X63052699Y-75851594D01*
X62986418Y-75893349D01*
X62936455Y-75881321D01*
X62889585Y-75832787D01*
X62863369Y-75778675D01*
X62887170Y-75715956D01*
X62970458Y-75620301D01*
X62973521Y-75617136D01*
X63049318Y-75533491D01*
X63089038Y-75461080D01*
X63100673Y-75369001D01*
X63092218Y-75226351D01*
X63087613Y-75176064D01*
X63077823Y-74979702D01*
X63094305Y-74841266D01*
X63130348Y-74748820D01*
X63166506Y-74672205D01*
X63168708Y-74613394D01*
X63127619Y-74546422D01*
X63033903Y-74445322D01*
X63013785Y-74424640D01*
X62911576Y-74315916D01*
X62865272Y-74248827D01*
X62866161Y-74202028D01*
X62904009Y-74155696D01*
X62950920Y-74117807D01*
X62997610Y-74117866D01*
X63064782Y-74164699D01*
X63173136Y-74267131D01*
X63179084Y-74272965D01*
X63294261Y-74379824D01*
X63371173Y-74429843D01*
X63431344Y-74433760D01*
X63469507Y-74417841D01*
X63600296Y-74380412D01*
X63771103Y-74370298D01*
X63935947Y-74387496D01*
X64027118Y-74417841D01*
X64087701Y-74437023D01*
X64151736Y-74416731D01*
X64240748Y-74346229D01*
X64317541Y-74272965D01*
X64428149Y-74167923D01*
X64496676Y-74118863D01*
X64543825Y-74116959D01*
X64590298Y-74153386D01*
G37*
G36*
X56428855Y-72638638D02*
G01*
X56589695Y-72658848D01*
X56732419Y-72700726D01*
X56855486Y-72753327D01*
X57171539Y-72944531D01*
X57441572Y-73196419D01*
X57646859Y-73490614D01*
X57685719Y-73568292D01*
X57727464Y-73660633D01*
X57759318Y-73742556D01*
X57782819Y-73827999D01*
X57799504Y-73930902D01*
X57810911Y-74065201D01*
X57818577Y-74244835D01*
X57824040Y-74483741D01*
X57828837Y-74795859D01*
X57829959Y-74875932D01*
X57844287Y-75902309D01*
X57570545Y-75902309D01*
X57296803Y-75902309D01*
X57296803Y-75680874D01*
X57296803Y-75459439D01*
X56975206Y-75624480D01*
X56613130Y-75762778D01*
X56242672Y-75814910D01*
X55875289Y-75781848D01*
X55522441Y-75664561D01*
X55209952Y-75475105D01*
X54974271Y-75242059D01*
X54788022Y-74950915D01*
X54660915Y-74624589D01*
X54609063Y-74323224D01*
X55861935Y-74323224D01*
X55911725Y-74467411D01*
X56016362Y-74579216D01*
X56166607Y-74636073D01*
X56214032Y-74639076D01*
X56372952Y-74596449D01*
X56466268Y-74526288D01*
X56526229Y-74473251D01*
X56591776Y-74440044D01*
X56684846Y-74422077D01*
X56827376Y-74414765D01*
X57005603Y-74413499D01*
X57432149Y-74413499D01*
X57432149Y-75082712D01*
X57434201Y-75320041D01*
X57439850Y-75524768D01*
X57448333Y-75680194D01*
X57458890Y-75769625D01*
X57464129Y-75783904D01*
X57530373Y-75804506D01*
X57588196Y-75802702D01*
X57620817Y-75794012D01*
X57644941Y-75770398D01*
X57662113Y-75719495D01*
X57673876Y-75628936D01*
X57681772Y-75486354D01*
X57687345Y-75279384D01*
X57692138Y-74995658D01*
X57692581Y-74966163D01*
X57704877Y-74142806D01*
X57157708Y-74142806D01*
X56925073Y-74141717D01*
X56763721Y-74136357D01*
X56654712Y-74123592D01*
X56579105Y-74100285D01*
X56517959Y-74063299D01*
X56476497Y-74030018D01*
X56309805Y-73935788D01*
X56143648Y-73926706D01*
X55991215Y-74002825D01*
X55963846Y-74027967D01*
X55876229Y-74169221D01*
X55861935Y-74323224D01*
X54609063Y-74323224D01*
X54602658Y-74286000D01*
X54608014Y-74054213D01*
X54690930Y-73709063D01*
X54852693Y-73386172D01*
X55082218Y-73100472D01*
X55368419Y-72866894D01*
X55574514Y-72752441D01*
X55727605Y-72689172D01*
X55871370Y-72652711D01*
X56041563Y-72636404D01*
X56214032Y-72633392D01*
X56428855Y-72638638D01*
G37*
%TO.C,D9*%
X66460000Y-55727500D02*
X64540000Y-55727500D01*
X64540000Y-55727500D02*
X64540000Y-58412500D01*
X66460000Y-58412500D02*
X66460000Y-55727500D01*
%TO.C,D8*%
X64060000Y-55727500D02*
X62140000Y-55727500D01*
X62140000Y-55727500D02*
X62140000Y-58412500D01*
X64060000Y-58412500D02*
X64060000Y-55727500D01*
%TO.C,C13*%
X105121000Y-79580000D02*
X106379000Y-79580000D01*
X105121000Y-81420000D02*
X106379000Y-81420000D01*
%TO.C,G\u002A\u002A\u002A*%
G36*
X64965484Y-80409193D02*
G01*
X64965484Y-80614032D01*
X64914274Y-80614032D01*
X64863064Y-80614032D01*
X64863064Y-80409193D01*
X64863064Y-80204355D01*
X64914274Y-80204355D01*
X64965484Y-80204355D01*
X64965484Y-80409193D01*
G37*
G36*
X61539096Y-80206729D02*
G01*
X61554658Y-80219690D01*
X61563061Y-80251991D01*
X61567625Y-80312387D01*
X61569385Y-80352863D01*
X61575403Y-80501371D01*
X61723911Y-80507389D01*
X61800495Y-80511297D01*
X61844880Y-80517487D01*
X61865819Y-80529279D01*
X61872067Y-80549993D01*
X61872419Y-80563720D01*
X61870697Y-80588167D01*
X61860103Y-80603049D01*
X61832494Y-80610738D01*
X61779726Y-80613608D01*
X61699769Y-80614032D01*
X61604510Y-80611747D01*
X61542120Y-80604066D01*
X61504710Y-80589749D01*
X61494931Y-80581843D01*
X61477596Y-80552253D01*
X61467396Y-80500853D01*
X61463091Y-80419756D01*
X61462742Y-80377004D01*
X61463243Y-80293113D01*
X61466331Y-80242045D01*
X61474376Y-80215659D01*
X61489754Y-80205810D01*
X61513054Y-80204355D01*
X61539096Y-80206729D01*
G37*
G36*
X65620967Y-80409193D02*
G01*
X65620967Y-80614032D01*
X65543048Y-80614032D01*
X65503957Y-80611655D01*
X65472264Y-80600249D01*
X65439700Y-80573404D01*
X65397997Y-80524709D01*
X65353572Y-80467126D01*
X65242016Y-80320220D01*
X65235997Y-80467126D01*
X65232078Y-80543188D01*
X65225829Y-80587103D01*
X65213830Y-80607676D01*
X65192660Y-80613712D01*
X65178925Y-80614032D01*
X65127871Y-80614032D01*
X65133734Y-80414314D01*
X65139596Y-80214597D01*
X65220645Y-80214597D01*
X65261760Y-80216863D01*
X65294386Y-80227997D01*
X65327304Y-80254506D01*
X65369291Y-80302894D01*
X65410121Y-80355005D01*
X65518548Y-80495414D01*
X65518548Y-80349884D01*
X65519275Y-80274288D01*
X65523534Y-80230795D01*
X65534445Y-80210543D01*
X65555126Y-80204669D01*
X65569758Y-80204355D01*
X65620967Y-80204355D01*
X65620967Y-80409193D01*
G37*
G36*
X61295852Y-80380119D02*
G01*
X61289542Y-80478602D01*
X61275514Y-80544726D01*
X61246720Y-80584907D01*
X61196110Y-80605564D01*
X61116636Y-80613112D01*
X61038907Y-80614032D01*
X60950453Y-80612467D01*
X60892619Y-80606442D01*
X60855132Y-80593964D01*
X60827742Y-80573064D01*
X60806425Y-80544892D01*
X60793901Y-80506177D01*
X60788060Y-80446376D01*
X60786774Y-80368226D01*
X60787320Y-80286952D01*
X60790698Y-80238288D01*
X60799521Y-80213873D01*
X60816402Y-80205349D01*
X60837984Y-80204355D01*
X60867839Y-80207485D01*
X60883107Y-80223705D01*
X60888693Y-80263259D01*
X60889473Y-80311895D01*
X60891311Y-80403518D01*
X60900174Y-80461743D01*
X60921954Y-80494124D01*
X60962541Y-80508214D01*
X61027824Y-80511566D01*
X61045211Y-80511613D01*
X61175967Y-80511613D01*
X61175967Y-80357984D01*
X61175967Y-80204355D01*
X61239521Y-80204355D01*
X61303075Y-80204355D01*
X61295852Y-80380119D01*
G37*
G36*
X55783588Y-80208115D02*
G01*
X55812334Y-80213274D01*
X55829582Y-80226547D01*
X55838850Y-80256942D01*
X55843657Y-80313467D01*
X55846036Y-80367984D01*
X55848639Y-80472174D01*
X55844914Y-80542202D01*
X55832335Y-80584698D01*
X55808375Y-80606292D01*
X55770508Y-80613613D01*
X55752262Y-80614032D01*
X55713743Y-80611542D01*
X55682154Y-80599816D01*
X55649314Y-80572465D01*
X55607044Y-80523105D01*
X55563176Y-80466415D01*
X55450726Y-80318797D01*
X55444707Y-80466415D01*
X55440803Y-80542701D01*
X55434597Y-80586820D01*
X55422692Y-80607555D01*
X55401693Y-80613692D01*
X55387635Y-80614032D01*
X55336581Y-80614032D01*
X55342443Y-80414314D01*
X55348306Y-80214597D01*
X55429355Y-80214597D01*
X55470469Y-80216863D01*
X55503096Y-80227997D01*
X55536013Y-80254506D01*
X55578000Y-80302894D01*
X55618831Y-80355005D01*
X55727258Y-80495414D01*
X55727258Y-80348524D01*
X55727258Y-80201634D01*
X55783588Y-80208115D01*
G37*
G36*
X57667844Y-80206076D02*
G01*
X57682726Y-80216670D01*
X57690415Y-80244280D01*
X57693285Y-80297048D01*
X57693709Y-80377004D01*
X57691711Y-80477211D01*
X57681166Y-80544297D01*
X57655249Y-80584890D01*
X57607134Y-80605619D01*
X57529995Y-80613112D01*
X57449615Y-80614032D01*
X57358179Y-80612542D01*
X57298368Y-80606986D01*
X57260915Y-80595740D01*
X57236550Y-80577179D01*
X57235997Y-80576572D01*
X57217532Y-80544371D01*
X57206825Y-80492355D01*
X57202420Y-80411733D01*
X57202096Y-80371734D01*
X57202637Y-80289401D01*
X57205915Y-80239766D01*
X57214417Y-80214561D01*
X57230627Y-80205515D01*
X57252409Y-80204355D01*
X57278451Y-80206729D01*
X57294013Y-80219690D01*
X57302416Y-80251991D01*
X57306980Y-80312387D01*
X57308739Y-80352863D01*
X57314758Y-80501371D01*
X57447903Y-80501371D01*
X57581048Y-80501371D01*
X57587066Y-80352863D01*
X57590975Y-80276278D01*
X57597164Y-80231894D01*
X57608956Y-80210955D01*
X57629670Y-80204706D01*
X57643397Y-80204355D01*
X57667844Y-80206076D01*
G37*
G36*
X56355585Y-80204857D02*
G01*
X56406595Y-80207950D01*
X56432934Y-80216013D01*
X56442750Y-80231425D01*
X56444193Y-80254703D01*
X56442030Y-80280077D01*
X56429892Y-80295527D01*
X56399302Y-80304060D01*
X56341785Y-80308682D01*
X56285443Y-80311033D01*
X56126693Y-80317016D01*
X56120450Y-80414314D01*
X56114207Y-80511613D01*
X56279200Y-80511613D01*
X56360811Y-80512149D01*
X56409785Y-80515483D01*
X56434452Y-80524200D01*
X56443144Y-80540884D01*
X56444193Y-80562822D01*
X56442708Y-80587141D01*
X56432974Y-80602205D01*
X56407077Y-80610231D01*
X56357103Y-80613434D01*
X56275136Y-80614030D01*
X56261302Y-80614032D01*
X56161312Y-80611747D01*
X56095389Y-80604258D01*
X56056852Y-80590616D01*
X56048090Y-80583712D01*
X56019939Y-80534283D01*
X56005124Y-80464089D01*
X56003018Y-80385191D01*
X56012996Y-80309650D01*
X56034432Y-80249524D01*
X56066699Y-80216875D01*
X56067139Y-80216703D01*
X56101715Y-80210990D01*
X56165303Y-80206679D01*
X56245956Y-80204490D01*
X56271756Y-80204355D01*
X56355585Y-80204857D01*
G37*
G36*
X64605766Y-80204973D02*
G01*
X64658599Y-80207742D01*
X64686452Y-80215206D01*
X64697318Y-80229598D01*
X64699192Y-80253148D01*
X64699193Y-80254703D01*
X64697030Y-80280077D01*
X64684892Y-80295527D01*
X64654302Y-80304060D01*
X64596785Y-80308682D01*
X64540443Y-80311033D01*
X64381693Y-80317016D01*
X64375450Y-80414314D01*
X64369207Y-80511613D01*
X64534200Y-80511613D01*
X64615811Y-80512149D01*
X64664785Y-80515483D01*
X64689452Y-80524200D01*
X64698144Y-80540884D01*
X64699193Y-80562822D01*
X64697672Y-80587334D01*
X64687778Y-80602411D01*
X64661515Y-80610323D01*
X64610891Y-80613340D01*
X64527908Y-80613732D01*
X64519959Y-80613718D01*
X64436539Y-80611943D01*
X64368071Y-80607475D01*
X64325444Y-80601143D01*
X64318187Y-80598356D01*
X64279666Y-80550961D01*
X64257202Y-80479576D01*
X64250856Y-80397198D01*
X64260690Y-80316820D01*
X64286766Y-80251438D01*
X64316402Y-80220448D01*
X64346902Y-80213420D01*
X64407342Y-80207981D01*
X64486700Y-80204988D01*
X64519959Y-80204668D01*
X64605766Y-80204973D01*
G37*
G36*
X55447943Y-76918211D02*
G01*
X55500928Y-76939158D01*
X55582492Y-76973095D01*
X55688255Y-77018087D01*
X55813840Y-77072199D01*
X55954867Y-77133493D01*
X56106958Y-77200034D01*
X56265733Y-77269887D01*
X56426814Y-77341114D01*
X56585822Y-77411780D01*
X56738379Y-77479950D01*
X56880105Y-77543686D01*
X57006622Y-77601054D01*
X57113551Y-77650116D01*
X57196513Y-77688938D01*
X57251130Y-77715583D01*
X57272766Y-77727848D01*
X57270721Y-77738252D01*
X57234682Y-77742518D01*
X57162492Y-77740690D01*
X57051992Y-77732813D01*
X57048467Y-77732517D01*
X56902800Y-77717413D01*
X56729684Y-77694876D01*
X56540242Y-77666742D01*
X56345595Y-77634843D01*
X56156865Y-77601014D01*
X55985173Y-77567088D01*
X55841640Y-77534899D01*
X55824955Y-77530769D01*
X55799681Y-77518940D01*
X55770957Y-77492672D01*
X55735189Y-77447154D01*
X55688782Y-77377573D01*
X55628141Y-77279119D01*
X55592853Y-77220075D01*
X55535352Y-77121553D01*
X55487054Y-77035526D01*
X55451167Y-76967979D01*
X55430895Y-76924898D01*
X55427916Y-76912191D01*
X55447943Y-76918211D01*
G37*
G36*
X58467456Y-80204878D02*
G01*
X58517684Y-80208074D01*
X58543378Y-80216382D01*
X58552754Y-80232242D01*
X58554032Y-80254703D01*
X58551838Y-80280183D01*
X58539577Y-80295652D01*
X58508732Y-80304164D01*
X58450782Y-80308774D01*
X58396926Y-80311033D01*
X58303215Y-80318004D01*
X58247405Y-80330172D01*
X58231348Y-80342621D01*
X58238180Y-80356047D01*
X58272950Y-80364163D01*
X58340825Y-80367813D01*
X58388454Y-80368226D01*
X58470609Y-80369064D01*
X58520010Y-80372933D01*
X58544858Y-80381861D01*
X58553353Y-80397876D01*
X58554032Y-80409193D01*
X58550611Y-80429605D01*
X58534853Y-80441839D01*
X58498519Y-80447954D01*
X58433367Y-80450010D01*
X58390161Y-80450161D01*
X58226290Y-80450161D01*
X58226290Y-80532097D01*
X58223495Y-80584886D01*
X58210311Y-80608349D01*
X58179540Y-80614003D01*
X58175080Y-80614032D01*
X58150216Y-80612418D01*
X58135073Y-80602149D01*
X58127241Y-80575088D01*
X58124310Y-80523097D01*
X58123871Y-80441081D01*
X58126531Y-80343544D01*
X58138881Y-80277180D01*
X58167470Y-80236037D01*
X58218852Y-80214164D01*
X58299577Y-80205610D01*
X58384477Y-80204355D01*
X58467456Y-80204878D01*
G37*
G36*
X60534737Y-80208173D02*
G01*
X60612661Y-80214597D01*
X60618524Y-80414314D01*
X60624386Y-80614032D01*
X60572435Y-80614032D01*
X60544889Y-80611843D01*
X60529218Y-80599217D01*
X60521918Y-80567063D01*
X60519483Y-80506293D01*
X60519124Y-80475766D01*
X60517765Y-80337500D01*
X60452552Y-80470645D01*
X60417396Y-80539741D01*
X60391068Y-80579590D01*
X60365337Y-80598196D01*
X60331976Y-80603559D01*
X60315645Y-80603790D01*
X60277246Y-80601345D01*
X60249558Y-80588681D01*
X60224347Y-80557805D01*
X60193375Y-80500723D01*
X60178455Y-80470645D01*
X60112958Y-80337500D01*
X60111882Y-80475766D01*
X60110494Y-80549019D01*
X60105442Y-80590395D01*
X60093239Y-80608984D01*
X60070400Y-80613874D01*
X60058855Y-80614032D01*
X60006903Y-80614032D01*
X60012766Y-80414314D01*
X60018629Y-80214597D01*
X60096553Y-80208173D01*
X60174478Y-80201749D01*
X60238766Y-80346439D01*
X60270692Y-80414899D01*
X60297336Y-80465870D01*
X60313857Y-80490242D01*
X60315645Y-80491129D01*
X60329304Y-80473795D01*
X60354146Y-80427868D01*
X60385330Y-80362457D01*
X60392524Y-80346439D01*
X60456812Y-80201749D01*
X60534737Y-80208173D01*
G37*
G36*
X56692267Y-80208827D02*
G01*
X56706932Y-80229921D01*
X56710465Y-80279155D01*
X56710484Y-80286290D01*
X56713360Y-80339158D01*
X56726597Y-80362650D01*
X56757110Y-80368212D01*
X56759972Y-80368226D01*
X56811723Y-80349013D01*
X56870785Y-80290751D01*
X56874355Y-80286290D01*
X56933867Y-80225802D01*
X56985995Y-80204415D01*
X56988737Y-80204355D01*
X57025942Y-80210926D01*
X57034582Y-80233438D01*
X57014157Y-80276088D01*
X56973538Y-80331343D01*
X56939784Y-80380750D01*
X56925627Y-80416213D01*
X56928532Y-80426469D01*
X56953057Y-80450876D01*
X56987893Y-80493444D01*
X57023453Y-80541346D01*
X57050149Y-80581756D01*
X57058709Y-80600603D01*
X57041056Y-80610486D01*
X57004344Y-80614032D01*
X56953197Y-80598917D01*
X56896428Y-80550698D01*
X56879844Y-80532097D01*
X56817218Y-80472572D01*
X56763833Y-80450282D01*
X56760097Y-80450161D01*
X56728088Y-80454901D01*
X56713865Y-80476755D01*
X56710492Y-80527175D01*
X56710484Y-80532097D01*
X56707688Y-80584886D01*
X56694504Y-80608349D01*
X56663734Y-80614003D01*
X56659274Y-80614032D01*
X56608064Y-80614032D01*
X56608064Y-80409193D01*
X56608064Y-80204355D01*
X56659274Y-80204355D01*
X56692267Y-80208827D01*
G37*
G36*
X59060512Y-80207423D02*
G01*
X59132740Y-80219625D01*
X59177206Y-80246464D01*
X59200401Y-80293129D01*
X59208819Y-80364811D01*
X59209516Y-80408892D01*
X59206942Y-80495262D01*
X59194726Y-80553296D01*
X59166127Y-80588586D01*
X59114403Y-80606725D01*
X59032815Y-80613304D01*
X58962246Y-80614032D01*
X58870793Y-80612709D01*
X58810477Y-80607547D01*
X58771516Y-80596756D01*
X58744132Y-80578546D01*
X58738387Y-80573064D01*
X58708345Y-80518386D01*
X58696233Y-80442527D01*
X58697536Y-80419392D01*
X58806914Y-80419392D01*
X58812132Y-80461283D01*
X58821512Y-80488997D01*
X58838748Y-80504007D01*
X58873918Y-80509431D01*
X58937099Y-80508391D01*
X58961030Y-80507372D01*
X59096855Y-80501371D01*
X59096855Y-80409193D01*
X59096855Y-80317016D01*
X58961030Y-80311015D01*
X58888260Y-80308729D01*
X58846305Y-80312041D01*
X58825089Y-80324070D01*
X58814534Y-80347934D01*
X58812132Y-80357104D01*
X58806914Y-80419392D01*
X58697536Y-80419392D01*
X58700903Y-80359593D01*
X58721211Y-80283687D01*
X58756010Y-80228915D01*
X58767058Y-80220031D01*
X58797089Y-80212919D01*
X58856555Y-80207532D01*
X58933930Y-80204817D01*
X58954031Y-80204668D01*
X59060512Y-80207423D01*
G37*
G36*
X63910907Y-80216709D02*
G01*
X63945031Y-80240202D01*
X63966204Y-80271047D01*
X63998953Y-80325220D01*
X64037842Y-80392921D01*
X64077438Y-80464350D01*
X64112307Y-80529710D01*
X64137013Y-80579199D01*
X64146129Y-80602825D01*
X64128328Y-80610769D01*
X64086057Y-80614032D01*
X64034552Y-80602751D01*
X64012984Y-80573064D01*
X64000291Y-80550393D01*
X63973746Y-80537944D01*
X63923283Y-80532839D01*
X63869596Y-80532097D01*
X63796895Y-80533824D01*
X63755019Y-80540923D01*
X63733903Y-80556270D01*
X63726209Y-80573064D01*
X63700385Y-80605171D01*
X63650944Y-80614032D01*
X63608592Y-80609821D01*
X63598249Y-80593023D01*
X63602348Y-80578185D01*
X63617855Y-80544969D01*
X63647919Y-80486083D01*
X63666934Y-80450161D01*
X63798566Y-80450161D01*
X63870454Y-80450161D01*
X63942342Y-80450161D01*
X63908485Y-80383589D01*
X63885313Y-80338748D01*
X63871605Y-80313577D01*
X63870663Y-80312152D01*
X63860390Y-80325344D01*
X63839698Y-80364187D01*
X63832631Y-80378725D01*
X63798566Y-80450161D01*
X63666934Y-80450161D01*
X63687285Y-80411717D01*
X63708031Y-80373347D01*
X63752975Y-80293237D01*
X63785777Y-80243095D01*
X63812419Y-80216144D01*
X63838883Y-80205612D01*
X63857253Y-80204355D01*
X63910907Y-80216709D01*
G37*
G36*
X62302523Y-80206789D02*
G01*
X62327682Y-80218354D01*
X62353473Y-80245441D01*
X62385611Y-80294445D01*
X62429809Y-80371756D01*
X62442745Y-80395050D01*
X62486098Y-80474560D01*
X62520830Y-80540646D01*
X62542792Y-80585258D01*
X62548387Y-80599889D01*
X62530594Y-80609912D01*
X62488316Y-80614032D01*
X62436811Y-80602751D01*
X62415242Y-80573064D01*
X62401799Y-80549639D01*
X62373530Y-80537191D01*
X62319975Y-80532518D01*
X62281437Y-80532097D01*
X62209836Y-80534563D01*
X62167835Y-80544103D01*
X62144247Y-80563927D01*
X62138709Y-80573064D01*
X62098272Y-80607308D01*
X62056053Y-80614032D01*
X62013186Y-80610771D01*
X61995322Y-80602927D01*
X61995322Y-80602914D01*
X62004579Y-80581478D01*
X62029634Y-80532078D01*
X62066418Y-80462573D01*
X62073148Y-80450161D01*
X62200824Y-80450161D01*
X62272712Y-80450161D01*
X62344600Y-80450161D01*
X62310743Y-80383589D01*
X62287571Y-80338748D01*
X62273863Y-80313577D01*
X62272921Y-80312152D01*
X62262648Y-80325344D01*
X62241956Y-80364187D01*
X62234889Y-80378725D01*
X62200824Y-80450161D01*
X62073148Y-80450161D01*
X62101391Y-80398075D01*
X62149190Y-80312228D01*
X62183609Y-80256312D01*
X62210264Y-80223962D01*
X62234771Y-80208810D01*
X62262746Y-80204490D01*
X62272282Y-80204355D01*
X62302523Y-80206789D01*
G37*
G36*
X59678275Y-80205946D02*
G01*
X59746546Y-80211413D01*
X59789201Y-80221799D01*
X59812327Y-80236544D01*
X59836948Y-80285519D01*
X59843184Y-80352096D01*
X59831185Y-80417339D01*
X59810615Y-80453669D01*
X59788225Y-80485733D01*
X59796065Y-80512726D01*
X59807500Y-80526976D01*
X59845456Y-80575493D01*
X59853154Y-80601978D01*
X59830036Y-80612619D01*
X59799636Y-80613973D01*
X59742999Y-80603921D01*
X59701003Y-80566875D01*
X59690887Y-80552581D01*
X59656901Y-80512091D01*
X59616120Y-80494560D01*
X59562863Y-80491188D01*
X59508228Y-80493219D01*
X59483114Y-80504782D01*
X59476101Y-80533930D01*
X59475806Y-80552581D01*
X59470295Y-80596498D01*
X59446866Y-80612565D01*
X59424596Y-80614032D01*
X59373387Y-80614032D01*
X59373387Y-80409193D01*
X59373387Y-80357984D01*
X59475806Y-80357984D01*
X59478879Y-80387723D01*
X59494897Y-80402958D01*
X59534061Y-80408502D01*
X59584371Y-80409193D01*
X59650122Y-80405100D01*
X59699933Y-80394623D01*
X59715915Y-80386214D01*
X59735462Y-80351162D01*
X59716730Y-80325468D01*
X59661595Y-80310379D01*
X59596518Y-80306774D01*
X59529160Y-80307905D01*
X59493057Y-80314042D01*
X59478507Y-80329302D01*
X59475806Y-80357801D01*
X59475806Y-80357984D01*
X59373387Y-80357984D01*
X59373387Y-80204355D01*
X59576762Y-80204355D01*
X59678275Y-80205946D01*
G37*
G36*
X66165637Y-80204689D02*
G01*
X66224738Y-80206932D01*
X66257883Y-80212944D01*
X66272579Y-80224587D01*
X66276332Y-80243720D01*
X66276451Y-80254767D01*
X66274634Y-80278963D01*
X66263858Y-80294182D01*
X66236138Y-80302934D01*
X66183489Y-80307728D01*
X66097926Y-80311074D01*
X66097217Y-80311098D01*
X65917984Y-80317016D01*
X65911740Y-80414314D01*
X65905497Y-80511613D01*
X66039764Y-80511613D01*
X66114805Y-80509591D01*
X66156657Y-80502361D01*
X66172952Y-80488177D01*
X66174032Y-80480887D01*
X66161969Y-80460635D01*
X66120951Y-80451411D01*
X66081855Y-80450161D01*
X66024251Y-80447481D01*
X65997012Y-80436350D01*
X65989712Y-80412136D01*
X65989677Y-80409193D01*
X65993546Y-80387664D01*
X66010991Y-80375330D01*
X66050773Y-80369688D01*
X66121651Y-80368237D01*
X66133064Y-80368226D01*
X66276451Y-80368226D01*
X66276451Y-80458728D01*
X66275111Y-80527736D01*
X66266231Y-80572505D01*
X66242527Y-80598281D01*
X66196710Y-80610306D01*
X66121496Y-80613823D01*
X66060642Y-80614032D01*
X65960731Y-80612111D01*
X65894247Y-80605653D01*
X65853802Y-80593615D01*
X65838316Y-80582648D01*
X65807509Y-80528848D01*
X65790331Y-80451280D01*
X65789665Y-80365708D01*
X65793605Y-80338158D01*
X65807976Y-80281903D01*
X65830989Y-80243924D01*
X65869960Y-80220720D01*
X65932203Y-80208789D01*
X66025033Y-80204628D01*
X66073076Y-80204355D01*
X66165637Y-80204689D01*
G37*
G36*
X63309066Y-80207054D02*
G01*
X63384779Y-80214903D01*
X63423495Y-80227529D01*
X63425096Y-80228935D01*
X63442613Y-80267220D01*
X63449829Y-80325941D01*
X63447208Y-80389364D01*
X63435216Y-80441752D01*
X63418108Y-80465793D01*
X63399741Y-80482160D01*
X63406152Y-80506049D01*
X63428350Y-80536614D01*
X63461150Y-80582382D01*
X63464545Y-80605453D01*
X63436754Y-80613383D01*
X63410104Y-80614032D01*
X63353862Y-80599985D01*
X63306435Y-80552785D01*
X63306290Y-80552581D01*
X63267220Y-80509967D01*
X63220268Y-80493080D01*
X63181992Y-80491129D01*
X63130035Y-80493666D01*
X63107164Y-80507296D01*
X63101547Y-80541045D01*
X63101451Y-80552581D01*
X63095940Y-80596498D01*
X63072511Y-80612565D01*
X63050242Y-80614032D01*
X62999032Y-80614032D01*
X62999032Y-80409193D01*
X62999032Y-80359006D01*
X63101451Y-80359006D01*
X63103749Y-80388253D01*
X63117188Y-80403144D01*
X63151582Y-80407521D01*
X63216749Y-80405224D01*
X63219234Y-80405095D01*
X63286599Y-80399768D01*
X63323223Y-80389909D01*
X63339329Y-80371222D01*
X63343561Y-80352863D01*
X63344272Y-80327439D01*
X63331207Y-80313629D01*
X63295374Y-80307913D01*
X63227784Y-80306774D01*
X63225779Y-80306774D01*
X63157195Y-80307798D01*
X63119997Y-80313551D01*
X63104611Y-80328056D01*
X63101462Y-80355335D01*
X63101451Y-80359006D01*
X62999032Y-80359006D01*
X62999032Y-80204355D01*
X63199774Y-80204355D01*
X63309066Y-80207054D01*
G37*
G36*
X54521110Y-77108076D02*
G01*
X54565957Y-77132194D01*
X54627594Y-77168586D01*
X54641613Y-77177194D01*
X54881582Y-77310495D01*
X55154090Y-77435292D01*
X55451103Y-77548745D01*
X55764585Y-77648019D01*
X56086501Y-77730273D01*
X56362258Y-77784945D01*
X56736633Y-77834632D01*
X57136576Y-77861036D01*
X57553842Y-77864004D01*
X57980184Y-77843383D01*
X58236532Y-77819667D01*
X58690564Y-77780399D01*
X59153494Y-77760210D01*
X59619268Y-77758674D01*
X60081831Y-77775367D01*
X60535131Y-77809863D01*
X60973110Y-77861736D01*
X61389717Y-77930561D01*
X61778895Y-78015913D01*
X62036290Y-78086627D01*
X62112488Y-78111404D01*
X62176041Y-78135296D01*
X62222008Y-78155736D01*
X62245447Y-78170155D01*
X62241417Y-78175986D01*
X62204975Y-78170661D01*
X62192586Y-78167848D01*
X62135542Y-78156466D01*
X62046069Y-78141128D01*
X61932381Y-78123041D01*
X61802691Y-78103413D01*
X61665210Y-78083448D01*
X61528153Y-78064354D01*
X61399732Y-78047337D01*
X61288160Y-78033603D01*
X61247661Y-78029035D01*
X61116764Y-78018132D01*
X60955151Y-78009930D01*
X60770550Y-78004384D01*
X60570688Y-78001448D01*
X60363291Y-78001076D01*
X60156087Y-78003222D01*
X59956803Y-78007841D01*
X59773165Y-78014888D01*
X59612901Y-78024315D01*
X59483738Y-78036079D01*
X59455322Y-78039633D01*
X59004872Y-78115711D01*
X58581790Y-78219508D01*
X58181794Y-78352725D01*
X57800604Y-78517067D01*
X57433940Y-78714237D01*
X57077520Y-78945939D01*
X56956290Y-79034096D01*
X56855218Y-79113736D01*
X56743328Y-79208846D01*
X56627090Y-79313238D01*
X56512977Y-79420725D01*
X56407461Y-79525122D01*
X56317012Y-79620240D01*
X56248103Y-79699894D01*
X56218871Y-79739044D01*
X56181442Y-79790785D01*
X56156474Y-79811417D01*
X56135746Y-79805196D01*
X56121287Y-79789556D01*
X56105662Y-79765880D01*
X56071392Y-79711025D01*
X56020450Y-79628266D01*
X55954809Y-79520881D01*
X55876444Y-79392144D01*
X55787326Y-79245333D01*
X55689431Y-79083724D01*
X55584730Y-78910592D01*
X55475197Y-78729214D01*
X55362806Y-78542867D01*
X55249530Y-78354826D01*
X55137342Y-78168367D01*
X55028215Y-77986767D01*
X54924124Y-77813303D01*
X54827041Y-77651249D01*
X54738939Y-77503883D01*
X54661793Y-77374480D01*
X54597575Y-77266318D01*
X54548258Y-77182671D01*
X54515817Y-77126817D01*
X54502223Y-77102031D01*
X54501949Y-77101079D01*
X54521110Y-77108076D01*
G37*
G36*
X62063911Y-77346896D02*
G01*
X62119215Y-77358631D01*
X62200217Y-77378899D01*
X62300222Y-77405838D01*
X62412534Y-77437584D01*
X62530455Y-77472276D01*
X62647291Y-77508049D01*
X62756345Y-77543042D01*
X62783951Y-77552238D01*
X63299023Y-77744285D01*
X63816192Y-77974167D01*
X64330694Y-78239330D01*
X64837763Y-78537221D01*
X65332635Y-78865285D01*
X65610726Y-79067279D01*
X65736290Y-79163229D01*
X65863169Y-79263239D01*
X65987772Y-79364177D01*
X66106511Y-79462911D01*
X66215797Y-79556308D01*
X66312040Y-79641238D01*
X66391653Y-79714567D01*
X66451045Y-79773164D01*
X66486628Y-79813896D01*
X66494814Y-79833632D01*
X66490429Y-79834996D01*
X66461731Y-79823250D01*
X66419530Y-79795839D01*
X66418744Y-79795253D01*
X66361197Y-79757886D01*
X66274236Y-79708480D01*
X66166087Y-79651164D01*
X66044976Y-79590070D01*
X65919132Y-79529329D01*
X65796781Y-79473070D01*
X65686150Y-79425424D01*
X65665161Y-79416893D01*
X65235738Y-79266481D01*
X64795358Y-79155076D01*
X64346457Y-79082967D01*
X63891473Y-79050447D01*
X63432845Y-79057806D01*
X63009274Y-79100118D01*
X62890910Y-79115933D01*
X62784514Y-79127968D01*
X62681314Y-79136693D01*
X62572541Y-79142578D01*
X62449426Y-79146092D01*
X62303197Y-79147707D01*
X62125087Y-79147892D01*
X62118226Y-79147879D01*
X61822980Y-79143139D01*
X61557970Y-79129183D01*
X61313192Y-79104476D01*
X61078642Y-79067484D01*
X60844315Y-79016673D01*
X60600207Y-78950508D01*
X60377096Y-78880903D01*
X60283095Y-78847640D01*
X60174105Y-78805028D01*
X60056071Y-78755837D01*
X59934937Y-78702837D01*
X59816649Y-78648798D01*
X59707152Y-78596490D01*
X59612389Y-78548682D01*
X59538305Y-78508145D01*
X59490845Y-78477649D01*
X59475806Y-78460938D01*
X59491528Y-78448500D01*
X59511653Y-78451107D01*
X59549876Y-78458816D01*
X59621857Y-78469607D01*
X59720574Y-78482670D01*
X59839003Y-78497197D01*
X59970119Y-78512378D01*
X60106900Y-78527403D01*
X60242322Y-78541464D01*
X60369361Y-78553752D01*
X60480993Y-78563456D01*
X60498973Y-78564871D01*
X60654703Y-78574376D01*
X60831026Y-78580936D01*
X61018477Y-78584553D01*
X61207591Y-78585230D01*
X61388903Y-78582970D01*
X61552947Y-78577773D01*
X61690259Y-78569644D01*
X61745202Y-78564560D01*
X62000402Y-78527599D01*
X62217305Y-78476202D01*
X62395963Y-78410348D01*
X62536429Y-78330013D01*
X62638754Y-78235173D01*
X62694540Y-78145901D01*
X62726967Y-78031196D01*
X62719060Y-77918353D01*
X62670706Y-77807214D01*
X62581791Y-77697621D01*
X62452203Y-77589416D01*
X62281828Y-77482440D01*
X62182699Y-77430060D01*
X62114783Y-77394479D01*
X62065091Y-77365562D01*
X62041598Y-77348065D01*
X62041002Y-77345557D01*
X62063911Y-77346896D01*
G37*
%TO.C,D1*%
X71127500Y-79540000D02*
X71127500Y-81460000D01*
X71127500Y-81460000D02*
X73812500Y-81460000D01*
X73812500Y-79540000D02*
X71127500Y-79540000D01*
%TO.C,R34*%
X56322500Y-67262742D02*
X56322500Y-67737258D01*
X55277500Y-67262742D02*
X55277500Y-67737258D01*
%TO.C,K1*%
X81211320Y-78261320D02*
X79021320Y-78261320D01*
X81211320Y-75921320D02*
X81211320Y-78261320D01*
X80971320Y-78021320D02*
X80971320Y-49021320D01*
X80971320Y-49021320D02*
X68271320Y-49021320D01*
X74971320Y-76221320D02*
X74971320Y-75021320D01*
X74971320Y-75421320D02*
X74271320Y-75821320D01*
X74971320Y-75021320D02*
X74271320Y-75021320D01*
X74271320Y-76221320D02*
X74971320Y-76221320D01*
X74271320Y-75021320D02*
X74271320Y-76221320D01*
X68271320Y-78021320D02*
X80971320Y-78021320D01*
X68271320Y-49021320D02*
X68271320Y-78021320D01*
%TO.C,kibuzzard-67515B81*%
G36*
X84333932Y-80133288D02*
G01*
X84412038Y-80221870D01*
X84452042Y-80349505D01*
X84463473Y-80498095D01*
X84459901Y-80582153D01*
X84449185Y-80659068D01*
X84401560Y-80785750D01*
X84313930Y-80869570D01*
X84179627Y-80900050D01*
X84158672Y-80900050D01*
X84137718Y-80898145D01*
X84137718Y-80105665D01*
X84172007Y-80100902D01*
X84206298Y-80099950D01*
X84333932Y-80133288D01*
G37*
G36*
X85098473Y-81500760D02*
G01*
X84701598Y-81500760D01*
X84154862Y-81500760D01*
X83756717Y-81500760D01*
X81998402Y-81500760D01*
X81601527Y-81500760D01*
X81601527Y-79909450D01*
X81998402Y-79909450D01*
X81998402Y-80103760D01*
X82255577Y-80103760D01*
X82255577Y-80894335D01*
X81998402Y-80894335D01*
X81998402Y-81088645D01*
X82747067Y-81088645D01*
X82891847Y-81088645D01*
X83107112Y-81088645D01*
X83097587Y-80172340D01*
X83236652Y-80671450D01*
X83408102Y-80671450D01*
X83552883Y-80172340D01*
X83541452Y-81088645D01*
X83756717Y-81088645D01*
X83756338Y-81075310D01*
X83903402Y-81075310D01*
X84031990Y-81097218D01*
X84154862Y-81103885D01*
X84269877Y-81095551D01*
X84374890Y-81070547D01*
X84467997Y-81027447D01*
X84547293Y-80964820D01*
X84611824Y-80881714D01*
X84660640Y-80777178D01*
X84691358Y-80649781D01*
X84701598Y-80498095D01*
X84692311Y-80349743D01*
X84664450Y-80224727D01*
X84619921Y-80121381D01*
X84560628Y-80038037D01*
X84486571Y-79974458D01*
X84397750Y-79930405D01*
X84296547Y-79904687D01*
X84185342Y-79896115D01*
X84053897Y-79901830D01*
X83903402Y-79924690D01*
X83903402Y-81075310D01*
X83756338Y-81075310D01*
X83752431Y-80937912D01*
X83747192Y-80790513D01*
X83740763Y-80645256D01*
X83732905Y-80500953D01*
X83723380Y-80356411D01*
X83711950Y-80210440D01*
X83699329Y-80061850D01*
X83686233Y-79909450D01*
X83491923Y-79909450D01*
X83457632Y-80010415D01*
X83415722Y-80140908D01*
X83368097Y-80285688D01*
X83320472Y-80431420D01*
X83276657Y-80294260D01*
X83230937Y-80147575D01*
X83188075Y-80012320D01*
X83154737Y-79909450D01*
X82960427Y-79909450D01*
X82947807Y-80038514D01*
X82936615Y-80178055D01*
X82926852Y-80325216D01*
X82918517Y-80477140D01*
X82911136Y-80631921D01*
X82904230Y-80787655D01*
X82897801Y-80941008D01*
X82891847Y-81088645D01*
X82747067Y-81088645D01*
X82747067Y-80894335D01*
X82491797Y-80894335D01*
X82491797Y-80103760D01*
X82747067Y-80103760D01*
X82747067Y-79909450D01*
X81998402Y-79909450D01*
X81601527Y-79909450D01*
X81601527Y-79499240D01*
X81998402Y-79499240D01*
X84701598Y-79499240D01*
X85098473Y-79499240D01*
X85098473Y-81500760D01*
G37*
%TO.C,D2*%
X98565000Y-79540000D02*
X98565000Y-81460000D01*
X98565000Y-81460000D02*
X101250000Y-81460000D01*
X101250000Y-79540000D02*
X98565000Y-79540000D01*
%TO.C,kibuzzard-67D10362*%
G36*
X110289368Y-87012190D02*
G01*
X109892493Y-87012190D01*
X109825818Y-87012190D01*
X108473267Y-87012190D01*
X108107507Y-87012190D01*
X107710632Y-87012190D01*
X107710632Y-86525780D01*
X108107507Y-86525780D01*
X108238952Y-86583882D01*
X108341346Y-86607457D01*
X108473267Y-86615315D01*
X108606935Y-86605261D01*
X108715837Y-86575098D01*
X108799975Y-86524827D01*
X108880699Y-86415528D01*
X108907608Y-86268605D01*
X108899511Y-86179784D01*
X108875222Y-86107632D01*
X108792355Y-86000952D01*
X108681865Y-85932372D01*
X108566612Y-85885700D01*
X108493270Y-85857125D01*
X108426595Y-85821882D01*
X108378017Y-85776162D01*
X108358967Y-85716155D01*
X108379711Y-85641013D01*
X108441941Y-85595928D01*
X108545657Y-85580900D01*
X108679960Y-85599950D01*
X108785687Y-85645670D01*
X108854267Y-85464695D01*
X108722757Y-85411355D01*
X109027622Y-85411355D01*
X109031909Y-85556849D01*
X109037148Y-85707582D01*
X109043577Y-85860459D01*
X109051435Y-86012382D01*
X109060722Y-86162877D01*
X109071437Y-86311467D01*
X109083820Y-86455057D01*
X109098107Y-86590550D01*
X109292417Y-86590550D01*
X109332422Y-86465296D01*
X109376237Y-86329565D01*
X109421005Y-86193834D01*
X109463868Y-86068580D01*
X109505778Y-86197406D01*
X109547687Y-86332422D01*
X109589598Y-86466011D01*
X109631508Y-86590550D01*
X109825818Y-86590550D01*
X109838438Y-86455295D01*
X109849630Y-86312420D01*
X109859393Y-86164544D01*
X109867728Y-86014287D01*
X109874871Y-85862364D01*
X109881063Y-85709487D01*
X109886777Y-85558278D01*
X109892493Y-85411355D01*
X109675322Y-85411355D01*
X109675799Y-85525893D01*
X109677228Y-85644717D01*
X109679132Y-85764971D01*
X109681037Y-85883795D01*
X109682942Y-86000714D01*
X109684848Y-86115252D01*
X109686276Y-86225028D01*
X109686753Y-86327660D01*
X109643890Y-86175260D01*
X109603885Y-86036195D01*
X109570547Y-85918085D01*
X109547687Y-85828550D01*
X109376237Y-85828550D01*
X109349568Y-85921895D01*
X109312420Y-86051435D01*
X109270510Y-86194310D01*
X109231458Y-86327660D01*
X109231934Y-86225028D01*
X109233362Y-86115252D01*
X109235267Y-86000476D01*
X109237172Y-85882842D01*
X109239078Y-85763542D01*
X109240982Y-85643765D01*
X109242887Y-85525655D01*
X109244792Y-85411355D01*
X109027622Y-85411355D01*
X108722757Y-85411355D01*
X108718060Y-85409450D01*
X108630192Y-85390876D01*
X108528512Y-85384685D01*
X108411778Y-85395057D01*
X108313036Y-85426172D01*
X108232285Y-85478030D01*
X108151561Y-85589472D01*
X108124652Y-85737110D01*
X108155132Y-85877127D01*
X108232285Y-85971425D01*
X108336107Y-86034290D01*
X108446597Y-86078105D01*
X108526607Y-86111442D01*
X108598997Y-86151447D01*
X108652337Y-86201930D01*
X108673292Y-86266700D01*
X108664720Y-86322897D01*
X108633287Y-86372427D01*
X108571375Y-86406717D01*
X108473267Y-86419100D01*
X108378256Y-86412432D01*
X108298960Y-86392430D01*
X108176087Y-86335280D01*
X108107507Y-86525780D01*
X107710632Y-86525780D01*
X107710632Y-84987810D01*
X108107507Y-84987810D01*
X109892493Y-84987810D01*
X110289368Y-84987810D01*
X110289368Y-87012190D01*
G37*
%TD*%
M02*
