%TF.GenerationSoftware,KiCad,Pcbnew,7.0.11-rc3*%
%TF.CreationDate,2025-03-16T23:30:22+08:00*%
%TF.ProjectId,SDC 2,53444320-322e-46b6-9963-61645f706362,rev?*%
%TF.SameCoordinates,Original*%
%TF.FileFunction,Paste,Bot*%
%TF.FilePolarity,Positive*%
%FSLAX46Y46*%
G04 Gerber Fmt 4.6, Leading zero omitted, Abs format (unit mm)*
G04 Created by KiCad (PCBNEW 7.0.11-rc3) date 2025-03-16 23:30:22*
%MOMM*%
%LPD*%
G01*
G04 APERTURE LIST*
G04 Aperture macros list*
%AMRoundRect*
0 Rectangle with rounded corners*
0 $1 Rounding radius*
0 $2 $3 $4 $5 $6 $7 $8 $9 X,Y pos of 4 corners*
0 Add a 4 corners polygon primitive as box body*
4,1,4,$2,$3,$4,$5,$6,$7,$8,$9,$2,$3,0*
0 Add four circle primitives for the rounded corners*
1,1,$1+$1,$2,$3*
1,1,$1+$1,$4,$5*
1,1,$1+$1,$6,$7*
1,1,$1+$1,$8,$9*
0 Add four rect primitives between the rounded corners*
20,1,$1+$1,$2,$3,$4,$5,0*
20,1,$1+$1,$4,$5,$6,$7,0*
20,1,$1+$1,$6,$7,$8,$9,0*
20,1,$1+$1,$8,$9,$2,$3,0*%
G04 Aperture macros list end*
%ADD10RoundRect,0.200000X-0.275000X0.200000X-0.275000X-0.200000X0.275000X-0.200000X0.275000X0.200000X0*%
%ADD11RoundRect,0.250000X-0.475000X0.337500X-0.475000X-0.337500X0.475000X-0.337500X0.475000X0.337500X0*%
%ADD12RoundRect,0.225000X-0.250000X0.225000X-0.250000X-0.225000X0.250000X-0.225000X0.250000X0.225000X0*%
%ADD13RoundRect,0.200000X0.200000X0.275000X-0.200000X0.275000X-0.200000X-0.275000X0.200000X-0.275000X0*%
%ADD14RoundRect,0.200000X0.275000X-0.200000X0.275000X0.200000X-0.275000X0.200000X-0.275000X-0.200000X0*%
%ADD15RoundRect,0.150000X0.150000X-0.587500X0.150000X0.587500X-0.150000X0.587500X-0.150000X-0.587500X0*%
%ADD16RoundRect,0.225000X0.375000X-0.225000X0.375000X0.225000X-0.375000X0.225000X-0.375000X-0.225000X0*%
%ADD17RoundRect,0.200000X-0.200000X-0.275000X0.200000X-0.275000X0.200000X0.275000X-0.200000X0.275000X0*%
%ADD18RoundRect,0.137500X0.587500X0.137500X-0.587500X0.137500X-0.587500X-0.137500X0.587500X-0.137500X0*%
%ADD19RoundRect,0.125000X0.125000X0.125000X-0.125000X0.125000X-0.125000X-0.125000X0.125000X-0.125000X0*%
%ADD20RoundRect,0.150000X0.150000X-0.512500X0.150000X0.512500X-0.150000X0.512500X-0.150000X-0.512500X0*%
%ADD21RoundRect,0.225000X-0.225000X-0.375000X0.225000X-0.375000X0.225000X0.375000X-0.225000X0.375000X0*%
%ADD22RoundRect,0.237500X-0.300000X-0.237500X0.300000X-0.237500X0.300000X0.237500X-0.300000X0.237500X0*%
G04 APERTURE END LIST*
D10*
%TO.C,R24*%
X86330000Y-63250000D03*
X86330000Y-64900000D03*
%TD*%
D11*
%TO.C,C15*%
X62000000Y-66825000D03*
X62000000Y-68900000D03*
%TD*%
D12*
%TO.C,C9*%
X84686320Y-63337500D03*
X84686320Y-64887500D03*
%TD*%
D13*
%TO.C,R13*%
X72875000Y-67100000D03*
X71225000Y-67100000D03*
%TD*%
D14*
%TO.C,R30*%
X90250000Y-85000000D03*
X90250000Y-83350000D03*
%TD*%
D15*
%TO.C,Q2*%
X104200000Y-59875000D03*
X102300000Y-59875000D03*
X103250000Y-58000000D03*
%TD*%
D10*
%TO.C,R9*%
X99970000Y-60112500D03*
X99970000Y-61762500D03*
%TD*%
D16*
%TO.C,D7*%
X82850000Y-82500000D03*
X82850000Y-79200000D03*
%TD*%
D17*
%TO.C,R28*%
X84675000Y-68700000D03*
X86325000Y-68700000D03*
%TD*%
D18*
%TO.C,U7*%
X90950000Y-70730000D03*
X90950000Y-73270000D03*
X85450000Y-73270000D03*
X85450000Y-70730000D03*
%TD*%
D14*
%TO.C,R12*%
X106250000Y-66925000D03*
X106250000Y-65275000D03*
%TD*%
D19*
%TO.C,D12*%
X89050000Y-75600000D03*
X86850000Y-75600000D03*
%TD*%
D13*
%TO.C,R14*%
X100075000Y-67200000D03*
X98425000Y-67200000D03*
%TD*%
D10*
%TO.C,R23*%
X86250000Y-60075000D03*
X86250000Y-61725000D03*
%TD*%
D20*
%TO.C,U9*%
X59700000Y-69000000D03*
X58750000Y-69000000D03*
X57800000Y-69000000D03*
X57800000Y-66725000D03*
X59700000Y-66725000D03*
%TD*%
D17*
%TO.C,R16*%
X98425000Y-68800000D03*
X100075000Y-68800000D03*
%TD*%
D18*
%TO.C,U2*%
X104700000Y-70730000D03*
X104700000Y-73270000D03*
X99200000Y-73270000D03*
X99200000Y-70730000D03*
%TD*%
D12*
%TO.C,C2*%
X98436320Y-63337500D03*
X98436320Y-64887500D03*
%TD*%
D17*
%TO.C,R6*%
X96100000Y-81000000D03*
X97750000Y-81000000D03*
%TD*%
D13*
%TO.C,R1*%
X70750000Y-79250000D03*
X69100000Y-79250000D03*
%TD*%
%TO.C,R31*%
X59575000Y-64862500D03*
X57925000Y-64862500D03*
%TD*%
D15*
%TO.C,Q3*%
X70950000Y-85187500D03*
X69050000Y-85187500D03*
X70000000Y-83312500D03*
%TD*%
%TO.C,Q5*%
X98200000Y-85000000D03*
X96300000Y-85000000D03*
X97250000Y-83125000D03*
%TD*%
D14*
%TO.C,R32*%
X55750000Y-66437500D03*
X55750000Y-64787500D03*
%TD*%
D18*
%TO.C,U1*%
X77400000Y-70730000D03*
X77400000Y-73270000D03*
X71900000Y-73270000D03*
X71900000Y-70730000D03*
%TD*%
D15*
%TO.C,Q6*%
X88450000Y-84925000D03*
X86550000Y-84925000D03*
X87500000Y-83050000D03*
%TD*%
D10*
%TO.C,R7*%
X72850000Y-60300000D03*
X72850000Y-61950000D03*
%TD*%
D13*
%TO.C,R4*%
X105575000Y-68600000D03*
X103925000Y-68600000D03*
%TD*%
D15*
%TO.C,Q4*%
X90450000Y-59875000D03*
X88550000Y-59875000D03*
X89500000Y-58000000D03*
%TD*%
D12*
%TO.C,C10*%
X78950000Y-62387500D03*
X78950000Y-63937500D03*
%TD*%
D10*
%TO.C,R8*%
X72850000Y-63475000D03*
X72850000Y-65125000D03*
%TD*%
D20*
%TO.C,U4*%
X104200000Y-64862500D03*
X103250000Y-64862500D03*
X102300000Y-64862500D03*
X102300000Y-62587500D03*
X104200000Y-62587500D03*
%TD*%
D14*
%TO.C,R25*%
X72750000Y-85387500D03*
X72750000Y-83737500D03*
%TD*%
D17*
%TO.C,R15*%
X71225000Y-68700000D03*
X72875000Y-68700000D03*
%TD*%
D20*
%TO.C,U8*%
X90450000Y-64862500D03*
X89500000Y-64862500D03*
X88550000Y-64862500D03*
X88550000Y-62587500D03*
X90450000Y-62587500D03*
%TD*%
D21*
%TO.C,D6*%
X79550000Y-84600000D03*
X82850000Y-84600000D03*
%TD*%
D19*
%TO.C,D11*%
X116912500Y-82000000D03*
X114712500Y-82000000D03*
%TD*%
D13*
%TO.C,R3*%
X78275000Y-68800000D03*
X76625000Y-68800000D03*
%TD*%
D14*
%TO.C,R29*%
X100000000Y-85000000D03*
X100000000Y-83350000D03*
%TD*%
D19*
%TO.C,D3*%
X75850000Y-75500000D03*
X73650000Y-75500000D03*
%TD*%
D20*
%TO.C,U3*%
X76900000Y-65025000D03*
X75950000Y-65025000D03*
X75000000Y-65025000D03*
X75000000Y-62750000D03*
X76900000Y-62750000D03*
%TD*%
D10*
%TO.C,R10*%
X99970000Y-63287500D03*
X99970000Y-64937500D03*
%TD*%
D15*
%TO.C,Q1*%
X76900000Y-60037500D03*
X75000000Y-60037500D03*
X75950000Y-58162500D03*
%TD*%
D13*
%TO.C,R21*%
X91875000Y-68700000D03*
X90225000Y-68700000D03*
%TD*%
D17*
%TO.C,R22*%
X85175000Y-81000000D03*
X86825000Y-81000000D03*
%TD*%
D13*
%TO.C,R27*%
X86275000Y-67100000D03*
X84625000Y-67100000D03*
%TD*%
D12*
%TO.C,C4*%
X106250000Y-62225000D03*
X106250000Y-63775000D03*
%TD*%
D17*
%TO.C,R5*%
X69100000Y-81000000D03*
X70750000Y-81000000D03*
%TD*%
D19*
%TO.C,D4*%
X103050000Y-75600000D03*
X100850000Y-75600000D03*
%TD*%
D14*
%TO.C,R20*%
X118691180Y-74866180D03*
X118691180Y-73216180D03*
%TD*%
D12*
%TO.C,C3*%
X92500000Y-62225000D03*
X92500000Y-63775000D03*
%TD*%
D22*
%TO.C,C14*%
X57887500Y-70862500D03*
X59612500Y-70862500D03*
%TD*%
D12*
%TO.C,C1*%
X71136320Y-63500000D03*
X71136320Y-65050000D03*
%TD*%
D14*
%TO.C,R11*%
X78950000Y-67125000D03*
X78950000Y-65475000D03*
%TD*%
%TO.C,R26*%
X92500000Y-67025000D03*
X92500000Y-65375000D03*
%TD*%
D18*
%TO.C,U6*%
X118441180Y-76771180D03*
X118441180Y-79311180D03*
X112941180Y-79311180D03*
X112941180Y-76771180D03*
%TD*%
D13*
%TO.C,R17*%
X86825000Y-79250000D03*
X85175000Y-79250000D03*
%TD*%
%TO.C,R2*%
X97750000Y-79250000D03*
X96100000Y-79250000D03*
%TD*%
M02*
